<?xml version="1.0" encoding="utf-8"?>
<!-- Generator: Adobe Illustrator 24.3.0, SVG Export Plug-In . SVG Version: 6.00 Build 0)  -->
<svg version="1.1" id="Layer_1" xmlns="http://www.w3.org/2000/svg" xmlns:xlink="http://www.w3.org/1999/xlink" x="0px" y="0px"
	 viewBox="0 0 50 50" style="enable-background:new 0 0 50 50;" xml:space="preserve">
<style type="text/css">
	.st0{fill:#555555;}
</style>
<g>
	<rect x="13.5" y="24" class="st0" width="2.1" height="2.1"/>
	<rect x="17.7" y="24" class="st0" width="2.1" height="2.1"/>
	<rect x="21.9" y="24" class="st0" width="2.1" height="2.1"/>
	<rect x="26" y="24" class="st0" width="2.1" height="2.1"/>
	<path class="st0" d="M48.1,26.8l-3.2-3.2c-2.4-2.4-5.7-3.8-9.1-3.8h-8.1l-4.9-7.9c-0.2-0.3-0.5-0.5-0.9-0.5h-3.1c-0.6,0-1,0.5-1,1
		c0,0.1,0,0.2,0,0.3l1.8,7.1h-8.3l-2.9-9.7c-0.1-0.4-0.5-0.7-1-0.7H2c-0.6,0-1,0.5-1,1v10.4h0c0,0.3,0.1,0.5,0.3,0.7l6.5,6.5
		c2.7,2.7,6.4,4.2,10.2,4.2h0.3l-2.6,5.8c-0.2,0.5,0,1.1,0.5,1.4c0,0,0.1,0,0.1,0l3.1,1c0.4,0.1,0.9,0,1.2-0.4l5.5-7.9h19.6
		c1.8,0,3.2-1.4,3.2-3.2C49,28.2,48.7,27.4,48.1,26.8z M21.3,13.5l3.9,6.3h-3.6l-1.6-6.3H21.3z M3.1,11.4h3.4L9,19.8H3.1V11.4z
		 M19.4,38.4l-1.3-0.4l3.4-7.7h3.6L19.4,38.4z M46.8,29.5c-0.2,0.4-0.6,0.7-1.1,0.7H27.6l0.3-0.4c0.3-0.5,0.2-1.1-0.3-1.5
		c-0.2-0.1-0.4-0.2-0.6-0.2h-6.3c-0.4,0-0.8,0.2-1,0.6l-0.7,1.5H18c-3.3,0-6.4-1.3-8.7-3.6l-4.7-4.7h31.2c2.3,0,4.5,0.7,6.3,2.1
		h-7.7V26h10l2.2,2.2C46.9,28.6,47,29.1,46.8,29.5z"/>
	<rect x="30.2" y="24" class="st0" width="2.1" height="2.1"/>
</g>
</svg>
