<?xml version="1.0" encoding="utf-8"?>
<!-- Generator: Adobe Illustrator 24.3.0, SVG Export Plug-In . SVG Version: 6.00 Build 0)  -->
<svg version="1.1" id="Layer_1" xmlns="http://www.w3.org/2000/svg" xmlns:xlink="http://www.w3.org/1999/xlink" x="0px" y="0px"
	 viewBox="0 0 50 50" style="enable-background:new 0 0 50 50;" xml:space="preserve">
<style type="text/css">
	.st0{fill:#555555;}
</style>
<g>
	<rect x="19.3" y="13.5" class="st0" width="11.5" height="2.9"/>
	<path class="st0" d="M41.5,44c-0.9-1-2.1-1.6-3.4-1.8l5.5-15.3c0.3-0.7-0.1-1.6-0.9-1.8c0,0,0,0,0,0l-3.5-1.2L36.5,9
		c-0.1-0.7-0.7-1.2-1.4-1.2h-5.7V3.5c0-0.8-0.6-1.4-1.4-1.4h-5.7c-0.8,0-1.4,0.6-1.4,1.4v4.3H15c-0.7,0-1.3,0.5-1.4,1.2l-2.7,14.9
		l-3.5,1.2c-0.8,0.3-1.2,1.1-0.9,1.8c0,0,0,0,0,0l5.5,15.3c-1.3,0.2-2.5,0.8-3.4,1.8c-0.5,0.7-1.3,1-2.1,1.1V48c1.6,0,3-0.7,4.1-1.8
		c0.5-0.7,1.3-1,2.1-1.1c0.3,0,0.6,0.1,0.9,0.2c0,0,0,0,0,0c0.5,0.2,0.9,0.5,1.2,0.9c1.1,1.1,2.5,1.8,4.1,1.8c1.6,0,3-0.7,4.1-1.8
		c0.9-1.2,2.6-1.4,3.8-0.5c0.2,0.1,0.4,0.3,0.5,0.5c1,1.1,2.5,1.8,4.1,1.8c1.6,0,3-0.7,4.1-1.8c0.3-0.4,0.8-0.7,1.2-0.9c0,0,0,0,0,0
		c0.3-0.1,0.6-0.2,0.9-0.2c0.8,0,1.6,0.4,2.1,1.1c1,1.1,2.5,1.8,4.1,1.8v-2.9C42.8,45.1,42,44.7,41.5,44z M23.6,4.9h2.9v2.9h-2.9
		V4.9z M23.6,42.4c-1,0.3-1.9,0.9-2.6,1.6c-0.9,1.2-2.6,1.4-3.8,0.5c-0.2-0.1-0.4-0.3-0.5-0.5c-0.4-0.4-0.9-0.8-1.5-1.1L9.6,27.3
		l13.9-4.6V42.4z M24.5,19.3l-10.6,3.5l2.2-12.2h17.7l2.2,12.2l-10.6-3.5C25.2,19.2,24.8,19.2,24.5,19.3z M34.8,42.9
		c-0.5,0.3-1,0.7-1.5,1.1c-0.9,1.2-2.6,1.4-3.8,0.5c-0.2-0.1-0.4-0.3-0.5-0.5c-0.7-0.8-1.6-1.3-2.7-1.6V22.7l13.9,4.6L34.8,42.9z"/>
</g>
</svg>
