<?xml version="1.0" encoding="utf-8"?>
<!-- Generator: Adobe Illustrator 15.1.0, SVG Export Plug-In . SVG Version: 6.00 Build 0)  -->
<!DOCTYPE svg PUBLIC "-//W3C//DTD SVG 1.1//EN" "http://www.w3.org/Graphics/SVG/1.1/DTD/svg11.dtd" [
	<!ENTITY ns_extend "http://ns.adobe.com/Extensibility/1.0/">
	<!ENTITY ns_ai "http://ns.adobe.com/AdobeIllustrator/10.0/">
	<!ENTITY ns_graphs "http://ns.adobe.com/Graphs/1.0/">
	<!ENTITY ns_vars "http://ns.adobe.com/Variables/1.0/">
	<!ENTITY ns_imrep "http://ns.adobe.com/ImageReplacement/1.0/">
	<!ENTITY ns_sfw "http://ns.adobe.com/SaveForWeb/1.0/">
	<!ENTITY ns_custom "http://ns.adobe.com/GenericCustomNamespace/1.0/">
	<!ENTITY ns_adobe_xpath "http://ns.adobe.com/XPath/1.0/">
]>
<svg version="1.1" id="Layer_1" xmlns:x="&ns_extend;" xmlns:i="&ns_ai;" xmlns:graph="&ns_graphs;"
	 xmlns="http://www.w3.org/2000/svg" xmlns:xlink="http://www.w3.org/1999/xlink" x="0px" y="0px" width="35px" height="35px"
	 viewBox="0 0 35 35" enable-background="new 0 0 35 35" xml:space="preserve">
<metadata>
	<sfw  xmlns="&ns_sfw;">
		<slices></slices>
		<sliceSourceBounds  x="496.358" y="367" width="30.283" height="35" bottomLeftOrigin="true"></sliceSourceBounds>
	</sfw>
</metadata>
<g>
	<path fill="#6D6E70" d="M30.217,30.119L19.425,34.91h-0.181C19.123,34.971,19.027,35,18.955,35h-4.683
		c-1.88,0-3.477-0.656-4.791-1.971c-0.626,0.941-1.5,1.412-2.621,1.412H5.45c-0.868,0-1.6-0.299-2.196-0.896
		c-0.597-0.598-0.895-1.329-0.895-2.195v-4.231H4.98v4.231c0,0.313,0.156,0.469,0.47,0.469h1.41c0.313,0,0.47-0.156,0.47-0.469
		v-6.474c0-0.313-0.156-0.47-0.47-0.47H2.358c0.12-0.688,0.464-1.299,1.03-1.836c0.566-0.535,1.254-0.803,2.061-0.803h1.41
		c1.121,0,1.995,0.469,2.621,1.41c1.314-1.314,2.911-1.971,4.791-1.971h7.702c0.868,0,1.303,0.471,1.303,1.411
		c0,0.435-0.062,0.964-0.182,1.59l3.742-1.681c1-0.434,2.049-0.449,3.146-0.045c1.097,0.404,1.865,1.136,2.305,2.195
		c0.439,1.061,0.47,2.109,0.09,3.146C31.999,28.859,31.277,29.625,30.217,30.119z M29.838,25.708
		c-0.434-0.808-1.055-1.054-1.861-0.742l-8.442,3.742c-1,0.506-2.037,0.759-3.11,0.759h-1.5v-2.729h1.5
		c2.001,0,3.314-0.934,3.941-2.803h-6.183c-1.133,0-2.103,0.406-2.911,1.221c-0.807,0.814-1.211,1.781-1.211,2.902
		c0,1.192,0.404,2.195,1.211,3.01c0.808,0.813,1.778,1.221,2.911,1.221h4.411l10.505-4.701
		C29.977,27.275,30.225,26.646,29.838,25.708z M13.947,9.437c-0.784-0.783-1.175-1.705-1.175-2.766c0-1,0.313-1.877,0.94-2.63
		c0.626-0.753,1.41-1.19,2.35-1.312V0h2.801v2.639h2.822v2.803h-4.973c-0.819,0-1.229,0.379-1.229,1.139
		c0,0.808,0.41,1.211,1.229,1.211h1.501c1.121,0,2.073,0.392,2.856,1.175c0.783,0.784,1.175,1.706,1.175,2.767
		c0,1-0.328,1.877-0.985,2.63c-0.656,0.753-1.455,1.19-2.396,1.311v2.821h-2.801v-2.73h-2.82v-2.802h4.972
		c0.808,0,1.211-0.409,1.211-1.229c0-0.747-0.403-1.122-1.211-1.122h-1.501C15.652,10.612,14.73,10.221,13.947,9.437z"/>
</g>
</svg>
