<?xml version="1.0" encoding="utf-8"?>
<!-- Generator: Adobe Illustrator 15.1.0, SVG Export Plug-In . SVG Version: 6.00 Build 0)  -->
<!DOCTYPE svg PUBLIC "-//W3C//DTD SVG 1.1//EN" "http://www.w3.org/Graphics/SVG/1.1/DTD/svg11.dtd" [
	<!ENTITY ns_extend "http://ns.adobe.com/Extensibility/1.0/">
	<!ENTITY ns_ai "http://ns.adobe.com/AdobeIllustrator/10.0/">
	<!ENTITY ns_graphs "http://ns.adobe.com/Graphs/1.0/">
	<!ENTITY ns_vars "http://ns.adobe.com/Variables/1.0/">
	<!ENTITY ns_imrep "http://ns.adobe.com/ImageReplacement/1.0/">
	<!ENTITY ns_sfw "http://ns.adobe.com/SaveForWeb/1.0/">
	<!ENTITY ns_custom "http://ns.adobe.com/GenericCustomNamespace/1.0/">
	<!ENTITY ns_adobe_xpath "http://ns.adobe.com/XPath/1.0/">
]>
<svg version="1.1" id="Layer_1" xmlns:x="&ns_extend;" xmlns:i="&ns_ai;" xmlns:graph="&ns_graphs;"
	 xmlns="http://www.w3.org/2000/svg" xmlns:xlink="http://www.w3.org/1999/xlink" x="0px" y="0px" width="80px" height="40px"
	 viewBox="0 0 80 40" enable-background="new 0 0 80 40" xml:space="preserve">
<metadata>
	<sfw  xmlns="&ns_sfw;">
		<slices></slices>
		<sliceSourceBounds  height="36.157" width="76.08" y="-418.078" x="361.96" bottomLeftOrigin="true"></sliceSourceBounds>
	</sfw>
</metadata>
<path fill="#F0F0F0" d="M73.159,29.169c-1.514,2.975-4.603,5.019-8.163,5.019v-2.06c2.759,0,5.153-1.584,6.326-3.89L73.159,29.169z
	 M78.04,25.034c0,7.204-5.84,13.044-13.044,13.044c-3.925,0-7.445-1.733-9.835-4.478c0.63-0.701,1.209-1.441,1.731-2.218
	c1.887,2.403,4.817,3.949,8.104,3.949c5.545,0,10.079-4.404,10.289-9.897h-2.104v-0.801h2.104c-0.042-1.11-0.26-2.174-0.629-3.167
	l-1.944,0.806l-0.307-0.74l1.943-0.806c-0.456-0.989-1.065-1.892-1.797-2.681l-1.484,1.484l-0.566-0.566l1.484-1.484
	c-0.79-0.732-1.692-1.341-2.682-1.797l-0.805,1.944l-0.74-0.307l0.805-1.945c-0.993-0.369-2.057-0.587-3.167-0.628v2.103h-0.801
	v-2.103c-1.109,0.041-2.174,0.26-3.167,0.628l0.806,1.945l-0.74,0.307l-0.806-1.944c-0.24,0.111-0.477,0.231-0.706,0.359
	c-0.181-0.921-0.427-1.828-0.735-2.718c1.734-0.854,3.687-1.333,5.749-1.333C72.2,11.99,78.04,17.831,78.04,25.034z M63.944,24.468
	c-0.38,0.515-0.271,1.238,0.243,1.618c0.514,0.38,1.238,0.271,1.618-0.242l4.58-6.199l-6.198,4.581
	C64.099,24.291,64.014,24.374,63.944,24.468z M23.107,31.383c-1.887,2.403-4.817,3.949-8.103,3.949
	c-5.545,0-10.08-4.404-10.289-9.897h2.103v-0.801H4.715c0.041-1.11,0.259-2.174,0.628-3.167l1.945,0.806l0.307-0.74l-1.944-0.806
	c0.457-0.989,1.065-1.892,1.798-2.681l1.484,1.484l0.566-0.566l-1.484-1.484c0.79-0.732,1.692-1.341,2.681-1.797l0.806,1.944
	l0.74-0.307l-0.806-1.945c0.993-0.369,2.057-0.587,3.167-0.628v2.103h0.801v-2.103c1.11,0.041,2.174,0.26,3.167,0.628l-0.805,1.945
	l0.74,0.307l0.805-1.944c0.24,0.111,0.476,0.231,0.706,0.359c0.181-0.921,0.427-1.828,0.736-2.718
	c-1.735-0.854-3.687-1.333-5.75-1.333C7.8,11.99,1.96,17.831,1.96,25.034c0,7.204,5.84,13.044,13.044,13.044
	c3.924,0,7.445-1.733,9.835-4.478C24.209,32.899,23.63,32.159,23.107,31.383z M14.438,26.086c0.514,0.38,1.238,0.271,1.618-0.242
	c0.38-0.515,0.271-1.239-0.243-1.618l-6.199-4.581l4.581,6.199C14.261,25.932,14.344,26.018,14.438,26.086z M40,1.921
	c-9.984,0-18.079,8.094-18.079,18.079c0,9.984,8.094,18.078,18.079,18.078S58.078,29.984,58.078,20
	C58.078,10.015,49.984,1.921,40,1.921z M40,34.303c-7.887,0-14.303-6.417-14.303-14.303c0-7.887,6.416-14.303,14.303-14.303
	S54.303,12.113,54.303,20C54.303,27.886,47.887,34.303,40,34.303z M39.313,33.387v-3.203h1.373v3.203H39.313z M35.511,32.631
	l1.226-2.96l-1.269-0.525l-1.226,2.96L35.511,32.631z M31.02,29.951l2.265-2.266l-0.971-0.971l-2.266,2.266L31.02,29.951z
	 M27.895,25.757l2.96-1.226l-0.525-1.269l-2.96,1.226L27.895,25.757z M29.816,20.687v-1.373h-3.204v1.373H29.816z M30.329,16.737
	l0.525-1.268l-2.96-1.226l-0.525,1.269L30.329,16.737z M32.314,13.285l0.971-0.971l-2.265-2.265l-0.971,0.971L32.314,13.285z
	 M35.469,10.854l1.269-0.526l-1.226-2.959l-1.269,0.525L35.469,10.854z M40.687,9.816V6.613h-1.373v3.204H40.687z M44.531,10.854
	l1.227-2.96l-1.269-0.525l-1.227,2.959L44.531,10.854z M47.687,13.285l2.265-2.266l-0.971-0.971l-2.265,2.265L47.687,13.285z
	 M49.671,16.737l2.96-1.226l-0.525-1.269l-2.96,1.226L49.671,16.737z M53.387,20.687v-1.373h-3.203v1.373H53.387z M41.945,20
	c0,1.074-0.871,1.945-1.945,1.945S38.055,21.074,38.055,20c0-1.075,0.871-1.945,1.945-1.945S41.945,18.925,41.945,20z M40,10.045
	l-1.377,7.987c0.39-0.274,0.865-0.436,1.377-0.436s0.987,0.161,1.378,0.436L40,10.045z"/>
</svg>
