<?xml version="1.0" encoding="utf-8"?>
<!-- Generator: Adobe Illustrator 15.1.0, SVG Export Plug-In . SVG Version: 6.00 Build 0)  -->
<!DOCTYPE svg PUBLIC "-//W3C//DTD SVG 1.1//EN" "http://www.w3.org/Graphics/SVG/1.1/DTD/svg11.dtd" [
	<!ENTITY ns_extend "http://ns.adobe.com/Extensibility/1.0/">
	<!ENTITY ns_ai "http://ns.adobe.com/AdobeIllustrator/10.0/">
	<!ENTITY ns_graphs "http://ns.adobe.com/Graphs/1.0/">
	<!ENTITY ns_vars "http://ns.adobe.com/Variables/1.0/">
	<!ENTITY ns_imrep "http://ns.adobe.com/ImageReplacement/1.0/">
	<!ENTITY ns_sfw "http://ns.adobe.com/SaveForWeb/1.0/">
	<!ENTITY ns_custom "http://ns.adobe.com/GenericCustomNamespace/1.0/">
	<!ENTITY ns_adobe_xpath "http://ns.adobe.com/XPath/1.0/">
]>
<svg version="1.1" id="Layer_1" xmlns:x="&ns_extend;" xmlns:i="&ns_ai;" xmlns:graph="&ns_graphs;"
	 xmlns="http://www.w3.org/2000/svg" xmlns:xlink="http://www.w3.org/1999/xlink" x="0px" y="0px" width="35px" height="35px"
	 viewBox="0 0 35 35" enable-background="new 0 0 35 35" xml:space="preserve">
<metadata>
	<sfw  xmlns="&ns_sfw;">
		<slices></slices>
		<sliceSourceBounds  x="494" y="373.508" width="35" height="21.983" bottomLeftOrigin="true"></sliceSourceBounds>
	</sfw>
</metadata>
<g>
	<path fill="#FFFFFF" d="M31.605,16.628L35,14.386v9.985c0,1.104-0.404,2.061-1.221,2.873c-0.832,0.832-1.791,1.248-2.877,1.248
		H4.232c-1.146,0-2.148-0.416-3.011-1.248C0.406,26.432,0,25.475,0,24.371v-9.985l3.397,2.242v7.631
		c0,0.541,0.277,0.813,0.835,0.813h26.559c0.541,0,0.814-0.271,0.814-0.813V16.628z M17.502,21.678
		c-0.287,0-0.598-0.123-0.931-0.363L0.112,10.266c0.093-1.101,0.521-1.999,1.291-2.694c0.799-0.708,1.743-1.063,2.829-1.063h26.559
		c1.086,0,2.021,0.355,2.807,1.063c0.77,0.68,1.237,1.578,1.402,2.694L18.453,21.314C18.18,21.555,17.861,21.678,17.502,21.678z
		 M29.611,9.813H5.523l11.979,8.107L29.611,9.813z"/>
</g>
</svg>
