<?xml version="1.0" encoding="utf-8"?>
<!-- Generator: Adobe Illustrator 15.1.0, SVG Export Plug-In . SVG Version: 6.00 Build 0)  -->
<!DOCTYPE svg PUBLIC "-//W3C//DTD SVG 1.1//EN" "http://www.w3.org/Graphics/SVG/1.1/DTD/svg11.dtd" [
	<!ENTITY ns_extend "http://ns.adobe.com/Extensibility/1.0/">
	<!ENTITY ns_ai "http://ns.adobe.com/AdobeIllustrator/10.0/">
	<!ENTITY ns_graphs "http://ns.adobe.com/Graphs/1.0/">
	<!ENTITY ns_vars "http://ns.adobe.com/Variables/1.0/">
	<!ENTITY ns_imrep "http://ns.adobe.com/ImageReplacement/1.0/">
	<!ENTITY ns_sfw "http://ns.adobe.com/SaveForWeb/1.0/">
	<!ENTITY ns_custom "http://ns.adobe.com/GenericCustomNamespace/1.0/">
	<!ENTITY ns_adobe_xpath "http://ns.adobe.com/XPath/1.0/">
]>
<svg version="1.1" id="Layer_1" xmlns:x="&ns_extend;" xmlns:i="&ns_ai;" xmlns:graph="&ns_graphs;"
	 xmlns="http://www.w3.org/2000/svg" xmlns:xlink="http://www.w3.org/1999/xlink" x="0px" y="0px" width="35px" height="35px"
	 viewBox="0 0 35 35" enable-background="new 0 0 35 35" xml:space="preserve">
<metadata>
	<sfw  xmlns="&ns_sfw;">
		<slices></slices>
		<sliceSourceBounds  x="494.729" y="367" width="33.541" height="35" bottomLeftOrigin="true"></sliceSourceBounds>
	</sfw>
</metadata>
<g>
	<path fill="#6D6E70" d="M10.628,32.859c0.142-0.153,0.274-0.418,0.547-0.285c0.142,0,4.676,0.131,8.388-5.484
		c0.821-1.25,1.654-2.764,2.75-4.541l-4.676-2.215c-0.143-0.132-0.405-0.395-0.405-0.68c0-0.131,0.131-0.418,0.405-0.418
		l13.743-7.699c0.143-0.131,0.416-0.263,0.547-0.131c0.285,0.131,0.416,0.263,0.416,0.417l1.928,15.816l0,0
		c0,0.264,0,0.396-0.285,0.549c-0.131,0.131-0.404,0.131-0.547,0l-4.248-2.063c-1.654,2.325-9.209,12.24-18.419,7.699
		c-0.142-0.285-0.416-0.57-0.273-0.833C10.497,32.991,10.497,32.859,10.628,32.859L10.628,32.859z M1.003,6.865L1.003,6.865
		c0.143-0.131,0.416-0.131,0.558,0l4.26,2.063C7.19,6.997,12.282,0.131,19.148,0l0,0c1.652,0,3.295,0.417,5.092,1.228
		c0.131,0.285,0.416,0.548,0.273,0.833c0,0,0,0.132-0.143,0.132c-0.131,0.132-0.273,0.417-0.547,0.285
		c-0.143,0-4.676-0.285-8.52,5.484c-0.69,1.25-1.511,2.764-2.617,4.541l4.545,2.193c0.262,0.154,0.405,0.417,0.405,0.702
		c0,0.132,0,0.263-0.274,0.417L3.62,23.516c-0.143,0.131-0.405,0.131-0.547,0.131c-0.285-0.131-0.417-0.285-0.417-0.549L0.729,7.414
		C0.729,7.282,0.729,6.997,1.003,6.865L1.003,6.865z"/>
</g>
</svg>
