<?xml version="1.0" encoding="utf-8"?>
<!-- Generator: Adobe Illustrator 15.1.0, SVG Export Plug-In . SVG Version: 6.00 Build 0)  -->
<!DOCTYPE svg PUBLIC "-//W3C//DTD SVG 1.1//EN" "http://www.w3.org/Graphics/SVG/1.1/DTD/svg11.dtd">
<svg version="1.1" id="Layer_1" xmlns="http://www.w3.org/2000/svg" xmlns:xlink="http://www.w3.org/1999/xlink" x="0px" y="0px"
	 width="86px" height="96px" viewBox="0 0 86 96" enable-background="new 0 0 86 96" xml:space="preserve">
<g>
	<defs>
		<rect id="SVGID_1_" x="-456" y="-62.28" width="595.28" height="595.28"/>
	</defs>
	<clipPath id="SVGID_2_">
		<use xlink:href="#SVGID_1_"  overflow="visible"/>
	</clipPath>
	<path clip-path="url(#SVGID_2_)" fill="#575756" d="M-358.864,53.772c-6.863,0-12.584-4.805-14.851-12.349
		c-0.946-0.116-1.86-0.549-2.608-1.252c-0.955-0.898-1.578-2.158-1.753-3.545c-0.175-1.388,0.115-2.762,0.817-3.87
		c0.644-1.018,1.603-1.732,2.684-2.014c1.168-9.208,7.356-15.304,15.711-15.304c8.356,0,14.543,6.096,15.711,15.304
		c1.081,0.282,2.04,0.996,2.685,2.014c0.702,1.108,0.992,2.482,0.817,3.87c-0.176,1.387-0.798,2.647-1.754,3.545
		c-0.748,0.704-1.662,1.136-2.607,1.252C-346.28,48.967-352.001,53.772-358.864,53.772 M-372.584,38.361
		c0.677,0,1.29,0.46,1.457,1.146c1.661,6.843,6.474,11.265,12.263,11.265c5.789,0,10.603-4.422,12.264-11.265
		c0.195-0.802,1.006-1.297,1.807-1.104l0.177,0.048c0.503,0.066,0.942-0.264,1.156-0.465c0.442-0.416,0.746-1.049,0.832-1.736
		c0.087-0.687-0.049-1.376-0.374-1.889c-0.158-0.248-0.504-0.676-1.056-0.745h-0.002c-0.093-0.012-0.191-0.011-0.291-0.001
		c-0.403,0.043-0.812-0.075-1.126-0.335c-0.315-0.26-0.509-0.637-0.54-1.044c-0.625-8.382-5.668-13.798-12.847-13.798
		c-7.179,0-12.222,5.416-12.846,13.798c-0.031,0.407-0.226,0.784-0.541,1.044c-0.313,0.261-0.721,0.379-1.126,0.335
		c-0.099-0.01-0.196-0.011-0.291,0.001c-0.553,0.069-0.9,0.497-1.057,0.745c-0.325,0.513-0.462,1.202-0.375,1.889
		s0.391,1.32,0.832,1.736c0.214,0.201,0.659,0.529,1.209,0.459l0.124-0.042C-372.817,38.375-372.7,38.361-372.584,38.361"/>
	<path clip-path="url(#SVGID_2_)" fill="#575756" d="M-358.604,14.022c-19.792,0-16,18.417-16,18.417l0.803-0.07
		c0.169,0.715,0.699,2.792,1.114,2.653c0.383-0.128,1.532-4.023,2.049-5.838c0.765-2.03,1.089-4.378,1.213-5.59
		c2.435,0.458,10.654,1.683,21.37-0.086c-0.262,2.093-0.021,3.771,0.435,5.084c0.37,1.325,1.784,6.285,2.217,6.43
		c0.408,0.137,0.93-1.883,1.107-2.625l1.109-0.292C-343.187,32.105-338.896,14.022-358.604,14.022"/>
	<path clip-path="url(#SVGID_2_)" fill="#575756" d="M-332.832,61.939c-2.553-2.31-11.403-3.837-15.9-4.483l-10.132,25.837
		l-10.132-25.836c-4.498,0.645-13.348,2.172-15.9,4.482c-4.603,4.167-7.302,21.833-7.302,21.833h66.668
		C-325.529,83.772-328.229,66.106-332.832,61.939"/>
	<polygon clip-path="url(#SVGID_2_)" fill="#575756" points="-355.281,83.418 -362.447,83.418 -360.447,62.606 -357.281,62.606 	"/>
	<polygon clip-path="url(#SVGID_2_)" fill="#575756" points="-360.269,63.537 -361.137,60.864 -358.864,59.211 -356.59,60.864 
		-357.459,63.537 	"/>
	<polygon clip-path="url(#SVGID_2_)" fill="#FFFFFF" points="-339.27,76.356 -348.468,76.356 -343.604,74.731 	"/>
	<path clip-path="url(#SVGID_2_)" fill="#575756" d="M-82.79,53.772c-6.862,0-12.584-4.805-14.851-12.349
		c-0.946-0.116-1.86-0.548-2.608-1.252c-0.955-0.898-1.578-2.158-1.753-3.545c-0.175-1.388,0.114-2.762,0.816-3.87
		c0.646-1.018,1.604-1.732,2.685-2.014c1.169-9.208,7.355-15.304,15.711-15.304c8.356,0,14.543,6.096,15.711,15.303
		c2.309,0.601,3.851,3.118,3.502,5.885c-0.176,1.388-0.799,2.647-1.754,3.545c-0.749,0.704-1.663,1.136-2.608,1.252
		C-70.205,48.967-75.927,53.772-82.79,53.772 M-96.51,38.361c0.677,0,1.29,0.46,1.457,1.146c1.66,6.843,6.474,11.265,12.263,11.265
		c5.79,0,10.604-4.422,12.263-11.264c0.195-0.803,1.001-1.302,1.808-1.105l0.176,0.047c0.5,0.071,0.944-0.263,1.157-0.464
		c0.441-0.417,0.746-1.049,0.833-1.736c0.165-1.309-0.49-2.515-1.431-2.634c-0.001,0-0.001,0-0.002-0.001
		c-0.091-0.01-0.188-0.011-0.291,0c-0.405,0.045-0.813-0.075-1.127-0.335c-0.313-0.26-0.509-0.637-0.539-1.044
		c-0.624-8.382-5.667-13.798-12.847-13.798c-7.179,0-12.222,5.416-12.847,13.798c-0.03,0.407-0.227,0.784-0.54,1.044
		c-0.314,0.26-0.724,0.38-1.127,0.335c-0.098-0.01-0.195-0.011-0.291,0.001c-0.553,0.069-0.898,0.497-1.057,0.745
		c-0.324,0.513-0.462,1.202-0.374,1.889c0.087,0.688,0.39,1.32,0.83,1.736c0.215,0.201,0.659,0.53,1.21,0.459l0.125-0.042
		C-96.743,38.375-96.625,38.361-96.51,38.361"/>
	<path clip-path="url(#SVGID_2_)" fill="#575756" d="M-56.761,61.939c-2.492-2.255-10.992-3.765-15.579-4.437
		c-1.612,4.209-5.677,7.203-10.452,7.203s-8.841-2.994-10.452-7.203c-4.588,0.672-13.088,2.182-15.58,4.437
		c-4.604,4.167-7.301,21.833-7.301,21.833h66.667C-49.458,83.772-52.156,66.106-56.761,61.939"/>
	<path clip-path="url(#SVGID_2_)" fill="#575756" d="M-68.955,20.978c0.794-4.672-5.69-7.42-13.365-7.622
		c-9.57-0.252-15.62,3.75-15.62,3.75c0.091,2.092,0.507,3.594,0.996,4.665c-0.59,1.952-1.862,6.884-0.839,10.357l0.395-1.174
		c-0.047,0.441-0.082,0.898-0.094,1.388c0,0,0.34,3.1,1.066,3.148c0.7,0.047,2.876-4.859,2.297-10.894
		c8.435,3.621,19.804,0.957,22.64,0.196c-0.515,5.946,1.625,10.744,2.317,10.698c0.727-0.048,1.065-3.148,1.065-3.148
		c-0.01-0.378-0.029-0.74-0.061-1.089l0.295,0.875C-66.624,27.924-68.748,21.579-68.955,20.978"/>
	<path clip-path="url(#SVGID_2_)" fill="#575756" d="M-218.789,53.772c-6.863,0-12.584-4.805-14.851-12.349
		c-0.946-0.116-1.86-0.549-2.608-1.252c-0.955-0.898-1.578-2.158-1.753-3.545c-0.175-1.388,0.115-2.762,0.817-3.87
		c0.644-1.018,1.603-1.732,2.684-2.014c1.168-9.208,7.356-15.304,15.711-15.304c8.356,0,14.543,6.096,15.711,15.304
		c1.081,0.282,2.04,0.996,2.685,2.014c0.702,1.108,0.992,2.482,0.817,3.87c-0.176,1.387-0.798,2.647-1.754,3.545
		c-0.748,0.704-1.662,1.136-2.607,1.252C-206.205,48.967-211.926,53.772-218.789,53.772 M-232.509,38.361
		c0.677,0,1.29,0.46,1.457,1.146c1.661,6.843,6.474,11.265,12.263,11.265c5.789,0,10.603-4.422,12.264-11.265
		c0.195-0.802,1.007-1.297,1.807-1.104l0.177,0.048c0.498,0.066,0.942-0.264,1.156-0.465c0.442-0.416,0.746-1.049,0.832-1.736
		c0.087-0.687-0.049-1.376-0.374-1.889c-0.158-0.248-0.504-0.676-1.056-0.745h-0.002c-0.093-0.012-0.191-0.011-0.291-0.001
		c-0.405,0.043-0.812-0.075-1.126-0.335c-0.315-0.26-0.509-0.637-0.54-1.044c-0.625-8.382-5.668-13.798-12.847-13.798
		c-7.179,0-12.222,5.416-12.846,13.798c-0.031,0.407-0.226,0.784-0.541,1.044c-0.314,0.261-0.722,0.379-1.126,0.335
		c-0.099-0.01-0.196-0.011-0.291,0.001c-0.553,0.069-0.9,0.497-1.057,0.745c-0.325,0.513-0.462,1.202-0.375,1.889
		s0.391,1.32,0.832,1.736c0.214,0.201,0.658,0.529,1.209,0.459l0.124-0.042C-232.742,38.375-232.625,38.361-232.509,38.361"/>
	<path clip-path="url(#SVGID_2_)" fill="#575756" d="M-233.727,32.369c0.169,0.715,0.699,2.792,1.114,2.653
		c0.383-0.128,1.532-4.023,2.05-5.838c0.419-1.114,0.705-2.323,0.899-3.392c4.617,0.306,15.017,0.641,20.788-1.946
		c0.207,1.968,0.775,4.69,2.19,7.682c0.518,1.685,1.105,3.409,1.357,3.494c0.399,0.133,0.905-1.787,1.094-2.569
		c0.261-0.093,0.562-0.133,0.917-0.056c0.04-0.077,0.074-0.177,0.111-0.267l0.094-0.025c0,0,0.052-0.223,0.116-0.603
		c0.366-1.345,0.517-3.349,0.527-4.889c0.038-5.672-2.4-9.9-4.788-9.415c-1.063-1.756-3.116-3.428-7.06-3.926
		c-3.984-0.502-9.192,0.165-12.95,2.412c-9.776,4.529-7.262,16.755-7.262,16.755L-233.727,32.369z"/>
	<path clip-path="url(#SVGID_2_)" fill="#575756" d="M-192.666,61.939c-2.553-2.31-11.403-3.837-15.9-4.483l-10.132,19.829
		l-10.132-19.828c-4.498,0.645-13.347,2.172-15.9,4.482c-4.603,4.167-7.302,21.833-7.302,21.833h66.669
		C-185.362,83.772-188.062,66.106-192.666,61.939"/>
	<path clip-path="url(#SVGID_2_)" fill="#575756" d="M-214.652,58.195l-2.5,1.443c-0.195,0.113-0.346,0.24-0.478,0.371
		c-0.13-0.409-0.548-0.716-1.067-0.716s-0.937,0.307-1.067,0.716c-0.132-0.131-0.283-0.258-0.478-0.371l-2.5-1.443
		c-1.203-0.694-2.187-0.126-2.187,1.263v2.885c0,1.39,0.984,1.957,2.187,1.263l2.5-1.443c0.197-0.114,0.351-0.243,0.484-0.377
		c0.138,0.398,0.551,0.694,1.061,0.694c0.51,0,0.923-0.296,1.062-0.694c0.132,0.134,0.286,0.263,0.483,0.377l2.5,1.443
		c1.203,0.694,2.187,0.127,2.187-1.263v-2.885C-212.465,58.069-213.449,57.501-214.652,58.195"/>
	<path clip-path="url(#SVGID_2_)" fill="#575756" d="M40.675,53.581c-6.599,0-12.096-4.783-14.271-12.292
		c-0.733-0.101-1.444-0.403-2.07-0.888c-1.146-0.889-1.912-2.307-2.105-3.891c-0.33-2.732,1.142-5.221,3.351-5.843
		c1.119-9.168,7.065-15.238,15.097-15.238s13.978,6.07,15.097,15.238c2.209,0.622,3.681,3.111,3.351,5.842
		c-0.193,1.585-0.96,3.003-2.105,3.892c-0.627,0.485-1.338,0.788-2.071,0.888C52.771,48.798,47.275,53.581,40.675,53.581
		 M27.547,38.233c0.272,0,0.543,0.075,0.78,0.219c0.344,0.209,0.589,0.548,0.681,0.94c1.586,6.796,6.165,11.188,11.667,11.188
		s10.081-4.391,11.666-11.188c0.092-0.391,0.336-0.73,0.679-0.939c0.344-0.21,0.758-0.274,1.146-0.175l0.174,0.049
		c0.302,0.044,0.634-0.139,0.838-0.298c0.51-0.395,0.871-1.099,0.966-1.882c0.155-1.283-0.461-2.508-1.319-2.621
		c-0.001,0-0.001,0-0.002,0c-0.081-0.011-0.16-0.011-0.247-0.001c-0.397,0.05-0.815-0.07-1.132-0.332
		c-0.317-0.261-0.513-0.64-0.543-1.049c-0.597-8.332-5.396-13.716-12.226-13.716s-11.629,5.384-12.227,13.716
		c-0.029,0.408-0.225,0.788-0.541,1.049c-0.316,0.261-0.72,0.384-1.132,0.332c-0.088-0.01-0.17-0.01-0.248,0.001
		c-0.86,0.113-1.477,1.338-1.321,2.622c0.095,0.782,0.456,1.486,0.966,1.881c0.194,0.152,0.504,0.318,0.854,0.294l0.154-0.044
		C27.301,38.249,27.424,38.233,27.547,38.233"/>
	<path clip-path="url(#SVGID_2_)" fill="#575756" d="M72.596,84.918H8.81c-0.436,0-0.851-0.189-1.135-0.52
		c-0.285-0.329-0.413-0.767-0.35-1.198c0.272-1.852,2.794-18.219,7.443-22.595c2.523-2.375,9.903-3.919,15.651-4.796
		c0.466-0.07,0.933,0.079,1.269,0.404l9.015,8.712l9.012-8.712c0.338-0.325,0.804-0.473,1.27-0.404
		c5.748,0.877,13.13,2.422,15.652,4.796c4.649,4.376,7.171,20.743,7.443,22.595c0.063,0.431-0.064,0.869-0.35,1.198
		C73.446,84.729,73.031,84.918,72.596,84.918 M10.568,81.918h60.269c-0.956-5.611-3.299-16.345-6.257-19.128
		c-1.435-1.351-6.387-2.798-13.316-3.901l-9.518,9.201c-0.582,0.562-1.505,0.562-2.085,0l-9.521-9.201
		c-6.929,1.102-11.88,2.549-13.315,3.901C13.867,65.573,11.524,76.307,10.568,81.918"/>
	<path clip-path="url(#SVGID_2_)" fill="#575756" d="M49.206,17.841c0,0-1.436-2.902-8.93-2.902s-17.062,5.886-14.909,17.078
		c0,0,1.436,3.482,2.232,4.228c0,0,0.49-2.046,0.624-4.249c10.29-1.35,19.468-7.855,19.468-7.855c1.37,3.842,3.34,6.072,4.829,7.3
		c0.133,1.43,0.381,3.504,0.771,4.721c0,0,2.293-3.399,2.532-4.974C56.063,29.613,57.497,17.178,49.206,17.841"/>
	<path clip-path="url(#SVGID_2_)" fill="#575756" d="M-185.364,202.439h-66.667c-0.438,0-0.853-0.191-1.138-0.522
		c-0.285-0.332-0.411-0.772-0.345-1.205c0.285-1.862,2.919-18.321,7.777-22.718c2.629-2.379,10.353-3.929,16.37-4.809
		c0.693-0.102,1.366,0.292,1.618,0.948c1.428,3.731,5.066,6.239,9.051,6.239s7.623-2.508,9.051-6.239
		c0.252-0.656,0.927-1.047,1.618-0.948c6.017,0.88,13.741,2.43,16.37,4.808c4.858,4.398,7.493,20.857,7.778,22.719
		c0.066,0.433-0.06,0.873-0.345,1.205C-184.511,202.248-184.927,202.439-185.364,202.439 M-250.262,199.439h63.128
		c-0.999-5.638-3.446-16.423-6.538-19.221c-1.491-1.349-6.56-2.789-13.665-3.895c-2.128,4.261-6.55,7.049-11.361,7.049
		s-9.234-2.788-11.361-7.049c-7.105,1.106-12.174,2.546-13.665,3.895C-246.818,183.019-249.264,193.802-250.262,199.439"/>
	<path clip-path="url(#SVGID_2_)" fill="#575756" d="M-218.693,170.942c-6.861,0-12.585-4.804-14.858-12.347
		c-2.171-0.262-4.038-2.227-4.36-4.807c-0.346-2.75,1.195-5.27,3.497-5.881c0.264-2.128,0.801-4.109,1.601-5.905
		c1.187-2.695,2.984-4.964,5.193-6.557c2.532-1.857,5.623-2.843,8.927-2.843c3.286,0,6.368,0.982,8.914,2.838
		c2.211,1.601,4.006,3.862,5.188,6.535c0.797,1.796,1.335,3.786,1.607,5.931c2.303,0.61,3.845,3.131,3.5,5.883
		c-0.322,2.57-2.178,4.529-4.358,4.801C-206.114,166.136-211.835,170.942-218.693,170.942 M-232.421,155.531
		c0.677,0,1.289,0.461,1.456,1.146c1.666,6.843,6.484,11.265,12.272,11.265c5.783,0,10.597-4.422,12.263-11.265
		c0.194-0.795,0.986-1.29,1.784-1.109c0.062,0.014,0.124,0.031,0.187,0.049c0.934,0.039,1.839-0.929,1.999-2.201
		c0.161-1.285-0.476-2.478-1.397-2.632c-0.112-0.011-0.221-0.009-0.33-0.001c-0.397,0.038-0.813-0.09-1.119-0.35
		c-0.305-0.259-0.511-0.628-0.542-1.028c-0.173-2.291-0.673-4.382-1.485-6.215c-0.969-2.19-2.424-4.03-4.209-5.323
		c-2.034-1.483-4.505-2.265-7.151-2.265c-2.662,0-5.138,0.785-7.162,2.27c-1.812,1.306-3.227,3.102-4.215,5.345
		c-0.818,1.837-1.314,3.915-1.476,6.182c-0.029,0.4-0.217,0.773-0.522,1.033c-0.305,0.262-0.701,0.388-1.102,0.355
		c-0.176-0.015-0.255-0.014-0.368-0.003c-0.921,0.154-1.558,1.347-1.396,2.631c0.16,1.285,1.068,2.287,1.994,2.204
		c0.074-0.022,0.133-0.038,0.192-0.051C-232.639,155.543-232.529,155.531-232.421,155.531 M-232.886,155.613
		c-0.004,0.001-0.009,0.001-0.015,0.002C-232.896,155.615-232.892,155.614-232.886,155.613 M-204.539,155.61
		c0.009,0.001,0.018,0.002,0.027,0.003C-204.521,155.612-204.53,155.611-204.539,155.61"/>
	<path clip-path="url(#SVGID_2_)" fill="#575756" d="M-218.692,131.952c-8.449,0-15.3,6.5-15.3,14.51c0,0.97,0.101,1.92,0.29,2.83
		h0.01c0.1-0.01,0.21-0.02,0.31-0.02c-0.01,0.08-0.01,0.16-0.01,0.24c0,0,0.13,1.21,0.41,2.13c0,0.01,0.01,0.02,0.01,0.03
		c0.09,0.3,0.2,0.57,0.33,0.75c0.09,0.14,0.199,0.22,0.319,0.23c0.588,0.04,2.193-3.348,2.376-7.964
		c0.231-1.878,0.767-4.704,1.948-5.479c1.236-0.809,2.682,0.297,3.803,1.17l0.003,0.003c0.03,0.023,0.056,0.042,0.085,0.065
		c0.109,0.085,0.214,0.166,0.316,0.243c0.05,0.038,0.102,0.076,0.15,0.112c0.121,0.088,0.235,0.167,0.342,0.233
		c0.021,0.014,0.047,0.035,0.068,0.047c1.31,0.83,2.859,1.31,4.529,1.31c1.601,0,3.101-0.44,4.37-1.22
		c0.031-0.02,0.061-0.03,0.101-0.05c0.023-0.015,0.043-0.034,0.066-0.049c1.128-0.658,3.131-2.934,4.765-1.864
		c1.182,0.775,1.717,3.602,1.948,5.48c0,0.008,0,0.015,0,0.023v0.03c0.2,4.59,1.8,7.95,2.38,7.91c0.12-0.01,0.231-0.1,0.33-0.25
		c0.12-0.17,0.231-0.43,0.321-0.73c0-0.01,0.009-0.02,0.009-0.03c0.203-0.666,0.326-1.478,0.379-1.879
		c0.102-0.126,0.167-0.285,0.186-0.48c0.049,0.003,0.099,0.004,0.146,0.009h0.01c0.19-0.91,0.29-1.86,0.29-2.83
		C-203.402,138.452-210.252,131.952-218.692,131.952"/>
	<path clip-path="url(#SVGID_2_)" fill="#575756" d="M68.176,179.105c-2.482-2.247-10.922-3.753-15.521-4.428l-10.511,9.77
		l-10.51-9.77c-4.6,0.675-13.039,2.182-15.521,4.428c-4.603,4.167-7.303,21.833-7.303,21.833h66.669
		C75.479,200.938,72.779,183.272,68.176,179.105"/>
	<path clip-path="url(#SVGID_2_)" fill="#575756" d="M42.14,170.942c-6.855,0-12.575-4.804-14.849-12.348
		c-0.795-0.098-1.578-0.424-2.262-0.96c-1.146-0.897-1.911-2.301-2.098-3.853c-0.305-2.336,0.771-4.514,2.528-5.484
		c-0.072-0.607-0.108-1.22-0.108-1.835c0-5.548,3.008-10.925,7.85-14.033c2.698-1.737,5.79-2.657,8.938-2.657
		c3.161,0,6.255,0.92,8.946,2.66c4.837,3.106,7.845,8.483,7.845,14.03c0,0.632-0.035,1.247-0.105,1.838
		c1.75,0.971,2.827,3.145,2.534,5.488c-0.32,2.566-2.176,4.525-4.357,4.801C54.729,166.135,49.004,170.942,42.14,170.942
		 M28.422,155.531c0.677,0,1.29,0.461,1.456,1.146c1.667,6.843,6.479,11.265,12.262,11.265c5.79,0,10.607-4.422,12.274-11.265
		c0.193-0.795,0.985-1.287,1.787-1.108c0.062,0.014,0.125,0.031,0.188,0.05c0.933,0.046,1.835-0.929,1.994-2.202v-0.001
		c0.162-1.302-0.498-2.51-1.443-2.637c-0.416-0.056-0.79-0.284-1.03-0.628c-0.24-0.345-0.325-0.774-0.233-1.184
		c0.169-0.763,0.255-1.605,0.255-2.505c0-4.537-2.479-8.946-6.47-11.508c-4.408-2.85-10.197-2.861-14.637-0.001
		c-3.993,2.562-6.473,6.972-6.473,11.509c0,0.854,0.087,1.703,0.258,2.525c0.085,0.407-0.004,0.832-0.244,1.171
		c-0.24,0.34-0.61,0.565-1.023,0.621c-0.946,0.128-1.603,1.332-1.434,2.629c0.094,0.781,0.447,1.454,0.97,1.864
		c0.229,0.18,0.589,0.383,1.025,0.347c0.073-0.022,0.133-0.038,0.191-0.051C28.204,155.543,28.314,155.531,28.422,155.531
		 M27.957,155.613c-0.004,0.001-0.009,0.001-0.015,0.002C27.947,155.615,27.952,155.614,27.957,155.613 M56.312,155.612
		c0.003,0,0.007,0.001,0.01,0.001C56.318,155.613,56.314,155.612,56.312,155.612"/>
	<path clip-path="url(#SVGID_2_)" fill="#575756" d="M42.144,141.112c-4.386,0-8.226-2.798-9.557-6.963
		c-0.206-0.646,0.046-1.35,0.616-1.717c2.7-1.74,5.792-2.66,8.94-2.66c3.161,0,6.255,0.92,8.946,2.661
		c0.569,0.368,0.82,1.071,0.614,1.716C50.372,138.313,46.529,141.112,42.144,141.112 M35.897,134.329
		c1.189,2.303,3.573,3.783,6.246,3.783c2.674,0,5.06-1.481,6.25-3.784C44.526,132.29,39.793,132.282,35.897,134.329"/>
	<path clip-path="url(#SVGID_2_)" fill="#575756" d="M36.813,155.87c-2.897,0-5.254-2.357-5.254-5.254s2.356-5.253,5.254-5.253
		c2.896,0,5.252,2.356,5.252,5.253S39.709,155.87,36.813,155.87 M36.813,148.363c-1.243,0-2.254,1.011-2.254,2.253
		c0,1.243,1.011,2.254,2.254,2.254c1.242,0,2.252-1.011,2.252-2.254C39.064,149.375,38.055,148.363,36.813,148.363"/>
	<path clip-path="url(#SVGID_2_)" fill="#575756" d="M47.479,155.87c-2.897,0-5.254-2.357-5.254-5.254s2.356-5.253,5.254-5.253
		c2.896,0,5.252,2.356,5.252,5.253S50.374,155.87,47.479,155.87 M47.479,148.363c-1.243,0-2.254,1.011-2.254,2.253
		c0,1.243,1.011,2.254,2.254,2.254c1.242,0,2.252-1.011,2.252-2.254C49.73,149.375,48.721,148.363,47.479,148.363"/>
	<rect x="40.576" y="147.939" clip-path="url(#SVGID_2_)" fill="#575756" width="3" height="3"/>
	<rect x="27.522" y="147.772" clip-path="url(#SVGID_2_)" fill="#575756" width="5.5" height="3"/>
	<rect x="51.271" y="147.772" clip-path="url(#SVGID_2_)" fill="#575756" width="5.5" height="3"/>
	<path clip-path="url(#SVGID_2_)" fill="#575756" d="M-49.459,202.439h-66.667c-0.437,0-0.852-0.191-1.137-0.522
		c-0.285-0.332-0.411-0.772-0.345-1.205c0.284-1.862,2.918-18.321,7.776-22.719c2.629-2.379,10.354-3.928,16.37-4.808
		c0.683-0.102,1.366,0.292,1.617,0.948c1.428,3.731,5.066,6.239,9.051,6.239c3.985,0,7.623-2.508,9.053-6.24
		c0.251-0.655,0.935-1.046,1.617-0.947c6.017,0.88,13.74,2.429,16.369,4.808c4.858,4.398,7.494,20.857,7.778,22.719
		c0.066,0.433-0.06,0.873-0.345,1.204C-48.605,202.248-49.021,202.439-49.459,202.439 M-114.355,199.439h63.128
		c-0.999-5.638-3.447-16.423-6.54-19.221c-1.49-1.349-6.56-2.789-13.663-3.895c-2.129,4.261-6.552,7.049-11.362,7.049
		c-4.81,0-9.232-2.788-11.36-7.049c-7.104,1.106-12.174,2.546-13.664,3.895C-110.912,183.019-113.358,193.802-114.355,199.439"/>
	<path clip-path="url(#SVGID_2_)" fill="#575756" d="M-82.787,170.942c-6.861,0-12.585-4.803-14.858-12.346
		c-2.171-0.263-4.039-2.228-4.359-4.809c-0.295-2.342,0.779-4.517,2.527-5.488c-0.072-0.608-0.109-1.223-0.109-1.837
		c0-9.046,7.693-16.688,16.8-16.688c9.101,0,16.789,7.642,16.789,16.688c0,0.617-0.036,1.231-0.108,1.837
		c1.748,0.971,2.822,3.146,2.528,5.49c-0.321,2.57-2.178,4.529-4.358,4.801C-70.208,166.136-75.93,170.942-82.787,170.942
		 M-96.516,155.531c0.677,0,1.29,0.461,1.456,1.146c1.667,6.843,6.483,11.265,12.272,11.265c5.783,0,10.597-4.422,12.264-11.265
		c0.192-0.796,0.987-1.287,1.787-1.109c0.06,0.014,0.12,0.031,0.182,0.049c0.979,0.039,1.84-0.929,2-2.201
		c0.163-1.303-0.493-2.51-1.434-2.638c-0.413-0.055-0.784-0.28-1.024-0.621c-0.24-0.339-0.328-0.764-0.242-1.172
		c0.17-0.816,0.257-1.665,0.257-2.523c0-7.42-6.314-13.688-13.789-13.688c-7.48,0-13.8,6.268-13.8,13.688
		c0,0.851,0.087,1.7,0.259,2.524c0.085,0.408-0.004,0.832-0.244,1.172c-0.24,0.34-0.61,0.565-1.023,0.62
		c-0.94,0.128-1.597,1.335-1.434,2.637c0.161,1.286,1.104,2.289,1.995,2.204c0.073-0.022,0.133-0.038,0.191-0.051
		C-96.733,155.543-96.623,155.531-96.516,155.531 M-96.98,155.613c-0.004,0.001-0.009,0.001-0.015,0.002
		C-96.99,155.615-96.985,155.614-96.98,155.613 M-68.634,155.61c0.01,0.001,0.019,0.002,0.027,0.003
		C-68.615,155.612-68.624,155.611-68.634,155.61"/>
	<rect x="-87.125" y="187.272" clip-path="url(#SVGID_2_)" fill="#575756" width="8.667" height="3"/>
	<rect x="-85.958" y="191.438" clip-path="url(#SVGID_2_)" fill="#575756" width="6.333" height="3"/>
	<path clip-path="url(#SVGID_2_)" fill="#575756" d="M-332.832,179.105c-2.492-2.255-10.993-3.765-15.58-4.437
		c-1.611,4.209-5.677,7.203-10.452,7.203c-4.776,0-8.841-2.994-10.452-7.203c-4.587,0.672-13.088,2.182-15.58,4.437
		c-4.603,4.167-7.301,21.833-7.301,21.833h66.667C-325.53,200.938-328.228,183.272-332.832,179.105"/>
	<path clip-path="url(#SVGID_2_)" fill="#575756" d="M-358.999,170.942c-6.861,0-12.585-4.804-14.858-12.347
		c-2.171-0.262-4.038-2.227-4.36-4.807c-0.346-2.75,1.195-5.27,3.497-5.881c0.264-2.128,0.801-4.109,1.601-5.905
		c1.187-2.695,2.984-4.964,5.193-6.557c2.532-1.857,5.623-2.843,8.927-2.843c3.286,0,6.368,0.982,8.914,2.838
		c2.211,1.601,4.006,3.862,5.188,6.535c0.797,1.796,1.335,3.786,1.607,5.931c2.303,0.61,3.845,3.131,3.5,5.883
		c-0.322,2.57-2.178,4.529-4.358,4.801C-346.42,166.136-352.141,170.942-358.999,170.942 M-372.727,155.531
		c0.677,0,1.289,0.461,1.456,1.146c1.666,6.843,6.484,11.265,12.272,11.265c5.783,0,10.597-4.422,12.263-11.265
		c0.194-0.795,0.986-1.29,1.784-1.109c0.062,0.014,0.124,0.031,0.187,0.049c0.936,0.039,1.839-0.929,1.999-2.201
		c0.161-1.285-0.476-2.478-1.397-2.632c-0.112-0.011-0.221-0.009-0.33-0.001c-0.398,0.038-0.813-0.09-1.119-0.35
		c-0.305-0.259-0.511-0.628-0.542-1.028c-0.173-2.291-0.673-4.382-1.485-6.215c-0.969-2.19-2.424-4.03-4.209-5.323
		c-2.034-1.483-4.505-2.265-7.151-2.265c-2.662,0-5.138,0.785-7.162,2.27c-1.812,1.306-3.227,3.102-4.215,5.345
		c-0.818,1.837-1.314,3.915-1.476,6.182c-0.029,0.4-0.217,0.773-0.522,1.033c-0.305,0.262-0.7,0.388-1.102,0.355
		c-0.176-0.015-0.255-0.014-0.368-0.003c-0.921,0.154-1.558,1.347-1.396,2.631c0.161,1.285,1.076,2.287,1.994,2.204
		c0.074-0.022,0.133-0.038,0.192-0.051C-372.945,155.543-372.835,155.531-372.727,155.531 M-373.192,155.613
		c-0.004,0.001-0.009,0.001-0.015,0.002C-373.202,155.615-373.198,155.614-373.192,155.613 M-344.845,155.61
		c0.009,0.001,0.018,0.002,0.027,0.003C-344.827,155.612-344.836,155.611-344.845,155.61"/>
	<path clip-path="url(#SVGID_2_)" fill="#575756" d="M-344.318,149.272c-0.12-3.29-1.09-5.43-1.95-6.69
		c-0.168-0.257-0.337-0.475-0.505-0.663c0.002-0.009,0.004-0.022,0.004-0.022c-0.736-2.305-3.311-4.104-4.389-4.774v-0.001
		c0.08-0.15,0.14-0.31,0.19-0.47c-2.29-1.67-5.05-2.55-8.031-2.55c-2.979,0-5.759,0.88-8.049,2.56c0.049,0.16,0.11,0.31,0.18,0.46
		c0.001,0.003,0.003,0.005,0.004,0.008c-1.085,0.676-3.645,2.471-4.378,4.767c0,0,0.002,0.013,0.004,0.027
		c-0.167,0.197-0.343,0.423-0.511,0.688c-0.859,1.27-1.819,3.4-1.939,6.66c-0.01,0.08-0.01,0.16-0.01,0.24c0,0,0.13,1.21,0.41,2.13
		c0,0.01,0.01,0.02,0.01,0.03c0.09,0.3,0.2,0.57,0.33,0.75c0.09,0.14,0.199,0.22,0.319,0.23c0.588,0.04,2.194-3.348,2.376-7.963
		c0.231-1.878,0.767-4.705,1.949-5.48c1.235-0.809,2.682,0.297,3.802,1.17l0.003,0.003c0.03,0.023,0.056,0.042,0.085,0.065
		c0.109,0.085,0.215,0.166,0.317,0.243c0.05,0.039,0.101,0.077,0.15,0.112c0.12,0.089,0.234,0.167,0.341,0.234
		c0.022,0.013,0.048,0.034,0.068,0.046c1.31,0.83,2.86,1.31,4.53,1.31c1.6,0,3.1-0.44,4.37-1.22c0.03-0.02,0.06-0.03,0.1-0.05
		c0.024-0.015,0.043-0.034,0.067-0.049c1.128-0.658,3.131-2.934,4.764-1.864c1.182,0.775,1.718,3.603,1.949,5.48
		c0,0.008-0.001,0.016,0,0.023v0.03c0.2,4.59,1.799,7.95,2.379,7.91c0.121-0.01,0.231-0.1,0.331-0.25c0.12-0.17,0.23-0.43,0.32-0.73
		c0-0.01,0.01-0.02,0.01-0.03c0.28-0.92,0.41-2.13,0.41-2.13C-344.309,149.432-344.309,149.352-344.318,149.272"/>
	<path clip-path="url(#SVGID_2_)" fill="#575756" d="M-358.979,296.938c-6.862,0-12.583-4.805-14.851-12.347
		c-2.181-0.269-4.037-2.226-4.361-4.799c-0.176-1.387,0.115-2.762,0.817-3.869c0.644-1.019,1.603-1.732,2.684-2.015
		c1.168-9.208,7.356-15.304,15.711-15.304c8.356,0,14.543,6.096,15.711,15.304c1.081,0.282,2.04,0.996,2.685,2.015
		c0.702,1.107,0.992,2.482,0.817,3.87c-0.325,2.572-2.183,4.53-4.362,4.798C-346.395,292.135-352.117,296.938-358.979,296.938
		 M-372.7,281.528c0.272,0,0.542,0.074,0.779,0.219c0.341,0.206,0.585,0.54,0.679,0.927c1.66,6.844,6.474,11.265,12.263,11.265
		c5.789,0,10.603-4.421,12.264-11.265c0.094-0.387,0.338-0.721,0.678-0.927c0.341-0.208,0.75-0.27,1.136-0.176l0.171,0.047
		c0.881,0.114,1.822-0.892,1.987-2.2c0.087-0.688-0.049-1.376-0.374-1.889c-0.158-0.249-0.504-0.677-1.056-0.746
		c-0.002,0-0.004,0-0.005-0.001c-0.09-0.012-0.188-0.012-0.288,0c-0.403,0.05-0.812-0.075-1.126-0.335
		c-0.315-0.26-0.509-0.637-0.54-1.044c-0.625-8.382-5.668-13.798-12.847-13.798c-7.179,0-12.222,5.416-12.846,13.798
		c-0.031,0.407-0.226,0.784-0.541,1.044c-0.313,0.261-0.721,0.386-1.126,0.335c-0.1-0.012-0.197-0.012-0.288,0
		c-0.556,0.07-0.903,0.498-1.06,0.747c-0.325,0.513-0.462,1.201-0.375,1.888c0.165,1.309,1.1,2.321,2.042,2.195l0.116-0.041
		C-372.938,281.543-372.819,281.528-372.7,281.528"/>
	<path clip-path="url(#SVGID_2_)" fill="#58595B" d="M-349.062,258.522c-2.214-0.604-3.453-0.35-4.138,0.247
		c-2.024-1.395-5.991-3.07-12.299-1.372c-9.456,2.546-17.376,16.25-12,34.75l9.25-0.25l-4.375-8.375c0,0-4-0.25-3.625-5
		s2.875-3.25,2.875-3.25l0.23-0.159c-0.068,0.729-0.074,1.175-0.074,1.175c12.736-2.651,17.483-9.682,19.023-12.883
		c0.515,2.911,2.39,8.109,9.055,12.758c0,0,0.077-0.369,0.122-1c0.634-0.235,2.331-0.488,2.635,3.359c0.375,4.75-3.625,5-3.625,5
		l-4.375,8.375l9.25,0.25C-335.758,273.647-341.611,260.554-349.062,258.522"/>
	<path clip-path="url(#SVGID_2_)" fill="#575756" d="M-336.736,306.767c-2.797-2.979-14.49-6.149-15.68-6.466l-6.447,17.472
		l-6.448-17.472c-1.193,0.317-12.883,3.488-15.679,6.466c-3.913,4.167-6.207,20.173-6.207,20.173h56.668
		C-330.529,326.939-332.823,310.934-336.736,306.767"/>
	<path clip-path="url(#SVGID_2_)" fill="#575756" d="M-82.628,296.938c-6.861,0-12.583-4.805-14.851-12.349
		c-0.946-0.116-1.859-0.549-2.607-1.252c-0.955-0.898-1.578-2.157-1.753-3.545c-0.176-1.387,0.113-2.761,0.815-3.869
		c0.645-1.019,1.604-1.732,2.686-2.015c1.168-9.208,7.354-15.304,15.71-15.304c8.356,0,14.544,6.096,15.712,15.304
		c1.081,0.282,2.04,0.996,2.686,2.015c0.701,1.108,0.991,2.482,0.815,3.87c-0.175,1.387-0.798,2.646-1.754,3.544
		c-0.747,0.704-1.661,1.137-2.606,1.252C-70.043,292.134-75.765,296.938-82.628,296.938 M-96.349,281.528
		c0.272,0,0.542,0.074,0.779,0.218c0.34,0.207,0.584,0.541,0.679,0.928c1.661,6.843,6.475,11.265,12.263,11.265
		c5.789,0,10.604-4.422,12.265-11.265c0.095-0.387,0.339-0.722,0.681-0.928c0.342-0.207,0.751-0.269,1.138-0.174l0.166,0.046
		c0.499,0.069,0.941-0.264,1.155-0.466c0.442-0.415,0.745-1.048,0.832-1.734c0.087-0.688-0.049-1.376-0.374-1.889
		c-0.157-0.249-0.504-0.677-1.056-0.746c-0.002,0-0.004,0-0.005-0.001c-0.09-0.012-0.186-0.012-0.287,0
		c-0.406,0.049-0.813-0.075-1.127-0.334c-0.314-0.261-0.51-0.638-0.54-1.045c-0.624-8.382-5.667-13.798-12.848-13.798
		c-7.18,0-12.222,5.416-12.846,13.798c-0.03,0.407-0.226,0.784-0.54,1.045c-0.313,0.259-0.723,0.383-1.127,0.334
		c-0.1-0.012-0.196-0.012-0.286,0c-0.559,0.07-0.905,0.498-1.063,0.746c-0.324,0.513-0.46,1.201-0.373,1.889s0.39,1.32,0.831,1.735
		c0.215,0.202,0.656,0.531,1.21,0.46l0.116-0.041C-96.588,281.543-96.468,281.528-96.349,281.528"/>
	<path clip-path="url(#SVGID_2_)" fill="#575756" d="M-60.665,306.767c-2.797-2.979-14.49-6.149-15.68-6.466l-6.447,17.472
		l-6.448-17.472c-1.192,0.317-12.883,3.488-15.679,6.466c-3.913,4.167-6.207,20.173-6.207,20.173h56.668
		C-54.458,326.939-56.753,310.934-60.665,306.767"/>
	<path clip-path="url(#SVGID_2_)" fill="#575756" d="M-72.711,258.522c-2.213-0.604-3.451-0.35-4.138,0.246
		c-2.024-1.394-5.991-3.069-12.299-1.371c-8.416,2.266-15.605,13.374-13.298,28.831c0.565,4.87,1.665,7.791,3.792,10.273
		c3.097,3.612,9.374,3.99,9.374,3.99c1.084-2.333,0.87-6.032,0.87-6.032c-0.378-0.667-2.243-2.463-4.51-4.519l-3.354-6.419
		c0,0-4-0.25-3.625-5s2.875-3.25,2.875-3.25l0.23-0.159c-0.042,0.452-0.061,0.792-0.069,0.984c-0.015,0.03-0.033,0.06-0.048,0.09
		c0,0,0.708,2.119,1,3.569c0,0,1.595-1.834,2.355-3.039c4.29,0.548,12.334,1.167,22.014-0.028c0.712,1.205,2.149,3.067,2.149,3.067
		c0.271-1.338,0.887-3.223,0.981-3.511c0.126-0.021,0.248-0.037,0.375-0.059l-0.605-0.956c0.73-0.07,2.71,0.041,2.892,3.292
		c0.266,4.757-3.909,4.999-3.909,4.999l-3.637,6.962c-1.969,1.828-3.526,3.371-3.868,3.976c0,0-0.214,3.699,0.87,6.032
		c0,0,6.276-0.378,9.373-3.99c2.722-3.175,3.712-7.185,4.102-14.968C-61.873,268.762-66.782,260.139-72.711,258.522"/>
	<path clip-path="url(#SVGID_2_)" fill="#575756" d="M70.477,328.439H13.81c-0.436,0-0.849-0.188-1.134-0.518
		c-0.284-0.328-0.413-0.765-0.351-1.195c0.241-1.687,2.48-16.602,6.598-20.986c2.362-2.516,9.462-4.927,15.003-6.506
		c0.435-0.127,0.906-0.044,1.277,0.218c0.371,0.263,0.604,0.679,0.631,1.133c0.226,3.656,2.997,6.521,6.31,6.521
		s6.084-2.864,6.31-6.521c0.027-0.454,0.26-0.87,0.631-1.133c0.37-0.262,0.839-0.345,1.277-0.218
		c4.533,1.291,12.511,3.854,15.003,6.505c0,0,0.001,0,0.001,0.001c4.118,4.385,6.354,19.301,6.596,20.986
		c0.063,0.431-0.066,0.867-0.351,1.195C71.325,328.251,70.911,328.439,70.477,328.439 M15.563,325.439h53.161
		c-0.864-5.163-2.933-14.862-5.545-17.646c-1.305-1.387-5.836-3.339-12.005-5.195c-1.04,4.331-4.723,7.508-9.03,7.508
		s-7.989-3.177-9.03-7.507c-6.172,1.857-10.703,3.811-12.003,5.194C18.498,310.575,16.428,320.275,15.563,325.439"/>
	<path clip-path="url(#SVGID_2_)" fill="#575756" d="M42.144,296.938c-6.862,0-12.583-4.805-14.851-12.349
		c-2.181-0.268-4.036-2.225-4.361-4.796c-0.175-1.388,0.115-2.763,0.817-3.871c0.645-1.018,1.604-1.731,2.685-2.014
		c1.169-9.208,7.355-15.304,15.71-15.304c8.355,0,14.543,6.096,15.712,15.303c2.309,0.601,3.85,3.118,3.501,5.885
		c-0.175,1.388-0.798,2.646-1.754,3.546c-0.748,0.703-1.663,1.136-2.608,1.251C54.729,292.134,49.008,296.938,42.144,296.938
		 M28.423,281.528c0.271,0,0.541,0.074,0.777,0.218c0.342,0.206,0.586,0.541,0.681,0.928c1.66,6.844,6.474,11.265,12.263,11.265
		c5.791,0,10.604-4.421,12.263-11.265c0.094-0.386,0.338-0.72,0.679-0.927c0.34-0.208,0.751-0.27,1.136-0.176l0.167,0.046
		c0.498,0.063,0.945-0.263,1.16-0.465c0.442-0.416,0.745-1.048,0.832-1.734c0.165-1.31-0.49-2.517-1.43-2.635
		c-0.002,0-0.003,0-0.004-0.001c-0.094-0.012-0.188-0.012-0.289,0c-0.405,0.049-0.813-0.075-1.126-0.335
		c-0.314-0.26-0.51-0.637-0.54-1.044c-0.625-8.382-5.668-13.798-12.848-13.798c-7.179,0-12.221,5.416-12.846,13.798
		c-0.03,0.407-0.226,0.784-0.54,1.044c-0.313,0.26-0.724,0.384-1.126,0.335c-0.102-0.012-0.195-0.012-0.289,0
		c-0.556,0.07-0.902,0.498-1.06,0.747c-0.325,0.513-0.462,1.201-0.375,1.888c0.165,1.309,1.104,2.321,2.042,2.195l0.112-0.04
		C28.182,281.543,28.303,281.528,28.423,281.528"/>
	<path clip-path="url(#SVGID_2_)" fill="#575756" d="M48.035,257.963c0.12-0.408,0.193-0.833,0.193-1.273
		c0-2.854-2.724-5.167-6.085-5.167c-3.359,0-6.084,2.313-6.084,5.167c0,0.438,0.071,0.862,0.192,1.27
		c-5.289,1.355-11.484,5.381-10.053,16.98l1.582,0.834c0,0,0.583,2.5,1.25,2.5c0.668,0,2.5-10.084,11.75-10.084h0.374h1.961h0.373
		c9.25,0,11.083,10.084,11.75,10.084s1.25-2.5,1.25-2.5l1.583-0.834C59.504,263.351,53.321,259.322,48.035,257.963"/>
	<path clip-path="url(#SVGID_2_)" fill="#575756" d="M-190.364,459.105h-56.667c-0.435,0-0.849-0.188-1.133-0.518
		c-0.285-0.328-0.413-0.765-0.352-1.195c0.242-1.687,2.48-16.602,6.597-20.986c2.587-2.754,10.91-5.371,15.641-6.686
		c0.471-0.131,0.976-0.023,1.354,0.286c0.377,0.31,0.58,0.784,0.543,1.271c-0.038,0.517-0.066,1.041-0.066,1.577
		c0,6.63,3.03,11.25,5.75,11.25s5.75-4.62,5.75-11.25c0-0.536-0.028-1.06-0.066-1.577c-0.037-0.487,0.166-0.962,0.544-1.271
		c0.377-0.31,0.883-0.419,1.353-0.286c4.732,1.316,13.056,3.935,15.639,6.685v0.001c4.119,4.385,6.356,19.3,6.598,20.986
		c0.061,0.431-0.066,0.867-0.352,1.195C-189.515,458.918-189.929,459.105-190.364,459.105 M-245.278,456.105h53.161
		c-0.865-5.164-2.934-14.864-5.546-17.646c-1.32-1.405-6.044-3.424-12.286-5.282c-0.102,7.837-3.908,13.928-8.748,13.928
		s-8.646-6.092-8.748-13.928c-6.241,1.857-10.966,3.876-12.287,5.282C-242.343,441.241-244.413,450.941-245.278,456.105"/>
	<path clip-path="url(#SVGID_2_)" fill="#575756" d="M-218.703,426.832c-3.837,0-7.36-1.481-10.186-4.285
		c-2.103-2.103-3.699-4.869-4.662-8.059c-0.781-0.095-1.556-0.414-2.235-0.939c-1.155-0.894-1.929-2.3-2.125-3.859
		c-0.196-1.568,0.206-3.127,1.103-4.278c0.629-0.808,1.467-1.365,2.397-1.605c0.694-5.515,3.176-9.978,7.068-12.658
		c1.864-1.296,3.973-2.124,6.263-2.459c0.705-0.121,1.517-0.186,2.377-0.186c8.357,0,14.547,6.095,15.718,15.301
		c0.923,0.236,1.765,0.796,2.398,1.608c0.897,1.15,1.298,2.71,1.103,4.277c-0.196,1.56-0.971,2.966-2.125,3.859
		c-0.674,0.521-1.443,0.84-2.234,0.936C-206.116,422.027-211.841,426.832-218.703,426.832 M-232.457,411.439
		c0.256,0,0.512,0.061,0.732,0.184c0.366,0.203,0.661,0.539,0.76,0.944c0.772,3.167,2.221,5.883,4.193,7.854
		c2.248,2.229,5.04,3.41,8.069,3.41c5.789,0,10.607-4.422,12.273-11.264c0.099-0.406,0.362-0.753,0.727-0.956
		c0.365-0.203,0.798-0.246,1.195-0.115c0.031,0.01-0.004,0.006-0.039,0.002c0.493,0.062,0.867-0.142,1.102-0.322
		c0.52-0.403,0.888-1.098,0.984-1.861c0.096-0.77-0.088-1.54-0.493-2.06c-0.18-0.232-0.488-0.52-0.932-0.575
		c-0.101-0.013-0.181-0.013-0.253-0.004c-0.408,0.063-0.828-0.054-1.152-0.314c-0.325-0.261-0.526-0.644-0.557-1.059
		c-0.626-8.384-5.671-13.801-12.855-13.801c-0.691,0-1.333,0.05-1.906,0.148c-1.863,0.272-3.543,0.932-5.028,1.963
		c-3.429,2.362-5.526,6.512-5.909,11.688c-0.032,0.424-0.241,0.813-0.576,1.074c-0.335,0.26-0.763,0.367-1.182,0.292l-0.068,0.004
		c-0.027,0.005-0.11,0.005-0.137,0.008c-0.444,0.056-0.752,0.343-0.933,0.575c-0.405,0.52-0.589,1.29-0.493,2.062
		c0.096,0.761,0.464,1.456,0.985,1.858c0.23,0.18,0.594,0.385,1.029,0.332C-232.771,411.463-232.615,411.439-232.457,411.439
		 M-232.893,411.504c0,0-0.001,0.001-0.003,0.001C-232.894,411.507-232.893,411.504-232.893,411.504"/>
	<path clip-path="url(#SVGID_2_)" fill="#575756" d="M-193.387,404.393c0-1.94-1.03-3.62-2.58-4.57c0.601-0.87,0.96-1.91,0.96-3.05
		c0-2.76-2.08-5-4.76-5.31c0.15-0.5,0.26-1.021,0.26-1.57c0-2.96-2.41-5.37-5.38-5.37c-0.82,0-1.59,0.2-2.29,0.53
		c-0.82-1.931-2.73-3.28-4.95-3.28c-0.918,0-1.769,0.252-2.525,0.657c-1.006-1.093-2.443-1.782-4.045-1.782s-3.04,0.689-4.045,1.782
		c-0.756-0.405-1.607-0.657-2.525-0.657c-2.22,0-4.13,1.35-4.95,3.28c-0.7-0.33-1.47-0.53-2.29-0.53c-2.97,0-5.38,2.41-5.38,5.37
		c0,0.55,0.11,1.07,0.26,1.57c-2.68,0.31-4.76,2.55-4.76,5.31c0,1.14,0.36,2.18,0.96,3.05c-1.55,0.95-2.58,2.63-2.58,4.57
		c0,2.32,1.47,4.28,3.52,5.03c-0.57,0.85-0.9,1.88-0.9,2.97c0,2.97,2.41,5.38,5.38,5.38c0.44,0,0.86-0.07,1.27-0.17
		c0.55,2.39,2.67,4.17,5.23,4.17c0.6,0,1.18-0.1,1.72-0.29c-2.12-2.12-3.73-5.03-4.59-8.56c-0.09,0.029-0.18,0.06-0.28,0.069
		c-1.78,0.23-3.45-1.34-3.72-3.489c-0.259-2.071,0.858-3.914,2.519-4.258l0.807,0.425c0,0,0.583,2.5,1.25,2.5
		s2.5-10.084,11.75-10.084h0.374h1.96h0.374c9.25,0,11.083,10.084,11.75,10.084s1.25-2.5,1.25-2.5l0.807-0.425
		c1.661,0.344,2.777,2.187,2.519,4.258c-0.27,2.149-1.94,3.72-3.72,3.489c-0.1-0.01-0.19-0.04-0.28-0.069
		c-0.86,3.529-2.47,6.439-4.59,8.56c0.54,0.19,1.12,0.29,1.72,0.29c2.56,0,4.68-1.78,5.23-4.17c0.41,0.1,0.83,0.17,1.27,0.17
		c2.97,0,5.38-2.41,5.38-5.38c0-1.09-0.33-2.12-0.901-2.97C-194.857,408.673-193.387,406.713-193.387,404.393"/>
	<path clip-path="url(#SVGID_2_)" fill="#575756" d="M64.271,437.433c-2.492-2.653-12.051-5.461-14.947-6.267
		c0.04,0.555,0.069,1.115,0.069,1.689c0,7.042-3.246,12.75-7.25,12.75s-7.25-5.708-7.25-12.75c0-0.574,0.029-1.136,0.072-1.689
		c-2.896,0.805-12.456,3.613-14.948,6.267c-3.912,4.167-6.208,20.173-6.208,20.173h56.669
		C70.479,457.605,68.185,441.6,64.271,437.433"/>
	<path clip-path="url(#SVGID_2_)" fill="#575756" d="M42.139,426.832c-3.837,0-7.359-1.481-10.186-4.284
		c-2.103-2.103-3.699-4.869-4.661-8.06c-0.781-0.095-1.558-0.414-2.237-0.939c-1.153-0.894-1.928-2.3-2.123-3.859
		c-0.196-1.569,0.205-3.128,1.103-4.278c0.63-0.808,1.467-1.365,2.396-1.605c0.695-5.514,3.177-9.978,7.069-12.658
		c1.863-1.295,3.971-2.124,6.263-2.459c0.705-0.121,1.517-0.186,2.377-0.186c8.357,0,14.547,6.095,15.718,15.301
		c0.923,0.236,1.766,0.796,2.398,1.608c0.896,1.15,1.298,2.71,1.102,4.277c-0.194,1.559-0.97,2.965-2.123,3.859
		c-0.674,0.521-1.443,0.841-2.235,0.936C54.727,422.027,49.002,426.832,42.139,426.832 M28.386,411.439
		c0.257,0,0.514,0.06,0.733,0.183c0.365,0.203,0.659,0.54,0.758,0.946c0.771,3.166,2.222,5.882,4.193,7.854
		c2.248,2.229,5.04,3.41,8.068,3.41c5.789,0,10.607-4.421,12.272-11.264c0.098-0.405,0.36-0.751,0.725-0.954
		c0.364-0.205,0.797-0.245,1.193-0.119c0.456,0.065,0.833-0.138,1.068-0.319c0.52-0.402,0.887-1.098,0.982-1.858v-0.002
		c0.097-0.771-0.087-1.54-0.491-2.061c-0.181-0.231-0.489-0.519-0.934-0.574c-0.104-0.013-0.182-0.013-0.252-0.004
		c-0.414,0.062-0.829-0.055-1.153-0.314c-0.324-0.261-0.525-0.644-0.557-1.059c-0.626-8.384-5.672-13.801-12.854-13.801
		c-0.69,0-1.332,0.05-1.905,0.148c-1.864,0.273-3.544,0.932-5.027,1.963c-3.431,2.363-5.528,6.513-5.91,11.688
		c-0.032,0.424-0.241,0.813-0.576,1.074c-0.335,0.26-0.764,0.367-1.182,0.292l-0.068,0.004c-0.026,0.005-0.109,0.005-0.136,0.008
		c-0.445,0.056-0.753,0.343-0.934,0.574c-0.404,0.521-0.588,1.29-0.492,2.063c0.096,0.761,0.463,1.456,0.983,1.859
		c0.23,0.179,0.593,0.384,1.03,0.331C28.07,411.462,28.229,411.439,28.386,411.439 M27.949,411.504c0,0-0.001,0-0.003,0.001
		C27.948,411.504,27.949,411.504,27.949,411.504"/>
	<path clip-path="url(#SVGID_2_)" fill="#575756" d="M67.455,404.393c0-1.94-1.032-3.62-2.58-4.57c0.6-0.87,0.959-1.91,0.959-3.05
		c0-2.76-2.08-5-4.76-5.31c0.15-0.5,0.26-1.021,0.26-1.57c0-2.96-2.411-5.37-5.379-5.37c-0.82,0-1.591,0.2-2.291,0.53
		c-0.821-1.931-2.73-3.28-4.95-3.28c-0.917,0-1.769,0.252-2.524,0.657c-1.006-1.093-2.443-1.782-4.047-1.782
		c-1.6,0-3.037,0.689-4.043,1.782c-0.757-0.405-1.607-0.657-2.525-0.657c-2.22,0-4.129,1.35-4.949,3.28
		c-0.7-0.33-1.471-0.53-2.291-0.53c-2.97,0-5.379,2.41-5.379,5.37c0,0.55,0.109,1.07,0.259,1.57c-2.679,0.31-4.759,2.55-4.759,5.31
		c0,1.14,0.359,2.18,0.959,3.05c-1.55,0.95-2.58,2.63-2.58,4.57c0,2.32,1.471,4.28,3.521,5.03c-0.569,0.85-0.899,1.88-0.899,2.97
		c0,2.97,2.409,5.38,5.379,5.38c0.44,0,0.861-0.07,1.271-0.17c0.55,2.39,2.67,4.17,5.229,4.17c0.6,0,1.18-0.1,1.721-0.29
		c-2.121-2.12-3.73-5.03-4.591-8.56c-0.089,0.029-0.179,0.06-0.28,0.069c-1.779,0.23-3.449-1.34-3.72-3.489
		c-0.258-2.071,0.858-3.914,2.521-4.258l0.807,0.425c0,0,0.581,2.5,1.25,2.5c0.156,0,0.38-0.561,0.746-1.413
		c0.61,0.402,1.342,0.641,2.129,0.641c1.567,0,2.91-0.935,3.521-2.273c0.706,0.777,1.719,1.273,2.854,1.273
		c1.938,0,3.527-1.425,3.814-3.281c0.445,0.178,0.928,0.281,1.436,0.281c1.497,0,2.781-0.857,3.426-2.101
		c0.697,0.679,1.647,1.101,2.699,1.101c0.098,0,0.189-0.021,0.285-0.028c0.178,1.976,1.816,3.528,3.84,3.528
		c0.108,0,0.21-0.023,0.314-0.032c0.617,1.336,0.937,2.305,1.142,2.305c0.669,0,1.25-2.5,1.25-2.5l0.808-0.425
		c1.662,0.344,2.778,2.187,2.52,4.258c-0.27,2.149-1.939,3.72-3.72,3.489c-0.101-0.01-0.19-0.04-0.28-0.069
		c-0.86,3.529-2.47,6.439-4.59,8.56c0.54,0.19,1.12,0.29,1.721,0.29c2.559,0,4.68-1.78,5.229-4.17c0.409,0.1,0.83,0.17,1.271,0.17
		c2.968,0,5.379-2.41,5.379-5.38c0-1.09-0.33-2.12-0.9-2.97C65.984,408.673,67.455,406.713,67.455,404.393"/>
	<path clip-path="url(#SVGID_2_)" fill="#575756" d="M-358.697,427.49c-6.863,0-12.584-4.805-14.852-12.348
		c-0.946-0.117-1.859-0.55-2.607-1.253c-0.956-0.898-1.578-2.157-1.753-3.545c-0.176-1.387,0.114-2.761,0.816-3.868
		c0.644-1.02,1.603-1.732,2.684-2.016c0.025-0.202,0.053-0.401,0.083-0.602c0.111-0.733,0.741-1.276,1.483-1.276h18.056l0.692-3.362
		c0.128-0.625,0.637-1.101,1.27-1.185c0.635-0.094,1.248,0.24,1.537,0.809l1.896,3.74h4.841c0.742,0,1.373,0.543,1.484,1.276
		c0.029,0.198,0.057,0.397,0.082,0.6c1.079,0.281,2.038,0.995,2.684,2.016c0.702,1.107,0.991,2.481,0.816,3.869
		c-0.175,1.387-0.798,2.646-1.753,3.544c-0.748,0.704-1.662,1.137-2.608,1.253C-346.114,422.686-351.835,427.49-358.697,427.49
		 M-372.419,412.08c0.272,0,0.542,0.074,0.779,0.218c0.341,0.207,0.585,0.541,0.679,0.929c1.661,6.842,6.475,11.264,12.264,11.264
		c5.788,0,10.602-4.422,12.264-11.264c0.094-0.388,0.338-0.722,0.678-0.929s0.75-0.268,1.136-0.175l0.172,0.048
		c0.499,0.06,0.94-0.265,1.153-0.467c0.442-0.415,0.746-1.048,0.832-1.734c0.087-0.688-0.049-1.376-0.374-1.889
		c-0.157-0.249-0.504-0.677-1.056-0.746c-0.095-0.014-0.192-0.014-0.292-0.001c-0.406,0.046-0.813-0.075-1.127-0.334
		c-0.314-0.261-0.509-0.638-0.54-1.045c-0.008-0.124-0.019-0.247-0.03-0.37h-4.433c-0.565,0-1.082-0.316-1.337-0.822l-0.371-0.73
		l-0.072,0.353c-0.144,0.697-0.758,1.198-1.47,1.198h-17.949c-0.011,0.123-0.022,0.247-0.031,0.372
		c-0.031,0.407-0.226,0.784-0.54,1.044c-0.314,0.261-0.72,0.382-1.127,0.335c-0.101-0.012-0.196-0.012-0.287,0
		c-0.557,0.07-0.903,0.498-1.061,0.747c-0.325,0.513-0.461,1.2-0.374,1.888c0.087,0.688,0.39,1.32,0.832,1.735
		c0.215,0.202,0.659,0.531,1.209,0.46l0.116-0.041C-372.658,412.095-372.539,412.08-372.419,412.08"/>
	<path clip-path="url(#SVGID_2_)" fill="#575756" d="M-352.363,432.544c-0.581,0-1.113-0.336-1.36-0.868
		c-1.229-2.645-1.017-6.584-1.007-6.751l2.995,0.172c-0.043,0.757-0.03,2.732,0.385,4.316c1.784-0.278,5.3-1.094,7.222-3.337
		c2.413-2.814,3.357-6.363,3.742-14.065c0.91-12.299-3.733-20.112-8.789-21.489c-1.593-0.435-2.472-0.32-2.761-0.068
		c-0.516,0.447-1.271,0.49-1.834,0.103c-1.968-1.357-5.486-2.659-11.058-1.158c-7.577,2.04-14.43,12.253-12.204,27.161
		c0.533,4.589,1.498,7.244,3.447,9.518c1.805,2.107,5.196,3.029,7.222,3.345c0.419-1.59,0.43-3.567,0.386-4.322l2.995-0.174
		c0.01,0.167,0.222,4.106-1.007,6.751c-0.26,0.56-0.842,0.908-1.451,0.865c-0.282-0.018-6.952-0.463-10.423-4.512
		c-2.347-2.739-3.547-5.948-4.143-11.076c-2.476-16.578,5.569-28.075,14.398-30.452c5.997-1.617,10.133-0.437,12.717,1.063
		c1.14-0.472,2.628-0.448,4.505,0.063c6.049,1.649,12.069,10.041,10.994,24.569c-0.415,8.326-1.582,12.479-4.458,15.833
		c-3.47,4.049-10.14,4.494-10.422,4.512C-352.302,432.543-352.333,432.544-352.363,432.544"/>
	<path clip-path="url(#SVGID_2_)" fill="#575756" d="M-336.736,437.433c-2.483-2.644-11.979-5.439-14.915-6.257
		c-1.786,4.889-4.944,12.54-7.212,12.54s-5.426-7.652-7.212-12.541c-2.934,0.817-12.432,3.614-14.917,6.258
		c-3.912,4.167-6.205,20.173-6.205,20.173h56.666C-330.531,457.605-332.824,441.6-336.736,437.433"/>
	<path clip-path="url(#SVGID_2_)" fill="#575756" d="M-82.626,427.49c-6.861,0-12.584-4.805-14.853-12.348
		c-0.946-0.117-1.859-0.55-2.606-1.253c-0.956-0.898-1.578-2.157-1.753-3.545c-0.176-1.387,0.114-2.761,0.815-3.868
		c0.646-1.02,1.604-1.732,2.685-2.016c0.025-0.202,0.054-0.402,0.083-0.602c0.11-0.733,0.741-1.276,1.483-1.276h18.057l0.69-3.362
		c0.129-0.625,0.639-1.101,1.271-1.185c0.635-0.095,1.249,0.239,1.537,0.809l1.896,3.74h4.841c0.743,0,1.374,0.544,1.483,1.279
		c0.029,0.197,0.057,0.396,0.082,0.597c1.079,0.281,2.038,0.995,2.684,2.016c0.702,1.107,0.992,2.481,0.816,3.869
		c-0.175,1.387-0.798,2.646-1.753,3.544c-0.748,0.704-1.661,1.137-2.607,1.253C-70.042,422.686-75.764,427.49-82.626,427.49
		 M-96.349,412.08c0.272,0,0.542,0.074,0.779,0.218c0.34,0.207,0.584,0.541,0.679,0.929c1.662,6.842,6.477,11.264,12.265,11.264
		c5.789,0,10.603-4.422,12.264-11.264c0.095-0.388,0.339-0.722,0.679-0.929c0.341-0.207,0.751-0.268,1.136-0.175l0.174,0.048
		c0.5,0.067,0.938-0.266,1.152-0.467c0.441-0.415,0.744-1.048,0.831-1.734c0.087-0.688-0.049-1.376-0.374-1.889
		c-0.157-0.249-0.504-0.677-1.056-0.746c-0.095-0.011-0.191-0.013-0.292-0.001c-0.407,0.047-0.813-0.075-1.127-0.334
		c-0.314-0.261-0.51-0.638-0.54-1.045c-0.009-0.124-0.02-0.247-0.03-0.37h-4.433c-0.565,0-1.082-0.316-1.338-0.822l-0.37-0.73
		l-0.072,0.353c-0.144,0.697-0.758,1.198-1.47,1.198h-17.95c-0.011,0.124-0.022,0.249-0.031,0.374
		c-0.031,0.407-0.227,0.784-0.541,1.044c-0.313,0.259-0.715,0.384-1.127,0.333c-0.098-0.012-0.193-0.012-0.285,0
		c-0.557,0.07-0.903,0.498-1.061,0.747c-0.325,0.513-0.461,1.2-0.374,1.888c0.087,0.688,0.39,1.32,0.831,1.735
		c0.215,0.202,0.655,0.531,1.21,0.46l0.115-0.041C-96.588,412.095-96.468,412.08-96.349,412.08"/>
	<path clip-path="url(#SVGID_2_)" fill="#575756" d="M-69.053,444.272c-0.48,0-0.935-0.23-1.218-0.624
		c-0.311-0.433-7.625-10.677-8.277-18.501l2.99-0.25c0.419,5.03,4.192,11.565,6.306,14.877c4.269-9.747,4.94-24.166,4.946-24.322
		c0.772-13.606-4.079-23.826-12.357-26.055c-1.64-0.44-3.213-0.664-4.679-0.664h-0.038l-2.403,0.002
		c-1.571-0.041-3.236,0.193-4.974,0.662c-8.278,2.229-13.13,12.447-12.36,26.034c0.007,0.175,0.686,14.603,4.95,24.342
		c2.112-3.311,5.886-9.846,6.305-14.876l2.99,0.25c-0.652,7.824-7.967,18.068-8.277,18.501c-0.3,0.419-0.8,0.655-1.309,0.621
		c-0.514-0.031-0.976-0.323-1.224-0.774c-5.604-10.19-6.401-27.194-6.433-27.913c-0.852-15.046,4.87-26.469,14.578-29.081
		c2.009-0.542,3.957-0.798,5.779-0.766l2.372-0.002c1.743-0.033,3.592,0.253,5.501,0.768c9.708,2.613,15.43,14.036,14.575,29.101
		c-0.03,0.698-0.825,17.703-6.43,27.894c-0.248,0.451-0.711,0.743-1.224,0.774C-68.992,444.271-69.022,444.272-69.053,444.272"/>
	<path clip-path="url(#SVGID_2_)" fill="#575756" d="M-65.7,434.507c2.188,0.922,4.104,1.935,5.035,2.926
		c3.912,4.167,6.206,20.173,6.206,20.173h-56.666c0,0,2.293-16.006,6.205-20.173c0.955-1.018,2.949-2.058,5.211-2.998
		c0,0,1.718,5.339,3.384,8.089l3.541-5.833l2.781-5.516c1.786,4.889,4.944,12.541,7.212,12.541s5.426-7.651,7.212-12.54l2.629,5.39
		l3.875,6.041C-69.075,442.606-66.408,437.073-65.7,434.507"/>
	<path clip-path="url(#SVGID_2_)" fill="#575756" d="M-218.532,296.938c-6.862,0-12.583-4.805-14.851-12.347
		c-2.181-0.269-4.037-2.226-4.361-4.799c-0.176-1.387,0.115-2.762,0.817-3.869c0.644-1.019,1.603-1.732,2.684-2.015
		c1.168-9.208,7.356-15.304,15.711-15.304c8.356,0,14.543,6.096,15.711,15.304c1.081,0.282,2.04,0.996,2.685,2.015
		c0.702,1.107,0.992,2.482,0.817,3.87c-0.325,2.572-2.183,4.53-4.362,4.798C-205.948,292.135-211.67,296.938-218.532,296.938
		 M-232.253,281.528c0.272,0,0.542,0.074,0.779,0.219c0.341,0.206,0.585,0.54,0.679,0.927c1.66,6.844,6.474,11.265,12.263,11.265
		s10.603-4.421,12.264-11.265c0.094-0.387,0.338-0.721,0.678-0.927c0.34-0.208,0.749-0.27,1.136-0.176l0.171,0.047
		c0.887,0.114,1.822-0.892,1.987-2.2c0.087-0.688-0.049-1.376-0.374-1.889c-0.158-0.249-0.504-0.677-1.056-0.746
		c-0.002,0-0.004,0-0.005-0.001c-0.09-0.012-0.188-0.012-0.288,0c-0.404,0.05-0.812-0.075-1.126-0.335
		c-0.315-0.26-0.509-0.637-0.54-1.044c-0.625-8.382-5.668-13.798-12.847-13.798c-7.179,0-12.222,5.416-12.846,13.798
		c-0.031,0.407-0.226,0.784-0.541,1.044c-0.313,0.261-0.722,0.386-1.126,0.335c-0.1-0.012-0.197-0.012-0.288,0
		c-0.556,0.07-0.903,0.498-1.06,0.747c-0.325,0.513-0.462,1.201-0.375,1.888c0.165,1.309,1.1,2.321,2.042,2.195l0.116-0.041
		C-232.492,281.543-232.373,281.528-232.253,281.528"/>
	<path clip-path="url(#SVGID_2_)" fill="#575756" d="M-190.363,328.439h-56.668c-0.435,0-0.849-0.188-1.133-0.518
		c-0.285-0.328-0.413-0.765-0.352-1.195c0.242-1.687,2.48-16.602,6.598-20.986c3.015-3.211,14.18-6.302,16.388-6.889
		c0.748-0.199,1.524,0.204,1.793,0.93l5.04,13.658l5.04-13.658c0.268-0.726,1.044-1.129,1.793-0.93
		c2.208,0.587,13.373,3.678,16.388,6.888c0,0.001,0,0.001,0,0.001c4.117,4.385,6.356,19.3,6.597,20.986
		c0.062,0.431-0.066,0.867-0.351,1.195C-189.515,328.251-189.928,328.439-190.363,328.439 M-245.278,325.439h53.162
		c-0.866-5.164-2.935-14.864-5.547-17.646c-1.645-1.751-7.984-4.087-13.656-5.683l-5.971,16.182c-0.217,0.589-0.78,0.98-1.407,0.98
		c-0.628,0-1.19-0.392-1.408-0.98l-5.971-16.182c-5.672,1.597-12.011,3.933-13.655,5.683
		C-242.345,310.577-244.414,320.276-245.278,325.439"/>
	<path clip-path="url(#SVGID_2_)" fill="#575756" d="M-208.616,258.522c-2.214-0.604-3.453-0.35-4.138,0.247
		c-2.024-1.395-5.991-3.07-12.299-1.372c-8.053,2.168-14.985,12.433-13.547,26.856c0.348,8.286,0.723,20.27,0.723,20.27
		l13.722-3.757c1.083-2.333-0.16-6.307-0.16-6.307c-0.377-0.667-2.242-2.464-4.511-4.52l-1.261-2.414
		c0.131,0.045,0.255,0.094,0.391,0.137c0,0-0.944-1.854-1.505-4.786c10.43-4.557,15.742-15.27,17.462-19.418
		c0.528,2.921,2.421,8.085,9.045,12.704c0,0,0.071-0.342,0.117-0.928c0.695-0.077,2.739-0.02,2.924,3.288
		c0.267,4.757-3.909,4.999-3.909,4.999l-3.532,6.762c-2.015,1.837-3.622,3.402-3.971,4.02c0,0-1.34,3.964-0.257,6.297l13.685,3.923
		c0,0,0.412-13.173,0.773-21.445C-197.389,269.46-202.452,260.203-208.616,258.522"/>
	<circle clip-path="url(#SVGID_2_)" fill="none" stroke="#C04117" stroke-miterlimit="10" cx="43.576" cy="50.58" r="67.659"/>
</g>
</svg>
