<?xml version="1.0" encoding="utf-8"?>
<!-- Generator: Adobe Illustrator 15.1.0, SVG Export Plug-In . SVG Version: 6.00 Build 0)  -->
<!DOCTYPE svg PUBLIC "-//W3C//DTD SVG 1.1//EN" "http://www.w3.org/Graphics/SVG/1.1/DTD/svg11.dtd">
<svg version="1.1" id="Layer_1" xmlns="http://www.w3.org/2000/svg" xmlns:xlink="http://www.w3.org/1999/xlink" x="0px" y="0px"
	 width="97.375px" height="67.257px" viewBox="0 0 97.375 67.257" enable-background="new 0 0 97.375 67.257" xml:space="preserve">
<path fill="#FFFFFF" enable-background="new    " d="M92.5,40.283c-0.664,7.5,2.375,12.25-4.715,14.18l-70.41-1.348
	c-7.833,0-9.805-0.634-9.805-8.703L7.41,22.791c0-8.069-0.601-15.305,7.232-15.305l70.903,4.788
	c6.29,0.852,7.204,2.938,7.204,11.008L92.5,40.283z"/>
<g id="Layer_1_1_">
	<g>
		<path opacity="0.42" fill="#878787" enable-background="new    " d="M5.508,15.365v33.991c0,4.129,1.961,6.453,4.977,6.453
			l0.93,5.187l3.687-5.531l73.683-0.25c3.016,0,4.104-3.598,4.104-7.727l1.172-27.122c0-4.129-1.09-7.226-4.104-7.226L10.568,9.056
			C7.553,9.056,5.508,11.236,5.508,15.365z M8.278,13.458c0-1.178,0.699-2.307,1.56-2.307l80.217,4.033
			c0.859,0,1.562,0.959,1.562,2.137l-0.779,33.878c0,1.178-0.823,2.137-1.685,2.137l-78.185-1.842c-0.86,0-2.15-0.789-2.15-1.967
			L8.278,13.458z"/>
	</g>
</g>
<g id="Layer_2">
	<g>
		
			<linearGradient id="SVGID_1_" gradientUnits="userSpaceOnUse" x1="-913.0762" y1="984.6675" x2="-824.8564" y2="984.6675" gradientTransform="matrix(-1 0 0 1 -819.0176 -950.6885)">
			<stop  offset="0.0165" style="stop-color:#223D7A"/>
			<stop  offset="0.0192" style="stop-color:#223E7A"/>
			<stop  offset="0.1025" style="stop-color:#1E5388"/>
			<stop  offset="0.19" style="stop-color:#1B6595"/>
			<stop  offset="0.2837" style="stop-color:#1774A1"/>
			<stop  offset="0.3841" style="stop-color:#1380AB"/>
			<stop  offset="0.4944" style="stop-color:#0C8AB3"/>
			<stop  offset="0.6221" style="stop-color:#0790B8"/>
			<stop  offset="0.8077" style="stop-color:#0592BA"/>
		</linearGradient>
		<path fill="url(#SVGID_1_)" d="M5.839,14.275v31.984c0,4.521,2.368,8.248,5.289,8.322l1.368,6.711l4.228-6.688l72.045,1.033
			c2.922,0.073,5.289-3.214,5.289-7.345V19.546c0-4.129-2.367-7.747-5.289-8.08L11.128,6.689C8.207,6.357,5.839,9.753,5.839,14.275z
			 M8.53,12.886c0-1.283,1.761-3.34,2.594-3.253l77.696,5.035c0.832,0.087,2.324,2.095,2.324,3.281l0.119,31.792
			c0,1.188-1.611,3.26-2.443,3.23l-78.146-1.27c-0.833-0.029-1.97-2.391-1.97-3.672L8.53,12.886z"/>
		
			<linearGradient id="SVGID_2_" gradientUnits="userSpaceOnUse" x1="-907.3062" y1="1011.0122" x2="-827.9609" y2="959.7556" gradientTransform="matrix(-1 0 0 1 -819.0176 -950.6885)">
			<stop  offset="0.0165" style="stop-color:#1169B0"/>
			<stop  offset="0.0174" style="stop-color:#1169B1"/>
			<stop  offset="0.1009" style="stop-color:#1A7EBE"/>
			<stop  offset="0.1886" style="stop-color:#1F92CB"/>
			<stop  offset="0.2825" style="stop-color:#26A3D6"/>
			<stop  offset="0.3831" style="stop-color:#2CB0DF"/>
			<stop  offset="0.4937" style="stop-color:#31BAE5"/>
			<stop  offset="0.6216" style="stop-color:#33C1E9"/>
			<stop  offset="0.8077" style="stop-color:#32C4EB"/>
		</linearGradient>
		<path fill="url(#SVGID_2_)" d="M5.964,14.092v31.977c0,4.522,2.369,8.248,5.29,8.322l1.242,6.901l4.313-6.826l72.085,0.994
			c2.922,0.076,5.289-3.211,5.289-7.34V19.38c0-4.129-2.367-7.747-5.289-8.08L11.254,6.51C8.333,6.177,5.964,9.571,5.964,14.092z
			 M8.656,12.704c0-1.283,1.761-3.153,2.594-3.066l77.695,4.864c0.834,0.087,2.324,2.093,2.324,3.28v31.781
			c0,1.187-1.49,3.263-2.324,3.233l-78.145-1.28c-0.833-0.029-1.97-2.392-1.97-3.673L8.656,12.704z"/>
		
			<linearGradient id="SVGID_3_" gradientUnits="userSpaceOnUse" x1="-911.4517" y1="1011.2065" x2="-826.259" y2="956.1726" gradientTransform="matrix(-1 0 0 1 -819.0176 -950.6885)">
			<stop  offset="0.0165" style="stop-color:#297DC1"/>
			<stop  offset="0.0233" style="stop-color:#2B7FC2"/>
			<stop  offset="0.1207" style="stop-color:#3A94CF"/>
			<stop  offset="0.2248" style="stop-color:#46A6DB"/>
			<stop  offset="0.3365" style="stop-color:#51B5E4"/>
			<stop  offset="0.4591" style="stop-color:#58C0EA"/>
			<stop  offset="0.6012" style="stop-color:#5CC8EE"/>
			<stop  offset="0.8077" style="stop-color:#5DCBF1"/>
		</linearGradient>
		<path fill="url(#SVGID_3_)" d="M8.278,12.665L8.455,47.83c0,1.604,1.307,4.231,2.348,4.269l78.142,1.237
			c1.043,0.037,2.703-2.274,2.703-3.758V17.82c0-1.482-1.66-3.748-2.703-3.858L11.25,9.059C10.209,8.95,8.278,11.063,8.278,12.665z
			 M8.656,12.704c0-1.283,1.761-3.153,2.594-3.066l77.695,4.864c0.834,0.087,2.324,2.093,2.324,3.28v31.781
			c0,1.187-1.49,3.263-2.324,3.233l-78.145-1.28c-0.833-0.029-1.97-2.392-1.97-3.673L8.656,12.704z"/>
		
			<linearGradient id="SVGID_4_" gradientUnits="userSpaceOnUse" x1="-908.5483" y1="1009.0845" x2="-829.2043" y2="957.8289" gradientTransform="matrix(-1 0 0 1 -819.0176 -950.6885)">
			<stop  offset="0.0165" style="stop-color:#297DC1"/>
			<stop  offset="0.0233" style="stop-color:#2B7FC2"/>
			<stop  offset="0.1207" style="stop-color:#3A94CF"/>
			<stop  offset="0.2248" style="stop-color:#46A6DB"/>
			<stop  offset="0.3365" style="stop-color:#51B5E4"/>
			<stop  offset="0.4591" style="stop-color:#58C0EA"/>
			<stop  offset="0.6012" style="stop-color:#5CC8EE"/>
			<stop  offset="0.8077" style="stop-color:#5DCBF1"/>
		</linearGradient>
		<path fill="url(#SVGID_4_)" d="M5.964,14.092v31.979c0,4.521,2.369,8.246,5.29,8.32l77.641,1.069
			c2.922,0.076,5.291-3.211,5.291-7.34V19.38c0-4.129-2.369-7.747-5.291-8.08L11.254,6.51C8.333,6.177,5.964,9.571,5.964,14.092z
			 M6.343,14.13c0-4.189,2.203-7.347,4.911-7.041l77.641,4.75c2.709,0.306,4.914,3.672,4.914,7.502v28.764
			c0,3.83-2.205,6.889-4.914,6.816L11.254,53.81c-2.708-0.072-4.911-3.537-4.911-7.727V14.13z"/>
	</g>
</g>
</svg>
