<?xml version="1.0" encoding="utf-8"?>
<!-- Generator: Adobe Illustrator 24.3.0, SVG Export Plug-In . SVG Version: 6.00 Build 0)  -->
<svg version="1.1" id="Layer_1" xmlns="http://www.w3.org/2000/svg" xmlns:xlink="http://www.w3.org/1999/xlink" x="0px" y="0px"
	 viewBox="0 0 76 76" style="enable-background:new 0 0 76 76;" xml:space="preserve">
<style type="text/css">
	.st0{fill:#B8741A;}
	.st1{fill:#FFFFFF;}
</style>
<circle class="st0" cx="38" cy="38" r="34.8"/>
<path class="st1" d="M36.6,17.4c-0.3,0-0.5,0.3-0.6,0.6v11.2c0,0.3,0.3,0.6,0.6,0.6s0.6-0.3,0.6-0.6V18
	C37.2,17.7,36.9,17.4,36.6,17.4C36.6,17.4,36.6,17.4,36.6,17.4z"/>
<path class="st1" d="M53.7,45.4l-9.9-15.3V18.7c1.3-0.4,2.2-1.6,2.2-3v-0.4c-0.1-1.8-1.6-3.3-3.4-3.2h-9.3c-1.8,0-3.4,1.4-3.4,3.2
	v0.4c0,1.4,0.9,2.6,2.2,3v11.4c-0.2,0.4-9.9,15.3-9.9,15.3c-0.4,0.9-0.6,1.8-0.7,2.7c0,8.7,7.4,15.8,16.5,15.8s16.5-7.1,16.5-15.8
	C54.4,47.2,54.2,46.3,53.7,45.4z M43.4,54.1h-3.3v3.1c0,1.1-0.9,2.1-2.1,2.1c-1.1,0-2.1-0.9-2.1-2.1v-3.1h-3.3
	c-1.1,0.1-2-0.7-2.1-1.8c-0.1-1.1,0.7-2,1.8-2.1c0.1,0,0.2,0,0.3,0h3.3v-3.1c0-1.1,0.9-2.1,2.1-2.1c1.1,0,2.1,0.9,2.1,2.1v3.1h3.3
	c1.1-0.1,2,0.7,2.1,1.8c0.1,1.1-0.7,2-1.8,2.1C43.6,54.1,43.5,54.1,43.4,54.1z M27.6,40.8l6.6-10.1V17.1L33.3,17
	c-0.7-0.1-1.2-0.6-1.3-1.3v-0.4c0-0.7,0.6-1.3,1.4-1.3h9.3c0.8,0,1.4,0.6,1.4,1.3c0,0,0,0,0,0v0.4c0,0.7-0.6,1.3-1.3,1.3l-0.9,0.1
	v13.6l6.6,10.1H27.6z"/>
</svg>
