<?xml version="1.0" encoding="utf-8"?>
<!-- Generator: Adobe Illustrator 24.3.0, SVG Export Plug-In . SVG Version: 6.00 Build 0)  -->
<svg version="1.1" id="Layer_1" xmlns="http://www.w3.org/2000/svg" xmlns:xlink="http://www.w3.org/1999/xlink" x="0px" y="0px"
	 viewBox="0 0 76 76" style="enable-background:new 0 0 76 76;" xml:space="preserve">
<style type="text/css">
	.st0{fill:#0AB9F0;}
	.st1{fill:#FFFFFF;}
</style>
<circle class="st0" cx="38" cy="38" r="34.8"/>
<g>
	<path class="st1" d="M19.8,62.9c5.5,0-0.2-8.4-0.2-8.4S14.2,62.9,19.8,62.9z M19.4,62.2c-0.5,0-0.9-0.2-1.2-0.5
		c-0.3-0.5-0.4-1.2-0.2-1.8c0-0.1,0.2-0.2,0.3-0.2c0,0,0,0,0,0c0.1,0,0.2,0.2,0.2,0.3c0,0,0,0,0,0c-0.1,0.5-0.1,1,0.2,1.4
		c0.2,0.2,0.5,0.4,0.9,0.3c0.1,0,0.2,0.1,0.2,0.2c0,0,0,0,0,0C19.7,62.1,19.6,62.2,19.4,62.2C19.4,62.2,19.4,62.2,19.4,62.2z"/>
	<path class="st1" d="M57.9,18.1c1.2-1.1,1.3-2.9,0.2-4.1c-1.1-1.2-2.9-1.3-4.1-0.2c-0.1,0.1-0.1,0.1-0.2,0.2L37.6,30.2
		c-0.1,0.1-0.1,0.2-0.2,0.2l-0.5-0.5c-0.5-0.5-1.3-0.6-1.8-0.1c-0.5,0.5-0.6,1.3-0.1,1.8c0,0,0.1,0.1,0.1,0.1l0.3,0.3l-0.1,0.1
		L23.7,43.9c-0.2,0.2-0.4,0.5-0.6,0.8l-0.4,0.6l-3.3,5.5c-0.5,0.8-0.5,1.4-0.1,1.8c0.4,0.4,1,0.3,1.8-0.1l5.5-3.3l0.6-0.4
		c0.3-0.1,0.6-0.3,0.8-0.6l11.6-11.6l0.1-0.1l0.4,0.4c0.5,0.5,1.3,0.4,1.8-0.1c0.4-0.5,0.4-1.2,0-1.7l-0.5-0.5
		c0.1-0.1,0.2-0.1,0.3-0.2L57.9,18.1z M38.7,35.7L27.1,47.3c-0.2,0.2-0.3,0.3-0.5,0.4h-0.1l-0.1,0.1L26,48.1l-5.2,3.2l3.1-5.3
		l0.4-0.5l0.1-0.1c0.1-0.2,0.2-0.4,0.4-0.5l11.6-11.6l0.1-0.1l2.5,2.5C38.8,35.6,38.8,35.6,38.7,35.7z"/>
</g>
</svg>
