<?xml version="1.0" encoding="utf-8"?>
<!-- Generator: Adobe Illustrator 24.3.0, SVG Export Plug-In . SVG Version: 6.00 Build 0)  -->
<svg version="1.1" id="Layer_1" xmlns="http://www.w3.org/2000/svg" xmlns:xlink="http://www.w3.org/1999/xlink" x="0px" y="0px"
	 viewBox="0 0 76 76" style="enable-background:new 0 0 76 76;" xml:space="preserve">
<style type="text/css">
	.st0{fill:#E8CD41;}
	.st1{fill:#FFFFFF;}
</style>
<circle class="st0" cx="38" cy="38" r="34.8"/>
<path class="st1" d="M42.3,44.7h-2v-1.8c0-0.5-0.5-0.9-1-0.9c0,0,0,0,0,0h-2.5c-0.5-0.1-0.9,0.3-1,0.8c0,0,0,0,0,0.1v1.8h-2
	c-0.5-0.1-0.9,0.3-1,0.8c0,0,0,0,0,0v2.3c0,0.5,0.5,0.9,1,0.9c0,0,0,0,0,0h2v1.8c0,0.5,0.4,0.9,0.9,0.9c0,0,0,0,0.1,0h2.6
	c0.5,0.1,0.9-0.3,1-0.8c0,0,0,0,0,0v-1.8h2c0.5,0.1,0.9-0.3,1-0.8c0,0,0,0,0,0v-2.3C43.3,45,42.8,44.6,42.3,44.7
	C42.3,44.7,42.3,44.7,42.3,44.7z"/>
<path class="st1" d="M45.3,32.5c-0.7-1-1.6-1.9-2.7-2.5V19.3H45c0.7,0,1.3-0.4,1.3-0.9s-0.6-0.9-1.3-0.9H31c-0.7,0-1.3,0.4-1.3,0.9
	s0.6,0.9,1.3,0.9h2.4V30c-1.1,0.6-2,1.4-2.7,2.5L21,52.9c0,3.1,3.3,5.5,7.3,5.5h19.4c4,0,7.3-2.5,7.3-5.5L45.3,32.5z M37.8,55.3
	c-4.7,0-8.4-3.8-8.4-8.4s3.8-8.4,8.4-8.4s8.4,3.8,8.4,8.4c0,0,0,0,0,0C46.2,51.5,42.5,55.3,37.8,55.3z"/>
</svg>
