<?xml version="1.0" encoding="utf-8"?>
<!-- Generator: Adobe Illustrator 25.1.0, SVG Export Plug-In . SVG Version: 6.00 Build 0)  -->
<svg version="1.1" id="Layer_1" xmlns="http://www.w3.org/2000/svg" xmlns:xlink="http://www.w3.org/1999/xlink" x="0px" y="0px"
	 viewBox="0 0 76 76" style="enable-background:new 0 0 76 76;" xml:space="preserve">
<style type="text/css">
	.st0{fill:#697AD3;}
	.st1{fill:#FFFFFF;}
</style>
<circle class="st0" cx="38" cy="38" r="34.8"/>
<g>
	<path class="st1" d="M60.5,27.5l-4-10.4c-0.4-1.3-1.8-2.1-3.2-1.7h-0.1l-12.5,8.3v-1.6c0-1.9-2.1-3.5-4.8-3.5h-6.5
		c-2.7,0-4.8,1.5-4.8,3.5V28c-0.2,0.4-0.9,1.5-1.6,2.6c-2.8,4.4-3.8,6.1-3.8,7.1v19.7c0,1.9,1.9,3.4,4.2,3.4H42
		c2.3,0,4.2-1.5,4.2-3.4V37.6c0-0.8-0.7-2.1-2.5-5.1l15.6-1.7h0.1C60.5,30.3,61.1,28.8,60.5,27.5C60.5,27.6,60.5,27.5,60.5,27.5z
		 M40.8,35.8l0.5,0.9l0,0v0.1v0.1V37v0.1l0,0v18.2c-0.1,0.7-0.6,1.1-1.3,1.1c-0.6-0.1-1-0.5-1.1-1.1V37.6L38,35.8H22.6
		c0.8-1.3,1.8-3,2.5-4.1c1-1.6,1.5-2.3,1.7-2.8h11.8c0.2,0.5,0.7,1.2,1.7,2.8c0.7,1.1,1.8,2.8,2.5,4.1H40.8z M58.4,28.7l-15.9,1.7
		l0,0c-0.1-0.1-0.2-0.2-0.3-0.3l-1.3-3.3c0-0.1-0.1-0.2-0.1-0.3v-0.1l0,0l13.3-8.7c0.1,0.1,0.2,0.2,0.2,0.3l4,10.4
		C58.3,28.4,58.4,28.5,58.4,28.7L58.4,28.7z"/>
	<path class="st1" d="M54.2,22.3c-0.1-0.3-0.5-0.4-0.8-0.3l-6.7,2.4c-0.3,0.1-0.5,0.4-0.3,0.7l0,0c0.1,0.3,0.5,0.5,0.8,0.3l6.7-2.4
		C54.1,22.9,54.3,22.6,54.2,22.3L54.2,22.3z"/>
	<path class="st1" d="M54.3,24.3l-6.7,2.4c-0.3,0.1-0.5,0.4-0.4,0.7l0,0c0.1,0.3,0.5,0.4,0.8,0.3l6.7-2.4c0.3-0.1,0.5-0.4,0.4-0.7
		l0,0C54.9,24.3,54.6,24.2,54.3,24.3z"/>
</g>
</svg>
