<?xml version="1.0" encoding="utf-8"?>
<!-- Generator: Adobe Illustrator 24.3.0, SVG Export Plug-In . SVG Version: 6.00 Build 0)  -->
<svg version="1.1" id="Layer_1" xmlns="http://www.w3.org/2000/svg" xmlns:xlink="http://www.w3.org/1999/xlink" x="0px" y="0px"
	 viewBox="0 0 76 76" style="enable-background:new 0 0 76 76;" xml:space="preserve">
<style type="text/css">
	.st0{fill:#28324B;}
	.st1{fill:#FFFFFF;}
</style>
<circle class="st0" cx="38.2" cy="38" r="34.8"/>
<path class="st1" d="M33.6,12.6H21.8c-1.6,0.3-2.7,1.9-2.4,3.5c0.2,1.2,1.2,2.2,2.4,2.4h0.2v40.2c-0.1,2.5,1.7,4.6,4.2,4.8h2.9
	c2.5-0.2,4.4-2.3,4.2-4.8V18.5h0.2c1.6,0,2.9-1.3,2.9-3C36.6,13.9,35.3,12.6,33.6,12.6z M33.6,16.5h-2.3l0.1,1.3v23H24v-23l0.1-1.3
	h-1h-1.2c-0.6,0-1-0.4-1-1c0-0.6,0.4-1,1-1h11.8c0.6,0,1,0.4,1,1C34.6,16.1,34.2,16.5,33.6,16.5L33.6,16.5z"/>
<path class="st1" d="M26.3,19.6c-0.3,0-0.5,0.2-0.5,0.5v17.5c0,0.3,0.2,0.5,0.5,0.5s0.5-0.2,0.5-0.5V20.1
	C26.8,19.8,26.6,19.6,26.3,19.6C26.3,19.6,26.3,19.6,26.3,19.6z"/>
<path class="st1" d="M54.2,12.6H42.4c-1.6,0-3,1.3-3,2.9s1.3,3,3,3h0.2v40.2c-0.1,2.5,1.7,4.6,4.2,4.8h2.9c2.5-0.2,4.4-2.3,4.2-4.8
	V18.5h0.2c1.6-0.3,2.7-1.9,2.4-3.5C56.3,13.7,55.4,12.8,54.2,12.6z M54.2,16.5h-2.3l0.1,1.3v23h-7.4v-23v-1.3h-1h-1.2
	c-0.6,0-1-0.4-1-1c0-0.6,0.4-1,1-1h11.8c0.6,0,1,0.4,1,1C55.2,16.1,54.7,16.5,54.2,16.5L54.2,16.5z"/>
<path class="st1" d="M46.8,19.6c-0.3,0-0.5,0.2-0.5,0.5c0,0,0,0,0,0v17.5c0,0.3,0.2,0.5,0.5,0.5s0.5-0.2,0.5-0.5V20.1
	C47.3,19.8,47.1,19.6,46.8,19.6C46.8,19.6,46.8,19.6,46.8,19.6z"/>
</svg>
