<?xml version="1.0" encoding="utf-8"?>
<svg version="1.1" xmlns:xlink="http://www.w3.org/1999/xlink" width="870px" height="925px" xmlns="http://www.w3.org/2000/svg">
  <defs>
    <path d="M 0 0  L 376.4 0  L 376.4 402.6  L 0 402.6  Z " fill-rule="evenodd" fill="black" id="path1" />
    <clipPath id="clip2">
      <use xlink:href="#path1" />
    </clipPath>
    <style type="text/css">
	.st0{fill:url(#back_3_);}
	.st1{fill:url(#front_3_);}
	.st2{fill:url(#SVGID_1_);}
	.st3{fill:url(#SVGID_2_);}
	.st4{opacity:0.6;}
	.st5{fill:#FFFFFF;}
	.st6{fill:none;stroke:#FFFFFF;stroke-width:0.8825;stroke-linecap:round;stroke-linejoin:round;}
	.st7{fill:url(#back_4_);}
	.st8{fill:url(#front_4_);}
	.st9{fill:url(#SVGID_3_);}
	.st10{fill:url(#SVGID_4_);}
</style>
    <defs>
</defs>
    <g>
	<g id="_x32__4_">
		<g id="cloud_1_">
			<linearGradient id="back_3_" gradientUnits="userSpaceOnUse" x1="68.0123" y1="386.2965" x2="298.5552" y2="155.7537">
				<stop offset="0" style="stop-color:#E6E6E6" />
				<stop offset="1" style="stop-color:#FFFFFF" />
			</linearGradient>
			<path id="back_1_" class="st0" d="M376.4,264.5c0,37.5-29.4,68-65.8,68c-5.5,0-10.9-0.8-16-2.1c-8.9,44.6-45.9,70.7-90.6,70.7     c-32.9,0-61.9-14.2-78.6-39.4c-11.7,6.8-24.9,10.7-39,10.7c-46.9,0-84.9-42.6-84.9-95.1c0-52.5,38-89.9,84.9-89.9     c0.5,0,1,0.1,1.5,0.1c3.8-27.3,24.5-44.6,50.7-44.6c17.7,0,33.8,7.9,43.6,21.4c15.1-17.8,37.4-28.4,62.3-28.4     c37.9,0,69.7,24.4,79.4,62C353.9,204.3,376.4,231.7,376.4,264.5z M186,177.8c-4.7,0-8.5,3.8-8.5,8.6c0,4.7,3.9,8.6,8.5,8.6     c4.7,0,8.6-3.8,8.6-8.6C194.6,181.7,190.8,177.8,186,177.8z" />
			<linearGradient id="front_3_" gradientUnits="userSpaceOnUse" x1="66.5129" y1="387.8089" x2="297.0594" y2="157.2623">
				<stop offset="0" style="stop-color:#FFFFFF" />
				<stop offset="1" style="stop-color:#E6E6E6" />
			</linearGradient>
			<path id="front_1_" class="st1" d="M374.9,266c0,37.5-29.4,68-65.8,68c-5.5,0-10.9-0.8-16-2.1c-8.9,44.6-45.9,70.7-90.6,70.7     c-33,0-61.9-14.2-78.6-39.5c-11.7,6.8-24.9,10.7-39,10.7C38,373.8,0,331.2,0,278.7c0-52.5,38-89.8,84.9-89.8c0.5,0,1,0.1,1.5,0.1     c3.8-27.3,24.5-44.6,50.7-44.6c17.7,0,33.8,7.9,43.6,21.4c15.1-17.8,37.4-28.4,62.3-28.4c37.8,0,69.7,24.4,79.4,62     C352.4,205.8,374.9,233.2,374.9,266z M186,177.8c-4.7,0-8.5,3.8-8.5,8.6c0,4.7,3.9,8.6,8.5,8.6c4.7,0,8.6-3.8,8.6-8.6     C194.6,181.7,190.8,177.8,186,177.8z" />
		</g>
		<g id="perforation_1_">
			<linearGradient id="SVGID_1_" gradientUnits="userSpaceOnUse" x1="176.3046" y1="176.6141" x2="195.8068" y2="196.1163">
				<stop offset="5.617980e-03" style="stop-color:#B3B3B3" />
				<stop offset="0.1966" style="stop-color:#F0F0F0" />
				<stop offset="0.5562" style="stop-color:#FFFFFF" />
				<stop offset="1" style="stop-color:#B3B3B3" />
			</linearGradient>
			<path class="st2" d="M200,186.4c0,7.7-6.3,13.9-14,13.9c-7.7,0-13.9-6.2-13.9-13.9c0-7.7,6.2-13.9,13.9-13.9     C193.7,172.4,200,178.7,200,186.4z M186,178.7c-4.2,0-7.6,3.4-7.6,7.7c0,4.3,3.5,7.7,7.6,7.7c4.3,0,7.7-3.4,7.7-7.7     C193.8,182.1,190.3,178.7,186,178.7z" />
			<linearGradient id="SVGID_2_" gradientUnits="userSpaceOnUse" x1="171.1292" y1="201.461" x2="199.713" y2="172.8772">
				<stop offset="5.617980e-03" style="stop-color:#FFFFFF" />
				<stop offset="0.1966" style="stop-color:#F0F0F0" />
				<stop offset="0.6348" style="stop-color:#B3B3B3" />
				<stop offset="1" style="stop-color:#B3B3B3" />
			</linearGradient>
			<path class="st3" d="M197.1,186.4c0,6-4.9,10.9-10.9,10.9c-6.1,0-11-4.9-11-10.9c0-6,4.9-10.9,11-10.9     C192.2,175.5,197.1,180.4,197.1,186.4z M186,178.7c-4.2,0-7.6,3.4-7.6,7.7c0,4.3,3.5,7.7,7.6,7.7c4.3,0,7.7-3.4,7.7-7.7     C193.8,182.1,190.3,178.7,186,178.7z" />
		</g>
	</g>
	<g id="_x32__1_" class="st4">
		<path class="st5" d="M184.9,182.1c-0.4,0-0.7-0.7-0.7-1.5V1.5c0-0.8,0.3-1.5,0.7-1.5c0.4,0,0.7,0.7,0.7,1.5v179.1    C185.6,181.4,185.3,182.1,184.9,182.1L184.9,182.1z" />
	</g>
	<g>
		<path class="st6" d="M184.2,159.8c0,0,11.1-23.5,21.3-14C213.6,153.2,195.7,158.8,184.2,159.8z" />
		<path class="st6" d="M184.7,159.5c0,0-2.6-24.6-15.4-19.5C159.1,144.1,174.3,154.4,184.7,159.5z" />
		<path class="st6" d="M184.7,159.5c0,0-4.3,12-14.7,11.3L184.7,159.5z" />
	</g>
</g>
    <filter x="-50.00%" y="-50.00%" width="200.00%" height="200.00%" filterUnits="objectBoundingBox" id="filter3">
      <feColorMatrix type="matrix" values="1 0 0 0 0  0 1 0 0 0  0 0 1 0 0  0 0 0 1 0  " in="SourceGraphic" />
    </filter>
    <filter x="842px" y="-122px" width="870px" height="925px" filterUnits="userSpaceOnUse" id="filter4">
      <feOffset dx="-4" dy="25" in="SourceAlpha" result="shadowOffsetInner" />
      <feGaussianBlur stdDeviation="25" in="shadowOffsetInner" result="shadowGaussian" />
      <feComposite in2="shadowGaussian" operator="atop" in="SourceAlpha" result="shadowComposite" />
      <feColorMatrix type="matrix" values="0 0 0 0 0.2  0 0 0 0 0.2  0 0 0 0 0.2  0 0 0 0.349019607843137 0  " in="shadowComposite" />
    </filter>
    <g id="widget5">
      <g transform="matrix(2.04569606801275 0 0 2.04569606801275 896 -96.2986184909672 )" clip-path="url(#clip2)" filter="url(#filter3)">
        <style type="text/css">
	.st0{fill:url(#back_3_);}
	.st1{fill:url(#front_3_);}
	.st2{fill:url(#SVGID_1_);}
	.st3{fill:url(#SVGID_2_);}
	.st4{opacity:0.6;}
	.st5{fill:#FFFFFF;}
	.st6{fill:none;stroke:#FFFFFF;stroke-width:0.8825;stroke-linecap:round;stroke-linejoin:round;}
	.st7{fill:url(#back_4_);}
	.st8{fill:url(#front_4_);}
	.st9{fill:url(#SVGID_3_);}
	.st10{fill:url(#SVGID_4_);}
</style>
        <g>
	<g id="_x32__4_">
		<g id="cloud_1_">
			<linearGradient id="back_3_" gradientUnits="userSpaceOnUse" x1="68.0123" y1="386.2965" x2="298.5552" y2="155.7537">
				<stop offset="0" style="stop-color:#E6E6E6" />
				<stop offset="1" style="stop-color:#FFFFFF" />
			</linearGradient>
			<path id="back_1_" class="st0" d="M376.4,264.5c0,37.5-29.4,68-65.8,68c-5.5,0-10.9-0.8-16-2.1c-8.9,44.6-45.9,70.7-90.6,70.7     c-32.9,0-61.9-14.2-78.6-39.4c-11.7,6.8-24.9,10.7-39,10.7c-46.9,0-84.9-42.6-84.9-95.1c0-52.5,38-89.9,84.9-89.9     c0.5,0,1,0.1,1.5,0.1c3.8-27.3,24.5-44.6,50.7-44.6c17.7,0,33.8,7.9,43.6,21.4c15.1-17.8,37.4-28.4,62.3-28.4     c37.9,0,69.7,24.4,79.4,62C353.9,204.3,376.4,231.7,376.4,264.5z M186,177.8c-4.7,0-8.5,3.8-8.5,8.6c0,4.7,3.9,8.6,8.5,8.6     c4.7,0,8.6-3.8,8.6-8.6C194.6,181.7,190.8,177.8,186,177.8z" />
			<linearGradient id="front_3_" gradientUnits="userSpaceOnUse" x1="66.5129" y1="387.8089" x2="297.0594" y2="157.2623">
				<stop offset="0" style="stop-color:#FFFFFF" />
				<stop offset="1" style="stop-color:#E6E6E6" />
			</linearGradient>
			<path id="front_1_" class="st1" d="M374.9,266c0,37.5-29.4,68-65.8,68c-5.5,0-10.9-0.8-16-2.1c-8.9,44.6-45.9,70.7-90.6,70.7     c-33,0-61.9-14.2-78.6-39.5c-11.7,6.8-24.9,10.7-39,10.7C38,373.8,0,331.2,0,278.7c0-52.5,38-89.8,84.9-89.8c0.5,0,1,0.1,1.5,0.1     c3.8-27.3,24.5-44.6,50.7-44.6c17.7,0,33.8,7.9,43.6,21.4c15.1-17.8,37.4-28.4,62.3-28.4c37.8,0,69.7,24.4,79.4,62     C352.4,205.8,374.9,233.2,374.9,266z M186,177.8c-4.7,0-8.5,3.8-8.5,8.6c0,4.7,3.9,8.6,8.5,8.6c4.7,0,8.6-3.8,8.6-8.6     C194.6,181.7,190.8,177.8,186,177.8z" />
		</g>
		<g id="perforation_1_">
			<linearGradient id="SVGID_1_" gradientUnits="userSpaceOnUse" x1="176.3046" y1="176.6141" x2="195.8068" y2="196.1163">
				<stop offset="5.617980e-03" style="stop-color:#B3B3B3" />
				<stop offset="0.1966" style="stop-color:#F0F0F0" />
				<stop offset="0.5562" style="stop-color:#FFFFFF" />
				<stop offset="1" style="stop-color:#B3B3B3" />
			</linearGradient>
			<path class="st2" d="M200,186.4c0,7.7-6.3,13.9-14,13.9c-7.7,0-13.9-6.2-13.9-13.9c0-7.7,6.2-13.9,13.9-13.9     C193.7,172.4,200,178.7,200,186.4z M186,178.7c-4.2,0-7.6,3.4-7.6,7.7c0,4.3,3.5,7.7,7.6,7.7c4.3,0,7.7-3.4,7.7-7.7     C193.8,182.1,190.3,178.7,186,178.7z" />
			<linearGradient id="SVGID_2_" gradientUnits="userSpaceOnUse" x1="171.1292" y1="201.461" x2="199.713" y2="172.8772">
				<stop offset="5.617980e-03" style="stop-color:#FFFFFF" />
				<stop offset="0.1966" style="stop-color:#F0F0F0" />
				<stop offset="0.6348" style="stop-color:#B3B3B3" />
				<stop offset="1" style="stop-color:#B3B3B3" />
			</linearGradient>
			<path class="st3" d="M197.1,186.4c0,6-4.9,10.9-10.9,10.9c-6.1,0-11-4.9-11-10.9c0-6,4.9-10.9,11-10.9     C192.2,175.5,197.1,180.4,197.1,186.4z M186,178.7c-4.2,0-7.6,3.4-7.6,7.7c0,4.3,3.5,7.7,7.6,7.7c4.3,0,7.7-3.4,7.7-7.7     C193.8,182.1,190.3,178.7,186,178.7z" />
		</g>
	</g>
	<g id="_x32__1_" class="st4">
		<path class="st5" d="M184.9,182.1c-0.4,0-0.7-0.7-0.7-1.5V1.5c0-0.8,0.3-1.5,0.7-1.5c0.4,0,0.7,0.7,0.7,1.5v179.1    C185.6,181.4,185.3,182.1,184.9,182.1L184.9,182.1z" />
	</g>
	<g>
		<path class="st6" d="M184.2,159.8c0,0,11.1-23.5,21.3-14C213.6,153.2,195.7,158.8,184.2,159.8z" />
		<path class="st6" d="M184.7,159.5c0,0-2.6-24.6-15.4-19.5C159.1,144.1,174.3,154.4,184.7,159.5z" />
		<path class="st6" d="M184.7,159.5c0,0-4.3,12-14.7,11.3L184.7,159.5z" />
	</g>
</g>
      </g>
    </g>
  </defs>
  <g transform="matrix(1 0 0 1 -842 122 )">
    <use xlink:href="#widget5" filter="url(#filter4)" />
    <use xlink:href="#widget5" />
  </g>
</svg>