<svg xmlns="http://www.w3.org/2000/svg" viewBox="0 0 379.34 388.72"><defs><style>.a{fill:#fff;}</style></defs><path class="a" d="M180.18,304.79v-.08c0-6.79-5-10.77-12.7-10.77H155.53a2.14,2.14,0,0,0-2.16,2V324.5h8.46v-7.72a1.08,1.08,0,0,1,1-1h3l5.9,8.73h9.79l-7-10.25A10,10,0,0,0,180.18,304.79Zm-8.46.38c0,2.41-1.83,4-4.84,4h-5V302.4a1.33,1.33,0,0,1,1.31-1.33h3.69c3.06,0,4.89,1.39,4.89,4Z"/><path class="a" d="M200.08,293.34c-9.42,0-16.48,7.11-16.48,15.9v.06c0,8.8,7,15.83,16.4,15.83s16.51-7.14,16.51-15.89v-.1c0-8.77-7-15.8-16.43-15.8m7.78,16c0,4.41-3.08,8.17-7.78,8.17a7.93,7.93,0,0,1-7.81-8.23v-.1c0-4.41,3.12-8.17,7.73-8.17s7.86,3.85,7.86,8.27Z"/><path class="a" d="M241.51,295.9v14.21l-12.57-16.17h-5.73a2.19,2.19,0,0,0-2.17,2.19V324.5h8.38V307.75l13.06,16.75h7.4V293.94h-6.22a2.09,2.09,0,0,0-2.15,2"/><path class="a" d="M122.32,296v5.34h9.16V324.5H140V302.34a1,1,0,0,1,1.06-1h8.11v-7.44H124.49a2.2,2.2,0,0,0-2.17,2.1"/><path class="a" d="M94,296.06V324.5h24.57v-7.21H102.39v-3.68a1.19,1.19,0,0,1,1-1.16h13.23v-6.67H102.39v-3.47a1.16,1.16,0,0,1,1-1.16h15.2v-7.21H96.18A2.18,2.18,0,0,0,94,296.06"/><path class="a" d="M304.38,305.46c-4.26-.95-5.29-1.56-5.29-2.94v-.1c0-1.1,1-2,3-2a13.81,13.81,0,0,1,5.88,1.46l.64.32a3.19,3.19,0,0,0,2.08.3c.58-.13,1-.66,1.54-1.3l2.65-3.74a19.13,19.13,0,0,0-12.57-4.07c-7.32,0-11.83,4.11-11.83,9.79v.08c0,6.29,5,8.11,11.53,9.61,4.15,1,5.14,1.65,5.14,2.93v.07c0,1.33-1.21,2.09-3.48,2.09a15,15,0,0,1-7.64-2.11,3.79,3.79,0,0,0-2.63-.56,2.17,2.17,0,0,0-1.16.84L289.09,320a21.49,21.49,0,0,0,14.32,5c7.42,0,12.34-3.71,12.34-9.94V315c0-5.71-4.37-8-11.37-9.53"/><path class="a" d="M262.59,324.5l1.54-3.86a2.11,2.11,0,0,1,1.4-1.37h10.93l2.14,5.23h9.07l-12.92-30.56h-6.94a2.11,2.11,0,0,0-1.8,1.4L253.68,324.5Zm8-20.52,3.41,8.69h-6.87Z"/><path class="a" d="M72.05,324.5c0-2.27,0-7.41,0-7.71a1.13,1.13,0,0,1,.71-1,1.89,1.89,0,0,1,.58,0H76.6a19.87,19.87,0,0,0,6.68-.95,10.67,10.67,0,0,0,5.59-4.27,11.33,11.33,0,0,0,1.49-6.86,10.32,10.32,0,0,0-1.66-5c-2.12-3.13-5.9-4.47-9.53-4.72-.49,0-1-.06-1.47-.05H67.36c-1.43,0-3.77-.07-3.77,2V324.5Zm9.89-19.33c0,2.41-1.83,4-4.84,4h-5V302.4a1.33,1.33,0,0,1,1.31-1.33h3.69c3.06,0,4.89,1.39,4.89,4Z"/><path class="a" d="M226.61,204.36a37,37,0,1,1-37-37,37,37,0,0,1,37,37"/><path class="a" d="M237.18,153.44,284,72.34H211.74c-20.15.53-25.43,4.5-33.11,17.78l-46.49,80.54a66.64,66.64,0,1,0,114.55-.75ZM212.11,89.38h42.38l-27.15,47-9.25-16-17.2-29.8c2.48-.85,5.85-1.19,11.22-1.19M189.64,254A49.69,49.69,0,0,1,146.8,179.2s42.67-73.9,42.82-74.2l16.66,28.8h0v0l26.16,45.34s0,0,0,0A49.67,49.67,0,0,1,189.64,254"/></svg>