<?xml version="1.0" encoding="utf-8"?>
<svg version="1.1" xmlns:xlink="http://www.w3.org/1999/xlink" width="27px" height="24px" xmlns="http://www.w3.org/2000/svg">
  <g transform="matrix(1 0 0 1 -290 -142 )">
    <path d="M 3.66127232142857 9.33333333333333  L 9.64285714285714 15.2808988764045  L 9.64285714285714 16.3295880149813  C 9.64285714285714 16.749063670412  9.44698660714286 17.043695380774  9.05524553571429 17.2134831460674  C 8.92466517857143 17.2634207240949  8.79910714285714 17.2883895131086  8.67857142857143 17.2883895131086  C 8.40736607142857 17.2883895131086  8.18136160714286 17.1935081148564  8.00055803571429 17.0037453183521  L 0.286272321428571 9.33333333333333  C 0.0954241071428571 9.14357053682896  0 8.91885143570537  0 8.65917602996255  C 0 8.39950062421972  0.0954241071428571 8.17478152309613  0.286272321428571 7.98501872659176  L 8.00055803571429 0.314606741573034  C 8.29185267857143 0.00499375780274569  8.64341517857143 -0.06491885143571  9.05524553571429 0.104868913857678  C 9.44698660714286 0.274656679151061  9.64285714285714 0.569288389513107  9.64285714285714 0.98876404494382  L 9.64285714285714 2.02247191011236  L 3.66127232142857 7.98501872659176  C 3.47042410714286 8.17478152309613  3.375 8.39950062421972  3.375 8.65917602996255  C 3.375 8.91885143570537  3.47042410714286 9.14357053682896  3.66127232142857 9.33333333333333  Z M 24.4536830357143 8.22471910112359  C 26.1512276785714 9.95255930087391  27 12.4943820224719  27 15.8501872659176  C 27 16.4294631710362  26.9146205357143 17.0961298377029  26.7438616071429 17.8501872659176  C 26.5731026785714 18.6042446941323  26.3797433035714 19.2933832709114  26.1637834821429 19.9176029962547  C 25.9478236607143 20.541822721598  25.7067522321429 21.1660424469413  25.4405691964286 21.7902621722846  C 25.1743861607143 22.414481897628  24.9709821428571 22.8664169787765  24.8303571428571 23.1460674157303  L 24.5290178571429 23.7453183520599  C 24.4486607142857 23.9151061173533  24.3080357142857 24  24.1071428571429 24  C 24.046875 24  24.0016741071429 23.9950062421973  23.9715401785714 23.9850187265918  C 23.7204241071429 23.9051186017478  23.6049107142857 23.7353308364544  23.625 23.4756554307116  C 24.0569196428571 19.4806491885144  23.5245535714286 16.6591760299625  22.0279017857143 15.0112359550562  C 21.3850446428571 14.3021223470662  20.5287388392857 13.7503121098627  19.458984375 13.3558052434457  C 18.3892299107143 12.9612983770287  17.0457589285714 12.6991260923845  15.4285714285714 12.5692883895131  L 15.4285714285714 16.3295880149813  C 15.4285714285714 16.749063670412  15.2327008928571 17.043695380774  14.8409598214286 17.2134831460674  C 14.7103794642857 17.2634207240949  14.5848214285714 17.2883895131086  14.4642857142857 17.2883895131086  C 14.1930803571429 17.2883895131086  13.9670758928571 17.1935081148564  13.7862723214286 17.0037453183521  L 6.07198660714286 9.33333333333333  C 5.88113839285714 9.14357053682896  5.78571428571429 8.91885143570537  5.78571428571429 8.65917602996255  C 5.78571428571429 8.39950062421972  5.88113839285714 8.17478152309613  6.07198660714286 7.98501872659176  L 13.7862723214286 0.314606741573034  C 14.0775669642857 0.00499375780274569  14.4291294642857 -0.06491885143571  14.8409598214286 0.104868913857678  C 15.2327008928571 0.274656679151061  15.4285714285714 0.569288389513107  15.4285714285714 0.98876404494382  L 15.4285714285714 4.91385767790262  C 19.5569196428571 5.19350811485643  22.5652901785714 6.29712858926342  24.4536830357143 8.22471910112359  Z " fill-rule="nonzero" fill="#215ca0" stroke="none" transform="matrix(1 0 0 1 290 142 )" />
  </g>
</svg>