<?xml version="1.0" encoding="utf-8"?>
<!-- Generator: Adobe Illustrator 25.1.0, SVG Export Plug-In . SVG Version: 6.00 Build 0)  -->
<svg version="1.1" id="Layer_1" xmlns="http://www.w3.org/2000/svg" xmlns:xlink="http://www.w3.org/1999/xlink" x="0px" y="0px"
	 viewBox="0 0 55 50" style="enable-background:new 0 0 55 50;" xml:space="preserve">
<style type="text/css">
	.st0{fill:url(#SVGID_1_);}
</style>
<linearGradient id="SVGID_1_" gradientUnits="userSpaceOnUse" x1="27.5" y1="0" x2="27.5" y2="50">
	<stop  offset="0" style="stop-color:#C69C6D"/>
	<stop  offset="1" style="stop-color:#A67C52"/>
</linearGradient>
<path class="st0" d="M53.4,0H25.6v21.7c0,0.7-0.4,1.3-1,1.5c-0.2,0.1-0.4,0.1-0.6,0.1c-0.4,0-0.8-0.2-1.1-0.5l-5.3-5.5l-5.3,5.5
	c-0.5,0.5-1.1,0.6-1.7,0.4c-0.6-0.3-1-0.9-1-1.5V0h-8C0.7,0,0,0.7,0,1.7v46.7C0,49.3,0.7,50,1.6,50h51.8c0.9,0,1.6-0.7,1.6-1.7V1.7
	C55,0.7,54.3,0,53.4,0z M46.5,34.8l-7.9,7.8c-0.2,0.2-0.3,0.2-0.6,0.2c-0.2,0-0.4-0.1-0.6-0.2l-7.9-7.8c-0.1-0.1-0.2-0.2-0.3-0.3
	c-0.1-0.2-0.4-0.4-0.7-0.8c-0.3-0.4-0.6-0.8-0.9-1.3c-0.3-0.4-0.5-1-0.7-1.6s-0.3-1.2-0.3-1.8c0-1.9,0.5-3.4,1.6-4.5
	c1.1-1.1,2.5-1.6,4.4-1.6c0.5,0,1.1,0.1,1.6,0.3s1,0.4,1.5,0.8s0.9,0.6,1.2,0.9s0.7,0.6,1,0.9c0.3-0.3,0.6-0.6,1-0.9
	c0.3-0.3,0.7-0.6,1.2-0.9s1-0.6,1.5-0.8s1.1-0.3,1.6-0.3c1.9,0,3.4,0.5,4.4,1.6c1.1,1.1,1.6,2.6,1.6,4.5
	C49.4,30.9,48.4,32.8,46.5,34.8z"/>
</svg>
