<?xml version="1.0" encoding="utf-8"?>
<!-- Generator: Adobe Illustrator 25.0.1, SVG Export Plug-In . SVG Version: 6.00 Build 0)  -->
<svg version="1.1" id="Layer_1" xmlns="http://www.w3.org/2000/svg" xmlns:xlink="http://www.w3.org/1999/xlink" x="0px" y="0px"
	 viewBox="0 0 55 50" style="enable-background:new 0 0 55 50;" xml:space="preserve">
<style type="text/css">
	.st0{fill:url(#SVGID_1_);}
	.st1{fill:url(#SVGID_2_);}
</style>
<g>
	<linearGradient id="SVGID_1_" gradientUnits="userSpaceOnUse" x1="37.6993" y1="37.8099" x2="37.6993" y2="31.1362">
		<stop  offset="0" style="stop-color:#C69C6D"/>
		<stop  offset="1" style="stop-color:#A67C52"/>
	</linearGradient>
	<path class="st0" d="M42.5,31.1c-1.4,0-2.8,0.2-4,0.6c-1.2,0.4-2.3,1-3.2,1.7c-0.9,0.7-1.9,1.7-2.9,2.9c-0.2,0.2-0.2,0.4-0.2,0.6
		c0,0.2,0.1,0.4,0.2,0.6c0.2,0.2,0.3,0.2,0.6,0.2c0.2,0,0.4-0.1,0.6-0.2c0.2-0.2,0.5-0.5,0.9-0.9c0.4-0.4,0.7-0.7,0.8-0.9
		c1.1-1.1,2.3-1.8,3.4-2.3s2.4-0.7,3.9-0.7c0.2,0,0.4-0.1,0.6-0.2s0.2-0.4,0.2-0.6s-0.1-0.4-0.2-0.6S42.7,31.1,42.5,31.1z"/>
	<linearGradient id="SVGID_2_" gradientUnits="userSpaceOnUse" x1="27.5" y1="50" x2="27.5" y2="-9.094947e-13">
		<stop  offset="0" style="stop-color:#C69C6D"/>
		<stop  offset="1" style="stop-color:#A67C52"/>
	</linearGradient>
	<path class="st1" d="M53.4,0H25.6v21.7c0,0.7-0.4,1.3-1,1.5c-0.2,0.1-0.4,0.1-0.6,0.1c-0.4,0-0.8-0.2-1.1-0.5l-5.3-5.5l-5.3,5.5
		c-0.5,0.5-1.1,0.6-1.7,0.4c-0.6-0.3-1-0.9-1-1.5V0H1.6C0.7,0,0,0.7,0,1.7v46.7C0,49.3,0.7,50,1.6,50h51.8c0.9,0,1.6-0.7,1.6-1.7
		V1.7C55,0.7,54.3,0,53.4,0z M49.4,31.9c-0.4,1.9-1.2,3.6-2.3,5c-1.2,1.4-2.6,2.5-4.5,3.5c-1.8,0.9-3.6,1.4-5.5,1.4
		c-1.2,0-2.4-0.2-3.6-0.6c-0.1,0-0.5-0.2-1.1-0.5c-0.6-0.3-1-0.5-1.2-0.5c-0.1,0-0.3,0.1-0.5,0.4c-0.2,0.3-0.4,0.6-0.6,0.9
		s-0.4,0.6-0.7,0.9c-0.3,0.3-0.5,0.4-0.8,0.4c-0.4,0-0.6-0.1-0.8-0.2c-0.2-0.2-0.4-0.4-0.6-0.8c0,0,0-0.1-0.1-0.1
		c0-0.1-0.1-0.1-0.1-0.1s0-0.1,0-0.1c0-0.1,0-0.1,0-0.2c0-0.3,0.1-0.6,0.4-1c0.3-0.3,0.5-0.6,0.8-0.9c0.3-0.2,0.6-0.5,0.9-0.7
		c0.3-0.3,0.4-0.5,0.4-0.6c0,0-0.1-0.2-0.2-0.5c-0.1-0.3-0.2-0.5-0.2-0.6c-0.1-0.4-0.1-0.9-0.1-1.4c0-1,0.2-2,0.5-2.9
		c0.4-0.9,0.9-1.7,1.5-2.4c0.6-0.7,1.3-1.3,2.1-1.8s1.6-0.9,2.6-1.2c0.5-0.2,1.1-0.3,1.8-0.3c0.8-0.1,1.5-0.1,2.2-0.1
		c0.7,0,1.5,0,2.2-0.1c0.7,0,1.4-0.1,2-0.3c0.6-0.2,1.1-0.4,1.4-0.7l0.4-0.4c0,0,0.1-0.1,0.4-0.4c0.2-0.2,0.4-0.3,0.3-0.3
		c0,0.1,0.1,0,0.5-0.2s0.5-0.2,0.5-0.1c0.3,0,0.6,0.2,0.9,0.6s0.5,0.9,0.6,1.5c0.1,0.6,0.2,1.1,0.3,1.6c0.1,0.5,0.1,0.9,0.1,1.3
		C49.7,30.2,49.6,31.1,49.4,31.9z"/>
</g>
</svg>
