<?xml version="1.0" encoding="utf-8"?>
<!-- Generator: Adobe Illustrator 25.1.0, SVG Export Plug-In . SVG Version: 6.00 Build 0)  -->
<svg version="1.1" id="Capa_1" xmlns="http://www.w3.org/2000/svg" xmlns:xlink="http://www.w3.org/1999/xlink" x="0px" y="0px"
	 viewBox="0 0 76 76" style="enable-background:new 0 0 76 76;" xml:space="preserve">
<style type="text/css">
	.st0{fill:#6B6B6B;}
	.st1{fill:#BCBCBC;}
	.st2{fill:url(#SVGID_1_);}
</style>
<g>
	<path class="st0" d="M71.1,56.3v-5.5v-7.7h-4.4h-8.8c-2.5,0-4.4-1.9-4.4-4.4v-9.9H48v13.3H32.5H19.2H5.9H3.7v14.4h2.2v4.4h7.7
		c0,3.7,3,6.6,6.6,6.6c3.7,0,6.6-3,6.6-6.6H50c0,3.7,3,6.6,6.6,6.6c3.7,0,6.6-3,6.6-6.6h3.3h5.5v-4.4h-0.8V56.3z M20.3,62.8
		c-1.2,0-2.2-1-2.2-2.2s1-2.2,2.2-2.2s2.2,1,2.2,2.2C22.5,61.9,21.5,62.8,20.3,62.8z M56.8,62.8c-1.2,0-2.2-1-2.2-2.2s1-2.2,2.2-2.2
		c1.2,0,2.2,1,2.2,2.2C59,61.9,58.1,62.8,56.8,62.8z"/>
	<path class="st1" d="M64.5,28.6h-4.4h-6.6v9.9c0,2.5,1.9,4.4,4.4,4.4h8.8h4.4L64.5,28.6z"/>
	
		<linearGradient id="SVGID_1_" gradientUnits="userSpaceOnUse" x1="5.9422" y1="52.7263" x2="47.949" y2="52.7263" gradientTransform="matrix(1 0 0 -1 0 78)">
		<stop  offset="0" style="stop-color:#C69C6D"/>
		<stop  offset="1" style="stop-color:#A67C52"/>
	</linearGradient>
	<polygon class="st2" points="42.4,8.7 42.4,14.2 38,14.2 38,8.7 32.5,8.7 32.5,17.5 25.8,17.5 19.2,17.5 19.2,25.2 14.8,25.2 
		14.8,28.6 10.4,28.6 10.4,25.2 6,25.2 6,41.8 19.2,41.8 32.5,41.8 47.9,41.8 47.9,28.6 47.9,8.7 	"/>
	<g>
		<path d="M72.2,55.2V42.9c0-0.3,0-0.4-0.1-0.5l-6.5-14.2c-0.1-0.4-0.5-0.8-1.1-0.8H49V8.7c0-0.5-0.5-1.1-1.1-1.1H32.5
			c-0.5,0-1.1,0.5-1.1,1.1v7.7H19.2c-0.5,0-1.1,0.5-1.1,1.1v6.6H5.9c-0.5,0-1.1,0.5-1.1,1.1v15.5H3.7c-0.5,0-1.1,0.5-1.1,1.1v14.4
			c0,0.5,0.5,1.1,1.1,1.1h1.1v3.4c0,0.5,0.5,1.1,1.1,1.1c0.1,0,0.1,0,0.3,0h6.5c0.5,3.7,3.7,6.6,7.7,6.6c3.8,0,7.1-2.9,7.7-6.6h21.2
			c0.5,3.7,3.7,6.6,7.7,6.6c3.8,0,7.1-2.9,7.7-6.6h7.8c0.5,0,1.1-0.5,1.1-1.1v-4.4C73.3,55.6,72.9,55.2,72.2,55.2z M57.9,41.8
			c-1.8,0-3.3-1.5-3.3-3.3v-8.8h9.2L69.5,42H57.9V41.8z M20.3,40.7v-8.8h2.2v2.2c0,0.5,0.5,1.1,1.1,1.1s1.1-0.5,1.1-1.1v-2.2h6.6
			v8.8H20.3z M33.6,9.8h3.3v4.4c0,0.5,0.5,1.1,1.1,1.1h4.4c0.5,0,1.1-0.5,1.1-1.1V9.8h3.3v18.8v12.1H33.5V9.8H33.6z M41.3,13.1h-2.2
			V9.8h2.2V13.1z M31.4,29.7h-11v-11h2.2v1.1c0,0.5,0.5,1.1,1.1,1.1c0.5,0,1.1-0.5,1.1-1.1v-1.1h6.6V29.7z M13.7,27.5h-2.2v-1.1h2.2
			V27.5z M7.1,26.4h2.2v2.2c0,0.5,0.5,1.1,1.1,1.1h4.4c0.5,0,1.1-0.5,1.1-1.1v-2.2h2.2v14.3h-11V26.4z M9.3,57.4
			c0.5,0,1.1-0.5,1.1-1.1c0-0.5-0.5-1.1-1.1-1.1H4.9V42.9h42v4.4c0,0.5,0.5,1.1,1.1,1.1c0.5,0,1.1-0.5,1.1-1.1v-5.5V29.7h3.3v8.8
			c0,3,2.5,5.5,5.5,5.5h12.2v5.5c-0.5,0-1.1,0.5-1.1,1.1c0,0.5,0.5,1.1,1.1,1.1V55H69c-0.5,0-1.1,0.5-1.1,1.1c0,0.5,0.5,1.1,1.1,1.1
			h2.2v2.2h-6.7c-0.5-3.7-3.7-6.6-7.7-6.6c-3.8,0-7.1,2.9-7.7,6.6H28c-0.5-3.7-3.7-6.6-7.7-6.6c-3.8,0-7.1,2.9-7.7,6.6H7v-2.2h2.3
			V57.4z M20.3,66.1c-3,0-5.5-2.5-5.5-5.5c0-3,2.5-5.5,5.5-5.5s5.5,2.5,5.5,5.5C25.8,63.7,23.3,66.1,20.3,66.1z M56.8,66.1
			c-3,0-5.4-2.3-5.5-5.4c0-0.1,0-0.1,0-0.3s0-0.1,0-0.3c0.1-2.9,2.5-5.4,5.5-5.4s5.5,2.5,5.5,5.5C62.3,63.7,59.8,66.1,56.8,66.1z"/>
		<path d="M20.3,57.4c-1.8,0-3.3,1.5-3.3,3.3c0,1.8,1.5,3.3,3.3,3.3s3.3-1.5,3.3-3.3C23.6,58.9,22.2,57.4,20.3,57.4z M20.3,61.7
			c-0.5,0-1.1-0.5-1.1-1.1s0.5-1.1,1.1-1.1s1.1,0.5,1.1,1.1C21.4,61.2,21,61.7,20.3,61.7z"/>
		<path d="M56.8,57.4c-1.8,0-3.3,1.5-3.3,3.3c0,1.8,1.5,3.3,3.3,3.3c1.8,0,3.3-1.5,3.3-3.3C60.1,58.9,58.6,57.4,56.8,57.4z
			 M56.8,61.7c-0.5,0-1.1-0.5-1.1-1.1s0.5-1.1,1.1-1.1c0.5,0,1.1,0.5,1.1,1.1C57.9,61.2,57.4,61.7,56.8,61.7z"/>
	</g>
</g>
</svg>
