<?xml version="1.0" encoding="utf-8"?>
<!-- Generator: Adobe Illustrator 25.1.0, SVG Export Plug-In . SVG Version: 6.00 Build 0)  -->
<svg version="1.1" id="Capa_1" xmlns="http://www.w3.org/2000/svg" xmlns:xlink="http://www.w3.org/1999/xlink" x="0px" y="0px"
	 viewBox="0 0 76 76" style="enable-background:new 0 0 76 76;" xml:space="preserve">
<style type="text/css">
	.st0{fill-rule:evenodd;clip-rule:evenodd;fill:url(#SVGID_1_);}
	.st1{fill-rule:evenodd;clip-rule:evenodd;fill:#D30F4B;}
</style>
<g>
	<g>
		
			<linearGradient id="SVGID_1_" gradientUnits="userSpaceOnUse" x1="-1890.3523" y1="1060.5763" x2="-1889.5197" y2="1015.4758" gradientTransform="matrix(-1 0 0 1 -1847.9991 -1004.1102)">
			<stop  offset="0" style="stop-color:#C69C6D"/>
			<stop  offset="1" style="stop-color:#A67C52"/>
		</linearGradient>
		<path class="st0" d="M67,12.6v34.6c-1.3-0.7-3-1.2-4.7-1.2c-5.5,0-9.9,4.4-9.9,9.9c0,1.6,0.4,3.1,1,4.4H19.3c-1.3,0-2.4-1-2.4-2.4
			v-6.5c0.9,0.6,1.8,0.9,3,0.9h11.7h5.6c1.5,0,2.7-1.2,2.7-2.7S38.6,47,37.2,47h3.7c1.5,0,2.7-1.2,2.7-2.7c0-1.5-1.2-2.7-2.7-2.7
			h4.3c1.5,0,2.7-1.2,2.7-2.7c0-1.5-1.2-2.7-2.7-2.7h-4.3c1.5,0,2.7-1.2,2.7-2.7c0-1.5-1.2-2.7-2.7-2.7H25.3c1.9,0,3.5-1.2,4.1-2.8
			c0.7-1.8,0.1-3.2-1.9-3.2h-4.3h-3.5c-1,0-2.1,0.3-2.8,0.7V13c0-1.3,1-2.4,2.4-2.4H36v13.7l5.9-3.7l5.9,3.7V10.7h16.8
			C65.8,10.2,67,11.2,67,12.6L67,12.6z"/>
	</g>
	<path class="st1" d="M67,47.1c-1.3-0.7-3-1.2-4.7-1.2l0,0c-5.5,0-9.9,4.4-9.9,9.9c0,1.6,0.4,3.1,1,4.4c1.6,3.2,5,5.5,8.9,5.5
		c5.5,0,9.9-4.4,9.9-9.9C72.2,52.2,70.1,48.8,67,47.1z M66.7,54.2l-4.4,5.2c-0.3,0.3-0.6,0.4-0.9,0.4h-0.1c-0.3,0-0.6-0.1-0.9-0.3
		L58,57.6c-0.6-0.4-0.6-1.3-0.1-1.9c0.4-0.6,1.3-0.6,1.9-0.1l1.2,1l3.4-4.1c0.4-0.6,1.3-0.7,1.9-0.1C67.1,52.7,67.1,53.6,66.7,54.2z
		"/>
	<path d="M5.4,30.7h2.1c1.6-0.1,3-1.5,4.6-3.1c1-1,2.2-2.2,3.5-3.1V12.7c0-2.1,1.6-3.8,3.8-3.8h45.2c2.1,0,3.8,1.6,3.8,3.8v9.6
		c0,0.7-0.6,1.3-1.3,1.3c-0.7,0-1.3-0.6-1.3-1.3v-9.6c0-0.6-0.4-1-1-1H49.3v12.3c0,0.4-0.3,1-0.7,1.2c-0.1,0.1-0.4,0.1-0.7,0.1
		s-0.4,0-0.7-0.1l-5.2-3.2l-5.2,3.2c-0.4,0.3-1,0.3-1.3,0c-0.3-0.3-0.7-0.7-0.7-1.2V11.7H19.3c-0.6,0-1,0.4-1,1v10.6
		c0.4-0.1,0.9-0.1,1.5-0.1l0,0h3.5h2.8h1.6l0,0c1.6,0,2.5,0.7,3,1.5c0.7,1,0.7,2.4,0.1,3.7c-0.1,0.3-0.3,0.6-0.4,0.9h10.5
		c2.2,0,4.1,1.8,4.1,4.1c0,0.4-0.1,0.9-0.3,1.3h0.4c2.2,0,4.1,1.8,4.1,4.1c0,2.2-1.8,4.1-4.1,4.1h-0.3c0.1,0.4,0.3,0.9,0.3,1.3
		c0,2.2-1.8,4-3.8,4.1c0.1,0.4,0.3,0.9,0.3,1.3c0,2.2-1.8,4.1-4.1,4.1H19.9c-0.6,0-1.2,0-1.6-0.1v4.3c0,0.6,0.4,1,1,1h32.2
		c-0.3-1-0.4-1.9-0.4-3.1c0-6.2,5-11.2,11.2-11.2c1.2,0,2.2,0.1,3.2,0.4V34.9c0-0.7,0.6-1.3,1.3-1.3c0.7,0,1.3,0.6,1.3,1.3v11.7
		c3.1,2.1,5.2,5.5,5.2,9.5c0,6.2-5,11.2-11.2,11.2c-4.1,0-7.7-2.2-9.6-5.5H19.3c-2.1,0-3.8-1.8-3.8-3.8v-5.8
		c-0.3-0.3-0.6-0.4-0.9-0.7c-1.2-0.9-2.4-1.8-4-1.8H5.4c-1.6,0-3-1.3-3-3V33.5C2.5,32.1,3.8,30.7,5.4,30.7L5.4,30.7z M37.5,21.4
		l3.7-2.4c0.4-0.3,1-0.3,1.5,0l3.7,2.4v-9.7h-9L37.5,21.4L37.5,21.4z M62.3,64.4c4.7,0,8.6-3.8,8.6-8.6s-3.8-8.6-8.6-8.6
		s-8.6,3.8-8.6,8.6C53.8,60.6,57.5,64.4,62.3,64.4z M5.3,46.8c0,0.1,0,0.1,0.1,0.1h5.2c2.7,0,4.3,1.2,5.6,2.4
		c1.2,0.9,2.1,1.6,3.5,1.6h17.1c0.7,0,1.3-0.6,1.3-1.3c0-0.7-0.3-1.3-1-1.3h-4.6c-0.7,0-1.3-0.6-1.3-1.3s0.6-1.3,1.3-1.3h8.3
		c0.7,0,1.3-0.6,1.3-1.3c0-0.7-0.6-1.3-1.3-1.3h-8.3c-0.7,0-1.3-0.6-1.3-1.3s0.6-1.3,1.3-1.3h12.6c0.7,0,1.3-0.6,1.3-1.3
		c0-0.7-0.6-1.3-1.3-1.3H32.6c-0.7,0-1.3-0.6-1.3-1.3s0.6-1.3,1.3-1.3h8.3c0.7,0,1.3-0.6,1.3-1.3c0-0.7-0.7-1.6-1.3-1.6H25.3h-3
		h-2.1c-0.7,0-1.3-0.6-1.3-1.3c0-0.7,0.6-1.3,1.3-1.3h2.1h3c1.3,0,2.4-0.7,2.8-1.9c0.3-0.7,0.1-1,0.1-1.2s-0.3-0.1-0.7-0.1h-4.3
		h-3.5c-2.4,0-4,1.8-5.8,3.7c-1.8,1.9-3.7,3.8-6.5,4l0,0H5.4c-0.1,0-0.1,0-0.1,0.1L5.3,46.8L5.3,46.8z"/>
	<path d="M67,29.9c-0.7,0-1.3-0.6-1.3-1.3s0.6-1.3,1.3-1.3c0.7,0,1.3,0.6,1.3,1.3l0,0C68.3,29.3,67.7,29.9,67,29.9z"/>
</g>
</svg>
