<?xml version="1.0" encoding="utf-8"?>
<!-- Generator: Adobe Illustrator 25.1.0, SVG Export Plug-In . SVG Version: 6.00 Build 0)  -->
<svg version="1.1" id="Layer_1" xmlns="http://www.w3.org/2000/svg" xmlns:xlink="http://www.w3.org/1999/xlink" x="0px" y="0px"
	 viewBox="0 0 76 76" style="enable-background:new 0 0 76 76;" xml:space="preserve">
<style type="text/css">
	.st0{fill:#DFE1DF;}
	.st1{fill:#F2F2F2;}
	.st2{fill:#AAAAAA;}
	.st3{fill:#595959;}
	.st4{fill:url(#SVGID_1_);}
</style>
<g>
	<path class="st0" d="M38,75.1c20.5,0,37.1-16.6,37.1-37.1H0.9C0.9,58.5,17.5,75.1,38,75.1z"/>
	<path class="st1" d="M38,0.9C17.5,0.9,0.9,17.5,0.9,38h74.1C75.1,17.5,58.5,0.9,38,0.9z"/>
</g>
<g>
	<rect x="20.8" y="27.6" class="st2" width="34.4" height="30.6"/>
	<path class="st3" d="M38,11.7L14.7,24.6v33.7h6.1V27.6h34.4v30.6h6.1V24.6L38,11.7z M38,23.5c-1.7,0-3-1.4-3-3c0-1.7,1.4-3,3-3
		s3,1.4,3,3C41,22.1,39.7,23.5,38,23.5z"/>
	<linearGradient id="SVGID_1_" gradientUnits="userSpaceOnUse" x1="26.6545" y1="46.9164" x2="49.355" y2="46.9164">
		<stop  offset="0" style="stop-color:#C69C6D"/>
		<stop  offset="1" style="stop-color:#A67C52"/>
	</linearGradient>
	<path class="st4" d="M48.4,46.9h-2.8v3.8h-3.8v-3.8h0.9c0.5,0,0.9-0.4,0.9-0.9v-9.5c0-0.5-0.4-0.9-0.9-0.9h-2.8v3.8h-3.8v-3.8h-2.8
		c-0.5,0-0.9,0.4-0.9,0.9V46c0,0.5,0.4,0.9,0.9,0.9h0.9v3.8h-3.8v-3.8h-2.8c-0.5,0-0.9,0.4-0.9,0.9v9.5c0,0.5,0.4,0.9,0.9,0.9h9.5
		c0.5,0,0.9-0.4,0.9-0.9v-9.5c0-0.5-0.4-0.9-0.9-0.9H39c-0.5,0-0.9,0.4-0.9,0.9v9.5c0,0.5,0.4,0.9,0.9,0.9h9.5
		c0.5,0,0.9-0.4,0.9-0.9v-9.5C49.4,47.3,48.9,46.9,48.4,46.9z"/>
	<g>
		<path d="M21.5,36.6c0.2-0.2,0.3-0.4,0.3-0.7c0-0.2-0.1-0.5-0.3-0.7C21.3,35.1,21,35,20.8,35c-0.3,0-0.5,0.1-0.7,0.3
			c-0.2,0.2-0.3,0.4-0.3,0.7s0.1,0.5,0.3,0.7c0.2,0.2,0.4,0.3,0.7,0.3S21.3,36.8,21.5,36.6z"/>
		<path d="M61.7,23.8L53.1,19c-0.5-0.3-1-0.1-1.3,0.4c-0.3,0.5-0.1,1,0.4,1.3l8.1,4.5v32.2h-4.2V27.6c0-0.5-0.4-0.9-0.9-0.9H20.8
			c-0.5,0-0.9,0.4-0.9,0.9v4.5c0,0.5,0.4,0.9,0.9,0.9c0.5,0,0.9-0.4,0.9-0.9v-3.6h32.5v28.7h-4v-9.5c0-1-0.9-1.9-1.9-1.9h-3.8v-9.5
			c0-1-0.9-1.9-1.9-1.9h-9.5c-1,0-1.9,0.9-1.9,1.9V46h-3.8c-1,0-1.9,0.9-1.9,1.9v9.5h-4V39.7c0-0.5-0.4-0.9-0.9-0.9
			c-0.5,0-0.9,0.4-0.9,0.9v17.6h-4.2V25.2L38,12.8l7.5,4.2c0.5,0.3,1,0.1,1.3-0.4c0.3-0.5,0.1-1-0.4-1.3l-8-4.4
			c-0.3-0.2-0.6-0.2-0.9,0L14.3,23.8c-0.3,0.2-0.5,0.5-0.5,0.8v33.7c0,0.5,0.4,0.9,0.9,0.9h46.5c0.5,0,0.9-0.4,0.9-0.9V24.6
			C62.2,24.3,62,23.9,61.7,23.8z M44.6,47.9v1.9h-1.9v-1.9H44.6z M37.1,36.5h1.9v1.9h-1.9V36.5z M33.3,36.5h1.9v2.8
			c0,0.5,0.4,0.9,0.9,0.9h3.8c0.5,0,0.9-0.4,0.9-0.9v-2.8h1.9V46h-9.5V36.5z M31.4,47.9h1.9v1.9h-1.9V47.9z M37.1,57.3h-9.5v-9.5
			h1.9v2.8c0,0.5,0.4,0.9,0.9,0.9h3.8c0.5,0,0.9-0.4,0.9-0.9v-2.8h1.9V57.3z M48.4,57.3H39v-9.5h1.9v2.8c0,0.5,0.4,0.9,0.9,0.9h3.8
			c0.5,0,0.9-0.4,0.9-0.9v-2.8h1.9V57.3z"/>
		<path d="M49.3,18.9c0.2,0,0.5-0.1,0.7-0.3c0.2-0.2,0.3-0.4,0.3-0.7c0-0.2-0.1-0.5-0.3-0.7c-0.2-0.2-0.4-0.3-0.7-0.3
			c-0.2,0-0.5,0.1-0.7,0.3s-0.3,0.4-0.3,0.7c0,0.2,0.1,0.5,0.3,0.7C48.8,18.8,49.1,18.9,49.3,18.9z"/>
		<path d="M34,20.4c0,2.2,1.8,4,4,4s4-1.8,4-4s-1.8-4-4-4S34,18.2,34,20.4z M40.1,20.4c0,1.1-0.9,2.1-2.1,2.1s-2.1-0.9-2.1-2.1
			c0-1.1,0.9-2.1,2.1-2.1S40.1,19.3,40.1,20.4z"/>
	</g>
</g>
</svg>
