<?xml version="1.0" encoding="utf-8"?>
<!-- Generator: Adobe Illustrator 25.1.0, SVG Export Plug-In . SVG Version: 6.00 Build 0)  -->
<svg version="1.1" id="Capa_1" xmlns="http://www.w3.org/2000/svg" xmlns:xlink="http://www.w3.org/1999/xlink" x="0px" y="0px"
	 viewBox="0 0 76 76" style="enable-background:new 0 0 76 76;" xml:space="preserve">
<style type="text/css">
	.st0{fill:#DFE1DF;}
	.st1{fill:#F2F2F2;}
	.st2{fill-rule:evenodd;clip-rule:evenodd;fill:url(#SVGID_1_);}
	.st3{fill-rule:evenodd;clip-rule:evenodd;fill:#D30F4B;}
</style>
<g>
	<path class="st0" d="M38,75.1c20.5,0,37.1-16.6,37.1-37.1H0.9C0.9,58.5,17.5,75.1,38,75.1z"/>
	<path class="st1" d="M38,0.9C17.5,0.9,0.9,17.5,0.9,38h74.1C75.1,17.5,58.5,0.9,38,0.9z"/>
</g>
<g>
	<g>
		
			<linearGradient id="SVGID_1_" gradientUnits="userSpaceOnUse" x1="-46.8953" y1="25.3694" x2="-46.3315" y2="55.9081" gradientTransform="matrix(-1 0 0 -1 -5.9992 75.8898)">
			<stop  offset="0" style="stop-color:#C69C6D"/>
			<stop  offset="1" style="stop-color:#A67C52"/>
		</linearGradient>
		<path class="st2" d="M57.6,20.8v23.4c-0.9-0.5-2-0.8-3.2-0.8c-3.7,0-6.7,3-6.7,6.7c0,1.1,0.3,2.1,0.7,3H25.3
			c-0.9,0-1.6-0.7-1.6-1.6v-4.4c0.6,0.4,1.2,0.6,2,0.6h7.9h3.8c1,0,1.8-0.8,1.8-1.8s-0.8-1.8-1.8-1.8h2.5c1,0,1.8-0.8,1.8-1.8
			c0-1-0.8-1.8-1.8-1.8h2.9c1,0,1.8-0.8,1.8-1.8s-0.8-1.8-1.8-1.8h-2.9c1,0,1.8-0.8,1.8-1.8c0-1-0.8-1.8-1.8-1.8H29.4
			c1.3,0,2.4-0.8,2.8-1.9c0.5-1.2,0.1-2.2-1.3-2.2H28h-2.4c-0.7,0-1.4,0.2-1.9,0.5v-8.6c0-0.9,0.7-1.6,1.6-1.6h11.3v9.3l4-2.5l4,2.5
			v-9.3H56C56.8,19.2,57.6,19.9,57.6,20.8L57.6,20.8z"/>
	</g>
	<path class="st3" d="M57.6,44.2c-0.9-0.5-2-0.8-3.2-0.8l0,0c-3.7,0-6.7,3-6.7,6.7c0,1.1,0.3,2.1,0.7,3c1.1,2.2,3.4,3.7,6,3.7
		c3.7,0,6.7-3,6.7-6.7C61.1,47.6,59.7,45.3,57.6,44.2z M57.4,49l-3,3.5c-0.2,0.2-0.4,0.3-0.6,0.3c0,0-0.1,0-0.1,0
		c-0.2,0-0.4-0.1-0.6-0.2l-1.6-1.3c-0.4-0.3-0.4-0.9-0.1-1.3c0.3-0.4,0.9-0.4,1.3-0.1l0.8,0.7l2.3-2.8c0.3-0.4,0.9-0.5,1.3-0.1
		C57.7,48,57.7,48.6,57.4,49z"/>
	<path d="M15.9,33.1h1.4c1.1-0.1,2-1,3.1-2.1c0.7-0.7,1.5-1.5,2.4-2.1v-8c0-1.4,1.1-2.6,2.6-2.6H56c1.4,0,2.6,1.1,2.6,2.6v6.5
		c0,0.5-0.4,0.9-0.9,0.9c-0.5,0-0.9-0.4-0.9-0.9v-6.5c0-0.4-0.3-0.7-0.7-0.7H45.6v8.3c0,0.3-0.2,0.7-0.5,0.8
		c-0.1,0.1-0.3,0.1-0.5,0.1c-0.2,0-0.3,0-0.5-0.1l-3.5-2.2l-3.5,2.2c-0.3,0.2-0.7,0.2-0.9,0s-0.5-0.5-0.5-0.8v-8.3H25.3
		c-0.4,0-0.7,0.3-0.7,0.7v7.2c0.3-0.1,0.6-0.1,1-0.1c0,0,0,0,0,0H28h1.9h1.1c0,0,0,0,0,0c1.1,0,1.7,0.5,2,1c0.5,0.7,0.5,1.6,0.1,2.5
		c-0.1,0.2-0.2,0.4-0.3,0.6h7.1c1.5,0,2.8,1.2,2.8,2.8c0,0.3-0.1,0.6-0.2,0.9h0.3c1.5,0,2.8,1.2,2.8,2.8c0,1.5-1.2,2.8-2.8,2.8h-0.2
		c0.1,0.3,0.2,0.6,0.2,0.9c0,1.5-1.2,2.7-2.6,2.8c0.1,0.3,0.2,0.6,0.2,0.9c0,1.5-1.2,2.8-2.8,2.8H25.7c-0.4,0-0.8,0-1.1-0.1v2.9
		c0,0.4,0.3,0.7,0.7,0.7h21.8c-0.2-0.7-0.3-1.3-0.3-2.1c0-4.2,3.4-7.6,7.6-7.6c0.8,0,1.5,0.1,2.2,0.3v-7c0-0.5,0.4-0.9,0.9-0.9
		c0.5,0,0.9,0.4,0.9,0.9v7.9c2.1,1.4,3.5,3.7,3.5,6.4c0,4.2-3.4,7.6-7.6,7.6c-2.8,0-5.2-1.5-6.5-3.7H25.3c-1.4,0-2.6-1.2-2.6-2.6
		v-3.9c-0.2-0.2-0.4-0.3-0.6-0.5c-0.8-0.6-1.6-1.2-2.7-1.2h-3.5c-1.1,0-2-0.9-2-2v-8.9C13.9,34,14.8,33.1,15.9,33.1L15.9,33.1z
		 M37.6,26.8l2.5-1.6c0.3-0.2,0.7-0.2,1,0l2.5,1.6v-6.6h-6.1L37.6,26.8L37.6,26.8z M54.4,55.9c3.2,0,5.8-2.6,5.8-5.8
		s-2.6-5.8-5.8-5.8s-5.8,2.6-5.8,5.8C48.7,53.3,51.2,55.9,54.4,55.9z M15.8,44c0,0.1,0,0.1,0.1,0.1h3.5c1.8,0,2.9,0.8,3.8,1.6
		c0.8,0.6,1.4,1.1,2.4,1.1h11.6c0.5,0,0.9-0.4,0.9-0.9S37.9,45,37.4,45h-3.1c-0.5,0-0.9-0.4-0.9-0.9s0.4-0.9,0.9-0.9h5.6
		c0.5,0,0.9-0.4,0.9-0.9c0-0.5-0.4-0.9-0.9-0.9h-5.6c-0.5,0-0.9-0.4-0.9-0.9s0.4-0.9,0.9-0.9h8.5c0.5,0,0.9-0.4,0.9-0.9
		s-0.4-0.9-0.9-0.9h-8.5c-0.5,0-0.9-0.4-0.9-0.9c0-0.5,0.4-0.9,0.9-0.9h5.6c0.5,0,0.9-0.4,0.9-0.9S40.3,34,39.9,34H29.4h-2H26
		c-0.5,0-0.9-0.4-0.9-0.9c0-0.5,0.4-0.9,0.9-0.9h1.4h2c0.9,0,1.6-0.5,1.9-1.3c0.2-0.5,0.1-0.7,0.1-0.8c0-0.1-0.2-0.1-0.5-0.1H28
		h-2.4c-1.6,0-2.7,1.2-3.9,2.5c-1.2,1.3-2.5,2.6-4.4,2.7c0,0,0,0,0,0h-1.4c-0.1,0-0.1,0-0.1,0.1V44L15.8,44z"/>
	<path d="M57.6,32.5c-0.5,0-0.9-0.4-0.9-0.9s0.4-0.9,0.9-0.9c0.5,0,0.9,0.4,0.9,0.9v0C58.5,32.1,58.1,32.5,57.6,32.5z"/>
</g>
</svg>
