<?xml version="1.0" encoding="utf-8"?>
<!-- Generator: Adobe Illustrator 25.1.0, SVG Export Plug-In . SVG Version: 6.00 Build 0)  -->
<svg version="1.1" id="Layer_1" xmlns="http://www.w3.org/2000/svg" xmlns:xlink="http://www.w3.org/1999/xlink" x="0px" y="0px"
	 viewBox="0 0 76 76" style="enable-background:new 0 0 76 76;" xml:space="preserve">
<style type="text/css">
	.st0{fill:#AAAAAA;}
	.st1{fill:#595959;}
	.st2{fill:url(#SVGID_1_);}
</style>
<g>
	<rect x="12.8" y="27.2" class="st0" width="50.5" height="44.9"/>
	<path class="st1" d="M38.1,3.9L3.9,22.8v49.4h8.9v-45h50.5v44.9h8.9V22.8L38.1,3.9z M38.1,21.2c-2.5,0-4.4-2.1-4.4-4.4
		c0-2.5,2.1-4.4,4.4-4.4c2.3,0,4.4,2.1,4.4,4.4S40.5,21.2,38.1,21.2z"/>
	
		<linearGradient id="SVGID_1_" gradientUnits="userSpaceOnUse" x1="21.4119" y1="22.5076" x2="54.7098" y2="22.5076" gradientTransform="matrix(1 0 0 -1 0 78)">
		<stop  offset="0" style="stop-color:#C69C6D"/>
		<stop  offset="1" style="stop-color:#A67C52"/>
	</linearGradient>
	<path class="st2" d="M53.3,55.5h-4.1v5.6h-5.6v-5.6h1.3c0.7,0,1.3-0.6,1.3-1.3V40.2c0-0.7-0.6-1.3-1.3-1.3h-4.1v5.6h-5.6v-5.6h-4.1
		c-0.7,0-1.3,0.6-1.3,1.3v13.9c0,0.7,0.6,1.3,1.3,1.3h1.3v5.6h-5.6v-5.6h-4.1c-0.7,0-1.3,0.6-1.3,1.3v13.9c0,0.7,0.6,1.3,1.3,1.3
		h13.9c0.7,0,1.3-0.6,1.3-1.3V56.8c0-0.7-0.6-1.3-1.3-1.3h2.8c-0.7,0-1.3,0.6-1.3,1.3v13.9c0,0.7,0.6,1.3,1.3,1.3h13.9
		c0.7,0,1.3-0.6,1.3-1.3V56.8C54.8,56.1,54,55.5,53.3,55.5z"/>
	<g>
		<path d="M13.9,40.4c0.3-0.3,0.4-0.6,0.4-1c0-0.3-0.1-0.7-0.4-1c-0.3-0.1-0.7-0.3-1-0.3c-0.4,0-0.7,0.1-1,0.4
			c-0.3,0.3-0.4,0.6-0.4,1s0.1,0.7,0.4,1c0.3,0.3,0.6,0.4,1,0.4C13.3,41,13.6,40.7,13.9,40.4z"/>
		<path d="M72.8,21.6l-12.6-7c-0.7-0.4-1.5-0.1-1.9,0.6c-0.4,0.7-0.1,1.5,0.6,1.9l11.9,6.6v47.2h-6.2V27.2c0-0.7-0.6-1.3-1.3-1.3
			H12.8c-0.7,0-1.3,0.6-1.3,1.3v6.6c0,0.7,0.6,1.3,1.3,1.3c0.7,0,1.3-0.6,1.3-1.3v-5.3h47.7v42.1H56V56.7c0-1.5-1.3-2.8-2.8-2.8
			h-5.6V39.9c0-1.5-1.3-2.8-2.8-2.8H30.9c-1.5,0-2.8,1.3-2.8,2.8v14.2h-5.6c-1.5,0-2.8,1.3-2.8,2.8v13.9h-5.9v-26
			c0-0.7-0.6-1.3-1.3-1.3s-1.3,0.6-1.3,1.3v25.8H5V23.7l33-18.2l11,6.2c0.7,0.4,1.5,0.1,1.9-0.6c0.4-0.7,0.1-1.5-0.6-1.9L38.6,2.7
			c-0.4-0.3-0.9-0.3-1.3,0l-34,18.9c-0.4,0.3-0.7,0.7-0.7,1.2v49.4c0,0.7,0.6,1.3,1.3,1.3h68.2c0.7,0,1.3-0.6,1.3-1.3V22.8
			C73.6,22.3,73.3,21.8,72.8,21.6z M47.7,57v2.8h-2.8V57H47.7z M36.7,40.2h2.8V43h-2.8V40.2z M31.2,40.2h2.8v4.1
			c0,0.7,0.6,1.3,1.3,1.3h5.6c0.7,0,1.3-0.6,1.3-1.3v-4.1h2.8v13.9H31V40.2H31.2z M28.4,57h2.8v2.8h-2.8V57z M36.7,70.7H22.8V56.8
			h2.8v4.1c0,0.7,0.6,1.3,1.3,1.3h5.6c0.7,0,1.3-0.6,1.3-1.3v-4.1h2.8v13.9H36.7z M53.3,70.7H39.5V56.8h2.8v4.1
			c0,0.7,0.6,1.3,1.3,1.3h5.6c0.7,0,1.3-0.6,1.3-1.3v-4.1h2.8C53.3,56.8,53.3,70.7,53.3,70.7z"/>
		<path d="M54.6,14.4c0.3,0,0.7-0.1,1-0.4c0.3-0.3,0.4-0.6,0.4-1c0-0.3-0.1-0.7-0.4-1c-0.3-0.3-0.6-0.4-1-0.4c-0.3,0-0.7,0.1-1,0.4
			s-0.4,0.6-0.4,1c0,0.3,0.1,0.7,0.4,1C53.9,14.3,54.3,14.4,54.6,14.4z"/>
		<path d="M32.2,16.6c0,3.2,2.6,5.9,5.9,5.9s5.9-2.6,5.9-5.9s-2.6-5.9-5.9-5.9S32.2,13.4,32.2,16.6z M41.1,16.6
			c0,1.6-1.3,3.1-3.1,3.1S35,18.4,35,16.6c0-1.6,1.3-3.1,3.1-3.1S41.1,15,41.1,16.6z"/>
	</g>
</g>
</svg>
