<?xml version="1.0" encoding="utf-8"?>
<!-- Generator: Adobe Illustrator 25.1.0, SVG Export Plug-In . SVG Version: 6.00 Build 0)  -->
<svg version="1.1" id="Capa_1" xmlns="http://www.w3.org/2000/svg" xmlns:xlink="http://www.w3.org/1999/xlink" x="0px" y="0px"
	 viewBox="0 0 76 76" style="enable-background:new 0 0 76 76;" xml:space="preserve">
<style type="text/css">
	.st0{fill:#DFE1DF;}
	.st1{fill:#F2F2F2;}
	.st2{fill:#6B6B6B;}
	.st3{fill:#BCBCBC;}
	.st4{fill:url(#SVGID_1_);}
</style>
<g>
	<path class="st0" d="M38,75.1c20.5,0,37.1-16.6,37.1-37.1H0.9C0.9,58.5,17.5,75.1,38,75.1z"/>
	<path class="st1" d="M38,0.9C17.5,0.9,0.9,17.5,0.9,38h74.1C75.1,17.5,58.5,0.9,38,0.9z"/>
</g>
<g>
	<path class="st2" d="M62.1,51.3v-4v-5.6h-3.2h-6.4c-1.8,0-3.2-1.4-3.2-3.2v-7.2h-4v9.7H34h-9.7h-9.7h-1.6v10.5h1.6v3.2l5.6,0
		c0,2.7,2.2,4.8,4.8,4.8c2.7,0,4.8-2.2,4.8-4.8h16.9c0,2.7,2.2,4.8,4.8,4.8c2.7,0,4.8-2.2,4.8-4.8h2.4h4v-3.2H62.1z M25.1,56.1
		c-0.9,0-1.6-0.7-1.6-1.6c0-0.9,0.7-1.6,1.6-1.6c0.9,0,1.6,0.7,1.6,1.6C26.7,55.4,26,56.1,25.1,56.1z M51.7,56.1
		c-0.9,0-1.6-0.7-1.6-1.6c0-0.9,0.7-1.6,1.6-1.6c0.9,0,1.6,0.7,1.6,1.6C53.3,55.4,52.6,56.1,51.7,56.1z"/>
	<path class="st3" d="M57.3,31.2h-3.2h-4.8v7.2c0,1.8,1.4,3.2,3.2,3.2h6.4h3.2L57.3,31.2z"/>
	<linearGradient id="SVGID_1_" gradientUnits="userSpaceOnUse" x1="14.6648" y1="28.7464" x2="45.242" y2="28.7464">
		<stop  offset="0" style="stop-color:#C69C6D"/>
		<stop  offset="1" style="stop-color:#A67C52"/>
	</linearGradient>
	<polygon class="st4" points="41.2,16.7 41.2,20.7 38,20.7 38,16.7 34,16.7 34,23.1 29.1,23.1 24.3,23.1 24.3,28.7 21.1,28.7 
		21.1,31.2 17.9,31.2 17.9,28.7 14.7,28.7 14.7,40.8 24.3,40.8 34,40.8 45.2,40.8 45.2,31.2 45.2,16.7 	"/>
	<g>
		<path d="M62.9,50.5v-8.9c0-0.2,0-0.3-0.1-0.4l-4.7-10.3c-0.1-0.3-0.4-0.6-0.8-0.6H46V16.7c0-0.4-0.4-0.8-0.8-0.8H34
			c-0.4,0-0.8,0.4-0.8,0.8v5.6h-8.9c-0.4,0-0.8,0.4-0.8,0.8v4.8h-8.9c-0.4,0-0.8,0.4-0.8,0.8V40h-0.8c-0.4,0-0.8,0.4-0.8,0.8v10.5
			c0,0.4,0.4,0.8,0.8,0.8h0.8v2.5c0,0.4,0.4,0.8,0.8,0.8c0.1,0,0.1,0,0.2,0l4.7,0c0.4,2.7,2.7,4.8,5.6,4.8c2.8,0,5.2-2.1,5.6-4.8
			h15.4c0.4,2.7,2.7,4.8,5.6,4.8c2.8,0,5.2-2.1,5.6-4.8h5.7c0.4,0,0.8-0.4,0.8-0.8v-3.2C63.7,50.8,63.4,50.5,62.9,50.5z M52.5,40.8
			c-1.3,0-2.4-1.1-2.4-2.4V32h6.7l4.1,8.9H52.5z M25.1,40v-6.4h1.6v1.6c0,0.4,0.4,0.8,0.8,0.8c0.4,0,0.8-0.4,0.8-0.8v-1.6h4.8V40
			H25.1z M34.8,17.5h2.4v3.2c0,0.4,0.4,0.8,0.8,0.8h3.2c0.4,0,0.8-0.4,0.8-0.8v-3.2h2.4v13.7V40h-9.7V17.5z M40.4,19.9h-1.6v-2.4
			h1.6V19.9z M33.2,32h-8v-8h1.6v0.8c0,0.4,0.4,0.8,0.8,0.8c0.4,0,0.8-0.4,0.8-0.8v-0.8h4.8V32z M20.3,30.4h-1.6v-0.8h1.6V30.4z
			 M15.5,29.6h1.6v1.6c0,0.4,0.4,0.8,0.8,0.8h3.2c0.4,0,0.8-0.4,0.8-0.8v-1.6h1.6V40h-8V29.6z M17.1,52.1c0.4,0,0.8-0.4,0.8-0.8
			c0-0.4-0.4-0.8-0.8-0.8h-3.2v-8.9h30.6v3.2c0,0.4,0.4,0.8,0.8,0.8c0.4,0,0.8-0.4,0.8-0.8v-4V32h2.4v6.4c0,2.2,1.8,4,4,4h8.9v4
			c-0.4,0-0.8,0.4-0.8,0.8c0,0.4,0.4,0.8,0.8,0.8v2.4h-0.8c-0.4,0-0.8,0.4-0.8,0.8c0,0.4,0.4,0.8,0.8,0.8h1.6v1.6h-4.9
			c-0.4-2.7-2.7-4.8-5.6-4.8c-2.8,0-5.2,2.1-5.6,4.8H30.7c-0.4-2.7-2.7-4.8-5.6-4.8c-2.8,0-5.2,2.1-5.6,4.8l-4.1,0v-1.6H17.1z
			 M25.1,58.5c-2.2,0-4-1.8-4-4c0-2.2,1.8-4,4-4c2.2,0,4,1.8,4,4C29.1,56.7,27.3,58.5,25.1,58.5z M51.7,58.5c-2.2,0-3.9-1.7-4-3.9
			c0-0.1,0-0.1,0-0.2s0-0.1,0-0.2c0.1-2.1,1.8-3.9,4-3.9c2.2,0,4,1.8,4,4C55.7,56.7,53.9,58.5,51.7,58.5z"/>
		<path d="M25.1,52.1c-1.3,0-2.4,1.1-2.4,2.4s1.1,2.4,2.4,2.4c1.3,0,2.4-1.1,2.4-2.4S26.5,52.1,25.1,52.1z M25.1,55.3
			c-0.4,0-0.8-0.4-0.8-0.8c0-0.4,0.4-0.8,0.8-0.8c0.4,0,0.8,0.4,0.8,0.8C25.9,54.9,25.6,55.3,25.1,55.3z"/>
		<path d="M51.7,52.1c-1.3,0-2.4,1.1-2.4,2.4s1.1,2.4,2.4,2.4c1.3,0,2.4-1.1,2.4-2.4S53,52.1,51.7,52.1z M51.7,55.3
			c-0.4,0-0.8-0.4-0.8-0.8c0-0.4,0.4-0.8,0.8-0.8c0.4,0,0.8,0.4,0.8,0.8C52.5,54.9,52.1,55.3,51.7,55.3z"/>
	</g>
</g>
</svg>
