<?xml version="1.0" encoding="utf-8"?>
<!-- Generator: Adobe Illustrator 15.1.0, SVG Export Plug-In . SVG Version: 6.00 Build 0)  -->
<!DOCTYPE svg PUBLIC "-//W3C//DTD SVG 1.1//EN" "http://www.w3.org/Graphics/SVG/1.1/DTD/svg11.dtd">
<svg version="1.1" xmlns="http://www.w3.org/2000/svg" xmlns:xlink="http://www.w3.org/1999/xlink" x="0px" y="0px" width="20px"
	 height="20px" viewBox="0 0 20 20" enable-background="new 0 0 20 20" xml:space="preserve">
<g id="Layer_1" display="none">
	<path display="inline" fill="#9E2E2E" d="M18.5,4H17V1.5C17,0.673,16.327,0,15.5,0h-11C3.673,0,3,0.673,3,1.5V4H1.5
		C0.673,4,0,4.673,0,5.5v9C0,15.327,0.673,16,1.5,16H3v2.5C3,19.327,3.673,20,4.5,20h11c0.827,0,1.5-0.673,1.5-1.5V16h1.5
		c0.827,0,1.5-0.673,1.5-1.5v-9C20,4.673,19.327,4,18.5,4z M4,1.5C4,1.224,4.224,1,4.5,1h11C15.775,1,16,1.224,16,1.5V4H4V1.5z
		 M15.5,19h-11C4.224,19,4,18.775,4,18.5V12h12v6.5C16,18.775,15.775,19,15.5,19z M19,14.5c0,0.275-0.225,0.5-0.5,0.5H17v-3h0.5
		c0.275,0,0.5-0.225,0.5-0.5S17.775,11,17.5,11h-15C2.224,11,2,11.225,2,11.5S2.224,12,2.5,12H3v3H1.5C1.224,15,1,14.775,1,14.5v-9
		C1,5.224,1.224,5,1.5,5h17C18.775,5,19,5.224,19,5.5V14.5z"/>
	<path display="inline" fill="#9E2E2E" d="M14.5,14h-9C5.224,14,5,13.775,5,13.5S5.224,13,5.5,13h9c0.275,0,0.5,0.225,0.5,0.5
		S14.775,14,14.5,14z"/>
	<path display="inline" fill="#9E2E2E" d="M14.5,16h-9C5.224,16,5,15.775,5,15.5S5.224,15,5.5,15h9c0.275,0,0.5,0.225,0.5,0.5
		S14.775,16,14.5,16z"/>
	<path display="inline" fill="#9E2E2E" d="M14.5,18h-9C5.224,18,5,17.775,5,17.5S5.224,17,5.5,17h9c0.275,0,0.5,0.225,0.5,0.5
		S14.775,18,14.5,18z"/>
	<path display="inline" fill="#9E2E2E" d="M16.5,9C15.673,9,15,8.327,15,7.5S15.673,6,16.5,6S18,6.673,18,7.5S17.327,9,16.5,9z
		 M16.5,7C16.225,7,16,7.224,16,7.5S16.225,8,16.5,8S17,7.776,17,7.5S16.775,7,16.5,7z"/>
</g>
<g id="Layer_2">
	<g>
		<g>
			<path fill="#FFFFFF" d="M18.157,0.362H2.889c-0.384,0-0.694,0.311-0.694,0.694v13.8c0,0.383,0.311,0.693,0.694,0.693h3.409
				l-1.984,3.012c-0.211,0.32-0.123,0.751,0.197,0.961c0.118,0.078,0.25,0.115,0.381,0.115c0.226,0,0.447-0.109,0.58-0.312
				l2.488-3.776h5.123l2.489,3.776c0.133,0.202,0.354,0.312,0.58,0.312c0.131,0,0.264-0.037,0.381-0.115
				c0.32-0.21,0.409-0.641,0.198-0.961l-1.985-3.012h3.41c0.384,0,0.693-0.311,0.693-0.693v-13.8
				C18.851,0.673,18.541,0.362,18.157,0.362z M17.463,14.162H3.583V1.75h13.88V14.162z"/>
			<path fill="#FFFFFF" d="M5.589,11.895c0.08,0.054,0.17,0.081,0.261,0.081c0.148,0,0.293-0.071,0.382-0.202l2.271-3.325
				l2.104,2.182c0.093,0.097,0.226,0.147,0.36,0.141c0.134-0.008,0.259-0.074,0.341-0.182l4.164-5.459
				c0.155-0.204,0.115-0.494-0.088-0.649c-0.203-0.155-0.493-0.116-0.648,0.087L10.898,9.6L8.774,7.397
				c-0.097-0.1-0.234-0.151-0.372-0.14c-0.139,0.012-0.265,0.085-0.343,0.2l-2.591,3.793C5.324,11.463,5.378,11.75,5.589,11.895z"/>
		</g>
		<g>
		</g>
		<g>
		</g>
		<g>
		</g>
		<g>
		</g>
		<g>
		</g>
		<g>
		</g>
		<g>
		</g>
		<g>
		</g>
		<g>
		</g>
		<g>
		</g>
		<g>
		</g>
		<g>
		</g>
		<g>
		</g>
		<g>
		</g>
		<g>
		</g>
	</g>
</g>
<g id="Layer_3" display="none">
</g>
<g id="Layer_4" display="none">
</g>
<g id="Layer_5" display="none">
</g>
</svg>
