<?xml version="1.0" encoding="utf-8"?>
<!-- Generator: Adobe Illustrator 15.1.0, SVG Export Plug-In . SVG Version: 6.00 Build 0)  -->
<!DOCTYPE svg PUBLIC "-//W3C//DTD SVG 1.1//EN" "http://www.w3.org/Graphics/SVG/1.1/DTD/svg11.dtd">
<svg version="1.1" xmlns="http://www.w3.org/2000/svg" xmlns:xlink="http://www.w3.org/1999/xlink" x="0px" y="0px" width="20px"
	 height="20px" viewBox="0 0 20 20" enable-background="new 0 0 20 20" xml:space="preserve">
<g id="Layer_1" display="none">
	<path display="inline" fill="#9E2E2E" d="M18.5,4H17V1.5C17,0.673,16.327,0,15.5,0h-11C3.673,0,3,0.673,3,1.5V4H1.5
		C0.673,4,0,4.673,0,5.5v9C0,15.327,0.673,16,1.5,16H3v2.5C3,19.327,3.673,20,4.5,20h11c0.827,0,1.5-0.673,1.5-1.5V16h1.5
		c0.827,0,1.5-0.673,1.5-1.5v-9C20,4.673,19.327,4,18.5,4z M4,1.5C4,1.224,4.224,1,4.5,1h11C15.775,1,16,1.224,16,1.5V4H4V1.5z
		 M15.5,19h-11C4.224,19,4,18.775,4,18.5V12h12v6.5C16,18.775,15.775,19,15.5,19z M19,14.5c0,0.275-0.225,0.5-0.5,0.5H17v-3h0.5
		c0.275,0,0.5-0.225,0.5-0.5S17.775,11,17.5,11h-15C2.224,11,2,11.225,2,11.5S2.224,12,2.5,12H3v3H1.5C1.224,15,1,14.775,1,14.5v-9
		C1,5.224,1.224,5,1.5,5h17C18.775,5,19,5.224,19,5.5V14.5z"/>
	<path display="inline" fill="#9E2E2E" d="M14.5,14h-9C5.224,14,5,13.775,5,13.5S5.224,13,5.5,13h9c0.275,0,0.5,0.225,0.5,0.5
		S14.775,14,14.5,14z"/>
	<path display="inline" fill="#9E2E2E" d="M14.5,16h-9C5.224,16,5,15.775,5,15.5S5.224,15,5.5,15h9c0.275,0,0.5,0.225,0.5,0.5
		S14.775,16,14.5,16z"/>
	<path display="inline" fill="#9E2E2E" d="M14.5,18h-9C5.224,18,5,17.775,5,17.5S5.224,17,5.5,17h9c0.275,0,0.5,0.225,0.5,0.5
		S14.775,18,14.5,18z"/>
	<path display="inline" fill="#9E2E2E" d="M16.5,9C15.673,9,15,8.327,15,7.5S15.673,6,16.5,6S18,6.673,18,7.5S17.327,9,16.5,9z
		 M16.5,7C16.225,7,16,7.224,16,7.5S16.225,8,16.5,8S17,7.776,17,7.5S16.775,7,16.5,7z"/>
</g>
<g id="Layer_2" display="none">
	<g display="inline">
		<g>
			<path fill="#FFFFFF" d="M18.157,0.362H2.889c-0.384,0-0.694,0.311-0.694,0.694v13.8c0,0.383,0.311,0.693,0.694,0.693h3.409
				l-1.984,3.012c-0.211,0.32-0.123,0.751,0.197,0.961c0.118,0.078,0.25,0.115,0.381,0.115c0.226,0,0.447-0.109,0.58-0.312
				l2.488-3.776h5.123l2.489,3.776c0.133,0.202,0.354,0.312,0.58,0.312c0.131,0,0.264-0.037,0.381-0.115
				c0.32-0.21,0.409-0.641,0.198-0.961l-1.985-3.012h3.41c0.384,0,0.693-0.311,0.693-0.693v-13.8
				C18.851,0.673,18.541,0.362,18.157,0.362z M17.463,14.162H3.583V1.75h13.88V14.162z"/>
			<path fill="#FFFFFF" d="M5.589,11.895c0.08,0.054,0.17,0.081,0.261,0.081c0.148,0,0.293-0.071,0.382-0.202l2.271-3.325
				l2.104,2.182c0.093,0.097,0.226,0.147,0.36,0.141c0.134-0.008,0.259-0.074,0.341-0.182l4.164-5.459
				c0.155-0.204,0.115-0.494-0.088-0.649c-0.203-0.155-0.493-0.116-0.648,0.087L10.898,9.6L8.774,7.397
				c-0.097-0.1-0.234-0.151-0.372-0.14c-0.139,0.012-0.265,0.085-0.343,0.2l-2.591,3.793C5.324,11.463,5.378,11.75,5.589,11.895z"/>
		</g>
		<g>
		</g>
		<g>
		</g>
		<g>
		</g>
		<g>
		</g>
		<g>
		</g>
		<g>
		</g>
		<g>
		</g>
		<g>
		</g>
		<g>
		</g>
		<g>
		</g>
		<g>
		</g>
		<g>
		</g>
		<g>
		</g>
		<g>
		</g>
		<g>
		</g>
	</g>
</g>
<g id="Layer_3">
	<g>
		<g>
			<path fill="#FFFFFF" d="M4.614,10.637H2.081c-0.334,0-0.606,0.272-0.606,0.606v6.348c0,0.335,0.272,0.606,0.606,0.606h2.533
				c0.335,0,0.606-0.271,0.606-0.606v-6.348C5.22,10.909,4.949,10.637,4.614,10.637z M4.007,16.984h-1.32V11.85h1.32V16.984z"/>
			<path fill="#FFFFFF" d="M9.383,7.278H6.85c-0.334,0-0.607,0.271-0.607,0.606v9.707c0,0.335,0.273,0.606,0.607,0.606h2.534
				c0.335,0,0.606-0.271,0.606-0.606V7.884C9.99,7.549,9.718,7.278,9.383,7.278z M8.776,16.984h-1.32V8.491h1.32V16.984
				L8.776,16.984z"/>
			<path fill="#FFFFFF" d="M14.153,11.138h-2.535c-0.335,0-0.605,0.271-0.605,0.606v5.847c0,0.335,0.271,0.606,0.605,0.606h2.535
				c0.335,0,0.605-0.271,0.605-0.606v-5.847C14.759,11.409,14.488,11.138,14.153,11.138z M13.546,16.984h-1.319v-4.633h1.319V16.984
				z"/>
			<path fill="#FFFFFF" d="M18.922,7.502h-2.533c-0.335,0-0.607,0.271-0.607,0.606v9.482c0,0.335,0.272,0.606,0.607,0.606h2.533
				c0.335,0,0.607-0.271,0.607-0.606V8.108C19.529,7.773,19.257,7.502,18.922,7.502z M18.316,16.984h-1.322V8.715h1.322V16.984
				L18.316,16.984z"/>
			<path fill="#FFFFFF" d="M12.53,8.6c0.22,0.159,0.521,0.153,0.733-0.017l4.534-3.618l-0.02,0.596
				c-0.012,0.335,0.251,0.615,0.586,0.627c0.008,0,0.013,0,0.02,0c0.325,0,0.596-0.258,0.607-0.586l0.07-2.12
				c0.007-0.169-0.058-0.332-0.176-0.45c-0.121-0.12-0.282-0.184-0.451-0.177l-2.12,0.071c-0.335,0.011-0.596,0.292-0.586,0.627
				c0.012,0.334,0.292,0.596,0.627,0.584l0.557-0.018l-4.044,3.226L8.271,4.003C8.07,3.857,7.8,3.849,7.59,3.983L0.753,8.326
				C0.47,8.504,0.386,8.879,0.566,9.163c0.116,0.182,0.312,0.281,0.513,0.281c0.111,0,0.224-0.03,0.324-0.095l6.489-4.121L12.53,8.6
				z"/>
		</g>
		<g>
		</g>
		<g>
		</g>
		<g>
		</g>
		<g>
		</g>
		<g>
		</g>
		<g>
		</g>
		<g>
		</g>
		<g>
		</g>
		<g>
		</g>
		<g>
		</g>
		<g>
		</g>
		<g>
		</g>
		<g>
		</g>
		<g>
		</g>
		<g>
		</g>
	</g>
</g>
<g id="Layer_4" display="none">
	<g display="inline">
		<g>
			<path fill="#FFFFFF" d="M15.5-237.5c-141.392,0-256,114.582-256,256c0,141.393,114.608,255.948,256,255.948
				c141.443,0,256-114.608,256-255.948C271.5-122.892,156.943-237.5,15.5-237.5z M15.5,246.553
				c-125.906,0-228.001-102.043-228.001-228.001c0-125.983,102.095-228.001,228.001-228.001
				c125.957,0,228.027,102.043,228.027,228.001C243.475,144.432,141.432,246.553,15.5,246.553z M-61.181,129.23h41.676v69.08
				h-41.676V129.23z M2.004,129.23H43.68v69.08H2.004V129.23z M64.104,129.23h41.676v69.08H64.104V129.23z M49.523,34.09
				c0,11.764-9.592,21.354-21.33,21.354c-11.323,0-20.63-8.842-21.303-20.011l-75.259-93.692L28.22,12.786
				C39.932,12.786,49.523,22.326,49.523,34.09z M-105.804,69.611l18.485,18.512l-34.695,34.721l-18.511-18.537L-105.804,69.611z
				 M-121.911,5.03h-49.07v-26.164h49.07V5.03z M-111.362-137.499l34.695,34.721l-18.511,18.485l-34.695-34.721L-111.362-137.499z
				 M28.582-125.529H2.418v-49.069h26.164V-125.529z M134.969-74.391l-18.537-18.485l34.746-34.721l18.486,18.511L134.969-74.391z
				 M209.529-21.133V5.03h-49.043v-26.164H209.529z M143.914,74.86l34.746,34.695l-18.484,18.485l-34.748-34.695L143.914,74.86z"/>
		</g>
		<g>
		</g>
		<g>
		</g>
		<g>
		</g>
		<g>
		</g>
		<g>
		</g>
		<g>
		</g>
		<g>
		</g>
		<g>
		</g>
		<g>
		</g>
		<g>
		</g>
		<g>
		</g>
		<g>
		</g>
		<g>
		</g>
		<g>
		</g>
		<g>
		</g>
	</g>
</g>
<g id="Layer_5" display="none">
	<g display="inline">
		<g>
			<g id="New_x5F_Post">
				<g>
					<path fill="#FFFFFF" d="M215.5,2.5c-13.264,0-24,10.752-24,24v200h-384.001v-384h200c13.263,0,24-10.752,24-24
						s-10.735-24-23.999-24h-216c-17.664,0-32,14.32-32,32v416c0,17.68,14.336,32,32,32h416c17.664,0,32-14.32,32-32v-216
						C239.5,13.252,228.764,2.5,215.5,2.5z M265.916-163.084l-68.848-68.848c-3.744-3.744-8.656-5.567-13.568-5.567
						s-9.824,1.824-13.568,5.584L-96.501,34.5v96h96l266.415-266.416c3.76-3.761,5.586-8.672,5.586-13.584
						C271.5-154.428,269.676-159.324,265.916-163.084z M-16.5,82.5h-32v-32l232-232l32,32L-16.5,82.5z"/>
				</g>
			</g>
		</g>
		<g>
		</g>
		<g>
		</g>
		<g>
		</g>
		<g>
		</g>
		<g>
		</g>
		<g>
		</g>
		<g>
		</g>
		<g>
		</g>
		<g>
		</g>
		<g>
		</g>
		<g>
		</g>
		<g>
		</g>
		<g>
		</g>
		<g>
		</g>
		<g>
		</g>
	</g>
</g>
</svg>
