<?xml version="1.0" encoding="utf-8"?>
<!-- Generator: Adobe Illustrator 15.1.0, SVG Export Plug-In . SVG Version: 6.00 Build 0)  -->
<!DOCTYPE svg PUBLIC "-//W3C//DTD SVG 1.1//EN" "http://www.w3.org/Graphics/SVG/1.1/DTD/svg11.dtd">
<svg version="1.1" id="Layer_1" xmlns="http://www.w3.org/2000/svg" xmlns:xlink="http://www.w3.org/1999/xlink" x="0px" y="0px"
	 width="20px" height="20px" viewBox="0 0 20 20" enable-background="new 0 0 20 20" xml:space="preserve">
<path fill="#FFFFFF" d="M17.5,20h-16C0.673,20,0,19.327,0,18.5v-16C0,1.673,0.673,1,1.5,1h16C18.327,1,19,1.673,19,2.5v16
	C19,19.327,18.327,20,17.5,20z M1.5,2C1.224,2,1,2.224,1,2.5v16C1,18.775,1.224,19,1.5,19h16c0.275,0,0.5-0.225,0.5-0.5v-16
	C18,2.224,17.775,2,17.5,2H1.5z"/>
<path fill="#FFFFFF" d="M6.5,17h-2C4.224,17,4,16.775,4,16.5v-9C4,7.224,4.224,7,4.5,7h2C6.776,7,7,7.224,7,7.5v9
	C7,16.775,6.776,17,6.5,17z M5,16h1V8H5V16z"/>
<path fill="#FFFFFF" d="M10.5,17h-2C8.224,17,8,16.775,8,16.5v-12C8,4.224,8.224,4,8.5,4h2C10.775,4,11,4.224,11,4.5v12
	C11,16.775,10.775,17,10.5,17z M9,16h1V5H9V16z"/>
<path fill="#FFFFFF" d="M14.5,17h-2c-0.275,0-0.5-0.225-0.5-0.5v-5c0-0.275,0.225-0.5,0.5-0.5h2c0.275,0,0.5,0.225,0.5,0.5v5
	C15,16.775,14.775,17,14.5,17z M13,16h1v-4h-1V16z"/>
</svg>
