<?xml version="1.0" encoding="utf-8"?>
<!-- Generator: Adobe Illustrator 15.1.0, SVG Export Plug-In . SVG Version: 6.00 Build 0)  -->
<!DOCTYPE svg PUBLIC "-//W3C//DTD SVG 1.1//EN" "http://www.w3.org/Graphics/SVG/1.1/DTD/svg11.dtd">
<svg version="1.1" id="Layer_1" xmlns="http://www.w3.org/2000/svg" xmlns:xlink="http://www.w3.org/1999/xlink" x="0px" y="0px"
	 width="20px" height="20px" viewBox="0 0 20 20" enable-background="new 0 0 20 20" xml:space="preserve">
<path fill="#FFFFFF" d="M19.5,16h-15C4.224,16,4,15.775,4,15.5S4.224,15,4.5,15h15c0.275,0,0.5,0.225,0.5,0.5S19.775,16,19.5,16z"/>
<path fill="#FFFFFF" d="M19.5,11h-15C4.224,11,4,10.775,4,10.5C4,10.224,4.224,10,4.5,10h15c0.275,0,0.5,0.224,0.5,0.5
	C20,10.775,19.775,11,19.5,11z"/>
<path fill="#FFFFFF" d="M19.5,6h-15C4.224,6,4,5.776,4,5.5S4.224,5,4.5,5h15C19.775,5,20,5.224,20,5.5S19.775,6,19.5,6z"/>
<path fill="#FFFFFF" d="M1.5,7C0.673,7,0,6.327,0,5.5S0.673,4,1.5,4S3,4.673,3,5.5S2.327,7,1.5,7z M1.5,5C1.224,5,1,5.224,1,5.5
	S1.224,6,1.5,6S2,5.776,2,5.5S1.776,5,1.5,5z"/>
<path fill="#FFFFFF" d="M1.5,12C0.673,12,0,11.327,0,10.5S0.673,9,1.5,9S3,9.673,3,10.5S2.327,12,1.5,12z M1.5,10
	C1.224,10,1,10.224,1,10.5C1,10.775,1.224,11,1.5,11S2,10.775,2,10.5C2,10.224,1.776,10,1.5,10z"/>
<path fill="#FFFFFF" d="M1.5,17C0.673,17,0,16.327,0,15.5S0.673,14,1.5,14S3,14.673,3,15.5S2.327,17,1.5,17z M1.5,15
	C1.224,15,1,15.225,1,15.5S1.224,16,1.5,16S2,15.775,2,15.5S1.776,15,1.5,15z"/>
</svg>
