<?xml version="1.0" encoding="utf-8"?>
<!-- Generator: Adobe Illustrator 15.1.0, SVG Export Plug-In . SVG Version: 6.00 Build 0)  -->
<!DOCTYPE svg PUBLIC "-//W3C//DTD SVG 1.1//EN" "http://www.w3.org/Graphics/SVG/1.1/DTD/svg11.dtd">
<svg version="1.1" id="Layer_1" xmlns="http://www.w3.org/2000/svg" xmlns:xlink="http://www.w3.org/1999/xlink" x="0px" y="0px"
	 width="30px" height="30px" viewBox="0 0 30 30" enable-background="new 0 0 30 30" xml:space="preserve">
<circle fill="#086E93" cx="15.699" cy="15" r="13.287"/>
<path fill="#FFFFFF" d="M22.91,19.902L22.91,19.902c-0.182,0-0.362-0.072-0.542-0.215l-2.571-2.057
	c-0.413-0.331-0.726-0.98-0.726-1.509v-2.244c0-0.529,0.312-1.177,0.726-1.507l2.571-2.058c0.18-0.143,0.36-0.215,0.542-0.215
	c0.323,0,0.649,0.244,0.649,0.788v8.229c0,0.207-0.048,0.383-0.142,0.518C23.3,19.805,23.114,19.9,22.91,19.9V19.902z
	 M22.812,10.917l-2.549,2.039c-0.231,0.185-0.442,0.625-0.442,0.922v2.244c0,0.298,0.211,0.737,0.442,0.922l2.549,2.039V10.917
	L22.812,10.917z"/>
<path fill="#FFFFFF" d="M17.379,19.959H9.75c-0.631,0-1.145-0.513-1.145-1.146v-7.627c0-0.631,0.513-1.145,1.145-1.145h7.628
	c0.632,0,1.145,0.513,1.145,1.145v7.627C18.523,19.446,18.011,19.959,17.379,19.959z M9.75,10.805c-0.21,0-0.382,0.17-0.382,0.381
	v7.627c0,0.212,0.171,0.383,0.382,0.383h7.628c0.211,0,0.382-0.171,0.382-0.383v-7.627c0-0.211-0.171-0.381-0.382-0.381H9.75z"/>
</svg>
