<?xml version="1.0" encoding="utf-8"?>
<!-- Generator: Adobe Illustrator 15.1.0, SVG Export Plug-In . SVG Version: 6.00 Build 0)  -->
<!DOCTYPE svg PUBLIC "-//W3C//DTD SVG 1.1//EN" "http://www.w3.org/Graphics/SVG/1.1/DTD/svg11.dtd">
<svg version="1.1" id="Layer_1" xmlns="http://www.w3.org/2000/svg" xmlns:xlink="http://www.w3.org/1999/xlink" x="0px" y="0px"
	 width="20px" height="20px" viewBox="0 0 20 20" enable-background="new 0 0 20 20" xml:space="preserve">
<path fill="#FFFFFF" d="M17.505,15.886L17.505,15.886c-0.199,0-0.398-0.079-0.595-0.236l-2.826-2.262
	c-0.453-0.362-0.796-1.074-0.796-1.656V9.266c0-0.581,0.342-1.293,0.796-1.656l2.826-2.261c0.196-0.157,0.396-0.237,0.595-0.237
	c0.356,0,0.715,0.268,0.715,0.866v9.041c0,0.229-0.054,0.421-0.156,0.57c-0.13,0.188-0.334,0.295-0.559,0.295V15.886z M17.397,6.012
	l-2.801,2.24c-0.254,0.204-0.487,0.688-0.487,1.014v2.465c0,0.327,0.233,0.811,0.487,1.015l2.801,2.24V6.012L17.397,6.012z"/>
<path fill="#FFFFFF" d="M11.233,15.843h-8.22c-0.68,0-1.233-0.554-1.233-1.233V6.39c0-0.68,0.553-1.233,1.233-1.233h8.22
	c0.68,0,1.232,0.553,1.232,1.233v8.219C12.466,15.289,11.913,15.843,11.233,15.843z M3.014,5.979c-0.227,0-0.411,0.184-0.411,0.411
	v8.219c0,0.227,0.184,0.411,0.411,0.411h8.22c0.226,0,0.41-0.185,0.41-0.411V6.39c0-0.227-0.185-0.411-0.41-0.411H3.014z"/>
</svg>
