<?xml version="1.0" encoding="utf-8"?>
<!-- Generator: Adobe Illustrator 24.1.0, SVG Export Plug-In . SVG Version: 6.00 Build 0)  -->
<svg version="1.1" id="Layer_1" xmlns="http://www.w3.org/2000/svg" xmlns:xlink="http://www.w3.org/1999/xlink" x="0px" y="0px"
	 viewBox="0 0 286.7 110.6" style="enable-background:new 0 0 286.7 110.6;" xml:space="preserve">
<style type="text/css">
	.st0{fill:#1C3A62;}
	.st1{fill:#00C1F3;}
</style>
<g id="OSG">
	<path class="st0" d="M285.8,45.8l-13.6,14c-0.2,2.1-0.6,4.2-1.2,6.3c-1,3.5-2.4,6.8-4.1,9.8c-1.8,3.1-3.9,5.8-6.4,8.3
		s-5.3,4.6-8.3,6.4c-3,1.8-6.3,3.2-9.8,4.2s-7.1,1.5-10.9,1.5s-7.4-0.5-10.9-1.5s-6.8-2.4-9.8-4.2c-3.1-1.8-5.8-3.9-8.3-6.4
		s-4.6-5.3-6.4-8.3c-1.8-3.1-3.2-6.3-4.1-9.8c-1-3.5-1.5-7.1-1.5-10.9s0.5-7.4,1.5-10.9s2.4-6.8,4.1-9.8c1.8-3,3.9-5.8,6.4-8.3
		s5.3-4.6,8.3-6.4c3.1-1.8,6.3-3.2,9.8-4.2s7.1-1.5,10.9-1.5c5.7,0,11,1.1,16,3.2c3.1,1.4,6,3,8.6,5c0.6,0.5,1.2,1,1.8,1.5
		c0.2,0.1,0.3,0.3,0.5,0.4c0.6,0.6,1.3,1.1,1.9,1.7l9.7-10.1c-0.5-0.5-1.1-1-1.6-1.5l-0.1-0.1c-0.8-0.7-1.5-1.3-2.3-2l0,0l0,0
		c-2.1-1.7-4.3-3.2-6.6-4.5c-4.1-2.4-8.4-4.3-13.1-5.6s-9.6-1.9-14.6-1.9c-5.1,0-10,0.7-14.7,2s-9.1,3.2-13.2,5.6
		c-4.1,2.4-7.8,5.3-11.2,8.6c-3.3,3.4-6.2,7.1-8.6,11.2s-4.3,8.5-5.6,13.2c-1.3,4.7-1.9,9.6-1.9,14.6c0,4.6,0.5,9,1.6,13.2
		c-0.1-0.3-0.2-0.6-0.4-0.8c-1.4-3.1-3.4-6-5.8-8.4c-2.4-2.4-5-4.2-7.6-5.7c-5.3-3-10.7-4.7-15.8-6.1l-7.4-2.1
		c-2.3-0.7-4.6-1.4-6.8-2.2c-4.3-1.6-8.3-3.5-10.9-6c-1.3-1.2-2.2-2.4-2.8-3.8c-0.6-1.3-0.8-2.8-0.8-4.4c0-0.9,0.2-1.7,0.3-2.5
		c0.1-0.4,0.2-0.8,0.3-1.1c0.1-0.4,0.3-0.7,0.4-1.1c0.7-1.4,1.6-2.7,2.9-4c2.5-2.4,6.3-4.2,10.3-5.2c1-0.3,2-0.4,3-0.6l1.5-0.2
		l1.6-0.1c2.1-0.1,4.3,0,6.5,0.2c4.3,0.5,8.7,1.7,12.9,3.4c4,1.6,8,3.7,11.8,6.1l7.5-11.1c-2.1-1.4-4.2-2.8-6.4-4
		c-2.4-1.4-4.9-2.6-7.5-3.7c-5.2-2.2-10.7-3.8-16.5-4.6c-2.9-0.4-5.8-0.5-8.8-0.4l-2.2,0.1l-2.3,0.3c-1.5,0.2-3,0.5-4.5,0.9
		c-2.9,0.7-5.8,1.7-8.7,3.1c-2.8,1.4-5.5,3.2-7.9,5.5c-2.4,2.3-4.6,5.1-6,8.3c-0.3,0.8-0.7,1.6-1,2.5c-0.3,0.8-0.5,1.7-0.7,2.5
		c-0.3,1.7-0.6,3.4-0.7,5.1c0,1.7,0.1,3.5,0.4,5.3c0,0.1,0.1,0.3,0.1,0.4c-1-2.4-2.1-4.7-3.4-6.9c-2.4-4.1-5.3-7.8-8.6-11.2
		c-3.4-3.3-7.1-6.2-11.2-8.6c-4.1-2.4-8.4-4.3-13.1-5.6C65.1,0.6,60.2,0,55.2,0c-5.1,0-10,0.7-14.7,2s-9.1,3.2-13.2,5.6
		c-4.1,2.4-7.8,5.3-11.2,8.6c-3.3,3.4-6.2,7.1-8.6,11.2s-4.3,8.5-5.6,13.2S0,50.2,0,55.2c0,5.1,0.6,10,1.9,14.7
		C3.2,74.6,5,79,7.4,83c2.4,4.1,5.2,7.8,8.6,11.1c3.3,3.3,7,6.2,11.1,8.6c4.1,2.4,8.4,4.3,13.1,5.6s9.6,1.9,14.7,1.9
		s10-0.6,14.7-1.9c4.7-1.3,9.1-3.1,13.2-5.5s7.8-5.2,11.2-8.6c3.3-3.3,6.2-7,8.6-11.1c2.4-4.1,4.3-8.4,5.6-13.1
		c1.3-4.7,1.9-9.6,1.9-14.6c0-5.1-0.7-10-2-14.7c0-0.1,0-0.1-0.1-0.2c0.6,1.2,1.3,2.3,2,3.3c1.1,1.4,2.2,2.7,3.5,3.8
		c2.5,2.3,5.1,4,7.7,5.4c2.6,1.4,5.3,2.5,7.9,3.5c2.6,1,5.2,1.8,7.8,2.5l7.4,2.1c4.7,1.3,9.1,2.8,12.7,4.9c1.8,1,3.3,2.1,4.6,3.4
		c1.2,1.3,2.2,2.6,2.9,4.2c1.4,3.2,1.5,6.5,0.5,9.8c-1.1,3.3-3.5,6.4-6.5,8.6l-0.9,0.7l-1.2,0.7c-0.8,0.4-1.6,0.8-2.6,1.2
		c-1.9,0.7-4,1.2-6,1.5c-4.2,0.6-8.6,0.5-13-0.2c-7.7-1.3-15-4.8-21.1-9.9L106,97.4c3.1,2.5,6.4,4.7,9.9,6.6c2.6,1.3,5.2,2.5,8,3.5
		c2.7,0.9,5.6,1.7,8.4,2.2c5.7,1,11.6,1.3,17.5,0.4c3-0.4,5.9-1.1,8.8-2.2c1.4-0.5,2.9-1.2,4.4-1.9l2.1-1.2l2-1.4
		c2.6-1.9,5-4.2,6.9-6.7c2-2.6,3.6-5.5,4.7-8.7c1.1-3.2,1.6-6.7,1.4-10.1c-0.1-1.3-0.2-2.7-0.5-4c1.2,3.3,2.6,6.5,4.4,9.4
		c2.4,4.1,5.2,7.8,8.6,11.1c3.3,3.3,7,6.2,11.1,8.6c4.1,2.4,8.4,4.3,13.1,5.6s9.6,1.9,14.7,1.9s10-0.6,14.7-1.9
		c4.7-1.3,9.1-3.1,13.2-5.5s7.8-5.2,11.2-8.6c3.3-3.3,6.2-7,8.6-11.1s4.3-8.4,5.6-13.1c1.3-4.7,1.9-9.6,1.9-14.6
		C286.6,52.2,286.3,49,285.8,45.8z M94.7,66.1c-1,3.5-2.4,6.8-4.1,9.8c-1.8,3.1-3.9,5.8-6.4,8.3s-5.3,4.6-8.3,6.4
		c-3,1.8-6.3,3.2-9.8,4.2s-7.1,1.5-10.9,1.5s-7.4-0.5-10.9-1.5s-6.8-2.4-9.8-4.2c-3.1-1.8-5.8-3.9-8.3-6.4s-4.6-5.3-6.4-8.3
		c-1.8-3.1-3.2-6.3-4.1-9.8c-1-3.5-1.5-7.1-1.5-10.9s0.5-7.4,1.5-10.9s2.4-6.8,4.1-9.8c1.8-3,3.9-5.8,6.4-8.3s5.3-4.6,8.3-6.4
		c3.1-1.8,6.3-3.2,9.8-4.2s7.1-1.5,10.9-1.5c5.7,0,11,1.1,16,3.2c5,2.2,9.3,5.1,13,8.8c3.7,3.7,6.6,8,8.8,13s3.2,10.3,3.2,16
		C96.2,59,95.7,62.6,94.7,66.1z"/>
	<polygon class="st1" points="231.3,59.8 244.8,45.8 285.8,45.8 272.2,59.8 	"/>
</g>
</svg>
