<!-- Generated by IcoMoon.io -->
<svg version="1.1" xmlns="http://www.w3.org/2000/svg" width="496" height="500" viewBox="0 0 496 500">
<title>instructions</title>
<path d="M426.089 375.833v0c-6.178 0-11.989-0.711-16.8-2.089l-38.878-10.911c-82.678-23.211-254.767-71.5-271.222-76.4-3.544-1.067-6.411-1.844-8.755-2.433-6.5 17.911-23.689 30.745-43.822 30.745-25.7 0-46.611-20.9-46.611-46.589v-94.878c0-25.7 20.911-46.611 46.611-46.611 20.133 0 37.311 12.833 43.822 30.755 2.333-0.589 5.211-1.378 8.755-2.433 16.478-4.911 188.867-53.3 271.722-76.544l38.378-10.778c4.811-1.355 10.622-2.089 16.8-2.089 33.489 0 67.267 20.478 67.267 66.2v177.878c0 29.1-13.544 45.022-24.889 53.255-15.5 11.245-33.211 12.922-42.378 12.922zM81.245 242.9c7.067 0 15.8 1.7 29.222 5.722 16.145 4.811 194.467 54.855 270.622 76.233l38.933 10.933c0.778 0.222 2.933 0.589 6.067 0.589v0c3.522 0 12.489-0.533 19.2-5.4 2.133-1.544 8.6-6.245 8.6-21.311v-177.889c0-17.745-9.355-26.733-27.8-26.733-3.133 0-5.289 0.378-6.056 0.6l-38.456 10.789c-76.278 21.411-254.933 71.533-271.111 76.367-13.433 4.011-22.189 5.722-29.233 5.722-6.7 0-12.444-1.633-17.078-4.867-6.611-4.6-10.4-12.033-10.4-20.367 0-3.933-3.2-7.156-7.145-7.156s-7.145 3.211-7.145 7.156v94.878c0 3.933 3.211 7.133 7.145 7.133s7.145-3.2 7.145-7.133c-0.011-12.178 8.6-25.267 27.489-25.267zM223.878 452.589c-50.122 0-90.9-40.789-90.9-90.933 0-7.178 1.056-14.656 3.222-22.855l38.156 10.078c-1.311 4.922-1.911 9-1.911 12.767 0 28.378 23.078 51.467 51.433 51.467 22.145 0 41.678-14.267 48.622-35.522l37.5 12.267c-12.245 37.533-46.867 62.733-86.122 62.733z"></path>
</svg>
