<?xml version="1.0" encoding="utf-8"?>
<!-- Generator: Adobe Illustrator 15.1.0, SVG Export Plug-In . SVG Version: 6.00 Build 0)  -->
<!DOCTYPE svg PUBLIC "-//W3C//DTD SVG 1.1//EN" "http://www.w3.org/Graphics/SVG/1.1/DTD/svg11.dtd">
<svg version="1.1" id="Layer_1" xmlns="http://www.w3.org/2000/svg" xmlns:xlink="http://www.w3.org/1999/xlink" x="0px" y="0px"
	 width="512px" height="512px" viewBox="0 0 512 512" enable-background="new 0 0 512 512" xml:space="preserve">
<g id="Layer_2">
	<path fill="#FFFFFF" d="M257.375,10C121.292,10,11,120.307,11,256.375C11,392.459,121.292,502.75,257.375,502.75
		c136.084,0,246.375-110.291,246.375-246.375C503.75,120.307,393.459,10,257.375,10z M259.007,235.971
		C150.127,235.971,259.007,344.849,259.007,235.971c0-108.863-101.691-1.96,7.188-1.96c108.878,0,90.357-59.631-1.961-1.936
		C243.325,245.143,367.885,235.971,259.007,235.971z"/>
</g>
<title>events</title>
<path fill="#0071FA" d="M378.775,120.535h-22.827v-15.302c0-9.54-7.74-17.271-17.273-17.271c-9.54,0-17.264,7.731-17.264,17.271
	v15.302H195.48v-15.302c0-9.533-7.723-17.271-17.264-17.271c-9.54,0-17.271,7.738-17.271,17.271v15.302h-27.713
	c-25.941,0-47.044,21.111-47.044,47.054v212.035c0,25.949,21.103,47.046,47.044,47.046h245.543
	c25.942,0,47.045-21.097,47.045-47.046V167.588C425.82,141.646,404.718,120.535,378.775,120.535L378.775,120.535z M338.81,269.322
	l-91.076,91.303c-0.122,0.13-0.206,0.274-0.328,0.405c-7.67,7.671-20.095,7.654-27.758,0l-49.686-49.686
	c-7.662-7.671-7.662-20.087,0-27.758c7.663-7.67,20.088-7.67,27.758,0l35.75,35.764l77.587-77.771
	c7.662-7.672,20.081-7.672,27.752,0C346.463,249.241,346.463,261.666,338.81,269.322L338.81,269.322z M389.334,183.811
	c-3.794,5.487-10.113,9.104-17.271,9.104H126.52c-7.159,0-13.487-3.619-17.272-9.104v-22.935c0-9.525,7.747-17.272,17.272-17.272
	h27.712v11.365c0,9.54,7.731,17.271,17.272,17.271s17.271-7.731,17.271-17.271v-11.373h125.931v11.365
	c0,9.541,7.724,17.271,17.264,17.271c9.533,0,17.272-7.73,17.272-17.271v-11.365h22.828c9.518,0,17.271,7.755,17.271,17.273v22.942
	L389.334,183.811z"/>
</svg>
