<?xml version="1.0" encoding="utf-8"?>
<!-- Generator: Adobe Illustrator 15.1.0, SVG Export Plug-In . SVG Version: 6.00 Build 0)  -->
<!DOCTYPE svg PUBLIC "-//W3C//DTD SVG 1.1//EN" "http://www.w3.org/Graphics/SVG/1.1/DTD/svg11.dtd">
<svg version="1.1" id="Layer_1" xmlns="http://www.w3.org/2000/svg" xmlns:xlink="http://www.w3.org/1999/xlink" x="0px" y="0px"
	 width="512px" height="512px" viewBox="0 0 512 512" enable-background="new 0 0 512 512" xml:space="preserve">
<title>events</title>
<g id="Layer_2">
	<rect x="37.5" y="75.5" fill="#0071FA" width="440" height="419"/>
</g>
<path fill="#FFFFFF" d="M439.909,52.899h-34.01V30.1c0-14.213-11.53-25.732-25.733-25.732c-14.214,0-25.721,11.519-25.721,25.732
	v22.799H166.824V30.1c0-14.203-11.507-25.732-25.721-25.732c-14.214,0-25.733,11.529-25.733,25.732v22.799H74.082
	c-38.65,0-70.091,31.452-70.091,70.103v315.907C3.991,477.57,35.432,509,74.082,509h365.827C478.56,509,510,477.57,510,438.908
	V123.001C510,84.351,478.561,52.899,439.909,52.899L439.909,52.899z M380.365,274.572l-135.69,136.029
	c-0.182,0.193-0.307,0.409-0.489,0.604c-11.428,11.428-29.94,11.404-41.356,0l-74.025-74.025c-11.416-11.428-11.416-29.928,0-41.356
	c11.416-11.428,29.928-11.428,41.356,0l53.262,53.284L339.02,233.238c11.416-11.429,29.918-11.429,41.346,0
	C391.77,244.654,391.77,263.165,380.365,274.572L380.365,274.572z M455.642,147.171c-5.651,8.175-15.067,13.565-25.733,13.565
	H64.081c-10.666,0-20.093-5.391-25.733-13.565v-34.169c0-14.191,11.541-25.733,25.733-25.733h41.288V104.2
	c0,14.213,11.519,25.732,25.733,25.732c14.214,0,25.732-11.519,25.732-25.732V87.258h187.621v16.931
	c0,14.214,11.507,25.733,25.721,25.733c14.202,0,25.733-11.519,25.733-25.733V87.258h34.01c14.181,0,25.733,11.553,25.733,25.733
	v34.181L455.642,147.171z"/>
</svg>
