<?xml version="1.0" encoding="utf-8"?>
<!-- Generator: Adobe Illustrator 15.1.0, SVG Export Plug-In . SVG Version: 6.00 Build 0)  -->
<!DOCTYPE svg PUBLIC "-//W3C//DTD SVG 1.1//EN" "http://www.w3.org/Graphics/SVG/1.1/DTD/svg11.dtd">
<svg version="1.1" xmlns="http://www.w3.org/2000/svg" xmlns:xlink="http://www.w3.org/1999/xlink" x="0px" y="0px" width="512px"
	 height="512px" viewBox="0 0 512 512" enable-background="new 0 0 512 512" xml:space="preserve">
<g id="Layer_1">
	<g id="Layer_2">
		<path fill="#FFFFFF" d="M253.375,11C117.292,11,7,121.307,7,257.375C7,393.459,117.292,503.75,253.375,503.75
			c136.084,0,246.375-110.291,246.375-246.375C499.75,121.307,389.459,11,253.375,11z M255.007,236.971
			C146.127,236.971,255.007,345.849,255.007,236.971c0-108.863-101.691-1.96,7.188-1.96c108.878,0,90.357-59.631-1.961-1.936
			C239.325,246.143,363.885,236.971,255.007,236.971z"/>
	</g>
	<title>events</title>
	<path display="none" fill="#0071FA" d="M378.775,120.535h-22.827v-15.302c0-9.54-7.74-17.271-17.273-17.271
		c-9.54,0-17.264,7.731-17.264,17.271v15.302H195.48v-15.302c0-9.533-7.723-17.271-17.264-17.271
		c-9.54,0-17.271,7.738-17.271,17.271v15.302h-27.713c-25.941,0-47.044,21.111-47.044,47.054v212.035
		c0,25.949,21.103,47.046,47.044,47.046h245.543c25.942,0,47.045-21.097,47.045-47.046V167.588
		C425.82,141.646,404.718,120.535,378.775,120.535L378.775,120.535z M338.81,269.322l-91.076,91.303
		c-0.122,0.13-0.206,0.274-0.328,0.405c-7.67,7.671-20.095,7.654-27.758,0l-49.686-49.686c-7.662-7.671-7.662-20.087,0-27.758
		c7.663-7.67,20.088-7.67,27.758,0l35.75,35.764l77.587-77.771c7.662-7.672,20.081-7.672,27.752,0
		C346.463,249.241,346.463,261.666,338.81,269.322L338.81,269.322z M389.334,183.811c-3.794,5.487-10.113,9.104-17.271,9.104H126.52
		c-7.159,0-13.487-3.619-17.272-9.104v-22.935c0-9.525,7.747-17.272,17.272-17.272h27.712v11.365c0,9.54,7.731,17.271,17.272,17.271
		s17.271-7.731,17.271-17.271v-11.373h125.931v11.365c0,9.541,7.724,17.271,17.264,17.271c9.533,0,17.272-7.73,17.272-17.271
		v-11.365h22.828c9.518,0,17.271,7.755,17.271,17.273v22.942L389.334,183.811z"/>
</g>
<g id="Layer_3">
	<path fill="#0071FA" d="M297.799,137.421c0,23.085-18.715,41.799-41.799,41.799c-23.085,0-41.799-18.713-41.799-41.799
		c0-23.085,18.714-41.799,41.799-41.799C279.084,95.622,297.799,114.336,297.799,137.421z"/>
	<path fill="#0071FA" d="M288.95,415.525c-15.052,0-27.261-12.211-27.261-27.261V270.055c0-4.326-0.855-6.084-1.063-6.29
		c-4.12-3.964-23.069-3.23-29.281-3.004c-3.103,0.122-5.914,0.222-8.297,0.222c-15.05,0-27.254-12.204-27.254-27.261
		s12.203-27.254,27.254-27.254c1.786,0,3.878-0.092,6.205-0.179c18.096-0.684,48.331-1.851,69.174,18.203
		c8.112,7.806,17.775,22.045,17.775,45.563v118.202C316.204,403.314,304,415.526,288.95,415.525L288.95,415.525z"/>
</g>
</svg>
