<?xml version="1.0" encoding="utf-8"?>
<!-- Generator: Adobe Illustrator 15.1.0, SVG Export Plug-In . SVG Version: 6.00 Build 0)  -->
<!DOCTYPE svg PUBLIC "-//W3C//DTD SVG 1.1//EN" "http://www.w3.org/Graphics/SVG/1.1/DTD/svg11.dtd">
<svg version="1.1" id="Layer_1" xmlns="http://www.w3.org/2000/svg" xmlns:xlink="http://www.w3.org/1999/xlink" x="0px" y="0px"
	 width="512px" height="512px" viewBox="0 0 512 512" enable-background="new 0 0 512 512" xml:space="preserve">
<title>information</title>
<path fill="#FFFFFF" d="M297.799,137.421c0,23.085-18.715,41.799-41.799,41.799c-23.085,0-41.799-18.713-41.799-41.799
	c0-23.085,18.714-41.799,41.799-41.799C279.084,95.622,297.799,114.336,297.799,137.421z"/>
<path fill="#FFFFFF" d="M288.95,415.525c-15.052,0-27.261-12.211-27.261-27.261V270.055c0-4.326-0.855-6.084-1.062-6.29
	c-4.12-3.964-23.069-3.231-29.281-3.004c-3.103,0.122-5.914,0.222-8.297,0.222c-15.05,0-27.254-12.204-27.254-27.261
	c0-15.057,12.203-27.254,27.254-27.254c1.786,0,3.878-0.092,6.205-0.179c18.096-0.683,48.331-1.85,69.174,18.203
	c8.112,7.806,17.775,22.045,17.775,45.563v118.202C316.204,403.314,304,415.526,288.95,415.525L288.95,415.525z"/>
<path fill="#FFFFFF" d="M256,5.75C117.155,5.75,4.625,118.296,4.625,257.125C4.625,395.97,117.155,508.5,256,508.5
	c138.845,0,251.375-112.53,251.375-251.375C507.375,118.296,394.845,5.75,256,5.75z M256,458.225
	c-111.089,0-201.1-90.012-201.1-201.1c0-111.073,90.011-201.1,201.1-201.1c111.088,0,201.1,90.027,201.1,201.1
	C457.1,368.213,367.088,458.225,256,458.225z"/>
</svg>
