<?xml version="1.0" encoding="utf-8"?>
<!-- Generator: Adobe Illustrator 15.1.0, SVG Export Plug-In . SVG Version: 6.00 Build 0)  -->
<!DOCTYPE svg PUBLIC "-//W3C//DTD SVG 1.1//EN" "http://www.w3.org/Graphics/SVG/1.1/DTD/svg11.dtd">
<svg version="1.1" xmlns="http://www.w3.org/2000/svg" xmlns:xlink="http://www.w3.org/1999/xlink" x="0px" y="0px"
	 width="44.625px" height="44.5px" viewBox="0 0 44.625 44.5" enable-background="new 0 0 44.625 44.5" xml:space="preserve">
<g id="Layer_2">
	<path fill="#FCFCFC" d="M22.562,2.898c-10.529,0-19.063,8.535-19.063,19.062c0,10.529,8.534,19.063,19.063,19.063
		c10.528,0,19.063-8.533,19.063-19.063C41.625,11.433,33.09,2.898,22.562,2.898z M22.688,20.382
		C14.263,20.382,22.688,28.807,22.688,20.382c0-8.423-7.869-0.152,0.556-0.152c8.425,0,6.991-4.614-0.151-0.15
		C21.475,21.091,31.112,20.382,22.688,20.382z"/>
</g>
<g id="Layer_1">
	<path fill="#0071FA" d="M30.393,27.204c0-1.6-0.586-6.815-8.117-6.815c-3.786,0-4.273-1.665-4.273-3.114
		c0-1.56,1.122-3.227,4.273-3.227c3.544,0,4.182,1.15,4.504,2.229c0.268,0.905,1.223,1.422,2.13,1.152
		c0.904-0.27,1.421-1.223,1.151-2.129c-0.981-3.294-3.658-4.267-5.708-4.555V8.566c0-1.103-0.893-1.997-1.995-1.997
		c-1.103,0-1.997,0.895-1.997,1.997v2.225c-3.958,0.725-5.782,3.696-5.782,6.483c0,1.966,0.75,6.539,7.696,6.539
		c4.693,0,4.693,2.553,4.693,3.392c0,1.379-2.413,2.838-4.693,2.838c-3.12,0-3.778-0.786-4.003-1.468
		c-0.294-0.899-1.263-1.389-2.161-1.093c-0.897,0.295-1.386,1.263-1.091,2.162c0.895,2.718,3.435,3.501,5.361,3.728
		c-0.013,0.092-0.021,0.185-0.021,0.278v2.284c0,1.104,0.895,1.963,1.997,1.963v0.034c1.103,0,1.996-0.893,1.996-1.997V33.65
		c0-0.143-0.015-0.28-0.043-0.416C27.482,32.528,30.393,30.247,30.393,27.204z"/>
</g>
</svg>
