<?xml version="1.0" encoding="utf-8"?>
<!-- Generator: Adobe Illustrator 15.1.0, SVG Export Plug-In . SVG Version: 6.00 Build 0)  -->
<!DOCTYPE svg PUBLIC "-//W3C//DTD SVG 1.1//EN" "http://www.w3.org/Graphics/SVG/1.1/DTD/svg11.dtd">
<svg version="1.1" id="Layer_1" xmlns="http://www.w3.org/2000/svg" xmlns:xlink="http://www.w3.org/1999/xlink" x="0px" y="0px"
	 width="44.625px" height="44.5px" viewBox="0 0 44.625 44.5" enable-background="new 0 0 44.625 44.5" xml:space="preserve">
<path fill="#FFFFFF" d="M33.392,29.084c0-2.207-0.808-9.402-11.196-9.402c-5.223,0-5.894-2.296-5.894-4.296
	c0-2.151,1.547-4.451,5.894-4.451c4.889,0,5.77,1.587,6.213,3.075c0.371,1.249,1.687,1.962,2.938,1.589
	c1.249-0.372,1.962-1.687,1.589-2.937c-1.354-4.544-5.045-5.885-7.874-6.283V3.374c0.001-1.521-1.231-2.754-2.752-2.754
	c-1.52,0-2.754,1.234-2.754,2.754v3.069c-5.459,1-7.976,5.098-7.976,8.943c0,2.712,1.034,9.02,10.617,9.02
	c6.474,0,6.474,3.521,6.474,4.679c0,1.902-3.328,3.915-6.474,3.915c-4.304,0-5.211-1.085-5.523-2.026
	c-0.406-1.24-1.742-1.915-2.98-1.506c-1.238,0.407-1.912,1.742-1.505,2.981c1.234,3.75,4.738,4.831,7.396,5.144
	c-0.018,0.126-0.03,0.252-0.03,0.383v3.151c0,1.522,1.234,2.708,2.754,2.708v0.047c1.521,0,2.754-1.232,2.754-2.755v-3.151
	c0-0.197-0.021-0.387-0.061-0.573C29.379,36.427,33.392,33.281,33.392,29.084z"/>
</svg>
