<?xml version="1.0" encoding="utf-8"?>
<!-- Generator: Adobe Illustrator 21.0.2, SVG Export Plug-In . SVG Version: 6.00 Build 0)  -->
<svg version="1.1" id="Layer_1" xmlns="http://www.w3.org/2000/svg" xmlns:xlink="http://www.w3.org/1999/xlink" x="0px" y="0px"
	 viewBox="0 0 45 45" style="enable-background:new 0 0 45 45;" xml:space="preserve">
<style type="text/css">
	.st0{fill:#6D747E;}
</style>
<g>
	<path class="st0" d="M24.1,33.5l8.5-6.4v0c0.5-0.3,0.8-0.8,0.8-1.4c0-0.9-0.7-1.7-1.7-1.7c0,0-3,0-3.6,0s-1.6-0.7-1.6-1.6
		c0-0.9,0-19,0-19c0-1.1-0.9-2-2-2h-3.1c-1.1,0-2,0.9-2,2c0,0,0,18.1,0,19c0,0.9-0.8,1.6-1.7,1.6c-0.9,0-3.4,0-3.4,0
		c-0.1,0-0.1,0-0.2,0c-0.1,0-0.1,0-0.2,0h0v0c-0.8,0.1-1.4,0.8-1.4,1.6c0,0.5,0.2,1,0.6,1.3l0,0l0.1,0.1c0,0,0,0,0,0l8.5,6.4
		c0.3,0.3,0.7,0.5,1.2,0.5C23.4,34.1,23.8,33.9,24.1,33.5z"/>
</g>
<path class="st0" d="M35,3.9c-1.5-1-3.5-0.3-4,1.4L31,5.6c-0.3,1,0.1,2.1,1,2.7c4.8,3,8,8.3,8,14.3c0,9.4-7.7,17-17,17
	c-9.4,0-17-7.6-17-17c0-6,3.2-11.3,8-14.3c0.9-0.6,1.3-1.6,1-2.7l-0.1-0.2c-0.5-1.7-2.5-2.4-4-1.4C4,8.3-0.2,16.3,0.8,25.2
	C2,35.3,10.1,43.5,20.3,44.6c0.9,0.1,1.7,0.1,2.6,0.1v0c0,0,0,0,0,0c0,0,0,0,0,0v0c0.9,0,1.7,0,2.6-0.1c10.2-1.1,18.3-9.3,19.5-19.5
	C46.1,16.3,41.8,8.3,35,3.9z"/>
</svg>
