<svg width="631" height="1023" viewBox="0 0 631 1023" fill="none" xmlns="http://www.w3.org/2000/svg">
<g opacity="0.75">
<g opacity="0.25">
<path opacity="0.25" d="M636.351 1003.14C634.263 1003.14 632.174 1003.07 630.085 1003L630.153 1001.05C632.241 1001.12 634.263 1001.18 636.351 1001.18V1003.14ZM642.684 1003.07L642.617 1001.12C644.706 1001.05 646.794 1000.98 648.815 1000.85L648.95 1002.8C646.862 1002.87 644.773 1003 642.684 1003.07ZM623.82 1002.6C621.731 1002.46 619.642 1002.26 617.554 1001.99L617.756 1000.04C619.777 1000.24 621.866 1000.44 623.954 1000.58L623.82 1002.6ZM655.216 1002.19L655.014 1000.24C657.103 1000.04 659.124 999.768 661.212 999.499L661.414 1001.45C659.326 1001.72 657.305 1001.99 655.216 1002.19ZM611.355 1001.25C609.267 1000.98 607.178 1000.58 605.157 1000.24L605.494 998.286C607.515 998.69 609.604 998.96 611.625 999.297L611.355 1001.25ZM667.613 1000.51L667.276 998.555C669.297 998.219 671.386 997.814 673.407 997.41L673.811 999.297C671.79 999.768 669.701 1000.17 667.613 1000.51ZM598.959 999.027C596.937 998.555 594.849 998.084 592.828 997.545L593.299 995.658C595.32 996.197 597.342 996.669 599.363 997.073L598.959 999.027ZM679.942 997.949L679.471 996.062C681.492 995.591 683.513 995.052 685.467 994.445L686.006 996.332C683.985 996.871 681.964 997.41 679.942 997.949ZM586.764 995.86C584.743 995.254 582.721 994.647 580.768 993.974L581.374 992.087C583.328 992.761 585.282 993.367 587.303 993.974L586.764 995.86ZM692.002 994.445L691.396 992.559C693.35 991.885 695.371 991.211 697.325 990.537L697.999 992.356C696.045 993.165 694.024 993.839 692.002 994.445ZM574.839 991.885C572.885 991.143 570.931 990.402 569.045 989.594L569.786 987.774C571.672 988.583 573.626 989.324 575.58 990.065L574.839 991.885ZM703.86 990.133L703.119 988.313C705.073 987.505 706.959 986.696 708.846 985.888L709.654 987.64C707.768 988.516 705.814 989.392 703.86 990.133ZM563.318 987.101C561.431 986.225 559.545 985.349 557.658 984.405L558.534 982.653C560.353 983.597 562.24 984.473 564.126 985.349L563.318 987.101ZM715.381 985.012L714.505 983.26C716.392 982.316 718.211 981.373 720.03 980.43L720.973 982.182C719.087 983.125 717.268 984.068 715.381 985.012ZM552.066 981.441C550.247 980.43 548.428 979.419 546.609 978.341L547.62 976.656C549.371 977.735 551.19 978.745 553.009 979.756L552.066 981.441ZM726.431 979.015L725.42 977.33C727.239 976.252 728.991 975.174 730.742 974.096L731.753 975.78C730.069 976.926 728.25 978.004 726.431 979.015ZM541.286 975.039C539.535 973.894 537.783 972.748 536.099 971.535L537.244 969.918C538.928 971.131 540.68 972.277 542.432 973.355L541.286 975.039ZM737.076 972.344L735.998 970.727C737.682 969.581 739.434 968.369 741.051 967.156L742.196 968.705C740.512 969.918 738.827 971.131 737.076 972.344ZM530.978 967.897C529.294 966.617 527.677 965.336 525.992 964.056L527.205 962.506C528.822 963.787 530.439 965.067 532.123 966.28L530.978 967.897ZM747.182 964.865L745.969 963.315C747.586 962.035 749.203 960.687 750.753 959.339L752.033 960.822C750.483 962.237 748.866 963.584 747.182 964.865ZM521.209 960.013C519.592 958.666 518.042 957.251 516.493 955.836L517.84 954.421C519.39 955.836 520.872 957.183 522.489 958.531L521.209 960.013ZM756.816 956.712L755.469 955.297C757.018 953.882 758.501 952.467 759.983 951.052L761.33 952.467C759.848 953.882 758.366 955.297 756.816 956.712ZM511.979 951.523C510.496 950.041 509.014 948.558 507.599 947.009L509.014 945.661C510.429 947.143 511.844 948.626 513.326 950.108L511.979 951.523ZM765.777 947.952L764.362 946.604C765.777 945.122 767.192 943.572 768.539 942.022L770.022 943.303C768.607 944.852 767.192 946.402 765.777 947.952ZM503.422 942.359C502.075 940.81 500.727 939.192 499.38 937.575L500.929 936.362C502.209 937.979 503.557 939.529 504.904 941.146L503.422 942.359ZM774.131 938.519L772.649 937.306C773.997 935.689 775.277 934.071 776.49 932.454L778.039 933.667C776.759 935.284 775.412 936.901 774.131 938.519ZM495.472 932.589C494.192 930.904 492.979 929.22 491.766 927.535L493.383 926.39C494.596 928.074 495.809 929.759 497.022 931.444L495.472 932.589ZM781.745 928.546L780.128 927.401C781.34 925.716 782.486 924.032 783.631 922.28L785.248 923.358C784.17 925.177 782.957 926.862 781.745 928.546ZM488.263 922.28C487.118 920.528 486.04 918.708 484.962 916.957L486.646 915.946C487.724 917.698 488.802 919.517 489.947 921.202L488.263 922.28ZM788.684 918.102L787 917.091C788.078 915.339 789.156 913.52 790.166 911.768L791.851 912.711C790.84 914.531 789.762 916.35 788.684 918.102ZM481.728 911.499C480.717 909.679 479.706 907.793 478.763 905.906L480.515 905.03C481.458 906.849 482.401 908.736 483.412 910.555L481.728 911.499ZM794.815 907.186L793.064 906.31C794.007 904.491 794.95 902.604 795.826 900.785L797.578 901.594C796.702 903.48 795.759 905.299 794.815 907.186ZM476.068 900.246C475.192 898.359 474.316 896.405 473.508 894.451L475.327 893.71C476.136 895.597 477.011 897.551 477.82 899.437L476.068 900.246ZM800.205 895.866L798.386 895.125C799.195 893.238 800.003 891.284 800.744 889.397L802.563 890.139C801.822 892.025 801.014 893.912 800.205 895.866ZM471.15 888.656C470.409 886.702 469.668 884.748 468.994 882.727L470.813 882.12C471.487 884.074 472.161 886.028 472.902 887.982L471.15 888.656ZM804.787 884.142L802.9 883.535C803.574 881.581 804.248 879.627 804.854 877.606L806.74 878.212C806.134 880.166 805.46 882.188 804.787 884.142ZM467.107 876.73C466.501 874.708 465.962 872.687 465.423 870.665L467.31 870.194C467.849 872.215 468.388 874.169 468.994 876.191L467.107 876.73ZM808.492 872.148L806.606 871.609C807.145 869.587 807.684 867.633 808.155 865.612L810.042 866.083C809.57 868.105 809.031 870.126 808.492 872.148ZM463.941 864.534C463.469 862.512 463.065 860.423 462.661 858.402L464.615 858.065C465.019 860.087 465.423 862.108 465.895 864.129L463.941 864.534ZM811.322 859.884L809.435 859.48C809.84 857.459 810.177 855.437 810.513 853.348L812.467 853.685C812.13 855.774 811.726 857.863 811.322 859.884ZM461.583 852.203C461.246 850.114 460.976 848.093 460.774 846.004L462.728 845.802C462.998 847.89 463.267 849.912 463.537 851.933L461.583 852.203ZM813.276 847.486L811.322 847.217C811.591 845.195 811.794 843.106 811.996 841.018L813.949 841.152C813.747 843.376 813.545 845.397 813.276 847.486ZM460.168 839.737C460.033 837.649 459.898 835.56 459.764 833.471L461.718 833.403C461.785 835.492 461.92 837.514 462.122 839.603L460.168 839.737ZM814.421 834.953L812.467 834.886C812.602 832.797 812.669 830.776 812.669 828.687L814.623 828.754C814.556 830.776 814.488 832.932 814.421 834.953ZM459.629 827.204V825.587C459.629 824.037 459.629 822.42 459.696 820.871L461.65 820.938C461.583 822.488 461.583 824.037 461.583 825.587V827.137L459.629 827.204ZM814.623 825.587H812.669C812.669 823.498 812.602 821.41 812.535 819.388L814.488 819.321C814.623 821.41 814.623 823.498 814.623 825.587ZM461.92 814.739L459.966 814.604C460.101 812.515 460.235 810.426 460.437 808.338L462.391 808.54C462.189 810.561 462.054 812.65 461.92 814.739ZM812.265 813.189C812.13 811.1 811.928 809.079 811.726 806.99L813.68 806.788C813.882 808.877 814.084 810.965 814.219 813.054L812.265 813.189ZM463.132 802.341L461.179 802.071C461.448 799.982 461.785 797.893 462.122 795.872L464.076 796.209C463.671 798.23 463.402 800.319 463.132 802.341ZM810.985 800.791C810.716 798.702 810.379 796.681 809.974 794.659L811.928 794.322C812.265 796.411 812.602 798.433 812.939 800.521L810.985 800.791ZM465.154 790.077L463.267 789.673C463.671 787.584 464.143 785.563 464.615 783.541L466.501 784.013C466.029 786.034 465.558 788.056 465.154 790.077ZM808.762 788.595C808.29 786.573 807.886 784.552 807.347 782.53L809.233 782.059C809.772 784.08 810.244 786.102 810.648 788.191L808.762 788.595ZM468.118 778.016L466.232 777.477C466.771 775.455 467.377 773.434 468.051 771.48L469.937 772.086C469.263 774.04 468.657 775.994 468.118 778.016ZM805.73 776.534C805.123 774.512 804.517 772.558 803.911 770.604L805.797 769.998C806.471 771.952 807.077 773.973 807.684 775.994L805.73 776.534ZM471.891 766.157L470.072 765.483C470.813 763.529 471.554 761.575 472.295 759.621L474.114 760.362C473.306 762.316 472.565 764.203 471.891 766.157ZM801.822 764.674C801.081 762.72 800.34 760.766 799.531 758.88L801.351 758.138C802.159 760.092 802.9 762.047 803.641 764.001L801.822 764.674ZM476.472 754.635L474.653 753.826C475.529 751.939 476.405 749.985 477.281 748.166L479.033 749.042C478.224 750.861 477.348 752.748 476.472 754.635ZM797.106 753.152C796.23 751.265 795.354 749.379 794.411 747.492L796.163 746.684C797.106 748.57 797.982 750.457 798.858 752.344L797.106 753.152ZM481.862 743.517L480.111 742.573C481.054 740.754 482.132 738.867 483.142 737.048L484.827 738.059C483.884 739.878 482.873 741.697 481.862 743.517ZM791.581 742.034C790.571 740.215 789.56 738.396 788.482 736.644L790.166 735.633C791.244 737.452 792.255 739.272 793.266 741.091L791.581 742.034ZM488.061 732.736L486.376 731.725C487.454 729.973 488.6 728.221 489.813 726.469L491.43 727.547C490.284 729.232 489.206 730.984 488.061 732.736ZM785.248 731.321C784.103 729.569 782.957 727.817 781.812 726.132L783.429 725.054C784.642 726.806 785.787 728.558 786.932 730.31L785.248 731.321ZM495 722.494L493.451 721.348C494.663 719.664 495.944 717.979 497.224 716.362L498.773 717.575C497.493 719.125 496.213 720.809 495 722.494ZM778.174 721.079C776.961 719.394 775.681 717.777 774.401 716.16L775.951 714.88C777.231 716.497 778.511 718.181 779.791 719.866L778.174 721.079ZM502.681 712.656L501.199 711.376C502.546 709.759 503.894 708.209 505.309 706.659L506.791 707.939C505.376 709.556 504.028 711.106 502.681 712.656ZM770.426 711.308C769.078 709.759 767.731 708.209 766.316 706.659L767.731 705.311C769.146 706.861 770.561 708.411 771.908 710.028L770.426 711.308ZM511.035 703.425L509.621 702.077C511.103 700.595 512.585 699.112 514.067 697.63L515.415 699.045C513.932 700.527 512.45 701.942 511.035 703.425ZM762.004 702.212C760.522 700.729 759.04 699.314 757.557 697.832L758.905 696.417C760.454 697.832 761.937 699.314 763.419 700.797L762.004 702.212ZM519.929 694.867L518.649 693.385C520.198 691.97 521.815 690.622 523.432 689.275L524.712 690.757C523.095 692.105 521.478 693.452 519.929 694.867ZM752.976 693.654C751.426 692.307 749.809 690.959 748.26 689.611L749.472 688.129C751.089 689.477 752.706 690.824 754.256 692.172L752.976 693.654ZM529.496 686.849L528.283 685.299C529.968 684.019 531.585 682.739 533.336 681.526L534.482 683.143C532.797 684.356 531.113 685.569 529.496 686.849ZM743.341 685.771C741.724 684.49 740.04 683.278 738.356 682.065L739.501 680.448C741.185 681.66 742.87 682.873 744.554 684.154L743.341 685.771ZM539.602 679.572L538.524 677.954C540.276 676.809 542.027 675.663 543.779 674.518L544.79 676.203C543.038 677.281 541.286 678.426 539.602 679.572ZM733.235 678.628C731.484 677.483 729.732 676.405 727.98 675.327L728.991 673.642C730.81 674.72 732.562 675.866 734.313 677.011L733.235 678.628ZM550.18 673.036L549.237 671.351C551.056 670.34 552.875 669.33 554.761 668.319L555.637 670.003C553.818 671.014 551.931 672.025 550.18 673.036ZM722.59 672.227C720.771 671.216 718.952 670.273 717.133 669.33L718.009 667.578C719.895 668.521 721.714 669.532 723.533 670.543L722.59 672.227ZM561.162 667.241L560.353 665.489C562.24 664.613 564.126 663.737 566.08 662.861L566.889 664.68C564.935 665.489 563.048 666.365 561.162 667.241ZM711.608 666.5C709.722 665.624 707.835 664.748 705.949 663.939L706.69 662.12C708.644 662.928 710.53 663.804 712.417 664.68L711.608 666.5ZM572.615 662.255L571.874 660.435C573.828 659.694 575.782 658.953 577.803 658.212L578.477 660.031C576.456 660.772 574.502 661.513 572.615 662.255ZM700.155 661.648C698.201 660.907 696.247 660.166 694.293 659.492L694.899 657.673C696.853 658.346 698.874 659.088 700.828 659.829L700.155 661.648ZM584.338 658.077L583.732 656.19C585.753 655.584 587.707 654.977 589.728 654.438L590.267 656.325C588.314 656.864 586.292 657.47 584.338 658.077ZM688.432 657.605C686.478 656.999 684.456 656.46 682.435 655.921L682.907 654.034C684.928 654.573 686.949 655.18 688.97 655.786L688.432 657.605ZM596.331 654.775L595.859 652.889C597.881 652.417 599.969 651.945 601.99 651.541L602.395 653.428C600.373 653.832 598.352 654.304 596.331 654.775ZM676.439 654.438C674.418 653.967 672.396 653.562 670.375 653.158L670.779 651.271C672.868 651.676 674.889 652.08 676.911 652.552L676.439 654.438ZM608.526 652.35L608.189 650.395C610.277 650.059 612.299 649.722 614.387 649.519L614.657 651.474C612.568 651.676 610.547 652.013 608.526 652.35ZM664.244 652.08C662.223 651.743 660.134 651.474 658.113 651.204L658.315 649.25C660.404 649.519 662.492 649.789 664.514 650.126L664.244 652.08ZM620.855 650.732L620.653 648.778C622.742 648.576 624.83 648.441 626.919 648.307L627.054 650.261C624.965 650.395 622.876 650.53 620.855 650.732ZM651.847 650.598C649.759 650.395 647.738 650.261 645.649 650.193L645.716 648.239C647.805 648.307 649.893 648.509 651.982 648.644L651.847 650.598ZM633.252 650.059L633.185 648.104C634.465 648.104 635.812 648.037 637.092 648.037H639.45V649.991H637.092C635.812 649.991 634.532 649.991 633.252 650.059Z" fill="#ADBFC4"/>
</g>
<g opacity="0.25">
<path opacity="0.25" d="M669.634 774.577C571.74 774.577 492.104 694.932 492.104 597.027C492.104 499.122 571.74 419.477 669.634 419.477C767.529 419.477 847.165 499.122 847.165 597.027C847.165 694.932 767.529 774.577 669.634 774.577ZM669.634 421.431C572.818 421.431 494.057 500.2 494.057 597.027C494.057 693.854 572.818 772.623 669.634 772.623C766.451 772.623 845.211 693.854 845.211 597.027C845.211 500.2 766.451 421.431 669.634 421.431Z" fill="#ADBFC4"/>
</g>
<g opacity="0.25">
<path opacity="0.25" d="M249.623 815.95C186.898 815.95 135.896 764.942 135.896 702.21C135.896 639.478 186.898 588.47 249.623 588.47C312.348 588.47 363.351 639.478 363.351 702.21C363.283 764.942 312.281 815.95 249.623 815.95ZM249.623 590.491C187.976 590.491 137.849 640.623 137.849 702.277C137.849 763.931 187.976 814.063 249.623 814.063C311.27 814.063 361.397 763.931 361.397 702.277C361.329 640.623 311.203 590.491 249.623 590.491Z" fill="#ADBFC4"/>
</g>
<g opacity="0.25">
<path opacity="0.25" d="M436.586 1022.54C434.497 1022.54 432.341 1022.47 430.253 1022.34L430.388 1020.38C432.409 1020.52 434.497 1020.59 436.586 1020.59V1022.54ZM442.852 1022.41L442.717 1020.45C444.806 1020.32 446.827 1020.18 448.915 1019.91L449.118 1021.87C447.096 1022.14 444.94 1022.27 442.852 1022.41ZM423.987 1021.87C421.898 1021.66 419.81 1021.33 417.721 1020.99L418.058 1019.04C420.079 1019.37 422.168 1019.64 424.189 1019.91L423.987 1021.87ZM455.383 1020.99L455.046 1019.04C457.068 1018.7 459.089 1018.3 461.11 1017.82L461.514 1019.71C459.493 1020.25 457.405 1020.65 455.383 1020.99ZM411.523 1019.78C409.502 1019.31 407.413 1018.83 405.392 1018.23L405.931 1016.34C407.952 1016.88 409.973 1017.42 411.927 1017.89L411.523 1019.78ZM467.645 1018.23L467.106 1016.34C469.06 1015.8 471.081 1015.13 473.035 1014.45L473.709 1016.27C471.688 1017.08 469.667 1017.69 467.645 1018.23ZM399.395 1016.34C397.442 1015.67 395.42 1014.93 393.466 1014.12L394.208 1012.3C396.094 1013.11 398.048 1013.85 400.002 1014.45L399.395 1016.34ZM479.571 1014.12L478.83 1012.3C480.716 1011.49 482.67 1010.68 484.489 1009.81L485.297 1011.56C483.478 1012.5 481.524 1013.38 479.571 1014.12ZM387.74 1011.56C385.853 1010.68 383.967 1009.67 382.148 1008.73L383.091 1007.04C384.91 1008.05 386.729 1009 388.616 1009.87L387.74 1011.56ZM490.957 1008.73L490.014 1007.04C491.833 1006.03 493.652 1005.02 495.404 1003.94L496.414 1005.63C494.662 1006.64 492.843 1007.72 490.957 1008.73ZM376.69 1005.56C374.871 1004.42 373.119 1003.27 371.435 1002.12L372.581 1000.51C374.265 1001.65 375.949 1002.8 377.768 1003.94L376.69 1005.56ZM501.737 1002.06L500.591 1000.44C502.276 999.294 503.96 998.014 505.577 996.734L506.79 998.283C505.105 999.631 503.421 1000.84 501.737 1002.06ZM366.382 998.351C364.765 997.071 363.148 995.723 361.531 994.308L362.811 992.826C364.361 994.173 365.978 995.521 367.595 996.801L366.382 998.351ZM511.641 994.308L510.361 992.826C511.91 991.478 513.392 990.063 514.875 988.58L516.222 989.995C514.74 991.478 513.19 992.893 511.641 994.308ZM356.95 989.995C355.467 988.513 353.985 987.031 352.57 985.481L353.985 984.133C355.4 985.683 356.815 987.165 358.297 988.58L356.95 989.995ZM520.601 985.481L519.187 984.133C520.601 982.584 521.949 981.034 523.229 979.417L524.779 980.629C523.431 982.247 522.016 983.864 520.601 985.481ZM348.461 980.697C347.113 979.08 345.833 977.395 344.62 975.711L346.17 974.565C347.383 976.25 348.663 977.867 349.943 979.484L348.461 980.697ZM528.552 975.711L527.002 974.565C528.215 972.881 529.427 971.196 530.505 969.444L532.122 970.522C530.977 972.207 529.832 973.959 528.552 975.711ZM341.049 970.522C339.904 968.77 338.826 966.951 337.748 965.132L339.432 964.188C340.443 966.008 341.521 967.76 342.666 969.511L341.049 970.522ZM535.424 965.132L533.739 964.188C534.75 962.369 535.761 960.55 536.637 958.73L538.388 959.606C537.445 961.426 536.434 963.312 535.424 965.132ZM334.784 959.539C333.84 957.652 332.965 955.698 332.089 953.812L333.908 953.07C334.716 954.957 335.592 956.844 336.535 958.73L334.784 959.539ZM541.016 953.879L539.197 953.138C540.005 951.251 540.746 949.297 541.487 947.41L543.307 948.084C542.633 949.971 541.824 951.925 541.016 953.879ZM329.798 947.949C329.057 945.995 328.383 943.974 327.777 941.952L329.663 941.413C330.27 943.367 330.943 945.389 331.617 947.276L329.798 947.949ZM545.328 942.02L543.441 941.481C544.048 939.459 544.587 937.505 545.058 935.484L546.945 935.956C546.54 937.977 546.002 939.998 545.328 942.02ZM326.092 935.888C325.621 933.867 325.149 931.778 324.745 929.689L326.699 929.352C327.036 931.374 327.507 933.395 327.979 935.416L326.092 935.888ZM548.36 929.756L546.406 929.42C546.81 927.398 547.079 925.377 547.349 923.288L549.303 923.557C549.033 925.646 548.696 927.735 548.36 929.756ZM323.802 923.49C323.532 921.401 323.33 919.312 323.195 917.224L325.149 917.089C325.284 919.178 325.486 921.199 325.755 923.288L323.802 923.49ZM549.977 917.291L548.023 917.156C548.157 915.135 548.292 913.046 548.292 910.957L550.246 911.024C550.179 913.113 550.111 915.202 549.977 917.291ZM322.858 910.957C322.858 910.283 322.858 909.542 322.858 908.868C322.858 907.453 322.858 906.038 322.926 904.623L324.88 904.691C324.812 906.038 324.812 907.453 324.812 908.868C324.812 909.542 324.812 910.216 324.812 910.89L322.858 910.957ZM550.246 908.868H548.292C548.292 906.779 548.225 904.691 548.09 902.669L550.044 902.534C550.179 904.623 550.246 906.779 550.246 908.868ZM325.284 898.559L323.33 898.357C323.532 896.268 323.802 894.179 324.071 892.09L326.025 892.36C325.755 894.381 325.486 896.47 325.284 898.559ZM547.618 896.47C547.416 894.449 547.079 892.36 546.743 890.338L548.696 890.001C549.033 892.09 549.303 894.179 549.572 896.268L547.618 896.47ZM327.103 886.295L325.216 885.891C325.621 883.802 326.16 881.781 326.631 879.759L328.518 880.231C327.979 882.185 327.507 884.274 327.103 886.295ZM545.597 884.274C545.126 882.32 544.654 880.298 544.048 878.277L545.934 877.738C546.541 879.827 547.012 881.848 547.484 883.87L545.597 884.274ZM330.27 874.301L328.383 873.695C329.057 871.674 329.731 869.72 330.472 867.765L332.291 868.507C331.617 870.393 330.876 872.347 330.27 874.301ZM542.229 872.347C541.555 870.393 540.814 868.439 540.005 866.553L541.824 865.811C542.633 867.765 543.374 869.72 544.048 871.741L542.229 872.347ZM334.716 862.779L332.965 861.971C333.84 860.084 334.784 858.13 335.727 856.311L337.479 857.187C336.535 859.006 335.592 860.893 334.716 862.779ZM537.512 860.893C536.637 859.073 535.693 857.187 534.683 855.367L536.367 854.424C537.378 856.311 538.321 858.197 539.264 860.017L537.512 860.893ZM340.443 851.796L338.759 850.785C339.837 849.033 340.982 847.214 342.127 845.462L343.744 846.54C342.599 848.292 341.521 850.044 340.443 851.796ZM531.583 849.977C530.505 848.225 529.36 846.473 528.147 844.788L529.764 843.643C530.977 845.327 532.122 847.079 533.268 848.899L531.583 849.977ZM347.383 841.554L345.833 840.409C347.113 838.724 348.393 837.107 349.741 835.49L351.223 836.77C349.943 838.252 348.595 839.87 347.383 841.554ZM524.442 839.87C523.162 838.252 521.814 836.635 520.467 835.085L521.949 833.805C523.296 835.355 524.644 836.972 525.991 838.657L524.442 839.87ZM355.333 832.053L353.918 830.706C355.333 829.156 356.882 827.674 358.365 826.259L359.712 827.674C358.23 829.089 356.815 830.571 355.333 832.053ZM516.29 830.571C514.807 829.089 513.325 827.606 511.843 826.259L513.123 824.844C514.673 826.259 516.155 827.674 517.637 829.223L516.29 830.571ZM364.361 823.563L363.081 822.081C364.765 820.666 366.382 819.386 367.999 818.173L369.144 819.723C367.527 820.935 365.91 822.216 364.361 823.563ZM507.127 822.216C505.51 820.935 503.893 819.655 502.208 818.442L503.354 816.892C505.038 818.105 506.722 819.453 508.339 820.733L507.127 822.216ZM374.265 816.084L373.187 814.467C374.939 813.321 376.69 812.176 378.509 811.098L379.52 812.782C377.701 813.793 375.949 814.938 374.265 816.084ZM497.088 814.938C495.404 813.86 493.584 812.715 491.765 811.704L492.709 810.02C494.528 811.03 496.347 812.176 498.098 813.321L497.088 814.938ZM384.91 809.75L384.034 807.998C385.921 807.055 387.807 806.111 389.694 805.236L390.502 806.987C388.616 807.863 386.729 808.807 384.91 809.75ZM486.375 808.807C484.489 807.863 482.602 806.987 480.783 806.179L481.524 804.36C483.411 805.168 485.365 806.044 487.251 806.987L486.375 808.807ZM396.161 804.629L395.42 802.81C397.374 802.069 399.328 801.327 401.349 800.721L401.956 802.608C400.069 803.214 398.048 803.888 396.161 804.629ZM474.989 803.888C473.035 803.147 471.081 802.54 469.128 801.934L469.667 800.047C471.688 800.654 473.642 801.327 475.663 802.069L474.989 803.888ZM408.019 800.788L407.548 798.902C409.569 798.363 411.658 797.891 413.679 797.487L414.083 799.373C411.994 799.778 409.973 800.249 408.019 800.788ZM463.199 800.317C461.178 799.845 459.156 799.373 457.135 799.036L457.472 797.082C459.493 797.487 461.582 797.891 463.67 798.43L463.199 800.317ZM420.147 798.295L419.877 796.341C421.966 796.004 424.054 795.802 426.143 795.6L426.345 797.554C424.189 797.756 422.168 798.026 420.147 798.295ZM451.004 798.026C448.983 797.756 446.894 797.554 444.806 797.419L444.94 795.465C447.029 795.6 449.118 795.802 451.206 796.072L451.004 798.026ZM432.476 797.15L432.409 795.196C433.824 795.128 435.171 795.128 436.586 795.128H438.675V797.082H436.586C435.171 797.082 433.824 797.15 432.476 797.15Z" fill="#ADBFC4"/>
</g>
<path d="M368.896 488.949C368.896 482.509 363.726 477.339 357.287 477.339C350.848 477.339 345.679 482.509 345.679 488.949C345.679 495.389 350.848 500.559 357.287 500.559C363.636 500.559 368.896 495.389 368.896 488.949Z" fill="#E0E0E0"/>
<path d="M474.788 913.046C349.27 913.046 247.198 810.963 247.198 685.431C247.198 559.899 349.27 457.817 474.788 457.817C600.306 457.817 702.378 559.899 702.378 685.431C702.378 810.963 600.306 913.046 474.788 913.046ZM474.788 459.771C350.348 459.771 249.152 560.978 249.152 685.431C249.152 809.885 350.348 911.092 474.788 911.092C599.228 911.092 700.424 809.885 700.424 685.431C700.424 560.978 599.228 459.771 474.788 459.771Z" fill="#ADBFC4"/>
<path d="M249.624 719.459C254.387 719.459 258.248 715.597 258.248 710.834C258.248 706.07 254.387 702.209 249.624 702.209C244.861 702.209 241 706.07 241 710.834C241 715.597 244.861 719.459 249.624 719.459Z" fill="#ADBFC4"/>
<path d="M445.211 908.869C445.211 904.085 441.37 900.244 436.587 900.244C431.803 900.244 427.963 904.085 427.963 908.869C427.963 913.653 431.803 917.494 436.587 917.494C441.303 917.494 445.211 913.653 445.211 908.869Z" fill="#ADBFC4"/>
<path d="M618.765 519.068C623.528 519.068 627.389 515.206 627.389 510.443C627.389 505.68 623.528 501.818 618.765 501.818C614.003 501.818 610.142 505.68 610.142 510.443C610.142 515.206 614.003 519.068 618.765 519.068Z" fill="#ADBFC4"/>
<path d="M488.519 467.25C493.282 467.25 497.143 463.388 497.143 458.625C497.143 453.861 493.282 450 488.519 450C483.757 450 479.896 453.861 479.896 458.625C479.896 463.388 483.757 467.25 488.519 467.25Z" fill="#ADBFC4"/>
<path d="M228.127 898.229C228.127 891.761 222.872 886.505 216.404 886.505C209.936 886.505 204.681 891.761 204.681 898.229C204.681 904.698 209.936 909.954 216.404 909.954C222.872 909.954 228.127 904.698 228.127 898.229Z" fill="#E0E0E0"/>
<path d="M263.782 731.444C263.782 725.717 259.133 721 253.338 721C247.544 721 242.896 725.649 242.896 731.444C242.896 737.172 247.544 741.888 253.338 741.888C259.133 741.888 263.782 737.172 263.782 731.444Z" fill="#ADBFC4"/>
<path d="M329.793 966.756H329.389V964.802H329.793C332.286 964.802 334.711 964.734 337.137 964.599L337.271 966.553C334.778 966.688 332.286 966.756 329.793 966.756ZM321.506 966.486C318.946 966.351 316.318 966.082 313.69 965.745L313.96 963.791C316.52 964.128 319.08 964.33 321.641 964.532L321.506 966.486ZM345.019 965.88L344.817 963.926C347.31 963.656 349.87 963.252 352.43 962.78L352.767 964.734C350.14 965.206 347.58 965.543 345.019 965.88ZM306.01 964.599C303.45 964.128 300.889 963.589 298.329 962.915L298.801 961.028C301.294 961.635 303.854 962.174 306.347 962.645L306.01 964.599ZM360.448 963.117L359.976 961.23C362.469 960.624 364.962 959.95 367.388 959.209L367.927 961.096C365.568 961.769 363.008 962.511 360.448 963.117ZM290.783 960.759C288.29 959.95 285.798 959.141 283.372 958.198L284.046 956.379C286.471 957.322 288.897 958.131 291.322 958.939L290.783 960.759ZM375.472 958.468L374.799 956.648C377.224 955.772 379.582 954.762 381.94 953.684L382.749 955.435C380.323 956.581 377.898 957.592 375.472 958.468ZM276.163 955.166C273.738 954.088 271.379 952.942 269.156 951.729L270.099 949.978C272.323 951.123 274.681 952.269 277.039 953.347L276.163 955.166ZM389.756 952.066L388.88 950.314C391.171 949.102 393.394 947.821 395.617 946.541L396.628 948.226C394.405 949.573 392.046 950.854 389.756 952.066ZM262.284 947.889C260.061 946.541 257.905 945.126 255.749 943.644L256.894 942.027C258.983 943.509 261.206 944.924 263.362 946.204L262.284 947.889ZM403.231 943.981L402.153 942.363C404.309 940.881 406.397 939.331 408.418 937.782L409.631 939.331C407.475 940.948 405.387 942.498 403.231 943.981ZM249.416 938.927C247.394 937.31 245.373 935.625 243.419 933.873L244.699 932.391C246.586 934.076 248.607 935.76 250.628 937.377L249.416 938.927ZM415.56 934.345L414.28 932.863C416.234 931.178 418.12 929.359 419.939 927.607L421.287 929.022C419.468 930.841 417.514 932.593 415.56 934.345ZM237.76 928.483C235.941 926.596 234.122 924.709 232.37 922.755L233.852 921.475C235.536 923.362 237.288 925.249 239.107 927.135L237.76 928.483ZM426.677 923.294L425.195 922.014C426.879 920.128 428.563 918.106 430.18 916.085L431.73 917.298C430.113 919.386 428.429 921.408 426.677 923.294ZM227.384 916.758C225.767 914.67 224.218 912.581 222.735 910.425L224.352 909.347C225.835 911.435 227.317 913.524 228.934 915.546L227.384 916.758ZM436.379 911.031L434.829 909.886C436.311 907.797 437.726 905.641 439.074 903.417L440.758 904.428C439.343 906.651 437.861 908.875 436.379 911.031ZM218.491 903.821C217.143 901.53 215.863 899.239 214.65 897.016L216.402 896.14C217.548 898.363 218.828 900.654 220.175 902.878L218.491 903.821ZM444.598 897.622L442.847 896.679C444.059 894.388 445.205 892.097 446.283 889.739L448.034 890.547C446.956 892.973 445.811 895.331 444.598 897.622ZM211.214 889.941C210.136 887.515 209.126 885.089 208.25 882.663L210.069 881.99C210.945 884.348 211.956 886.774 213.033 889.132L211.214 889.941ZM451.066 883.405L449.247 882.731C450.123 880.373 450.999 877.947 451.807 875.454L453.694 876.06C452.818 878.486 451.942 880.979 451.066 883.405ZM205.622 875.252C204.881 872.758 204.14 870.198 203.534 867.705L205.42 867.233C206.027 869.726 206.7 872.219 207.441 874.645L205.622 875.252ZM455.782 868.446L453.896 867.974C454.502 865.481 455.109 862.921 455.513 860.428L457.467 860.765C456.928 863.325 456.389 865.885 455.782 868.446ZM201.917 860.023C201.445 857.463 201.041 854.835 200.771 852.274L202.725 852.072C202.995 854.633 203.399 857.193 203.871 859.686L201.917 860.023ZM458.612 853.016L456.658 852.746C456.995 850.186 457.197 847.558 457.399 845.065L459.353 845.199C459.219 847.76 458.949 850.388 458.612 853.016ZM200.098 844.458C199.963 841.965 199.896 839.405 199.896 836.911V836.642H201.849V836.911C201.849 839.405 201.917 841.898 202.051 844.391L200.098 844.458ZM459.623 837.383H457.669V836.844C457.669 834.284 457.602 831.656 457.467 829.095L459.421 828.96C459.555 831.521 459.623 834.149 459.623 836.777V837.383ZM202.119 828.893L200.165 828.758C200.3 826.13 200.569 823.503 200.906 820.942L202.86 821.212C202.456 823.705 202.254 826.333 202.119 828.893ZM456.793 821.414C456.524 818.921 456.119 816.36 455.648 813.8L457.602 813.463C458.073 816.091 458.477 818.651 458.747 821.212L456.793 821.414ZM203.938 813.53L201.984 813.193C202.456 810.633 202.995 808.005 203.668 805.512L205.555 805.983C204.949 808.476 204.41 811.037 203.938 813.53ZM453.963 806.253C453.357 803.76 452.683 801.267 451.875 798.841L453.761 798.234C454.502 800.728 455.243 803.221 455.85 805.781L453.963 806.253ZM207.711 798.571L205.824 797.965C206.566 795.472 207.441 792.979 208.385 790.553L210.204 791.227C209.261 793.653 208.452 796.146 207.711 798.571ZM449.382 791.496C448.506 789.138 447.495 786.712 446.417 784.354L448.236 783.545C449.314 785.971 450.325 788.397 451.268 790.823L449.382 791.496ZM213.168 784.152L211.416 783.343C212.494 780.985 213.64 778.626 214.853 776.336L216.604 777.211C215.392 779.502 214.246 781.861 213.168 784.152ZM443.049 777.414C441.836 775.123 440.556 772.899 439.276 770.675L440.96 769.665C442.308 771.888 443.588 774.179 444.8 776.47L443.049 777.414ZM220.377 770.541L218.693 769.53C220.04 767.306 221.455 765.083 222.937 762.927L224.554 764.072C223.14 766.161 221.725 768.317 220.377 770.541ZM435.031 764.207C433.549 762.118 432.067 760.029 430.45 758.008L431.999 756.795C433.616 758.816 435.166 760.973 436.648 763.129L435.031 764.207ZM229.136 757.806L227.586 756.593C229.203 754.504 230.888 752.482 232.639 750.596L234.122 751.876C232.437 753.83 230.753 755.784 229.136 757.806ZM425.531 752.011C423.847 750.124 422.028 748.17 420.209 746.418L421.624 745.071C423.443 746.89 425.262 748.844 427.014 750.798L425.531 752.011ZM239.444 746.283L238.029 744.868C239.848 743.049 241.802 741.23 243.756 739.478L245.036 740.96C243.15 742.712 241.263 744.464 239.444 746.283ZM414.617 741.095C412.663 739.41 410.709 737.726 408.688 736.176L409.901 734.626C411.922 736.244 413.943 737.928 415.897 739.68L414.617 741.095ZM250.965 736.041L249.752 734.492C251.774 732.874 253.93 731.325 256.086 729.842L257.231 731.459C255.075 732.942 252.986 734.492 250.965 736.041ZM402.489 731.594C400.333 730.112 398.178 728.697 396.022 727.417L397.032 725.732C399.256 727.08 401.412 728.495 403.635 729.977L402.489 731.594ZM263.699 727.282L262.688 725.597C264.912 724.25 267.202 722.969 269.493 721.757L270.369 723.508C268.145 724.721 265.855 726.002 263.699 727.282ZM389.284 723.576C386.993 722.363 384.703 721.217 382.345 720.207L383.153 718.455C385.511 719.533 387.869 720.678 390.16 721.891L389.284 723.576ZM277.376 720.139L276.567 718.387C278.925 717.309 281.418 716.299 283.844 715.423L284.517 717.242C282.159 718.051 279.734 719.061 277.376 720.139ZM375.203 717.242C372.845 716.366 370.352 715.49 367.927 714.749L368.533 712.862C371.026 713.671 373.519 714.479 375.944 715.423L375.203 717.242ZM291.861 714.614L291.255 712.727C293.748 711.986 296.308 711.245 298.801 710.639L299.272 712.525C296.847 713.199 294.354 713.873 291.861 714.614ZM360.515 712.66C358.023 712.054 355.462 711.515 352.969 711.043L353.306 709.089C355.867 709.56 358.427 710.1 360.987 710.706L360.515 712.66ZM306.818 710.976L306.481 709.021C309.042 708.55 311.669 708.145 314.229 707.876L314.432 709.83C311.939 710.167 309.378 710.504 306.818 710.976ZM345.289 709.897C342.729 709.56 340.101 709.358 337.608 709.224L337.743 707.27C340.303 707.404 342.931 707.674 345.558 708.011L345.289 709.897ZM322.18 709.156L322.045 707.202C324.605 707.067 327.233 707 329.725 707L329.86 708.954H329.725C327.3 708.954 324.74 709.021 322.18 709.156Z" fill="#ADBFC4"/>
<path opacity="0.75" d="M233.788 526.046C108.27 526.046 6.19824 423.963 6.19824 298.431C6.19824 172.899 108.27 70.8165 233.788 70.8165C359.306 70.8165 461.378 172.899 461.378 298.431C461.378 423.963 359.306 526.046 233.788 526.046ZM233.788 72.7706C109.348 72.7706 8.15209 173.978 8.15209 298.431C8.15209 422.885 109.348 524.092 233.788 524.092C358.228 524.092 459.424 422.885 459.424 298.431C459.424 173.978 358.228 72.7706 233.788 72.7706Z" fill="#ADBFC4"/>
<path d="M124.912 101.949C124.912 97.1647 121.072 93.324 116.288 93.324C111.504 93.324 107.664 97.1647 107.664 101.949C107.664 106.733 111.504 110.574 116.288 110.574C121.004 110.574 124.912 106.733 124.912 101.949Z" fill="#ADBFC4"/>
<path d="M8.62388 332.459C13.3867 332.459 17.2478 328.597 17.2478 323.834C17.2478 319.07 13.3867 315.209 8.62388 315.209C3.86104 315.209 0 319.07 0 323.834C0 328.597 3.86104 332.459 8.62388 332.459Z" fill="#ADBFC4"/>
<path d="M377.765 132.068C382.528 132.068 386.389 128.206 386.389 123.443C386.389 118.68 382.528 114.818 377.765 114.818C373.003 114.818 369.142 118.68 369.142 123.443C369.142 128.206 373.003 132.068 377.765 132.068Z" fill="#ADBFC4"/>
<path d="M204.211 521.869C204.211 517.085 200.37 513.244 195.587 513.244C190.803 513.244 186.963 517.085 186.963 521.869C186.963 526.653 190.803 530.494 195.587 530.494C200.303 530.494 204.211 526.653 204.211 521.869Z" fill="#ADBFC4"/>
<path opacity="0.25" d="M395.351 616.137C393.263 616.137 391.174 616.07 389.085 616.003L389.153 614.049C391.241 614.116 393.263 614.183 395.351 614.183V616.137ZM401.684 616.07L401.617 614.116C403.706 614.049 405.794 613.981 407.815 613.846L407.95 615.8C405.862 615.868 403.773 616.003 401.684 616.07ZM382.82 615.598C380.731 615.464 378.642 615.261 376.554 614.992L376.756 613.038C378.777 613.24 380.866 613.442 382.954 613.577L382.82 615.598ZM414.216 615.194L414.014 613.24C416.103 613.038 418.124 612.768 420.212 612.499L420.414 614.453C418.326 614.722 416.305 614.992 414.216 615.194ZM370.355 614.251C368.267 613.981 366.178 613.577 364.157 613.24L364.494 611.286C366.515 611.69 368.604 611.96 370.625 612.297L370.355 614.251ZM426.613 613.51L426.276 611.555C428.297 611.219 430.386 610.814 432.407 610.41L432.811 612.297C430.79 612.768 428.701 613.173 426.613 613.51ZM357.959 612.027C355.937 611.555 353.849 611.084 351.828 610.545L352.299 608.658C354.32 609.197 356.342 609.669 358.363 610.073L357.959 612.027ZM438.942 610.949L438.471 609.062C440.492 608.591 442.513 608.052 444.467 607.445L445.006 609.332C442.985 609.871 440.964 610.41 438.942 610.949ZM345.764 608.86C343.743 608.254 341.721 607.647 339.768 606.974L340.374 605.087C342.328 605.761 344.282 606.367 346.303 606.974L345.764 608.86ZM451.002 607.445L450.396 605.559C452.35 604.885 454.371 604.211 456.325 603.537L456.999 605.356C455.045 606.165 453.024 606.839 451.002 607.445ZM333.839 604.885C331.885 604.143 329.931 603.402 328.045 602.594L328.786 600.774C330.672 601.583 332.626 602.324 334.58 603.065L333.839 604.885ZM462.86 603.133L462.119 601.313C464.073 600.505 465.959 599.696 467.846 598.888L468.654 600.64C466.768 601.516 464.814 602.392 462.86 603.133ZM322.318 600.101C320.431 599.225 318.545 598.349 316.658 597.405L317.534 595.653C319.353 596.597 321.24 597.473 323.126 598.349L322.318 600.101ZM474.381 598.012L473.505 596.26C475.392 595.316 477.211 594.373 479.03 593.43L479.973 595.182C478.087 596.125 476.268 597.068 474.381 598.012ZM311.066 594.441C309.247 593.43 307.428 592.419 305.609 591.341L306.62 589.656C308.371 590.735 310.19 591.745 312.009 592.756L311.066 594.441ZM485.431 592.015L484.42 590.33C486.239 589.252 487.991 588.174 489.742 587.096L490.753 588.78C489.069 589.926 487.25 591.004 485.431 592.015ZM300.286 588.039C298.535 586.894 296.783 585.748 295.099 584.535L296.244 582.918C297.928 584.131 299.68 585.277 301.432 586.355L300.286 588.039ZM496.076 585.344L494.998 583.727C496.682 582.581 498.434 581.369 500.051 580.156L501.196 581.705C499.512 582.918 497.827 584.131 496.076 585.344ZM289.978 580.897C288.294 579.617 286.677 578.336 284.992 577.056L286.205 575.506C287.822 576.787 289.439 578.067 291.123 579.28L289.978 580.897ZM506.182 577.865L504.969 576.315C506.586 575.035 508.203 573.687 509.753 572.339L511.033 573.822C509.483 575.237 507.866 576.584 506.182 577.865ZM280.209 573.013C278.592 571.666 277.042 570.251 275.493 568.836L276.84 567.421C278.39 568.836 279.872 570.183 281.489 571.531L280.209 573.013ZM515.816 569.712L514.469 568.297C516.018 566.882 517.501 565.467 518.983 564.052L520.33 565.467C518.848 566.882 517.366 568.297 515.816 569.712ZM270.979 564.523C269.496 563.041 268.014 561.558 266.599 560.009L268.014 558.661C269.429 560.143 270.844 561.626 272.326 563.108L270.979 564.523ZM524.777 560.952L523.362 559.604C524.777 558.122 526.192 556.572 527.539 555.022L529.022 556.303C527.607 557.852 526.192 559.402 524.777 560.952ZM262.422 555.359C261.075 553.81 259.727 552.192 258.38 550.575L259.929 549.362C261.209 550.979 262.557 552.529 263.904 554.146L262.422 555.359ZM533.131 551.519L531.649 550.306C532.997 548.689 534.277 547.071 535.49 545.454L537.039 546.667C535.759 548.284 534.412 549.901 533.131 551.519ZM254.472 545.589C253.192 543.904 251.979 542.22 250.766 540.535L252.383 539.39C253.596 541.074 254.809 542.759 256.022 544.444L254.472 545.589ZM540.745 541.546L539.128 540.401C540.34 538.716 541.486 537.032 542.631 535.28L544.248 536.358C543.17 538.177 541.957 539.862 540.745 541.546ZM247.263 535.28C246.118 533.528 245.04 531.708 243.962 529.957L245.646 528.946C246.724 530.698 247.802 532.517 248.947 534.202L247.263 535.28ZM547.684 531.102L546 530.091C547.078 528.339 548.156 526.52 549.166 524.768L550.851 525.711C549.84 527.531 548.762 529.35 547.684 531.102ZM240.728 524.499C239.717 522.679 238.706 520.793 237.763 518.906L239.515 518.03C240.458 519.849 241.401 521.736 242.412 523.555L240.728 524.499ZM553.815 520.186L552.064 519.31C553.007 517.491 553.95 515.604 554.826 513.785L556.578 514.594C555.702 516.48 554.759 518.299 553.815 520.186ZM235.068 513.246C234.192 511.359 233.316 509.405 232.508 507.451L234.327 506.71C235.136 508.597 236.011 510.551 236.82 512.437L235.068 513.246ZM559.205 508.866L557.386 508.125C558.195 506.238 559.003 504.284 559.744 502.397L561.563 503.139C560.822 505.025 560.014 506.912 559.205 508.866ZM230.15 501.656C229.409 499.702 228.668 497.748 227.994 495.727L229.813 495.12C230.487 497.074 231.161 499.028 231.902 500.982L230.15 501.656ZM563.787 497.142L561.9 496.535C562.574 494.581 563.248 492.627 563.854 490.606L565.74 491.212C565.134 493.166 564.46 495.188 563.787 497.142ZM226.107 489.73C225.501 487.708 224.962 485.687 224.423 483.665L226.31 483.194C226.849 485.215 227.388 487.169 227.994 489.191L226.107 489.73ZM567.492 485.148L565.606 484.609C566.145 482.587 566.684 480.633 567.155 478.612L569.042 479.083C568.57 481.105 568.031 483.126 567.492 485.148ZM222.941 477.534C222.469 475.512 222.065 473.423 221.661 471.402L223.615 471.065C224.019 473.087 224.423 475.108 224.895 477.129L222.941 477.534ZM570.322 472.884L568.435 472.48C568.84 470.459 569.177 468.437 569.513 466.348L571.467 466.685C571.13 468.774 570.726 470.863 570.322 472.884ZM220.583 465.203C220.246 463.114 219.976 461.093 219.774 459.004L221.728 458.802C221.998 460.89 222.267 462.912 222.537 464.933L220.583 465.203ZM572.276 460.486L570.322 460.217C570.591 458.195 570.794 456.106 570.996 454.018L572.949 454.152C572.747 456.376 572.545 458.397 572.276 460.486ZM219.168 452.737C219.033 450.649 218.898 448.56 218.764 446.471L220.718 446.403C220.785 448.492 220.92 450.514 221.122 452.603L219.168 452.737ZM573.421 447.953L571.467 447.886C571.602 445.797 571.669 443.776 571.669 441.687L573.623 441.754C573.556 443.776 573.488 445.932 573.421 447.953ZM218.629 440.204V438.587C218.629 437.037 218.629 435.42 218.696 433.871L220.65 433.938C220.583 435.488 220.583 437.037 220.583 438.587V440.137L218.629 440.204ZM573.623 438.587H571.669C571.669 436.498 571.602 434.41 571.535 432.388L573.488 432.321C573.623 434.41 573.623 436.498 573.623 438.587ZM220.92 427.739L218.966 427.604C219.101 425.515 219.235 423.426 219.437 421.338L221.391 421.54C221.189 423.561 221.054 425.65 220.92 427.739ZM571.265 426.189C571.13 424.1 570.928 422.079 570.726 419.99L572.68 419.788C572.882 421.877 573.084 423.965 573.219 426.054L571.265 426.189ZM222.132 415.341L220.179 415.071C220.448 412.982 220.785 410.893 221.122 408.872L223.076 409.209C222.671 411.23 222.402 413.319 222.132 415.341ZM569.985 413.791C569.716 411.702 569.379 409.681 568.974 407.659L570.928 407.322C571.265 409.411 571.602 411.433 571.939 413.521L569.985 413.791ZM224.154 403.077L222.267 402.673C222.671 400.584 223.143 398.563 223.615 396.541L225.501 397.013C225.029 399.034 224.558 401.056 224.154 403.077ZM567.762 401.595C567.29 399.573 566.886 397.552 566.347 395.53L568.233 395.059C568.772 397.08 569.244 399.102 569.648 401.191L567.762 401.595ZM227.118 391.016L225.232 390.477C225.771 388.455 226.377 386.434 227.051 384.48L228.937 385.086C228.263 387.04 227.657 388.994 227.118 391.016ZM564.73 389.534C564.123 387.512 563.517 385.558 562.911 383.604L564.797 382.998C565.471 384.952 566.077 386.973 566.684 388.994L564.73 389.534ZM230.891 379.157L229.072 378.483C229.813 376.529 230.554 374.575 231.295 372.621L233.114 373.362C232.306 375.316 231.565 377.203 230.891 379.157ZM560.822 377.674C560.081 375.72 559.34 373.766 558.531 371.88L560.351 371.138C561.159 373.092 561.9 375.047 562.641 377.001L560.822 377.674ZM235.472 367.635L233.653 366.826C234.529 364.939 235.405 362.985 236.281 361.166L238.033 362.042C237.224 363.861 236.348 365.748 235.472 367.635ZM556.106 366.152C555.23 364.265 554.354 362.379 553.411 360.492L555.163 359.684C556.106 361.57 556.982 363.457 557.858 365.344L556.106 366.152ZM240.862 356.517L239.111 355.573C240.054 353.754 241.132 351.867 242.142 350.048L243.827 351.059C242.884 352.878 241.873 354.697 240.862 356.517ZM550.581 355.034C549.571 353.215 548.56 351.396 547.482 349.644L549.166 348.633C550.244 350.452 551.255 352.272 552.266 354.091L550.581 355.034ZM247.061 345.736L245.376 344.725C246.454 342.973 247.6 341.221 248.813 339.469L250.43 340.547C249.284 342.232 248.206 343.984 247.061 345.736ZM544.248 344.321C543.103 342.569 541.957 340.817 540.812 339.132L542.429 338.054C543.642 339.806 544.787 341.558 545.932 343.31L544.248 344.321ZM254 335.494L252.451 334.348C253.663 332.664 254.944 330.979 256.224 329.362L257.773 330.575C256.493 332.125 255.213 333.809 254 335.494ZM537.174 334.079C535.961 332.394 534.681 330.777 533.401 329.16L534.951 327.88C536.231 329.497 537.511 331.181 538.791 332.866L537.174 334.079ZM261.681 325.656L260.199 324.376C261.546 322.759 262.894 321.209 264.309 319.659L265.791 320.939C264.376 322.556 263.028 324.106 261.681 325.656ZM529.426 324.308C528.078 322.759 526.731 321.209 525.316 319.659L526.731 318.311C528.146 319.861 529.561 321.411 530.908 323.028L529.426 324.308ZM270.035 316.425L268.621 315.077C270.103 313.595 271.585 312.112 273.067 310.63L274.415 312.045C272.932 313.527 271.45 314.942 270.035 316.425ZM521.004 315.212C519.522 313.729 518.04 312.314 516.557 310.832L517.905 309.417C519.454 310.832 520.937 312.314 522.419 313.797L521.004 315.212ZM278.929 307.867L277.649 306.385C279.198 304.97 280.815 303.622 282.432 302.275L283.712 303.757C282.095 305.105 280.478 306.452 278.929 307.867ZM511.976 306.654C510.426 305.307 508.809 303.959 507.26 302.611L508.472 301.129C510.089 302.477 511.706 303.824 513.256 305.172L511.976 306.654ZM288.496 299.849L287.283 298.299C288.968 297.019 290.585 295.739 292.336 294.526L293.482 296.143C291.797 297.356 290.113 298.569 288.496 299.849ZM502.341 298.771C500.724 297.49 499.04 296.278 497.356 295.065L498.501 293.448C500.185 294.66 501.87 295.873 503.554 297.154L502.341 298.771ZM298.602 292.572L297.524 290.954C299.276 289.809 301.027 288.663 302.779 287.518L303.79 289.203C302.038 290.281 300.286 291.426 298.602 292.572ZM492.235 291.628C490.484 290.483 488.732 289.405 486.98 288.327L487.991 286.642C489.81 287.72 491.562 288.866 493.313 290.011L492.235 291.628ZM309.18 286.036L308.237 284.351C310.056 283.34 311.875 282.33 313.761 281.319L314.637 283.003C312.818 284.014 310.931 285.025 309.18 286.036ZM481.59 285.227C479.771 284.216 477.952 283.273 476.133 282.33L477.009 280.578C478.895 281.521 480.714 282.532 482.533 283.543L481.59 285.227ZM320.162 280.241L319.353 278.489C321.24 277.613 323.126 276.737 325.08 275.861L325.889 277.68C323.935 278.489 322.048 279.365 320.162 280.241ZM470.608 279.5C468.722 278.624 466.835 277.748 464.949 276.939L465.69 275.12C467.644 275.928 469.53 276.804 471.417 277.68L470.608 279.5ZM331.615 275.255L330.874 273.435C332.828 272.694 334.782 271.953 336.803 271.212L337.477 273.031C335.456 273.772 333.502 274.513 331.615 275.255ZM459.155 274.648C457.201 273.907 455.247 273.166 453.293 272.492L453.899 270.673C455.853 271.346 457.874 272.088 459.828 272.829L459.155 274.648ZM343.338 271.077L342.732 269.19C344.753 268.584 346.707 267.977 348.728 267.438L349.267 269.325C347.314 269.864 345.292 270.47 343.338 271.077ZM447.432 270.605C445.478 269.999 443.456 269.46 441.435 268.921L441.907 267.034C443.928 267.573 445.949 268.18 447.97 268.786L447.432 270.605ZM355.331 267.775L354.859 265.889C356.881 265.417 358.969 264.945 360.99 264.541L361.395 266.428C359.373 266.832 357.352 267.304 355.331 267.775ZM435.439 267.438C433.418 266.967 431.396 266.562 429.375 266.158L429.779 264.271C431.868 264.676 433.889 265.08 435.911 265.552L435.439 267.438ZM367.526 265.35L367.189 263.395C369.277 263.059 371.299 262.722 373.387 262.519L373.657 264.474C371.568 264.676 369.547 265.013 367.526 265.35ZM423.244 265.08C421.223 264.743 419.134 264.474 417.113 264.204L417.315 262.25C419.404 262.519 421.492 262.789 423.514 263.126L423.244 265.08ZM379.855 263.732L379.653 261.778C381.742 261.576 383.83 261.441 385.919 261.307L386.054 263.261C383.965 263.395 381.876 263.53 379.855 263.732ZM410.847 263.598C408.759 263.395 406.738 263.261 404.649 263.193L404.716 261.239C406.805 261.307 408.893 261.509 410.982 261.644L410.847 263.598ZM392.252 263.059L392.185 261.104C393.465 261.104 394.812 261.037 396.092 261.037H398.45V262.991H396.092C394.812 262.991 393.532 262.991 392.252 263.059Z" fill="#E0E0E0"/>
<path opacity="0.25" d="M428.634 387.577C330.74 387.577 251.104 307.932 251.104 210.027C251.104 112.122 330.74 32.4768 428.634 32.4768C526.529 32.4768 606.165 112.122 606.165 210.027C606.165 307.932 526.529 387.577 428.634 387.577ZM428.634 34.4309C331.818 34.4309 253.057 113.2 253.057 210.027C253.057 306.854 331.818 385.623 428.634 385.623C525.451 385.623 604.211 306.854 604.211 210.027C604.211 113.2 525.451 34.4309 428.634 34.4309Z" fill="#E0E0E0"/>
<path d="M628.129 443.234C626.04 443.234 623.884 443.167 621.796 443.032L621.931 441.078C623.952 441.212 626.04 441.28 628.129 441.28V443.234ZM634.395 443.032L634.26 441.078C636.349 440.943 638.37 440.808 640.458 440.539L640.661 442.493C638.639 442.762 636.551 442.964 634.395 443.032ZM615.53 442.56C613.441 442.358 611.353 442.021 609.264 441.684L609.601 439.73C611.622 440.067 613.711 440.337 615.732 440.606L615.53 442.56ZM646.926 441.684L646.589 439.73C648.611 439.393 650.632 438.989 652.653 438.517L653.057 440.404C651.036 440.943 649.015 441.347 646.926 441.684ZM603.133 440.471C601.112 440 599.023 439.461 597.002 438.922L597.541 437.035C599.562 437.574 601.584 438.113 603.537 438.585L603.133 440.471ZM659.256 438.922L658.717 437.035C660.671 436.496 662.692 435.822 664.646 435.148L665.319 436.967C663.298 437.709 661.277 438.315 659.256 438.922ZM591.006 437.035C589.052 436.361 587.031 435.62 585.077 434.811L585.818 432.992C587.704 433.801 589.658 434.542 591.612 435.148L591.006 437.035ZM671.181 434.811L670.44 432.992C672.326 432.183 674.28 431.375 676.099 430.499L676.908 432.251C675.021 433.127 673.135 434.003 671.181 434.811ZM579.35 432.251C577.464 431.375 575.577 430.364 573.758 429.421L574.701 427.736C576.52 428.747 578.339 429.69 580.226 430.566L579.35 432.251ZM682.567 429.353L681.624 427.669C683.443 426.658 685.262 425.647 687.014 424.569L688.025 426.254C686.205 427.332 684.386 428.41 682.567 429.353ZM568.301 426.254C566.482 425.108 564.73 423.963 563.045 422.817L564.191 421.2C565.875 422.346 567.56 423.491 569.379 424.637L568.301 426.254ZM693.28 422.75L692.134 421.133C693.819 419.987 695.503 418.707 697.12 417.427L698.333 418.977C696.648 420.257 694.964 421.537 693.28 422.75ZM557.992 418.977C556.375 417.696 554.758 416.349 553.141 414.934L554.422 413.451C555.971 414.799 557.588 416.147 559.205 417.427L557.992 418.977ZM703.184 414.934L701.904 413.451C703.453 412.104 705.003 410.689 706.418 409.206L707.765 410.621C706.283 412.104 704.733 413.586 703.184 414.934ZM548.493 410.689C547.01 409.206 545.528 407.724 544.113 406.174L545.528 404.827C546.943 406.376 548.358 407.859 549.84 409.274L548.493 410.689ZM712.145 406.107L710.73 404.759C712.144 403.209 713.492 401.66 714.772 400.042L716.322 401.255C714.974 402.94 713.627 404.557 712.145 406.107ZM540.004 401.39C538.656 399.773 537.376 398.088 536.163 396.404L537.713 395.258C538.926 396.943 540.206 398.56 541.486 400.177L540.004 401.39ZM720.162 396.336L718.612 395.191C719.825 393.506 721.038 391.822 722.116 390.07L723.733 391.148C722.587 392.9 721.375 394.652 720.162 396.336ZM532.592 391.215C531.447 389.464 530.369 387.644 529.291 385.825L530.975 384.882C531.986 386.701 533.064 388.453 534.209 390.205L532.592 391.215ZM726.967 385.758L725.282 384.814C726.293 382.995 727.304 381.176 728.18 379.356L729.931 380.232C728.988 382.052 727.977 383.938 726.967 385.758ZM526.327 380.232C525.383 378.346 524.508 376.392 523.632 374.505L525.451 373.764C526.259 375.65 527.135 377.537 528.078 379.424L526.327 380.232ZM732.559 374.505L730.74 373.764C731.548 371.877 732.289 369.923 733.03 368.036L734.85 368.71C734.176 370.597 733.435 372.618 732.559 374.505ZM521.341 368.643C520.6 366.689 519.926 364.667 519.32 362.646L521.206 362.107C521.813 364.061 522.486 366.082 523.16 367.969L521.341 368.643ZM736.938 362.713L735.052 362.174C735.658 360.22 736.197 358.199 736.669 356.177L738.555 356.649C738.084 358.67 737.545 360.692 736.938 362.713ZM517.635 356.581C517.164 354.56 516.692 352.471 516.288 350.382L518.242 350.045C518.646 352.067 519.05 354.088 519.522 356.11L517.635 356.581ZM739.903 350.45L737.949 350.113C738.353 348.091 738.622 346.07 738.892 343.981L740.846 344.251C740.644 346.272 740.307 348.361 739.903 350.45ZM515.345 344.183C515.075 342.094 514.873 340.006 514.738 337.917L516.692 337.782C516.827 339.871 517.029 341.892 517.298 343.981L515.345 344.183ZM741.52 337.917L739.566 337.782C739.701 335.761 739.835 333.672 739.835 331.583L741.789 331.65C741.789 333.739 741.654 335.895 741.52 337.917ZM514.469 331.583C514.469 330.909 514.469 330.168 514.469 329.494C514.469 328.079 514.469 326.664 514.536 325.249L516.49 325.316C516.423 326.664 516.423 328.079 516.423 329.494C516.423 330.168 516.423 330.842 516.423 331.516L514.469 331.583ZM741.856 329.494H739.903C739.903 327.405 739.835 325.316 739.701 323.295L741.654 323.16C741.789 325.316 741.856 327.405 741.856 329.494ZM516.827 319.185L514.873 318.983C515.075 316.894 515.345 314.805 515.614 312.716L517.568 312.986C517.298 315.074 517.029 317.163 516.827 319.185ZM739.229 317.163C739.027 315.142 738.69 313.053 738.353 311.032L740.307 310.695C740.644 312.783 740.913 314.872 741.183 316.961L739.229 317.163ZM518.646 306.921L516.759 306.517C517.164 304.428 517.703 302.407 518.174 300.385L520.061 300.857C519.589 302.878 519.118 304.9 518.646 306.921ZM737.14 304.967C736.669 303.013 736.197 300.992 735.591 298.97L737.477 298.431C738.084 300.52 738.555 302.541 739.027 304.563L737.14 304.967ZM521.813 294.995L519.926 294.388C520.6 292.367 521.274 290.413 522.015 288.459L523.834 289.2C523.16 291.019 522.486 292.973 521.813 294.995ZM733.772 293.041C733.098 291.087 732.357 289.133 731.548 287.246L733.367 286.505C734.176 288.459 734.917 290.413 735.591 292.434L733.772 293.041ZM526.327 283.405L524.575 282.597C525.451 280.71 526.394 278.756 527.337 276.937L529.089 277.812C528.078 279.699 527.135 281.586 526.327 283.405ZM729.055 281.518C728.18 279.699 727.236 277.812 726.226 275.993L727.91 275.05C728.921 276.937 729.864 278.823 730.807 280.643L729.055 281.518ZM532.053 272.489L530.369 271.479C531.447 269.727 532.592 267.907 533.738 266.155L535.355 267.234C534.209 268.986 533.064 270.737 532.053 272.489ZM723.126 270.67C722.048 268.918 720.903 267.166 719.69 265.482L721.307 264.336C722.52 266.021 723.665 267.773 724.811 269.592L723.126 270.67ZM538.926 262.18L537.376 261.035C538.656 259.35 539.936 257.733 541.284 256.116L542.766 257.396C541.486 258.946 540.138 260.563 538.926 262.18ZM716.052 260.495C714.772 258.878 713.425 257.261 712.077 255.711L713.559 254.431C714.907 255.981 716.254 257.598 717.602 259.283L716.052 260.495ZM546.943 252.747L545.528 251.399C546.943 249.917 548.425 248.367 549.975 246.952L551.322 248.367C549.84 249.782 548.358 251.264 546.943 252.747ZM707.833 251.197C706.35 249.714 704.868 248.232 703.386 246.884L704.666 245.469C706.216 246.884 707.698 248.299 709.18 249.849L707.833 251.197ZM555.904 244.257L554.624 242.774C556.308 241.359 557.925 240.079 559.542 238.866L560.755 240.416C559.138 241.629 557.521 242.909 555.904 244.257ZM698.67 242.842C697.053 241.561 695.436 240.281 693.751 239.068L694.897 237.518C696.581 238.731 698.265 240.079 699.882 241.359L698.67 242.842ZM565.808 236.777L564.73 235.16C566.482 234.015 568.301 232.869 570.052 231.791L571.063 233.475C569.311 234.486 567.492 235.564 565.808 236.777ZM688.698 235.564C687.014 234.486 685.195 233.341 683.376 232.33L684.319 230.645C686.138 231.656 687.957 232.802 689.709 233.947L688.698 235.564ZM576.453 230.443L575.577 228.691C577.464 227.748 579.35 226.805 581.237 225.929L582.045 227.681C580.159 228.557 578.272 229.433 576.453 230.443ZM677.918 229.433C676.032 228.489 674.145 227.613 672.326 226.805L673.067 224.985C674.954 225.794 676.908 226.67 678.794 227.613L677.918 229.433ZM587.772 225.255L587.031 223.436C588.985 222.694 590.938 221.953 592.96 221.347L593.566 223.234C591.612 223.84 589.658 224.581 587.772 225.255ZM666.6 224.581C664.646 223.84 662.692 223.234 660.738 222.627L661.277 220.74C663.298 221.347 665.252 222.021 667.273 222.762L666.6 224.581ZM599.562 221.482L599.091 219.595C601.112 219.056 603.201 218.584 605.222 218.18L605.626 220.067C603.605 220.471 601.516 220.943 599.562 221.482ZM654.742 220.943C652.72 220.471 650.699 219.999 648.678 219.662L649.015 217.708C651.036 218.113 653.125 218.517 655.213 219.056L654.742 220.943ZM611.69 218.988L611.42 217.034C613.509 216.697 615.597 216.495 617.686 216.293L617.888 218.247C615.799 218.449 613.711 218.652 611.69 218.988ZM642.547 218.719C640.526 218.449 638.437 218.247 636.349 218.113L636.483 216.158C638.572 216.293 640.661 216.495 642.749 216.765L642.547 218.719ZM624.019 217.843L623.952 215.889C625.367 215.822 626.714 215.822 628.129 215.822H630.218V217.776H628.129C626.781 217.776 625.367 217.776 624.019 217.843Z" fill="#EDEFF0"/>
<path opacity="0.25" d="M195.587 635.541C193.498 635.541 191.342 635.473 189.254 635.339L189.388 633.384C191.41 633.519 193.498 633.587 195.587 633.587V635.541ZM201.853 635.406L201.718 633.452C203.807 633.317 205.828 633.182 207.916 632.913L208.119 634.867C206.097 635.136 203.941 635.271 201.853 635.406ZM182.988 634.867C180.899 634.665 178.811 634.328 176.722 633.991L177.059 632.037C179.08 632.374 181.169 632.643 183.19 632.913L182.988 634.867ZM214.384 633.991L214.047 632.037C216.069 631.7 218.09 631.296 220.111 630.824L220.515 632.711C218.494 633.25 216.406 633.654 214.384 633.991ZM170.524 632.778C168.503 632.306 166.414 631.835 164.393 631.228L164.932 629.342C166.953 629.881 168.974 630.42 170.928 630.891L170.524 632.778ZM226.646 631.228L226.107 629.342C228.061 628.803 230.082 628.129 232.036 627.455L232.71 629.274C230.689 630.083 228.668 630.689 226.646 631.228ZM158.396 629.342C156.443 628.668 154.421 627.927 152.467 627.118L153.209 625.299C155.095 626.107 157.049 626.848 159.003 627.455L158.396 629.342ZM238.572 627.118L237.83 625.299C239.717 624.49 241.671 623.682 243.49 622.806L244.298 624.558C242.479 625.501 240.525 626.377 238.572 627.118ZM146.741 624.558C144.854 623.682 142.968 622.671 141.149 621.727L142.092 620.043C143.911 621.054 145.73 621.997 147.617 622.873L146.741 624.558ZM249.958 621.727L249.015 620.043C250.834 619.032 252.653 618.021 254.405 616.943L255.415 618.628C253.663 619.639 251.844 620.717 249.958 621.727ZM135.691 618.561C133.872 617.415 132.12 616.27 130.436 615.124L131.581 613.507C133.266 614.652 134.95 615.798 136.769 616.943L135.691 618.561ZM260.738 615.057L259.592 613.44C261.277 612.294 262.961 611.014 264.578 609.734L265.791 611.283C264.106 612.631 262.422 613.844 260.738 615.057ZM125.383 611.351C123.766 610.071 122.149 608.723 120.532 607.308L121.812 605.826C123.362 607.173 124.979 608.521 126.596 609.801L125.383 611.351ZM270.642 607.308L269.362 605.826C270.911 604.478 272.393 603.063 273.876 601.58L275.223 602.995C273.741 604.478 272.191 605.893 270.642 607.308ZM115.951 602.995C114.468 601.513 112.986 600.031 111.571 598.481L112.986 597.133C114.401 598.683 115.816 600.165 117.298 601.58L115.951 602.995ZM279.602 598.481L278.188 597.133C279.602 595.584 280.95 594.034 282.23 592.417L283.78 593.629C282.432 595.247 281.017 596.864 279.602 598.481ZM107.462 593.697C106.114 592.08 104.834 590.395 103.621 588.711L105.171 587.565C106.384 589.25 107.664 590.867 108.944 592.484L107.462 593.697ZM287.553 588.711L286.003 587.565C287.216 585.881 288.428 584.196 289.506 582.444L291.123 583.522C289.978 585.207 288.833 586.959 287.553 588.711ZM100.05 583.522C98.905 581.77 97.827 579.951 96.7491 578.132L98.4334 577.188C99.444 579.008 100.522 580.76 101.667 582.511L100.05 583.522ZM294.425 578.132L292.74 577.188C293.751 575.369 294.762 573.55 295.637 571.73L297.389 572.606C296.446 574.426 295.435 576.312 294.425 578.132ZM93.7846 572.539C92.8414 570.652 91.9655 568.698 91.0896 566.812L92.9087 566.07C93.7172 567.957 94.5931 569.844 95.5363 571.73L93.7846 572.539ZM300.017 566.879L298.198 566.138C299.006 564.251 299.747 562.297 300.488 560.41L302.308 561.084C301.634 562.971 300.825 564.925 300.017 566.879ZM88.7989 560.949C88.0578 558.995 87.3841 556.974 86.7777 554.952L88.6642 554.413C89.2705 556.367 89.9443 558.389 90.618 560.276L88.7989 560.949ZM304.329 555.02L302.442 554.481C303.049 552.459 303.588 550.505 304.059 548.484L305.946 548.956C305.541 550.977 305.002 552.998 304.329 555.02ZM85.0933 548.888C84.6217 546.867 84.1501 544.778 83.7459 542.689L85.6997 542.352C86.0366 544.374 86.5082 546.395 86.9798 548.416L85.0933 548.888ZM307.361 542.756L305.407 542.42C305.811 540.398 306.08 538.377 306.35 536.288L308.304 536.557C308.034 538.646 307.697 540.735 307.361 542.756ZM82.8026 536.49C82.5331 534.401 82.331 532.312 82.1962 530.224L84.1501 530.089C84.2848 532.178 84.487 534.199 84.7565 536.288L82.8026 536.49ZM308.978 530.291L307.024 530.156C307.158 528.135 307.293 526.046 307.293 523.957L309.247 524.024C309.18 526.113 309.112 528.202 308.978 530.291ZM81.8594 523.957C81.8594 523.283 81.8594 522.542 81.8594 521.868C81.8594 520.453 81.8594 519.038 81.9268 517.623L83.8806 517.691C83.8132 519.038 83.8132 520.453 83.8132 521.868C83.8132 522.542 83.8132 523.216 83.8132 523.89L81.8594 523.957ZM309.247 521.868H307.293C307.293 519.779 307.226 517.691 307.091 515.669L309.045 515.534C309.18 517.623 309.247 519.779 309.247 521.868ZM84.2848 511.559L82.331 511.357C82.5331 509.268 82.8026 507.179 83.0721 505.09L85.026 505.36C84.7565 507.381 84.487 509.47 84.2848 511.559ZM306.619 509.47C306.417 507.449 306.08 505.36 305.744 503.338L307.697 503.001C308.034 505.09 308.304 507.179 308.573 509.268L306.619 509.47ZM86.1039 499.295L84.2175 498.891C84.6217 496.802 85.1607 494.781 85.6323 492.759L87.5188 493.231C86.9798 495.185 86.5082 497.274 86.1039 499.295ZM304.598 497.274C304.127 495.32 303.655 493.298 303.049 491.277L304.935 490.738C305.541 492.827 306.013 494.848 306.485 496.87L304.598 497.274ZM89.2705 487.301L87.3841 486.695C88.0578 484.674 88.7315 482.72 89.4726 480.765L91.2918 481.507C90.618 483.393 89.8769 485.347 89.2705 487.301ZM301.23 485.347C300.556 483.393 299.815 481.439 299.006 479.553L300.825 478.811C301.634 480.765 302.375 482.72 303.049 484.741L301.23 485.347ZM93.7172 475.779L91.9655 474.971C92.8414 473.084 93.7846 471.13 94.7278 469.311L96.4796 470.187C95.5363 472.006 94.5931 473.893 93.7172 475.779ZM296.513 473.893C295.637 472.073 294.694 470.187 293.684 468.367L295.368 467.424C296.379 469.311 297.322 471.197 298.265 473.017L296.513 473.893ZM99.444 464.796L97.7597 463.785C98.8377 462.033 99.983 460.214 101.128 458.462L102.745 459.54C101.6 461.292 100.522 463.044 99.444 464.796ZM290.584 462.977C289.506 461.225 288.361 459.473 287.148 457.788L288.765 456.643C289.978 458.327 291.123 460.079 292.269 461.899L290.584 462.977ZM106.384 454.554L104.834 453.409C106.114 451.724 107.394 450.107 108.742 448.49L110.224 449.77C108.944 451.252 107.596 452.87 106.384 454.554ZM283.443 452.87C282.163 451.252 280.815 449.635 279.468 448.085L280.95 446.805C282.297 448.355 283.645 449.972 284.992 451.657L283.443 452.87ZM114.334 445.053L112.919 443.706C114.334 442.156 115.883 440.674 117.366 439.259L118.713 440.674C117.231 442.089 115.816 443.571 114.334 445.053ZM275.29 443.571C273.808 442.089 272.326 440.606 270.844 439.259L272.124 437.844C273.674 439.259 275.156 440.674 276.638 442.223L275.29 443.571ZM123.362 436.563L122.082 435.081C123.766 433.666 125.383 432.386 127 431.173L128.145 432.723C126.528 433.935 124.911 435.216 123.362 436.563ZM266.128 435.216C264.511 433.935 262.894 432.655 261.209 431.442L262.355 429.892C264.039 431.105 265.723 432.453 267.34 433.733L266.128 435.216ZM133.266 429.084L132.188 427.467C133.94 426.321 135.691 425.176 137.51 424.098L138.521 425.782C136.702 426.793 134.95 427.938 133.266 429.084ZM256.089 427.938C254.405 426.86 252.585 425.715 250.766 424.704L251.71 423.02C253.529 424.03 255.348 425.176 257.099 426.321L256.089 427.938ZM143.911 422.75L143.035 420.998C144.922 420.055 146.808 419.111 148.694 418.236L149.503 419.987C147.617 420.863 145.73 421.807 143.911 422.75ZM245.376 421.807C243.49 420.863 241.603 419.987 239.784 419.179L240.525 417.36C242.412 418.168 244.366 419.044 246.252 419.987L245.376 421.807ZM155.162 417.629L154.421 415.81C156.375 415.069 158.329 414.327 160.35 413.721L160.957 415.608C159.07 416.214 157.049 416.888 155.162 417.629ZM233.99 416.888C232.036 416.147 230.082 415.54 228.129 414.934L228.668 413.047C230.689 413.654 232.643 414.327 234.664 415.069L233.99 416.888ZM167.02 413.788L166.549 411.902C168.57 411.363 170.658 410.891 172.68 410.487L173.084 412.373C170.995 412.778 168.974 413.249 167.02 413.788ZM222.2 413.317C220.178 412.845 218.157 412.373 216.136 412.036L216.473 410.082C218.494 410.487 220.583 410.891 222.671 411.43L222.2 413.317ZM179.148 411.295L178.878 409.341C180.967 409.004 183.055 408.802 185.144 408.6L185.346 410.554C183.19 410.756 181.169 411.026 179.148 411.295ZM210.005 411.026C207.984 410.756 205.895 410.554 203.807 410.419L203.941 408.465C206.03 408.6 208.118 408.802 210.207 409.072L210.005 411.026ZM191.477 410.15L191.41 408.196C192.825 408.128 194.172 408.128 195.587 408.128H197.675V410.082H195.587C194.172 410.082 192.825 410.15 191.477 410.15Z" fill="#ADBFC4"/>
</g>
<path d="M470.338 557.244H469.933V555.29H470.338C472.831 555.29 475.256 555.223 477.682 555.088L477.816 557.042C475.323 557.177 472.831 557.244 470.338 557.244ZM462.051 556.975C459.491 556.84 456.863 556.57 454.235 556.233L454.505 554.279C457.065 554.616 459.625 554.818 462.185 555.021L462.051 556.975ZM485.564 556.368L485.362 554.414C487.855 554.145 490.415 553.74 492.975 553.269L493.312 555.223C490.685 555.694 488.124 556.031 485.564 556.368ZM446.555 555.088C443.994 554.616 441.434 554.077 438.874 553.403L439.346 551.517C441.838 552.123 444.399 552.662 446.892 553.134L446.555 555.088ZM500.993 553.605L500.521 551.719C503.014 551.112 505.507 550.439 507.932 549.697L508.471 551.584C506.113 552.258 503.553 552.999 500.993 553.605ZM431.328 551.247C428.835 550.439 426.342 549.63 423.917 548.687L424.591 546.867C427.016 547.811 429.442 548.619 431.867 549.428L431.328 551.247ZM516.017 548.956L515.344 547.137C517.769 546.261 520.127 545.25 522.485 544.172L523.294 545.924C520.868 547.069 518.443 548.08 516.017 548.956ZM416.708 545.654C414.282 544.576 411.924 543.431 409.701 542.218L410.644 540.466C412.868 541.612 415.226 542.757 417.584 543.835L416.708 545.654ZM530.301 542.555L529.425 540.803C531.716 539.59 533.939 538.31 536.162 537.03L537.173 538.714C534.95 540.062 532.591 541.342 530.301 542.555ZM402.829 538.377C400.606 537.03 398.45 535.615 396.294 534.132L397.439 532.515C399.528 533.997 401.751 535.412 403.907 536.693L402.829 538.377ZM543.776 534.469L542.698 532.852C544.854 531.37 546.942 529.82 548.963 528.27L550.176 529.82C548.02 531.437 545.931 532.987 543.776 534.469ZM389.96 529.416C387.939 527.798 385.918 526.114 383.964 524.362L385.244 522.88C387.131 524.564 389.152 526.249 391.173 527.866L389.96 529.416ZM556.105 524.834L554.825 523.351C556.779 521.667 558.665 519.847 560.484 518.095L561.832 519.51C560.013 521.33 558.059 523.082 556.105 524.834ZM378.305 518.971C376.486 517.085 374.666 515.198 372.915 513.244L374.397 511.964C376.081 513.85 377.833 515.737 379.652 517.624L378.305 518.971ZM567.222 513.783L565.739 512.503C567.424 510.616 569.108 508.595 570.725 506.573L572.275 507.786C570.658 509.875 568.973 511.896 567.222 513.783ZM367.929 507.247C366.312 505.158 364.762 503.069 363.28 500.913L364.897 499.835C366.379 501.924 367.862 504.013 369.479 506.034L367.929 507.247ZM576.924 501.52L575.374 500.374C576.856 498.285 578.271 496.129 579.619 493.906L581.303 494.916C579.888 497.14 578.406 499.363 576.924 501.52ZM359.036 494.31C357.688 492.019 356.408 489.728 355.195 487.504L356.947 486.628C358.092 488.852 359.373 491.143 360.72 493.366L359.036 494.31ZM585.143 488.111L583.392 487.167C584.604 484.876 585.75 482.585 586.828 480.227L588.579 481.036C587.501 483.461 586.356 485.82 585.143 488.111ZM351.759 480.429C350.681 478.003 349.671 475.578 348.795 473.152L350.614 472.478C351.49 474.837 352.5 477.262 353.578 479.621L351.759 480.429ZM591.611 473.893L589.792 473.219C590.668 470.861 591.544 468.435 592.352 465.942L594.239 466.549C593.363 468.974 592.487 471.467 591.611 473.893ZM346.167 465.74C345.426 463.247 344.685 460.686 344.079 458.193L345.965 457.722C346.571 460.215 347.245 462.708 347.986 465.134L346.167 465.74ZM596.327 458.935L594.441 458.463C595.047 455.97 595.654 453.409 596.058 450.916L598.012 451.253C597.473 453.814 596.934 456.374 596.327 458.935ZM342.462 450.512C341.99 447.951 341.586 445.323 341.316 442.763L343.27 442.561C343.54 445.121 343.944 447.682 344.416 450.175L342.462 450.512ZM599.157 443.504L597.203 443.235C597.54 440.674 597.742 438.046 597.944 435.553L599.898 435.688C599.763 438.248 599.494 440.876 599.157 443.504ZM340.643 434.947C340.508 432.454 340.44 429.893 340.44 427.4V427.13H342.394V427.4C342.394 429.893 342.462 432.386 342.596 434.879L340.643 434.947ZM600.168 427.872H598.214V427.333C598.214 424.772 598.146 422.144 598.012 419.584L599.966 419.449C600.1 422.009 600.168 424.637 600.168 427.265V427.872ZM342.664 419.382L340.71 419.247C340.845 416.619 341.114 413.991 341.451 411.431L343.405 411.7C343.001 414.193 342.799 416.821 342.664 419.382ZM597.338 411.902C597.068 409.409 596.664 406.849 596.193 404.288L598.146 403.951C598.618 406.579 599.022 409.14 599.292 411.7L597.338 411.902ZM344.483 404.019L342.529 403.682C343.001 401.121 343.54 398.493 344.213 396L346.1 396.472C345.494 398.965 344.955 401.525 344.483 404.019ZM594.508 396.741C593.902 394.248 593.228 391.755 592.42 389.329L594.306 388.723C595.047 391.216 595.788 393.709 596.395 396.27L594.508 396.741ZM348.256 389.06L346.369 388.454C347.11 385.96 347.986 383.467 348.93 381.042L350.749 381.715C349.805 384.141 348.997 386.634 348.256 389.06ZM589.927 381.985C589.051 379.627 588.04 377.201 586.962 374.842L588.781 374.034C589.859 376.46 590.87 378.885 591.813 381.311L589.927 381.985ZM353.713 374.64L351.961 373.832C353.039 371.473 354.185 369.115 355.397 366.824L357.149 367.7C355.936 369.991 354.791 372.349 353.713 374.64ZM583.594 367.902C582.381 365.611 581.101 363.388 579.821 361.164L581.505 360.153C582.853 362.377 584.133 364.668 585.345 366.959L583.594 367.902ZM360.922 361.029L359.238 360.019C360.585 357.795 362 355.571 363.482 353.415L365.099 354.561C363.685 356.649 362.27 358.806 360.922 361.029ZM575.576 354.695C574.094 352.607 572.612 350.518 570.995 348.496L572.544 347.283C574.161 349.305 575.711 351.461 577.193 353.617L575.576 354.695ZM369.681 348.294L368.131 347.081C369.748 344.992 371.433 342.971 373.184 341.084L374.666 342.365C372.982 344.319 371.298 346.273 369.681 348.294ZM566.076 342.499C564.392 340.613 562.573 338.659 560.754 336.907L562.169 335.559C563.988 337.378 565.807 339.332 567.559 341.286L566.076 342.499ZM379.989 336.772L378.574 335.357C380.393 333.538 382.347 331.718 384.301 329.966L385.581 331.449C383.695 333.201 381.808 334.953 379.989 336.772ZM555.162 331.584C553.208 329.899 551.254 328.214 549.233 326.665L550.446 325.115C552.467 326.732 554.488 328.417 556.442 330.169L555.162 331.584ZM391.51 326.53L390.297 324.98C392.319 323.363 394.474 321.813 396.63 320.331L397.776 321.948C395.62 323.43 393.531 324.98 391.51 326.53ZM543.034 322.083C540.878 320.6 538.722 319.185 536.566 317.905L537.577 316.221C539.8 317.568 541.956 318.983 544.18 320.466L543.034 322.083ZM404.244 317.77L403.233 316.086C405.456 314.738 407.747 313.458 410.038 312.245L410.914 313.997C408.69 315.21 406.4 316.49 404.244 317.77ZM529.829 314.064C527.538 312.851 525.248 311.706 522.89 310.695L523.698 308.943C526.056 310.021 528.414 311.167 530.705 312.38L529.829 314.064ZM417.921 310.628L417.112 308.876C419.47 307.798 421.963 306.787 424.389 305.911L425.062 307.73C422.704 308.539 420.279 309.55 417.921 310.628ZM515.748 307.73C513.39 306.855 510.897 305.979 508.471 305.237L509.078 303.351C511.571 304.159 514.064 304.968 516.489 305.911L515.748 307.73ZM432.406 305.103L431.8 303.216C434.293 302.475 436.853 301.734 439.346 301.127L439.817 303.014C437.392 303.688 434.899 304.361 432.406 305.103ZM501.06 303.149C498.568 302.542 496.007 302.003 493.514 301.531L493.851 299.577C496.412 300.049 498.972 300.588 501.532 301.195L501.06 303.149ZM447.363 301.464L447.026 299.51C449.586 299.038 452.214 298.634 454.774 298.364L454.976 300.319C452.484 300.655 449.923 300.992 447.363 301.464ZM485.834 300.386C483.274 300.049 480.646 299.847 478.153 299.712L478.288 297.758C480.848 297.893 483.476 298.162 486.103 298.499L485.834 300.386ZM462.724 299.645L462.59 297.691C465.15 297.556 467.778 297.489 470.27 297.489L470.405 299.443H470.27C467.845 299.443 465.285 299.51 462.724 299.645Z" fill="#00C1F3"/>
<path d="M599.225 376.459C599.225 370.732 594.576 366.015 588.782 366.015C582.988 366.015 578.339 370.664 578.339 376.459C578.339 382.186 582.988 386.903 588.782 386.903C594.576 386.903 599.225 382.186 599.225 376.459Z" fill="#00C1F3"/>
<path d="M472.157 298.431C472.157 291.963 466.902 286.707 460.434 286.707C453.966 286.707 448.711 291.963 448.711 298.431C448.711 304.9 453.966 310.156 460.434 310.156C466.902 310.156 472.157 304.9 472.157 298.431Z" fill="#00C1F3"/>
<path d="M368.672 488.718C368.672 482.249 363.417 476.993 356.949 476.993C350.481 476.993 345.226 482.249 345.226 488.718C345.226 495.186 350.481 500.442 356.949 500.442C363.417 500.442 368.672 495.186 368.672 488.718Z" fill="#38C0E0"/>
</svg>
