<?xml version="1.0" encoding="utf-8"?>
<!-- Generator: Adobe Illustrator 25.1.0, SVG Export Plug-In . SVG Version: 6.00 Build 0)  -->
<svg version="1.1" id="Layer_1" xmlns="http://www.w3.org/2000/svg" xmlns:xlink="http://www.w3.org/1999/xlink" x="0px" y="0px"
	 viewBox="0 0 73 125" style="enable-background:new 0 0 73 125;" xml:space="preserve">
<style type="text/css">
	.st0{fill:url(#SVGID_1_);}
	.st1{filter:url(#Adobe_OpacityMaskFilter);}
	.st2{opacity:0.18;mask:url(#SVGID_2_);}
	.st3{fill:#FFFFFF;}
</style>
<g>
	<g>
		
			<linearGradient id="SVGID_1_" gradientUnits="userSpaceOnUse" x1="36.5" y1="-2.1074" x2="36.5" y2="124.8702" gradientTransform="matrix(-1 0 0 1 73 0)">
			<stop  offset="0" style="stop-color:#8AF7B6"/>
			<stop  offset="1" style="stop-color:#00B5C3"/>
		</linearGradient>
		<path class="st0" d="M37.9,23.2h9.7C68.6,13.2,72.4,4.1,73,0v125c-0.6-4.1-4.4-13.2-25.5-23.2c0,0-9.3,0-9.6,0
			C17,101.8,0,84.2,0,62.5S17,23.2,37.9,23.2z"/>
	</g>
	<defs>
		<filter id="Adobe_OpacityMaskFilter" filterUnits="userSpaceOnUse" x="0" y="0" width="73" height="125">
			
				<feColorMatrix  type="matrix" values="-1 0 0 0 1  0 -1 0 0 1  0 0 -1 0 1  0 0 0 1 0" color-interpolation-filters="sRGB" result="source"/>
		</filter>
	</defs>
	<mask maskUnits="userSpaceOnUse" x="0" y="0" width="73" height="125" id="SVGID_2_">
		<g class="st1">
			<image style="overflow:visible;" width="77" height="129" xlink:href="13241489.jpg"  transform="matrix(1 0 0 1 -2 -2)">
			</image>
		</g>
	</mask>
	<g class="st2">
		<path d="M37.9,23.2h9.7C68.6,13.2,72.4,4.1,73,0v125c-0.6-4.1-4.4-13.2-25.5-23.2c0,0-9.3,0-9.6,0C17,101.8,0,84.2,0,62.5
			S17,23.2,37.9,23.2z"/>
	</g>
</g>
<g transform="matrix(1 0 0 1 -17 -47 )">
	<path class="st3" d="M57.7,115.9l2.5-4.8h8.2c0,0,0-0.1-0.1-0.2c0-0.1,0-0.2-0.1-0.2l-5.5-12.2H44.3l-5.5,12.2c0,0.1,0,0.1-0.1,0.2
		s0,0.2-0.1,0.2h8.2l2.5,4.8H57.7z M72.8,108.8c0.4,1,0.7,2,0.7,3.1v12.1c0,0.4-0.2,0.8-0.5,1.1c-0.3,0.3-0.7,0.5-1.2,0.5H35.2
		c-0.5,0-0.8-0.2-1.2-0.5s-0.5-0.7-0.5-1.1v-12.1c0-1,0.2-2.1,0.7-3.1L40.3,95c0.2-0.4,0.5-0.8,1-1c0.5-0.3,0.9-0.4,1.4-0.4h21.7
		c0.5,0,0.9,0.1,1.4,0.4c0.5,0.3,0.8,0.6,1,1L72.8,108.8z"/>
</g>
</svg>
