<?xml version="1.0" encoding="utf-8"?>
<!-- Generator: Adobe Illustrator 25.1.0, SVG Export Plug-In . SVG Version: 6.00 Build 0)  -->
<svg version="1.1" id="Layer_1" xmlns="http://www.w3.org/2000/svg" xmlns:xlink="http://www.w3.org/1999/xlink" x="0px" y="0px"
	 viewBox="0 0 50 50" style="enable-background:new 0 0 50 50;" xml:space="preserve">
<style type="text/css">
	.st0{fill:#FFFFFF;}
	.st1{fill:#00B5C3;}
</style>
<circle class="st0" cx="25" cy="25" r="23.8"/>
<path class="st1" d="M39.4,32.7H13.5V14.4c0-0.5-0.4-1-1-1h-1.9c-0.5,0-1,0.4-1,1v20.2c0,1.1,0.9,1.9,1.9,1.9h27.9c0.5,0,1-0.4,1-1
	v-1.9C40.4,33.1,39.9,32.7,39.4,32.7z M37.5,15.4h-7.1c-1.3,0-1.9,1.6-1,2.5l1.9,1.9l-4.4,4.4l-4.4-4.4c-0.8-0.8-2-0.8-2.7,0
	l-4.1,4.1c-0.4,0.4-0.4,1,0,1.4l1.4,1.4c0.4,0.4,1,0.4,1.4,0l2.8-2.8l4.4,4.4c0.8,0.8,2,0.8,2.7,0l5.8-5.8l1.9,1.9
	c0.9,0.9,2.5,0.3,2.5-1v-7.1C38.5,15.8,38,15.4,37.5,15.4z"/>
</svg>
