<?xml version="1.0" encoding="utf-8"?>
<!-- Generator: Adobe Illustrator 15.1.0, SVG Export Plug-In . SVG Version: 6.00 Build 0)  -->
<!DOCTYPE svg PUBLIC "-//W3C//DTD SVG 1.1//EN" "http://www.w3.org/Graphics/SVG/1.1/DTD/svg11.dtd">
<svg version="1.1" id="Layer_1" focusable="false" xmlns="http://www.w3.org/2000/svg" xmlns:xlink="http://www.w3.org/1999/xlink"
	 x="0px" y="0px" width="201.5px" height="208px" viewBox="49.25 0 201.5 208" enable-background="new 49.25 0 201.5 208"
	 xml:space="preserve">
<path fill="#C61C52" d="M150,3.25C94.344,3.25,49.25,48.344,49.25,104S94.344,204.75,150,204.75S250.75,159.656,250.75,104
	S205.656,3.25,150,3.25z M199.4,130.447c1.909,1.909,1.909,4.996,0,6.906L183.313,153.4c-1.909,1.909-4.997,1.909-6.906,0
	L150,126.75l-26.447,26.65c-1.91,1.909-4.997,1.909-6.906,0L100.6,137.313c-1.91-1.909-1.91-4.997,0-6.906L127.25,104L100.6,77.553
	c-1.91-1.91-1.91-4.997,0-6.906l16.087-16.087c1.909-1.91,4.997-1.91,6.906,0L150,81.25l26.447-26.65c1.909-1.91,4.996-1.91,6.906,0
	l16.087,16.087c1.909,1.909,1.909,4.997,0,6.906L172.75,104L199.4,130.447z"/>
</svg>
