<?xml version="1.0" encoding="utf-8"?>
<!-- Generator: Adobe Illustrator 25.2.0, SVG Export Plug-In . SVG Version: 6.00 Build 0)  -->
<svg version="1.1" id="Layer_1" xmlns="http://www.w3.org/2000/svg" xmlns:xlink="http://www.w3.org/1999/xlink" x="0px" y="0px"
	 viewBox="0 0 50 50" style="enable-background:new 0 0 50 50;" xml:space="preserve">
<style type="text/css">
	.st0{fill:#FFFFFF;}
	.st1{fill:#00B5C3;}
</style>
<circle class="st0" cx="25" cy="25" r="25"/>
<path class="st1" d="M11.3,11.3c-1.8,0-3.2,1.4-3.2,3.2s1.4,3.2,3.2,3.2s3.2-1.4,3.2-3.2S13,11.3,11.3,11.3z M11.3,21.8
	c-1.8,0-3.2,1.4-3.2,3.2s1.4,3.2,3.2,3.2s3.2-1.4,3.2-3.2S13,21.8,11.3,21.8z M11.3,32.4c-1.8,0-3.2,1.4-3.2,3.2
	c0,1.8,1.4,3.2,3.2,3.2s3.2-1.4,3.2-3.2C14.4,33.8,13,32.4,11.3,32.4z M40.9,33.5H19.7c-0.6,0-1.1,0.5-1.1,1.1v2.1
	c0,0.6,0.5,1.1,1.1,1.1h21.1c0.6,0,1.1-0.5,1.1-1.1v-2.1C41.9,33.9,41.4,33.5,40.9,33.5z M40.9,12.3H19.7c-0.6,0-1.1,0.5-1.1,1.1
	v2.1c0,0.6,0.5,1.1,1.1,1.1h21.1c0.6,0,1.1-0.5,1.1-1.1v-2.1C41.9,12.8,41.4,12.3,40.9,12.3z M40.9,22.9H19.7
	c-0.6,0-1.1,0.5-1.1,1.1v2.1c0,0.6,0.5,1.1,1.1,1.1h21.1c0.6,0,1.1-0.5,1.1-1.1v-2.1C41.9,23.4,41.4,22.9,40.9,22.9z"/>
</svg>
