<?xml version="1.0" encoding="utf-8"?>
<!-- Generator: Adobe Illustrator 25.2.0, SVG Export Plug-In . SVG Version: 6.00 Build 0)  -->
<svg version="1.1" id="Layer_1" xmlns="http://www.w3.org/2000/svg" xmlns:xlink="http://www.w3.org/1999/xlink" x="0px" y="0px"
	 viewBox="0 0 182.2 45.4" style="enable-background:new 0 0 182.2 45.4;" xml:space="preserve">
<style type="text/css">
	.st0{fill:#848688;}
	.st1{fill:#D11E4D;}
</style>
<g>
	<g>
		<path class="st0" d="M0,41.5l2.3-0.2c0.1,0.8,0.4,1.3,0.8,1.7c0.4,0.4,1,0.5,1.7,0.5c0.7,0,1.3-0.2,1.7-0.5
			C6.8,42.7,7,42.3,7,41.9c0-0.3-0.1-0.5-0.2-0.7c-0.2-0.2-0.4-0.4-0.8-0.5c-0.3-0.1-0.9-0.3-1.9-0.5c-1.2-0.3-2.1-0.7-2.6-1.1
			c-0.7-0.6-1.1-1.4-1.1-2.3c0-0.6,0.2-1.1,0.5-1.6s0.8-0.9,1.4-1.2s1.4-0.4,2.3-0.4c1.4,0,2.5,0.3,3.2,0.9C8.6,35.1,8.9,36,9,37
			l-2.3,0.1c-0.1-0.6-0.3-1-0.6-1.3c-0.3-0.3-0.8-0.4-1.5-0.4c-0.7,0-1.2,0.1-1.6,0.4c-0.2,0.2-0.4,0.4-0.4,0.7
			c0,0.3,0.1,0.5,0.3,0.7c0.3,0.2,1,0.5,2.1,0.8s2,0.5,2.5,0.8c0.5,0.3,1,0.7,1.3,1.2s0.5,1.1,0.5,1.8c0,0.7-0.2,1.3-0.5,1.8
			c-0.4,0.6-0.9,1-1.5,1.3s-1.5,0.4-2.5,0.4c-1.4,0-2.6-0.3-3.3-1C0.6,43.7,0.2,42.8,0,41.5z"/>
		<path class="st0" d="M20.7,45.2V33.8H23v11.5H20.7z"/>
		<path class="st0" d="M34.7,45.2V33.8h3.5l2.1,7.8l2.1-7.8h3.5v11.5h-2.1v-9l-2.3,9h-2.2l-2.3-9v9H34.7z"/>
		<path class="st0" d="M57.6,33.8h2.3V40c0,1,0,1.6,0.1,1.9c0.1,0.5,0.3,0.8,0.7,1.1c0.4,0.3,0.9,0.4,1.5,0.4c0.7,0,1.2-0.1,1.5-0.4
			c0.3-0.3,0.5-0.6,0.6-1s0.1-1,0.1-1.9v-6.3h2.3v6c0,1.4-0.1,2.3-0.2,2.9c-0.1,0.6-0.4,1-0.7,1.4s-0.8,0.7-1.3,0.9
			c-0.6,0.2-1.3,0.3-2.2,0.3c-1.1,0-1.9-0.1-2.5-0.4c-0.6-0.3-1-0.6-1.3-1c-0.3-0.4-0.5-0.8-0.6-1.3c-0.2-0.7-0.2-1.6-0.2-2.9V33.8z
			"/>
		<path class="st0" d="M78.7,45.2V33.8H81v9.4h5.8v1.9H78.7z"/>
		<path class="st0" d="M108.3,45.2h-2.5l-1-2.6h-4.6l-0.9,2.6h-2.5l4.5-11.5h2.4L108.3,45.2z M104,40.7l-1.6-4.3l-1.5,4.3H104z"/>
		<path class="st0" d="M120.4,45.2v-9.5H117v-1.9h9.1v1.9h-3.4v9.5H120.4z"/>
		<path class="st0" d="M137.1,45.2V33.8h2.3v11.5H137.1z"/>
		<path class="st0" d="M150.6,39.5c0-1.2,0.2-2.1,0.5-2.9c0.3-0.6,0.6-1.1,1.1-1.6c0.5-0.5,0.9-0.8,1.5-1c0.7-0.3,1.5-0.5,2.5-0.5
			c1.7,0,3,0.5,4.1,1.6s1.5,2.5,1.5,4.4c0,1.8-0.5,3.3-1.5,4.3c-1,1-2.3,1.6-4,1.6c-1.7,0-3.1-0.5-4.1-1.6S150.6,41.4,150.6,39.5z
			 M153,39.5c0,1.3,0.3,2.3,0.9,2.9c0.6,0.7,1.4,1,2.3,1s1.7-0.3,2.3-1c0.6-0.7,0.9-1.7,0.9-3c0-1.3-0.3-2.3-0.9-2.9
			c-0.6-0.6-1.3-1-2.3-1s-1.7,0.3-2.3,1C153.3,37.2,153,38.2,153,39.5z"/>
		<path class="st0" d="M173.1,45.2V33.8h2.3l4.7,7.6v-7.6h2.1v11.5h-2.3l-4.6-7.5v7.5H173.1z"/>
	</g>
	<g>
		<path class="st1" d="M14.5,0l0.2,6.8h-0.6c-0.3-1.7-1-3.1-2.2-4.1c-1.1-1-2.4-1.6-3.7-1.6c-1,0-1.8,0.3-2.4,0.8
			C5.2,2.5,4.9,3.2,4.9,3.9c0,0.5,0.1,0.9,0.3,1.2C5.5,5.6,6,6,6.6,6.5c0.5,0.3,1.6,0.9,3.3,1.8c2.4,1.2,4,2.3,4.9,3.3
			c0.8,1,1.2,2.3,1.2,3.6c0,1.7-0.7,3.2-2,4.4c-1.3,1.2-3,1.9-5.1,1.9c-0.6,0-1.3-0.1-1.8-0.2c-0.6-0.1-1.3-0.4-2.2-0.7
			c-0.5-0.2-0.9-0.3-1.2-0.3c-0.3,0-0.5,0.1-0.8,0.3c-0.3,0.2-0.5,0.5-0.7,0.9H1.6v-7.8h0.6c0.4,2.2,1.3,3.8,2.6,5
			c1.3,1.1,2.6,1.7,4.1,1.7c1.1,0,2-0.3,2.7-0.9c0.7-0.6,1-1.3,1-2.1c0-0.5-0.1-1-0.4-1.4c-0.3-0.5-0.6-0.9-1.2-1.3
			c-0.5-0.4-1.5-0.9-2.8-1.6c-1.9-0.9-3.2-1.7-4-2.3c-0.8-0.6-1.4-1.4-1.9-2.2C1.8,7.8,1.6,6.9,1.6,5.9c0-1.6,0.6-3,1.8-4.2
			S6.1,0,7.9,0c0.7,0,1.3,0.1,1.9,0.2c0.5,0.1,1.1,0.3,1.7,0.7c0.7,0.3,1.2,0.5,1.4,0.5c0.3,0,0.5-0.1,0.6-0.2C13.8,1,14,0.6,14.1,0
			H14.5z"/>
		<path class="st1" d="M32.1,6.9v11.1c0,1.1,0.1,1.8,0.3,2c0.2,0.3,0.6,0.4,1.2,0.5V21h-5.8v-1.9c-0.7,0.8-1.4,1.4-2,1.8
			c-0.7,0.4-1.4,0.6-2.3,0.6c-0.8,0-1.5-0.2-2.1-0.7c-0.6-0.5-1-1.1-1.2-1.7c-0.2-0.7-0.3-1.8-0.3-3.4V9.9c0-1.1-0.1-1.7-0.3-2
			c-0.2-0.3-0.6-0.4-1.2-0.5V6.9h5.8v9.7c0,1,0,1.7,0.1,2c0.1,0.3,0.2,0.5,0.5,0.7s0.4,0.2,0.7,0.2c0.4,0,0.7-0.1,1-0.3
			c0.4-0.3,0.9-0.8,1.5-1.6V9.9c0-1.1-0.1-1.7-0.3-2c-0.2-0.3-0.6-0.4-1.2-0.5V6.9H32.1z"/>
		<path class="st1" d="M41.2,19.6v5.3c0,0.7,0.1,1.2,0.2,1.5c0.1,0.3,0.3,0.5,0.5,0.6c0.2,0.1,0.7,0.2,1.4,0.2v0.6h-8.1v-0.6
			c0.6,0,1.1-0.2,1.4-0.5c0.2-0.2,0.3-0.8,0.3-1.8V9.8c0-1-0.1-1.6-0.3-1.9c-0.2-0.3-0.7-0.4-1.3-0.5V6.9h5.9v1.9
			c0.5-0.7,1-1.3,1.5-1.6c0.7-0.5,1.5-0.7,2.4-0.7c1,0,2,0.3,2.8,1c0.9,0.7,1.5,1.6,1.9,2.7c0.4,1.2,0.7,2.4,0.7,3.7
			c0,1.4-0.2,2.7-0.7,3.9c-0.5,1.2-1.1,2.1-2,2.7c-0.9,0.6-1.8,0.9-2.9,0.9c-0.8,0-1.5-0.2-2.2-0.5C42.3,20.7,41.8,20.2,41.2,19.6z
			 M41.2,18c0.9,1.2,1.8,1.8,2.8,1.8c0.5,0,1-0.3,1.3-0.9c0.5-0.8,0.8-2.5,0.8-4.8c0-2.4-0.3-4.1-0.9-5c-0.4-0.6-0.9-0.9-1.5-0.9
			c-1,0-1.9,0.7-2.5,2.2V18z"/>
		<path class="st1" d="M58.6,19.6v5.3c0,0.7,0.1,1.2,0.2,1.5c0.1,0.3,0.3,0.5,0.5,0.6c0.2,0.1,0.7,0.2,1.4,0.2v0.6h-8.1v-0.6
			c0.6,0,1.1-0.2,1.4-0.5c0.2-0.2,0.3-0.8,0.3-1.8V9.8c0-1-0.1-1.6-0.3-1.9c-0.2-0.3-0.7-0.4-1.3-0.5V6.9h5.9v1.9
			c0.5-0.7,1-1.3,1.5-1.6c0.7-0.5,1.5-0.7,2.4-0.7c1,0,2,0.3,2.8,1c0.9,0.7,1.5,1.6,1.9,2.7c0.4,1.2,0.7,2.4,0.7,3.7
			c0,1.4-0.2,2.7-0.7,3.9c-0.5,1.2-1.1,2.1-2,2.7c-0.9,0.6-1.8,0.9-2.9,0.9c-0.8,0-1.5-0.2-2.2-0.5C59.7,20.7,59.2,20.2,58.6,19.6z
			 M58.6,18c0.9,1.2,1.8,1.8,2.8,1.8c0.5,0,1-0.3,1.3-0.9c0.5-0.8,0.8-2.5,0.8-4.8c0-2.4-0.3-4.1-0.9-5c-0.4-0.6-0.9-0.9-1.5-0.9
			c-1,0-1.9,0.7-2.5,2.2V18z"/>
		<path class="st1" d="M76,0.5v17.6c0,1,0.1,1.6,0.3,1.9c0.2,0.3,0.7,0.4,1.4,0.5V21h-7.6v-0.5c0.6,0,1.1-0.2,1.4-0.5
			c0.2-0.2,0.3-0.8,0.3-1.8V3.4c0-1-0.1-1.6-0.3-1.9c-0.2-0.3-0.7-0.4-1.3-0.5V0.5H76z"/>
		<path class="st1" d="M85.7,21.6l-4.6-10.5c-0.7-1.6-1.2-2.6-1.5-2.9c-0.3-0.4-0.7-0.6-1.2-0.8V6.9H86v0.6c-0.5,0-0.8,0.1-1,0.3
			c-0.2,0.2-0.3,0.4-0.3,0.6c0,0.4,0.3,1.1,0.8,2.3l2.4,5.5l1.7-4.3c0.6-1.5,0.9-2.6,0.9-3.2c0-0.4-0.1-0.7-0.4-0.9
			c-0.2-0.2-0.7-0.3-1.3-0.4V6.9h4.7v0.6c-0.5,0.1-0.8,0.2-1.1,0.5c-0.3,0.3-0.8,1.4-1.5,3.1l-4,10.5c-1,2.6-1.8,4.2-2.3,4.8
			c-0.7,0.8-1.6,1.3-2.6,1.3c-0.8,0-1.5-0.2-2-0.7c-0.5-0.5-0.8-1.1-0.8-1.7c0-0.6,0.2-1.1,0.5-1.5c0.4-0.4,0.8-0.6,1.3-0.6
			c0.5,0,0.9,0.2,1.2,0.5c0.3,0.3,0.5,0.8,0.5,1.5c0,0.4,0.1,0.6,0.1,0.7c0.1,0.1,0.2,0.2,0.3,0.2c0.2,0,0.5-0.1,0.8-0.4
			c0.4-0.4,0.9-1.4,1.4-2.9L85.7,21.6z"/>
		<path class="st1" d="M122.4,0v7.1h-0.6c-0.4-1.9-1.3-3.3-2.5-4.3c-1.2-1-2.6-1.5-4.1-1.5c-1.3,0-2.5,0.4-3.5,1.1
			c-1.1,0.7-1.9,1.7-2.3,2.9c-0.6,1.5-1,3.2-1,5.1c0,1.8,0.2,3.5,0.7,5c0.5,1.5,1.2,2.6,2.2,3.4c1,0.8,2.3,1.2,3.8,1.2
			c1.3,0,2.5-0.3,3.5-0.8c1.1-0.6,2.2-1.5,3.4-2.9v1.8c-1.2,1.2-2.3,2.1-3.6,2.6c-1.2,0.5-2.7,0.8-4.4,0.8c-2.2,0-4.1-0.4-5.8-1.3
			c-1.7-0.9-3-2.1-3.9-3.8c-0.9-1.6-1.4-3.4-1.4-5.3c0-2,0.5-3.8,1.5-5.6c1-1.8,2.4-3.1,4.1-4.1c1.7-1,3.6-1.5,5.5-1.5
			c1.4,0,3,0.3,4.6,0.9c0.9,0.4,1.5,0.5,1.8,0.5c0.3,0,0.6-0.1,0.8-0.4c0.2-0.2,0.4-0.6,0.5-1.1H122.4z"/>
		<path class="st1" d="M131,0.5v8.2c0.8-0.8,1.5-1.4,2.1-1.7c0.6-0.3,1.3-0.5,2-0.5c0.9,0,1.6,0.3,2.3,0.8c0.6,0.5,1.1,1.1,1.3,1.8
			c0.2,0.7,0.3,1.8,0.3,3.4v5.5c0,1.1,0.1,1.8,0.3,2c0.2,0.3,0.6,0.4,1.2,0.5V21h-7.2v-0.5c0.5-0.1,0.9-0.3,1.1-0.6
			c0.2-0.3,0.3-0.9,0.3-1.9v-6.3c0-1.2,0-1.9-0.1-2.2c-0.1-0.3-0.2-0.5-0.5-0.7c-0.2-0.2-0.5-0.3-0.7-0.3c-0.4,0-0.8,0.1-1.2,0.4
			c-0.4,0.3-0.8,0.8-1.2,1.5v7.6c0,1,0.1,1.6,0.2,1.9c0.2,0.3,0.6,0.6,1.2,0.6V21h-7.2v-0.5c0.6-0.1,1-0.3,1.3-0.6
			c0.2-0.2,0.3-0.9,0.3-2V3.6c0-1.1-0.1-1.7-0.3-2c-0.2-0.3-0.6-0.4-1.2-0.5V0.5H131z"/>
		<path class="st1" d="M150.4,18.9c-1.7,1.5-3.3,2.3-4.6,2.3c-0.8,0-1.5-0.3-2-0.8c-0.5-0.5-0.8-1.2-0.8-2c0-1.1,0.5-2.1,1.4-2.9
			c0.9-0.9,3-2,6.1-3.4v-1.4c0-1.1-0.1-1.7-0.2-2c-0.1-0.3-0.3-0.5-0.7-0.7c-0.3-0.2-0.7-0.3-1.1-0.3c-0.7,0-1.2,0.1-1.6,0.4
			c-0.3,0.2-0.4,0.4-0.4,0.6c0,0.2,0.1,0.5,0.4,0.8c0.4,0.4,0.6,0.9,0.6,1.3c0,0.5-0.2,0.9-0.6,1.3c-0.4,0.3-0.8,0.5-1.4,0.5
			c-0.6,0-1.2-0.2-1.6-0.6c-0.4-0.4-0.6-0.8-0.6-1.3c0-0.7,0.3-1.4,0.9-2.1c0.6-0.7,1.4-1.2,2.4-1.5c1-0.4,2.1-0.5,3.2-0.5
			c1.3,0,2.4,0.3,3.2,0.9c0.8,0.6,1.3,1.2,1.5,1.9c0.1,0.4,0.2,1.4,0.2,2.9v5.5c0,0.6,0,1.1,0.1,1.2c0,0.2,0.1,0.3,0.2,0.4
			c0.1,0.1,0.2,0.1,0.3,0.1c0.3,0,0.5-0.2,0.8-0.6l0.5,0.4c-0.5,0.7-1,1.3-1.6,1.6c-0.5,0.3-1.2,0.5-1.8,0.5c-0.8,0-1.4-0.2-1.9-0.6
			C150.8,20.3,150.5,19.7,150.4,18.9z M150.4,17.8v-4.7c-1.2,0.7-2.1,1.5-2.7,2.3c-0.4,0.5-0.6,1.1-0.6,1.6c0,0.5,0.2,0.9,0.5,1.2
			c0.3,0.3,0.6,0.4,1.1,0.4C149.2,18.7,149.7,18.4,150.4,17.8z"/>
		<path class="st1" d="M163.7,6.9v11.2c0,1,0.1,1.6,0.3,1.9c0.2,0.3,0.7,0.4,1.4,0.5V21h-7.6v-0.5c0.6,0,1.1-0.2,1.4-0.5
			c0.2-0.2,0.3-0.8,0.3-1.8V9.8c0-1-0.1-1.6-0.3-1.9c-0.2-0.3-0.7-0.4-1.3-0.5V6.9H163.7z M161.6,0c0.7,0,1.2,0.2,1.7,0.7
			c0.5,0.5,0.7,1,0.7,1.7c0,0.6-0.2,1.2-0.7,1.6s-1,0.7-1.7,0.7c-0.6,0-1.2-0.2-1.7-0.7c-0.5-0.5-0.7-1-0.7-1.6
			c0-0.6,0.2-1.2,0.7-1.7C160.4,0.2,161,0,161.6,0z"/>
		<path class="st1" d="M172.7,6.9v1.8c0.7-0.8,1.4-1.4,2.1-1.7c0.7-0.4,1.4-0.5,2.1-0.5c0.9,0,1.7,0.3,2.3,0.8
			c0.6,0.5,1,1.1,1.2,1.9c0.2,0.6,0.2,1.7,0.2,3.3v5.5c0,1.1,0.1,1.8,0.3,2c0.2,0.3,0.6,0.4,1.2,0.5V21h-7.2v-0.5
			c0.5-0.1,0.9-0.3,1.2-0.7c0.2-0.3,0.2-0.9,0.2-1.9v-6.3c0-1.2,0-1.9-0.1-2.2c-0.1-0.3-0.2-0.5-0.5-0.7c-0.2-0.2-0.5-0.3-0.7-0.3
			c-0.9,0-1.7,0.6-2.4,1.9v7.6c0,1.1,0.1,1.7,0.3,2c0.2,0.3,0.6,0.5,1.1,0.5V21H167v-0.5c0.6-0.1,1-0.3,1.3-0.6
			c0.2-0.2,0.3-0.9,0.3-2v-8c0-1.1-0.1-1.7-0.3-2c-0.2-0.3-0.6-0.4-1.2-0.5V6.9H172.7z"/>
	</g>
</g>
</svg>
