<?xml version="1.0" encoding="utf-8"?>
<!-- Generator: Adobe Illustrator 25.2.0, SVG Export Plug-In . SVG Version: 6.00 Build 0)  -->
<svg version="1.1" id="Layer_1" xmlns="http://www.w3.org/2000/svg" xmlns:xlink="http://www.w3.org/1999/xlink" x="0px" y="0px"
	 viewBox="0 0 72 72" style="enable-background:new 0 0 72 72;" xml:space="preserve">
<style type="text/css">
	.st0{fill:none;}
	.st1{fill:url(#SVGID_1_);}
	.st2{fill:url(#SVGID_2_);}
	.st3{fill:url(#SVGID_3_);}
	.st4{fill:url(#SVGID_4_);}
	.st5{fill:url(#SVGID_5_);}
	.st6{fill:url(#SVGID_6_);}
	.st7{fill:url(#SVGID_7_);}
	.st8{fill:url(#SVGID_8_);}
	.st9{fill:url(#SVGID_9_);}
	.st10{fill:url(#SVGID_10_);}
	.st11{fill:url(#SVGID_11_);}
</style>
<g>
	<g>
		<path class="st0" d="M32.8,57v3.2h6.3V57c0-0.7,0.5-1.2,1.1-1.4c2.3-0.5,4.5-1.4,6.5-2.7c0.6-0.4,1.3-0.3,1.8,0.2l2.3,2.3l4.5-4.5
			l-2.3-2.3c-0.5-0.5-0.5-1.2-0.2-1.8c1.3-2,2.2-4.2,2.7-6.5c0.1-0.6,0.7-1.1,1.4-1.1h3.2v-6.3H57c-0.7,0-1.2-0.5-1.4-1.1
			c-0.5-2.3-1.4-4.5-2.7-6.5c-0.4-0.6-0.3-1.3,0.2-1.8l2.3-2.3l-4.5-4.5l-2.3,2.3c-0.5,0.5-1.2,0.5-1.8,0.2c-2-1.3-4.2-2.2-6.5-2.7
			c-0.6-0.1-1.1-0.7-1.1-1.4v-3.2h-6.3v3.2c0,0.7-0.5,1.2-1.1,1.4c-2.3,0.5-4.5,1.4-6.5,2.7c-0.6,0.4-1.3,0.3-1.8-0.2l-2.3-2.3
			l-4.5,4.5l2.3,2.3c0.5,0.5,0.5,1.2,0.2,1.8c-1.3,2-2.2,4.2-2.7,6.5c-0.1,0.6-0.7,1.1-1.4,1.1h-3.2v6.3H15c0.7,0,1.2,0.5,1.4,1.1
			c0.5,2.3,1.4,4.5,2.7,6.6c0.4,0.6,0.3,1.3-0.2,1.8l-2.3,2.3l4.5,4.5l2.3-2.3c0.5-0.5,1.2-0.5,1.8-0.2c2,1.3,4.2,2.2,6.6,2.7
			C32.4,55.7,32.8,56.3,32.8,57z"/>
		
			<linearGradient id="SVGID_1_" gradientUnits="userSpaceOnUse" x1="82.4834" y1="31.5588" x2="10.7391" y2="-2.4845" gradientTransform="matrix(1 0 0 -1 0 71.5393)">
			<stop  offset="0" style="stop-color:#9CD3A8"/>
			<stop  offset="1" style="stop-color:#0CB3C1"/>
		</linearGradient>
		<path class="st1" d="M23.7,66.8L23.7,66.8c-0.8-0.3-1.6,0-1.9,0.8s0.1,1.5,0.8,1.8l0,0c0.2,0.1,0.4,0.1,0.5,0.1
			c0.6,0,1.1-0.3,1.3-0.9C24.8,68,24.4,67.1,23.7,66.8z"/>
		
			<linearGradient id="SVGID_2_" gradientUnits="userSpaceOnUse" x1="62.3539" y1="73.9805" x2="-9.3904" y2="39.9372" gradientTransform="matrix(1 0 0 -1 0 71.5393)">
			<stop  offset="0" style="stop-color:#9CD3A8"/>
			<stop  offset="1" style="stop-color:#0CB3C1"/>
		</linearGradient>
		<path class="st2" d="M48.4,5.2C48.4,5.2,48.4,5.2,48.4,5.2c0.2,0.1,0.4,0.1,0.5,0.1c0.5,0,1.1-0.3,1.3-0.9c0.3-0.7,0-1.5-0.8-1.8
			h0c-0.7-0.3-1.5,0-1.8,0.8C47.4,4.1,47.7,4.9,48.4,5.2z"/>
		
			<linearGradient id="SVGID_3_" gradientUnits="userSpaceOnUse" x1="72.4077" y1="52.7927" x2="0.6634" y2="18.7494" gradientTransform="matrix(1 0 0 -1 0 71.5393)">
			<stop  offset="0" style="stop-color:#9CD3A8"/>
			<stop  offset="1" style="stop-color:#0CB3C1"/>
		</linearGradient>
		<path class="st3" d="M30,61.6c0,0.8,0.6,1.4,1.4,1.4h9.2c0.8,0,1.4-0.6,1.4-1.4v-3.5c1.9-0.5,3.7-1.3,5.4-2.2l2.5,2.5
			c0.5,0.5,1.4,0.5,2,0l6.5-6.5c0.3-0.3,0.4-0.6,0.4-1s-0.2-0.7-0.4-1l-2.5-2.5c1-1.7,1.7-3.5,2.2-5.4h3.5c0.8,0,1.4-0.6,1.4-1.4
			v-9.2c0-0.8-0.6-1.4-1.4-1.4h-3.6c-0.5-1.9-1.3-3.7-2.2-5.4l2.5-2.5c0.5-0.5,0.5-1.4,0-2l-6.5-6.5c-0.5-0.5-1.4-0.5-2,0l-2.5,2.5
			c-1.7-1-3.5-1.7-5.4-2.2v-3.6C42,9.6,41.4,9,40.6,9h-9.2C30.7,9,30,9.6,30,10.4V14c-1.9,0.5-3.7,1.3-5.4,2.2l-2.5-2.5
			c-0.3-0.3-0.6-0.4-1-0.4c-0.4,0-0.7,0.2-1,0.4l-6.5,6.5c-0.5,0.5-0.5,1.4,0,2l2.5,2.5c-1,1.7-1.7,3.5-2.2,5.4h-3.5
			C9.6,30,9,30.7,9,31.4v9.2c0,0.8,0.6,1.4,1.4,1.4h3.5c0.5,1.9,1.3,3.7,2.2,5.4l-2.5,2.5c-0.3,0.3-0.4,0.6-0.4,1s0.2,0.7,0.4,1
			l6.5,6.5c0.3,0.3,0.6,0.4,1,0.4c0.4,0,0.7-0.2,1-0.4l2.5-2.5c1.7,1,3.5,1.7,5.4,2.2L30,61.6L30,61.6z M25.2,52.9
			c-0.6-0.4-1.3-0.3-1.8,0.2l-2.3,2.3l-4.5-4.5l2.3-2.3c0.5-0.5,0.5-1.2,0.2-1.8c-1.3-2-2.2-4.2-2.7-6.6c-0.1-0.6-0.7-1.1-1.4-1.1
			h-3.2v-6.3H15c0.7,0,1.2-0.5,1.4-1.1c0.5-2.3,1.4-4.5,2.7-6.5c0.4-0.6,0.3-1.3-0.2-1.8l-2.3-2.3l4.5-4.5l2.3,2.3
			c0.5,0.5,1.2,0.5,1.8,0.2c2-1.3,4.2-2.2,6.5-2.7c0.6-0.1,1.1-0.7,1.1-1.4v-3.2h6.3v3.2c0,0.7,0.5,1.2,1.1,1.4
			c2.3,0.5,4.5,1.4,6.5,2.7c0.6,0.4,1.3,0.3,1.8-0.2l2.3-2.3l4.5,4.5l-2.3,2.3c-0.5,0.5-0.5,1.2-0.2,1.8c1.3,2,2.2,4.2,2.7,6.5
			c0.1,0.6,0.7,1.1,1.4,1.1h3.2v6.3H57c-0.7,0-1.2,0.5-1.4,1.1c-0.5,2.3-1.4,4.5-2.7,6.5c-0.4,0.6-0.3,1.3,0.2,1.8l2.3,2.3l-4.5,4.5
			l-2.3-2.3c-0.5-0.5-1.2-0.5-1.8-0.2c-2,1.3-4.2,2.2-6.5,2.7c-0.6,0.1-1.1,0.7-1.1,1.4v3.2h-6.3V57c0-0.7-0.5-1.2-1.1-1.4
			C29.4,55.1,27.2,54.2,25.2,52.9z"/>
		
			<linearGradient id="SVGID_4_" gradientUnits="userSpaceOnUse" x1="69.3989" y1="59.1335" x2="-2.3453" y2="25.0902" gradientTransform="matrix(1 0 0 -1 0 71.5393)">
			<stop  offset="0" style="stop-color:#9CD3A8"/>
			<stop  offset="1" style="stop-color:#0CB3C1"/>
		</linearGradient>
		<path class="st4" d="M62.5,16c0.3,0.4,0.7,0.5,1.1,0.5c0.3,0,0.6-0.1,0.9-0.3c0.6-0.5,0.7-1.4,0.3-2l0,0c-0.5-0.6-1.4-0.7-2-0.3
			C62.2,14.5,62,15.3,62.5,16L62.5,16z"/>
		
			<linearGradient id="SVGID_5_" gradientUnits="userSpaceOnUse" x1="75.4631" y1="46.3536" x2="3.7189" y2="12.3103" gradientTransform="matrix(1 0 0 -1 0 71.5393)">
			<stop  offset="0" style="stop-color:#9CD3A8"/>
			<stop  offset="1" style="stop-color:#0CB3C1"/>
		</linearGradient>
		<path class="st5" d="M68.1,27.6c0.1,0.4,0.2,0.9,0.3,1.3c0.1,0.7,0.7,1.1,1.4,1.1c0.1,0,0.2,0,0.3,0c0.8-0.2,1.2-0.9,1.1-1.7
			c-0.1-0.5-0.2-1-0.3-1.4c-0.2-0.7-1-1.2-1.7-1C68.4,26.1,67.9,26.9,68.1,27.6z"/>
		
			<linearGradient id="SVGID_6_" gradientUnits="userSpaceOnUse" x1="72.2829" y1="53.0557" x2="0.5387" y2="19.0124" gradientTransform="matrix(1 0 0 -1 0 71.5393)">
			<stop  offset="0" style="stop-color:#9CD3A8"/>
			<stop  offset="1" style="stop-color:#0CB3C1"/>
		</linearGradient>
		<path class="st6" d="M66.2,22.1c0.2,0.5,0.7,0.8,1.3,0.8c0.2,0,0.4,0,0.6-0.1c0.7-0.3,1-1.2,0.7-1.9c-0.2-0.4-0.4-0.9-0.6-1.3
			c-0.4-0.7-1.2-1-1.9-0.6c-0.7,0.4-1,1.2-0.6,1.9C65.8,21.3,66,21.7,66.2,22.1z"/>
		
			<linearGradient id="SVGID_7_" gradientUnits="userSpaceOnUse" x1="82.7332" y1="31.0323" x2="10.989" y2="-3.011" gradientTransform="matrix(1 0 0 -1 0 71.5393)">
			<stop  offset="0" style="stop-color:#9CD3A8"/>
			<stop  offset="1" style="stop-color:#0CB3C1"/>
		</linearGradient>
		<path class="st7" d="M72,34.5c0-0.8-0.7-1.4-1.5-1.4c-0.8,0-1.4,0.7-1.4,1.5c0,0.5,0,0.9,0,1.4c0,18.3-14.9,33.2-33.2,33.2
			c-2.4,0-4.8-0.3-7.1-0.8c-0.8-0.2-1.5,0.3-1.7,1.1c-0.2,0.8,0.3,1.5,1.1,1.7c2.5,0.5,5.1,0.8,7.7,0.8c9.6,0,18.7-3.7,25.5-10.6
			S72,45.6,72,36C72,35.5,72,35,72,34.5z"/>
		
			<linearGradient id="SVGID_8_" gradientUnits="userSpaceOnUse" x1="69.3569" y1="59.2222" x2="-2.3874" y2="25.1788" gradientTransform="matrix(1 0 0 -1 0 71.5393)">
			<stop  offset="0" style="stop-color:#9CD3A8"/>
			<stop  offset="1" style="stop-color:#0CB3C1"/>
		</linearGradient>
		<path class="st8" d="M3.9,44.4c-0.1-0.4-0.2-0.9-0.3-1.3c-0.2-0.8-0.9-1.2-1.7-1.1c-0.8,0.2-1.2,0.9-1.1,1.7
			c0.1,0.5,0.2,1,0.3,1.4c0.2,0.6,0.7,1.1,1.4,1.1c0.1,0,0.2,0,0.4,0C3.6,45.9,4.1,45.2,3.9,44.4z"/>
		
			<linearGradient id="SVGID_9_" gradientUnits="userSpaceOnUse" x1="75.4391" y1="46.4043" x2="3.6948" y2="12.361" gradientTransform="matrix(1 0 0 -1 0 71.5393)">
			<stop  offset="0" style="stop-color:#9CD3A8"/>
			<stop  offset="1" style="stop-color:#0CB3C1"/>
		</linearGradient>
		<path class="st9" d="M9.5,56c-0.5-0.6-1.4-0.7-2-0.3s-0.7,1.4-0.3,2l0.1,0.2c0.3,0.4,0.7,0.5,1.1,0.5c0.3,0,0.6-0.1,0.9-0.3
			c0.6-0.5,0.7-1.4,0.3-2L9.5,56z"/>
		
			<linearGradient id="SVGID_10_" gradientUnits="userSpaceOnUse" x1="72.5285" y1="52.5382" x2="0.7842" y2="18.4949" gradientTransform="matrix(1 0 0 -1 0 71.5393)">
			<stop  offset="0" style="stop-color:#9CD3A8"/>
			<stop  offset="1" style="stop-color:#0CB3C1"/>
		</linearGradient>
		<path class="st10" d="M5.8,49.9c-0.3-0.7-1.2-1-1.9-0.7s-1,1.2-0.7,1.9c0.2,0.4,0.4,0.9,0.6,1.3c0.3,0.5,0.7,0.8,1.3,0.8
			c0.2,0,0.4-0.1,0.6-0.2c0.7-0.4,1-1.2,0.6-1.9C6.2,50.7,6,50.3,5.8,49.9z"/>
		
			<linearGradient id="SVGID_11_" gradientUnits="userSpaceOnUse" x1="62.0794" y1="74.559" x2="-9.6649" y2="40.5157" gradientTransform="matrix(1 0 0 -1 0 71.5393)">
			<stop  offset="0" style="stop-color:#9CD3A8"/>
			<stop  offset="1" style="stop-color:#0CB3C1"/>
		</linearGradient>
		<path class="st11" d="M1.5,38.8c0.8,0,1.4-0.7,1.4-1.5c0-0.5,0-0.9,0-1.4C2.8,17.7,17.7,2.8,36,2.8c2.4,0,4.9,0.3,7.2,0.8
			c0.8,0.2,1.5-0.3,1.7-1.1c0.2-0.8-0.3-1.5-1.1-1.7C41.3,0.3,38.6,0,36,0c-9.6,0-18.7,3.7-25.4,10.6S0,26.4,0,36c0,0.5,0,1,0,1.5
			C0.1,38.2,0.7,38.8,1.5,38.8C1.4,38.8,1.5,38.8,1.5,38.8z"/>
	</g>
</g>
</svg>
