<?xml version="1.0" encoding="utf-8"?>
<!-- Generator: Adobe Illustrator 25.2.0, SVG Export Plug-In . SVG Version: 6.00 Build 0)  -->
<svg version="1.1" id="Layer_1" xmlns="http://www.w3.org/2000/svg" xmlns:xlink="http://www.w3.org/1999/xlink" x="0px" y="0px"
	 viewBox="0 0 72 72" style="enable-background:new 0 0 72 72;" xml:space="preserve">
<style type="text/css">
	.st0{fill:#D11E4E;}
</style>
<g>
	<path class="st0" d="M48.2,24.6h-8.4V32c0,0.3-0.2,0.6-0.5,0.7c-0.1,0-0.2,0.1-0.3,0.1c-0.2,0-0.4-0.1-0.5-0.2L35.9,30l-2.5,2.5
		c-0.2,0.2-0.5,0.3-0.8,0.2c-0.3-0.1-0.5-0.4-0.5-0.7v-7.4h-8.3c-0.4,0-0.8,0.3-0.8,0.8v21.4c0,0.4,0.3,0.8,0.8,0.8h24.4
		c0.4,0,0.8-0.3,0.8-0.8V25.3C49,24.9,48.6,24.6,48.2,24.6z"/>
</g>
</svg>
