<?xml version="1.0" encoding="utf-8"?>
<!-- Generator: Adobe Illustrator 15.1.0, SVG Export Plug-In . SVG Version: 6.00 Build 0)  -->
<!DOCTYPE svg PUBLIC "-//W3C//DTD SVG 1.1//EN" "http://www.w3.org/Graphics/SVG/1.1/DTD/svg11.dtd">
<svg version="1.1" id="Layer_1" xmlns="http://www.w3.org/2000/svg" xmlns:xlink="http://www.w3.org/1999/xlink" x="0px" y="0px"
	 width="612px" height="612px" viewBox="0 0 612 612" enable-background="new 0 0 612 612" xml:space="preserve">
<g id="Layer_1_1_">
	
		<image overflow="visible" enable-background="new    " width="74" height="146" xlink:href="A3958DB5.jpeg"  transform="matrix(10.2822 0 0 10.2877 767.0596 -331.0015)">
	</image>
	<path fill="none" stroke="#000000" stroke-miterlimit="10" d="M767.059-135"/>
</g>
<path fill="#FFFFFF" d="M0,0c12.296,73.729,66.783,100.21,91.963,108.63h120.068v0.037c94.688,1.943,170.915,88.891,170.915,195.871
	c0,106.979-76.229,193.929-170.916,195.871v0.037H98.925C78.866,505.872,13.606,529.607,0,611.188V612h612V0H0z"/>
<linearGradient id="SVGID_1_" gradientUnits="userSpaceOnUse" x1="-330.5786" y1="0.4063" x2="-330.5786" y2="611.5923">
	<stop  offset="0" style="stop-color:#8AF7B6"/>
	<stop  offset="1" style="stop-color:#00B5C3"/>
</linearGradient>
<path fill="url(#SVGID_1_)" d="M-423.127,500.852h113.106v-0.036c94.688-1.941,170.915-88.893,170.915-195.872
	c0-106.98-76.228-193.928-170.915-195.871v-0.037h-120.068c-25.18-8.419-79.667-34.901-91.963-108.63v108.63v51.059v291.81v48.946
	v110.741C-508.446,530.014-443.187,506.278-423.127,500.852z"/>
<g>
	<g>
		
			<linearGradient id="SVGID_2_" gradientUnits="userSpaceOnUse" x1="-45.6143" y1="477.7666" x2="-45.6143" y2="350.789" gradientTransform="matrix(4.896 0 0 -4.896 125.3487 2909.2998)">
			<stop  offset="0" style="stop-color:#8AF7B6"/>
			<stop  offset="1" style="stop-color:#00B5C3"/>
		</linearGradient>
		<path fill="url(#SVGID_2_)" d="M-104.834,694.059h-47.491c-102.816-48.96-121.421-93.514-124.358-113.587v612
			c2.938-20.073,21.542-64.627,124.848-113.587c0,0,45.533,0,47.001,0c102.816,0,185.559-86.17,185.559-192.413
			S-2.508,694.059-104.834,694.059z"/>
	</g>
</g>
<g id="Outline">
	<path fill="#FFFFFF" d="M14.138,911.441l-19.584,11.751l-19.584-11.751c-1.469-0.979-2.938-0.979-4.406,0l-19.584,11.751
		l-19.584-11.751l-4.406,7.344l20.073,11.751v17.136l-20.073,11.75c-1.469,0.979-1.959,2.448-1.959,3.917v22.032
		c0,1.469,0.979,2.938,1.959,3.917l22.032,13.219c1.469,0.979,2.938,0.979,4.406,0l19.584-11.75l19.584,11.75l4.406-7.344
		l-20.073-11.751v-17.136l20.073-11.75c1.469-0.979,1.958-2.448,1.958-3.917v-19.584l20.074-11.751L14.138,911.441z
		 M-49.509,993.694l-17.626-10.771v-17.136l17.626-10.771l17.625,10.771v17.136L-49.509,993.694z M-9.852,947.672l-17.626,10.771
		l-17.625-10.771v-17.136l17.625-10.771l17.626,10.771V947.672z"/>
	<path fill="#FFFFFF" d="M3.368,994.184h8.813v8.813H3.368V994.184z"/>
	<path fill="#FFFFFF" d="M20.993,994.184h8.813v8.813h-8.813V994.184z"/>
	<path fill="#FFFFFF" d="M25.399,910.462h8.813v8.813h-8.813V910.462z"/>
	<path fill="#FFFFFF" d="M-89.167,910.462h8.813v8.813h-8.813V910.462z"/>
	<path fill="#FFFFFF" d="M-164.565,948.651c2.448-0.979,4.406-1.959,6.854-3.428c3.917-1.959,6.854-3.917,13.709-3.917
		s10.282,1.958,13.709,3.917c4.406,2.448,8.813,4.896,18.115,4.896c9.302,0,13.708-2.448,18.115-4.896
		c3.917-1.959,6.854-3.917,13.709-3.917c2.447,0,4.896,0.489,7.344,0.979l2.448-8.323c-3.428-0.979-6.854-1.469-10.282-1.469
		c-9.302,0-13.709,2.448-18.115,4.896c-3.917,1.959-6.854,3.917-13.709,3.917s-10.282-1.958-13.709-3.917
		c-4.406-2.447-8.813-4.896-18.115-4.896c-1.469,0-3.427,0-4.896,0.489l58.752-58.752c0.979-0.979,1.469-1.958,1.469-2.938v-74.909
		h17.626v74.909c0,0.979,0.489,2.448,1.469,2.938l35.251,35.252l6.365-6.365l-34.272-33.783v-73.929
		c6.854-2.448,10.282-9.792,7.834-16.646c-1.959-5.386-6.854-8.813-12.24-8.813h-26.438c-7.344,0-13.219,5.875-13.219,13.219
		c0,5.386,3.427,10.771,8.813,12.24v73.929l-72.95,72.951c-13.709,13.709-13.709,36.23,0,50.429
		c6.854,6.854,15.667,10.281,24.969,10.281h70.013v-8.813h-70.013c-14.688,0-26.928-11.75-26.928-26.928
		C-172.889,960.401-169.951,953.547-164.565,948.651L-164.565,948.651z M-93.574,778.76h26.438c2.448,0,4.406,1.959,4.406,4.406
		c0,2.448-1.958,4.406-4.406,4.406h-26.438c-2.448,0-4.406-1.958-4.406-4.406C-97.98,780.719-96.022,778.76-93.574,778.76z"/>
	<path fill="#FFFFFF" d="M-178.274,1001.527l1.958-8.813c-23.501-5.386-41.616-24.97-44.554-48.96
		c0.979,0.49,1.469,0.979,2.448,1.469c4.406,2.448,8.813,4.896,18.115,4.896c9.302,0,13.708-2.448,18.115-4.896
		c1.958-0.979,3.917-1.959,6.365-2.938l-2.448-8.323c-2.938,0.979-5.386,1.958-7.833,3.427c-3.917,1.959-6.854,3.917-13.709,3.917
		s-10.281-1.958-13.708-3.917c-2.448-1.469-4.407-2.447-6.854-3.427c1.469-25.948,19.584-47.491,45.043-53.366
		c1.958-0.49,3.427-2.448,3.427-4.406v-53.366h17.625v54.345c0,1.959,1.469,3.917,3.427,4.406
		c7.344,1.469,14.199,4.406,20.563,8.813l4.896-7.345c-5.875-4.406-12.73-7.344-20.074-9.302v-51.897
		c6.854-2.448,10.282-9.792,7.833-16.646c-1.958-5.386-6.854-8.813-12.24-8.813h-26.438c-7.344,0-13.219,5.875-13.219,13.22
		c0,5.386,3.427,10.771,8.813,12.24v51.408c-35.251,9.791-55.814,46.021-46.022,81.273
		C-220.87,978.026-201.775,996.142-178.274,1001.527L-178.274,1001.527z M-177.295,805.198h26.438c2.448,0,4.407,1.958,4.407,4.406
		s-1.958,4.406-4.407,4.406h-26.438c-2.448,0-4.406-1.958-4.406-4.406S-179.743,805.198-177.295,805.198z"/>
</g>
</svg>
