<?xml version="1.0" encoding="utf-8"?>
<svg version="1.1" xmlns:xlink="http://www.w3.org/1999/xlink" width="21px" height="38px" xmlns="http://www.w3.org/2000/svg">
  <g transform="matrix(1 0 0 1 -1058 -571 )">
    <path d="M 20.3072916666667 17.330078125  C 20.7690972222222 17.8001302083333  21 18.3567708333333  21 19  C 21 19.6432291666667  20.7690972222222 20.1998697916667  20.3072916666667 20.669921875  L 3.97395833333333 37.294921875  C 3.51215277777778 37.7649739583333  2.96527777777778 38  2.33333333333333 38  C 1.70138888888889 38  1.15451388888889 37.7649739583333  0.692708333333333 37.294921875  C 0.230902777777778 36.8248697916667  0 36.2682291666667  0 35.625  L 0 2.375  C 0 1.73177083333333  0.230902777777778 1.17513020833333  0.692708333333333 0.705078125  C 1.15451388888889 0.235026041666664  1.70138888888889 0  2.33333333333333 0  C 2.96527777777778 0  3.51215277777778 0.235026041666664  3.97395833333333 0.705078125  L 20.3072916666667 17.330078125  Z " fill-rule="nonzero" fill="#868789" stroke="none" transform="matrix(1 0 0 1 1058 571 )" />
  </g>
</svg>