<!-- Generated by IcoMoon.io -->
<svg version="1.1" xmlns="http://www.w3.org/2000/svg" width="427" height="512" viewBox="0 0 427 512">
<title>document</title>
<path d="M325.404 102.4c0 0 61.44 0 61.44 0 11.378 0-85.334-65.991-85.334-65.991v45.511c0 11.378 13.654 20.48 23.894 20.48z"></path>
<path d="M409.6 153.6c-1.138-10.24-10.24-18.204-20.48-18.204 0 0-91.022 0-102.4 0-10.24 0-20.48-9.102-20.48-20.48 0-15.929 0-62.578 0-76.231 0 0 0-1.138 0-1.138 0-10.24-6.827-19.342-17.066-20.48 0 0 0 0 0 0h-220.729v432.356c0 2.276 0 4.551 0 6.827 3.413 28.445 27.306 50.062 56.889 50.062h265.102c31.858 0 58.026-26.169 58.026-58.026v-253.725l1.138-40.96zM113.778 399.36c-11.378 0-21.618-9.102-21.618-21.618 0-11.378 9.102-21.618 21.618-21.618 11.378 0 21.618 9.102 21.618 21.618s-10.24 21.618-21.618 21.618zM113.778 315.164c-11.378 0-21.618-9.102-21.618-21.618 0-11.378 9.102-21.618 21.618-21.618 11.378 0 21.618 9.102 21.618 21.618s-10.24 21.618-21.618 21.618zM113.778 230.969c-11.378 0-21.618-9.102-21.618-21.618 0-11.378 9.102-21.618 21.618-21.618 11.378 0 21.618 9.102 21.618 21.618s-10.24 21.618-21.618 21.618zM324.267 398.222h-150.186c-11.378 0-21.618-9.102-21.618-21.618s9.102-21.618 21.618-21.618h150.186c11.378 0 21.618 9.102 21.618 21.618s-10.24 21.618-21.618 21.618zM150.186 292.409c0-11.378 9.102-21.618 21.618-21.618h150.186c11.378 0 21.618 9.102 21.618 21.618s-9.102 21.618-21.618 21.618h-150.186c-11.378 0-21.618-9.102-21.618-21.618zM324.267 229.831h-150.186c-11.378 0-21.618-9.102-21.618-21.618s9.102-21.618 21.618-21.618h150.186c11.378 0 21.618 9.102 21.618 21.618s-10.24 21.618-21.618 21.618z"></path>
</svg>
