<?xml version="1.0" encoding="utf-8"?>
<!-- Generator: Adobe Illustrator 15.1.0, SVG Export Plug-In . SVG Version: 6.00 Build 0)  -->
<!DOCTYPE svg PUBLIC "-//W3C//DTD SVG 1.1//EN" "http://www.w3.org/Graphics/SVG/1.1/DTD/svg11.dtd">
<svg version="1.1" id="Layer_1" xmlns="http://www.w3.org/2000/svg" xmlns:xlink="http://www.w3.org/1999/xlink" x="0px" y="0px"
	 width="74px" height="72px" viewBox="0 0 74 72" enable-background="new 0 0 74 72" xml:space="preserve">
<g>
	<path fill="none" d="M331.258,426h-50.516c-2.613,0-4.742-2.129-4.742-4.742v-50.516c0-2.613,2.129-4.742,4.742-4.742h50.61
		c2.519,0,4.646,2.129,4.646,4.742v50.61C336,423.871,333.871,426,331.258,426z"/>
	<g>
		<circle fill="#FFFFFF" cx="306" cy="381.387" r="3.968"/>
		<g>
			<path fill="#FFFFFF" d="M306,414.678L306,414.678c-2.227,0-3.968-1.839-3.968-3.968v-16.354c0-2.227,1.839-3.969,3.968-3.969l0,0
				c2.226,0,3.968,1.838,3.968,3.969v16.259C309.968,412.839,308.226,414.678,306,414.678z"/>
		</g>
	</g>
</g>
<g>
	<path fill="none" d="M62.258,66H11.742C9.129,66,7,63.871,7,61.258V10.742C7,8.129,9.129,6,11.742,6h50.611
		C64.871,6,67,8.129,67,10.742v50.611C67,63.871,64.871,66,62.258,66z"/>
	<g>
		<circle fill="#FFFFFF" cx="37" cy="21.387" r="3.968"/>
		<g>
			<path fill="#FFFFFF" d="M37,54.678L37,54.678c-2.226,0-3.968-1.839-3.968-3.968V34.355c0-2.226,1.839-3.968,3.968-3.968l0,0
				c2.227,0,3.968,1.838,3.968,3.968v16.258C40.968,52.839,39.227,54.678,37,54.678z"/>
		</g>
	</g>
</g>
</svg>
