<!-- Generated by IcoMoon.io -->
<svg version="1.1" xmlns="http://www.w3.org/2000/svg" width="512" height="512" viewBox="0 0 512 512">
<title>market-update</title>
<path d="M477.334 442.666h-374.315c-18.624-0.853-33.6-16.49-33.6-34.752-0.043 0-0.064 0.022-0.106 0.022v-373.269c0.022-19.072-15.573-34.666-34.645-34.666s-34.666 15.595-34.666 34.666v441.344c0 9.877 4.224 18.752 10.922 25.088 6.314 6.678 15.21 10.901 25.088 10.901h441.344c19.050 0 34.645-15.594 34.645-34.666s-15.594-34.666-34.666-34.666z"></path>
<path d="M174.698 157.867v0c-9.536 9.536-25.152 9.536-34.688 0l-40.384-40.384c-9.536-9.536-9.536-25.152 0-34.688v0c9.536-9.536 25.152-9.536 34.688 0l40.384 40.384c9.558 9.536 9.558 25.152 0 34.688z"></path>
<path d="M483.904 127.957l0.81-84.715c0.106-3.136-0.981-6.251-3.37-8.64-2.368-2.368-5.483-3.477-8.598-3.349l-84.565 0.874c-3.712-0.768-7.68 0.256-10.603 3.157-4.522 4.502-4.544 11.84 0 16.384 0 0 14.613 14.592 17.877 17.813 3.243 3.243 4.48 11.371 0.086 15.787-0.064 0.064 0.064 0.256 0 0.341l-129.195 129.195-31.616-31.616c-0.704-0.704-1.621-0.982-2.389-1.578-0.022-0.022-0.022-0.042-0.042-0.064-9.536-9.536-25.152-9.536-34.688 0l-77.674 77.674c-9.536 9.536-9.536 25.152 0 34.688s25.152 9.536 34.688 0l60.736-60.736 32.042 32.064c0.363 0.363 0.853 0.49 1.238 0.832 0.192 0.214 0.256 0.49 0.448 0.683 9.536 9.536 25.152 9.536 34.688 0l146.389-146.389c0.171-0.064 0.512 0.128 0.64 0 4.522-4.522 11.563-4.053 15.978 0.32 4.394 4.394 16.64 16.619 16.64 16.619 0.277 0.363 0.534 0.768 0.896 1.109 0.341 0.363 0.789 0.619 1.152 0.917l0.043 0.042c4.522 3.456 11.008 3.2 15.19-0.982 2.538-2.518 3.606-5.93 3.307-9.216h0.043l-0.128-0.982c-0.022-0.085-0.022-0.149-0.022-0.234z"></path>
<path d="M482.154 306.091c0.768-3.712-0.256-7.68-3.158-10.603-4.502-4.522-11.84-4.544-16.384 0 0 0-14.592 14.613-17.813 17.877-3.243 3.243-11.37 4.48-15.786 0.086-0.064-0.064-0.256 0.064-0.341 0l-51.968-51.968c-9.536-9.536-25.152-9.536-34.688 0s-9.536 25.152 0 34.688l51.904 51.904c0.064 0.171-0.128 0.512 0 0.64 4.522 4.522 4.053 11.563-0.32 15.978-4.394 4.394-16.618 16.64-16.618 16.64-0.363 0.277-0.768 0.534-1.11 0.896-0.363 0.341-0.618 0.789-0.918 1.152l-0.043 0.043c-3.456 4.502-3.2 11.008 0.981 15.19 2.517 2.538 5.93 3.606 9.216 3.307v0.043l0.981-0.128c0.106-0.022 0.192-0.022 0.277-0.022l84.714 0.81c3.136 0.106 6.25-0.981 8.64-3.37 2.368-2.368 3.478-5.483 3.349-8.576l-0.918-84.587z"></path>
</svg>
