<?xml version="1.0" encoding="utf-8"?>
<!-- Generator: Adobe Illustrator 15.1.0, SVG Export Plug-In . SVG Version: 6.00 Build 0)  -->
<!DOCTYPE svg PUBLIC "-//W3C//DTD SVG 1.1//EN" "http://www.w3.org/Graphics/SVG/1.1/DTD/svg11.dtd">
<svg version="1.1" xmlns="http://www.w3.org/2000/svg" xmlns:xlink="http://www.w3.org/1999/xlink" x="0px" y="0px" width="20px"
	 height="20px" viewBox="0 0 20 20" enable-background="new 0 0 20 20" xml:space="preserve">
<g id="Layer_1">
</g>
<g id="Layer_4">
</g>
<g id="Layer_3">
</g>
<g id="Layer_2">
	<g>
		<path fill="#FFFFFF" d="M17.65,16.75h-9.9c-0.744,0-1.35-0.606-1.35-1.351c0-0.043,0.01-1.07,0.83-2.082
			c0.474-0.582,1.117-1.043,1.916-1.371c0.963-0.396,2.16-0.599,3.554-0.599c1.393,0,2.588,0.201,3.554,0.599
			c0.799,0.328,1.441,0.789,1.915,1.371C18.991,14.329,19,15.356,19,15.399C19,16.144,18.395,16.75,17.65,16.75z M7.3,15.401
			c0.001,0.248,0.202,0.447,0.45,0.447h9.9c0.246,0,0.449-0.199,0.449-0.447c0-0.031-0.029-0.805-0.664-1.562
			c-0.877-1.043-2.518-1.593-4.735-1.593c-2.222,0-3.858,0.552-4.735,1.593C7.329,14.599,7.301,15.37,7.3,15.401z"/>
		<path fill="#FFFFFF" d="M12.7,10.45C10.715,10.45,9.1,8.835,9.1,6.85c0-1.984,1.612-3.6,3.601-3.6c1.985,0,3.6,1.615,3.6,3.6
			C16.3,8.835,14.686,10.45,12.7,10.45z M12.7,4.149c-1.489,0-2.7,1.211-2.7,2.7c0,1.488,1.211,2.7,2.7,2.7
			c1.487,0,2.7-1.212,2.7-2.7C15.4,5.36,14.188,4.149,12.7,4.149z"/>
		<path fill="#FFFFFF" d="M5.05,16.75h-2.7C1.605,16.75,1,16.144,1,15.399c0-0.033,0.007-0.834,0.598-1.621
			c0.34-0.452,0.805-0.813,1.379-1.067c0.688-0.308,1.537-0.461,2.524-0.461c0.161,0,0.319,0.004,0.474,0.013
			c0.25,0.014,0.439,0.225,0.426,0.473c-0.012,0.25-0.225,0.439-0.473,0.43c-0.138-0.012-0.281-0.014-0.426-0.014
			c-3.505,0-3.598,2.143-3.602,2.252c0.002,0.246,0.203,0.447,0.451,0.447h2.697c0.248,0,0.45,0.201,0.45,0.449
			C5.501,16.55,5.299,16.75,5.05,16.75L5.05,16.75z"/>
		<path fill="#FFFFFF" d="M5.5,11.351c-1.488,0-2.7-1.21-2.7-2.701c0-1.488,1.212-2.699,2.7-2.699s2.7,1.211,2.7,2.699
			C8.2,10.139,6.988,11.351,5.5,11.351z M5.5,6.85c-0.993,0-1.8,0.808-1.8,1.8c0,0.993,0.807,1.801,1.8,1.801s1.8-0.808,1.8-1.801
			C7.3,7.657,6.493,6.85,5.5,6.85z"/>
	</g>
</g>
<g id="Layer_5">
</g>
<g id="Layer_6">
</g>
<g id="Layer_7">
</g>
<g id="Layer_8">
</g>
<g id="Layer_9">
</g>
</svg>
