<svg xmlns="http://www.w3.org/2000/svg" width="255.8" height="117.123" viewBox="0 0 255.8 117.123"><defs><style>.a{fill:#ffc900;}.b{fill:#fff;}</style></defs><path class="a" d="M393.435,94.478,278.561,134.709l114.874-19.472Z" transform="translate(-278.561 -94.478)"/><path class="b" d="M394.678,416.152a3.489,3.489,0,0,0-2.284-3.294,3.328,3.328,0,0,0,1.758-2.927c0-2.454-1.747-3.863-4.794-3.863h-6.582v14.821h6.516C392.664,420.888,394.678,419.118,394.678,416.152ZM389.3,418.38h-3.657v-4.22H389.3c1.556,0,2.344.707,2.344,2.1C391.643,417.608,390.789,418.38,389.3,418.38Zm-.023-6.632h-3.634v-3.165h3.482c1.371,0,2.037.522,2.037,1.594C391.161,410.893,390.835,411.748,389.276,411.748Zm7.37,4.433v-6.119h2.787v5.964c0,1.8.66,2.644,2.075,2.644,1.391,0,2.1-.883,2.1-2.627v-5.98h2.787v10.826H403.6v-.865a3.551,3.551,0,0,1-2.7,1.1C397.2,421.12,396.646,418.025,396.646,416.181Zm42.515,4.707h-2.787V410.062h2.787v.914a3.756,3.756,0,0,1,2.826-1.147c2.7,0,4.133,1.708,4.133,4.939v6.12h-2.787v-5.964c0-1.805-.646-2.645-2.031-2.645s-2.14.908-2.14,2.627Zm-27.477-5.665v5.665H408.9V410.062h2.788Zm2.483-8.326,2.787-1.338v15.328h-2.787Zm11.65,3.928a3.457,3.457,0,0,0-2.5-.994c-2.728,0-4.422,2.12-4.422,5.534,0,3.6,1.631,5.754,4.365,5.754a3.593,3.593,0,0,0,2.559-1.058v.826H428.6V405.561l-2.784,1.337Zm-1.96,7.83c-.969,0-2.125-.582-2.125-3.353,0-2.5,1.135-3.021,2.088-3.021a2.391,2.391,0,0,1,2,1.055v4.252A2.334,2.334,0,0,1,423.857,418.656Zm62.739-8.824a3.867,3.867,0,0,0-2.5,1v-5l-2.787,1.334v13.716H484.1v-.81a3.55,3.55,0,0,0,2.558,1.042c2.779,0,4.372-2.1,4.372-5.754C491.025,411.953,489.329,409.832,486.6,409.832Zm-.519,2.45c1.017,0,2.1.793,2.1,3.021,0,2.255-.67,3.353-2.046,3.353a2.731,2.731,0,0,1-2.039-1.018v-4.257A2.36,2.36,0,0,1,486.077,412.282Zm-31.157-1.461a3.582,3.582,0,0,0-2.5-.994c-2.73,0-4.427,2.119-4.427,5.535,0,3.6,1.634,5.753,4.37,5.753a3.573,3.573,0,0,0,2.56-1.045v.252c0,1.186,0,2.809-3.605,2.87l-.126,0,.987,2.1.054,0c3.685-.056,5.474-1.828,5.474-5.415v-9.82H454.92Zm0,2.511v4.252a2.365,2.365,0,0,1-1.976,1.067c-.962,0-2.109-.582-2.109-3.352,0-2.5,1.135-3.022,2.088-3.022A2.392,2.392,0,0,1,454.92,413.332Zm11.441-.612a5.64,5.64,0,0,1,2.886-.748c1.316,0,2.013.537,2.013,1.555v.732a5.861,5.861,0,0,0-2.4-.511c-2.075,0-4.5.929-4.5,3.549,0,2.821,2.254,3.823,4.182,3.823A3.851,3.851,0,0,0,471.259,420v.885h2.785v-7.3c0-2.354-1.7-3.759-4.553-3.759a8.5,8.5,0,0,0-4.216,1.045Zm.792,4.577c0-.963.719-1.538,1.921-1.538a4.182,4.182,0,0,1,2.186.534v1.482a2.627,2.627,0,0,1-2.186,1.141C467.888,418.916,467.153,418.3,467.153,417.3Zm32.822.446a3.271,3.271,0,0,1-2.225.912,2.351,2.351,0,0,1-2.5-2.36h6.916c.016-.223.032-.54.032-.81,0-3.435-1.857-5.654-4.732-5.654-2.93,0-5.057,2.378-5.057,5.654,0,3.422,2.1,5.634,5.345,5.634a5.362,5.362,0,0,0,3.983-1.7Zm-4.69-3.405a2.15,2.15,0,0,1,2.1-2.239,2.121,2.121,0,0,1,2.126,2.239Zm31.58,3.405a3.269,3.269,0,0,1-2.224.912,2.35,2.35,0,0,1-2.5-2.36h6.914c.017-.223.033-.54.033-.81,0-3.435-1.857-5.654-4.732-5.654-2.93,0-5.056,2.378-5.056,5.654,0,3.422,2.1,5.634,5.344,5.634a5.4,5.4,0,0,0,3.983-1.7Zm-4.69-3.405a2.15,2.15,0,0,1,2.1-2.239,2.122,2.122,0,0,1,2.127,2.239Zm-6.722,2.791c0,.964.379,1.457,1.206,1.457a3.8,3.8,0,0,0,1.687-.49l-.327,2.523a5.272,5.272,0,0,1-2.342.5c-2.22,0-3.009-1.789-3.009-3.32v-5.23h-1.734v-2.508h1.734v-2.778l2.787-1.336v4.113h2.536v2.508h-2.537Zm-5.4,3.49a5.274,5.274,0,0,1-2.343.5c-2.22,0-3.007-1.789-3.007-3.32v-5.23h-1.743v-2.508H504.7v-2.778l2.785-1.336v4.113h2.378v2.508h-2.378v4.559c0,.964.379,1.457,1.205,1.457a3.8,3.8,0,0,0,1.687-.49Zm27.473-7.526a3.388,3.388,0,0,0-1.848-.588c-1.372,0-2.011.8-2.011,2.518v5.866h-2.788V410.062h2.788V411a3.065,3.065,0,0,1,2.493-1.169,3.722,3.722,0,0,1,2.1.653Zm-125.844-5.914v1.335H408.9v-2.67h2.784Zm19.406,2.883h2.787v10.826h-2.787Zm2.783-2.883v1.335h-2.783v-2.67h2.783Zm76.547,22.555a3.458,3.458,0,0,0-2.5-.99c-2.728,0-4.422,2.116-4.422,5.533,0,3.6,1.632,5.753,4.365,5.753a3.6,3.6,0,0,0,2.56-1.058v.827H513.2V424.471l-2.785,1.338Zm-1.961,7.832c-.969,0-2.124-.582-2.124-3.352,0-2.5,1.135-3.021,2.087-3.021a2.389,2.389,0,0,1,2,1.053V436.5A2.331,2.331,0,0,1,508.456,437.567ZM415.75,432a3.377,3.377,0,0,0-1.846-.588c-1.374,0-2.012.8-2.012,2.518V439.8h-2.787V428.971h2.787v.939a3.069,3.069,0,0,1,2.491-1.166,3.706,3.706,0,0,1,2.1.651Zm-21.93-3.034h2.756L393.39,439.8h-2.395l-1.253-4.495c-.21-.791-.464-1.741-.613-2.355-.106.44-.422,1.775-.628,2.443l-1.238,4.407h-2.409l-3.186-10.829h2.871l1.039,4.047c.157.632.426,1.838.565,2.651.156-.8.461-1.968.669-2.712l1.175-3.987h2.372l1.176,3.986c.2.715.5,1.887.67,2.727.128-.7.36-1.707.6-2.728Zm8.438-.24c-2.97,0-5.126,2.376-5.126,5.653s2.156,5.656,5.126,5.656,5.129-2.378,5.129-5.656S405.23,428.73,402.259,428.73Zm0,8.784c-1.388,0-2.285-1.23-2.285-3.131s.9-3.132,2.285-3.132,2.287,1.231,2.287,3.132S403.649,437.514,402.259,437.514ZM496.694,432a3.37,3.37,0,0,0-1.846-.588c-1.373,0-2.012.8-2.012,2.518V439.8H490.05V428.971h2.787v.939a3.069,3.069,0,0,1,2.492-1.166,3.71,3.71,0,0,1,2.1.651Zm-21.928-3.034h2.755L474.336,439.8h-2.4l-1.256-4.495c-.21-.791-.46-1.741-.612-2.355-.107.44-.42,1.775-.625,2.443l-1.24,4.407H465.8l-.016-.058-3.17-10.771h2.874l1.036,4.047c.158.632.425,1.838.566,2.651.156-.8.46-1.968.668-2.712l1.175-3.987H471.3l1.175,3.986c.2.715.506,1.887.672,2.727.127-.7.359-1.707.6-2.728Zm8.417-.234c-2.972,0-5.127,2.375-5.127,5.652s2.155,5.655,5.127,5.655,5.128-2.377,5.128-5.655S486.154,428.736,483.183,428.736Zm0,8.782c-1.389,0-2.287-1.229-2.287-3.131s.9-3.131,2.287-3.131,2.286,1.231,2.286,3.131S484.57,437.518,483.183,437.518Zm-59.132-4.981,3.435,7.26h-3.081l-2.371-5.026-1.474,1.782V439.8h-2.775V425.822l2.775-1.337v8.622c.347-.479.758-.99,1.055-1.358l2.225-2.78h3.221Zm13.232,7.263H434.5V428.971h2.787v.918a3.739,3.739,0,0,1,2.827-1.147c2.7,0,4.131,1.709,4.131,4.937V439.8h-2.785v-5.965c0-1.807-.646-2.644-2.032-2.644s-2.14.908-2.14,2.626Zm15.759-10.07a3.6,3.6,0,0,0-2.5-.991c-2.731,0-4.428,2.117-4.428,5.533,0,3.6,1.633,5.753,4.37,5.753a3.575,3.575,0,0,0,2.56-1.046v.253c0,1.186,0,2.808-3.6,2.87l-.128,0,.988,2.1.054,0c3.682-.054,5.474-1.827,5.474-5.414v-9.821h-2.784Zm0,2.512V436.5a2.368,2.368,0,0,1-1.976,1.067c-.961,0-2.11-.583-2.11-3.354,0-2.5,1.137-3.02,2.088-3.02A2.393,2.393,0,0,1,453.043,432.243Zm-23.834-3.271h2.786V439.8h-2.786Zm2.783-2.882v1.336h-2.783v-2.672h2.783Zm66.759-.267,2.787-1.337V439.8h-2.787Zm-197.86-8.049H321.9V406.065H300.891v-9.2h23.243l-7.711-12.824H283.464V439.8h46.484V426.973H300.891Zm59.994-33.733-9.87,18.2-9.846-18.2H321.9l20.3,33.733V439.8h17.374V417.773l20.329-33.733Z" transform="translate(-282.459 -327.083)"/></svg>