<?xml version="1.0" encoding="utf-8"?>
<!-- Generator: Adobe Illustrator 15.1.0, SVG Export Plug-In . SVG Version: 6.00 Build 0)  -->
<!DOCTYPE svg PUBLIC "-//W3C//DTD SVG 1.1//EN" "http://www.w3.org/Graphics/SVG/1.1/DTD/svg11.dtd">
<svg version="1.1" id="Layer_1" xmlns="http://www.w3.org/2000/svg" xmlns:xlink="http://www.w3.org/1999/xlink" x="0px" y="0px"
	 width="20px" height="20px" viewBox="0 0 20 20" enable-background="new 0 0 20 20" xml:space="preserve">
<g id="Layer_1_1_">
</g>
<g id="Layer_4">
</g>
<g id="Layer_3">
</g>
<g id="Layer_2">
	<g>
		<g>
			<path fill="#FFFFFF" d="M9.99,10.523c-2.321,0-4.208-1.884-4.208-4.208c0-2.319,1.886-4.208,4.208-4.208
				c2.32,0,4.207,1.886,4.207,4.208C14.197,8.64,12.311,10.523,9.99,10.523z M9.99,3.163c-1.741,0-3.156,1.416-3.156,3.158
				c0,1.737,1.415,3.153,3.156,3.153c1.738,0,3.156-1.416,3.156-3.153C13.143,4.577,11.729,3.163,9.99,3.163z"/>
		</g>
		<path fill="#FFFFFF" d="M4.204,16.833c-0.29,0-0.525-0.233-0.526-0.522c0.001-0.035,0.035-0.937,0.777-1.819
			c1.025-1.218,2.937-1.859,5.534-1.859c0.736,0,1.011-0.041,1.633,0.063c0.56,0.104,0.954-0.459,0.54-0.832
			c-0.855-0.196-1.109-0.281-2.173-0.281c-1.627,0-3.027,0.234-4.153,0.695c-0.935,0.383-1.685,0.923-2.24,1.604
			c-0.958,1.184-0.972,2.385-0.972,2.438c0,0.867,0.709,1.574,1.578,1.574l6.963-0.026c0.703-0.123,0.478-1.06-0.208-1.017
			L4.204,16.833z"/>
		<path fill="#FFFFFF" d="M15.523,14.488"/>
		<circle fill="#FFFFFF" cx="14.678" cy="15.049" r="2.698"/>
		<g>
			<path fill="#0055B0" d="M13.822,16.832l0.146-1.072h-0.455v-0.326h0.506l0.104-0.799h-0.479v-0.326h0.521l0.141-1.047h0.328
				l-0.146,1.047h0.576l0.139-1.047h0.328l-0.141,1.047h0.449v0.326h-0.5l-0.102,0.799h0.475v0.33h-0.52l-0.145,1.074h-0.33
				l0.146-1.074h-0.57l-0.139,1.074h-0.332v-0.006H13.822z M14.906,15.434l0.104-0.799h-0.568l-0.104,0.799H14.906z"/>
		</g>
	</g>
</g>
<g id="Layer_5">
</g>
<g id="Layer_6">
</g>
<g id="Layer_7">
</g>
<g id="Layer_8">
</g>
<g id="Layer_9">
</g>
</svg>
