<?xml version="1.0" encoding="utf-8"?>
<!-- Generator: Adobe Illustrator 21.0.0, SVG Export Plug-In . SVG Version: 6.00 Build 0)  -->
<svg version="1.1" id="Layer_1" xmlns="http://www.w3.org/2000/svg" xmlns:xlink="http://www.w3.org/1999/xlink" x="0px" y="0px"
	 viewBox="0 0 2500 1193" style="enable-background:new 0 0 2500 1193;" xml:space="preserve">
<style type="text/css">
	.st0{fill:#FFE500;}
	.st1{fill:#58595B;}
</style>
<path class="st0" d="M1123.1,0L0.5,410.1l1122.6-198.3V0z"/>
<path class="st1" d="M1096.7,906.8c0-21-14.2-30.5-22.3-33.8c10.2-5.4,16.9-17.6,16.9-29.8c0-25-16.9-39.2-46.7-39.2H981v150.9h63.6
	C1077.1,955.5,1096.7,937.2,1096.7,906.8z M1044.6,929.8h-35.9v-42.6h35.9c14.9,0,23,7.4,23,21.7
	C1067.6,921.6,1058.8,929.8,1044.6,929.8z M1044,862.1h-35.2v-32.5h33.8c13.5,0,19.6,5.4,19.6,16.2
	C1062.9,853.3,1059.5,862.1,1044,862.1z M1116.4,907.4v-62.3h27.1v60.9c0,18.3,6.8,27.1,20.3,27.1c13.5,0,20.3-8.8,20.3-27.1v-60.9
	h27.1v110.3H1184v-8.8c-6.8,7.4-15.6,11.5-26.4,11.5C1121.8,957.5,1116.4,926.4,1116.4,907.4L1116.4,907.4z M1531.8,955.5h-27.1
	V845.2h27.1v9.5c6.8-7.4,16.2-11.5,27.7-11.5c26.4,0,40.6,17.6,40.6,50.1v62.3h-27.1v-60.9c0-18.3-6.1-27.1-19.6-27.1
	c-13.5,0-21,9.5-21,27.1v60.9H1531.8L1531.8,955.5z M1263.2,899.3v56.2h-27.1V845.2h27.1V899.3z M1287.6,812.7l27.1-13.5v156.3
	h-27.1V812.7z M1401.2,852.6c-6.8-6.8-14.9-10.2-24.4-10.2c-26.4,0-43.3,21.7-43.3,56.2c0,36.5,16.2,58.9,42.6,58.9
	c9.5,0,17.6-3.4,25-10.8v8.1h27.1V798.5l-27.1,13.5L1401.2,852.6L1401.2,852.6z M1382.3,932.5c-9.5,0-21-6.1-21-33.8
	c0-25.7,10.8-30.5,20.3-30.5c10.2,0,16.2,6.1,19.6,10.8v43.3C1397.2,927.1,1392.4,932.5,1382.3,932.5L1382.3,932.5z M1994.7,842.5
	c-8.8,0-17.6,4.1-24.4,10.2v-50.8l-27.1,13.5v139.4h27.1v-8.1c6.8,6.8,15.6,10.8,25,10.8c27.1,0,42.6-21.7,42.6-58.9
	C2038,864.1,2021.8,842.5,1994.7,842.5L1994.7,842.5z M1990,867.5c10.2,0,20.3,8.1,20.3,30.5c0,23-6.8,33.8-20.3,33.8
	c-10.2,0-16.9-6.8-19.6-10.2v-43.3C1975.1,871.6,1981.8,867.5,1990,867.5L1990,867.5z M1685.5,852.6c-6.8-6.8-14.9-10.2-24.4-10.2
	c-26.4,0-43.3,21.7-43.3,56.2c0,36.5,16.2,58.9,42.6,58.9c9.5,0,18.3-3.4,25-10.8v2.7c0,12.2,0,28.4-35.2,29.1h-1.4l9.5,21.7h0.7
	c35.9-0.7,53.5-18.3,53.5-54.8V845.2h-27.1L1685.5,852.6L1685.5,852.6z M1685.5,878.3v43.3c-4.1,5.4-9.5,10.8-19.6,10.8
	c-9.5,0-20.3-6.1-20.3-33.8c0-25.7,10.8-30.5,20.3-30.5C1676,867.5,1682.1,873.6,1685.5,878.3z M1797.1,872.3
	c8.8-4.7,16.9-7.4,28.4-7.4c12.9,0,19.6,5.4,19.6,15.6v7.4c-6.1-3.4-15.6-5.4-23.7-5.4c-20.3,0-44,9.5-44,35.9
	c0,28.4,22.3,39.2,40.6,39.2c7.4,0,18.9-2.7,26.4-11.5v8.8h27.1v-74.4c0-23.7-16.9-38.6-44.7-38.6c-14.9,0-28.4,3.4-41.3,10.8
	L1797.1,872.3L1797.1,872.3z M1805.2,918.9c0-9.5,6.8-15.6,18.9-15.6c8.1,0,14.9,1.4,21.7,5.4v14.9c-3.4,6.1-11.5,11.5-21.7,11.5
	C1812,935.2,1805.2,929.1,1805.2,918.9L1805.2,918.9z M2126,923c-4.7,4.7-11.5,9.5-21.7,9.5c-5.4,0-23-2-24.4-24.4h67.7V900
	c0-35.2-18.3-57.5-46-57.5c-28.4,0-49.4,24.4-49.4,57.5c0,34.5,20.3,57.5,52.1,57.5c14.2,0,28.4-5.4,38.6-17.6L2126,923z
	 M2080,888.5c0.7-13.5,8.8-23,20.3-23c14.2,0,20.3,11.5,21,23H2080z M2388.5,923c-4.7,4.7-11.5,9.5-21.7,9.5c-5.4,0-23-2-24.4-24.4
	h67.7V900c0-35.2-18.3-57.5-46-57.5c-28.4,0-49.4,24.4-49.4,57.5c0,34.5,20.3,57.5,52.1,57.5c14.2,0,28.4-5.4,39.2-17.6L2388.5,923
	L2388.5,923z M2342.5,888.5c0.7-13.5,8.8-23,20.3-23c14.2,0,20.3,11.5,21,23H2342.5L2342.5,888.5z M2276.9,916.9
	c0,9.5,3.4,14.9,11.5,14.9c5.4,0,11.5-2,16.2-4.7l-3.4,25.7c-6.1,3.4-14.2,5.4-23,5.4c-21.7,0-29.1-18.3-29.1-33.8v-53.5h-16.2
	v-25.7h16.9v-28.4l27.1-13.5v42h25v25.7h-25V916.9L2276.9,916.9z M2224.1,952.8c-6.1,3.4-14.2,5.4-23,5.4
	c-21.7,0-29.1-18.3-29.1-33.8v-53.5h-16.9v-25.7h16.9v-28.4l27.1-13.5v42h23v25.7h-23v46.7c0,9.5,3.4,14.9,11.5,14.9
	c5.4,0,11.5-2,16.2-4.7L2224.1,952.8z M2492.7,875.6c-5.2-4-11.7-6.1-18.3-6.1c-13.5,0-19.6,8.1-19.6,25.7v59.5h-27.1V844.5h27.1
	v9.5c6.8-8.1,14.9-12.2,24.4-12.2c7.4,0,15.6,2.7,20.3,6.8L2492.7,875.6L2492.7,875.6z M1263.2,815.4v13.5h-27.1v-27.1h27.1V815.4z
	 M1452.7,845.2h27.1v110.3h-27.1V845.2z M1479.7,815.4v13.5h-27.1v-27.1h27.1V815.4z M2227.5,1045.5c-6.8-6.8-14.9-10.2-24.4-10.2
	c-26.4,0-43.3,21.7-43.3,56.2c0,36.5,16.2,58.9,42.6,58.9c9.5,0,17.6-3.4,25-10.8v8.1h27.1V991.3l-27.1,13.5V1045.5L2227.5,1045.5z
	 M2208.5,1125.3c-9.5,0-21-6.1-21-33.8c0-25.7,10.8-30.5,20.3-30.5c10.2,0,16.2,6.1,19.6,10.8v43.3
	C2223.4,1119.2,2218.7,1125.3,2208.5,1125.3L2208.5,1125.3z M1303.1,1068.5c-5.2-4-11.7-6.1-18.3-6.1c-13.5,0-19.6,8.1-19.6,25.7
	v59.6h-27.1v-110.3h27.1v9.5c6.8-8.1,14.9-12.2,24.4-12.2c7.4,0,15.6,2.7,20.3,6.8L1303.1,1068.5L1303.1,1068.5z M1088.6,1037.4
	h27.1l-31.1,110.3h-23.7l-12.2-46c-2-8.1-4.7-17.6-6.1-23.7c-1.4,4.7-4.1,18.3-6.1,25l-12.2,44.7h-23l-31.1-110.3h27.7l10.2,41.3
	c1.4,6.8,4.1,18.9,5.4,27.1c1.4-8.1,4.7-20.3,6.8-27.7l11.5-40.6h23l11.5,40.6c2,7.4,4.7,18.9,6.8,27.7c1.4-6.8,3.4-17.6,6.1-27.7
	L1088.6,1037.4L1088.6,1037.4z M1171.2,1035.3c-29.1,0-50.1,24.4-50.1,57.5s21,57.5,50.1,57.5c29.1,0,50.1-24.4,50.1-57.5
	C1221.2,1059,1200.3,1035.3,1171.2,1035.3z M1171.2,1124.7c-13.5,0-22.3-12.9-22.3-31.8c0-19.6,8.8-31.8,22.3-31.8
	c13.5,0,22.3,12.9,22.3,31.8C1193.5,1111.8,1184.7,1124.7,1171.2,1124.7z M2093.5,1068.5c-5.2-4-11.7-6.1-18.3-6.1
	c-13.5,0-19.6,8.1-19.6,25.7v59.6h-27.1v-110.3h27.1v9.5c6.8-8.1,14.9-12.2,24.4-12.2c7.4,0,15.6,2.7,20.3,6.8L2093.5,1068.5
	L2093.5,1068.5z M1879.7,1037.4h27.1l-31.1,110.3h-23.7l-12.2-46c-2-8.1-4.7-17.6-6.1-23.7c-1.4,4.7-4.1,18.3-6.1,25l-12.2,44.7
	h-23.7v-0.7l-31.1-109.6h27.7l10.2,41.3c1.4,6.8,4.1,18.9,5.4,27.1c1.4-8.1,4.7-20.3,6.8-27.7l11.5-40.6h23l11.5,40.6
	c2,7.4,4.7,18.9,6.8,27.7c1.4-6.8,3.4-17.6,6.1-27.7L1879.7,1037.4z M1961.5,1035.3c-29.1,0-50.1,24.4-50.1,57.5s21,57.5,50.1,57.5
	c29.1,0,50.1-24.4,50.1-57.5S1990.6,1035.3,1961.5,1035.3z M1961.5,1124.7c-13.5,0-22.3-12.2-22.3-31.8c0-19.6,8.8-31.8,22.3-31.8
	c13.5,0,22.3,12.9,22.3,31.8C1983.9,1111.8,1975.1,1124.7,1961.5,1124.7z M1384.3,1073.9l33.8,73.8h-29.8l-23-51.4l-14.2,18.3v33.2
	h-27.1v-142.1l27.1-13.5v88c3.3-4.6,6.7-9.1,10.2-13.5l21.7-28.4h31.1L1384.3,1073.9L1384.3,1073.9z M1513.6,1147.7h-27.1v-110.3
	h27.1v9.5c6.8-7.4,16.2-11.5,27.7-11.5c26.4,0,40.6,17.6,40.6,50.1v62.3h-27.1v-60.9c0-18.3-6.1-27.1-19.6-27.1
	c-13.5,0-21,9.5-21,27.1v60.9L1513.6,1147.7L1513.6,1147.7z M1667.2,1045.5c-6.8-6.8-14.9-10.2-24.4-10.2
	c-26.4,0-43.3,21.7-43.3,56.2c0,36.5,16.2,58.9,42.6,58.9c9.5,0,18.3-3.4,25-10.8v2.7c0,12.2,0,28.4-35.2,29.1h-1.4l9.5,21.7h0.7
	c35.9-0.7,53.5-18.3,53.5-54.8V1038h-27.1L1667.2,1045.5L1667.2,1045.5z M1667.2,1071.2v43.3c-4.1,5.4-9.5,10.8-19.6,10.8
	c-9.5,0-20.3-6.1-20.3-33.8c0-25.7,10.8-30.5,20.3-30.5C1657.7,1060.4,1663.8,1066.5,1667.2,1071.2L1667.2,1071.2z M1434.4,1037.4
	h27.1v110.3h-27.1V1037.4z M1461.5,1008.3v13.5h-27.1v-27.1h27.1V1008.3z M2113.8,1005.6l27.1-13.5v155.6h-27.1V1005.6z
	 M180.5,923.7h205V804.6h-205v-93.4h227.4l-75.1-131.3H10.6v567.7h454.1v-130.6H180.5L180.5,923.7L180.5,923.7z M767.2,579.9
	l-96.1,185.4L575,579.9H386.2l198.3,343.8v224h169.8v-224l198.3-343.8H767.2z"/>
</svg>
