<?xml version="1.0" encoding="utf-8"?>
<!-- Generator: Adobe Illustrator 15.1.0, SVG Export Plug-In . SVG Version: 6.00 Build 0)  -->
<!DOCTYPE svg PUBLIC "-//W3C//DTD SVG 1.1//EN" "http://www.w3.org/Graphics/SVG/1.1/DTD/svg11.dtd">
<svg version="1.1" id="Layer_1" xmlns="http://www.w3.org/2000/svg" xmlns:xlink="http://www.w3.org/1999/xlink" x="0px" y="0px"
	 width="512px" height="512px" viewBox="0 0 512 512" enable-background="new 0 0 512 512" xml:space="preserve">
<title>globe</title>
<path fill="#FFFFFF" d="M291.271,174.08c-1.138,0-9.102,1.138-9.102,2.275C286.72,184.319,292.409,175.217,291.271,174.08z"/>
<path fill="#FFFFFF" d="M235.52,128.569c2.275,2.275,17.066-4.551,14.791-3.413c4.551-2.275,1.139-2.275-2.274-4.551
	c-1.139-4.551-1.139-11.378-4.552-14.791c0-1.138,2.275-1.138,2.275-2.275c-4.551-5.689-7.964,7.965-7.964,7.965
	c-1.138,1.138,2.274-1.138,2.274-1.138c1.139,2.275-1.138,3.413-1.138,4.551c2.275,3.413,0,5.689,0,6.826
	c0,2.275-2.274,1.138-3.413,2.275c-1.138,1.137,5.689,1.138,5.689,1.138C241.209,126.294,233.245,127.431,235.52,128.569z"/>
<path fill="#FFFFFF" d="M227.555,124.018C226.417,124.018,226.417,124.018,227.555,124.018c2.275-1.138,5.689-1.138,6.827-4.551
	c0-3.413,1.138-1.138,1.138-2.275c1.139-1.138-1.138-3.413-2.274-3.413c-1.138,0-2.275,1.138-3.413,2.275h-1.139
	c0,0-1.138,1.138-1.138,2.275v1.138c0,1.138-1.138,2.275-2.275,2.275C223.006,124.017,225.281,125.155,227.555,124.018
	L227.555,124.018z"/>
<path fill="#FFFFFF" d="M258.276,4.551C119.467,4.551,5.689,118.329,5.689,257.139c0,138.809,113.778,252.586,252.587,252.586
	c138.81,0,252.587-113.777,252.587-252.586C510.863,117.192,398.223,4.551,258.276,4.551z M358.4,150.186
	c9.103,3.413,1.138,9.102-4.551,7.964c-3.413-1.138-18.204-5.689-18.204,0c0,3.413-13.654,0-11.378-3.413
	c1.138-2.275,1.138-7.964,3.413-11.378c4.551-5.689,7.964-2.275,7.964,1.138c0,7.964,7.964-7.964,12.515-7.964
	c2.276,0-2.275,3.413-2.275,3.413c1.138,4.551,5.688,7.964,12.515,10.24H358.4z M113.778,350.436
	c13.653-10.24,7.966-22.756-1.138-32.996c-3.413-4.551-23.894-25.03-26.169-21.617c1.138-5.689-3.413-19.342-6.826-25.031
	c-4.551-7.964-10.24-12.516-13.652-20.48c2.274-76.231,50.062-142.222,117.19-171.804c-1.138,3.413-1.138,6.826,0,6.826
	c3.413,0,27.306-18.204,37.547-13.653c6.827,2.275,18.204-2.275,26.169-6.826c3.413,0,7.964-1.138,11.378-1.138
	c23.895,0,46.649,4.551,68.268,12.515c-1.139,3.413-3.413,5.689-4.552,6.826c-2.275,3.413-10.239,2.275-9.102-2.275
	c1.138-4.55,9.102-5.689-2.276-6.826c-11.378-1.138-14.79-9.102-25.03,1.138c-3.413,2.275-5.689,6.826-7.964,11.378
	c-3.413,5.689-10.24,4.551-13.654,10.24c-3.413,4.551,2.276,12.516,7.964,9.102c1.138-1.138,19.342,15.929,17.067,2.275
	c-1.139-9.102,4.551-15.929,4.551-22.755c0-4.551,6.827-1.138,5.688,1.138c-2.275,3.413-4.551,13.653,1.139,13.653
	c2.275,0,10.239-5.689,11.378-1.138c-1.139-4.551-9.103,9.102-7.965,9.102c-2.275,1.138-5.688,0-3.412,5.689
	c2.275,5.689-10.24,4.551-12.516,5.689c-1.138,0-10.239-2.275-10.239-1.138c-3.413-2.275,1.138-9.102-2.276-10.24
	c-2.276,4.551-1.138,12.516-7.964,12.516c-4.551,0-12.516,5.689-14.791,9.102c-2.275,2.275-14.791,7.964-17.066,7.964
	c7.964,1.138,6.827,6.827,6.827,11.378c-1.138,11.378-25.031,1.138-23.893,4.551c1.138,3.413-2.275,14.791-3.413,18.204
	c-1.138,3.413,10.24,5.689,9.102,6.827c0,0,14.791-4.551,15.93-6.827c1.138-1.138,1.138-5.689,3.412-6.827
	c2.275-2.275,5.689-3.413,9.103-4.551c1.138-2.275,2.275-4.551,3.414-6.827c1.138,0,15.929-2.275,17.066-2.275
	c3.413,2.275,10.24,9.102,13.654,12.516c1.138,1.138,5.689,3.413,5.689,4.551c2.275,2.275-1.139,3.413,0,5.689
	c2.275,4.551,3.413-10.24,2.275-6.827c0-4.551,3.413,2.275,4.551,1.138c2.276-1.138-12.515-10.24-17.066-15.929
	c-4.551-9.102,13.654,4.551,15.929,5.689c2.275,1.138,6.827,15.929,13.654,12.516c4.551-2.275,0-3.413,2.275-5.689
	c4.551-3.413,7.964,0,11.378-2.275c-9.102,6.827,6.827,14.791,4.552,13.654c4.551,2.275,6.826-1.138,9.102,0
	c1.138,0,17.067,0,13.654-2.275c3.413,2.275,2.275,18.204-1.139,21.618c-4.551,4.551-29.582,2.275-35.271-1.138
	c-9.103-6.827-7.964,6.827-11.378,9.102c-9.102,3.413-21.618-11.378-30.72-12.516c4.551,1.138,0-11.378,0-12.516
	c-3.413-4.551-26.169,0-31.858,1.138c-11.378,1.138-22.756,1.138-30.72,7.964c-5.689,4.551-5.689,12.516-12.516,15.929
	c-3.413,2.275-7.965,1.138-11.379,4.551c-5.688,5.689-12.516,13.654-15.929,21.618c-1.138,3.413,2.275,10.24,1.138,14.791
	c-7.964,23.895,2.275,58.025,31.858,61.439c6.827,1.139,14.791,4.552,21.618,2.276c5.688-2.276,11.378-5.688,17.065-5.688
	c9.103-1.139,4.552,12.515,17.066,9.102c5.689-1.138,7.964,3.413,7.964,7.964c-2.275,9.103-5.688,13.654,2.276,20.479
	c5.688,4.552,10.24,10.24,11.378,18.205c1.138,4.551,4.551,11.377,0,13.654c-3.413,2.275-5.689,11.377-5.689,14.791
	c1.139,3.412,7.964,11.377,10.24,13.653c3.413,4.551,1.138,10.24,3.413,14.791c2.276,5.688,5.688,9.102,6.827,14.791
	c2.275,7.964,21.617,0,26.169,0c15.929,0,22.755-21.618,34.134-28.444c5.688-3.414,4.551-13.654,11.378-19.343
	c6.827-4.551,13.654-7.964,14.791-17.067c0-7.963-5.689-23.894-2.276-30.72c4.551-7.964,50.063-71.68,36.409-75.094
	c-2.276,0-14.791,9.103-19.342,9.103c-3.413,0-18.204-14.792-21.618-19.343c-6.827-6.827-10.24-19.342-15.929-27.306
	c-3.413-4.551-13.654-14.791-13.654-20.48c0,1.138,4.551,7.964,6.827,6.827c0-1.138,1.138-2.275,0-3.413
	c0,2.275,11.378,15.929,14.791,17.066c5.688,3.413,5.688,12.516,11.378,17.066c11.378,7.964,7.964,31.858,23.894,18.204
	c10.24-10.24,31.858-28.445,26.169-45.511c-3.412-9.102-17.066-2.275-20.479,1.138c-4.551-2.275-20.48-20.48-14.791-22.756
	c3.413-1.138,10.24,7.964,12.515,9.102c5.689,3.413,10.24-4.551,12.516,0c2.274,4.551,11.378,0,20.479-2.275
	c6.827,19.342,10.24,39.822,10.24,60.302c0,106.951-86.471,193.422-193.422,193.422c-59.165,0-112.64-27.307-149.049-69.403
	c2.275,0,4.551-1.138,4.551-1.138c7.965-5.689-3.413-26.17,1.138-29.582H113.778z"/>
</svg>
