<?xml version="1.0" encoding="utf-8"?>
<!-- Generator: Adobe Illustrator 15.1.0, SVG Export Plug-In . SVG Version: 6.00 Build 0)  -->
<!DOCTYPE svg PUBLIC "-//W3C//DTD SVG 1.1//EN" "http://www.w3.org/Graphics/SVG/1.1/DTD/svg11.dtd">
<svg version="1.1" id="Layer_1" xmlns="http://www.w3.org/2000/svg" xmlns:xlink="http://www.w3.org/1999/xlink" x="0px" y="0px"
	 width="150px" height="150px" viewBox="0 0 150 150" enable-background="new 0 0 150 150" xml:space="preserve">
<g>
	<path fill="#FFFFFF" d="M2.82,7.905c0,3.54,2.865,6.405,6.405,6.405s6.405-2.865,6.405-6.405c0-3.54-2.865-6.405-6.405-6.405
		C5.7,1.5,2.82,4.365,2.82,7.905z"/>
	<path fill="#FFFFFF" d="M2.82,45.705c0,3.54,2.865,6.405,6.405,6.405s6.405-2.865,6.405-6.405S12.765,39.3,9.225,39.3
		C5.7,39.3,2.82,42.165,2.82,45.705z"/>
	<path fill="#FFFFFF" d="M2.82,81.75c0,3.54,2.865,6.404,6.405,6.404s6.405-2.864,6.405-6.404s-2.865-6.405-6.405-6.405
		C5.7,75.345,2.82,78.225,2.82,81.75z"/>
	<path fill="#FFFFFF" d="M29.55,1.5h108.765c0,0,3.705-0.315,6.931,2.91c3.405,3.39,3.255,7.71,3.255,7.71V136.35
		c0,0-0.391,4.875-3.24,8.055c-2.85,3.195-7.05,4.08-7.05,4.08H9.225c0,0-2.19,0.406-4.83-2.234
		c-2.985-2.984-2.895-7.215-2.895-7.215V108.99c0,0,2.145-3.016,7.23-3.016s6.54,4.035,6.54,4.035v23.311c0,0,0.84,2.91,3.375,2.91
		s113.085,0,113.085,0s4.125,0.164,4.125-4.125c0-4.291,0.72-114.63,0.72-114.63s0.585-3.195-3.615-3.195s-102.99,0-102.99,0
		s-4.92,0.045-4.92-6.375C25.05,1.485,29.55,1.5,29.55,1.5z"/>
	<path fill="#FFFFFF" d="M118.064,49.56c0,1.11-0.899,2.01-2.01,2.01h-88.65c-1.11,0-2.01-0.9-2.01-2.01v-7.725
		c0-1.11,0.9-2.01,2.01-2.01h88.635c1.11,0,2.01,0.9,2.01,2.01v7.725H118.064z"/>
	<path fill="#FFFFFF" d="M118.064,85.62c0,1.11-0.899,2.01-2.01,2.01h-88.65c-1.11,0-2.01-0.899-2.01-2.01v-7.726
		c0-1.109,0.9-2.01,2.01-2.01h88.635c1.11,0,2.01,0.9,2.01,2.01v7.726H118.064z"/>
</g>
</svg>
