<?xml version="1.0" encoding="utf-8"?>
<!-- Generator: Adobe Illustrator 15.1.0, SVG Export Plug-In . SVG Version: 6.00 Build 0)  -->
<!DOCTYPE svg PUBLIC "-//W3C//DTD SVG 1.1//EN" "http://www.w3.org/Graphics/SVG/1.1/DTD/svg11.dtd">
<svg version="1.1" id="Layer_1" xmlns="http://www.w3.org/2000/svg" xmlns:xlink="http://www.w3.org/1999/xlink" x="0px" y="0px"
	 width="150px" height="150px" viewBox="0 0 150 150" enable-background="new 0 0 150 150" xml:space="preserve">
<path fill="#FFFFFF" d="M92.152,115.527c0,15.471,12.443,27.914,27.915,27.914c15.471,0,27.915-12.443,27.915-27.914
	s-12.444-27.915-27.915-27.915C104.596,87.612,92.152,100.057,92.152,115.527z M134.529,115.527c0,8.071-6.727,14.798-14.799,14.798
	c-8.071,0-14.798-6.727-14.798-14.798c0-8.072,6.727-14.799,14.798-14.799C127.803,100.729,134.529,107.455,134.529,115.527z"/>
<path fill="#FFFFFF" d="M41.704,68.442L53.475,56.67c2.354-2.354,2.354-5.717,0-8.072c-2.354-2.354-5.717-2.354-8.071,0
	L33.632,60.37L21.861,48.599c-2.354-2.354-5.717-2.354-8.072,0c-2.354,2.354-2.354,5.717,0,8.072l11.771,11.771L13.789,80.213
	c-2.354,2.354-2.354,5.718,0,8.072c2.354,2.354,5.718,2.354,8.072,0l11.771-11.771l11.771,11.771c2.354,2.354,5.717,2.354,8.071,0
	c2.354-2.354,2.354-5.718,0-8.072L41.704,68.442z"/>
<path fill="#FFFFFF" d="M125.448,36.491L125.448,36.491L125.448,36.491c-0.336-0.336-0.336-0.336-0.336-0.336L99.888,3.531
	C98.879,2.522,97.87,1.85,96.188,1.85c-1.345,0-2.69,0.673-3.7,1.682L67.265,36.155l0,0c-1.345,1.009-2.354,2.354-2.354,4.036
	c0,2.691,2.354,5.045,5.045,5.045c0,0,12.107,0,14.125,0c2.019,0,4.709,2.018,4.709,4.708c0,2.018,0,10.762,0,14.798l0,0
	c0,25.896-55.83,56.166-81.39,60.538c-3.363,0.673-5.717,3.363-5.717,6.727l0,0c0,4.036,3.7,7.399,7.735,6.727
	c28.924-5.382,88.453-35.65,92.489-70.292c0-0.336,0-1.009,0-1.346c0,0,0-0.672,0-1.345c0-0.336,0-0.672,0-1.009l0,0
	c0-4.036,0-12.78,0-14.798c0-2.69,2.354-4.708,5.045-4.708c2.689,0,14.461,0,14.461,0c0.337,0,0.337,0,0.674,0
	c0.336,0,0.336,0,0.672,0l0,0l0,0c2.354-0.336,4.372-2.354,4.372-4.708C127.13,38.845,126.457,37.5,125.448,36.491z"/>
</svg>
