<?xml version="1.0" encoding="utf-8"?>
<!-- Generator: Adobe Illustrator 15.1.0, SVG Export Plug-In . SVG Version: 6.00 Build 0)  -->
<!DOCTYPE svg PUBLIC "-//W3C//DTD SVG 1.1//EN" "http://www.w3.org/Graphics/SVG/1.1/DTD/svg11.dtd">
<svg version="1.1" id="Layer_1" xmlns="http://www.w3.org/2000/svg" xmlns:xlink="http://www.w3.org/1999/xlink" x="0px" y="0px"
	 width="150px" height="150px" viewBox="0 0 150 150" enable-background="new 0 0 150 150" xml:space="preserve">
<g>
	<path fill="#FFFFFF" d="M121.275,81.689h0.029L87.57,140.16l-0.211,0.15c-2.01,4.799-6.795,8.189-12.344,8.189
		c-5.55,0-10.305-3.391-12.33-8.221l-0.21-0.119L28.71,81.689c-14.76-25.56-6-58.229,19.575-73.02c25.56-14.76,58.26-6,73.02,19.575
		C131.189,45.375,130.484,65.685,121.275,81.689z M75.015,34.92c-11.07,0-20.04,8.97-20.04,20.04S63.945,75,75.015,75
		c11.07,0,20.04-8.97,20.04-20.04S86.085,34.92,75.015,34.92z"/>
</g>
</svg>
