<?xml version="1.0" encoding="utf-8"?>
<!-- Generator: Adobe Illustrator 15.1.0, SVG Export Plug-In . SVG Version: 6.00 Build 0)  -->
<!DOCTYPE svg PUBLIC "-//W3C//DTD SVG 1.1//EN" "http://www.w3.org/Graphics/SVG/1.1/DTD/svg11.dtd">
<svg version="1.1" id="Layer_1" xmlns="http://www.w3.org/2000/svg" xmlns:xlink="http://www.w3.org/1999/xlink" x="0px" y="0px"
	 width="479.998px" height="376.637px" viewBox="0 0 479.998 376.637" enable-background="new 0 0 479.998 376.637"
	 xml:space="preserve">
<title>heirarchy-01</title>
<path fill="#FFFFFF" d="M147.289,1.428c-2.396,0.826-4.791,1.901-5.37,2.479c-0.494,0.496-1.32,0.991-1.651,0.991
	c-1.733,0-7.353,6.855-9.334,11.151l-2.064,4.709V128.73l2.146,4.543c2.396,5.039,8.426,11.234,13.217,13.465
	c2.892,1.32,6.938,1.486,43.288,1.899l40.064,0.413v33.87l-130.521,0.825l-0.825,43.783l-37.588,0.165
	c-39.156,0.248-38.495,0.165-44.608,3.718c-0.661,0.33-1.816,0.908-2.479,1.238c-2.81,1.321-7.519,6.939-9.5,11.399l-2.064,4.709
	V302.7c0,53.118,0,53.944,1.733,57.826c2.396,5.535,8.18,11.4,13.631,13.962l4.543,2.147l92.273-0.083
	c103.757,0,95.496,0.494,103.427-6.36c4.625-3.966,7.021-8.509,8.262-15.365c1.32-7.931,1.073-100.534-0.331-106.234
	c-1.817-7.271-4.296-11.234-9.666-15.118c-6.938-5.121-6.359-5.121-52.374-5.533l-42.13-0.413V206.05h237.085l0.248,10.903
	l0.248,10.987h-39.237c-34.283,0-39.652,0.165-43.535,1.403c-2.479,0.743-5.039,1.816-5.783,2.479
	c-0.66,0.578-1.567,1.073-1.898,1.073c-1.57,0-7.271,6.938-9.169,11.151l-2.064,4.709v53.942c0,53.118,0,53.944,1.733,57.826
	c2.396,5.535,8.179,11.4,13.631,13.961l4.543,2.148l92.273-0.083c103.757,0,95.495,0.494,103.427-6.36
	c4.625-3.966,7.021-8.509,8.263-15.365c1.319-7.931,1.071-100.534-0.331-106.234c-2.563-10.243-7.932-16.025-17.926-19.083
	c-4.628-1.485-8.016-1.568-43.37-1.568h-38.33l-0.165-22.059l-0.248-22.138l-128.044-0.825v-33.87l42.131-0.413
	c47.087-0.496,44.525-0.166,51.795-6.608c4.544-3.965,6.857-8.426,8.097-15.2c1.321-7.931,1.073-100.534-0.331-106.234
	c-2.561-10.243-7.93-16.024-17.926-19.083c-4.792-1.486-8.757-1.569-93.927-1.486c-81.618,0-89.3,0.166-93.265,1.403v0.002H147.289z
	"/>
</svg>
