<?xml version="1.0" encoding="utf-8"?>
<!-- Generator: Adobe Illustrator 15.1.0, SVG Export Plug-In . SVG Version: 6.00 Build 0)  -->
<!DOCTYPE svg PUBLIC "-//W3C//DTD SVG 1.1//EN" "http://www.w3.org/Graphics/SVG/1.1/DTD/svg11.dtd">
<svg version="1.1" id="Layer_1" xmlns="http://www.w3.org/2000/svg" xmlns:xlink="http://www.w3.org/1999/xlink" x="0px" y="0px"
	 width="150px" height="125px" viewBox="0 0 150 125" enable-background="new 0 0 150 125" xml:space="preserve">
<g id="Layer_1_5_">
	<g id="Layer_2_2_" display="none">
		<rect x="45.319" y="23.395" display="inline" stroke="#FFFFFF" stroke-miterlimit="10" width="53.181" height="53.105"/>
	</g>
	<g id="Layer_1_3_">
		<g>
			<g id="Layer_4">
				<g id="Layer_4_1_">
					<polygon fill="#1D215E" points="45.736,69.809 89.25,125 150,125 150,78.928 96.173,41.354 75.468,53.684 					"/>
				</g>
			</g>
			<g id="Layer_2">
				<g id="Layer_1_1_">
					<g>
						<path fill="#1D215E" d="M46.281,25.614c8.471,0,17.441-2.167,25.916-2.167c1.578,2.352,3.684,5.375,3.684,5.375
							s0.35,37.231,0.35,50.226c-8.494,0-21.519-4.687-30.013-4.687c0-16.188,0-32.379,0-48.566
							C46.213,25.71,46.209,25.621,46.281,25.614z M49.429,37.785c2.096,0,4.194,0,6.29,0c0-2.012,0-4.021,0-6.026
							c-2.077,0-4.152,0-6.227,0C49.345,33.648,49.469,35.795,49.429,37.785z M62.136,37.785c2.099,0,4.196,0,6.294,0
							c0-2.012,0-4.021,0-6.026c-2.074,0-4.152,0-6.229,0C62.052,33.648,62.178,35.795,62.136,37.785z M49.429,49.957
							c2.096,0,4.194,0,6.29,0c0-2.012,0-4.018,0-6.027c-2.077,0-4.152,0-6.227,0C49.345,45.82,49.469,47.97,49.429,49.957z
							 M62.136,49.957c2.099,0,4.196,0,6.294,0c0-2.012,0-4.018,0-6.027c-2.074,0-4.152,0-6.229,0
							C62.052,45.82,62.178,47.97,62.136,49.957z M49.429,62.128c2.096,0,4.194,0,6.29,0c0-2.007,0-4.017,0-6.026
							c-2.077,0-4.152,0-6.227,0C49.345,57.991,49.469,60.141,49.429,62.128z M62.136,62.128c2.099,0,4.196,0,6.294,0
							c0-2.007,0-4.017,0-6.026c-2.074,0-4.152,0-6.229,0C62.052,57.991,62.178,60.141,62.136,62.128z"/>
						<path fill="#1D215E" d="M74.967,40.868c7.997,0.039,12.52-1.938,20.406-1.8c0,1.023,3.656,3.91,3.656,4.932
							c-8.045-0.039-16.271,0.081-24.201-0.061c0-0.964,0-1.929,0-2.895C74.826,40.945,74.881,40.893,74.967,40.868z"/>
						<path fill="#1D215E" d="M98.563,74.288l0.468-0.224l-1.054-30.798c-6.17,0-14.699-0.84-20.869-0.84
							c-0.078,0.022-3.333,3.527-0.049,4.47c0.045,9.075-2.204,17.122-2.057,26.104c2.121,0,6.357,1.191,8.479,1.191
							c0-4.056,0-8.111,0-12.17c3.144,0.04,6.455-0.082,9.498,0.061c0,4.037,0,8.075,0,12.109
							C95.117,74.191,96.424,74.288,98.563,74.288z"/>
					</g>
				</g>
				<g id="Layer_2_1_">
				</g>
			</g>
			<g id="Layer_1_2_">
				<g>
					<path fill="#FFFFFF" d="M45.852,23.506c8.256,0,16.514,0,24.773,0c0,16.533,0,33.072,0,49.604c-8.279,0-16.555,0-24.834,0
						c0-16.476,0-32.947,0-49.418C45.786,23.604,45.781,23.516,45.852,23.506z M48.919,35.893c2.043,0,4.087,0,6.131,0
						c0-2.045,0-4.088,0-6.134c-2.025,0-4.046,0-6.067,0C48.837,31.682,48.958,33.867,48.919,35.893z M61.305,35.893
						c2.045,0,4.088,0,6.135,0c0-2.045,0-4.088,0-6.134c-2.022,0-4.047,0-6.07,0C61.223,31.682,61.345,33.867,61.305,35.893z
						 M48.919,48.277c2.043,0,4.087,0,6.131,0c0-2.045,0-4.088,0-6.134c-2.025,0-4.046,0-6.067,0
						C48.837,44.068,48.958,46.254,48.919,48.277z M61.305,48.277c2.045,0,4.088,0,6.135,0c0-2.045,0-4.088,0-6.134
						c-2.022,0-4.047,0-6.07,0C61.223,44.068,61.345,46.254,61.305,48.277z M48.919,60.663c2.043,0,4.087,0,6.131,0
						c0-2.044,0-4.087,0-6.132c-2.025,0-4.046,0-6.067,0C48.837,56.452,48.958,58.641,48.919,60.663z M61.305,60.663
						c2.045,0,4.088,0,6.135,0c0-2.044,0-4.087,0-6.132c-2.022,0-4.047,0-6.07,0C61.223,56.452,61.345,58.641,61.305,60.663z"/>
					<path fill="#1D215E" d="M48.981,29.76c2.022,0,4.044,0,6.067,0c0,2.045,0,4.088,0,6.133c-2.043,0-4.089,0-6.13,0
						C48.958,33.867,48.837,31.682,48.981,29.76z"/>
					<path fill="#1D215E" d="M61.365,29.76c2.027,0,4.05,0,6.07,0c0,2.045,0,4.088,0,6.133c-2.045,0-4.086,0-6.135,0
						C61.345,33.867,61.223,31.682,61.365,29.76z"/>
					<path fill="#FFFFFF" d="M73.75,38.957c7.193,0.041,14.551-0.083,21.646,0.061c0,1.043,0,2.086,0,3.127
						c-7.236-0.04-14.636,0.082-21.771-0.062c0-0.979,0-1.96,0-2.942C73.625,39.036,73.671,38.982,73.75,38.957z"/>
					<path fill="#1D215E" d="M48.981,42.145c2.022,0,4.044,0,6.067,0c0,2.046,0,4.089,0,6.134c-2.043,0-4.089,0-6.13,0
						C48.958,46.254,48.837,44.068,48.981,42.145z"/>
					<path fill="#1D215E" d="M61.365,42.145c2.027,0,4.05,0,6.07,0c0,2.046,0,4.089,0,6.134c-2.045,0-4.086,0-6.135,0
						C61.345,46.254,61.223,44.068,61.365,42.145z"/>
					<path fill="#FFFFFF" d="M73.75,45.15c7.193,0,14.389,0,21.582,0c0.145,9.194,0.021,18.657,0.063,27.959
						c-2.084,0-4.17,0-6.256,0c0-4.108,0-8.218,0-12.325c-2.967-0.145-6.192-0.021-9.257-0.061c0,4.129,0,8.259,0,12.386
						c-2.065,0-4.128,0-6.196,0c-0.144-9.138-0.021-18.541-0.063-27.775C73.625,45.229,73.671,45.174,73.75,45.15z"/>
					<path fill="#1D215E" d="M48.981,54.531c2.022,0,4.044,0,6.067,0c0,2.045,0,4.088,0,6.132c-2.043,0-4.089,0-6.13,0
						C48.958,58.641,48.837,56.452,48.981,54.531z"/>
					<path fill="#1D215E" d="M61.365,54.531c2.027,0,4.05,0,6.07,0c0,2.045,0,4.088,0,6.132c-2.045,0-4.086,0-6.135,0
						C61.345,58.641,61.223,56.452,61.365,54.531z"/>
				</g>
			</g>
		</g>
	</g>
	<g id="Layer_3_1_" display="none">
		<g id="Layer_1_4_" display="inline">
			<g>
				<path fill="#1D215E" d="M60.852,36.006c8.256,0,16.514,0,24.773,0c0,16.533,0,33.072,0,49.604c-8.279,0-16.555,0-24.834,0
					c0-16.475,0-32.946,0-49.417C60.786,36.104,60.781,36.015,60.852,36.006z M63.919,48.392c2.043,0,4.087,0,6.131,0
					c0-2.045,0-4.088,0-6.133c-2.025,0-4.046,0-6.067,0C63.837,44.181,63.958,46.367,63.919,48.392z M76.305,48.392
					c2.045,0,4.088,0,6.135,0c0-2.045,0-4.088,0-6.133c-2.021,0-4.047,0-6.069,0C76.223,44.181,76.345,46.367,76.305,48.392z
					 M63.919,60.777c2.043,0,4.087,0,6.131,0c0-2.044,0-4.088,0-6.132c-2.025,0-4.046,0-6.067,0
					C63.837,56.568,63.958,58.754,63.919,60.777z M76.305,60.777c2.045,0,4.088,0,6.135,0c0-2.044,0-4.088,0-6.132
					c-2.021,0-4.047,0-6.069,0C76.223,56.568,76.345,58.754,76.305,60.777z M63.919,73.163c2.043,0,4.087,0,6.131,0
					c0-2.044,0-4.087,0-6.132c-2.025,0-4.046,0-6.067,0C63.837,68.952,63.958,71.141,63.919,73.163z M76.305,73.163
					c2.045,0,4.088,0,6.135,0c0-2.044,0-4.087,0-6.132c-2.021,0-4.047,0-6.069,0C76.223,68.952,76.345,71.141,76.305,73.163z"/>
				<path fill="#FFFFFF" d="M63.981,42.26c2.022,0,4.044,0,6.067,0c0,2.044,0,4.087,0,6.133c-2.043,0-4.089,0-6.13,0
					C63.958,46.367,63.837,44.181,63.981,42.26z"/>
				<path fill="#FFFFFF" d="M76.365,42.26c2.027,0,4.05,0,6.07,0c0,2.044,0,4.087,0,6.133c-2.045,0-4.086,0-6.136,0
					C76.345,46.367,76.223,44.181,76.365,42.26z"/>
				<path fill="#1D215E" d="M88.75,51.457c7.193,0.041,14.551-0.083,21.646,0.061c0,1.043,0,2.085,0,3.127
					c-7.236-0.041-14.636,0.082-21.771-0.062c0-0.98,0-1.96,0-2.943C88.625,51.536,88.671,51.483,88.75,51.457z"/>
				<path fill="#FFFFFF" d="M63.981,54.645c2.022,0,4.044,0,6.067,0c0,2.045,0,4.088,0,6.132c-2.043,0-4.089,0-6.13,0
					C63.958,58.754,63.837,56.568,63.981,54.645z"/>
				<path fill="#FFFFFF" d="M76.365,54.645c2.027,0,4.05,0,6.07,0c0,2.045,0,4.088,0,6.132c-2.045,0-4.086,0-6.136,0
					C76.345,58.754,76.223,56.568,76.365,54.645z"/>
				<path fill="#1D215E" d="M88.75,57.65c7.193,0,14.389,0,21.582,0c0.145,9.196,0.021,18.659,0.063,27.959c-2.084,0-4.17,0-6.256,0
					c0-4.108,0-8.217,0-12.325c-2.967-0.144-6.193-0.021-9.257-0.06c0,4.129,0,8.258,0,12.385c-2.065,0-4.128,0-6.196,0
					c-0.144-9.137-0.021-18.541-0.063-27.775C88.625,57.729,88.671,57.674,88.75,57.65z"/>
				<path fill="#FFFFFF" d="M63.981,67.031c2.022,0,4.044,0,6.067,0c0,2.045,0,4.088,0,6.132c-2.043,0-4.089,0-6.13,0
					C63.958,71.141,63.837,68.952,63.981,67.031z"/>
				<path fill="#FFFFFF" d="M76.365,67.031c2.027,0,4.05,0,6.07,0c0,2.045,0,4.088,0,6.132c-2.045,0-4.086,0-6.136,0
					C76.345,71.141,76.223,68.952,76.365,67.031z"/>
			</g>
		</g>
	</g>
</g>
<g id="Layer_2_3_" display="none">
	<g id="Layer_1_6_" display="inline">
		<g>
			<path fill="#1D215E" d="M45.691,23.593c8.256,0,16.514,0,24.773,0c0,16.533,0,33.072,0,49.604c-8.279,0-16.556,0-24.834,0
				c0-16.476,0-32.947,0-49.418C45.625,23.69,45.621,23.603,45.691,23.593z M48.758,35.979c2.043,0,4.087,0,6.131,0
				c0-2.045,0-4.088,0-6.134c-2.025,0-4.046,0-6.067,0C48.676,31.769,48.797,33.954,48.758,35.979z M61.145,35.979
				c2.045,0,4.088,0,6.135,0c0-2.045,0-4.088,0-6.134c-2.021,0-4.047,0-6.07,0C61.063,31.769,61.184,33.954,61.145,35.979z
				 M48.758,48.364c2.043,0,4.087,0,6.131,0c0-2.045,0-4.088,0-6.134c-2.025,0-4.046,0-6.067,0
				C48.676,44.155,48.797,46.341,48.758,48.364z M61.145,48.364c2.045,0,4.088,0,6.135,0c0-2.045,0-4.088,0-6.134
				c-2.021,0-4.047,0-6.07,0C61.063,44.155,61.184,46.341,61.145,48.364z M48.758,60.75c2.043,0,4.087,0,6.131,0
				c0-2.044,0-4.087,0-6.132c-2.025,0-4.046,0-6.067,0C48.676,56.539,48.797,58.728,48.758,60.75z M61.145,60.75
				c2.045,0,4.088,0,6.135,0c0-2.044,0-4.087,0-6.132c-2.021,0-4.047,0-6.07,0C61.063,56.539,61.184,58.728,61.145,60.75z"/>
			<path fill="#FFFFFF" d="M48.82,29.847c2.022,0,4.044,0,6.067,0c0,2.045,0,4.088,0,6.133c-2.043,0-4.089,0-6.13,0
				C48.797,33.954,48.676,31.769,48.82,29.847z"/>
			<path fill="#FFFFFF" d="M61.205,29.847c2.026,0,4.049,0,6.069,0c0,2.045,0,4.088,0,6.133c-2.045,0-4.086,0-6.136,0
				C61.184,33.954,61.063,31.769,61.205,29.847z"/>
			<path fill="#1D215E" d="M73.59,39.044c7.192,0.041,14.551-0.083,21.646,0.061c0,1.043,0,2.086,0,3.127
				C88,42.191,80.6,42.313,73.465,42.17c0-0.979,0-1.96,0-2.942C73.465,39.123,73.51,39.069,73.59,39.044z"/>
			<path fill="#FFFFFF" d="M48.82,42.231c2.022,0,4.044,0,6.067,0c0,2.046,0,4.089,0,6.134c-2.043,0-4.089,0-6.13,0
				C48.797,46.341,48.676,44.155,48.82,42.231z"/>
			<path fill="#FFFFFF" d="M61.205,42.231c2.026,0,4.049,0,6.069,0c0,2.046,0,4.089,0,6.134c-2.045,0-4.086,0-6.136,0
				C61.184,46.341,61.063,44.155,61.205,42.231z"/>
			<path fill="#1D215E" d="M73.59,45.237c7.192,0,14.389,0,21.582,0c0.145,9.194,0.021,18.657,0.063,27.959c-2.084,0-4.17,0-6.256,0
				c0-4.108,0-8.218,0-12.325c-2.967-0.145-6.193-0.021-9.258-0.061c0,4.129,0,8.259,0,12.386c-2.064,0-4.127,0-6.195,0
				c-0.145-9.138-0.021-18.541-0.063-27.775C73.465,45.315,73.51,45.261,73.59,45.237z"/>
			<path fill="#FFFFFF" d="M48.82,54.618c2.022,0,4.044,0,6.067,0c0,2.045,0,4.088,0,6.132c-2.043,0-4.089,0-6.13,0
				C48.797,58.728,48.676,56.539,48.82,54.618z"/>
			<path fill="#FFFFFF" d="M61.205,54.618c2.026,0,4.049,0,6.069,0c0,2.045,0,4.088,0,6.132c-2.045,0-4.086,0-6.136,0
				C61.184,58.728,61.063,56.539,61.205,54.618z"/>
		</g>
	</g>
</g>
</svg>
