<?xml version="1.0" encoding="utf-8"?>
<!-- Generator: Adobe Illustrator 15.1.0, SVG Export Plug-In . SVG Version: 6.00 Build 0)  -->
<!DOCTYPE svg PUBLIC "-//W3C//DTD SVG 1.1//EN" "http://www.w3.org/Graphics/SVG/1.1/DTD/svg11.dtd">
<svg version="1.1" xmlns="http://www.w3.org/2000/svg" xmlns:xlink="http://www.w3.org/1999/xlink" x="0px" y="0px" width="150px"
	 height="125px" viewBox="0 0 150 125" enable-background="new 0 0 150 125" xml:space="preserve">
<g id="Layer_2_2_" display="none">
	<rect x="45.319" y="22.895" display="inline" stroke="#FFFFFF" stroke-miterlimit="10" width="53.181" height="53.105"/>
</g>
<g id="Layer_1">
	<g id="Layer_2_1_">
		<rect x="-983.181" y="326.395" stroke="#FFFFFF" stroke-miterlimit="10" width="53.181" height="53.105"/>
	</g>
	<g id="Layer_1_2_" display="none">
		<g display="inline">
			<g id="Layer_2">
				<g id="Layer_4">
					<polygon fill="#260F47" points="45.026,75.292 61.675,81.911 86.641,125 149.699,125 150,82.524 81.826,35.181 50.016,34.9 
											"/>
				</g>
				<g>
					<g>
						<polygon fill="#260F47" points="52.498,35.728 81.959,36.416 82.357,47.362 64.333,47.7 61.178,72.933 48,72.142 						"/>
						<circle fill="#260F47" cx="58.529" cy="39.346" r="1.292"/>
						<circle fill="#260F47" cx="73.862" cy="39.518" r="1.293"/>
						<path fill="#260F47" d="M62.345,38.116c0,0,0.341-8.442,7.062-8.442c6.722,0,3.592,7.088,3.592,7.088l2.239,0.17
							c0,0-0.341-11.196-8.267-11.196c-7.924,0-10.164,10.851-9.821,11.025C57.493,36.933,62.345,38.116,62.345,38.116z"/>
					</g>
					<polygon fill="#260F47" points="66.14,48.99 95.944,48.132 103.18,73.799 97.84,78.451 63.729,78.109 					"/>
					<polyline fill="#260F47" points="94.02,49.854 96.26,77.07 101.081,73.799 					"/>
					<path fill="#260F47" d="M86.607,51.233c0,0-0.344,8.439-7.063,8.439c-6.722,0-6.205-8.613-6.205-8.613l-2.237-0.172
						c0,0,0.342,11.198,8.268,11.198s10.164-10.851,9.82-11.027C88.85,50.888,86.607,51.233,86.607,51.233z"/>
				</g>
			</g>
			<g id="Layer_1_1_">
				<g>
					<g>
						<polygon fill="#FFFFFF" points="50.016,34.9 82.692,35.664 83.133,47.806 63.143,48.18 59.644,76.167 45.026,75.292 						"/>
						<circle fill="#3D1071" cx="56.704" cy="38.914" r="1.434"/>
						<circle fill="#3D1071" cx="73.712" cy="39.104" r="1.434"/>
						<path fill="#FFFFFF" d="M58.043,35.854c0,0,0.377-9.362,7.833-9.362c7.453,0,6.875,9.558,6.875,9.558l2.483,0.188
							c0,0-0.376-12.42-9.169-12.42c-8.786,0-11.274,12.036-10.893,12.23C55.556,36.236,58.043,35.854,58.043,35.854z"/>
					</g>
					<polygon fill="#FFFFFF" points="64.35,49.612 97.407,48.658 105.432,77.129 99.508,82.289 61.675,81.911 					"/>
					<polyline fill="#1A013F" points="96.07,50.569 98.553,80.759 103.904,77.129 					"/>
					<path fill="#1A013F" d="M87.053,52.099c0,0-0.383,9.364-7.834,9.364c-7.457,0-6.88-9.556-6.88-9.556l-2.479-0.191
						c0,0,0.376,12.423,9.171,12.423c8.79,0,11.272-12.037,10.89-12.23C89.537,51.716,87.053,52.099,87.053,52.099z"/>
				</g>
			</g>
		</g>
	</g>
	<g id="Layer_3">
		<g id="Layer_1_3_">
			<g>
				<g>
					<polygon fill="#1A013F" points="51.256,33.879 83.933,34.643 84.373,46.784 64.383,47.158 60.884,75.146 46.267,74.271 					
						"/>
					<circle fill="#FFFFFF" cx="57.944" cy="37.893" r="1.434"/>
					<circle fill="#FFFFFF" cx="74.953" cy="38.083" r="1.434"/>
					<path fill="#1A013F" d="M59.283,34.832c0,0,0.377-9.362,7.833-9.362c7.453,0,6.875,9.558,6.875,9.558l2.483,0.188
						c0,0-0.376-12.42-9.169-12.42c-8.786,0-11.274,12.036-10.893,12.23C56.796,35.215,59.283,34.832,59.283,34.832z"/>
				</g>
				<polygon fill="#1A013F" points="65.59,48.591 98.647,47.637 106.672,76.107 100.748,81.268 62.916,80.89 				"/>
				<polyline fill="#FFFFFF" points="97.311,49.548 99.793,79.737 105.145,76.107 				"/>
				<path fill="#FFFFFF" d="M88.293,51.077c0,0-0.383,9.364-7.834,9.364c-7.457,0-6.881-9.556-6.881-9.556L71.1,50.694
					c0,0,0.376,12.423,9.171,12.423c8.79,0,11.272-12.037,10.89-12.23C90.777,50.694,88.293,51.077,88.293,51.077z"/>
			</g>
		</g>
	</g>
</g>
</svg>
