<?xml version="1.0" encoding="utf-8"?>
<!-- Generator: Adobe Illustrator 15.1.0, SVG Export Plug-In . SVG Version: 6.00 Build 0)  -->
<!DOCTYPE svg PUBLIC "-//W3C//DTD SVG 1.1//EN" "http://www.w3.org/Graphics/SVG/1.1/DTD/svg11.dtd">
<svg version="1.1" xmlns="http://www.w3.org/2000/svg" xmlns:xlink="http://www.w3.org/1999/xlink" x="0px" y="0px" width="150px"
	 height="125px" viewBox="0 0 150 125" enable-background="new 0 0 150 125" xml:space="preserve">
<g id="Layer_1" display="none">
	<g id="Layer_1_2_">
		<g id="Layer_2" display="inline">
			<g>
				<g>
					<g>
						<path fill="#008272" d="M119.666,81.855V37.834H60.333v44.021h17.226v1.912h-7.655c-5.276,0-9.57,4.293-9.57,9.568v3.828
							h1.914v-3.828c0-3.896,2.928-7.115,6.699-7.589v1.849h1.913v-1.849c3.771,0.474,6.701,3.69,6.701,7.589v3.828h1.914v-3.828
							c0-3.132-1.521-5.909-3.854-7.654h28.759c-2.333,1.745-3.853,4.522-3.853,7.654v3.828h1.914v-3.828
							c0-3.896,2.928-7.115,6.697-7.589v1.849h1.916v-1.849c3.771,0.474,6.696,3.69,6.696,7.589v3.828h1.914v-3.828
							c0-5.275-4.292-9.568-9.567-9.568h-7.658v-1.912H119.666z M100.525,83.768H79.473v-1.912h21.053V83.768L100.525,83.768z
							 M62.247,79.939V39.747h55.505v40.192H62.247z"/>
						<path fill="#008272" d="M64.161,78.025h51.678V41.661H64.161V78.025z M66.075,74.198h1.914v-1.914h-1.914v-1.913h1.914v-1.913
							h-1.914v-1.915h1.914V64.63h-1.914v-1.913h1.914v-1.914h-1.914v-1.915h1.914v-1.913h-1.914v-1.914h1.914v-1.913h-1.914v-1.914
							h1.914V49.32h-1.914v-1.913h1.914v-1.913h-1.914v-1.915h47.85v1.915h-1.915v1.913h1.915v1.913h-1.915v1.914h1.915v1.914
							h-1.915v1.913h1.915v1.914h-1.915v1.913h1.915v1.915h-1.915v1.914h1.915v1.913h-1.915v1.913h1.915v1.915h-1.915v1.913h1.915
							v1.913h-1.915v1.914h1.915v1.913h-47.85V74.198z"/>
						<path fill="#008272" d="M69.903,89.51c-2.111,0-3.828,1.717-3.828,3.828s1.717,3.828,3.828,3.828
							c2.111,0,3.828-1.717,3.828-3.828S72.014,89.51,69.903,89.51z M69.903,95.252c-1.056,0-1.914-0.859-1.914-1.914
							s0.858-1.913,1.914-1.913c1.054,0,1.914,0.858,1.914,1.913S70.958,95.252,69.903,95.252z"/>
						<path fill="#008272" d="M110.096,89.51c-2.111,0-3.826,1.717-3.826,3.828s1.717,3.828,3.826,3.828
							c2.111,0,3.829-1.717,3.829-3.828S112.207,89.51,110.096,89.51z M110.096,95.252c-1.055,0-1.912-0.859-1.912-1.914
							s0.857-1.913,1.912-1.913s1.914,0.858,1.914,1.913S111.15,95.252,110.096,95.252z"/>
						
							<rect x="89.043" y="49.076" transform="matrix(0.9702 0.2422 -0.2422 0.9702 16.4753 -20.0997)" fill="#008272" width="1.911" height="15.785"/>
						<polygon fill="#008272" points="95.934,49.892 101.244,56.973 95.934,64.055 97.464,65.203 103.637,56.973 97.464,48.742 
													"/>
						<polygon fill="#008272" points="78.756,56.973 84.066,49.892 82.536,48.742 76.363,56.973 82.536,65.203 84.066,64.055 						
							"/>
						<path fill="#008272" d="M90,66.542c-1.583,0-2.871,1.289-2.871,2.872s1.288,2.871,2.871,2.871s2.871-1.288,2.871-2.871
							S91.583,66.542,90,66.542z M90,70.371c-0.527,0-0.958-0.43-0.958-0.957c0-0.528,0.429-0.956,0.958-0.956
							s0.957,0.428,0.957,0.956C90.957,69.941,90.527,70.371,90,70.371z"/>
						<rect x="94.784" y="68.456" fill="#008272" width="1.914" height="1.913"/>
						<rect x="98.613" y="68.456" fill="#008272" width="1.914" height="1.913"/>
						<rect x="83.3" y="68.456" fill="#008272" width="1.915" height="1.913"/>
						<rect x="79.473" y="68.456" fill="#008272" width="1.914" height="1.913"/>
					</g>
				</g>
			</g>
		</g>
		<g id="Layer_1_1_" display="inline">
			<g id="Layer_2_1_">
				<g>
					<g>
						<g>
							<path fill="#FFFFFF" d="M-945.566,350.43v-39.035h-52.615v39.035h15.275v1.697h-6.789c-4.679,0-8.486,3.809-8.486,8.486
								v3.395h1.697v-3.395c0-3.455,2.597-6.31,5.94-6.73v1.639h1.697v-1.639c3.344,0.422,5.94,3.275,5.94,6.73v3.395h1.697v-3.395
								c0-2.777-1.349-5.24-3.416-6.789h25.502c-2.067,1.549-3.416,4.012-3.416,6.789v3.395h1.697v-3.395
								c0-3.455,2.597-6.31,5.94-6.73v1.639h1.695v-1.639c3.344,0.422,5.939,3.275,5.939,6.73v3.395h1.697v-3.395
								c0-4.679-3.807-8.486-8.484-8.486h-6.789v-1.697H-945.566z M-962.538,352.129h-18.67v-1.697h18.67V352.129z
								 M-996.483,348.732v-35.642h49.219v35.642H-996.483z"/>
							<path fill="#FFFFFF" d="M-994.786,347.037h45.826V314.79h-45.826V347.037z M-993.088,343.643h1.697v-1.696h-1.697v-1.697
								h1.697v-1.697h-1.697v-1.696h1.697v-1.697h-1.697v-1.697h1.697v-1.697h-1.697v-1.698h1.697v-1.696h-1.697v-1.696h1.697
								v-1.697h-1.697v-1.696h1.697v-1.697h-1.697v-1.697h1.697v-1.696h-1.697v-1.697h42.43v1.697h-1.697v1.696h1.697v1.697h-1.697
								v1.697h1.697v1.696h-1.697v1.697h1.697v1.697h-1.697v1.697h1.697v1.698h-1.697v1.696h1.697v1.697h-1.697v1.696h1.697v1.697
								h-1.697v1.697h1.697v1.696h-1.697v1.696h1.697v1.698h-42.43V343.643z"/>
							<path fill="#FFFFFF" d="M-989.694,357.221c-1.872,0-3.394,1.521-3.394,3.396c0,1.87,1.521,3.393,3.394,3.393
								s3.395-1.521,3.395-3.393C-986.3,358.742-987.822,357.221-989.694,357.221z M-989.694,362.311
								c-0.936,0-1.697-0.76-1.697-1.693c0-0.935,0.761-1.697,1.697-1.697c0.935,0,1.698,0.763,1.698,1.697
								C-987.996,361.551-988.759,362.311-989.694,362.311z"/>
							<path fill="#FFFFFF" d="M-954.052,357.221c-1.874,0-3.396,1.521-3.396,3.396c0,1.87,1.521,3.393,3.396,3.393
								c1.87,0,3.394-1.521,3.394-3.393C-950.658,358.742-952.182,357.221-954.052,357.221z M-954.052,362.311
								c-0.938,0-1.697-0.76-1.697-1.693c0-0.935,0.761-1.697,1.697-1.697c0.935,0,1.694,0.763,1.694,1.697
								C-952.358,361.551-953.119,362.311-954.052,362.311z"/>
							
								<rect x="-972.78" y="321.358" transform="matrix(0.9703 0.2417 -0.2417 0.9703 50.5487 244.6756)" fill="#FFFFFF" width="1.697" height="13.995"/>
							<polygon fill="#FFFFFF" points="-966.611,322.087 -961.902,328.367 -966.611,334.646 -965.254,335.666 -959.781,328.367 
								-965.254,321.068 							"/>
							<polygon fill="#FFFFFF" points="-981.844,328.367 -977.135,322.087 -978.493,321.068 -983.966,328.367 -978.493,335.666 
								-977.135,334.646 							"/>
							<path fill="#FFFFFF" d="M-971.873,336.854c-1.404,0-2.547,1.143-2.547,2.546c0,1.402,1.143,2.545,2.547,2.545
								c1.403,0,2.545-1.143,2.545-2.545C-969.328,337.996-970.47,336.854-971.873,336.854z M-971.873,340.248
								c-0.47,0-0.85-0.381-0.85-0.85c0-0.47,0.381-0.849,0.85-0.849c0.468,0,0.848,0.381,0.848,0.849
								C-971.025,339.867-971.405,340.248-971.873,340.248z"/>
							<rect x="-967.631" y="338.551" fill="#FFFFFF" width="1.697" height="1.697"/>
							<rect x="-964.234" y="338.551" fill="#FFFFFF" width="1.695" height="1.697"/>
							<rect x="-977.813" y="338.551" fill="#FFFFFF" width="1.695" height="1.697"/>
							<rect x="-981.208" y="338.551" fill="#FFFFFF" width="1.696" height="1.697"/>
						</g>
					</g>
				</g>
			</g>
			<path fill="#026052" d="M-938.833,311.391h-59.346v0.004l0,0v43.641h0.011v0.409l2.727,4.394
				c-1.691,1.709-2.738,4.026-2.738,6.58v3.795l10.477,4.735l13.69,19.86l12.455,18.691h68.057v-44.867L-938.833,311.391z"/>
		</g>
		<g id="Layer_3" display="inline">
			<g>
				<g>
					<g>
						<path fill="#FFFFFF" d="M-938.834,354.355v-44.021h-59.333v44.021h17.226v1.911h-7.655c-5.276,0-9.57,4.293-9.57,9.569v3.828
							h1.914v-3.828c0-3.896,2.928-7.116,6.699-7.589v1.848h1.913v-1.848c3.771,0.473,6.701,3.691,6.701,7.589v3.828h1.914v-3.828
							c0-3.132-1.521-5.909-3.854-7.655h28.759c-2.333,1.746-3.853,4.523-3.853,7.655v3.828h1.914v-3.828
							c0-3.896,2.928-7.116,6.697-7.589v1.848h1.916v-1.848c3.771,0.473,6.697,3.691,6.697,7.589v3.828h1.914v-3.828
							c0-5.276-4.292-9.569-9.568-9.569h-7.658v-1.911H-938.834z M-957.975,356.268h-21.053v-1.911h21.053V356.268z
							 M-996.253,352.439v-40.192h55.505v40.192H-996.253L-996.253,352.439z"/>
						<path fill="#FFFFFF" d="M-994.339,350.525h51.678v-36.364h-51.678V350.525z M-992.425,346.698h1.914v-1.914h-1.914v-1.913
							h1.914v-1.913h-1.914v-1.915h1.914v-1.913h-1.914v-1.913h1.914v-1.914h-1.914v-1.914h1.914v-1.914h-1.914v-1.914h1.914v-1.911
							h-1.914v-1.914h1.914v-1.914h-1.914v-1.913h1.914v-1.913h-1.914v-1.915h47.85v1.915h-1.915v1.913h1.915v1.913h-1.915v1.914
							h1.915v1.914h-1.915v1.911h1.915v1.914h-1.915v1.914h1.915v1.914h-1.915v1.914h1.915v1.913h-1.915v1.913h1.915v1.915h-1.915
							v1.913h1.915v1.913h-1.915v1.914h1.915v1.913h-47.85V346.698z"/>
						<path fill="#FFFFFF" d="M-988.597,362.01c-2.111,0-3.828,1.717-3.828,3.828s1.717,3.828,3.828,3.828
							c2.111,0,3.828-1.717,3.828-3.828S-986.486,362.01-988.597,362.01z M-988.597,367.752c-1.056,0-1.914-0.859-1.914-1.914
							s0.858-1.913,1.914-1.913c1.054,0,1.914,0.858,1.914,1.913S-987.542,367.752-988.597,367.752z"/>
						<path fill="#FFFFFF" d="M-948.404,362.01c-2.111,0-3.826,1.717-3.826,3.828s1.717,3.828,3.826,3.828
							c2.111,0,3.829-1.717,3.829-3.828S-946.293,362.01-948.404,362.01z M-948.404,367.752c-1.055,0-1.912-0.859-1.912-1.914
							s0.857-1.913,1.912-1.913c1.055,0,1.914,0.858,1.914,1.913S-947.35,367.752-948.404,367.752z"/>
						
							<rect x="-969.405" y="321.614" transform="matrix(0.9703 0.2421 -0.2421 0.9703 50.9593 244.2165)" fill="#FFFFFF" width="1.912" height="15.784"/>
						<polygon fill="#FFFFFF" points="-962.566,322.393 -957.256,329.473 -962.566,336.555 -961.036,337.703 -954.863,329.473 
							-961.036,321.242 						"/>
						<polygon fill="#FFFFFF" points="-979.744,329.473 -974.434,322.393 -975.964,321.242 -982.137,329.473 -975.964,337.703 
							-974.434,336.555 						"/>
						<path fill="#FFFFFF" d="M-968.5,339.042c-1.583,0-2.871,1.289-2.871,2.872s1.288,2.871,2.871,2.871s2.871-1.288,2.871-2.871
							S-966.917,339.042-968.5,339.042z M-968.5,342.871c-0.527,0-0.958-0.43-0.958-0.957c0-0.528,0.429-0.956,0.958-0.956
							s0.957,0.428,0.957,0.956C-967.543,342.441-967.973,342.871-968.5,342.871z"/>
						<rect x="-963.716" y="340.956" fill="#FFFFFF" width="1.914" height="1.913"/>
						<rect x="-959.887" y="340.956" fill="#FFFFFF" width="1.914" height="1.913"/>
						<rect x="-975.2" y="340.956" fill="#FFFFFF" width="1.915" height="1.913"/>
						<rect x="-979.027" y="340.956" fill="#FFFFFF" width="1.914" height="1.913"/>
					</g>
				</g>
			</g>
		</g>
	</g>
	<g id="Layer_2_2_" display="inline">
		<g id="Layer_3_1_">
			<g>
				<g>
					<g>
						<path fill="#026052" d="M104.666,76.855V32.834H45.333v44.021H62.56v1.911h-7.655c-5.276,0-9.57,4.293-9.57,9.569v3.828h1.914
							v-3.828c0-3.896,2.928-7.116,6.699-7.589v1.848h1.913v-1.848c3.771,0.473,6.701,3.691,6.701,7.589v3.828h1.914v-3.828
							c0-3.132-1.521-5.909-3.854-7.655h28.759c-2.334,1.746-3.854,4.523-3.854,7.655v3.828h1.914v-3.828
							c0-3.896,2.928-7.116,6.697-7.589v1.848h1.916v-1.848c3.771,0.473,6.697,3.691,6.697,7.589v3.828h1.914v-3.828
							c0-5.276-4.293-9.569-9.568-9.569h-7.658v-1.911H104.666z M85.525,78.768H64.473v-1.911h21.053V78.768z M47.248,74.939V34.747
							h55.504v40.192H47.248L47.248,74.939z"/>
						<path fill="#026052" d="M49.162,73.025h51.678V36.661H49.162V73.025z M51.076,69.198h1.914v-1.914h-1.914v-1.913h1.914v-1.913
							h-1.914v-1.915h1.914V59.63h-1.914v-1.913h1.914v-1.914h-1.914v-1.914h1.914v-1.914h-1.914v-1.914h1.914v-1.911h-1.914v-1.914
							h1.914v-1.914h-1.914v-1.913h1.914v-1.913h-1.914V38.58h47.85v1.915H97.01v1.913h1.916v1.913H97.01v1.914h1.916v1.914H97.01
							v1.911h1.916v1.914H97.01v1.914h1.916v1.914H97.01v1.914h1.916v1.913H97.01v1.913h1.916v1.915H97.01v1.913h1.916v1.913H97.01
							v1.914h1.916v1.913h-47.85V69.198z"/>
						<path fill="#026052" d="M54.903,84.51c-2.111,0-3.828,1.717-3.828,3.828s1.717,3.828,3.828,3.828
							c2.111,0,3.828-1.717,3.828-3.828S57.015,84.51,54.903,84.51z M54.903,90.252c-1.056,0-1.914-0.859-1.914-1.914
							s0.858-1.913,1.914-1.913c1.054,0,1.914,0.858,1.914,1.913S55.958,90.252,54.903,90.252z"/>
						<path fill="#026052" d="M95.097,84.51c-2.111,0-3.826,1.717-3.826,3.828s1.717,3.828,3.826,3.828
							c2.11,0,3.829-1.717,3.829-3.828S97.207,84.51,95.097,84.51z M95.097,90.252c-1.056,0-1.912-0.859-1.912-1.914
							s0.856-1.913,1.912-1.913c1.055,0,1.913,0.858,1.913,1.913S96.15,90.252,95.097,90.252z"/>
						
							<rect x="74.096" y="44.114" transform="matrix(0.9703 0.2421 -0.2421 0.9703 14.8201 -16.6202)" fill="#026052" width="1.912" height="15.784"/>
						<polygon fill="#026052" points="80.935,44.893 86.244,51.973 80.935,59.055 82.465,60.203 88.638,51.973 82.465,43.742 						
							"/>
						<polygon fill="#026052" points="63.756,51.973 69.066,44.893 67.537,43.742 61.363,51.973 67.537,60.203 69.066,59.055 						
							"/>
						<path fill="#026052" d="M75,61.542c-1.583,0-2.871,1.289-2.871,2.872s1.288,2.871,2.871,2.871
							c1.583,0,2.871-1.288,2.871-2.871S76.584,61.542,75,61.542z M75,65.371c-0.527,0-0.958-0.43-0.958-0.957
							c0-0.528,0.429-0.956,0.958-0.956s0.957,0.428,0.957,0.956C75.957,64.941,75.527,65.371,75,65.371z"/>
						<rect x="79.785" y="63.456" fill="#026052" width="1.914" height="1.913"/>
						<rect x="83.613" y="63.456" fill="#026052" width="1.914" height="1.913"/>
						<rect x="68.3" y="63.456" fill="#026052" width="1.915" height="1.913"/>
						<rect x="64.474" y="63.456" fill="#026052" width="1.914" height="1.913"/>
					</g>
				</g>
			</g>
		</g>
	</g>
</g>
<g id="Layer_3_2_">
	<g id="Layer_2_5_">
		<g>
			<g>
				<g>
					<path fill="#026052" d="M97.935,61.93V22.895H45.319V61.93h15.275v1.697h-6.789c-4.679,0-8.486,3.809-8.486,8.486v3.395h1.697
						v-3.395c0-3.455,2.597-6.31,5.94-6.73v1.639h1.697v-1.639c3.344,0.422,5.94,3.275,5.94,6.73v3.395h1.697v-3.395
						c0-2.777-1.349-5.24-3.416-6.789h25.502c-2.066,1.549-3.416,4.012-3.416,6.789v3.395h1.697v-3.395
						c0-3.455,2.597-6.31,5.939-6.73v1.639h1.695v-1.639c3.344,0.422,5.939,3.275,5.939,6.73v3.395h1.697v-3.395
						c0-4.679-3.808-8.486-8.484-8.486h-6.789V61.93H97.935z M80.962,63.629h-18.67v-1.697h18.67V63.629z M47.017,60.232V24.591
						h49.218v35.642H47.017z"/>
					<path fill="#026052" d="M48.714,58.537H94.54V26.29H48.714V58.537z M50.412,55.143h1.697v-1.696h-1.697v-1.697h1.697v-1.697
						h-1.697v-1.696h1.697v-1.697h-1.697v-1.697h1.697v-1.697h-1.697v-1.698h1.697v-1.696h-1.697v-1.696h1.697v-1.697h-1.697v-1.696
						h1.697v-1.697h-1.697v-1.697h1.697v-1.696h-1.697v-1.697h42.43v1.697h-1.696v1.696h1.696v1.697h-1.696v1.697h1.696v1.696
						h-1.696v1.697h1.696v1.697h-1.696v1.697h1.696v1.698h-1.696v1.696h1.696v1.697h-1.696v1.696h1.696v1.697h-1.696v1.697h1.696
						v1.696h-1.696v1.696h1.696v1.698h-42.43V55.143z"/>
					<path fill="#026052" d="M53.806,68.721c-1.872,0-3.394,1.521-3.394,3.396c0,1.87,1.521,3.393,3.394,3.393
						s3.395-1.521,3.395-3.393C57.2,70.242,55.678,68.721,53.806,68.721z M53.806,73.811c-0.936,0-1.697-0.76-1.697-1.693
						c0-0.935,0.761-1.697,1.697-1.697c0.935,0,1.698,0.763,1.698,1.697C55.504,73.051,54.741,73.811,53.806,73.811z"/>
					<path fill="#026052" d="M89.448,68.721c-1.874,0-3.396,1.521-3.396,3.396c0,1.87,1.521,3.393,3.396,3.393
						c1.869,0,3.394-1.521,3.394-3.393C92.842,70.242,91.317,68.721,89.448,68.721z M89.448,73.811c-0.938,0-1.697-0.76-1.697-1.693
						c0-0.935,0.761-1.697,1.697-1.697c0.935,0,1.693,0.763,1.693,1.697C91.142,73.051,90.381,73.811,89.448,73.811z"/>
					
						<rect x="70.72" y="32.858" transform="matrix(0.9703 0.2417 -0.2417 0.9703 11.7563 -16.1178)" fill="#026052" width="1.697" height="13.995"/>
					<polygon fill="#026052" points="76.89,33.587 81.599,39.867 76.89,46.146 78.246,47.166 83.719,39.867 78.246,32.568 					"/>
					<polygon fill="#026052" points="61.656,39.867 66.365,33.587 65.007,32.568 59.534,39.867 65.007,47.166 66.365,46.146 					
						"/>
					<path fill="#026052" d="M71.627,48.354c-1.404,0-2.547,1.143-2.547,2.546c0,1.402,1.143,2.545,2.547,2.545
						c1.403,0,2.545-1.143,2.545-2.545C74.172,49.496,73.03,48.354,71.627,48.354z M71.627,51.748c-0.47,0-0.85-0.381-0.85-0.85
						c0-0.47,0.381-0.849,0.85-0.849c0.468,0,0.848,0.381,0.848,0.849C72.475,51.367,72.095,51.748,71.627,51.748z"/>
					<rect x="75.869" y="50.051" fill="#026052" width="1.696" height="1.697"/>
					<rect x="79.267" y="50.051" fill="#026052" width="1.694" height="1.697"/>
					<rect x="65.687" y="50.051" fill="#026052" width="1.695" height="1.697"/>
					<rect x="62.292" y="50.051" fill="#026052" width="1.696" height="1.697"/>
				</g>
			</g>
		</g>
	</g>
</g>
<g id="Layer_2_3_" display="none">
	<g id="Layer_1_3_" display="inline">
		<path fill="#026052" d="M99.587,22.283H45.154v0.004v-1v40.027h0.01v0.375l2.501,4.03c-1.551,1.567-2.512,3.693-2.512,6.035v3.481
			l9.61,4.343L64.5,99l14.244,26H150V73.786L99.587,22.283z"/>
		<g id="Layer_2_4_">
			<g>
				<g>
					<g>
						<path fill="#FFFFFF" d="M97.935,61.93V22.895H45.319V61.93h15.275v1.697h-6.789c-4.679,0-8.486,3.809-8.486,8.486v3.395h1.697
							v-3.395c0-3.455,2.597-6.31,5.94-6.73v1.639h1.697v-1.639c3.344,0.422,5.94,3.275,5.94,6.73v3.395h1.697v-3.395
							c0-2.777-1.349-5.24-3.416-6.789h25.502c-2.066,1.549-3.416,4.012-3.416,6.789v3.395h1.697v-3.395
							c0-3.455,2.597-6.31,5.939-6.73v1.639h1.695v-1.639c3.344,0.422,5.939,3.275,5.939,6.73v3.395h1.697v-3.395
							c0-4.679-3.808-8.486-8.484-8.486h-6.789V61.93H97.935z M80.962,63.629h-18.67v-1.697h18.67V63.629z M47.017,60.232V24.591
							h49.218v35.642H47.017z"/>
						<path fill="#FFFFFF" d="M48.714,58.537H94.54V26.29H48.714V58.537z M50.412,55.143h1.697v-1.696h-1.697v-1.697h1.697v-1.697
							h-1.697v-1.696h1.697v-1.697h-1.697v-1.697h1.697v-1.697h-1.697v-1.698h1.697v-1.696h-1.697v-1.696h1.697v-1.697h-1.697
							v-1.696h1.697v-1.697h-1.697v-1.697h1.697v-1.696h-1.697v-1.697h42.43v1.697h-1.696v1.696h1.696v1.697h-1.696v1.697h1.696
							v1.696h-1.696v1.697h1.696v1.697h-1.696v1.697h1.696v1.698h-1.696v1.696h1.696v1.697h-1.696v1.696h1.696v1.697h-1.696v1.697
							h1.696v1.696h-1.696v1.696h1.696v1.698h-42.43V55.143z"/>
						<path fill="#FFFFFF" d="M53.806,68.721c-1.872,0-3.394,1.521-3.394,3.396c0,1.87,1.521,3.393,3.394,3.393
							s3.395-1.521,3.395-3.393C57.2,70.242,55.678,68.721,53.806,68.721z M53.806,73.811c-0.936,0-1.697-0.76-1.697-1.693
							c0-0.935,0.761-1.697,1.697-1.697c0.935,0,1.698,0.763,1.698,1.697C55.504,73.051,54.741,73.811,53.806,73.811z"/>
						<path fill="#FFFFFF" d="M89.448,68.721c-1.874,0-3.396,1.521-3.396,3.396c0,1.87,1.521,3.393,3.396,3.393
							c1.869,0,3.394-1.521,3.394-3.393C92.842,70.242,91.317,68.721,89.448,68.721z M89.448,73.811
							c-0.938,0-1.697-0.76-1.697-1.693c0-0.935,0.761-1.697,1.697-1.697c0.935,0,1.693,0.763,1.693,1.697
							C91.142,73.051,90.381,73.811,89.448,73.811z"/>
						
							<rect x="70.72" y="32.858" transform="matrix(0.9703 0.2417 -0.2417 0.9703 11.7563 -16.1178)" fill="#FFFFFF" width="1.697" height="13.995"/>
						<polygon fill="#FFFFFF" points="76.89,33.587 81.599,39.867 76.89,46.146 78.246,47.166 83.719,39.867 78.246,32.568 						
							"/>
						<polygon fill="#FFFFFF" points="61.656,39.867 66.365,33.587 65.007,32.568 59.534,39.867 65.007,47.166 66.365,46.146 						
							"/>
						<path fill="#FFFFFF" d="M71.627,48.354c-1.404,0-2.547,1.143-2.547,2.546c0,1.402,1.143,2.545,2.547,2.545
							c1.403,0,2.545-1.143,2.545-2.545C74.172,49.496,73.03,48.354,71.627,48.354z M71.627,51.748c-0.47,0-0.85-0.381-0.85-0.85
							c0-0.47,0.381-0.849,0.85-0.849c0.468,0,0.848,0.381,0.848,0.849C72.475,51.367,72.095,51.748,71.627,51.748z"/>
						<rect x="75.869" y="50.051" fill="#FFFFFF" width="1.696" height="1.697"/>
						<rect x="79.267" y="50.051" fill="#FFFFFF" width="1.694" height="1.697"/>
						<rect x="65.687" y="50.051" fill="#FFFFFF" width="1.695" height="1.697"/>
						<rect x="62.292" y="50.051" fill="#FFFFFF" width="1.696" height="1.697"/>
					</g>
				</g>
			</g>
		</g>
	</g>
</g>
</svg>
