<svg id="Layer_1" data-name="Layer 1" xmlns="http://www.w3.org/2000/svg" viewBox="0 0 481.75 105.1"><defs><style>.cls-1{font-size:36px;fill:#231f20;font-family:Futura-Light, Futura;font-weight:300;letter-spacing:0.14em;}.cls-2{letter-spacing:0.2em;}.cls-3{fill:#030303;fill-rule:evenodd;}</style></defs><title>Woodgrove Bank-horizontal</title><text class="cls-1" transform="translate(115.06 73.95)">W<tspan class="cls-2" x="44.82" y="0">oodgrove Bank</tspan></text><path class="cls-3" d="M201.48,297.52c-.14-5.62,5.09-19.93,7.62-25.34A45.5,45.5,0,0,1,215.53,262c1-1.15,7.37-7.88,9.45-4.93,4,5.73-3.46,21.14-5.93,25.07-3.38,5.39-12,14.55-17.57,15.35Zm-15.65,26.27c.3-1.59.4-3.15.73-4.91.09-.5.34-1.55.39-1.95l-.26-2c-1.56,2.4-4.29,21.24-7.1,23.28l-2.43-3.47c-1-2.49-2-10.85-2.37-13.8-.78-7.15.24-14.55-.71-21.62-1.38-.38-2.11-1.38-3.28.87-.78,1.49-.58,3.15-.92,4.85-.25,1.23-1,3.19-.9,4.54.9,9.1-1.35,15.29,2.34,25.25,2.22,6,7.59,13.16,10.53,6.78,2.35-5.12,2.28-12.33,4-17.8Zm-37.49-31.44c.85-.49,1.95-2.1,3.17-1,1,1.43.45,1.47-.19,2.45-3,4.65-2.5,19-1.88,23.65.3,2.24.14,4.32.62,6.43.7,3.07,1.44,14.74,5.2,17.19,3.92-2,8-14.88,9.36-19.39.73-2.34,2-5.33,2.51-7.69l1.07-2.59c.63-1.08.18-.39.71-.95a6.91,6.91,0,0,1-.69,3.37c-.42,1.19-.42,1.78-.74,3-1.73,6.48-6.27,20.95-9.69,26.07-1.08,1.63-2.56,2.75-5,1.57-4-1.93-6.66-10.53-7.32-14.19a75.28,75.28,0,0,1-1-13.23c.06-4.56.43-15.54,2.06-19.55.54-1.32,1.81-3.93,1.8-5.13Zm68,42.91s-.82,4.87-1.78,6.71-2.92,2.18-2-.4,1.9-4.86,3.8-6.31Zm-9.43-70.49c-.5,1.2-1.36,2.43-2.2,4-3.61,6.9-4.52,9.81-7,17.08-1,3-2.74,13.23-3.68,13.79-2.36,1.42-3.22-2.44-6.86-.24-.79,4.75,1.92,4.13.5,5.58l-.13,5.75a6.3,6.3,0,0,0,1.26-3.08,21.21,21.21,0,0,0,.46-3.63,18.92,18.92,0,0,1,4.93-.6c-.36,7.86-.82,15.11.27,22.72.26,1.79.49,3.64.64,5.4.32,3.67,3.29,12.74,3.45,14.19,1.39,2.94,1.92,9.81,4.46,12.05,1.94,1.72,4.31.57,4.29-2.58L206.23,348c-.47-3.53-1-12.83-.17-16.09.94-3.87,4.08-8.95,8-9.25,1.45,1.23,2,3.4,2.06,5.82.16,3.47-.87,3.61-2.39,5.76-2,2.78-4.57,9-4.09,11.79s4.53,3.72,8.83-3a23.84,23.84,0,0,0,3.36-12.92,43.39,43.39,0,0,1,5.28-2.71c3.57-1.63,4.66-1.55,3.95-4.1a5.23,5.23,0,0,0-2.85-.05l-.42.34c-.37.26-4.79,2.73-6.34,2.91-.57-2.39-2.15-6.32-4.25-7.58-2.89-1.75-6.74.58-8.28,2.42a19.12,19.12,0,0,0-3.87,8c-.34,1.29-.92,3.19-1.13,4.59s0,2.49-.57,3.8.47-.92-.26.51l-.3.52c-3-11.69-3-21.32-2.54-33.25.06-1.35.08-3.5.8-4.29.24-1.21-.15-.37,1.39-1.22.56-.32,1.28-.81,1.88-1.13a29.51,29.51,0,0,0,3.83-2.31,34.94,34.94,0,0,0,6.41-5.41c.74-.87,1.78-2.22,2.54-3.2l4.5-7.35a22.42,22.42,0,0,1,1.88-3.8c.43-2.3,1.54-4,2.06-6.31.37-1.64.41-5.89,1.47-7-.38-3.16.59-6.91-1.48-9s-6-.57-7.87.54c-5.94,3.43-4.89,3.1-8.46,7.08C208.25,263.22,207.81,264.18,206.9,264.77Z" transform="translate(-144.48 -253.5)"/></svg>