<?xml version="1.0" encoding="utf-8"?>
<!-- Generator: Adobe Illustrator 15.1.0, SVG Export Plug-In . SVG Version: 6.00 Build 0)  -->
<!DOCTYPE svg PUBLIC "-//W3C//DTD SVG 1.1//EN" "http://www.w3.org/Graphics/SVG/1.1/DTD/svg11.dtd">
<svg version="1.1" id="Layer_1" xmlns="http://www.w3.org/2000/svg" xmlns:xlink="http://www.w3.org/1999/xlink" x="0px" y="0px"
	 width="700px" height="700px" viewBox="0 0 700 700" enable-background="new 0 0 700 700" xml:space="preserve">
<g>
	<g>
		<path opacity="0.44" fill="#0580B9" d="M683.583,401.521c0,161.562-115.583,218.62-305.691,218.62
			c-190.104,0-344.214-130.971-344.214-292.531c0-161.562,191.083-280.69,381.189-280.69
			C604.972,46.92,683.583,239.958,683.583,401.521z"/>
		<path opacity="0.15" fill="#01539B" d="M665.788,347.202c39.152,153.773-151.123,285.396-337.539,285.396
			c-186.417,0-311.832-32.258-311.832-189.879S104.342,44.7,327.162,46.918C513.568,48.773,623.595,181.501,665.788,347.202z"/>
	</g>
	<g>
		<g>
			<linearGradient id="SVGID_1_" gradientUnits="userSpaceOnUse" x1="351.7686" y1="409.0176" x2="67.1548" y2="549.0513">
				<stop  offset="0" style="stop-color:#9A7FBA"/>
				<stop  offset="1" style="stop-color:#E09AC4"/>
			</linearGradient>
			<path opacity="0.99" fill="url(#SVGID_1_)" d="M95.939,473.697v5.848c0,1.004,0.803,1.957,2.2,2.613l1.381,0.652
				c1.134,0.531,0.895,1.521-0.453,1.879l0,0c-0.89,0.234-1.055,0.887-0.316,1.244l1.741,0.842c1.137,0.553,1.14,1.518,0.003,2.072
				l-1.249,0.607c-1.077,0.523-1.046,1.449,0.067,1.951l1.342,0.607c0.929,0.422,1.087,1.166,0.353,1.691l-0.74,0.527
				c-0.529,0.377-0.816,0.842-0.816,1.316v9.234H281.5v-31.643L95.939,473.697z"/>
			<linearGradient id="SVGID_2_" gradientUnits="userSpaceOnUse" x1="363.1816" y1="477.1221" x2="109.4834" y2="600.3337">
				<stop  offset="0" style="stop-color:#9A7FBA"/>
				<stop  offset="1" style="stop-color:#E09AC4"/>
			</linearGradient>
			<path opacity="0.97" fill="url(#SVGID_2_)" d="M95.939,504.645v21.525c0,3.695,0.803,7.209,2.2,9.625l1.381,2.389
				c1.134,1.961,0.895,5.604-0.453,6.918l0,0c-0.89,0.865-1.055,3.258-0.316,4.574l1.741,3.102c1.137,2.031,1.14,5.592,0.003,7.629
				l-1.249,2.238c-1.077,1.934-1.046,5.328,0.067,7.18l1.342,2.236c0.929,1.551,1.087,4.291,0.353,6.223l-0.74,1.941
				c-0.529,1.393-0.816,3.092-0.816,4.842v33.992H281.5V502.596L95.939,504.645z"/>
			<linearGradient id="SVGID_3_" gradientUnits="userSpaceOnUse" x1="58.9194" y1="521.8545" x2="409.4603" y2="476.8434">
				<stop  offset="0" style="stop-color:#8D50A0"/>
				<stop  offset="1" style="stop-color:#EF4A7B"/>
			</linearGradient>
			<path fill="url(#SVGID_3_)" d="M288.336,507.598H95.367c-1.552,0-2.812-1.26-2.812-2.814l0,0c0-1.553,1.26-2.811,2.812-2.811
				h192.969c1.553,0,2.813,1.258,2.813,2.811l0,0C291.149,506.338,289.889,507.598,288.336,507.598z"/>
			<linearGradient id="SVGID_4_" gradientUnits="userSpaceOnUse" x1="73.3159" y1="633.9668" x2="423.8559" y2="588.9558">
				<stop  offset="0" style="stop-color:#8D50A0"/>
				<stop  offset="1" style="stop-color:#EF4A7B"/>
			</linearGradient>
			<path fill="url(#SVGID_4_)" d="M288.336,621.561H95.367c-1.552,0-2.812-1.262-2.812-2.814l0,0c0-1.555,1.26-2.814,2.812-2.814
				h192.969c1.553,0,2.813,1.26,2.813,2.814l0,0C291.149,620.299,289.889,621.561,288.336,621.561z"/>
			<g>
				<linearGradient id="SVGID_5_" gradientUnits="userSpaceOnUse" x1="316.4873" y1="363.9854" x2="116.6661" y2="489.8112">
					<stop  offset="0" style="stop-color:#9A7FBA"/>
					<stop  offset="1" style="stop-color:#E09AC4"/>
				</linearGradient>
				<path opacity="0.63" fill="url(#SVGID_5_)" d="M95.939,415.828v10.766c0,1.849,0.803,3.605,2.2,4.814l1.381,1.195
					c1.134,0.98,0.895,2.801-0.453,3.458l0,0c-0.89,0.433-1.055,1.63-0.316,2.289l1.741,1.551c1.137,1.017,1.14,2.797,0.003,3.813
					l-1.249,1.121c-1.077,0.967-1.046,2.665,0.067,3.592l1.342,1.117c0.929,0.776,1.087,2.147,0.353,3.112l-0.74,0.971
					c-0.529,0.696-0.816,1.547-0.816,2.422v17.001H281.5v-58.245L95.939,415.828z"/>
				<linearGradient id="SVGID_6_" gradientUnits="userSpaceOnUse" x1="338.8633" y1="362.4023" x2="1.9629" y2="477.6579">
					<stop  offset="0" style="stop-color:#8D50A0"/>
					<stop  offset="1" style="stop-color:#EF4A7B"/>
				</linearGradient>
				<path fill="url(#SVGID_6_)" d="M284.802,416.718H91.836c-1.554,0-2.813-1.259-2.813-2.813l0,0c0-1.553,1.259-2.813,2.813-2.813
					h192.966c1.554,0,2.814,1.261,2.814,2.813l0,0C287.616,415.459,286.355,416.718,284.802,416.718z"/>
				<linearGradient id="SVGID_7_" gradientUnits="userSpaceOnUse" x1="357.5156" y1="416.9258" x2="20.6143" y2="532.1816">
					<stop  offset="0" style="stop-color:#8D50A0"/>
					<stop  offset="1" style="stop-color:#EF4A7B"/>
				</linearGradient>
				<path fill="url(#SVGID_7_)" d="M288.336,476.412H95.367c-1.552,0-2.812-1.258-2.812-2.811l0,0c0-1.555,1.26-2.813,2.812-2.813
					h192.969c1.553,0,2.813,1.258,2.813,2.813l0,0C291.149,475.154,289.889,476.412,288.336,476.412z"/>
				<path opacity="0.78" fill="#FFFFFF" d="M275.194,428.293H102.32c-0.376,0-0.683-0.305-0.683-0.682
					c0-0.376,0.307-0.682,0.683-0.682h172.874c0.376,0,0.682,0.306,0.682,0.682C275.876,427.988,275.571,428.293,275.194,428.293z"
					/>
				<path opacity="0.78" fill="#FFFFFF" d="M275.194,438.434H106.412c-0.377,0-0.683-0.305-0.683-0.682
					c0-0.376,0.306-0.683,0.683-0.683h168.782c0.376,0,0.682,0.307,0.682,0.683C275.876,438.129,275.571,438.434,275.194,438.434z"
					/>
				<path opacity="0.78" fill="#FFFFFF" d="M275.194,445.897H108.51c-0.376,0-0.681-0.306-0.681-0.682
					c0-0.38,0.305-0.684,0.681-0.684h166.685c0.376,0,0.682,0.304,0.682,0.684C275.876,445.592,275.571,445.897,275.194,445.897z"/>
			</g>
		</g>
		<g>
			<g>
				<g>
					
						<linearGradient id="SVGID_8_" gradientUnits="userSpaceOnUse" x1="8488.3213" y1="411.3867" x2="8214.4766" y2="588.9064" gradientTransform="matrix(-1 0 0 1 8852.3086 0)">
						<stop  offset="0" style="stop-color:#66CDF3"/>
						<stop  offset="1" style="stop-color:#4B5AA8"/>
					</linearGradient>
					<path fill="url(#SVGID_8_)" d="M264.621,479.074H546.27V397.45l-281.648,0.004
						C270.648,397.454,270.648,479.074,264.621,479.074z"/>
					<g>
						<linearGradient id="SVGID_9_" gradientUnits="userSpaceOnUse" x1="220.7134" y1="407.6084" x2="624.4278" y2="474.2934">
							<stop  offset="0" style="stop-color:#66CDF3"/>
							<stop  offset="1" style="stop-color:#4B5AA8"/>
						</linearGradient>
						<path fill="url(#SVGID_9_)" d="M546.27,458.646v-37.351c0-13.168-5.568-23.842-12.431-23.842H265.808
							c-5.398,0-9.775-6.337-9.775-14.156c0-2.375,1.328-4.301,2.969-4.301h292.935c6.721,0,17.383,15.296,17.383,34.155v52.171
							c0,17.788-10.353,32.206-16.686,32.206H260.542c-2.493,0-4.51-2.924-4.51-6.531c0-6.586,3.685-11.924,8.235-11.924h271.351
							C541.504,479.074,546.27,469.928,546.27,458.646z"/>
						<path fill="none" stroke="#003A51" stroke-width="2" stroke-miterlimit="10" d="M546.27,458.646v-37.351
							c0-13.168-5.568-23.842-12.431-23.842H265.808c-5.398,0-9.775-6.337-9.775-14.156c0-2.375,1.328-4.301,2.969-4.301h292.935
							c6.721,0,17.383,15.296,17.383,34.155v52.171c0,17.788-10.353,32.206-16.686,32.206H260.542c-2.493,0-4.51-2.924-4.51-6.531
							c0-6.586,3.685-11.924,8.235-11.924h271.351C541.504,479.074,546.27,469.928,546.27,458.646z"/>
					</g>
				</g>
				<path fill="#FFFFFF" d="M538.459,415.1H274.375c-0.497,0-0.901-0.4-0.901-0.897c0-0.498,0.405-0.903,0.901-0.903h264.083
					c0.496,0,0.9,0.405,0.9,0.903C539.359,414.699,538.955,415.1,538.459,415.1z"/>
				<path fill="#FFFFFF" d="M538.459,427.213H274.375c-0.497,0-0.901-0.4-0.901-0.896c0-0.5,0.405-0.904,0.901-0.904h264.083
					c0.496,0,0.9,0.404,0.9,0.904C539.359,426.813,538.955,427.213,538.459,427.213z"/>
				<path fill="#FFFFFF" d="M538.459,439.33H274.375c-0.497,0-0.901-0.404-0.901-0.899c0-0.497,0.405-0.9,0.901-0.9h264.083
					c0.496,0,0.9,0.403,0.9,0.9C539.359,438.926,538.955,439.33,538.459,439.33z"/>
				<path fill="#FFFFFF" d="M538.459,451.448H274.375c-0.497,0-0.901-0.404-0.901-0.904c0-0.496,0.405-0.896,0.901-0.896h264.083
					c0.496,0,0.9,0.4,0.9,0.896C539.359,451.044,538.955,451.448,538.459,451.448z"/>
				<path fill="#FFFFFF" d="M538.459,463.562H274.375c-0.497,0-0.901-0.4-0.901-0.9s0.405-0.9,0.901-0.9h264.083
					c0.496,0,0.9,0.4,0.9,0.9S538.955,463.562,538.459,463.562z"/>
			</g>
			<g>
				<path fill="#0070A9" d="M570.895,605.768H285.344c-10,0-18.108-8.105-18.108-18.107v-72.023c0-10,8.108-18.107,18.108-18.107
					h285.551c10.002,0,18.108,8.107,18.108,18.107v72.023C589.003,597.662,580.896,605.768,570.895,605.768z"/>
				<path opacity="0.6" fill="#FFFFFF" d="M334.875,593.33h-24.749c-3.604,0-6.525-2.92-6.525-6.527v-70.309
					c0-3.602,2.921-6.527,6.525-6.527h24.749c3.605,0,6.525,2.926,6.525,6.527v70.309C341.4,590.41,338.48,593.33,334.875,593.33z"
					/>
			</g>
			<g>
				
					<linearGradient id="SVGID_10_" gradientUnits="userSpaceOnUse" x1="4150.5732" y1="230.9404" x2="3742.3481" y2="326.4632" gradientTransform="matrix(-1 0 0 1 4108.748 0)">
					<stop  offset="0" style="stop-color:#66CDF3"/>
					<stop  offset="1" style="stop-color:#5581C1"/>
				</linearGradient>
				<path fill="url(#SVGID_10_)" stroke="#144A92" stroke-miterlimit="10" d="M549.19,379.956H263.639
					c-10,0-18.108-8.107-18.108-18.108v-52.043c0-10,8.109-18.108,18.108-18.108H549.19c10.003,0,18.108,8.108,18.108,18.108v52.043
					C567.299,371.849,559.193,379.956,549.19,379.956z"/>
			</g>
			<g>
				<linearGradient id="SVGID_11_" gradientUnits="userSpaceOnUse" x1="272.6816" y1="281.9834" x2="491.2118" y2="225.2104">
					<stop  offset="0" style="stop-color:#66CDF3"/>
					<stop  offset="1" style="stop-color:#4B5AA8"/>
				</linearGradient>
				<path fill="url(#SVGID_11_)" d="M220.644,237.168v9.966c0,1.71,1.061,3.336,2.906,4.454l1.828,1.107
					c1.495,0.907,1.182,2.592-0.6,3.201l0,0c-1.176,0.401-1.395,1.51-0.419,2.119l2.299,1.437c1.506,0.939,1.509,2.587,0.007,3.529
					l-1.65,1.036c-1.423,0.896-1.383,2.468,0.086,3.326l1.774,1.034c1.23,0.718,1.439,1.987,0.469,2.881l-0.978,0.898
					c-0.699,0.646-1.079,1.433-1.079,2.243v15.736h240.553V236.22L220.644,237.168z"/>
				<linearGradient id="SVGID_12_" gradientUnits="userSpaceOnUse" x1="235.9185" y1="245.2861" x2="532.3979" y2="217.8009">
					<stop  offset="0" style="stop-color:#66CDF3"/>
					<stop  offset="1" style="stop-color:#4B5AA8"/>
				</linearGradient>
				<path fill="url(#SVGID_12_)" d="M471.315,237.99H214.107c-1.438,0-2.603-1.166-2.603-2.604l0,0c0-1.438,1.165-2.605,2.603-2.605
					h257.208c1.438,0,2.604,1.167,2.604,2.605l0,0C473.92,236.825,472.753,237.99,471.315,237.99z"/>
				<linearGradient id="SVGID_13_" gradientUnits="userSpaceOnUse" x1="241.0376" y1="300.5024" x2="537.5149" y2="273.0175">
					<stop  offset="0" style="stop-color:#66CDF3"/>
					<stop  offset="1" style="stop-color:#4B5AA8"/>
				</linearGradient>
				<path fill="url(#SVGID_13_)" d="M475.983,293.248H218.777c-1.439,0-2.604-1.165-2.604-2.604l0,0
					c0-1.438,1.165-2.604,2.604-2.604h257.206c1.437,0,2.604,1.166,2.604,2.604l0,0C478.587,292.083,477.42,293.248,475.983,293.248
					z"/>
				<path opacity="0.6" fill="#FFFFFF" d="M457.507,248.705H229.075c-0.497,0-0.9-0.281-0.9-0.631c0-0.348,0.404-0.63,0.9-0.63
					h228.432c0.499,0,0.9,0.282,0.9,0.63C458.407,248.424,458.006,248.705,457.507,248.705z"/>
				<path opacity="0.6" fill="#FFFFFF" d="M457.507,258.091H234.482c-0.5,0-0.9-0.282-0.9-0.631c0-0.35,0.4-0.63,0.9-0.63h223.024
					c0.499,0,0.9,0.28,0.9,0.63C458.407,257.809,458.006,258.091,457.507,258.091z"/>
				<path opacity="0.6" fill="#FFFFFF" d="M457.507,265H237.254c-0.497,0-0.9-0.283-0.9-0.633c0-0.346,0.404-0.631,0.9-0.631
					h220.253c0.499,0,0.9,0.285,0.9,0.631C458.407,264.717,458.006,265,457.507,265z"/>
			</g>
			<g>
				<path fill="#FFFFFF" d="M211.225,152.335c0,0,21.087,48.291,2.882,78.214h94.608v-80.927L211.225,152.335z"/>
				<path fill="#04598A" d="M277.376,140.619h311.233c12.077,0,21.872,9.792,21.872,21.87v47.251
					c0,12.829-10.399,23.229-23.229,23.229H281.741c-3.249,0-5.025-3.791-2.944-6.289l0,0c0.584-0.704,0.902-1.595,0.888-2.513
					l-0.891-56.55c-0.003-0.275-0.037-0.551-0.1-0.817l-5.052-21.47C273.077,142.923,274.904,140.619,277.376,140.619z"/>
				<linearGradient id="SVGID_14_" gradientUnits="userSpaceOnUse" x1="206.5615" y1="186.8232" x2="288.1636" y2="186.8232">
					<stop  offset="0" style="stop-color:#66CDF3"/>
					<stop  offset="1" style="stop-color:#4B5AA8"/>
				</linearGradient>
				<path fill="url(#SVGID_14_)" d="M206.66,145.921l0.904,3.969c0.558,2.439,2.75,4.155,5.251,4.111l55.739-1.01
					c3.083-0.057,5.752,2.142,6.277,5.182c1.978,11.479,6.021,39.537,2.943,62.582c-0.368,2.758-2.691,4.835-5.474,4.835h-55.877
					c-2.27,0-4.027,1.989-3.743,4.241l0,0c0.224,1.792,1.746,3.138,3.551,3.138h61.121c3.124,0,5.812-2.199,6.422-5.262
					c2.901-14.541,9.524-55.837-2.827-80.703c-1.962-3.951-6.087-6.365-10.499-6.326l-60.065,0.532
					C207.923,141.23,206.112,143.521,206.66,145.921z"/>
			</g>
			<path opacity="0.6" fill="#FFFFFF" d="M331.311,223.874h-22.118c-3.605,0-6.528-2.922-6.528-6.525v-54.922
				c0-3.604,2.923-6.525,6.528-6.525h22.118c3.604,0,6.525,2.921,6.525,6.525v54.922
				C337.836,220.952,334.915,223.874,331.311,223.874z"/>
			<path opacity="0.6" fill="#FFFFFF" d="M571.234,188.554c0,16.779-13.602,30.381-30.384,30.381
				c-16.777,0-30.378-13.602-30.378-30.381c0-16.78,13.601-30.381,30.378-30.381C557.633,158.173,571.234,171.774,571.234,188.554z"
				/>
		</g>
		<g>
			<g>
				
					<linearGradient id="SVGID_15_" gradientUnits="userSpaceOnUse" x1="493.1064" y1="-438.7441" x2="444.0203" y2="-337.5667" gradientTransform="matrix(0.987 0.1608 -0.1608 0.987 -134.5847 579.6843)">
					<stop  offset="0" style="stop-color:#293882"/>
					<stop  offset="1" style="stop-color:#171042"/>
				</linearGradient>
				<path fill="url(#SVGID_15_)" d="M328.371,311.077c-0.249,0.474-16.036,12.09-16.036,12.09s3.486,24.938,17.642,34.788
					c15.563,10.826,37.544-8.919,37.544-8.919s17.488,4.159,26.794-32.253c2.13-8.354-10.188-9.06-25.055-7.521
					C350.088,311.245,328.371,311.077,328.371,311.077z"/>
				<linearGradient id="SVGID_16_" gradientUnits="userSpaceOnUse" x1="349.6191" y1="390.0508" x2="368.2084" y2="952.3716">
					<stop  offset="0" style="stop-color:#F9EE4A"/>
					<stop  offset="1" style="stop-color:#DA3D66"/>
				</linearGradient>
				<path fill="url(#SVGID_16_)" d="M288.462,408.295c7.349-5.054,15.472-8.86,24.085-11.205c3.234-0.879,20.699,4.197,31.497,3.948
					c14.822-0.342,29.907-7.084,42.124-4.039c12.135,3.022,22.067,6.972,27.804,11.053c17.164,12.207,27.243,34.973,33.384,57.522
					c-11.629,11.939-26.267,17.242-26.267,17.242l-2.701,109.609l-64.814,33.16l-73.976-37.139l2.647-107.111
					c0,0-23.49-10.941-25.214-14.924C255.308,462.435,267.737,422.547,288.462,408.295z"/>
				<linearGradient id="SVGID_17_" gradientUnits="userSpaceOnUse" x1="242.0415" y1="442.4707" x2="365.2054" y2="739.9835">
					<stop  offset="0" style="stop-color:#C54427"/>
					<stop  offset="1" style="stop-color:#5C1017"/>
				</linearGradient>
				<path fill="url(#SVGID_17_)" d="M258.127,465.936c0,0-31.481,87.273,40.305,123.145c14.903-1.982,9.171-26.734,9.171-26.734
					s-31.191-6.904-21.823-79.705C277.153,475.545,258.127,465.936,258.127,465.936z"/>
				
					<linearGradient id="SVGID_18_" gradientUnits="userSpaceOnUse" x1="-7637.4551" y1="441.8301" x2="-7514.2905" y2="739.344" gradientTransform="matrix(-1 0 0 1 -7177.0742 0)">
					<stop  offset="0" style="stop-color:#C54427"/>
					<stop  offset="1" style="stop-color:#5C1017"/>
				</linearGradient>
				<path fill="url(#SVGID_18_)" d="M445.842,465.936c0,0,21.659,91.102-40.305,123.145c-14.908-1.982-9.172-26.734-9.172-26.734
					s25.136-12.379,21.821-79.705C426.811,475.545,445.842,465.936,445.842,465.936z"/>
				<linearGradient id="SVGID_19_" gradientUnits="userSpaceOnUse" x1="351.4346" y1="481.2568" x2="345.0647" y2="739.2396">
					<stop  offset="0" style="stop-color:#66CDF3"/>
					<stop  offset="1" style="stop-color:#4B5AA8"/>
				</linearGradient>
				<path fill="url(#SVGID_19_)" d="M406.524,595.209H293.087c-7.889,0-14.344-6.455-14.344-14.346V513.57
					c0-7.891,6.456-14.344,14.344-14.344h113.437c7.891,0,14.345,6.453,14.345,14.344v67.293
					C420.869,588.754,414.415,595.209,406.524,595.209z"/>
				<g>
					
						<linearGradient id="SVGID_20_" gradientUnits="userSpaceOnUse" x1="432.0889" y1="605.209" x2="499.3927" y2="605.209" gradientTransform="matrix(1 0.0077 -0.0077 1 -2.0637 28.4021)">
						<stop  offset="0" style="stop-color:#2E759F"/>
						<stop  offset="1" style="stop-color:#141542"/>
					</linearGradient>
					<path fill="url(#SVGID_20_)" d="M483.211,623.666c-16.268-3.734-53.859-1.729-53.859-1.729l-1.531,4.143l-2.53,20.582
						c0,0,35.801,6.453,53.446,6.436c1.802,0,3.449-0.271,4.952-0.742c0.54-0.479,1.064-0.979,1.561-1.523
						C492.735,642.656,490.576,630.645,483.211,623.666z"/>
					
						<linearGradient id="SVGID_21_" gradientUnits="userSpaceOnUse" x1="507.6602" y1="606.0439" x2="448.5646" y2="605.3348" gradientTransform="matrix(1 0.0077 -0.0077 1 -2.0637 28.4021)">
						<stop  offset="0" style="stop-color:#76CAB9"/>
						<stop  offset="0.9964" style="stop-color:#46AED8"/>
					</linearGradient>
					<path fill="url(#SVGID_21_)" d="M484.822,624.072c-0.51-0.143-1.05-0.279-1.611-0.406c7.365,6.979,9.524,18.99,2.038,27.166
						c-0.496,0.545-1.021,1.045-1.561,1.523C496.93,648.236,498.497,627.918,484.822,624.072z"/>
					<linearGradient id="SVGID_22_" gradientUnits="userSpaceOnUse" x1="469.7871" y1="515.5908" x2="398.7453" y2="708.0154">
						<stop  offset="0" style="stop-color:#C54427"/>
						<stop  offset="1" style="stop-color:#5C1017"/>
					</linearGradient>
					<path fill="url(#SVGID_22_)" d="M418.551,620.777l6.363,0.273c3.421,0.146,6.644,1.814,8.945,4.625
						c2.297,2.813,3.479,6.529,3.281,10.318c-0.161,3.023-1.4,5.846-3.446,7.852c-2.045,2.006-4.725,3.023-7.449,2.83l-9.74-0.693
						L418.551,620.777z"/>
					<g>
						
							<linearGradient id="SVGID_23_" gradientUnits="userSpaceOnUse" x1="507.8066" y1="603.5166" x2="448.6948" y2="602.8073" gradientTransform="matrix(1 0.0077 -0.0077 1 -2.0637 28.4021)">
							<stop  offset="0" style="stop-color:#76CAB9"/>
							<stop  offset="0.9964" style="stop-color:#46AED8"/>
						</linearGradient>
						<path fill="url(#SVGID_23_)" d="M452.642,642.643c-0.408-0.004-0.783-0.307-0.9-0.768c-1.627-6.508-7.945-13.053-8.007-13.117
							c-0.384-0.391-0.41-1.057-0.052-1.479c0.354-0.428,0.948-0.447,1.331-0.057c0.273,0.283,6.775,7.006,8.547,14.092
							c0.139,0.559-0.157,1.135-0.655,1.289C452.816,642.631,452.729,642.643,452.642,642.643z"/>
						
							<linearGradient id="SVGID_24_" gradientUnits="userSpaceOnUse" x1="507.5566" y1="603.1143" x2="448.7321" y2="602.4084" gradientTransform="matrix(1 0.0077 -0.0077 1 -2.0637 28.4021)">
							<stop  offset="0" style="stop-color:#76CAB9"/>
							<stop  offset="0.9964" style="stop-color:#46AED8"/>
						</linearGradient>
						<path fill="url(#SVGID_24_)" d="M444.04,642.109c-0.092,0-0.182-0.014-0.273-0.047c-0.5-0.172-0.776-0.758-0.62-1.309
							c2.13-7.572,10.147-13.623,10.491-13.875c0.43-0.322,1.018-0.197,1.306,0.283c0.291,0.477,0.179,1.127-0.256,1.453
							c-0.077,0.057-7.811,5.898-9.739,12.762C444.82,641.826,444.444,642.113,444.04,642.109z"/>
						
							<linearGradient id="SVGID_25_" gradientUnits="userSpaceOnUse" x1="543.6445" y1="410.0137" x2="484.1494" y2="409.2997" gradientTransform="matrix(0.9984 0.0564 -0.0564 0.9984 -18.4715 197.9771)">
							<stop  offset="0" style="stop-color:#76CAB9"/>
							<stop  offset="0.9964" style="stop-color:#46AED8"/>
						</linearGradient>
						<path fill="url(#SVGID_25_)" d="M469.916,643.656c-0.431,0-0.813-0.332-0.912-0.813c-1.342-6.592-7.362-13.469-7.425-13.537
							c-0.363-0.41-0.356-1.076,0.015-1.48c0.373-0.406,0.971-0.396,1.336,0.014c0.262,0.299,6.454,7.365,7.912,14.539
							c0.117,0.564-0.204,1.127-0.711,1.254C470.059,643.648,469.988,643.66,469.916,643.656z"/>
						
							<linearGradient id="SVGID_26_" gradientUnits="userSpaceOnUse" x1="543.0801" y1="409.6113" x2="484.5495" y2="408.909" gradientTransform="matrix(0.9984 0.0564 -0.0564 0.9984 -18.4715 197.9771)">
							<stop  offset="0" style="stop-color:#76CAB9"/>
							<stop  offset="0.9964" style="stop-color:#46AED8"/>
						</linearGradient>
						<path fill="url(#SVGID_26_)" d="M461.346,642.662c-0.105-0.002-0.211-0.02-0.316-0.064c-0.492-0.199-0.741-0.799-0.563-1.34
							c2.463-7.447,10.736-13.061,11.09-13.293c0.445-0.299,1.021-0.143,1.291,0.354c0.27,0.496,0.127,1.137-0.317,1.436
							c-0.08,0.057-8.063,5.473-10.291,12.223C462.097,642.402,461.733,642.662,461.346,642.662z"/>
					</g>
				</g>
				<g>
					
						<linearGradient id="SVGID_27_" gradientUnits="userSpaceOnUse" x1="-8128.5503" y1="555.3867" x2="-8061.2178" y2="555.3867" gradientTransform="matrix(-0.9998 -0.02 -0.02 0.9998 -7853.7954 -81.241)">
						<stop  offset="0" style="stop-color:#2E759F"/>
						<stop  offset="1" style="stop-color:#141542"/>
					</linearGradient>
					<path fill="url(#SVGID_27_)" d="M204.501,621.686c16.35-3.234,53.88-0.072,53.88-0.072l1.426,4.186l2.017,20.65
						c0,0-35.948,5.354-53.589,4.795c-1.8-0.057-3.44-0.377-4.93-0.895c-0.525-0.494-1.04-1.012-1.523-1.57
						C194.502,640.373,196.963,628.436,204.501,621.686z"/>
					
						<linearGradient id="SVGID_28_" gradientUnits="userSpaceOnUse" x1="-8052.9697" y1="556.1699" x2="-8111.8774" y2="555.4631" gradientTransform="matrix(-0.9998 -0.02 -0.02 0.9998 -7853.7954 -81.241)">
						<stop  offset="0" style="stop-color:#76CAB9"/>
						<stop  offset="0.9964" style="stop-color:#46AED8"/>
					</linearGradient>
					<path fill="url(#SVGID_28_)" d="M202.878,622.043c0.514-0.127,1.058-0.248,1.623-0.357c-7.538,6.75-9.999,18.688-2.719,27.094
						c0.483,0.559,0.998,1.076,1.523,1.57C190.174,645.83,189.114,625.467,202.878,622.043z"/>
					<linearGradient id="SVGID_29_" gradientUnits="userSpaceOnUse" x1="327.4448" y1="457.6055" x2="256.3669" y2="650.1278">
						<stop  offset="0" style="stop-color:#C54427"/>
						<stop  offset="1" style="stop-color:#5C1017"/>
					</linearGradient>
					<path fill="url(#SVGID_29_)" d="M269.208,620.785l-6.37,0.076c-3.422,0.039-6.685,1.607-9.054,4.346
						c-2.371,2.74-3.645,6.422-3.538,10.215c0.085,3.025,1.253,5.889,3.246,7.957c1.995,2.066,4.65,3.164,7.377,3.055l9.755-0.393
						L269.208,620.785z"/>
					<g>
						
							<linearGradient id="SVGID_30_" gradientUnits="userSpaceOnUse" x1="-8052.9932" y1="553.7461" x2="-8111.8848" y2="553.0394" gradientTransform="matrix(-0.9998 -0.02 -0.02 0.9998 -7853.7954 -81.241)">
							<stop  offset="0" style="stop-color:#76CAB9"/>
							<stop  offset="0.9964" style="stop-color:#46AED8"/>
						</linearGradient>
						<path fill="url(#SVGID_30_)" d="M234.581,641.592c0.411,0.012,0.793-0.281,0.919-0.736c1.791-6.457,8.271-12.809,8.336-12.867
							c0.389-0.385,0.429-1.045,0.087-1.479c-0.343-0.434-0.937-0.477-1.331-0.098c-0.282,0.271-6.946,6.801-8.894,13.828
							c-0.153,0.549,0.126,1.137,0.624,1.307C234.408,641.576,234.495,641.592,234.581,641.592z"/>
						
							<linearGradient id="SVGID_31_" gradientUnits="userSpaceOnUse" x1="-8052.8779" y1="553.3467" x2="-8111.8931" y2="552.6385" gradientTransform="matrix(-0.9998 -0.02 -0.02 0.9998 -7853.7954 -81.241)">
							<stop  offset="0" style="stop-color:#76CAB9"/>
							<stop  offset="0.9964" style="stop-color:#46AED8"/>
						</linearGradient>
						<path fill="url(#SVGID_31_)" d="M243.193,641.326c0.092,0.002,0.185-0.012,0.278-0.039c0.499-0.16,0.791-0.734,0.651-1.293
							c-1.941-7.631-9.806-13.926-10.14-14.191c-0.423-0.332-1.013-0.227-1.316,0.244c-0.302,0.471-0.204,1.123,0.219,1.459
							c0.077,0.063,7.661,6.137,9.419,13.057C242.42,641.016,242.789,641.318,243.193,641.326z"/>
						
							<linearGradient id="SVGID_32_" gradientUnits="userSpaceOnUse" x1="-8009.0439" y1="776.8184" x2="-8068.3193" y2="776.1071" gradientTransform="matrix(-0.9996 0.0288 0.0288 0.9996 -7841.9102 89.7141)">
							<stop  offset="0" style="stop-color:#76CAB9"/>
							<stop  offset="0.9964" style="stop-color:#46AED8"/>
						</linearGradient>
						<path fill="url(#SVGID_32_)" d="M217.289,642.076c0.431,0.012,0.824-0.305,0.934-0.787c1.502-6.541,7.694-13.232,7.758-13.301
							c0.374-0.402,0.384-1.063,0.023-1.479c-0.362-0.418-0.959-0.43-1.334-0.029c-0.27,0.291-6.64,7.17-8.276,14.295
							c-0.129,0.559,0.176,1.127,0.68,1.27C217.147,642.064,217.22,642.076,217.289,642.076z"/>
						
							<linearGradient id="SVGID_33_" gradientUnits="userSpaceOnUse" x1="-8009.3823" y1="776.4199" x2="-8068.0757" y2="775.7156" gradientTransform="matrix(-0.9996 0.0288 0.0288 0.9996 -7841.9102 89.7141)">
							<stop  offset="0" style="stop-color:#76CAB9"/>
							<stop  offset="0.9964" style="stop-color:#46AED8"/>
						</linearGradient>
						<path fill="url(#SVGID_33_)" d="M225.881,641.35c0.104,0,0.214-0.021,0.32-0.057c0.493-0.186,0.759-0.777,0.595-1.328
							c-2.275-7.52-10.407-13.379-10.754-13.621c-0.435-0.314-1.021-0.178-1.301,0.313c-0.281,0.486-0.155,1.131,0.282,1.443
							c0.078,0.061,7.922,5.719,9.982,12.533C225.137,641.063,225.494,641.338,225.881,641.35z"/>
					</g>
				</g>
				<linearGradient id="SVGID_34_" gradientUnits="userSpaceOnUse" x1="499.9004" y1="511.8721" x2="315.211" y2="650.6099">
					<stop  offset="0" style="stop-color:#293882"/>
					<stop  offset="1" style="stop-color:#171042"/>
				</linearGradient>
				<path fill="url(#SVGID_34_)" d="M487.759,559.143c-7.378-16.977-25.418-19.732-40.772-11.799
					c-0.27,0.354-97.515,50.195-183.273,72.037c2.455,7.871,3.715,16.244,3.991,24.479c0.049,1.832,0.02,3.639-0.089,5.426
					c65.767-3.375,137.142-25.309,198.476-44.584C485.106,598.566,495.933,577.957,487.759,559.143z"/>
				<linearGradient id="SVGID_35_" gradientUnits="userSpaceOnUse" x1="332.8843" y1="636.3066" x2="284.4794" y2="512.8745">
					<stop  offset="0" style="stop-color:#293882"/>
					<stop  offset="1" style="stop-color:#171042"/>
				</linearGradient>
				<path fill="url(#SVGID_35_)" d="M419.018,645.146c-0.259-9.488,1.587-18.318,5.531-26.5c0.114-0.369,0.248-0.73,0.368-1.1
					c-4.896-1.518-11.224-3.574-19.534-6.393c-60.897-20.838-107.356-41.885-151.696-66.107
					c-17.224-9.412-36.81-3.107-42.323,17.277c-4.922,18.191,5.885,33.727,22.291,39.186c49.082,16.332,23.527,11.795,39.557,16.957
					c43.05,13.309,96.621,25.438,145.907,28.748C419.083,646.525,419.04,645.836,419.018,645.146z"/>
				<linearGradient id="SVGID_36_" gradientUnits="userSpaceOnUse" x1="350.1616" y1="467.0352" x2="348.5229" y2="324.4539">
					<stop  offset="0" style="stop-color:#C54427"/>
					<stop  offset="1" style="stop-color:#5C1017"/>
				</linearGradient>
				<path fill="url(#SVGID_36_)" d="M312.547,397.09c0,0,6.549,28.381,38.347,27.794c32.388-0.588,35.273-27.885,35.273-27.885
					l-21.155-4.53l-1.768-23.57l-31.825,2.355l-0.589,22.396L312.547,397.09z"/>
				
					<linearGradient id="SVGID_37_" gradientUnits="userSpaceOnUse" x1="442.7754" y1="-275.4531" x2="447.0661" y2="-379.7372" gradientTransform="matrix(0.987 0.1608 -0.1608 0.987 -134.5847 579.6843)">
					<stop  offset="0" style="stop-color:#C54427"/>
					<stop  offset="1" style="stop-color:#5C1017"/>
				</linearGradient>
				<path fill="url(#SVGID_37_)" d="M338.725,306.911c0,0-30.652,59.377,5.709,73.783c25.647,10.16,41.728-39.431,36.929-52.862
					c-7.413-20.767-12.295-18.304-12.295-18.304L338.725,306.911z"/>
				
					<linearGradient id="SVGID_38_" gradientUnits="userSpaceOnUse" x1="493.4678" y1="-452.9858" x2="438.2345" y2="-339.1378" gradientTransform="matrix(0.987 0.1608 -0.1608 0.987 -134.5847 579.6843)">
					<stop  offset="0" style="stop-color:#293882"/>
					<stop  offset="1" style="stop-color:#171042"/>
				</linearGradient>
				<path fill="url(#SVGID_38_)" d="M388.74,301.509c15.145,4.163,2.202,37.002-20.595,29.238
					c-22.798-7.768-31.758-7.652-35.311-1.393c-3.554,6.258-4.315,28.492-12.025,17.503c-8.45-12.047-13.164-36.229-2.8-44.023
					c9.259-6.967,11.421-17.768,22.529-17.394c14.742,0.498,26.145-6.039,32.8-1.325
					C380.977,289.528,377.601,298.445,388.74,301.509z"/>
				
					<linearGradient id="SVGID_39_" gradientUnits="userSpaceOnUse" x1="61.4067" y1="837.8818" x2="68.131" y2="674.4521" gradientTransform="matrix(0.9911 -0.1329 0.1329 0.9911 160.5942 -429.6715)">
					<stop  offset="0" style="stop-color:#C54427"/>
					<stop  offset="1" style="stop-color:#5C1017"/>
				</linearGradient>
				<path fill="url(#SVGID_39_)" d="M331.432,334.46c0,0-6.538-7.036-7.584,1.441s2.314,19.399,6.25,13.413
					C334.033,343.329,331.432,334.46,331.432,334.46z"/>
			</g>
			<linearGradient id="SVGID_40_" gradientUnits="userSpaceOnUse" x1="350.7207" y1="461.082" x2="346.5818" y2="659.1495">
				<stop  offset="0" style="stop-color:#66CDF3"/>
				<stop  offset="1" style="stop-color:#4B5AA8"/>
			</linearGradient>
			<path fill="url(#SVGID_40_)" d="M358.19,525.217c0.753,5.092-1.978,9.715-7.067,10.469c-5.094,0.754-9.831-2.764-10.585-7.857
				c-0.753-5.09,1.579-10.148,6.669-10.902C352.3,516.174,357.438,520.127,358.19,525.217z"/>
		</g>
	</g>
</g>
</svg>
