<?xml version="1.0" encoding="utf-8"?>
<!-- Generator: Adobe Illustrator 15.1.0, SVG Export Plug-In . SVG Version: 6.00 Build 0)  -->
<!DOCTYPE svg PUBLIC "-//W3C//DTD SVG 1.1//EN" "http://www.w3.org/Graphics/SVG/1.1/DTD/svg11.dtd">
<svg version="1.1" id="_1" xmlns="http://www.w3.org/2000/svg" xmlns:xlink="http://www.w3.org/1999/xlink" x="0px" y="0px"
	 width="64px" height="37.5px" viewBox="0 0 64 37.5" enable-background="new 0 0 64 37.5" xml:space="preserve">
<g>
	<g opacity="0.9">
		<path fill="#666666" d="M5.813,22.057h-3.11c-0.38,0-0.688,0.309-0.688,0.688c0,0.379,0.309,0.688,0.688,0.688h3.11
			c0.38,0,0.686-0.311,0.686-0.688C6.498,22.364,6.192,22.057,5.813,22.057z"/>
		<path fill="#666666" d="M20.741,22.745c0-0.381-0.308-0.688-0.688-0.688H8.367c-0.38,0-0.688,0.309-0.688,0.688
			c0,0.379,0.309,0.688,0.688,0.688h11.686C20.435,23.434,20.741,23.124,20.741,22.745z"/>
		<path fill="#666666" d="M11.183,20.492h1.604c0.381,0,0.688-0.309,0.688-0.688c0-0.383-0.309-0.688-0.688-0.688h-1.604
			c-0.381,0-0.688,0.308-0.688,0.688C10.493,20.184,10.802,20.492,11.183,20.492z"/>
		<path fill="#666666" d="M50.454,11.8c-0.005-0.051-0.015-0.099-0.031-0.148c-0.015-0.052-0.034-0.1-0.06-0.146
			c-0.01-0.02-0.012-0.042-0.023-0.061c-0.014-0.021-0.035-0.031-0.051-0.05c-0.034-0.042-0.07-0.079-0.112-0.112
			c-0.038-0.031-0.077-0.057-0.116-0.08c-0.043-0.022-0.086-0.038-0.131-0.053c-0.052-0.017-0.104-0.028-0.158-0.032
			c-0.021-0.002-0.043-0.014-0.066-0.014h-25.33c-0.022,0-0.044,0.012-0.065,0.014c-0.058,0.005-0.107,0.016-0.16,0.032
			c-0.046,0.014-0.087,0.031-0.128,0.052c-0.042,0.022-0.081,0.05-0.12,0.082c-0.04,0.033-0.076,0.068-0.109,0.109
			c-0.017,0.02-0.038,0.03-0.053,0.052c-0.013,0.02-0.014,0.043-0.026,0.064c-0.023,0.045-0.041,0.091-0.056,0.141
			c-0.016,0.051-0.026,0.099-0.03,0.151c-0.002,0.023-0.015,0.043-0.015,0.067v7.248h-6.746c-0.38,0-0.688,0.308-0.688,0.688
			c0,0.379,0.309,0.688,0.688,0.688h6.746v4.506h-9.398c-0.38,0-0.688,0.307-0.688,0.688c0,0.379,0.308,0.688,0.688,0.688h9.521
			c0.105,0,0.205-0.026,0.292-0.071c0.021,0.012,0.038,0.027,0.061,0.036c0.093,0.038,0.19,0.06,0.289,0.06h25.33
			c0.1,0,0.193-0.021,0.289-0.06c0.057-0.022,0.104-0.063,0.15-0.097c0.028-0.021,0.063-0.032,0.09-0.061
			c0.002-0.002,0.004-0.005,0.007-0.005c0.065-0.067,0.118-0.145,0.157-0.231c0.002-0.006,0.006-0.01,0.01-0.014
			c0.009-0.019,0.006-0.043,0.014-0.063c0.023-0.076,0.046-0.152,0.046-0.23l0.003-0.006V11.867
			C50.468,11.844,50.456,11.823,50.454,11.8z M47.177,12.632L37.04,19.378L26.9,12.632H47.177z M25.136,13.294l6.151,4.093
			l-6.151,6.357V13.294z M26.176,24.868l6.405-6.621l4.034,2.685c0.13,0.086,0.272,0.129,0.425,0.129
			c0.146,0,0.293-0.043,0.422-0.129l4.035-2.685l6.405,6.621H26.176z M48.939,23.744l-6.148-6.357l6.148-4.094V23.744z"/>
	</g>
	<path fill="none" stroke="#666666" stroke-linecap="round" stroke-miterlimit="10" stroke-dasharray="0.1,2" d="M30.605,31.182
		c3.313,3.521,8.014,5.721,13.228,5.721c10.024,0,18.151-8.127,18.151-18.15c0-10.026-8.127-18.153-18.151-18.153
		c-5.894,0-11.13,2.809-14.445,7.16"/>
	<circle display="none" fill="#666666" cx="54.918" cy="6.844" r="6.918"/>
	<g display="none">
		<path display="inline" fill="#666666" d="M53.753,2.914h2.332v1.791l-0.45,3.598h-1.443l-0.438-3.598L53.753,2.914L53.753,2.914z
			 M53.833,8.849h2.177v1.925h-2.177V8.849z"/>
	</g>
</g>
</svg>
