<?xml version="1.0" encoding="utf-8"?>
<!-- Generator: Adobe Illustrator 15.1.0, SVG Export Plug-In . SVG Version: 6.00 Build 0)  -->
<!DOCTYPE svg PUBLIC "-//W3C//DTD SVG 1.1//EN" "http://www.w3.org/Graphics/SVG/1.1/DTD/svg11.dtd">
<svg version="1.1" id="Layer_1" xmlns="http://www.w3.org/2000/svg" xmlns:xlink="http://www.w3.org/1999/xlink" x="0px" y="0px"
	 width="295.788px" height="80.407px" viewBox="0 0 295.788 80.407" enable-background="new 0 0 295.788 80.407"
	 xml:space="preserve">
<g>
	<path fill="#00529B" d="M67.913,73.034h10.198v-8.92h10.925c7.231,0,9.835-4.256,9.835-9.762c0-6.391-2.674-10.008-9.91-10.008
		H67.913V73.034z M78.111,51.098h6.587c2.564,0,3.539,0.879,3.539,3.049c0,2.097-0.975,2.977-3.539,2.977h-6.587V51.098z"/>
	<polygon fill="#00529B" points="102.234,44.344 129.681,44.344 129.681,51.342 112.433,51.342 112.433,55.197 128.452,55.197 
		128.452,62.186 112.433,62.186 112.433,66.047 129.681,66.047 129.681,73.034 102.234,73.034 	"/>
	<path fill="#00529B" d="M133.95,73.034h10.197v-8.92h10.921c7.233,0,9.835-4.256,9.835-9.762c0-6.391-2.673-10.008-9.905-10.008
		H133.95V73.034z M144.147,51.098h6.581c2.564,0,3.543,0.879,3.543,3.049c0,2.097-0.979,2.977-3.543,2.977h-6.581V51.098z"/>
	<path fill="#00529B" d="M174.777,60.86c-4.991-0.842-7.049-4.06-7.049-8.072c0-7.432,6.544-9.442,14.933-9.442
		c11.499,0,16.24,3.331,16.6,9.397h-11.862c0-1.17-0.616-1.891-1.558-2.289c-0.902-0.443-2.06-0.604-3.181-0.604
		c-3.04,0-4.086,0.843-4.086,2.05c0,0.812,0.324,1.328,1.338,1.485l12.188,2.011c5.135,0.848,8.313,3.494,8.313,8.361
		c0,6.988-5.131,10.285-16.596,10.285c-7.846,0-16.42-1.209-16.452-9.645h12.292c0.039,0.963,0.364,1.604,1.086,2.053
		c0.76,0.4,1.884,0.6,3.47,0.6c3.187,0,4.054-0.967,4.054-2.332c0-0.84-0.474-1.688-1.845-1.927L174.777,60.86z"/>
	<rect x="203.743" y="44.344" fill="#00529B" width="10.195" height="28.689"/>
	<path fill="#00529B" d="M251.729,61.862c-0.648,3.785-1.807,6.834-4.338,8.928c-2.496,2.086-6.398,3.252-12.625,3.252
		c-6.18,0-17.643-0.486-17.643-15.354s11.463-15.343,17.643-15.343c6.154,0,15.625,0.886,16.963,12.253h-11.498
		c-0.287-2.047-1.521-5.027-5.465-5.027c-4.156,0-6.793,2.295-6.793,8.117c0,5.826,2.568,8.121,6.291,8.121
		c3.219,0,5.133-1.49,5.967-4.947H251.729z"/>
	<path fill="#00529B" d="M254.226,58.689c0,14.866,11.469,15.353,17.646,15.353c6.188,0,17.648-0.486,17.648-15.353
		c0-14.868-11.461-15.343-17.648-15.343C265.694,43.346,254.226,43.821,254.226,58.689 M265.073,58.689
		c0-5.823,2.643-8.118,6.799-8.118c4.158,0,6.801,2.295,6.801,8.118c0,5.825-2.643,8.12-6.801,8.12
		C267.716,66.809,265.073,64.514,265.073,58.689"/>
	<g>
		<defs>
			<rect id="SVGID_1_" x="5.114" y="8.4" width="285.825" height="110.862"/>
		</defs>
		<clipPath id="SVGID_2_">
			<use xlink:href="#SVGID_1_"  overflow="visible"/>
		</clipPath>
		<path clip-path="url(#SVGID_2_)" fill="#00529B" d="M51.541,46.381c-1.063,1.298-2.398,2.604-3.965,3.841
			c-2.881-16.546-15.048-31.013-23.646-35.24l-0.185,0.133c8.648,7.092,18.97,20.874,22.98,35.758
			c-1.916,1.412-4.139,2.711-6.592,3.77c-8.163-9.305-15.771-27.246-18.222-38.634l-0.253,0.073
			c0.055,11.055,7.905,29.819,17.48,38.975c-2.125,0.833-4.407,1.486-6.808,1.882c-9.178-3.636-15.713-15.276-15.713-27.198
			c0-7.783,2.377-12.594,2.835-13.59l-0.196-0.069c-0.557,0.835-4.04,5.657-4.04,14.053c0,13.479,6.655,23.777,15.486,27.025
			c-3.022,0.321-6.203,0.227-9.456-0.445l-0.068,0.203c0.941,0.351,4.148,1.69,9.034,1.69c11.059,0,18.531-6.866,21.54-12.08
			L51.541,46.381z M52.501,44.631c0.663-13.766-11.212-29.264-27.406-31.178l0.025-0.19c15.964,0,28.204,14.771,28.204,26.424
			c-0.017,2.425-0.211,3.923-0.553,5.013L52.501,44.631z"/>
		<path clip-path="url(#SVGID_2_)" fill="#0099D8" d="M32.455,12.285c0,4.232-8.13,9.403-14.927,9.403
			c-3.003,0-4.624-1.184-4.624-3.131c0-4.288,8.223-9.371,14.596-9.371C31.657,9.186,32.455,11.297,32.455,12.285 M29.109,8.4
			c-8.384,0-18.214,6.04-18.214,11.568c0,2.137,1.959,3.946,6.011,3.946c9.399,0,18.134-6.454,18.134-11.471
			C35.04,9.8,32.501,8.4,29.109,8.4"/>
		<path clip-path="url(#SVGID_2_)" fill="#F47937" d="M7.557,22.53c-0.236,0.408-1.176,2.252-1.176,4.146
			c0,3.508,3.546,6.766,10.07,6.766c12.554,0,27.052-9.235,27.052-17.803c0-3.852-3.645-5.939-6.172-6.372l-0.047,0.148
			c0.785,0.249,3.667,1.585,3.667,5.019c0,6.826-12.801,16.133-25.557,16.133c-4.883,0-7.96-2.413-7.96-5.922
			c0-1.103,0.23-1.838,0.294-2.053L7.557,22.53z"/>
		<path clip-path="url(#SVGID_2_)" fill="#009D57" d="M48.68,16.28c0.345,0.265,2.413,1.977,2.413,5.234
			c0,11.107-17.407,22.024-32.798,22.024c-9.181,0-13.36-4.52-13.175-8.546h0.162c0.362,2.083,3.341,5.823,11.373,5.823
			c15.406,0,32.613-11.299,32.613-21.193c0-1.699-0.463-2.758-0.727-3.228L48.68,16.28z"/>
	</g>
	<g>
		<defs>
			<rect id="SVGID_3_" x="-10.612" width="307.4" height="125.282"/>
		</defs>
		<clipPath id="SVGID_4_">
			<use xlink:href="#SVGID_3_"  overflow="visible"/>
		</clipPath>
		<path clip-path="url(#SVGID_4_)" fill="#ED1C24" d="M54.497,26.649c0.074,0.233,0.448,1.295,0.448,2.961
			c0,12.35-17.619,22.92-32.938,22.92c-7.884,0-12.003-3.83-12.868-5.383l0.14-0.104c2.182,1.914,6.473,3.358,11.49,3.358
			c13.53,0,33.728-10.289,33.543-23.715L54.497,26.649z"/>
	</g>
</g>
</svg>
