<?xml version="1.0" encoding="utf-8"?>
<!-- Generator: Adobe Illustrator 15.1.0, SVG Export Plug-In . SVG Version: 6.00 Build 0)  -->
<!DOCTYPE svg PUBLIC "-//W3C//DTD SVG 1.1//EN" "http://www.w3.org/Graphics/SVG/1.1/DTD/svg11.dtd">
<svg version="1.1" id="Capa_1" xmlns="http://www.w3.org/2000/svg" xmlns:xlink="http://www.w3.org/1999/xlink" x="0px" y="0px"
	 width="200px" height="200px" viewBox="0 0 200 200" enable-background="new 0 0 200 200" xml:space="preserve">
<g>
	<g>
		<path fill="#FFFFFF" d="M48.381,27.983h-7.108c1.069-7.915,5.446-8.313,7.46-8.496c2.012-0.183,3.552-1.87,3.552-3.89V3.908
			c0-1.074-0.442-2.101-1.223-2.838c-0.781-0.738-1.832-1.121-2.903-1.062C35.813,0.702,21.094,6.937,21.094,32.694v20.328
			c0,3.393,2.761,6.154,6.154,6.154h21.134c3.393,0,6.154-2.761,6.153-6.154V34.138C54.535,30.744,51.774,27.983,48.381,27.983z
			 M46.723,51.363H28.906V32.694c0-17.973,7.993-22.992,15.567-24.409v4.107c-5.231,1.592-11.251,6.295-11.251,19.498
			c0,2.158,1.749,3.906,3.906,3.906h9.595V51.363L46.723,51.363z"/>
	</g>
</g>
<g>
	<g>
		<path fill="#FFFFFF" d="M88.317,27.983h-7.108c1.069-7.915,5.446-8.313,7.46-8.496c2.012-0.183,3.552-1.87,3.552-3.89V3.908
			c0-1.074-0.442-2.101-1.223-2.838c-0.78-0.738-1.832-1.121-2.903-1.062C75.748,0.702,61.029,6.937,61.029,32.694v20.328
			c0,3.393,2.761,6.154,6.154,6.154h21.134c3.393,0,6.154-2.761,6.154-6.155V34.138C94.471,30.744,91.71,27.983,88.317,27.983z
			 M86.658,51.363H68.841V32.694c0-17.973,7.993-22.992,15.567-24.409v4.107c-5.231,1.592-11.251,6.295-11.251,19.498
			c0,2.158,1.749,3.906,3.906,3.906h9.595V51.363z"/>
	</g>
</g>
<g>
	<g>
		<path fill="#FFFFFF" d="M111.355,31.561c-0.727-0.727-1.734-1.145-2.762-1.145s-2.035,0.418-2.762,1.145s-1.145,1.734-1.145,2.762
			s0.418,2.035,1.145,2.762s1.734,1.145,2.762,1.145s2.035-0.418,2.762-1.145s1.145-1.734,1.145-2.762
			S112.082,32.287,111.355,31.561z"/>
	</g>
</g>
<g>
	<g>
		<path fill="#FFFFFF" d="M130.573,30.416h-4.923c-2.157,0-3.906,1.749-3.906,3.906c0,2.158,1.749,3.906,3.906,3.906h4.923
			c33.974,0,61.614,27.64,61.614,61.615c0,28.997-20.565,54.356-48.901,60.299c-1.809,0.38-3.104,1.975-3.104,3.823v22.696
			l-24.06-24.06c-0.732-0.732-1.727-1.145-2.763-1.145H69.427c-33.974,0-61.614-27.641-61.614-61.614
			c0-10.471,2.673-20.811,7.73-29.902c1.049-1.885,0.371-4.264-1.515-5.313c-1.885-1.049-4.264-0.371-5.313,1.515
			C3.014,76.393,0,88.046,0,99.843c0,38.282,31.145,69.427,69.427,69.427h42.315l29.584,29.584c0.747,0.748,1.746,1.145,2.763,1.145
			c0.503,0,1.011-0.098,1.494-0.298c1.46-0.604,2.411-2.028,2.411-3.608v-29.031c14.135-3.663,26.914-11.813,36.253-23.182
			C194.405,131.514,200,115.874,200,99.843C200,61.561,168.855,30.416,130.573,30.416z"/>
	</g>
</g>
<g>
	<g>
		<path fill="#FFFFFF" d="M148.072,69.333H51.929c-2.158,0-3.906,1.749-3.906,3.906c0,2.157,1.749,3.906,3.906,3.906h96.143
			c2.157,0,3.907-1.749,3.907-3.906C151.979,71.082,150.229,69.333,148.072,69.333z"/>
	</g>
</g>
<g>
	<g>
		<path fill="#FFFFFF" d="M148.072,90.166H51.929c-2.158,0-3.906,1.749-3.906,3.906s1.749,3.906,3.906,3.906h96.143
			c2.157,0,3.907-1.749,3.907-3.906S150.229,90.166,148.072,90.166z"/>
	</g>
</g>
<g>
	<g>
		<path fill="#FFFFFF" d="M148.072,110.999H51.929c-2.158,0-3.906,1.749-3.906,3.906s1.749,3.906,3.906,3.906h96.143
			c2.157,0,3.907-1.749,3.907-3.906S150.229,110.999,148.072,110.999z"/>
	</g>
</g>
<g>
	<g>
		<path fill="#FFFFFF" d="M148.071,131.833H96.825c-2.158,0-3.906,1.749-3.906,3.906s1.749,3.906,3.906,3.906h51.247
			c2.157,0,3.906-1.749,3.906-3.906S150.229,131.833,148.071,131.833z"/>
	</g>
</g>
<g>
	<g>
		<path fill="#FFFFFF" d="M74.847,131.832h-0.063c-2.158,0-3.906,1.75-3.906,3.906c0,2.157,1.749,3.906,3.906,3.906h0.063
			c2.157,0,3.906-1.749,3.906-3.906C78.753,133.582,77.004,131.832,74.847,131.832z"/>
	</g>
</g>
</svg>
