<?xml version="1.0" encoding="utf-8"?>
<!-- Generator: Adobe Illustrator 15.1.0, SVG Export Plug-In . SVG Version: 6.00 Build 0)  -->
<!DOCTYPE svg PUBLIC "-//W3C//DTD SVG 1.1//EN" "http://www.w3.org/Graphics/SVG/1.1/DTD/svg11.dtd">
<svg version="1.1" id="Capa_1" xmlns="http://www.w3.org/2000/svg" xmlns:xlink="http://www.w3.org/1999/xlink" x="0px" y="0px"
	 width="1156px" height="1080px" viewBox="404.5 0 1156 1080" enable-background="new 404.5 0 1156 1080" xml:space="preserve">
<path fill="#FFFFFF" d="M862.939,1058.906h573.779c23.3,0,42.188-18.888,42.188-42.188V213.02L1286.953,21.094H660.469
	c-23.3,0-42.188,18.887-42.188,42.188v953.438c0,23.3,18.888,42.188,42.188,42.188H862.939z"/>
<path fill="#F5F5F5" d="M1286.953,23.556v147.304c0,23.3,18.888,42.188,42.188,42.188h147.304L1286.953,23.556z"/>
<path fill="#00BBEB" d="M698.627,105.469v257.536H441.094C441.094,220.771,556.396,105.469,698.627,105.469z"/>
<path d="M1493.819,198.104L1301.866,6.178C1297.911,2.223,1292.547,0,1286.953,0H660.469c-34.894,0-63.281,28.388-63.281,63.281
	v40.213C493.564,144.142,420,245.141,420,363.005c0,11.647,9.445,21.094,21.094,21.094H698.63c11.647,0,21.094-9.446,21.094-21.094
	V105.469c0-11.648-9.446-21.094-21.094-21.094c-20.331,0-40.15,2.208-59.255,6.364V63.281c0-11.631,9.463-21.094,21.094-21.094
	h605.391v128.672c0,34.894,28.388,63.281,63.281,63.281h128.672v782.578c0,11.631-9.463,21.094-21.094,21.094h-776.25
	c-11.631,0-21.094-9.463-21.094-21.094V836.015c0-11.647-9.445-21.094-21.094-21.094s-21.094,9.446-21.094,21.094v180.704
	c0,34.894,28.388,63.281,63.281,63.281h776.25c34.894,0,63.281-28.388,63.281-63.281V213.02
	C1500,207.425,1497.777,202.059,1493.819,198.104z M677.536,341.911H463.12c10.085-113.586,100.83-204.329,214.413-214.414
	L677.536,341.911L677.536,341.911z M1308.047,170.859V72.014l119.956,119.939h-98.862
	C1317.51,191.953,1308.047,182.49,1308.047,170.859z"/>
<path d="M603.368,744.462c-3.924,3.923-6.181,9.365-6.181,14.913s2.255,10.99,6.181,14.911c3.923,3.926,9.365,6.183,14.913,6.183
	s10.99-2.257,14.911-6.183c3.926-3.921,6.183-9.363,6.183-14.911s-2.257-10.99-6.183-14.913c-3.921-3.926-9.363-6.181-14.911-6.181
	S607.291,740.536,603.368,744.462z"/>
<g>
	<path fill="#00BBEB" d="M827.182,146.551c179.499,0,325.01,145.512,325.01,325.006c0,179.496-145.512,325.01-325.01,325.01
		c-179.497,0-325.006-145.512-325.006-325.01h325.01V146.551H827.182z"/>
	<path fill="#39DDD2" d="M827.182,471.557V146.551c89.749,0,171,36.377,229.816,95.194L827.182,471.557z"/>
	<path d="M1158.813,471.557c0-193.888-157.741-351.626-351.63-351.626c-14.699,0-26.62,11.92-26.62,26.62v298.386H482.176
		c-14.699,0-26.62,11.921-26.62,26.62c0,193.889,157.739,351.63,351.626,351.63C1001.071,823.188,1158.813,665.446,1158.813,471.557
		z M998.412,242.685L833.803,407.292V174.351C896.121,179.882,952.984,204.666,998.412,242.685z M509.976,498.178h297.207
		c7.348,0,13.998-2.976,18.815-7.789c0.002-0.002,0.006-0.002,0.011-0.007l210.058-210.056
		c43.367,51.821,69.506,118.532,69.506,191.231c0,164.533-133.857,298.39-298.39,298.39
		C651.623,769.947,523.48,650.291,509.976,498.178z"/>
</g>
<path d="M1143.297,893.391h257.668c11.648,0,21.094-9.445,21.094-21.094s-9.445-21.094-21.094-21.094h-257.668
	c-11.648,0-21.094,9.445-21.094,21.094S1131.646,893.391,1143.297,893.391z"/>
<path d="M1143.297,994.641h257.668c11.648,0,21.094-9.445,21.094-21.094s-9.445-21.094-21.094-21.094h-257.668
	c-11.648,0-21.094,9.445-21.094,21.094S1131.646,994.641,1143.297,994.641z"/>
</svg>
