<?xml version="1.0" encoding="utf-8"?>
<!-- Generator: Adobe Illustrator 15.1.0, SVG Export Plug-In . SVG Version: 6.00 Build 0)  -->
<!DOCTYPE svg PUBLIC "-//W3C//DTD SVG 1.1//EN" "http://www.w3.org/Graphics/SVG/1.1/DTD/svg11.dtd">
<svg version="1.1" id="Capa_1" xmlns="http://www.w3.org/2000/svg" xmlns:xlink="http://www.w3.org/1999/xlink" x="0px" y="0px"
	 width="1080px" height="1080px" viewBox="420 0 1080 1080" enable-background="new 420 0 1080 1080" xml:space="preserve">
<rect x="491.25" y="136.667" fill="#FFFFFF" width="950" height="647.917"/>
<g>
	<path fill="#39DDD2" d="M1006.617,1000.492h-93.234c-4.807,0-8.706-3.898-8.706-8.706V751.539h110.646v240.247
		C1015.323,996.594,1011.424,1000.492,1006.617,1000.492z"/>
	<g>
		<path fill="#39DDD2" d="M904.677,849.915L820.255,996.14c-1.555,2.693-4.43,4.353-7.54,4.353h-90.542
			c-6.702,0-10.891-7.256-7.54-13.058l136.195-235.896h53.849V849.915z"/>
		<path fill="#39DDD2" d="M1015.323,849.915l84.422,146.225c1.555,2.693,4.43,4.353,7.54,4.353h90.542
			c6.702,0,10.891-7.256,7.54-13.058l-136.195-235.896h-53.849V849.915z"/>
	</g>
</g>
<path fill="#00BBEB" d="M1385.861,185H534.139c-9.966,0-18.045-9.444-18.045-21.094V92.188c0-11.65,8.079-21.094,18.045-21.094
	h851.723c9.967,0,18.045,9.444,18.045,21.094v71.719C1403.906,175.556,1395.828,185,1385.861,185z"/>
<circle fill="#FFFFFF" cx="662.557" cy="272.004" r="59.063"/>
<circle fill="#FF5D5D" cx="674.454" cy="613.934" r="59.063"/>
<path d="M1393.281,70H526.719C506.473,70,490,86.472,490,106.719v62.422c0,20.247,16.473,36.719,36.719,36.719v517.734
	c0,30.37,24.708,55.078,55.078,55.078h244.962L716.105,970.329c-4.708,8.157-4.706,18.292,0.003,26.449
	c4.71,8.154,13.486,13.222,22.905,13.222h84.13c9.418,0,18.194-5.067,22.905-13.224l44.186-76.535v63.311
	c0,14.584,11.866,26.448,26.449,26.448h86.634c14.583,0,26.448-11.864,26.448-26.448v-63.311l44.188,76.535
	c4.709,8.156,13.486,13.224,22.905,13.224h84.13c9.418,0,18.193-5.067,22.905-13.222c4.71-8.157,4.711-18.292,0.001-26.451
	l-110.653-191.655h244.962c30.37,0,55.078-24.708,55.078-55.078V341.719c0-10.14-8.221-18.359-18.359-18.359
	s-18.359,8.22-18.359,18.359v381.875c0,10.123-8.236,18.359-18.359,18.359h-326.797H908.594H581.797
	c-10.123,0-18.359-8.236-18.359-18.359V205.859h306.602c10.139,0,18.359-8.22,18.359-18.359s-8.221-18.359-18.359-18.359h-343.32
	v-62.422h866.563v62.422h-359.844c-10.139,0-18.359,8.22-18.359,18.359s8.221,18.359,18.359,18.359h359.844
	c20.246,0,36.719-16.472,36.719-36.719v-62.422C1430,86.472,1413.527,70,1393.281,70z M817.212,973.281h-60.414l112.357-194.609
	h21.079v68.132L817.212,973.281z M1163.202,973.281h-60.412l-73.024-126.478v-68.132h21.077L1163.202,973.281z M993.047,778.672
	v194.609h-66.094V778.672H993.047z"/>
<path d="M974.911,149.913c3.926-3.923,6.183-9.365,6.183-14.913s-2.257-10.99-6.183-14.913c-3.921-3.924-9.363-6.181-14.911-6.181
	s-10.99,2.257-14.913,6.181c-3.924,3.923-6.181,9.365-6.181,14.913s2.255,10.99,6.181,14.913c3.925,3.924,9.365,6.181,14.913,6.181
	S970.99,153.837,974.911,149.913z"/>
<path d="M1421.806,210.79c-3.924,3.923-6.181,9.365-6.181,14.913s2.255,10.99,6.181,14.913c3.925,3.924,9.365,6.181,14.913,6.181
	s10.99-2.257,14.911-6.181c3.924-3.923,6.183-9.365,6.183-14.913s-2.257-10.99-6.183-14.913c-3.921-3.924-9.363-6.181-14.911-6.181
	S1425.729,206.866,1421.806,210.79z"/>
<path d="M1037.787,357.146h183.474l-2.964,2.964c-8.236,8.237-8.236,21.594,0,29.833c4.12,4.119,9.518,6.179,14.916,6.179
	c5.397,0,10.796-2.06,14.915-6.179l38.976-38.975c8.236-8.237,8.236-21.594,0-29.833l-38.976-38.975
	c-8.239-8.237-21.592-8.237-29.833,0c-8.236,8.237-8.236,21.594,0,29.833l2.964,2.964h-183.474
	c-150.095,0-287.885,85.647-354.691,219.286c-2.837-0.306-5.716-0.472-8.634-0.472c-44.197,0-80.156,35.958-80.156,80.156
	c0,44.197,35.959,80.156,80.156,80.156c44.198,0,80.156-35.959,80.156-80.156c0-26.182-12.62-49.47-32.096-64.106
	C782.829,432.293,904.901,357.146,1037.787,357.146z M674.463,651.898c-20.936,0-37.969-17.033-37.969-37.969
	s17.033-37.969,37.969-37.969s37.969,17.033,37.969,37.969S695.398,651.898,674.463,651.898z"/>
<path d="M742.711,272.006c0-44.198-35.958-80.156-80.156-80.156c-44.197,0-80.156,35.958-80.156,80.156
	c0,44.198,35.959,80.156,80.156,80.156C706.753,352.162,742.711,316.204,742.711,272.006z M624.586,272.006
	c0-20.936,17.033-37.969,37.969-37.969s37.969,17.033,37.969,37.969s-17.033,37.969-37.969,37.969S624.586,292.941,624.586,272.006z
	"/>
<path d="M1313.202,523.423c-8.239-8.237-21.592-8.237-29.833,0l-28.932,28.932l-28.933-28.932c-8.239-8.237-21.592-8.237-29.833,0
	c-8.237,8.236-8.237,21.593,0,29.832l28.935,28.933l-28.933,28.933c-8.236,8.236-8.236,21.593,0,29.832
	c4.12,4.12,9.518,6.179,14.916,6.179c5.397,0,10.796-2.059,14.915-6.179l28.933-28.932l28.932,28.932
	c4.12,4.12,9.518,6.179,14.916,6.179c5.397,0,10.795-2.059,14.915-6.179c8.237-8.236,8.237-21.593,0-29.832l-28.931-28.933
	l28.933-28.933C1321.441,545.016,1321.441,531.659,1313.202,523.423z"/>
</svg>
