<?xml version="1.0" encoding="utf-8"?>
<!-- Generator: Adobe Illustrator 15.1.0, SVG Export Plug-In . SVG Version: 6.00 Build 0)  -->
<!DOCTYPE svg PUBLIC "-//W3C//DTD SVG 1.1//EN" "http://www.w3.org/Graphics/SVG/1.1/DTD/svg11.dtd">
<svg version="1.1" id="Capa_1" xmlns="http://www.w3.org/2000/svg" xmlns:xlink="http://www.w3.org/1999/xlink" x="0px" y="0px"
	 width="1080px" height="1080px" viewBox="420 0 1080 1080" enable-background="new 420 0 1080 1080" xml:space="preserve">
<circle fill="#FFFFFF" cx="703.103" cy="165.109" r="94.495"/>
<g>
	<rect x="858.588" y="146.219" fill="#FFFFFF" width="535.236" height="344.08"/>
	<polygon fill="#C0F4F1" points="1393.824,490.299 1393.824,212.487 1192.475,413.837 1140.543,361.905 1012.149,490.299 	"/>
	<path fill="#FFFFFF" d="M1078.131,341.305c0-47.214-38.275-85.488-85.489-85.488H854.737h-53.39h-93.03h-93.028l0,0
		c-47.213-0.003-85.489,38.272-85.489,85.488V540.14c0,47.214,38.275,85.488,85.489,85.488l0,0v-59.715h186.058V370.305v-26.459
		l1.541-2.541H1078.131L1078.131,341.305z"/>
	<rect x="616.565" y="573.739" fill="#00BBEB" width="183.51" height="436.504"/>
	<path d="M854.963,196.217c10.558,0,19.116-8.559,19.116-19.116v-17.204h497.005v305.85h-316.41l82.244-82.243l38.413,38.416
		c7.465,7.462,19.568,7.462,27.035,0l85.286-85.287c0.403,10.2,8.777,18.352,19.078,18.352c10.557,0,19.115-8.559,19.115-19.116
		v-46.09c0-10.557-8.559-19.115-19.115-19.115h-46.09c-10.559,0-19.116,8.559-19.116,19.115c0,10.558,8.558,19.116,19.116,19.116
		h0.684l-72.473,72.475l-38.412-38.415c-7.465-7.463-19.567-7.463-27.036,0l-122.799,122.793H896.379
		c-10.557,0-19.116,8.558-19.116,19.116c0,10.558,8.559,19.115,19.116,19.115H1390.2c10.558,0,19.115-8.558,19.115-19.115V140.781
		c0-10.558-8.558-19.115-19.115-19.115H854.963c-10.558,0-19.116,8.558-19.116,19.115v36.319
		C835.848,187.658,844.405,196.217,854.963,196.217z"/>
	<path d="M800.073,805.806c-10.557,0-19.116,8.561-19.116,19.115v166.207h-53.523V668.659c0-10.556-8.558-19.115-19.116-19.115
		c-10.557,0-19.115,8.56-19.115,19.115v322.469h-53.524V585.022c0.035,0,0.069,0.006,0.104,0.006h145.072
		c0.034,0,0.068-0.006,0.103-0.006v92.072c0,10.557,8.559,19.116,19.116,19.116c10.558,0,19.116-8.56,19.116-19.116V360.42h258.942
		c10.558,0,19.115-8.558,19.115-19.115c0-57.68-46.925-104.604-104.604-104.604H781.038c14.805-18.021,23.707-41.071,23.707-66.161
		v-15.504c0-57.563-46.829-104.395-104.392-104.395c-57.561,0-104.392,46.831-104.392,104.393v15.504
		c0,25.092,8.902,48.14,23.707,66.161h-4.381c-57.677,0-104.602,46.927-104.602,104.606V540.14
		c0,51.595,37.559,94.555,86.764,103.052v367.052c0,10.557,8.558,19.116,19.115,19.116h183.51c10.558,0,19.116-8.56,19.116-19.116
		V824.921C819.189,814.364,810.631,805.806,800.073,805.806z M634.192,170.537v-15.504c0-36.482,29.681-66.161,66.161-66.161
		c36.481,0,66.161,29.679,66.161,66.161v15.504c0,36.482-29.679,66.161-66.161,66.161
		C663.873,236.698,634.192,207.02,634.192,170.537z M548.916,540.138V341.305c0-36.599,29.774-66.373,66.374-66.373h65.949v43.327
		c0,10.558,8.558,19.116,19.115,19.116c10.557,0,19.116-8.559,19.116-19.116V274.93h273.172c29.955,0,55.34,19.949,63.569,47.258
		H801.349c-0.216,0-0.424,0.024-0.636,0.032c-0.214-0.008-0.423-0.032-0.637-0.032c-10.557,0-19.116,8.558-19.116,19.115v205.498
		c-0.034,0-0.068-0.005-0.103-0.005H635.783c-0.035,0-0.069,0.005-0.104,0.005V341.305c0-10.558-8.558-19.115-19.116-19.115
		c-10.558,0-19.115,8.558-19.115,19.115v262.752C569.49,596.242,548.916,570.557,548.916,540.138z"/>
	<path d="M800.075,730.62c-5.027,0-9.959,2.046-13.515,5.602c-3.555,3.556-5.601,8.486-5.601,13.515
		c0,5.027,2.046,9.959,5.601,13.515c3.556,3.554,8.488,5.601,13.515,5.601c5.027,0,9.959-2.045,13.515-5.601
		c3.555-3.556,5.6-8.487,5.6-13.515c0-5.028-2.045-9.959-5.6-13.515C810.035,732.666,805.103,730.62,800.075,730.62z"/>
</g>
</svg>
