<?xml version="1.0" encoding="utf-8"?>
<!-- Generator: Adobe Illustrator 23.0.3, SVG Export Plug-In . SVG Version: 6.00 Build 0)  -->
<svg version="1.1" id="Capa_1" xmlns="http://www.w3.org/2000/svg" xmlns:xlink="http://www.w3.org/1999/xlink" x="0px" y="0px"
	 viewBox="0 0 50 50" style="enable-background:new 0 0 50 50;" xml:space="preserve">
<style type="text/css">
	.st0{fill:#FFFFFF;}
</style>
<g>
	<g>
		<path class="st0" d="M41.5,3.6h-2.3V2.8c0-0.4-0.3-0.8-0.8-0.8c-0.4,0-0.8,0.3-0.8,0.8v0.8h-1.5V2.8c0-0.4-0.3-0.8-0.8-0.8
			s-0.8,0.3-0.8,0.8v0.8H33V2.8C33,2.4,32.7,2,32.3,2s-0.8,0.3-0.8,0.8v0.8H30V2.8C30,2.4,29.6,2,29.2,2s-0.8,0.3-0.8,0.8v0.8H17.7
			V2.8C17.7,2.4,17.4,2,17,2s-0.8,0.3-0.8,0.8v0.8h-1.5V2.8c0-0.4-0.3-0.8-0.8-0.8c-0.4,0-0.8,0.3-0.8,0.8v0.8h-1.5V2.8
			c0-0.4-0.3-0.8-0.8-0.8C10.4,2,10,2.3,10,2.8v0.8H8.5V2.8C8.5,2.4,8.2,2,7.8,2C7.4,2,7,2.4,7,2.8v0.8H4.7c-0.4,0-0.8,0.3-0.8,0.8
			v36c0,0.4,0.3,0.8,0.8,0.8H27c0.4,0,0.8-0.3,0.8-0.8c0,0,0,0,0-0.1v-0.1c0-0.2,0-0.4,0-0.6c0-0.8,0.1-1.5,0.3-2.2
			c0.2-0.7,0.4-1.4,0.8-2.1c0-0.1,0.1-0.1,0.1-0.2c0.1-0.2,0.2-0.4,0.3-0.6c0-0.1,0.1-0.1,0.1-0.2c0.1-0.2,0.3-0.4,0.4-0.6l0.1-0.1
			c0.2-0.2,0.3-0.4,0.5-0.6l0,0c1.1-1.2,2.5-2.2,4-2.7h0.1c0.2-0.1,0.4-0.1,0.6-0.2c0.1,0,0.2-0.1,0.3-0.1c0.2,0,0.4-0.1,0.5-0.1
			c0.2,0,0.3,0,0.5-0.1c0.1,0,0.3,0,0.4-0.1c0.3,0,0.6,0,0.9,0c0.2,0,0.4,0,0.6,0h0.1l0,0c1,0.1,1.9,0.3,2.8,0.6
			c0.4,0.2,0.8,0,1-0.4c0-0.1,0.1-0.2,0.1-0.3V4.3C42.2,3.9,41.9,3.6,41.5,3.6z M27.7,33.8l-0.1,0.1c-0.1,0.2-0.2,0.4-0.3,0.6
			c-0.1,0.1-0.1,0.2-0.2,0.3c-0.1,0.2-0.2,0.4-0.2,0.6c0,0,0,0,0,0.1v-3.6h2.2C28.6,32.5,28.1,33.1,27.7,33.8z M31.5,29.8
			c-0.3,0.2-0.5,0.3-0.8,0.5l0,0h-3.8v-4.6h4.6C31.5,25.7,31.5,29.8,31.5,29.8z M31.5,24.2h-4.6v-4.6h4.6V24.2z M31.5,18.1h-4.6
			v-4.6h4.6V18.1z M37.6,19.6v4.6H33v-4.6H37.6z M33,18.1v-4.6h4.6v4.6H33z M37.6,28.1c-0.4,0-0.7,0-1.1,0.1c-0.2,0-0.3,0-0.4,0.1
			c-0.2,0-0.4,0.1-0.6,0.1c-0.2,0-0.4,0.1-0.6,0.1c-0.1,0-0.2,0.1-0.4,0.1c-0.2,0.1-0.5,0.1-0.7,0.2h-0.1c-0.3,0.1-0.6,0.2-0.8,0.3
			v-3.3h4.6L37.6,28.1L37.6,28.1z M40.7,28.5c-0.5-0.1-1-0.2-1.5-0.3V12.8c0-0.4-0.3-0.8-0.8-0.8H7.8C7.4,12,7,12.3,7,12.8v24.5
			C7,37.7,7.4,38,7.8,38h18.5c-0.1,0.5-0.1,1-0.1,1.5H5.5v-29h35.2V28.5z M20.8,30.4v-4.6h4.6v4.6H20.8z M25.4,31.9v4.6h-4.6v-4.6
			H25.4z M20.8,24.2v-4.6h4.6v4.6H20.8z M20.8,18.1v-4.6h4.6v4.6H20.8z M14.7,30.4v-4.6h4.6v4.6H14.7z M19.3,31.9v4.6h-4.6v-4.6
			H19.3z M14.7,24.2v-4.6h4.6v4.6H14.7z M14.7,18.1v-4.6h4.6v4.6H14.7z M8.5,30.4v-4.6h4.6v4.6H8.5z M13.1,31.9v4.6H8.5v-4.6H13.1z
			 M8.5,24.2v-4.6h4.6v4.6H8.5z M8.5,18.1v-4.6h4.6v4.6H8.5z M40.7,8.9H5.5V5.1H7v0.8c0,0.4,0.3,0.8,0.8,0.8c0.4,0,0.8-0.3,0.8-0.8
			V5.1h1.5v0.8c0,0.4,0.3,0.8,0.8,0.8c0.4,0,0.8-0.3,0.8-0.8V5.1h1.5v0.8c0,0.4,0.3,0.8,0.8,0.8c0.4,0,0.8-0.3,0.8-0.8V5.1h1.5v0.8
			c0,0.4,0.3,0.8,0.8,0.8s0.8-0.3,0.8-0.8V5.1h10.7v0.8c0,0.4,0.3,0.8,0.8,0.8c0.4,0,0.8-0.3,0.8-0.8V5.1h1.5v0.8
			c0,0.4,0.3,0.8,0.8,0.8S33,6.3,33,5.9V5.1h1.5v0.8c0,0.4,0.3,0.8,0.8,0.8s0.8-0.3,0.8-0.8V5.1h1.5v0.8c0,0.4,0.3,0.8,0.8,0.8
			c0.4,0,0.8-0.3,0.8-0.8V5.1h1.5C40.7,5.1,40.7,8.9,40.7,8.9z"/>
	</g>
</g>
<g>
	<g>
		<path class="st0" d="M37.6,31.1c-4.7,0-8.4,3.8-8.4,8.4S33,48,37.6,48s8.4-3.8,8.4-8.4C46,34.9,42.3,31.1,37.6,31.1z M37.6,46.4
			c-3.8,0-6.9-3.1-6.9-6.9c0-3.8,3.1-6.9,6.9-6.9s6.9,3.1,6.9,6.9C44.5,43.3,41.4,46.4,37.6,46.4z"/>
	</g>
</g>
<g>
	<g>
		<path class="st0" d="M42,35.2c-0.3-0.3-0.8-0.3-1.1,0l-3.3,3.3l-1.8-1.8c-0.3-0.3-0.8-0.3-1.1,0s-0.3,0.8,0,1.1l2.3,2.3
			c0.3,0.3,0.8,0.3,1.1,0l3.8-3.8C42.3,36,42.3,35.5,42,35.2z"/>
	</g>
</g>
</svg>
