<?xml version="1.0" encoding="utf-8"?>
<!-- Generator: Adobe Illustrator 23.0.3, SVG Export Plug-In . SVG Version: 6.00 Build 0)  -->
<svg version="1.1" id="Layer_1" xmlns="http://www.w3.org/2000/svg" xmlns:xlink="http://www.w3.org/1999/xlink" x="0px" y="0px"
	 viewBox="0 0 463.2 150" style="enable-background:new 0 0 463.2 150;" xml:space="preserve">
<style type="text/css">
	.st0{fill-rule:evenodd;clip-rule:evenodd;fill:#0F8EC7;}
	.st1{fill-rule:evenodd;clip-rule:evenodd;fill:#A8A8A8;}
</style>
<g>
	<g>
		<polygon class="st0" points="95.3,129.3 109.1,114.2 109.1,28.4 187.9,28.3 187.9,28.3 150.5,3 95.3,3 40,3 2.5,28.3 2.6,28.3 
			81.1,28.4 81.1,113.9 95.3,129.3 		"/>
		<polygon class="st1" points="71.7,103 57,87.1 57.1,51.6 24.5,51.6 11,36.9 71.8,36.9 71.7,103 		"/>
	</g>
	<g>
		<path d="M123.3,138.1l2.7,0.8c-0.6,2.7-1.6,4.8-3.1,6.1s-3.3,2-5.4,2c-1.9,0-3.4-0.5-4.7-1.4c-1.3-0.9-2.4-2.4-3.2-4.4
			c-0.8-2-1.3-4.3-1.3-7.1c0-2.7,0.4-5,1.3-6.8c0.8-1.9,2-3.3,3.4-4.2c1.4-0.9,3-1.4,4.8-1.4c1.9,0,3.6,0.6,5,1.8s2.4,3,2.9,5.3
			l-2.6,0.7c-0.9-3.4-2.7-5.1-5.3-5.1c-1.3,0-2.5,0.3-3.5,1c-1,0.7-1.8,1.7-2.3,3.2c-0.6,1.4-0.9,3.3-0.9,5.5c0,3.3,0.6,5.8,1.8,7.5
			c1.2,1.7,2.7,2.5,4.7,2.5c1.4,0,2.7-0.5,3.7-1.5C122.2,141.7,122.9,140.1,123.3,138.1z"/>
		<path d="M128.5,134.7c0-4.2,0.9-7.4,2.7-9.6c1.8-2.2,4.1-3.3,6.8-3.3c1.8,0,3.4,0.5,4.8,1.5c1.5,1,2.6,2.4,3.4,4.3
			c0.8,1.9,1.3,4.2,1.3,6.8c0,3.6-0.8,6.6-2.5,8.8c-1.8,2.5-4.2,3.8-7.1,3.8c-2.9,0-5.3-1.3-7.1-3.9
			C129.3,140.8,128.5,138,128.5,134.7z M131.2,134.8c0,3,0.7,5.3,2,7c1.3,1.7,2.9,2.5,4.8,2.5c1.9,0,3.6-0.8,4.9-2.5
			c1.3-1.7,2-4.1,2-7.4c0-2.1-0.3-4-1-5.6c-0.5-1.3-1.3-2.3-2.4-3c-1-0.8-2.2-1.1-3.4-1.1c-2,0-3.6,0.8-4.9,2.5
			C131.8,128.7,131.2,131.3,131.2,134.8z"/>
		<path d="M150.9,146.6v-24.4h2.7l10.5,19.2v-19.2h2.5v24.4h-2.7l-10.5-19.2v19.2H150.9z"/>
		<path d="M170.2,138.8l2.5-0.3c0.1,1.3,0.4,2.4,0.9,3.1c0.5,0.8,1.1,1.3,2,1.8c0.9,0.4,1.9,0.7,3,0.7c1.6,0,2.8-0.4,3.7-1.2
			c0.9-0.8,1.3-1.8,1.3-3c0-0.7-0.2-1.3-0.5-1.9c-0.3-0.5-0.8-1-1.4-1.3c-0.6-0.3-2-0.8-4.1-1.4c-1.9-0.6-3.2-1.1-4-1.7
			c-0.8-0.6-1.4-1.3-1.9-2.2c-0.4-0.9-0.7-1.8-0.7-2.9c0-2,0.6-3.6,1.9-4.8c1.3-1.2,3-1.9,5.2-1.9c1.5,0,2.8,0.3,3.9,0.9
			c1.1,0.6,2,1.4,2.6,2.5c0.6,1.1,0.9,2.4,1,3.9l-2.5,0.2c-0.1-1.6-0.6-2.8-1.4-3.5c-0.8-0.8-2-1.1-3.4-1.1c-1.5,0-2.6,0.3-3.4,1
			c-0.8,0.7-1.2,1.5-1.2,2.6c0,1,0.3,1.7,0.9,2.3c0.6,0.5,1.9,1.1,3.9,1.7c2,0.5,3.4,1,4.2,1.4c1.2,0.6,2.1,1.4,2.8,2.5
			c0.6,1,0.9,2.2,0.9,3.6c0,1.4-0.3,2.7-1,3.8c-0.7,1.1-1.5,2-2.7,2.6c-1.1,0.6-2.5,0.9-4.1,0.9c-2.5,0-4.4-0.7-5.9-2.2
			C171,143.3,170.2,141.3,170.2,138.8z"/>
		<path d="M202.7,122.2h2.6v14.1c0,2.4-0.2,4.3-0.7,5.8c-0.5,1.5-1.3,2.7-2.5,3.6c-1.2,0.9-2.8,1.3-4.6,1.3c-2.6,0-4.6-0.8-5.9-2.4
			c-1.3-1.6-2-4.4-2-8.3v-14.1h2.6v14.1c0,2.2,0.2,3.8,0.5,4.8c0.3,1,0.9,1.7,1.7,2.3c0.8,0.5,1.7,0.8,2.9,0.8
			c1.9,0,3.2-0.5,4.1-1.6c0.8-1.1,1.3-3.1,1.3-6.2V122.2z"/>
		<path d="M209.7,146.6v-24.4h2.6v21.5h9.8v2.9H209.7z"/>
		<path d="M228.4,146.6v-21.5h-6.6v-2.9h15.8v2.9h-6.6v21.5H228.4z"/>
		<path d="M236.1,146.6l7.7-24.4h2.8l8.2,24.4h-3l-2.3-7.4h-8.4l-2.2,7.4H236.1z M241.9,136.6h6.8l-2.1-6.7
			c-0.6-2.1-1.1-3.8-1.4-5.1c-0.3,1.6-0.6,3.1-1.1,4.7L241.9,136.6z"/>
		<path d="M256.9,146.6v-24.4h2.7l10.5,19.2v-19.2h2.5v24.4h-2.7l-10.5-19.2v19.2H256.9z"/>
		<path d="M291.3,138.1l2.7,0.8c-0.6,2.7-1.6,4.8-3.1,6.1c-1.5,1.3-3.3,2-5.4,2c-1.9,0-3.4-0.5-4.7-1.4c-1.3-0.9-2.4-2.4-3.2-4.4
			c-0.8-2-1.3-4.3-1.3-7.1c0-2.7,0.4-5,1.3-6.8c0.8-1.9,2-3.3,3.4-4.2c1.4-0.9,3-1.4,4.8-1.4c1.9,0,3.6,0.6,5,1.8s2.4,3,2.9,5.3
			l-2.6,0.7c-0.9-3.4-2.7-5.1-5.3-5.1c-1.3,0-2.5,0.3-3.5,1s-1.8,1.7-2.3,3.2c-0.6,1.4-0.9,3.3-0.9,5.5c0,3.3,0.6,5.8,1.8,7.5
			c1.2,1.7,2.7,2.5,4.7,2.5c1.4,0,2.7-0.5,3.7-1.5C290.2,141.7,290.9,140.1,291.3,138.1z"/>
		<path d="M302.8,146.6v-10.3l-7.7-14h3.2l3.9,7.4c0.8,1.5,1.5,2.8,2,4.1c0.6-1.3,1.3-2.7,2.2-4.3l3.9-7.2h3.1l-8,14v10.3H302.8z"/>
		<path d="M322.2,138.8l2.5-0.3c0.1,1.3,0.4,2.4,0.9,3.1c0.5,0.8,1.2,1.3,2,1.8c0.9,0.4,1.9,0.7,3,0.7c1.6,0,2.8-0.4,3.7-1.2
			c0.9-0.8,1.3-1.8,1.3-3c0-0.7-0.2-1.3-0.5-1.9c-0.3-0.5-0.8-1-1.4-1.3c-0.6-0.3-2-0.8-4.1-1.4c-1.9-0.6-3.2-1.1-4-1.7
			c-0.8-0.6-1.4-1.3-1.9-2.2c-0.4-0.9-0.7-1.8-0.7-2.9c0-2,0.6-3.6,1.9-4.8c1.3-1.2,3-1.9,5.2-1.9c1.5,0,2.8,0.3,3.9,0.9
			c1.1,0.6,2,1.4,2.6,2.5c0.6,1.1,0.9,2.4,1,3.9l-2.5,0.2c-0.1-1.6-0.6-2.8-1.4-3.5c-0.8-0.8-2-1.1-3.4-1.1c-1.5,0-2.6,0.3-3.4,1
			c-0.8,0.7-1.2,1.5-1.2,2.6c0,1,0.3,1.7,0.9,2.3s1.9,1.1,3.9,1.7c2,0.5,3.3,1,4.1,1.4c1.2,0.6,2.1,1.4,2.8,2.5
			c0.6,1,0.9,2.2,0.9,3.6c0,1.4-0.3,2.7-1,3.8c-0.7,1.1-1.5,2-2.7,2.6c-1.1,0.6-2.5,0.9-4.1,0.9c-2.5,0-4.4-0.7-5.9-2.2
			C323,143.3,322.3,141.3,322.2,138.8z"/>
		<path d="M341.8,146.6v-24.4h14.4v2.9h-11.8v7.5h11.1v2.9h-11.1v8.3h12.3v2.9H341.8z"/>
		<path d="M360.3,146.6v-24.4h8.9c1.8,0,3.2,0.2,4.1,0.7c0.9,0.4,1.6,1.2,2.2,2.3s0.8,2.3,0.8,3.7c0,1.8-0.5,3.3-1.4,4.5
			c-1,1.1-2.4,1.9-4.2,2.2c0.7,0.4,1.3,0.9,1.7,1.4c0.8,0.9,1.5,2,2.1,3.1l3.5,6.6h-3.3l-2.7-5.1c-1-2-1.8-3.3-2.3-4
			c-0.5-0.7-1-1.2-1.5-1.4c-0.5-0.2-1.2-0.4-2.1-0.4H363v10.8H360.3z M363,133h5.7c1.2,0,2.2-0.1,2.8-0.4c0.6-0.3,1.1-0.8,1.5-1.4
			c0.4-0.6,0.6-1.4,0.6-2.2c0-1.2-0.4-2.2-1.1-2.9c-0.7-0.7-1.8-1.1-3.2-1.1H363V133z"/>
		<path d="M385.7,146.6l-7.8-24.4h2.9l5.2,17.7c0.4,1.4,0.7,2.7,1,4c0.3-1.3,0.7-2.7,1.1-4l5.4-17.7h2.7l-7.8,24.4H385.7z"/>
		<path d="M399.1,146.6v-24.4h2.6v24.4H399.1z"/>
		<path d="M420.5,138.1l2.7,0.8c-0.6,2.7-1.6,4.8-3.1,6.1c-1.5,1.3-3.3,2-5.4,2c-1.9,0-3.4-0.5-4.7-1.4c-1.3-0.9-2.4-2.4-3.2-4.4
			c-0.8-2-1.3-4.3-1.3-7.1c0-2.7,0.4-5,1.3-6.8c0.8-1.9,2-3.3,3.4-4.2c1.4-0.9,3-1.4,4.8-1.4c1.9,0,3.6,0.6,5,1.8s2.4,3,2.9,5.3
			l-2.6,0.7c-0.9-3.4-2.7-5.1-5.3-5.1c-1.3,0-2.5,0.3-3.5,1s-1.8,1.7-2.3,3.2c-0.6,1.4-0.9,3.3-0.9,5.5c0,3.3,0.6,5.8,1.8,7.5
			c1.2,1.7,2.7,2.5,4.7,2.5c1.4,0,2.7-0.5,3.7-1.5C419.5,141.7,420.2,140.1,420.5,138.1z"/>
		<path d="M426.5,146.6v-24.4H441v2.9h-11.8v7.5h11.1v2.9h-11.1v8.3h12.3v2.9H426.5z"/>
		<path d="M444.2,138.8l2.5-0.3c0.1,1.3,0.4,2.4,0.9,3.1c0.5,0.8,1.2,1.3,2,1.8c0.9,0.4,1.9,0.7,3,0.7c1.6,0,2.8-0.4,3.7-1.2
			c0.9-0.8,1.3-1.8,1.3-3c0-0.7-0.2-1.3-0.5-1.9c-0.3-0.5-0.8-1-1.4-1.3c-0.6-0.3-2-0.8-4.1-1.4c-1.9-0.6-3.2-1.1-4-1.7
			c-0.8-0.6-1.4-1.3-1.9-2.2c-0.4-0.9-0.7-1.8-0.7-2.9c0-2,0.6-3.6,1.9-4.8c1.3-1.2,3-1.9,5.2-1.9c1.5,0,2.8,0.3,3.9,0.9
			c1.1,0.6,2,1.4,2.6,2.5c0.6,1.1,0.9,2.4,1,3.9l-2.5,0.2c-0.1-1.6-0.6-2.8-1.4-3.5c-0.8-0.8-2-1.1-3.4-1.1c-1.5,0-2.6,0.3-3.4,1
			c-0.8,0.7-1.2,1.5-1.2,2.6c0,1,0.3,1.7,0.9,2.3s1.9,1.1,3.9,1.7c2,0.5,3.3,1,4.1,1.4c1.2,0.6,2.1,1.4,2.8,2.5
			c0.6,1,0.9,2.2,0.9,3.6c0,1.4-0.3,2.7-1,3.8c-0.7,1.1-1.5,2-2.7,2.6c-1.1,0.6-2.5,0.9-4.1,0.9c-2.5,0-4.4-0.7-5.9-2.2
			C445,143.3,444.3,141.3,444.2,138.8z"/>
	</g>
	<g>
		<path d="M169.8,57.6h48.3v12.7h-16.2V109H186V70.3h-16.2V57.6z"/>
		<path d="M221.7,57.6h48.3v12.7h-16.2V109h-15.9V70.3h-16.2V57.6z"/>
		<polygon points="154,57.6 136.6,57.6 117.3,109 133.5,109 135.3,103.2 135.3,103.2 135.3,103.1 136,100.6 136.1,100.6 141,84.5 
			141,84.5 145.1,70.9 150.8,89.4 150.8,89.4 154.9,103.1 156.7,109 173.3,109 		"/>
		<polygon points="303.9,57.6 286.6,57.6 267.2,109 283.5,109 286,100.6 286,100.6 289.4,89.4 289.4,89.4 295,70.9 299.2,84.4 
			299.2,84.4 299.2,84.4 300.7,89.4 300.7,89.4 304.9,103 304.8,103 306.6,109 323.2,109 		"/>
	</g>
</g>
</svg>
