<?xml version="1.0" encoding="utf-8"?>
<!-- Generator: Adobe Illustrator 23.0.3, SVG Export Plug-In . SVG Version: 6.00 Build 0)  -->
<svg version="1.1" id="Layer_1" xmlns="http://www.w3.org/2000/svg" xmlns:xlink="http://www.w3.org/1999/xlink" x="0px" y="0px"
	 viewBox="0 0 248.3 150" style="enable-background:new 0 0 248.3 150;" xml:space="preserve">
<style type="text/css">
	.st0{fill:#A100FF;}
	.st1{fill:#515151;}
</style>
<polygon class="st0" points="88.3,38.5 141.7,69.3 97.6,94.7 97.6,79.5 120.2,66.4 110.9,61.1 88.3,74.1 88.3,110.8 160.2,69.3 
	97.6,33.1 97.6,17.8 160.2,53.7 160.2,43.3 88.3,1.8 "/>
<g>
	<path class="st1" d="M17.4,141.1l-1.5-5.1H8.1l-1.5,5.1H1.6l7.5-21.4h5.5l7.6,21.4H17.4z M14.8,132.2c-1.4-4.6-2.2-7.2-2.4-7.8
		c-0.2-0.6-0.3-1.1-0.4-1.4c-0.3,1.2-1.2,4.3-2.8,9.2H14.8z"/>
	<path class="st1" d="M39.6,141.1h-4.4v-9.5c0-1.2-0.2-2.1-0.6-2.6c-0.4-0.6-1.1-0.9-2-0.9c-1.2,0-2.1,0.4-2.7,1.2
		c-0.6,0.8-0.8,2.2-0.8,4.1v7.7h-4.4v-16.3H28l0.6,2.1h0.2c0.5-0.8,1.2-1.4,2-1.8c0.9-0.4,1.9-0.6,3-0.6c1.9,0,3.3,0.5,4.3,1.5
		c1,1,1.5,2.5,1.5,4.4V141.1z"/>
	<path class="st1" d="M49.4,141.3c-1.9,0-3.4-0.7-4.5-2.2c-1.1-1.5-1.6-3.5-1.6-6.2c0-2.7,0.6-4.8,1.7-6.2c1.1-1.5,2.6-2.2,4.6-2.2
		c2.1,0,3.6,0.8,4.7,2.4h0.1c-0.2-1.2-0.3-2.3-0.3-3.3v-5.2h4.5v22.7H55l-0.9-2.1H54C53,140.5,51.4,141.3,49.4,141.3z M50.9,137.8
		c1.1,0,2-0.3,2.5-1c0.5-0.7,0.8-1.8,0.9-3.4V133c0-1.8-0.3-3-0.8-3.8c-0.5-0.8-1.4-1.1-2.6-1.1c-1,0-1.8,0.4-2.3,1.3
		c-0.5,0.8-0.8,2.1-0.8,3.7c0,1.6,0.3,2.8,0.8,3.6C49.1,137.4,49.9,137.8,50.9,137.8z"/>
	<path class="st1" d="M70.5,141.3c-2.6,0-4.7-0.7-6.2-2.2c-1.5-1.4-2.2-3.5-2.2-6.2c0-2.7,0.7-4.8,2-6.3c1.4-1.5,3.3-2.2,5.7-2.2
		c2.3,0,4.1,0.7,5.4,2c1.3,1.3,1.9,3.1,1.9,5.4v2.2H66.6c0,1.3,0.4,2.3,1.1,3c0.7,0.7,1.7,1.1,2.9,1.1c1,0,1.9-0.1,2.8-0.3
		c0.9-0.2,1.8-0.5,2.7-1v3.4c-0.8,0.4-1.6,0.7-2.5,0.9C72.8,141.2,71.8,141.3,70.5,141.3z M69.9,127.6c-0.9,0-1.7,0.3-2.2,0.9
		c-0.5,0.6-0.8,1.4-0.9,2.5H73c0-1.1-0.3-1.9-0.9-2.5C71.5,127.9,70.8,127.6,69.9,127.6z"/>
	<path class="st1" d="M89.8,124.4c0.6,0,1.1,0,1.5,0.1l-0.3,4.2c-0.4-0.1-0.8-0.1-1.3-0.1c-1.4,0-2.5,0.4-3.3,1.1s-1.2,1.8-1.2,3.1
		v8.3h-4.4v-16.3h3.4l0.7,2.7H85c0.5-0.9,1.2-1.7,2-2.2C87.9,124.7,88.8,124.4,89.8,124.4z"/>
	<path class="st1" d="M105.7,136.2c0,1.7-0.6,2.9-1.7,3.8c-1.2,0.9-2.9,1.3-5.2,1.3c-1.2,0-2.2-0.1-3-0.2c-0.8-0.2-1.6-0.4-2.3-0.7
		v-3.7c0.8,0.4,1.8,0.7,2.8,1c1,0.3,1.9,0.4,2.7,0.4c1.6,0,2.4-0.5,2.4-1.4c0-0.3-0.1-0.6-0.3-0.9c-0.2-0.2-0.6-0.5-1.1-0.7
		c-0.5-0.3-1.2-0.6-2.1-1c-1.3-0.5-2.2-1-2.8-1.5c-0.6-0.4-1-1-1.3-1.5c-0.3-0.6-0.4-1.3-0.4-2.1c0-1.4,0.6-2.6,1.7-3.4
		c1.1-0.8,2.7-1.2,4.8-1.2c2,0,3.9,0.4,5.7,1.3l-1.3,3.2c-0.8-0.4-1.6-0.6-2.3-0.9c-0.7-0.2-1.4-0.3-2.2-0.3c-1.3,0-2,0.4-2,1.1
		c0,0.4,0.2,0.7,0.6,1c0.4,0.3,1.3,0.7,2.8,1.3c1.3,0.5,2.2,1,2.8,1.4c0.6,0.4,1,1,1.3,1.5C105.5,134.7,105.7,135.4,105.7,136.2z"/>
	<path class="st1" d="M116.5,141.3c-2.6,0-4.7-0.7-6.2-2.2c-1.5-1.4-2.2-3.5-2.2-6.2c0-2.7,0.7-4.8,2-6.3c1.4-1.5,3.3-2.2,5.7-2.2
		c2.3,0,4.1,0.7,5.4,2c1.3,1.3,1.9,3.1,1.9,5.4v2.2h-10.5c0,1.3,0.4,2.3,1.1,3c0.7,0.7,1.7,1.1,2.9,1.1c1,0,1.9-0.1,2.8-0.3
		c0.9-0.2,1.8-0.5,2.7-1v3.4c-0.8,0.4-1.6,0.7-2.5,0.9C118.9,141.2,117.8,141.3,116.5,141.3z M115.9,127.6c-0.9,0-1.7,0.3-2.2,0.9
		c-0.5,0.6-0.8,1.4-0.9,2.5h6.2c0-1.1-0.3-1.9-0.9-2.5C117.6,127.9,116.8,127.6,115.9,127.6z"/>
	<path class="st1" d="M141.8,141.1h-4.4v-9.5c0-1.2-0.2-2.1-0.6-2.6c-0.4-0.6-1.1-0.9-2-0.9c-1.2,0-2.1,0.4-2.7,1.2
		c-0.6,0.8-0.8,2.2-0.8,4.1v7.7h-4.4v-16.3h3.4l0.6,2.1h0.2c0.5-0.8,1.2-1.4,2-1.8c0.9-0.4,1.9-0.6,3-0.6c1.9,0,3.3,0.5,4.3,1.5
		c1,1,1.5,2.5,1.5,4.4V141.1z"/>
	<path d="M156.5,141.1l-7.9-19.7h-0.1c0.1,1.2,0.1,2.4,0.1,3.7v16h-1.4v-21.3h2.3l7.6,18.7h0.1l7.6-18.7h2.2v21.3h-1.5v-16.2
		c0-1.1,0.1-2.3,0.2-3.5h-0.1l-8,19.7H156.5z"/>
	<path d="M182.1,141.1l-0.4-2.5h-0.1c-0.8,1-1.6,1.7-2.5,2.2c-0.8,0.4-1.8,0.6-3,0.6c-1.6,0-2.8-0.4-3.6-1.2
		c-0.9-0.8-1.3-1.9-1.3-3.3c0-1.5,0.6-2.7,1.9-3.6c1.3-0.9,3.2-1.3,5.6-1.4l3-0.1v-1c0-1.5-0.3-2.6-0.9-3.4c-0.6-0.8-1.6-1.2-3-1.2
		c-1.5,0-3,0.4-4.6,1.2l-0.5-1.3c1.7-0.8,3.5-1.2,5.2-1.2c1.7,0,3,0.5,3.9,1.4c0.9,0.9,1.3,2.3,1.3,4.2v10.5H182.1z M176.3,140
		c1.7,0,3-0.5,4-1.5c1-1,1.5-2.3,1.5-4V133l-2.8,0.1c-2.2,0.1-3.8,0.5-4.8,1c-0.9,0.6-1.4,1.5-1.4,2.7c0,1,0.3,1.8,0.9,2.3
		C174.3,139.8,175.2,140,176.3,140z"/>
	<path d="M200.7,125.2v1l-3.3,0.2c0.9,1.1,1.3,2.3,1.3,3.6c0,1.5-0.5,2.8-1.5,3.7c-1,0.9-2.4,1.4-4.1,1.4c-0.7,0-1.2,0-1.5-0.1
		c-0.6,0.3-1,0.7-1.3,1.1s-0.5,0.8-0.5,1.3c0,0.5,0.2,0.9,0.6,1.1c0.4,0.2,1,0.3,1.9,0.3h2.8c1.7,0,3,0.3,4,1
		c0.9,0.7,1.4,1.7,1.4,3.1c0,1.7-0.7,3-2,3.9c-1.4,0.9-3.3,1.4-5.8,1.4c-2,0-3.5-0.4-4.6-1.2c-1.1-0.8-1.6-1.8-1.6-3.2
		c0-1.1,0.3-2,1-2.7c0.7-0.7,1.6-1.2,2.7-1.5c-0.5-0.2-0.9-0.5-1.1-0.9c-0.3-0.4-0.4-0.8-0.4-1.3c0-1.1,0.7-2,2-2.8
		c-0.9-0.4-1.6-1-2.2-1.8c-0.5-0.8-0.8-1.7-0.8-2.8c0-1.6,0.5-2.9,1.5-3.8c1-1,2.4-1.4,4.1-1.4c1,0,1.8,0.1,2.4,0.3H200.7z
		 M187.8,143.7c0,2.2,1.6,3.3,4.9,3.3c4.2,0,6.2-1.3,6.2-4c0-1-0.3-1.6-1-2.1c-0.7-0.4-1.7-0.6-3.2-0.6h-2.6
		C189.3,140.3,187.8,141.5,187.8,143.7z M189.1,130.1c0,1.2,0.4,2.2,1.1,2.9c0.7,0.7,1.7,1,3,1c1.3,0,2.3-0.3,3-1
		c0.7-0.7,1.1-1.6,1.1-2.9c0-1.4-0.4-2.4-1.1-3c-0.7-0.7-1.7-1-3-1c-1.3,0-2.3,0.4-3,1.1C189.4,127.8,189.1,128.9,189.1,130.1z"/>
	<path d="M215,141.1v-10.3c0-1.6-0.3-2.8-1-3.5c-0.7-0.7-1.7-1.1-3.1-1.1c-1.9,0-3.3,0.5-4.2,1.4c-0.9,1-1.3,2.5-1.3,4.7v8.7h-1.4
		v-15.8h1.2l0.3,2.2h0.1c1-1.7,2.9-2.5,5.5-2.5c3.6,0,5.4,1.9,5.4,5.8v10.4H215z"/>
	<path d="M227.9,141.3c-2.3,0-4.1-0.7-5.4-2.1c-1.3-1.4-1.9-3.4-1.9-6c0-2.5,0.6-4.6,1.9-6.1c1.2-1.5,2.9-2.3,5-2.3
		c1.9,0,3.3,0.7,4.4,2c1.1,1.3,1.6,3.1,1.6,5.3v1.2h-11.4c0,2.2,0.5,3.8,1.5,5c1,1.1,2.4,1.7,4.3,1.7c0.9,0,1.7-0.1,2.4-0.2
		c0.7-0.1,1.6-0.4,2.6-0.8v1.3c-0.9,0.4-1.7,0.7-2.5,0.8C229.7,141.3,228.9,141.3,227.9,141.3z M227.5,126.2c-1.5,0-2.8,0.5-3.7,1.5
		s-1.5,2.5-1.6,4.4h9.8c0-1.8-0.4-3.3-1.2-4.3C230,126.7,228.9,126.2,227.5,126.2z"/>
	<path d="M244.2,124.9c0.7,0,1.4,0.1,2.2,0.2l-0.3,1.4c-0.7-0.2-1.3-0.2-2.1-0.2c-1.4,0-2.5,0.6-3.3,1.7c-0.9,1.1-1.3,2.6-1.3,4.3
		v8.7h-1.4v-15.8h1.2l0.1,2.9h0.1c0.7-1.2,1.3-2,2.1-2.5C242.2,125.1,243.1,124.9,244.2,124.9z"/>
</g>
</svg>
