<?xml version="1.0" encoding="utf-8"?>
<!-- Generator: Adobe Illustrator 23.0.3, SVG Export Plug-In . SVG Version: 6.00 Build 0)  -->
<svg version="1.1" id="Capa_1" xmlns="http://www.w3.org/2000/svg" xmlns:xlink="http://www.w3.org/1999/xlink" x="0px" y="0px"
	 viewBox="0 0 50 50" style="enable-background:new 0 0 50 50;" xml:space="preserve">
<style type="text/css">
	.st0{fill:#FFFFFF;}
</style>
<g>
	<g>
		<path class="st0" d="M43.4,12.1H6.6c-0.9,0-1.7,0.7-1.7,1.7v22.5c0,0.9,0.7,1.7,1.7,1.7h36.8c0.9,0,1.7-0.7,1.7-1.7V13.7
			C45.1,12.8,44.3,12.1,43.4,12.1z M6.6,13.4h36.8c0.2,0,0.3,0.1,0.3,0.3L25,25.4L6.2,13.6C6.3,13.5,6.4,13.4,6.6,13.4z M6.2,15.1
			l13.5,8.4L6.2,34.2V15.1z M43.8,36.3c0,0.2-0.2,0.4-0.4,0.4H6.6c-0.2,0-0.4-0.2-0.4-0.4v-0.3l14.7-11.6l3.8,2.4
			c0.2,0.1,0.5,0.1,0.7,0l3.8-2.4l14.7,11.6V36.3z M43.8,34.2L30.2,23.6l13.5-8.4V34.2z"/>
	</g>
</g>
</svg>
