<?xml version="1.0" encoding="utf-8"?>
<!-- Generator: Adobe Illustrator 23.0.3, SVG Export Plug-In . SVG Version: 6.00 Build 0)  -->
<svg version="1.1" id="Layer_1" xmlns="http://www.w3.org/2000/svg" xmlns:xlink="http://www.w3.org/1999/xlink" x="0px" y="0px"
	 viewBox="0 0 50 50" style="enable-background:new 0 0 50 50;" xml:space="preserve">
<g>
	<path d="M40.9,9c-3.4,0-6.2,2.8-6.2,6.2s2.8,6.2,6.2,6.2c3.4,0,6.2-2.8,6.2-6.2S44.3,9,40.9,9L40.9,9z M40.9,18.8
		c-2,0-3.6-1.6-3.6-3.6c0-2,1.6-3.6,3.6-3.6c2,0,3.6,1.6,3.6,3.6C44.5,17.2,42.9,18.8,40.9,18.8z"/>
	<path d="M4.5,17.3c0.3,0.3,0.6,0.4,0.9,0.4s0.7-0.1,0.9-0.4L9.7,14l3.4,3.4c0.3,0.3,0.6,0.4,0.9,0.4c0.3,0,0.7-0.1,0.9-0.4
		c0.5-0.5,0.5-1.3,0-1.8l-3.4-3.4l3.4-3.4c0.5-0.5,0.5-1.3,0-1.8s-1.3-0.5-1.8,0l-3.4,3.3L6.4,6.9C5.8,6.4,5,6.4,4.5,6.9
		S4,8.3,4.5,8.8l3.4,3.4l-3.4,3.4C4,16,4,16.8,4.5,17.3z"/>
	<path d="M32,32.6c-0.5-0.5-1.3-0.5-1.8,0L26.8,36l-3.4-3.4c-0.5-0.5-1.3-0.5-1.8,0c-0.5,0.5-0.5,1.3,0,1.8l3.4,3.4l-3.4,3.4
		c-0.5,0.5-0.5,1.3,0,1.8c0.3,0.3,0.6,0.4,0.9,0.4c0.3,0,0.7-0.1,0.9-0.4l3.4-3.4l3.4,3.4c0.3,0.3,0.6,0.4,0.9,0.4
		c0.3,0,0.7-0.1,0.9-0.4c0.5-0.5,0.5-1.3,0-1.8l-3.4-3.4l3.4-3.4C32.5,33.9,32.5,33.1,32,32.6L32,32.6z"/>
	<path d="M32.1,14.5l-5.2-4.5c-0.5-0.5-1.4-0.4-1.8,0.1c-0.5,0.5-0.4,1.4,0.1,1.8l2.8,2.4c-8.2,1.1-13,5.3-15.7,9
		c-2.3,3.2-3.5,6.3-3.9,7.8c-3.1,0.3-5.5,3-5.5,6.1c0,3.4,2.8,6.2,6.2,6.2s6.2-2.8,6.2-6.2c0-2.8-1.8-5.1-4.3-5.9
		c0.5-1.5,1.5-4,3.4-6.6c3.4-4.5,8-7.1,13.9-7.9l-2.6,3c-0.5,0.5-0.4,1.4,0.1,1.8c0.2,0.2,0.6,0.3,0.8,0.3c0.4,0,0.7-0.1,1-0.4
		l4.5-5.2C32.7,15.8,32.7,14.9,32.1,14.5L32.1,14.5z M12.7,37.2c0,2-1.6,3.6-3.6,3.6c-2,0-3.6-1.6-3.6-3.6s1.6-3.6,3.6-3.6
		S12.7,35.2,12.7,37.2z"/>
</g>
</svg>
