<?xml version="1.0" encoding="utf-8"?>
<!-- Generator: Adobe Illustrator 23.0.3, SVG Export Plug-In . SVG Version: 6.00 Build 0)  -->
<svg version="1.1" id="Layer_1" xmlns="http://www.w3.org/2000/svg" xmlns:xlink="http://www.w3.org/1999/xlink" x="0px" y="0px"
	 viewBox="0 0 50 50" style="enable-background:new 0 0 50 50;" xml:space="preserve">
<g>
	<g>
		<path d="M16.8,18.9c-0.6,0.5-0.9,1.2-0.9,2v2.3c0,0.5,0.4,0.9,0.9,0.9s0.9-0.4,0.9-0.9v-2.3c0-0.2,0.1-0.4,0.3-0.5
			c2-1.7,4.2-2.8,4.6-3c0.4-0.2,0.6-0.6,0.6-1v-3.3c0-0.3-0.2-0.6-0.4-0.8c-0.2-0.1-0.3-0.3-0.3-0.5V8.5c0-1.2,0.9-2.1,2.1-2.1h0.7
			c1.2,0,2.1,0.9,2.1,2.1v3.4c0,0.2-0.1,0.4-0.3,0.5c-0.3,0.2-0.4,0.5-0.4,0.8v3.3c0,0.4,0.2,0.8,0.6,1c0.4,0.2,2.6,1.3,4.6,3
			c0.2,0.1,0.3,0.3,0.3,0.5v2.3c0,0.5,0.4,0.9,0.9,0.9s0.9-0.4,0.9-0.9v-2.3c0-0.8-0.3-1.5-0.9-2c-1.8-1.5-3.7-2.5-4.6-3v-2.4
			c0.4-0.5,0.7-1.1,0.7-1.7V8.5c0-2.2-1.8-4-4-4h-0.7c-2.2,0-4,1.8-4,4v3.4c0,0.6,0.2,1.2,0.7,1.7v2.3
			C20.4,16.4,18.6,17.4,16.8,18.9z"/>
		<path d="M47.2,45.5c0.5,0,0.9-0.4,0.9-0.9v-2.3c0-0.8-0.3-1.5-0.9-2c-1.8-1.5-3.7-2.5-4.6-3v-2.4c0.4-0.5,0.7-1.1,0.7-1.7v-3.4
			c0-2.2-1.8-4-4-4h-0.7c-2.2,0-4,1.8-4,4v3.4c0,0.6,0.2,1.2,0.7,1.7v2.4c-0.9,0.5-2.8,1.5-4.6,3c-0.6,0.5-0.9,1.2-0.9,2v2.3
			c0,0.5,0.4,0.9,0.9,0.9s0.9-0.4,0.9-0.9v-2.3c0-0.2,0.1-0.4,0.3-0.5c2-1.7,4.2-2.8,4.6-3c0.4-0.2,0.6-0.6,0.6-1v-3.3
			c0-0.3-0.2-0.6-0.4-0.8c-0.2-0.1-0.3-0.3-0.3-0.5v-3.4c0-1.2,0.9-2.1,2.1-2.1h0.7c1.2,0,2.1,0.9,2.1,2.1v3.4
			c0,0.2-0.1,0.4-0.3,0.5c-0.3,0.2-0.4,0.5-0.4,0.8v3.3c0,0.4,0.2,0.8,0.6,1c0.4,0.2,2.6,1.3,4.6,3c0.2,0.1,0.3,0.3,0.3,0.5v2.3
			C46.3,45.1,46.7,45.5,47.2,45.5z"/>
		<path d="M19.2,40.2c-1.8-1.5-3.7-2.5-4.6-3v-2.4c0.4-0.5,0.7-1.1,0.7-1.7v-3.4c0-2.2-1.8-4-4-4h-0.7c-2.2,0-4,1.8-4,4v3.4
			c0,0.6,0.2,1.2,0.7,1.7v2.4c-0.9,0.5-2.8,1.5-4.6,3c-0.6,0.5-0.9,1.2-0.9,2v2.3c0,0.5,0.4,0.9,0.9,0.9s0.9-0.4,0.9-0.9v-2.3
			c0-0.2,0.1-0.4,0.3-0.5c2-1.7,4.2-2.8,4.6-3c0.4-0.2,0.6-0.6,0.6-1v-3.3c0-0.3-0.2-0.6-0.4-0.8c-0.2-0.1-0.3-0.3-0.3-0.5v-3.4
			c0-1.2,0.9-2.1,2.1-2.1h0.7c1.2,0,2.1,0.9,2.1,2.1v3.4c0,0.2-0.1,0.4-0.3,0.5c-0.3,0.2-0.4,0.5-0.4,0.8v3.3c0,0.4,0.2,0.8,0.6,1
			c0.4,0.2,2.6,1.3,4.6,3c0.2,0.1,0.3,0.3,0.3,0.5v2.3c0,0.5,0.4,0.9,0.9,0.9c0.5,0,0.9-0.4,0.9-0.9v-2.3
			C20.1,41.5,19.8,40.7,19.2,40.2z"/>
		<path d="M30.3,34.7c0.2,0.1,0.3,0.1,0.5,0.1c0.3,0,0.6-0.2,0.8-0.5c0.3-0.4,0.1-1-0.3-1.3L26,30V24c0-0.5-0.4-0.9-0.9-0.9
			c-0.5,0-0.9,0.4-0.9,0.9V30l-5.2,3c-0.4,0.3-0.6,0.8-0.3,1.3c0.2,0.3,0.5,0.5,0.8,0.5c0.2,0,0.3,0,0.5-0.1l5.2-3L30.3,34.7z"/>
	</g>
</g>
</svg>
