<?xml version="1.0" encoding="utf-8"?>
<!-- Generator: Adobe Illustrator 23.0.3, SVG Export Plug-In . SVG Version: 6.00 Build 0)  -->
<svg version="1.1" id="Capa_1" xmlns="http://www.w3.org/2000/svg" xmlns:xlink="http://www.w3.org/1999/xlink" x="0px" y="0px"
	 viewBox="0 0 50 50" style="enable-background:new 0 0 50 50;" xml:space="preserve">
<g>
	<g>
		<path d="M9.8,19.8H7.6c-0.4,0-0.7,0.3-0.7,0.7s0.3,0.7,0.7,0.7h2.2c0.4,0,0.7-0.3,0.7-0.7S10.2,19.8,9.8,19.8z"/>
	</g>
</g>
<g>
	<g>
		<path d="M42.4,19.8h-2.2c-0.4,0-0.7,0.3-0.7,0.7s0.3,0.7,0.7,0.7h2.2c0.4,0,0.7-0.3,0.7-0.7S42.7,19.8,42.4,19.8z"/>
	</g>
</g>
<g>
	<g>
		<path d="M14.7,30.8c-0.3-0.3-0.7-0.3-0.9,0l-1.5,1.5c-0.3,0.3-0.3,0.7,0,0.9c0.3,0.3,0.7,0.3,0.9,0l1.5-1.5
			C15,31.4,15,31,14.7,30.8z"/>
	</g>
</g>
<g>
	<g>
		<path d="M37.7,7.7c-0.3-0.3-0.7-0.3-0.9,0l-1.5,1.5c-0.3,0.3-0.3,0.7,0,0.9c0.3,0.3,0.7,0.3,0.9,0l1.5-1.5C38,8.4,38,8,37.7,7.7z"
			/>
	</g>
</g>
<g>
	<g>
		<path d="M25,2.5c-0.4,0-0.7,0.3-0.7,0.7v2.2C24.3,5.7,24.6,6,25,6c0.4,0,0.7-0.3,0.7-0.7V3.1C25.7,2.8,25.4,2.5,25,2.5z"/>
	</g>
</g>
<g>
	<g>
		<path d="M37.7,32.3l-1.5-1.5c-0.3-0.3-0.7-0.3-0.9,0c-0.3,0.3-0.3,0.7,0,0.9l1.5,1.5c0.3,0.3,0.7,0.3,0.9,0
			C38,33,38,32.6,37.7,32.3z"/>
	</g>
</g>
<g>
	<g>
		<path d="M14.7,9.3l-1.5-1.5c-0.3-0.3-0.7-0.3-0.9,0s-0.3,0.7,0,0.9l1.5,1.5c0.3,0.3,0.7,0.3,0.9,0C15,10,15,9.6,14.7,9.3z"/>
	</g>
</g>
<g>
	<g>
		<path d="M38.2,18.9C37.5,12.8,32.7,8,26.6,7.3c-0.4,0-0.7,0.2-0.7,0.6c0,0.4,0.2,0.7,0.6,0.7c5.5,0.7,9.8,5,10.4,10.4
			c0,0.3,0.3,0.6,0.7,0.6c0,0,0.1,0,0.1,0C38,19.6,38.2,19.2,38.2,18.9z"/>
	</g>
</g>
<g>
	<g>
		<path d="M37.6,21.4c-0.4,0-0.7,0.2-0.7,0.6c-0.5,3.6-2.5,6.7-5.5,8.6c-1.3,0.8-2.1,2.2-2.1,3.8v2.7h-8.5v-2.8c0-1.5-0.8-2.9-2-3.7
			c-3.5-2.2-5.7-6-5.7-10.2c0-6,4.5-11.1,10.5-11.9c0.4,0,0.6-0.4,0.6-0.7c0-0.4-0.4-0.6-0.7-0.6c-6.6,0.8-11.6,6.5-11.6,13.2
			c0,2.3,0.6,4.6,1.7,6.6c1.1,1.9,2.7,3.6,4.6,4.7c0.9,0.5,1.4,1.5,1.4,2.6v2.9c-0.7,0.2-1.2,0.9-1.2,1.6v0.9c0,0.4,0.1,0.8,0.4,1.1
			c-0.2,0.3-0.4,0.7-0.4,1.1v0.9c0,0.9,0.8,1.7,1.7,1.7h2.1V46c0,0.9,0.7,1.6,1.6,1.6h2.7c0.9,0,1.6-0.7,1.6-1.6v-1.5H30
			c0.9,0,1.7-0.8,1.7-1.7v-0.9c0-0.4-0.1-0.8-0.4-1.1c0.2-0.3,0.4-0.7,0.4-1.1v-0.9c0-0.7-0.5-1.4-1.2-1.6v-2.8
			c0-1.1,0.6-2.1,1.5-2.7c3.4-2.1,5.6-5.6,6.1-9.6C38.2,21.8,37.9,21.4,37.6,21.4z M26.6,46c0,0.1-0.1,0.2-0.2,0.2h-2.7
			c-0.1,0-0.2-0.1-0.2-0.2v-1.5h3.2V46z M30.4,42.8c0,0.2-0.2,0.4-0.4,0.4c-1.2,0-8.9,0-10,0c-0.2,0-0.4-0.2-0.4-0.4v-0.9
			c0-0.2,0.2-0.4,0.4-0.4h10c0.2,0,0.4,0.2,0.4,0.4V42.8z M30.4,39.7c0,0.2-0.2,0.4-0.4,0.4H20c-0.2,0-0.4-0.2-0.4-0.4v-0.9
			c0-0.2,0.2-0.4,0.4-0.4h10c0.2,0,0.4,0.2,0.4,0.4L30.4,39.7L30.4,39.7z"/>
	</g>
</g>
<g>
	<path d="M28.3,22.6c0,0.7-0.3,1.3-0.8,1.7c-0.5,0.5-1.3,0.7-2.2,0.8v1.6h-1v-1.5c-1.2,0-2.2-0.2-2.9-0.6v-1.5
		c0.4,0.2,0.9,0.4,1.5,0.5c0.6,0.1,1.1,0.2,1.5,0.2v-2.7L23.7,21c-0.8-0.3-1.4-0.7-1.7-1.1c-0.4-0.4-0.5-0.9-0.5-1.6
		c0-0.7,0.3-1.2,0.8-1.6c0.5-0.4,1.2-0.7,2.1-0.8v-1.2h1v1.2c1,0,1.9,0.2,2.8,0.6l-0.5,1.3c-0.8-0.3-1.5-0.5-2.3-0.5v2.6l0.6,0.2
		c0.9,0.4,1.6,0.7,1.9,1.1C28.1,21.6,28.3,22.1,28.3,22.6z M23.2,18.3c0,0.3,0.1,0.5,0.3,0.7c0.2,0.2,0.5,0.4,0.9,0.5v-2.3
		c-0.4,0.1-0.7,0.2-0.9,0.4C23.3,17.8,23.2,18,23.2,18.3z M26.6,22.7c0-0.3-0.1-0.5-0.3-0.7c-0.2-0.2-0.5-0.4-1-0.5v2.3
		C26.2,23.7,26.6,23.3,26.6,22.7z"/>
</g>
</svg>
