<?xml version="1.0" encoding="utf-8"?>
<!-- Generator: Adobe Illustrator 23.0.3, SVG Export Plug-In . SVG Version: 6.00 Build 0)  -->
<svg version="1.1" id="Capa_1" xmlns="http://www.w3.org/2000/svg" xmlns:xlink="http://www.w3.org/1999/xlink" x="0px" y="0px"
	 viewBox="0 0 50 50" style="enable-background:new 0 0 50 50;" xml:space="preserve">
<g>
	<path d="M7,28.6c0.4,1.5,1.5,2.8,3,3.4c0.1,0,0.2,0.1,0.3,0.1c0.1,0,0.2,0,0.3-0.1c1.5-0.6,2.6-1.9,3-3.4c0.4,0.2,0.8,0.4,1.2,0.7
		c0.3,0.2,0.7,0.2,0.9,0c0.2-0.3,0.2-0.7,0-0.9c-0.7-0.6-1.5-1.1-2.4-1.3c0,0,0,0,0,0c0,0,0,0,0,0c-0.1,0-0.1,0-0.2,0c0,0,0,0-0.1,0
		c-0.1,0-0.1,0-0.2,0c0,0,0,0-0.1,0c-0.1,0-0.1,0-0.2,0c0,0,0,0-0.1,0c-0.1,0-0.2,0-0.3,0c0,0,0,0,0,0l0,0H8.5c-0.3,0-0.5,0-0.8,0.1
		c0,0,0,0,0,0c-0.1,0-0.2,0-0.2,0c0,0,0,0,0,0c0,0,0,0,0,0c-2.3,0.5-4.1,2.6-4.1,5.1v4.4c0,0.6,0.5,1,1,1h8.8c0.4,0,0.7-0.3,0.7-0.7
		s-0.3-0.7-0.7-0.7H4.6v-4.1C4.6,30.6,5.6,29.2,7,28.6z M12.1,28.3c0,0,0.1,0,0.1,0c-0.3,1-1,1.9-2,2.4c-0.9-0.5-1.6-1.4-2-2.4
		c0,0,0.1,0,0.1,0H12.1z"/>
	<path d="M6.8,13.9c1-0.8,2.2-1.2,3.4-1.2c1.4,0,2.7,0.5,3.7,1.4c0.1,0.1,0.3,0.2,0.4,0.2c0.2,0,0.4-0.1,0.5-0.2
		c0.2-0.3,0.2-0.7-0.1-0.9c-1.3-1.1-2.9-1.7-4.6-1.7c-1.5,0-3.1,0.5-4.3,1.5c-0.3,0.2-0.3,0.6-0.1,0.9C6.1,14.1,6.6,14.1,6.8,13.9z"
		/>
	<path d="M10.3,26.1c0.9,0,1.7-0.2,2.5-0.6H15c0.4,0,0.7-0.3,0.7-0.7s-0.3-0.7-0.7-0.7h-0.6c0.7-0.9,1.2-2,1.2-3.3v-1
		c0-0.4-0.3-0.7-0.7-0.7h-5c-0.3,0-0.7-0.1-1-0.3c-0.3-0.2-0.5-0.5-0.6-0.8c-0.3-0.8-1.1-1.4-2-1.4H5.7c-0.3,0-0.6,0.3-0.7,0.6
		c0,0.2,0,0.4,0,0.6v3c0,1.2,0.4,2.4,1.2,3.3h-2c0.3-0.8,0.5-1.8,0.5-2.6v-3.4c0-0.9,0.2-1.7,0.6-2.5c0.2-0.3,0-0.7-0.3-0.9
		c-0.3-0.2-0.7,0-0.9,0.3c-0.5,1-0.7,2-0.7,3.1v3.4c0,1.1-0.5,2.4-0.8,2.8c-0.2,0.2-0.3,0.5-0.2,0.7c0.1,0.2,0.3,0.4,0.6,0.4h4.7
		C8.5,25.9,9.4,26.1,10.3,26.1z M6.4,18.1c0.3,0,0.6,0.2,0.7,0.5c0.2,0.6,0.6,1.1,1.1,1.4c0.5,0.4,1.1,0.5,1.7,0.5h4.3v0.3
		c0,2.2-1.8,3.9-3.9,3.9S6.4,23,6.4,20.8C6.4,20.8,6.4,18.1,6.4,18.1z"/>
	<path d="M43,27.1C43,27.1,43,27.1,43,27.1C42.9,27.1,42.9,27.1,43,27.1c-0.1,0-0.2,0-0.3,0c0,0,0,0,0,0c-0.3,0-0.5-0.1-0.8-0.1
		h-3.6c-0.1,0-0.2,0-0.3,0c0,0,0,0,0,0c-1.3,0.1-2.5,0.6-3.4,1.5c-0.3,0.3-0.3,0.7,0,0.9c0.3,0.3,0.7,0.3,0.9,0
		c0.4-0.4,0.8-0.7,1.3-0.9c0.4,1.5,1.5,2.8,3,3.4c0.1,0,0.2,0.1,0.3,0.1c0.1,0,0.2,0,0.3-0.1c1.5-0.6,2.6-1.9,3-3.4
		c1.4,0.6,2.4,2,2.4,3.6v4.1h-8.8c-0.4,0-0.7,0.3-0.7,0.7s0.3,0.7,0.7,0.7H46c0.6,0,1-0.5,1-1v-4.4C47.1,29.7,45.3,27.6,43,27.1z
		 M40.1,30.7c-0.9-0.5-1.6-1.4-2-2.4c0,0,0.1,0,0.1,0h3.6c0,0,0.1,0,0.1,0C41.7,29.3,41,30.2,40.1,30.7z"/>
	<path d="M40.1,26.1c1.3,0,2.6-0.5,3.5-1.3c0.3,0.1,0.7,0.2,1.1,0.2c1.6,0,2.9-1.3,2.9-2.9c0-1.4-1-2.6-2.3-2.9v-1.3
		c0-0.8-0.2-1.5-0.5-2.1C44,14.1,42.3,13,40.4,13h-0.7c-2.7,0-4.9,2.2-4.9,4.9v0V19v1.8C34.8,23.7,37.2,26.1,40.1,26.1z M46.2,22
		c0,0.9-0.7,1.6-1.6,1.6c0,0-0.1,0-0.1,0c0.5-0.8,0.8-1.7,0.8-2.7c0,0,0,0,0,0v-0.3C45.9,20.8,46.2,21.3,46.2,22z M39.7,14.3h0.7
		c1.5,0,2.8,0.9,3.3,2.2c0.2,0.4,0.3,0.9,0.3,1.4v1.9c0,0,0,0,0,0s0,0,0,0v0.4c-5.2-0.7-5.8-3.4-5.8-3.5c0-0.3-0.3-0.6-0.7-0.6
		c0,0,0,0,0,0c-0.3,0-0.6,0.3-0.6,0.7v1.6h-0.7v-0.5C36.1,15.9,37.7,14.3,39.7,14.3z M36.1,19.7h1.4c0.3,0,0.6-0.3,0.7-0.6
		c1,1,2.7,2,5.7,2.4c-0.3,1.9-1.9,3.3-3.9,3.3c-2.2,0-3.9-1.8-3.9-3.9L36.1,19.7L36.1,19.7z"/>
	<path d="M33.9,18.3c0.1-0.7,0.2-1.3,0.2-2c0-1.3-0.3-2.6-0.8-3.8c-0.2-0.3-0.5-0.5-0.9-0.3c-0.3,0.2-0.5,0.5-0.3,0.9
		c0.5,1,0.7,2.1,0.7,3.2c0,0.6-0.1,1.1-0.2,1.7c0,0,0,0,0,0c-1.2,5.8-1.5,7.5-0.5,11.6c-0.4-0.3-0.9-0.6-1.4-0.9c0,0,0,0,0,0
		c-0.1,0-0.1-0.1-0.2-0.1c0,0,0,0,0,0c-0.4-0.2-0.9-0.3-1.3-0.4c0,0,0,0,0,0c-0.1,0-0.2,0-0.4-0.1c0,0,0,0,0,0c-0.1,0-0.2,0-0.4,0
		c0,0,0,0,0,0c-0.1,0-0.2,0-0.4,0c0,0,0,0,0,0c-0.1,0-0.2,0-0.4,0h0h-5.2h0c-0.1,0-0.2,0-0.4,0c0,0,0,0,0,0c-0.1,0-0.2,0-0.4,0
		c0,0,0,0,0,0c-0.1,0-0.2,0-0.4,0c0,0,0,0,0,0c-0.6,0.1-1.1,0.2-1.7,0.5c0,0,0,0,0,0c-0.1,0-0.1,0.1-0.2,0.1c0,0,0,0,0,0
		c-0.5,0.2-1,0.5-1.4,0.9c1-4.1,0.7-5.8-0.5-11.6c0,0,0,0,0,0c-0.1-0.6-0.2-1.1-0.2-1.7c0-4.3,3.5-7.8,7.8-7.8
		c2.2,0,4.2,0.9,5.7,2.5c0.2,0.3,0.7,0.3,0.9,0c0.3-0.2,0.3-0.7,0-0.9C30,8.2,27.5,7.2,25,7.2c-5,0-9.1,4.1-9.1,9.1
		c0,0.7,0.1,1.3,0.2,2c1.3,6.5,1.5,7.4-0.2,13.7c-0.5,1-0.8,2.1-0.8,3.3v6c0,0.9,0.7,1.5,1.5,1.5h16.7c0.9,0,1.5-0.7,1.5-1.5v-6
		c0-1.2-0.3-2.3-0.8-3.3C32.4,25.7,32.6,24.8,33.9,18.3z M20.5,29.7C20.6,29.7,20.6,29.7,20.5,29.7C20.6,29.7,20.6,29.6,20.5,29.7
		c0.2-0.1,0.2-0.1,0.3-0.1c0,0,0,0,0,0c0.1,0,0.2,0,0.3-0.1c0,0,0,0,0,0c0.2,0,0.4-0.1,0.6-0.1c0,0,0,0,0.1,0c0,0,0,0,0,0
		c0.2,0.9,0.7,1.6,1.5,2.1l-0.4,2.4L20.5,29.7z M23.9,35.8l0.8-4.5c0.1-0.3-0.1-0.6-0.4-0.7c-0.5-0.2-0.9-0.6-1.1-1.1h3.7
		c-0.2,0.5-0.6,0.9-1.1,1.1c-0.3,0.1-0.5,0.4-0.4,0.7l0.8,4.5L25,37.8L23.9,35.8z M27.1,33.9l-0.4-2.4c0.8-0.5,1.3-1.2,1.5-2.1
		c0,0,0,0,0,0c0,0,0,0,0.1,0c0.2,0,0.4,0,0.6,0.1c0,0,0,0,0,0c0.1,0,0.2,0,0.3,0.1c0,0,0,0,0,0c0.1,0,0.2,0,0.2,0.1c0,0,0,0,0,0
		c0,0,0,0,0,0L27.1,33.9z M33.6,41.3c0,0.1-0.1,0.2-0.2,0.2H16.7c-0.1,0-0.2-0.1-0.2-0.2v-6c0-2.2,1.2-4,2.9-5.1l5.1,9.3
		c0.1,0.2,0.3,0.3,0.6,0.3c0.2,0,0.5-0.1,0.6-0.3l5.1-9.3c1.7,1,2.9,2.9,2.9,5.1V41.3z"/>
	<path d="M31.3,20c-2.5-0.7-4.9-1.9-6.8-3.5c-1.6-1.4-2.9-3.1-3.6-4.7c-0.1-0.2-0.3-0.4-0.5-0.4c-0.2,0-0.4,0-0.6,0.2
		c-1.1,1.2-1.7,2.7-1.7,4.3v4c0,3.8,3.1,6.9,6.9,6.9c3.5,0,6.4-2.6,6.8-6.1C31.8,20.4,31.6,20.1,31.3,20z M25,25.5
		c-3.1,0-5.5-2.5-5.5-5.5v-4c0-0.9,0.3-1.8,0.7-2.6c1.6,3,5,6.3,10.2,7.8C29.9,23.7,27.6,25.5,25,25.5z"/>
</g>
</svg>
