<?xml version="1.0" encoding="utf-8"?>
<!-- Generator: Adobe Illustrator 23.0.3, SVG Export Plug-In . SVG Version: 6.00 Build 0)  -->
<svg version="1.1" id="Capa_1" xmlns="http://www.w3.org/2000/svg" xmlns:xlink="http://www.w3.org/1999/xlink" x="0px" y="0px"
	 viewBox="0 0 50 50" style="enable-background:new 0 0 50 50;" xml:space="preserve">
<g>
	<g>
		<g>
			<path d="M19.8,24.6l1.3-1.3L14,16.1l2.4-2.5c0.4-0.4,0.4-0.9,0-1.3c-1.3-1.4-1.3-3.6,0-4.9c1.3-1.3,3.4-1.3,4.7,0
				c0.4,0.4,1,0.4,1.3,0c0,0,0,0,0,0l2.4-2.4l1.8,1.9c-1.4,2.1-1.2,5,0.6,6.8c1.8,1.8,4.6,2.1,6.7,0.6l1.8,1.8L28,23.6l1.3,1.3
				l8.4-8.3c0.4-0.4,0.4-1,0-1.3l-3-3.1c-0.4-0.4-1-0.4-1.3,0c0,0,0,0,0,0c-1.3,1.3-3.4,1.3-4.7,0c-1.3-1.4-1.3-3.6,0-4.9
				C29,7,29,6.4,28.6,6l-3.1-3.1c-0.4-0.4-1-0.4-1.3,0c0,0,0,0,0,0l-2.4,2.5c-2.1-1.5-4.9-1.2-6.7,0.6c-1.8,1.9-2,4.7-0.6,6.8
				L12,15.4c-0.4,0.4-0.4,0.9,0,1.3L19.8,24.6z"/>
			<path d="M47.3,23.3c-0.3-1.2-1.1-2.1-2.2-2.5l-0.2-0.1c-1.3-0.4-2.7,0-3.6,0.9L28.7,34c-0.3,0.3-0.8,0.5-1.3,0.5h-0.8
				c0.1-0.1,0.3-0.3,0.4-0.4c1.2-1.5,1.8-3.4,1.5-5.3c-0.1-0.5-0.5-0.8-0.9-0.8H8.9c-0.2,0-0.5,0.1-0.7,0.3l-5.6,5.6L4,35.2l5.3-5.3
				h17.4c0,1.1-0.4,2.2-1.1,3.1c-0.9,1.1-2.5,1.6-4.5,1.6c-0.5,0-0.9,0.4-0.9,0.9s0.4,0.9,0.9,0.9h6.4c1,0,1.9-0.4,2.6-1.1L42.5,23
				c0.5-0.5,1.1-0.6,1.8-0.4h0.1c0.5,0.2,1,0.6,1.1,1.2c0.1,0.6,0,1.2-0.5,1.7L30.6,39.6c-0.3,0.3-0.8,0.5-1.3,0.5H16.4
				c-1,0-1.9,0.4-2.6,1.1L8.9,46l1.3,1.3l4.9-4.8c0.3-0.3,0.8-0.5,1.3-0.5h12.9c1,0,1.9-0.4,2.6-1.1l14.3-14.2
				C47.2,25.9,47.5,24.6,47.3,23.3z"/>
		</g>
	</g>
</g>
</svg>
