<?xml version="1.0" encoding="utf-8"?>
<!-- Generator: Adobe Illustrator 15.1.0, SVG Export Plug-In . SVG Version: 6.00 Build 0)  -->
<!DOCTYPE svg PUBLIC "-//W3C//DTD SVG 1.1//EN" "http://www.w3.org/Graphics/SVG/1.1/DTD/svg11.dtd">
<svg version="1.1" id="Isolation_Mode" xmlns="http://www.w3.org/2000/svg" xmlns:xlink="http://www.w3.org/1999/xlink" x="0px"
	 y="0px" width="1000px" height="167.086px" viewBox="0 0 1000 167.086" enable-background="new 0 0 1000 167.086"
	 xml:space="preserve">
<g id="g4585" transform="matrix(0.21760945,0,0,-0.21760945,-730.40318,512.50689)">
	<rect x="5151.896" y="1888.526" fill="none" width="1000.011" height="165.798"/>
	<g id="g3625">
		<g id="g3631" transform="translate(755.0571,42.0247)">
			<path id="path3633" inkscape:connector-curvature="0" fill="#FFFFFF" d="M7188.559,1783.654
				c0-19.952-14.406-34.358-33.927-34.358c-19.44,0-33.927,14.406-33.927,34.358c0,19.948,14.486,34.394,33.927,34.394
				C7174.153,1818.048,7188.559,1803.602,7188.559,1783.654 M7194.532,1783.654c0,22.057-17.843,39.936-39.9,39.936
				c-21.94,0-39.859-17.879-39.859-39.936c0-22.062,17.919-39.9,39.859-39.9C7176.689,1743.754,7194.532,1761.593,7194.532,1783.654
				"/>
		</g>
		<g id="g3635" transform="translate(754.3766,42.2633)">
			<path id="path3637" inkscape:connector-curvature="0" fill="#FFFFFF" d="M7162.672,1792.732c0-5.897-4.882-6.525-9.604-6.525
				h-4.178v13.082h6.166C7160.64,1799.289,7162.672,1796.592,7162.672,1792.732 M7172.586,1763.06l-9.64,13.544
				c-1.719,2.423-2.931,4.061-4.802,5.466c6.947,0.898,10.968,4.685,10.968,10.663c0,6.126-4.295,11.668-12.646,11.668h-13.508
				v-41.341h5.933v18.507c3.24,0,4.488-1.019,6.48-4.021l9.994-14.486H7172.586z"/>
		</g>
	</g>
	<path id="path3721" inkscape:connector-curvature="0" fill="#FFFFFF" d="M4535.962,2137.264l-75.582-176.461h151.825
		L4535.962,2137.264z M4767.155,1785.712h-81.864l-44.74,106.421h-208.552l-45.366-106.421h-79.367l194.068,444.156h71.756
		L4767.155,1785.712z"/>
	<g id="g3723" transform="translate(1702.2941,68.429171)">
		<path id="path3725" inkscape:connector-curvature="0" fill="#FFFFFF" d="M3779.894,1717.265h-78.157v369.205h-139.882v71.834
			h364.167L3896,2086.469h-116.106V1717.265z"/>
	</g>
	<g id="g3727" transform="translate(1740.2972,77.886371)">
		<path id="path3729" inkscape:connector-curvature="0" fill="#FFFFFF" d="M5225.536,2077.021h-236.192v-112.163h151.28v-69.375
			h-151.28v-117.196h236.309v-70.47h-314.309v441.037h314.192V2077.021z"/>
	</g>
	<path id="path3731" inkscape:connector-curvature="0" fill="#FFFFFF" d="M7519.596,1785.676h-73.903v441.033h73.903V1785.676z"/>
	<rect x="5151.896" y="1888.526" fill="none" width="1000.011" height="165.798"/>
	<g id="g3735">
		<g id="g3741" transform="translate(736.1471,50.6673)">
			<path id="path3743" inkscape:connector-curvature="0" fill="#FFFFFF" d="M6469.221,2112.419
				c-45.052,0-83.35-13.625-83.547-43.531c-0.233-35.02,21.747-47.161,104.707-74.137c91.666-30.139,140.348-60.786,139.841-135.353
				c-0.467-84.055-65.431-131.992-160.3-131.992c-67.149,0-127.348,21.783-173.256,62.15l28.578,69.178
				c41.655-34.901,92.132-59.65,146.671-59.884c47.745-0.233,81.712,22.995,81.712,57.389c0,28.771-16.631,47.902-97.091,73.394
				c-92.293,30.256-148.04,61.8-147.573,136.953c0.548,74.76,70.664,117.275,158.815,116.846
				c88.192-0.431,137.849-32.677,145.383-37.051l-27.716-62.893C6567.443,2093.212,6527.974,2112.419,6469.221,2112.419"/>
		</g>
		<g id="g3745" transform="translate(746.6359,46.8288)">
			<path id="path3747" inkscape:connector-curvature="0" fill="#FFFFFF" d="M6868.216,1966.402l197.427,213.509h-94.596
				l-198.091-213.509l217.689-227.604h95.884L6868.216,1966.402z"/>
		</g>
		<g id="g3749" transform="translate(701.8704,42.6286)">
			<path id="path3751" inkscape:connector-curvature="0" fill="#FFFFFF" d="M5165.335,1806.624
				c-86.671,0-149.957,70.237-149.957,156.903c0,86.669,63.286,156.941,149.957,156.941c86.667,0,149.992-70.273,149.992-156.941
				C5315.327,1876.861,5252.001,1806.624,5165.335,1806.624 M5165.335,2191.677c-125.983,0-228.074-102.167-228.074-228.15
				s102.091-228.073,228.074-228.073c125.942,0,228.109,102.09,228.109,228.073S5291.277,2191.677,5165.335,2191.677"/>
		</g>
		<g id="g3753" transform="translate(714.0898,42.8078)">
			<path id="path3755" inkscape:connector-curvature="0" fill="#FFFFFF" d="M5630.157,1813.442l-89.09-0.076v298.656h89.444
				c86.626,0,149.597-61.41,149.597-148.04C5780.109,1877.351,5716.747,1813.442,5630.157,1813.442 M5630.157,2183.894h-167.324
				v-441.035l167.324,0.036c125.907,0,228.033,95.144,228.033,221.086C5858.19,2089.964,5756.064,2183.894,5630.157,2183.894"/>
		</g>
		<g id="g3757" transform="translate(684.2415,46.0058)">
			<path id="path3759" inkscape:connector-curvature="0" fill="#FFFFFF" d="M4494.727,1935.096
				c0-131.485-77.144-202.386-189.03-202.386c-111.852,0-188.995,70.901-188.995,202.386v245.6h78.122v-254.892
				c0-77.146,45.285-122.431,110.873-122.431c65.664,0,110.954,45.285,110.954,122.431v254.892h78.077V1935.096z"/>
		</g>
	</g>
	
		<linearGradient id="path4460_1_" gradientUnits="userSpaceOnUse" x1="1981.6594" y1="12631.4521" x2="2527.3232" y2="12522.7295" gradientTransform="matrix(0.1741 0 0 -0.1741 3076.2131 3904.3943)">
		<stop  offset="0" style="stop-color:#2B7A77"/>
		<stop  offset="0.5105" style="stop-color:#4EBAA9"/>
		<stop  offset="1" style="stop-color:#5CC2B1"/>
	</linearGradient>
	<path id="path4460" sodipodi:nodetypes="ccccccccc" inkscape:connector-curvature="0" fill="url(#path4460_1_)" d="
		M3508.53,1589.644c-21.718,0-33.005,8.195-43.84,27.222l-98.969,183.466c-6.821,13.149-6.929,17.524-6.929,26.998l155.543-6.857
		l35.601-35.596h312l-259.057-160.48C3590.251,1616.93,3542.226,1589.644,3508.53,1589.644z"/>
	
		<linearGradient id="path4458_1_" gradientUnits="userSpaceOnUse" x1="3332.0825" y1="9274" x2="3061.3035" y2="9909.9209" gradientTransform="matrix(0.1741 0 0 -0.1741 3076.2131 3904.3943)">
		<stop  offset="0" style="stop-color:#236736"/>
		<stop  offset="0.4928" style="stop-color:#6BA443"/>
		<stop  offset="1" style="stop-color:#86C146"/>
	</linearGradient>
	<path id="path4458" sodipodi:nodetypes="cccccccccccccc" inkscape:connector-curvature="0" fill="url(#path4458_1_)" d="
		M3550.077,1784.877h-134.543c-40.636,0-56.742,21.254-56.742,42.453c0,13.418,4.317,20.733,10.286,35.641l196.072,468.075
		l2.107,4.106l2.715,4.214l5.643,5.502l8.284,4.427l12,2.643l20.643-0.536l136.251-50.641l-46.073-145.287L3550.077,1784.877z"/>
	
		<linearGradient id="path4456_1_" gradientUnits="userSpaceOnUse" x1="3605.4526" y1="8993.7686" x2="4003.4185" y2="9941.502" gradientTransform="matrix(0.1741 0 0 -0.1741 3076.2131 3904.3943)">
		<stop  offset="0" style="stop-color:#29A5E3"/>
		<stop  offset="0.5155" style="stop-color:#356EB9"/>
		<stop  offset="1" style="stop-color:#394DA5"/>
	</linearGradient>
	<path id="path4456" sodipodi:nodetypes="ccccccccc" inkscape:connector-curvature="0" fill="url(#path4456_1_)" d="
		M3945.135,1589.671l-309.487,732.661c-5.329,12.476-13.876,28.573-35.998,28.573c-19.768,0-29.184-9.572-34.501-19.858
		c2.751,7.418,11.071,21.828,35.186,21.828h213.601c19.685,0,29.127-11.59,33.431-22.203l312.97-741.001H3945.135z"/>
</g>
</svg>
