<?xml version="1.0" encoding="utf-8"?>
<!-- Generator: Adobe Illustrator 15.1.0, SVG Export Plug-In . SVG Version: 6.00 Build 0)  -->
<!DOCTYPE svg PUBLIC "-//W3C//DTD SVG 1.1//EN" "http://www.w3.org/Graphics/SVG/1.1/DTD/svg11.dtd">
<svg version="1.1" id="Layer_1" xmlns="http://www.w3.org/2000/svg" xmlns:xlink="http://www.w3.org/1999/xlink" x="0px" y="0px"
	 width="69.104px" height="24.344px" viewBox="0 0 69.104 24.344" enable-background="new 0 0 69.104 24.344" xml:space="preserve">
<g>
	<g>
		<defs>
			<path id="SVGID_1_" d="M19.679,18.714c0-0.796,0.648-1.442,1.443-1.442c0.796,0,1.442,0.646,1.442,1.442
				s-0.646,1.443-1.442,1.443C20.328,20.157,19.679,19.51,19.679,18.714 M15.783,18.714c0,2.95,2.391,5.34,5.34,5.34
				s5.34-2.39,5.34-5.34c0-2.948-2.391-5.34-5.34-5.34S15.783,15.766,15.783,18.714"/>
		</defs>
		<clipPath id="SVGID_2_">
			<use xlink:href="#SVGID_1_"  overflow="visible"/>
		</clipPath>
		
			<linearGradient id="SVGID_3_" gradientUnits="userSpaceOnUse" x1="-383.6538" y1="310.3848" x2="-383.4645" y2="310.3848" gradientTransform="matrix(36.2763 43.2324 43.2324 -36.2763 516.5734 27860.4688)">
			<stop  offset="0" style="stop-color:#ED1A3E"/>
			<stop  offset="1" style="stop-color:#EE4A9A"/>
		</linearGradient>
		<polygon clip-path="url(#SVGID_2_)" fill="url(#SVGID_3_)" points="22.049,8.115 31.721,19.641 20.195,29.313 10.524,17.787 		"/>
	</g>
	<g>
		<defs>
			<path id="SVGID_4_" d="M4.448,18.714c0-0.796,0.647-1.442,1.443-1.442s1.443,0.646,1.443,1.442s-0.647,1.443-1.443,1.443
				S4.448,19.51,4.448,18.714 M0.551,18.714c0,2.95,2.391,5.34,5.34,5.34s5.34-2.39,5.34-5.34c0-2.948-2.391-5.34-5.34-5.34
				S0.551,15.766,0.551,18.714"/>
		</defs>
		<clipPath id="SVGID_5_">
			<use xlink:href="#SVGID_4_"  overflow="visible"/>
		</clipPath>
		
			<linearGradient id="SVGID_6_" gradientUnits="userSpaceOnUse" x1="-382.9111" y1="311.2695" x2="-382.7219" y2="311.2695" gradientTransform="matrix(36.2761 43.2322 43.2322 -36.2761 436.1132 27860.3398)">
			<stop  offset="0" style="stop-color:#ED1A3E"/>
			<stop  offset="1" style="stop-color:#EE4A9A"/>
		</linearGradient>
		<polygon clip-path="url(#SVGID_5_)" fill="url(#SVGID_6_)" points="6.818,8.115 16.49,19.641 4.963,29.313 -4.708,17.787 		"/>
	</g>
	<path fill="#FFFFFF" d="M44.942,16.96c0-3.866-2.784-6.649-6.318-6.649c-1.808,0-3.074,0.726-3.957,1.833V4.282h-2.759v18.997
		h2.759v-1.504c0.883,1.108,2.149,1.834,3.957,1.834C42.158,23.608,44.942,20.824,44.942,16.96 M42.106,16.96
		c0,2.216-1.438,4.05-3.813,4.05c-2.268,0-3.812-1.741-3.812-4.05c0-2.31,1.544-4.05,3.812-4.05
		C40.667,12.91,42.106,14.743,42.106,16.96"/>
	<path fill="#FFFFFF" d="M54.839,13.146v-2.506h-4.841V6.814h-2.771v3.826v2.506v5.555c0,3.364,1.675,4.907,4.537,4.907
		c1.597,0,2.863-0.567,3.88-1.254l-1.095-2.203c-0.752,0.475-1.689,0.858-2.547,0.858c-1.108,0-2.005-0.673-2.005-2.361v-5.502
		H54.839z"/>
	<path fill="#FFFFFF" d="M67.752,11.258c-1.225-0.595-2.742-0.934-4.392-0.934c-3.22,0-5.224,1.557-5.224,4.049
		c0,2.045,1.477,3.325,4.286,3.708l1.319,0.171c1.517,0.211,2.19,0.674,2.19,1.398c0,0.951-0.977,1.544-2.876,1.544
		c-2.045,0-3.271-0.593-4.169-1.294l-1.279,2.072c1.833,1.372,4.129,1.622,5.421,1.622c3.642,0,5.752-1.701,5.752-4.129
		c0-2.163-1.635-3.324-4.392-3.733l-1.307-0.198C61.922,15.363,61,15.125,61,14.229c0-0.897,0.87-1.504,2.387-1.504
		c1.285,0,2.545,0.408,3.386,0.81L67.752,11.258z"/>
	<g>
		<defs>
			<path id="SVGID_7_" d="M11.96,5.536c0-0.795,0.647-1.443,1.443-1.443s1.443,0.648,1.443,1.443c0,0.796-0.647,1.443-1.443,1.443
				S11.96,6.332,11.96,5.536 M8.064,5.536c0,2.95,2.391,5.34,5.34,5.34c2.95,0,5.34-2.391,5.34-5.34c0-2.949-2.39-5.34-5.34-5.34
				C10.455,0.196,8.064,2.587,8.064,5.536"/>
		</defs>
		<clipPath id="SVGID_8_">
			<use xlink:href="#SVGID_7_"  overflow="visible"/>
		</clipPath>
		
			<linearGradient id="SVGID_9_" gradientUnits="userSpaceOnUse" x1="-382.5117" y1="310.1895" x2="-382.3224" y2="310.1895" gradientTransform="matrix(36.2761 43.2322 43.2322 -36.2761 475.8319 27790.7109)">
			<stop  offset="0" style="stop-color:#ED1A3E"/>
			<stop  offset="1" style="stop-color:#EE4A9A"/>
		</linearGradient>
		<polygon clip-path="url(#SVGID_8_)" fill="url(#SVGID_9_)" points="14.332,-5.063 24.003,6.463 12.476,16.135 2.805,4.609 		"/>
	</g>
</g>
</svg>
