<?xml version="1.0" encoding="utf-8"?>
<!-- Generator: Adobe Illustrator 15.1.0, SVG Export Plug-In . SVG Version: 6.00 Build 0)  -->
<!DOCTYPE svg PUBLIC "-//W3C//DTD SVG 1.1//EN" "http://www.w3.org/Graphics/SVG/1.1/DTD/svg11.dtd">
<svg version="1.1" xmlns="http://www.w3.org/2000/svg" xmlns:xlink="http://www.w3.org/1999/xlink" x="0px" y="0px" width="20px"
	 height="20px" viewBox="0 0 20 20" enable-background="new 0 0 20 20" xml:space="preserve">
<g id="Layer_1" display="none">
	<path display="inline" fill="#9E2E2E" d="M18.5,4H17V1.5C17,0.673,16.327,0,15.5,0h-11C3.673,0,3,0.673,3,1.5V4H1.5
		C0.673,4,0,4.673,0,5.5v9C0,15.327,0.673,16,1.5,16H3v2.5C3,19.327,3.673,20,4.5,20h11c0.827,0,1.5-0.673,1.5-1.5V16h1.5
		c0.827,0,1.5-0.673,1.5-1.5v-9C20,4.673,19.327,4,18.5,4z M4,1.5C4,1.224,4.224,1,4.5,1h11C15.775,1,16,1.224,16,1.5V4H4V1.5z
		 M15.5,19h-11C4.224,19,4,18.775,4,18.5V12h12v6.5C16,18.775,15.775,19,15.5,19z M19,14.5c0,0.275-0.225,0.5-0.5,0.5H17v-3h0.5
		c0.275,0,0.5-0.225,0.5-0.5S17.775,11,17.5,11h-15C2.224,11,2,11.225,2,11.5S2.224,12,2.5,12H3v3H1.5C1.224,15,1,14.775,1,14.5v-9
		C1,5.224,1.224,5,1.5,5h17C18.775,5,19,5.224,19,5.5V14.5z"/>
	<path display="inline" fill="#9E2E2E" d="M14.5,14h-9C5.224,14,5,13.775,5,13.5S5.224,13,5.5,13h9c0.275,0,0.5,0.225,0.5,0.5
		S14.775,14,14.5,14z"/>
	<path display="inline" fill="#9E2E2E" d="M14.5,16h-9C5.224,16,5,15.775,5,15.5S5.224,15,5.5,15h9c0.275,0,0.5,0.225,0.5,0.5
		S14.775,16,14.5,16z"/>
	<path display="inline" fill="#9E2E2E" d="M14.5,18h-9C5.224,18,5,17.775,5,17.5S5.224,17,5.5,17h9c0.275,0,0.5,0.225,0.5,0.5
		S14.775,18,14.5,18z"/>
	<path display="inline" fill="#9E2E2E" d="M16.5,9C15.673,9,15,8.327,15,7.5S15.673,6,16.5,6S18,6.673,18,7.5S17.327,9,16.5,9z
		 M16.5,7C16.225,7,16,7.224,16,7.5S16.225,8,16.5,8S17,7.776,17,7.5S16.775,7,16.5,7z"/>
</g>
<g id="Layer_2" display="none">
	<g display="inline">
		<g>
			<path fill="#FFFFFF" d="M18.157,0.362H2.889c-0.384,0-0.694,0.311-0.694,0.694v13.8c0,0.383,0.311,0.693,0.694,0.693h3.409
				l-1.984,3.012c-0.211,0.32-0.123,0.751,0.197,0.961c0.118,0.078,0.25,0.115,0.381,0.115c0.226,0,0.447-0.109,0.58-0.312
				l2.488-3.776h5.123l2.489,3.776c0.133,0.202,0.354,0.312,0.58,0.312c0.131,0,0.264-0.037,0.381-0.115
				c0.32-0.21,0.409-0.641,0.198-0.961l-1.985-3.012h3.41c0.384,0,0.693-0.311,0.693-0.693v-13.8
				C18.851,0.673,18.541,0.362,18.157,0.362z M17.463,14.162H3.583V1.75h13.88V14.162z"/>
			<path fill="#FFFFFF" d="M5.589,11.895c0.08,0.054,0.17,0.081,0.261,0.081c0.148,0,0.293-0.071,0.382-0.202l2.271-3.325
				l2.104,2.182c0.093,0.097,0.226,0.147,0.36,0.141c0.134-0.008,0.259-0.074,0.341-0.182l4.164-5.459
				c0.155-0.204,0.115-0.494-0.088-0.649c-0.203-0.155-0.493-0.116-0.648,0.087L10.898,9.6L8.774,7.397
				c-0.097-0.1-0.234-0.151-0.372-0.14c-0.139,0.012-0.265,0.085-0.343,0.2l-2.591,3.793C5.324,11.463,5.378,11.75,5.589,11.895z"/>
		</g>
		<g>
		</g>
		<g>
		</g>
		<g>
		</g>
		<g>
		</g>
		<g>
		</g>
		<g>
		</g>
		<g>
		</g>
		<g>
		</g>
		<g>
		</g>
		<g>
		</g>
		<g>
		</g>
		<g>
		</g>
		<g>
		</g>
		<g>
		</g>
		<g>
		</g>
	</g>
</g>
<g id="Layer_3" display="none">
	<g display="inline">
		<g>
			<path fill="#FFFFFF" d="M4.614,10.637H2.081c-0.334,0-0.606,0.272-0.606,0.606v6.348c0,0.335,0.272,0.606,0.606,0.606h2.533
				c0.335,0,0.606-0.271,0.606-0.606v-6.348C5.22,10.909,4.949,10.637,4.614,10.637z M4.007,16.984h-1.32V11.85h1.32V16.984z"/>
			<path fill="#FFFFFF" d="M9.383,7.278H6.85c-0.334,0-0.607,0.271-0.607,0.606v9.707c0,0.335,0.273,0.606,0.607,0.606h2.534
				c0.335,0,0.606-0.271,0.606-0.606V7.884C9.99,7.549,9.718,7.278,9.383,7.278z M8.776,16.984h-1.32V8.491h1.32V16.984
				L8.776,16.984z"/>
			<path fill="#FFFFFF" d="M14.153,11.138h-2.535c-0.335,0-0.605,0.271-0.605,0.606v5.847c0,0.335,0.271,0.606,0.605,0.606h2.535
				c0.335,0,0.605-0.271,0.605-0.606v-5.847C14.759,11.409,14.488,11.138,14.153,11.138z M13.546,16.984h-1.319v-4.633h1.319V16.984
				z"/>
			<path fill="#FFFFFF" d="M18.922,7.502h-2.533c-0.335,0-0.607,0.271-0.607,0.606v9.482c0,0.335,0.272,0.606,0.607,0.606h2.533
				c0.335,0,0.607-0.271,0.607-0.606V8.108C19.529,7.773,19.257,7.502,18.922,7.502z M18.316,16.984h-1.322V8.715h1.322V16.984
				L18.316,16.984z"/>
			<path fill="#FFFFFF" d="M12.53,8.6c0.22,0.159,0.521,0.153,0.733-0.017l4.534-3.618l-0.02,0.596
				c-0.012,0.335,0.251,0.615,0.586,0.627c0.008,0,0.013,0,0.02,0c0.325,0,0.596-0.258,0.607-0.586l0.07-2.12
				c0.007-0.169-0.058-0.332-0.176-0.45c-0.121-0.12-0.282-0.184-0.451-0.177l-2.12,0.071c-0.335,0.011-0.596,0.292-0.586,0.627
				c0.012,0.334,0.292,0.596,0.627,0.584l0.557-0.018l-4.044,3.226L8.271,4.003C8.07,3.857,7.8,3.849,7.59,3.983L0.753,8.326
				C0.47,8.504,0.386,8.879,0.566,9.163c0.116,0.182,0.312,0.281,0.513,0.281c0.111,0,0.224-0.03,0.324-0.095l6.489-4.121L12.53,8.6
				z"/>
		</g>
		<g>
		</g>
		<g>
		</g>
		<g>
		</g>
		<g>
		</g>
		<g>
		</g>
		<g>
		</g>
		<g>
		</g>
		<g>
		</g>
		<g>
		</g>
		<g>
		</g>
		<g>
		</g>
		<g>
		</g>
		<g>
		</g>
		<g>
		</g>
		<g>
		</g>
	</g>
</g>
<g id="Layer_4" display="none">
	<g display="inline">
		<g>
			<path fill="#FFFFFF" d="M10.001,0.775c-5.096,0-9.227,4.129-9.227,9.225c0,5.095,4.13,9.225,9.227,9.225
				c5.098,0,9.225-4.131,9.225-9.225C19.226,4.904,15.099,0.775,10.001,0.775z M10.001,18.219c-4.538,0-8.217-3.677-8.217-8.217
				s3.679-8.216,8.217-8.216c4.539,0,8.217,3.678,8.217,8.216C18.216,14.538,14.538,18.219,10.001,18.219z M7.237,13.991H8.74v2.487
				H7.237V13.991z M9.515,13.991h1.502v2.487H9.515V13.991z M11.752,13.991h1.501v2.487h-1.501V13.991z M11.227,10.563
				c0,0.422-0.345,0.77-0.769,0.77c-0.408,0-0.742-0.319-0.769-0.723L6.978,7.234l3.482,2.56
				C10.882,9.794,11.227,10.138,11.227,10.563z M5.629,11.842l0.666,0.667l-1.25,1.252l-0.667-0.668L5.629,11.842z M5.048,9.516
				H3.28V8.571h1.768V9.516z M5.43,4.379l1.25,1.25L6.012,6.296l-1.25-1.25L5.43,4.379z M10.472,4.811H9.529v-1.77h0.942V4.811z
				 M14.307,6.652l-0.67-0.666l1.253-1.25l0.666,0.666L14.307,6.652z M16.993,8.571v0.944h-1.767V8.571H16.993z M14.628,12.031
				l1.253,1.251l-0.667,0.665l-1.252-1.249L14.628,12.031z"/>
		</g>
		<g>
		</g>
		<g>
		</g>
		<g>
		</g>
		<g>
		</g>
		<g>
		</g>
		<g>
		</g>
		<g>
		</g>
		<g>
		</g>
		<g>
		</g>
		<g>
		</g>
		<g>
		</g>
		<g>
		</g>
		<g>
		</g>
		<g>
		</g>
		<g>
		</g>
	</g>
</g>
<g id="Layer_5">
	<g>
		<g>
			<g id="New_x5F_Post">
				<g>
					<path fill="#FFFFFF" d="M17.014,8.938c-0.465,0-0.842,0.377-0.842,0.842v7.014H2.706V3.328H9.72
						c0.465,0,0.841-0.377,0.841-0.842S10.185,1.645,9.72,1.645H2.145c-0.62,0-1.122,0.502-1.122,1.122v14.589
						c0,0.619,0.502,1.122,1.122,1.122h14.589c0.619,0,1.122-0.503,1.122-1.122V9.78C17.855,9.315,17.479,8.938,17.014,8.938z
						 M18.782,3.132l-2.415-2.414c-0.131-0.132-0.304-0.196-0.476-0.196s-0.345,0.063-0.476,0.196l-9.344,9.343v3.366h3.366
						l9.344-9.342c0.132-0.132,0.195-0.304,0.195-0.477S18.914,3.264,18.782,3.132z M8.878,11.744H7.756v-1.122l8.136-8.136
						l1.122,1.122L8.878,11.744z"/>
				</g>
			</g>
		</g>
		<g>
		</g>
		<g>
		</g>
		<g>
		</g>
		<g>
		</g>
		<g>
		</g>
		<g>
		</g>
		<g>
		</g>
		<g>
		</g>
		<g>
		</g>
		<g>
		</g>
		<g>
		</g>
		<g>
		</g>
		<g>
		</g>
		<g>
		</g>
		<g>
		</g>
	</g>
</g>
</svg>
