<?xml version="1.0" encoding="utf-8"?>
<!-- Generator: Adobe Illustrator 15.1.0, SVG Export Plug-In . SVG Version: 6.00 Build 0)  -->
<!DOCTYPE svg PUBLIC "-//W3C//DTD SVG 1.1//EN" "http://www.w3.org/Graphics/SVG/1.1/DTD/svg11.dtd">
<svg version="1.1" id="Layer_1" xmlns="http://www.w3.org/2000/svg" xmlns:xlink="http://www.w3.org/1999/xlink" x="0px" y="0px"
	 width="20px" height="15px" viewBox="0 0 20 15" enable-background="new 0 0 20 15" xml:space="preserve">
<g>
	<path fill="#FFFFFF" d="M15.05,14.731h-9.1c-0.627,0-1.137-0.51-1.137-1.136V6.011c0-0.627,0.51-1.137,1.137-1.137h3.034
		c0.209,0,0.379,0.169,0.379,0.379s-0.17,0.379-0.379,0.379H5.95c-0.209,0-0.379,0.17-0.379,0.379v7.584
		c0,0.208,0.17,0.379,0.379,0.379h9.1c0.209,0,0.379-0.171,0.379-0.379V6.011c0-0.209-0.17-0.379-0.379-0.379h-3.033
		c-0.209,0-0.379-0.169-0.379-0.379s0.17-0.379,0.379-0.379h3.033c0.627,0,1.138,0.51,1.138,1.137v7.584
		C16.188,14.222,15.677,14.731,15.05,14.731z"/>
	<path fill="#FFFFFF" d="M13.044,2.331l-2.276-2.275c-0.148-0.147-0.388-0.147-0.536,0L7.957,2.331
		c-0.147,0.148-0.147,0.388,0,0.536c0.148,0.148,0.388,0.148,0.536,0l1.628-1.627v8.563c0,0.21,0.17,0.379,0.379,0.379
		s0.379-0.169,0.379-0.379V1.239l1.627,1.627c0.075,0.075,0.172,0.111,0.268,0.111c0.097,0,0.194-0.038,0.27-0.111
		C13.191,2.719,13.191,2.479,13.044,2.331z"/>
</g>
</svg>
