<?xml version="1.0" encoding="utf-8"?>
<!-- Generator: Adobe Illustrator 15.1.0, SVG Export Plug-In . SVG Version: 6.00 Build 0)  -->
<!DOCTYPE svg PUBLIC "-//W3C//DTD SVG 1.1//EN" "http://www.w3.org/Graphics/SVG/1.1/DTD/svg11.dtd">
<svg version="1.1" id="Layer_1" xmlns="http://www.w3.org/2000/svg" xmlns:xlink="http://www.w3.org/1999/xlink" x="0px" y="0px"
	 width="20px" height="20px" viewBox="0 0 20 20" enable-background="new 0 0 20 20" xml:space="preserve">
<path fill="#FFFFFF" d="M19.104,0.896C18.542,0.334,17.795,0.025,17,0.025s-1.542,0.309-2.104,0.871l-12.75,12.75
	c-0.052,0.052-0.091,0.113-0.116,0.183l-2,5.5c-0.066,0.183-0.021,0.387,0.116,0.524c0.095,0.095,0.223,0.146,0.354,0.146
	c0.057,0,0.115-0.01,0.171-0.03l5.5-2c0.069-0.025,0.131-0.064,0.183-0.115l12.75-12.75c0.563-0.562,0.871-1.309,0.871-2.104
	S19.666,1.457,19.104,0.896L19.104,0.896z M5.725,17.068l-4.389,1.596l1.596-4.389L14,3.207L16.793,6L5.725,17.068z M18.396,4.396
	L17.5,5.292l-2.793-2.793l0.896-0.896c0.373-0.373,0.869-0.578,1.396-0.578s1.022,0.205,1.396,0.578s0.578,0.869,0.578,1.396
	s-0.205,1.023-0.578,1.396L18.396,4.396z"/>
</svg>
