<?xml version="1.0" encoding="utf-8"?>
<!-- Generator: Adobe Illustrator 15.1.0, SVG Export Plug-In . SVG Version: 6.00 Build 0)  -->
<!DOCTYPE svg PUBLIC "-//W3C//DTD SVG 1.1//EN" "http://www.w3.org/Graphics/SVG/1.1/DTD/svg11.dtd">
<svg version="1.1" id="Layer_1" xmlns="http://www.w3.org/2000/svg" xmlns:xlink="http://www.w3.org/1999/xlink" x="0px" y="0px"
	 width="20px" height="15px" viewBox="0 0 20 15" enable-background="new 0 0 20 15" xml:space="preserve">
<g>
	<path fill="#FFFFFF" d="M16.17,3.133h-1.121V1.279c0-0.613-0.503-1.112-1.123-1.112H5.699c-0.618,0-1.122,0.5-1.122,1.112v1.854
		H3.455c-0.618,0-1.122,0.5-1.122,1.113v6.676c0,0.613,0.503,1.112,1.122,1.112h1.123v1.854c0,0.614,0.503,1.113,1.122,1.113h8.227
		c0.62,0,1.123-0.499,1.123-1.113v-1.854h1.121c0.619,0,1.122-0.499,1.122-1.112V4.246C17.292,3.633,16.789,3.133,16.17,3.133z
		 M5.324,1.279c0-0.205,0.168-0.37,0.375-0.37h8.227c0.207,0,0.375,0.166,0.375,0.37v1.854H5.324V1.279z M13.926,14.26H5.699
		c-0.206,0-0.375-0.167-0.375-0.372V9.068h8.977v4.819C14.301,14.093,14.133,14.26,13.926,14.26z M16.544,10.922
		c0,0.204-0.167,0.371-0.374,0.371h-1.121V9.068h0.373c0.206,0,0.373-0.168,0.373-0.371c0-0.204-0.167-0.371-0.373-0.371H4.203
		c-0.207,0-0.375,0.167-0.375,0.371c0,0.203,0.168,0.371,0.375,0.371h0.374v2.225H3.455c-0.206,0-0.373-0.167-0.373-0.371V4.246
		c0-0.204,0.167-0.371,0.373-0.371H16.17c0.207,0,0.374,0.167,0.374,0.371V10.922z"/>
	<path fill="#FFFFFF" d="M13.179,10.551H6.447c-0.207,0-0.374-0.167-0.374-0.371S6.24,9.809,6.447,9.809h6.732
		c0.205,0,0.374,0.167,0.374,0.371S13.384,10.551,13.179,10.551z"/>
	<path fill="#FFFFFF" d="M13.179,12.034H6.447c-0.207,0-0.374-0.166-0.374-0.371c0-0.204,0.167-0.37,0.374-0.37h6.732
		c0.205,0,0.374,0.166,0.374,0.37C13.553,11.868,13.384,12.034,13.179,12.034z"/>
	<path fill="#FFFFFF" d="M13.179,13.517H6.447c-0.207,0-0.374-0.166-0.374-0.37s0.167-0.37,0.374-0.37h6.732
		c0.205,0,0.374,0.166,0.374,0.37S13.384,13.517,13.179,13.517z"/>
	<path fill="#FFFFFF" d="M14.674,6.842c-0.618,0-1.121-0.498-1.121-1.112c0-0.614,0.503-1.112,1.121-1.112
		c0.619,0,1.121,0.498,1.121,1.112C15.795,6.344,15.293,6.842,14.674,6.842z M14.674,5.359c-0.206,0-0.373,0.166-0.373,0.371
		c0,0.205,0.167,0.371,0.373,0.371s0.375-0.166,0.375-0.371C15.049,5.525,14.88,5.359,14.674,5.359z"/>
</g>
</svg>
