<?xml version="1.0" encoding="utf-8"?>
<!-- Generator: Adobe Illustrator 15.1.0, SVG Export Plug-In . SVG Version: 6.00 Build 0)  -->
<!DOCTYPE svg PUBLIC "-//W3C//DTD SVG 1.1//EN" "http://www.w3.org/Graphics/SVG/1.1/DTD/svg11.dtd">
<svg version="1.1" id="Layer_1" xmlns="http://www.w3.org/2000/svg" xmlns:xlink="http://www.w3.org/1999/xlink" x="0px" y="0px"
	 width="22px" height="32px" viewBox="0 0 22 32" enable-background="new 0 0 22 32" xml:space="preserve">
<path fill="#FFFFFF" d="M16.189,5.149c0,0,3.568-0.103,3.568,1.96v2.242v9.46v8.121c0,1.22-0.343,2.692-1.924,2.692h-2.498H5.999
	c-1.289,0-2.893-0.19-2.893-1.947v-1.803V8.141V7.013c0-1.997,2.039-1.864,3.313-1.864c0.51,0,0.51-0.632,0-0.632
	c-1.444,0-2.856-0.133-3.74,1.31c-0.38,0.62-0.253,1.421-0.253,2.118v8.358v9.315c0,1.865-0.117,4.687,2.558,4.687h7.671h4.269
	c1.048,0,1.968-0.077,2.776-0.885c0.641-0.641,0.652-1.573,0.652-2.404v-3.209V13.85V7.461c0-0.796-0.166-1.468-0.681-2.121
	c-0.814-1.032-2.208-0.824-3.482-0.824C15.765,4.517,15.765,5.149,16.189,5.149C16.189,5.149,15.765,5.149,16.189,5.149"/>
<path fill="#FFFFFF" d="M16.189,6.518H6.558c0.105,0,0.117,0.094,0.372,0.2V2.949c-0.255,0.105-0.267,0.085-0.372,0.34h9.69
	c-0.105-0.255-0.313-0.235-0.313-0.34v3.739c0,0.425,0.595,0.425,0.595,0V2.949c0-0.172-0.109-0.254-0.281-0.254h-9.69
	c-0.173,0-0.308,0.082-0.308,0.254v3.769c0,0.173,0.135,0.395,0.308,0.395h9.632C16.529,7.112,16.529,6.518,16.189,6.518"/>
<path fill="#FFFFFF" d="M7.949,12.805h9.515c0.34,0,0.34-0.595,0-0.595H7.949C7.524,12.209,7.524,12.805,7.949,12.805
	C7.949,12.805,7.524,12.805,7.949,12.805"/>
<path fill="#FFFFFF" d="M7.949,15.268h8.241c0.34,0,0.34-0.68,0-0.68H7.949C7.524,14.588,7.524,15.268,7.949,15.268
	C7.949,15.268,7.524,15.268,7.949,15.268"/>
<path fill="#FFFFFF" d="M7.949,18.072h9.515c0.34,0,0.34-0.68,0-0.68H7.949C7.524,17.393,7.524,18.072,7.949,18.072
	C7.949,18.072,7.524,18.072,7.949,18.072"/>
<path fill="#FFFFFF" d="M7.949,20.79h9.515c0.34,0,0.34-0.68,0-0.68H7.949C7.524,20.11,7.524,20.79,7.949,20.79
	C7.949,20.79,7.524,20.79,7.949,20.79"/>
<path fill="#FFFFFF" d="M6.513,12.46c0,0.396-0.321,0.718-0.718,0.718s-0.718-0.321-0.718-0.718s0.321-0.718,0.718-0.718
	S6.513,12.063,6.513,12.46"/>
<path fill="#FFFFFF" d="M6.513,15.152c0,0.396-0.321,0.718-0.718,0.718s-0.718-0.321-0.718-0.718s0.321-0.718,0.718-0.718
	S6.513,14.755,6.513,15.152"/>
<path fill="#FFFFFF" d="M6.513,17.844c0,0.396-0.321,0.718-0.718,0.718s-0.718-0.321-0.718-0.718s0.321-0.719,0.718-0.719
	S6.513,17.447,6.513,17.844"/>
<path fill="#FFFFFF" d="M6.513,20.535c0,0.397-0.321,0.718-0.718,0.718s-0.718-0.32-0.718-0.718c0-0.396,0.321-0.718,0.718-0.718
	S6.513,20.14,6.513,20.535"/>
</svg>
