<?xml version="1.0" encoding="utf-8"?>
<!-- Generator: Adobe Illustrator 15.1.0, SVG Export Plug-In . SVG Version: 6.00 Build 0)  -->
<!DOCTYPE svg PUBLIC "-//W3C//DTD SVG 1.1//EN" "http://www.w3.org/Graphics/SVG/1.1/DTD/svg11.dtd">
<svg version="1.1" id="Layer_1" xmlns="http://www.w3.org/2000/svg" xmlns:xlink="http://www.w3.org/1999/xlink" x="0px" y="0px"
	 width="20px" height="20px" viewBox="0 0 20 20" enable-background="new 0 0 20 20" xml:space="preserve">
<path fill="#FFFFFF" d="M15.88,5.918c-1.257-1.257-2.93-1.951-4.707-1.951S7.724,4.66,6.465,5.918
	c-1.257,1.258-1.951,2.93-1.951,4.708v1.012L2.834,9.958c-0.153-0.153-0.401-0.153-0.554,0s-0.152,0.401,0,0.554l2.35,2.351
	c0.077,0.076,0.178,0.114,0.277,0.114c0.101,0,0.201-0.038,0.278-0.114l2.35-2.351c0.152-0.153,0.152-0.401,0-0.554
	c-0.153-0.153-0.402-0.153-0.554,0L5.3,11.639v-1.012c0-3.241,2.636-5.875,5.875-5.875c3.24,0,5.875,2.635,5.875,5.875
	c0,3.239-2.635,5.875-5.875,5.875c-0.215,0-0.392,0.176-0.392,0.392c0,0.215,0.176,0.392,0.392,0.392
	c1.778,0,3.451-0.694,4.707-1.951c1.259-1.258,1.951-2.931,1.951-4.708c0-1.778-0.692-3.451-1.951-4.708H15.88z"/>
</svg>
