<?xml version="1.0" encoding="utf-8"?>
<!-- Generator: Adobe Illustrator 15.1.0, SVG Export Plug-In . SVG Version: 6.00 Build 0)  -->
<!DOCTYPE svg PUBLIC "-//W3C//DTD SVG 1.1//EN" "http://www.w3.org/Graphics/SVG/1.1/DTD/svg11.dtd">
<svg version="1.1" id="Layer_1" xmlns="http://www.w3.org/2000/svg" xmlns:xlink="http://www.w3.org/1999/xlink" x="0px" y="0px"
	 width="20px" height="20px" viewBox="0 0 20 20" enable-background="new 0 0 20 20" xml:space="preserve">
<path fill="#FFFFFF" d="M17.51,4.49C15.904,2.885,13.77,2,11.5,2C9.23,2,7.095,2.884,5.49,4.49C3.885,6.096,3,8.23,3,10.5v1.293
	L0.854,9.647c-0.195-0.195-0.512-0.195-0.707,0s-0.195,0.512,0,0.707l3,3C3.245,13.452,3.373,13.5,3.501,13.5
	s0.256-0.049,0.354-0.146l3-3c0.195-0.195,0.195-0.512,0-0.707s-0.512-0.195-0.707,0l-2.146,2.146V10.5c0-4.136,3.364-7.5,7.5-7.5
	c4.137,0,7.5,3.364,7.5,7.5s-3.363,7.5-7.5,7.5c-0.275,0-0.5,0.225-0.5,0.5s0.225,0.5,0.5,0.5c2.27,0,4.405-0.884,6.01-2.49
	c1.605-1.605,2.49-3.74,2.49-6.01c0-2.27-0.884-4.405-2.49-6.01H17.51z"/>
</svg>
