<?xml version="1.0" encoding="utf-8"?>
<!-- Generator: Adobe Illustrator 15.1.0, SVG Export Plug-In . SVG Version: 6.00 Build 0)  -->
<!DOCTYPE svg PUBLIC "-//W3C//DTD SVG 1.1//EN" "http://www.w3.org/Graphics/SVG/1.1/DTD/svg11.dtd">
<svg version="1.1" id="Layer_1" xmlns="http://www.w3.org/2000/svg" xmlns:xlink="http://www.w3.org/1999/xlink" x="0px" y="0px"
	 width="20px" height="20px" viewBox="0 0 20 20" enable-background="new 0 0 20 20" xml:space="preserve">
<path fill="#FFFFFF" d="M15.5,19c-0.082,0-0.164-0.02-0.238-0.061L10,16.07l-5.261,2.869c-0.168,0.092-0.373,0.078-0.529-0.032
	c-0.156-0.111-0.235-0.302-0.203-0.49l0.958-5.746L1.147,8.853c-0.132-0.132-0.18-0.328-0.123-0.506
	c0.057-0.178,0.209-0.31,0.394-0.341l5.749-0.958l2.386-4.772C9.638,2.107,9.811,2,10,2s0.363,0.107,0.447,0.276l2.386,4.772
	l5.749,0.958c0.186,0.031,0.337,0.162,0.395,0.341c0.057,0.179,0.01,0.374-0.123,0.506l-3.818,3.818l0.958,5.746
	c0.03,0.188-0.048,0.379-0.203,0.49C15.704,18.968,15.602,19,15.5,19z M10,15c0.082,0,0.165,0.02,0.239,0.061l4.599,2.508
	l-0.831-4.986c-0.026-0.159,0.025-0.322,0.14-0.436l3.313-3.313l-5.042-0.84c-0.158-0.026-0.293-0.127-0.365-0.27L10,3.617
	L7.947,7.723C7.875,7.866,7.74,7.966,7.582,7.993L2.54,8.833l3.313,3.313c0.114,0.113,0.166,0.275,0.14,0.436l-0.831,4.986
	l4.599-2.508C9.836,15.02,9.918,15,10,15z"/>
</svg>
