<?xml version="1.0" encoding="utf-8"?>
<!-- Generator: Adobe Illustrator 15.1.0, SVG Export Plug-In . SVG Version: 6.00 Build 0)  -->
<!DOCTYPE svg PUBLIC "-//W3C//DTD SVG 1.1//EN" "http://www.w3.org/Graphics/SVG/1.1/DTD/svg11.dtd">
<svg version="1.1" id="Layer_1" xmlns="http://www.w3.org/2000/svg" xmlns:xlink="http://www.w3.org/1999/xlink" x="0px" y="0px"
	 width="20px" height="20px" viewBox="0 0 20 20" enable-background="new 0 0 20 20" xml:space="preserve">
<path fill="#FFFFFF" d="M18.348,14.915L18.348,14.915c-0.182,0-0.363-0.072-0.541-0.215l-2.58-2.063
	c-0.414-0.332-0.727-0.98-0.727-1.512v-2.25c0-0.53,0.313-1.18,0.727-1.511l2.58-2.063c0.178-0.144,0.359-0.216,0.541-0.216
	C18.674,5.085,19,5.329,19,5.874v8.25c0,0.208-0.049,0.384-0.143,0.521C18.739,14.814,18.553,14.914,18.348,14.915L18.348,14.915z
	 M18.25,5.906L15.693,7.95c-0.23,0.186-0.443,0.627-0.443,0.925v2.25c0,0.298,0.213,0.738,0.443,0.925l2.557,2.044V5.906
	L18.25,5.906z"/>
<path fill="#FFFFFF" d="M13,14H3c-0.827,0-1.5-0.414-1.5-0.923V6.923C1.5,6.414,2.173,6,3,6h10c0.827,0,1.5,0.414,1.5,0.923v6.154
	C14.5,13.586,13.827,14,13,14z M3,6.616c-0.276,0-0.5,0.138-0.5,0.308v6.154c0,0.17,0.224,0.309,0.5,0.309h10
	c0.275,0,0.5-0.139,0.5-0.309V6.923c0-0.17-0.225-0.308-0.5-0.308H3V6.616z"/>
<circle fill="none" stroke="#FFFFFF" stroke-miterlimit="10" cx="5.381" cy="4.031" r="1.969"/>
<circle fill="none" stroke="#FFFFFF" stroke-miterlimit="10" cx="11.109" cy="4.031" r="1.969"/>
</svg>
