<?xml version="1.0" encoding="utf-8"?>
<svg version="1.1" xmlns:xlink="http://www.w3.org/1999/xlink" width="77px" height="77px" xmlns="http://www.w3.org/2000/svg">
  <g transform="matrix(1 0 0 1 -394 -205 )">
    <path d="M 56.6471354166667 45.0419921875  C 57.0481770833333 45.8273654513889  57.1150173611111 46.6378038194444  56.84765625 47.4733072916667  C 55.6111111111111 51.5171440972222  53.3051215277778 54.7756076388889  49.9296875 57.2486979166667  C 46.5542534722222 59.7217881944444  42.7443576388889 60.9583333333333  38.5 60.9583333333333  C 34.2556423611111 60.9583333333333  30.4457465277778 59.7217881944444  27.0703125 57.2486979166667  C 23.6948784722222 54.7756076388889  21.3888888888889 51.5171440972222  20.15234375 47.4733072916667  C 19.8849826388889 46.6378038194444  19.9518229166667 45.8273654513889  20.3528645833333 45.0419921875  C 20.75390625 44.2566189236111  21.3888888888889 43.7302517361111  22.2578125 43.462890625  C 23.0933159722222 43.1955295138889  23.9037543402778 43.2623697916667  24.6891276041667 43.6634114583333  C 25.4745008680556 44.064453125  26.0008680555556 44.6994357638889  26.2682291666667 45.568359375  C 27.1037326388889 48.2419704861111  28.6494140625 50.4059244791667  30.9052734375 52.0602213541667  C 33.1611328125 53.7145182291667  35.6927083333333 54.5416666666667  38.5 54.5416666666667  C 41.3072916666667 54.5416666666667  43.8388671875 53.7145182291667  46.0947265625 52.0602213541667  C 48.3505859375 50.4059244791667  49.8962673611111 48.2419704861111  50.7317708333333 45.568359375  C 50.9991319444445 44.6994357638889  51.5338541666667 44.064453125  52.3359375 43.6634114583333  C 53.1380208333333 43.2623697916667  53.9568142361111 43.1955295138889  54.7923177083333 43.462890625  C 55.6278211805556 43.7302517361111  56.24609375 44.2566189236111  56.6471354166667 45.0419921875  Z M 30.2034505208333 21.1298828125  C 31.4567057291667 22.3831380208333  32.0833333333333 23.8953993055556  32.0833333333333 25.6666666666667  C 32.0833333333333 27.4379340277778  31.4567057291667 28.9501953125  30.2034505208333 30.2034505208333  C 28.9501953125 31.4567057291667  27.4379340277778 32.0833333333333  25.6666666666667 32.0833333333333  C 23.8953993055556 32.0833333333333  22.3831380208333 31.4567057291667  21.1298828125 30.2034505208333  C 19.8766276041667 28.9501953125  19.25 27.4379340277778  19.25 25.6666666666667  C 19.25 23.8953993055556  19.8766276041667 22.3831380208333  21.1298828125 21.1298828125  C 22.3831380208333 19.8766276041667  23.8953993055556 19.25  25.6666666666667 19.25  C 27.4379340277778 19.25  28.9501953125 19.8766276041667  30.2034505208333 21.1298828125  Z M 55.8701171875 21.1298828125  C 57.1233723958333 22.3831380208333  57.75 23.8953993055556  57.75 25.6666666666667  C 57.75 27.4379340277778  57.1233723958333 28.9501953125  55.8701171875 30.2034505208333  C 54.6168619791667 31.4567057291667  53.1046006944445 32.0833333333333  51.3333333333333 32.0833333333333  C 49.5620659722222 32.0833333333333  48.0498046875 31.4567057291667  46.7965494791667 30.2034505208333  C 45.5432942708333 28.9501953125  44.9166666666667 27.4379340277778  44.9166666666667 25.6666666666667  C 44.9166666666667 23.8953993055556  45.5432942708333 22.3831380208333  46.7965494791667 21.1298828125  C 48.0498046875 19.8766276041667  49.5620659722222 19.25  51.3333333333333 19.25  C 53.1046006944445 19.25  54.6168619791667 19.8766276041667  55.8701171875 21.1298828125  Z M 68.0266927083333 50.9573567708333  C 69.7311197916667 46.9970703125  70.5833333333333 42.8446180555556  70.5833333333333 38.5  C 70.5833333333333 34.1553819444444  69.7311197916667 30.0029296875  68.0266927083333 26.0426432291667  C 66.322265625 22.0823567708333  64.0413411458333 18.6735026041667  61.1839192708333 15.8160807291667  C 58.3264973958333 12.9586588541667  54.9176432291667 10.677734375  50.9573567708333 8.97330729166667  C 46.9970703125 7.26888020833333  42.8446180555556 6.41666666666667  38.5 6.41666666666667  C 34.1553819444444 6.41666666666667  30.0029296875 7.26888020833333  26.0426432291667 8.97330729166667  C 22.0823567708333 10.677734375  18.6735026041667 12.9586588541667  15.8160807291667 15.8160807291667  C 12.9586588541667 18.6735026041667  10.677734375 22.0823567708333  8.97330729166667 26.0426432291667  C 7.26888020833333 30.0029296875  6.41666666666667 34.1553819444444  6.41666666666667 38.5  C 6.41666666666667 42.8446180555556  7.26888020833333 46.9970703125  8.97330729166667 50.9573567708333  C 10.677734375 54.9176432291667  12.9586588541667 58.3264973958333  15.8160807291667 61.1839192708333  C 18.6735026041667 64.0413411458333  22.0823567708333 66.322265625  26.0426432291667 68.0266927083333  C 30.0029296875 69.7311197916667  34.1553819444444 70.5833333333333  38.5 70.5833333333333  C 42.8446180555556 70.5833333333333  46.9970703125 69.7311197916667  50.9573567708333 68.0266927083333  C 54.9176432291667 66.322265625  58.3264973958333 64.0413411458333  61.1839192708333 61.1839192708333  C 64.0413411458333 58.3264973958333  66.322265625 54.9176432291667  68.0266927083333 50.9573567708333  Z M 71.8365885416667 19.1748046875  C 75.2788628472222 25.0734592013889  77 31.5151909722222  77 38.5  C 77 45.4848090277778  75.2788628472222 51.9265407986111  71.8365885416667 57.8251953125  C 68.3943142361111 63.7238498263889  63.7238498263889 68.3943142361111  57.8251953125 71.8365885416667  C 51.9265407986111 75.2788628472222  45.4848090277778 77  38.5 77  C 31.5151909722222 77  25.0734592013889 75.2788628472222  19.1748046875 71.8365885416667  C 13.2761501736111 68.3943142361111  8.60568576388889 63.7238498263889  5.16341145833333 57.8251953125  C 1.72113715277778 51.9265407986111  0 45.4848090277778  0 38.5  C 0 31.5151909722222  1.72113715277778 25.0734592013889  5.16341145833333 19.1748046875  C 8.60568576388889 13.2761501736111  13.2761501736111 8.60568576388888  19.1748046875 5.16341145833333  C 25.0734592013889 1.72113715277777  31.5151909722222 0  38.5 0  C 45.4848090277778 0  51.9265407986111 1.72113715277777  57.8251953125 5.16341145833333  C 63.7238498263889 8.60568576388888  68.3943142361111 13.2761501736111  71.8365885416667 19.1748046875  Z " fill-rule="nonzero" fill="#adadad" stroke="none" transform="matrix(1 0 0 1 394 205 )" />
  </g>
</svg>