<?xml version="1.0" encoding="utf-8"?>
<!-- Generator: Adobe Illustrator 21.1.0, SVG Export Plug-In . SVG Version: 6.00 Build 0)  -->
<svg version="1.1" id="Layer_1" xmlns="http://www.w3.org/2000/svg" xmlns:xlink="http://www.w3.org/1999/xlink" x="0px" y="0px"
	 viewBox="0 0 229 118" style="enable-background:new 0 0 229 118;" xml:space="preserve">
<style type="text/css">
	.st0{fill:#FFFFFF;}
	.st1{opacity:0;fill:#FFFFFF;stroke:#FFFFFF;stroke-width:3.267052e-02;stroke-miterlimit:10;}
	.st2{fill:#FFE600;}
	.st3{opacity:0;fill:#FFFFFF;stroke:#FFFFFF;stroke-width:2.894873e-02;stroke-miterlimit:10;}
</style>
<path class="st0" d="M93.2,84.2h3.3l0.4-0.1l0.4-0.1l0.4-0.2l0.2-0.2l0.2-0.2l0.1-0.3l0.1-0.5l-0.1-0.3L98,82.1l-0.1-0.3l-0.2-0.2
	l-0.3-0.2l-0.4-0.1l-0.8-0.1h-3.1V84.2z M93.2,90.3h3.3h0.4l0.4-0.1l0.4-0.2l0.3-0.3l0.3-0.3l0.2-0.4l0.1-0.4l0.1-0.4l-0.1-0.4
	l-0.1-0.4l-0.2-0.4l-0.2-0.3l-0.4-0.2l-0.4-0.2L97,86.4h-0.5h-3.3V90.3z M90.8,92.5V78.9h5.8l0.9,0.1l0.9,0.2l0.7,0.3l0.6,0.4
	l0.5,0.5l0.4,0.6l0.2,0.7l0.1,0.8l-0.1,0.4l-0.1,0.4l-0.1,0.4l-0.2,0.4l-0.3,0.3l-0.3,0.4L99.6,85l-0.4,0.2l0.6,0.4l0.4,0.3l0.4,0.4
	l0.3,0.4L101,87l0.1,0.5l0.1,0.7l-0.1,1l-0.3,0.9l-0.4,0.7l-0.5,0.6l-0.7,0.5l-0.8,0.4l-1,0.2l-1.1,0.1H90.8z"/>
<path class="st1" d="M96.5,84.2h-3.3v-2.9h3.1l0.8,0.1l0.4,0.1l0.3,0.2l0.2,0.2l0.1,0.3l0.1,0.3l0.1,0.3l-0.1,0.5L98,83.5l-0.2,0.2
	l-0.2,0.2L97.3,84l-0.4,0.1L96.5,84.2z M96.5,90.3h-3.3v-3.9h3.3H97l0.4,0.1l0.4,0.2l0.4,0.2l0.2,0.3l0.2,0.4l0.1,0.4l0.1,0.4
	l-0.1,0.4l-0.1,0.4l-0.2,0.4L98,89.7L97.7,90l-0.4,0.2l-0.4,0.1H96.5z M101.2,88.2L101.2,88.2l-0.1-0.7L101,87l-0.3-0.5l-0.3-0.4
	l-0.4-0.4l-0.4-0.3l-0.6-0.4l0.4-0.2l0.3-0.3l0.3-0.4l0.3-0.3l0.2-0.4l0.1-0.4l0.1-0.4l0.1-0.4l-0.1-0.8l-0.2-0.7l-0.4-0.6l-0.5-0.5
	L99,79.4l-0.7-0.3L97.4,79l-0.9-0.1h-5.8v13.6h5.7l1.1-0.1l1-0.2l0.8-0.4l0.7-0.5l0.5-0.6l0.4-0.7l0.3-0.9L101.2,88.2z"/>
<polygon class="st0" points="106.2,92.7 105.6,92.6 105.2,92.5 104.7,92.3 104.4,92.1 104.1,91.8 103.6,91.1 103.2,90.4 103.1,89.6 
	103,88.9 103,88.2 103,82.6 105.4,82.6 105.4,88.1 105.4,88.7 105.5,89.2 105.7,89.6 105.9,89.9 106.2,90.2 106.4,90.3 106.9,90.5 
	107.3,90.5 107.6,90.5 108.1,90.3 108.4,90.2 108.6,89.9 108.9,89.6 109,89.2 109.1,88.7 109.1,88.1 109.1,82.6 111.5,82.6 
	111.5,92.5 109.1,92.5 109.1,91.8 108.6,92.2 108.1,92.5 107.4,92.7 106.7,92.8 "/>
<polygon class="st1" points="106.7,92.8 106.7,92.8 107.4,92.7 108.1,92.5 108.6,92.2 109.1,91.8 109.1,92.5 111.5,92.5 111.5,82.6 
	109.1,82.6 109.1,88.1 109.1,88.7 109,89.2 108.9,89.6 108.6,89.9 108.4,90.2 108.1,90.3 107.6,90.5 107.3,90.5 106.9,90.5 
	106.4,90.3 106.2,90.2 105.9,89.9 105.7,89.6 105.5,89.2 105.4,88.7 105.4,88.1 105.4,82.6 103,82.6 103,88.2 103,88.9 103.1,89.6 
	103.2,90.4 103.6,91.1 104.1,91.8 104.4,92.1 104.7,92.3 105.2,92.5 105.6,92.6 106.2,92.7 "/>
<polygon class="st0" points="144.2,92.5 144.2,87.1 144.2,86.5 144.1,86 143.9,85.6 143.7,85.2 143.5,85 143.2,84.8 142.8,84.7 
	142.4,84.6 142,84.7 141.5,84.8 141.3,85 141,85.2 140.7,85.6 140.6,86 140.5,86.5 140.5,87.1 140.5,92.5 138,92.5 138,82.6 
	140.5,82.6 140.5,83.5 141,83 141.6,82.7 142.2,82.4 142.9,82.4 143.8,82.4 144.5,82.7 145.1,83 145.7,83.6 146.1,84.2 146.4,85 
	146.5,85.9 146.6,86.9 146.6,92.5 "/>
<polygon class="st1" points="140.5,87.1 140.5,87.1 140.5,86.5 140.6,86 140.7,85.6 141,85.2 141.3,85 141.5,84.8 142,84.7 
	142.4,84.6 142.8,84.7 143.2,84.8 143.5,85 143.7,85.2 143.9,85.6 144.1,86 144.2,86.5 144.2,87.1 144.2,92.5 146.6,92.5 
	146.6,86.9 146.5,85.9 146.4,85 146.1,84.2 145.7,83.6 145.1,83 144.5,82.7 143.8,82.4 142.9,82.4 142.2,82.4 141.6,82.7 141,83 
	140.5,83.5 140.5,82.6 138,82.6 138,92.5 140.5,92.5 "/>
<rect x="113.8" y="82.6" class="st0" width="2.5" height="9.9"/>
<rect x="113.8" y="82.6" class="st1" width="2.5" height="9.9"/>
<polygon class="st0" points="118.4,92.5 118.4,79.7 120.8,78.5 120.8,92.5 "/>
<polygon class="st1" points="118.4,92.5 120.8,92.5 120.8,78.5 118.4,79.7 "/>
<path class="st0" d="M126.7,84.7l-0.4,0.1l-0.4,0.1l-0.3,0.3l-0.3,0.4l-0.2,0.5l-0.1,0.6l-0.1,0.8l0.1,0.9l0.1,0.7l0.2,0.5l0.3,0.3
	l0.4,0.3l0.3,0.2l0.4,0.2h0.4l0.5-0.1l0.5-0.3l0.4-0.3l0.3-0.3v-4l-0.3-0.3l-0.4-0.4l-0.5-0.3l-0.6-0.1L126.7,84.7z M125.6,92.7
	l-0.8-0.3l-0.6-0.4l-0.6-0.6l-0.4-0.8l-0.3-0.9l-0.2-1.1l-0.1-1.1l0.1-1.1l0.2-1.1l0.4-0.8l0.4-0.8l0.5-0.5l0.7-0.4l0.7-0.3l0.9-0.1
	h0.6l0.6,0.2l0.5,0.3l0.4,0.4v-3.6l2.5-1.2v14.1h-2.5v-0.7l-0.5,0.4l-0.5,0.4l-0.5,0.2l-0.6,0.1L125.6,92.7z"/>
<path class="st1" d="M127,90.5L127,90.5h-0.4l-0.4-0.2l-0.3-0.2l-0.4-0.3l-0.3-0.4l-0.2-0.5l-0.1-0.7l-0.1-0.9l0.1-0.8l0.1-0.6
	l0.2-0.5l0.3-0.4l0.3-0.3l0.4-0.1l0.4-0.1l0.3-0.1l0.6,0.1l0.5,0.3l0.4,0.4l0.3,0.3v4l-0.3,0.4l-0.4,0.3l-0.5,0.3L127,90.5z
	 M128.7,83.3L128.7,83.3l-0.4-0.4l-0.5-0.3l-0.6-0.2h-0.6l-0.9,0.1l-0.7,0.3l-0.7,0.4l-0.5,0.5l-0.4,0.8l-0.4,0.8l-0.2,1.1l-0.1,1.1
	l0.1,1.1l0.2,1.1l0.3,0.9l0.4,0.8l0.6,0.6l0.6,0.4l0.8,0.3l0.9,0.1l0.6-0.1l0.5-0.2l0.5-0.4l0.5-0.4v0.7h2.5V78.5l-2.5,1.2V83.3z"/>
<path class="st0" d="M181.4,84.7l-0.5,0.2l-0.4,0.4l-0.4,0.4v3.9l0.3,0.3l0.4,0.4l0.5,0.3l0.3,0.1h0.4l0.4-0.1l0.4-0.1l0.4-0.3
	l0.3-0.4l0.2-0.4l0.1-0.5l0.1-0.6l0.1-0.7l-0.1-0.7l-0.1-0.6l-0.2-0.4l-0.3-0.4l-0.3-0.3l-0.4-0.2l-0.4-0.1l-0.3-0.1L181.4,84.7z
	 M181.7,92.7l-0.6-0.2l-0.5-0.4l-0.4-0.4v0.7h-2.5V80l2.5-1.2v4.6l0.4-0.4l0.6-0.4l0.5-0.2h0.6l0.9,0.1l0.7,0.3l0.7,0.4l0.5,0.5
	l0.4,0.8l0.4,0.8l0.2,1.1l0.1,1.1l-0.1,1.1l-0.2,1.1l-0.3,0.9l-0.4,0.8l-0.6,0.6l-0.6,0.4l-0.8,0.3l-0.9,0.1L181.7,92.7z"/>
<path class="st1" d="M181.9,84.6L181.9,84.6l0.3,0.1l0.4,0.1l0.4,0.2l0.3,0.3l0.3,0.4l0.2,0.4l0.1,0.6l0.1,0.7l-0.1,0.7l-0.1,0.6
	l-0.1,0.5l-0.2,0.4l-0.3,0.4l-0.4,0.3l-0.4,0.1l-0.4,0.1h-0.4l-0.3-0.1l-0.5-0.3l-0.4-0.4l-0.3-0.3v-3.9l0.4-0.4l0.4-0.4l0.5-0.2
	L181.9,84.6z M182.4,82.4L182.4,82.4h-0.6l-0.5,0.2l-0.6,0.4l-0.4,0.4v-4.6l-2.5,1.2v12.6h2.5v-0.7l0.4,0.4l0.5,0.4l0.6,0.2l0.6,0.1
	l0.9-0.1l0.8-0.3l0.6-0.4l0.6-0.6l0.4-0.8l0.3-0.9l0.2-1.1l0.1-1.1l-0.1-1.1l-0.2-1.1l-0.4-0.8l-0.4-0.8l-0.5-0.5l-0.7-0.4l-0.7-0.3
	L182.4,82.4z"/>
<path class="st0" d="M152,84.7l-0.4,0.2l-0.3,0.3l-0.3,0.4l-0.2,0.5l-0.1,0.6l-0.1,0.8l0.1,0.9l0.1,0.6l0.2,0.6l0.3,0.4l0.3,0.3
	l0.4,0.2l0.4,0.2h0.3l0.6-0.1l0.4-0.3l0.4-0.3l0.3-0.4v-4l-0.3-0.4l-0.4-0.3l-0.5-0.3l-0.6-0.1h-0.4L152,84.7z M151.1,94.7
	L151.1,94.7l1.1-0.1l0.8-0.2l0.5-0.3l0.4-0.4l0.2-0.4l0.2-0.4V92v-0.2l-0.5,0.4l-0.5,0.4l-0.5,0.2l-0.7,0.1l-0.8-0.1l-0.8-0.4
	l-0.6-0.4l-0.6-0.5l-0.4-0.8l-0.3-0.9l-0.3-1.1v-1.2v-1.1l0.3-1.1l0.3-0.9l0.5-0.7l0.5-0.6l0.7-0.4l0.7-0.3l0.9-0.1h0.6l0.6,0.2
	l0.5,0.4l0.4,0.4v-0.7h2.5v9.1l-0.1,1.1l-0.2,1l-0.4,0.9L156,95l-0.4,0.4l-0.3,0.3l-0.4,0.3l-0.9,0.3l-1,0.3l-1.1,0.1L151.1,94.7z"
	/>
<path class="st1" d="M154.4,85.6v4l-0.3,0.4l-0.4,0.3l-0.4,0.3l-0.6,0.1h-0.3l-0.4-0.2l-0.4-0.2l-0.3-0.3l-0.3-0.4l-0.2-0.6
	l-0.1-0.6l-0.1-0.9l0.1-0.8l0.1-0.6l0.2-0.5l0.3-0.4l0.3-0.3l0.4-0.2l0.3-0.1h0.4l0.6,0.1l0.5,0.3l0.4,0.3L154.4,85.6z M154.4,83.3
	L154.4,83.3l-0.4-0.4l-0.5-0.4l-0.6-0.2h-0.6l-0.9,0.1l-0.7,0.3l-0.7,0.4l-0.5,0.6l-0.5,0.7l-0.3,0.9l-0.3,1.1v1.1v1.2l0.3,1.1
	l0.3,0.9l0.4,0.8l0.6,0.5l0.6,0.4l0.8,0.4l0.8,0.1l0.7-0.1l0.5-0.2l0.5-0.4l0.5-0.4V92v0.9l-0.2,0.4l-0.2,0.4l-0.4,0.4l-0.5,0.3
	l-0.8,0.2l-1.1,0.1h-0.1l0.9,1.9l1.1-0.1l1-0.3l0.9-0.3l0.4-0.3l0.3-0.3L156,95l0.2-0.4l0.4-0.9l0.2-1l0.1-1.1v-9.1h-2.5V83.3z"/>
<path class="st0" d="M166.2,88l-0.3,0.1l-0.3,0.2l-0.2,0.2l-0.2,0.3l-0.1,0.3v0.4v0.3l0.1,0.4l0.2,0.3l0.2,0.2l0.3,0.2l0.3,0.1
	l0.4,0.1l0.4,0.1l0.6-0.1l0.6-0.3l0.4-0.4l0.4-0.4v-1.4l-0.4-0.2l-0.4-0.2l-0.5-0.1h-0.5h-0.4L166.2,88z M165.7,92.7l-0.6-0.1
	l-0.6-0.3L164,92l-0.5-0.5l-0.4-0.6l-0.3-0.7l-0.1-0.9l0.1-0.9l0.3-0.7l0.4-0.5l0.5-0.4l0.6-0.4l0.6-0.2L166,86h0.7h0.5l0.6,0.1
	l0.5,0.2l0.4,0.2v-0.7v-0.3l-0.1-0.4l-0.2-0.3l-0.2-0.2l-0.3-0.2l-0.4-0.1l-0.7-0.1l-0.7,0.1l-0.7,0.1l-0.6,0.3l-0.5,0.3l-1-1.7
	l0.9-0.4l0.9-0.4l1-0.2h1h0.9l0.8,0.2l0.7,0.4l0.6,0.4l0.4,0.5l0.4,0.5l0.2,0.7l0.1,0.8v6.7h-2.5v-0.8l-0.5,0.4l-0.7,0.4l-0.6,0.2
	l-0.5,0.1L165.7,92.7z"/>
<path class="st1" d="M165.2,89.3L165.2,89.3v-0.4l0.1-0.3l0.2-0.3l0.2-0.2l0.3-0.2l0.3-0.1l0.4-0.1h0.4h0.5l0.5,0.1l0.4,0.2l0.4,0.2
	v1.4l-0.4,0.4l-0.4,0.3l-0.6,0.3l-0.6,0.1l-0.4-0.1l-0.4-0.1l-0.3-0.1l-0.3-0.2l-0.2-0.2l-0.2-0.3l-0.1-0.4V89.3z M164.5,85.1
	L164.5,85.1l0.5-0.3l0.6-0.3l0.7-0.1l0.7-0.1l0.7,0.1l0.4,0.1l0.3,0.2l0.2,0.2l0.2,0.3l0.1,0.4v0.3v0.7l-0.4-0.2l-0.5-0.2l-0.6-0.1
	h-0.5H166l-0.7,0.2l-0.6,0.2l-0.6,0.4l-0.5,0.4l-0.4,0.5l-0.3,0.7l-0.1,0.9l0.1,0.9l0.3,0.7l0.4,0.6L164,92l0.5,0.3l0.6,0.3l0.6,0.1
	l0.7,0.1l0.5-0.1l0.6-0.2l0.7-0.4l0.5-0.4v0.8h2.5v-6.7l-0.1-0.8l-0.2-0.7l-0.4-0.5l-0.4-0.5l-0.6-0.4l-0.7-0.4l-0.8-0.2h-0.9h-1
	l-1,0.2l-0.9,0.4l-0.9,0.4L164.5,85.1z"/>
<path class="st0" d="M191.5,84.5l-0.4,0.1l-0.4,0.2l-0.3,0.3l-0.2,0.3l-0.2,0.4l-0.2,0.4v0.4h3.7l-0.1-0.8l-0.2-0.3l-0.2-0.3
	l-0.3-0.3l-0.4-0.3l-0.4-0.1l-0.4-0.1L191.5,84.5z M191.2,92.7l-1-0.4l-0.8-0.4l-0.6-0.5l-0.6-0.8l-0.4-0.9l-0.3-1l-0.1-1.1l0.1-1.1
	l0.3-1l0.4-0.9l0.5-0.8l0.7-0.6l0.7-0.4l0.9-0.3l1-0.1l0.9,0.1l0.8,0.3l0.7,0.4l0.6,0.6l0.5,0.7l0.4,0.9l0.2,1.1l0.1,1.1v0.7h-6.2
	l0.2,0.7l0.2,0.5l0.4,0.4l0.3,0.3l0.4,0.2l0.3,0.1l0.6,0.1l0.6-0.1l0.5-0.2l0.4-0.3l0.4-0.4l1.6,1.6l-0.4,0.4l-0.4,0.4l-0.4,0.3
	l-0.4,0.2l-0.9,0.4l-1,0.1L191.2,92.7z"/>
<path class="st1" d="M190,86.6L190,86.6v-0.4l0.2-0.4l0.2-0.4l0.2-0.3l0.3-0.3l0.4-0.2l0.4-0.1l0.4-0.1l0.4,0.1l0.4,0.1l0.4,0.3
	l0.3,0.3l0.2,0.3l0.2,0.3l0.1,0.8H190z M194.1,89.6L194.1,89.6l-0.4,0.4l-0.4,0.3l-0.5,0.2l-0.6,0.1l-0.6-0.1l-0.3-0.1l-0.4-0.2
	l-0.3-0.3l-0.4-0.4l-0.2-0.5l-0.2-0.7h6.2v-0.7l-0.1-1.1l-0.2-1.1l-0.4-0.9l-0.5-0.7l-0.6-0.6l-0.7-0.4l-0.8-0.3l-0.9-0.1l-1,0.1
	l-0.9,0.3l-0.7,0.4l-0.7,0.6l-0.5,0.8l-0.4,0.9l-0.3,1l-0.1,1.1l0.1,1.1l0.3,1l0.4,0.9l0.6,0.8l0.6,0.5l0.8,0.4l1,0.4l1.1,0.1l1-0.1
	l0.9-0.4l0.4-0.2l0.4-0.3l0.4-0.4l0.4-0.4L194.1,89.6z"/>
<path class="st0" d="M215.2,84.5l-0.4,0.1l-0.3,0.2l-0.3,0.3l-0.3,0.3l-0.2,0.4l-0.1,0.4v0.4h3.7l-0.2-0.8l-0.1-0.3l-0.2-0.3
	l-0.3-0.3l-0.4-0.3l-0.4-0.1l-0.4-0.1L215.2,84.5z M214.9,92.7l-1-0.4l-0.8-0.4l-0.7-0.5l-0.5-0.8l-0.4-0.9l-0.2-1l-0.1-1.1l0.1-1.1
	l0.2-1l0.4-0.9l0.5-0.8l0.6-0.6l0.8-0.4l0.9-0.3l0.9-0.1l1,0.1l0.8,0.3l0.7,0.4l0.6,0.6l0.4,0.7l0.4,0.9l0.3,1.1l0.1,1.1v0.7h-6.2
	l0.1,0.7l0.3,0.5l0.3,0.4l0.4,0.3l0.4,0.2l0.4,0.1l0.5,0.1l0.6-0.1l0.5-0.2l0.4-0.3l0.4-0.4l1.5,1.6l-0.4,0.4l-0.4,0.4l-0.4,0.3
	l-0.4,0.2l-1,0.4l-1,0.1L214.9,92.7z"/>
<path class="st1" d="M213.8,86.6L213.8,86.6v-0.4l0.1-0.4l0.2-0.4l0.3-0.3l0.3-0.3l0.3-0.2l0.4-0.1l0.4-0.1l0.4,0.1l0.4,0.1l0.4,0.3
	l0.3,0.3l0.2,0.3l0.1,0.3l0.2,0.8H213.8z M217.9,89.6L217.9,89.6l-0.4,0.4l-0.4,0.3l-0.5,0.2l-0.6,0.1l-0.5-0.1l-0.4-0.1l-0.4-0.2
	l-0.4-0.3l-0.3-0.4l-0.3-0.5l-0.1-0.7h6.2v-0.7l-0.1-1.1l-0.3-1.1l-0.4-0.9l-0.4-0.7l-0.6-0.6l-0.7-0.4l-0.8-0.3l-1-0.1l-0.9,0.1
	l-0.9,0.3l-0.8,0.4l-0.6,0.6l-0.5,0.8l-0.4,0.9l-0.2,1l-0.1,1.1l0.1,1.1l0.2,1l0.4,0.9l0.5,0.8l0.7,0.5l0.8,0.4l1,0.4l1,0.1l1-0.1
	l1-0.4l0.4-0.2l0.4-0.3l0.4-0.4l0.4-0.4L217.9,89.6z"/>
<polygon class="st0" points="207.3,92.7 206.7,92.5 206.3,92.2 205.9,91.8 205.7,91.3 205.5,90.8 205.4,90.3 205.3,89.7 205.3,84.9 
	203.8,84.9 203.8,82.6 205.3,82.6 205.3,80.1 207.8,78.8 207.8,82.6 210.1,82.6 210.1,84.9 207.8,84.9 207.8,89.1 207.9,89.7 
	208,90.1 208.2,90.3 208.4,90.3 208.8,90.4 209.3,90.4 209.6,90.3 210.3,90 210.1,92.3 209.6,92.5 209.1,92.6 208.6,92.7 208,92.8 
	"/>
<polygon class="st1" points="207.8,84.9 210.1,84.9 210.1,82.6 207.8,82.6 207.8,78.8 205.3,80.1 205.3,82.6 203.8,82.6 203.8,84.9 
	205.3,84.9 205.3,89.7 205.4,90.3 205.5,90.8 205.7,91.3 205.9,91.8 206.3,92.2 206.7,92.5 207.3,92.7 208,92.8 208.6,92.7 
	209.1,92.6 209.6,92.5 210.1,92.3 210.3,90 209.6,90.3 209.3,90.4 208.8,90.4 208.4,90.3 208.2,90.3 208,90.1 207.9,89.7 
	207.8,89.1 "/>
<polygon class="st0" points="200.3,92.7 199.7,92.5 199.3,92.2 198.9,91.8 198.6,91.3 198.5,90.8 198.4,90.3 198.3,89.7 198.3,84.9 
	196.8,84.9 196.8,82.6 198.3,82.6 198.3,80.1 200.7,78.8 200.7,82.6 202.9,82.6 202.9,84.9 200.7,84.9 200.7,89.1 200.8,89.7 
	201,90.1 201.2,90.3 201.4,90.3 201.8,90.4 202.2,90.4 202.6,90.3 203.3,90 203,92.3 202.6,92.5 202.1,92.6 201.5,92.7 200.9,92.8 
	"/>
<polygon class="st1" points="203.3,90 203.3,90 202.6,90.3 202.2,90.4 201.8,90.4 201.4,90.3 201.2,90.3 201,90.1 200.8,89.7 
	200.7,89.1 200.7,84.9 202.9,84.9 202.9,82.6 200.7,82.6 200.7,78.8 198.3,80.1 198.3,82.6 196.8,82.6 196.8,84.9 198.3,84.9 
	198.3,89.7 198.4,90.3 198.5,90.8 198.6,91.3 198.9,91.8 199.3,92.2 199.7,92.5 200.3,92.7 200.9,92.8 201.5,92.7 202.1,92.6 
	202.6,92.5 203,92.3 "/>
<polygon class="st0" points="221.4,92.5 221.4,82.6 223.9,82.6 223.9,83.5 224.3,83 224.9,82.7 225.5,82.4 226.1,82.4 226.5,82.4 
	227.1,82.5 227.5,82.8 227.9,83 227.2,85.4 226.9,85.2 226.5,85 226.1,84.9 225.6,84.9 225.2,84.9 224.9,85 224.6,85.2 224.3,85.4 
	224.2,85.8 224,86.1 223.9,86.7 223.9,87.2 223.9,92.5 "/>
<polygon class="st1" points="227.9,83 227.9,83 227.5,82.8 227.1,82.5 226.5,82.4 226.1,82.4 225.5,82.4 224.9,82.7 224.3,83 
	223.9,83.5 223.9,82.6 221.4,82.6 221.4,92.5 223.9,92.5 223.9,87.2 223.9,86.7 224,86.1 224.2,85.8 224.3,85.4 224.6,85.2 
	224.9,85 225.2,84.9 225.6,84.9 226.1,84.9 226.5,85 226.9,85.2 227.2,85.4 "/>
<rect x="113.8" y="78.7" class="st0" width="2.5" height="2.5"/>
<rect x="113.8" y="78.7" class="st1" width="2.5" height="2.5"/>
<rect x="133.3" y="82.6" class="st0" width="2.5" height="9.9"/>
<rect x="133.3" y="82.6" class="st1" width="2.5" height="9.9"/>
<rect x="133.3" y="78.7" class="st0" width="2.5" height="2.5"/>
<rect x="133.3" y="78.7" class="st1" width="2.5" height="2.5"/>
<path class="st0" d="M200.9,102.1l-0.3,0.2l-0.3,0.3l-0.3,0.4l-0.2,0.4l-0.2,0.7v0.7v0.9l0.2,0.7l0.2,0.5l0.3,0.4l0.3,0.3l0.4,0.2
	l0.3,0.1h0.4h0.6l0.4-0.3l0.4-0.4l0.4-0.3V103l-0.3-0.4l-0.4-0.3l-0.4-0.3l-0.6-0.1h-0.4L200.9,102.1z M201.1,110.1l-0.9-0.1
	l-0.7-0.3l-0.7-0.4l-0.5-0.6l-0.4-0.7l-0.4-1l-0.2-1l-0.1-1.2l0.1-1.1l0.2-1l0.4-0.9l0.4-0.7l0.5-0.6l0.7-0.4l0.8-0.3l0.9-0.1
	l0.5,0.1l0.6,0.2l0.5,0.3l0.5,0.4v-3.6l2.5-1.2V110h-2.5v-0.8l-0.5,0.4l-0.6,0.4l-0.5,0.2H201.1z"/>
<path class="st1" d="M201.6,107.8L201.6,107.8h-0.4l-0.3-0.1l-0.4-0.2l-0.3-0.3l-0.3-0.4l-0.2-0.5l-0.2-0.7v-0.9v-0.7l0.2-0.7
	l0.2-0.4l0.3-0.4l0.3-0.3l0.3-0.2l0.4-0.1h0.4l0.6,0.1l0.4,0.3l0.4,0.3l0.3,0.4v3.9l-0.4,0.4l-0.4,0.4l-0.4,0.3H201.6z M203.4,100.7
	L203.4,100.7l-0.5-0.4l-0.5-0.3l-0.6-0.2l-0.5-0.1l-0.9,0.1l-0.8,0.3l-0.7,0.4l-0.5,0.6l-0.4,0.7l-0.4,0.9l-0.2,1l-0.1,1.1l0.1,1.2
	l0.2,1l0.4,1l0.4,0.7l0.5,0.6l0.7,0.4l0.7,0.3l0.9,0.1h0.6l0.5-0.2l0.6-0.4l0.5-0.4v0.8h2.5V95.9l-2.5,1.2V100.7z"/>
<polygon class="st0" points="114,110 114,100 116.4,100 116.4,100.9 116.9,100.4 117.4,100 117.9,99.8 118.6,99.8 119.1,99.8 
	119.6,99.9 120.1,100.1 120.5,100.4 119.8,102.7 119.4,102.6 119,102.4 118.6,102.3 118.2,102.2 117.8,102.3 117.4,102.4 
	117.1,102.6 116.9,102.8 116.6,103.1 116.5,103.5 116.4,104 116.4,104.6 116.4,110 "/>
<polygon class="st1" points="120.5,100.4 120.5,100.4 120.1,100.1 119.6,99.9 119.1,99.8 118.6,99.8 117.9,99.8 117.4,100 
	116.9,100.4 116.4,100.9 116.4,100 114,100 114,110 116.4,110 116.4,104.6 116.4,104 116.5,103.5 116.6,103.1 116.9,102.8 
	117.1,102.6 117.4,102.4 117.8,102.3 118.2,102.2 118.6,102.3 119,102.4 119.4,102.6 119.8,102.7 "/>
<polygon class="st0" points="98,110 96.9,105.8 96.3,103.6 95.8,105.9 94.7,110 92.6,110 92.5,109.9 89.9,100.4 89.9,100 92.2,100 
	93.2,103.7 93.7,106.2 94,104.9 94.3,103.6 95.3,100 97.4,100 98.4,103.6 99,106.2 99.6,103.6 100.4,100 102.9,100 100.1,110 "/>
<g>
	<polygon class="st1" points="99.6,103.6 99.6,103.6 99,106.2 98.4,103.6 97.4,100 95.3,100 94.3,103.6 94,104.9 93.7,106.2 
		93.2,103.7 92.2,100 89.8,100 92.5,109.9 92.6,110 94.7,110 95.8,105.9 96.3,103.6 96.9,105.8 98,110 100.1,110 102.9,100 
		100.4,100 	"/>
</g>
<path class="st0" d="M107.1,102.3l-0.4,0.3l-0.4,0.3l-0.2,0.4l-0.2,0.5l-0.1,0.5l-0.1,0.6l0.1,0.6l0.1,0.6l0.2,0.4l0.2,0.4l0.4,0.4
	l0.4,0.3l0.4,0.1l0.4,0.1l0.4-0.1l0.4-0.1l0.4-0.3l0.4-0.4l0.2-0.4l0.2-0.4l0.2-0.6v-0.6v-0.6l-0.2-0.5l-0.2-0.5l-0.2-0.4l-0.4-0.3
	l-0.4-0.3l-0.4-0.2h-0.4h-0.4L107.1,102.3z M106.9,110l-0.9-0.3l-0.7-0.4l-0.7-0.6l-0.5-0.8l-0.4-0.9l-0.2-1l-0.1-1.1l0.1-1.1l0.2-1
	l0.4-1l0.5-0.7l0.7-0.6l0.7-0.4l0.9-0.4l1-0.1l1,0.1l0.9,0.4l0.7,0.4l0.7,0.6l0.5,0.7l0.4,1l0.2,1l0.1,1.1l-0.1,1.1l-0.2,1l-0.4,0.9
	l-0.5,0.8l-0.7,0.6l-0.7,0.4l-0.9,0.3l-1,0.1L106.9,110z"/>
<path class="st1" d="M107.9,107.8L107.9,107.8l-0.4-0.1l-0.4-0.1l-0.4-0.3l-0.4-0.4l-0.2-0.4l-0.2-0.4l-0.1-0.6l-0.1-0.6l0.1-0.6
	l0.1-0.5l0.2-0.5l0.2-0.4l0.4-0.3l0.4-0.3l0.4-0.2h0.4h0.4l0.4,0.2l0.4,0.3l0.4,0.3l0.2,0.4l0.2,0.5l0.2,0.5v0.6v0.6l-0.2,0.6
	l-0.2,0.4l-0.2,0.4l-0.4,0.4l-0.4,0.3l-0.4,0.1L107.9,107.8z M107.9,99.8L107.9,99.8l-1,0.1l-0.9,0.4l-0.7,0.4l-0.7,0.6l-0.5,0.7
	l-0.4,1l-0.2,1l-0.1,1.1l0.1,1.1l0.2,1l0.4,0.9l0.5,0.8l0.7,0.6l0.7,0.4l0.9,0.3l1,0.1l1-0.1l0.9-0.3l0.7-0.4l0.7-0.6l0.5-0.8
	l0.4-0.9l0.2-1l0.1-1.1l-0.1-1.1l-0.2-1l-0.4-1l-0.5-0.7l-0.7-0.6l-0.7-0.4l-0.9-0.4L107.9,99.8z"/>
<polygon class="st0" points="185.3,110 185.3,100 187.8,100 187.8,100.9 188.3,100.4 188.9,100 189.4,99.8 190,99.8 190.5,99.8 
	191.1,99.9 191.5,100.1 191.9,100.4 191.2,102.7 190.9,102.6 190.5,102.4 190,102.3 189.6,102.2 189.2,102.3 188.9,102.4 
	188.5,102.6 188.3,102.8 188.1,103.1 188,103.5 187.9,104 187.8,104.6 187.8,110 "/>
<polygon class="st1" points="191.9,100.4 191.9,100.4 191.5,100.1 191.1,99.9 190.5,99.8 190,99.8 189.4,99.8 188.9,100 
	188.3,100.4 187.8,100.9 187.8,100 185.3,100 185.3,110 187.8,110 187.8,104.6 187.9,104 188,103.5 188.1,103.1 188.3,102.8 
	188.5,102.6 188.9,102.4 189.2,102.3 189.6,102.2 190,102.3 190.5,102.4 190.9,102.6 191.2,102.7 "/>
<polygon class="st0" points="169.4,110 168.3,105.8 167.7,103.6 167.2,105.9 166.1,110 164,110 164,109.9 161.1,100 163.7,100 
	164.6,103.7 165.1,106.2 165.4,104.9 165.7,103.6 166.8,100 168.8,100 169.9,103.6 170.5,106.2 171,103.6 171.9,100 174.3,100 
	171.5,110 "/>
<polygon class="st1" points="171,103.6 171,103.6 170.5,106.2 169.9,103.6 168.8,100 166.8,100 165.7,103.6 165.4,104.9 
	165.1,106.2 164.6,103.7 163.7,100 161.1,100 164,109.9 164,110 166.1,110 167.2,105.9 167.7,103.6 168.3,105.8 169.4,110 
	171.5,110 174.3,100 171.9,100 "/>
<path class="st0" d="M178.5,102.3l-0.4,0.3l-0.3,0.3l-0.3,0.4l-0.2,0.5l-0.1,0.5v0.6v0.6l0.1,0.6l0.2,0.4l0.3,0.4l0.3,0.4l0.4,0.3
	l0.4,0.1l0.4,0.1l0.4-0.1l0.4-0.1l0.4-0.3l0.3-0.4l0.3-0.4l0.2-0.4l0.1-0.6v-0.6v-0.6l-0.1-0.5l-0.2-0.5l-0.3-0.4l-0.3-0.3l-0.4-0.3
	l-0.4-0.2h-0.4h-0.4L178.5,102.3z M178.4,110l-0.9-0.3l-0.8-0.4l-0.6-0.6l-0.5-0.8l-0.4-0.9l-0.3-1l-0.1-1.1l0.1-1.1l0.3-1l0.4-0.9
	l0.5-0.8l0.6-0.6l0.8-0.4l0.9-0.4l1-0.1l0.9,0.1l0.9,0.4l0.8,0.4l0.6,0.6l0.6,0.8l0.4,0.9l0.3,1l0.1,1.1l-0.1,1.1l-0.3,1l-0.4,0.9
	l-0.6,0.8l-0.6,0.6l-0.8,0.4l-0.9,0.3l-0.9,0.1L178.4,110z"/>
<path class="st1" d="M179.4,107.8L179.4,107.8l-0.4-0.1l-0.4-0.1l-0.4-0.3l-0.3-0.4l-0.3-0.4l-0.2-0.4l-0.1-0.6v-0.6v-0.6l0.1-0.5
	l0.2-0.5l0.3-0.4l0.3-0.3l0.4-0.3l0.4-0.2h0.4h0.4l0.4,0.2l0.4,0.3l0.3,0.3l0.3,0.4l0.2,0.5l0.1,0.5v0.6v0.6l-0.1,0.6l-0.2,0.4
	l-0.3,0.4l-0.3,0.4l-0.4,0.3l-0.4,0.1L179.4,107.8z M179.4,99.8L179.4,99.8l-1,0.1l-0.9,0.4l-0.8,0.4l-0.6,0.6l-0.5,0.8l-0.4,0.9
	l-0.3,1l-0.1,1.1l0.1,1.1l0.3,1l0.4,0.9l0.5,0.8l0.6,0.6l0.8,0.4l0.9,0.3l1,0.1l0.9-0.1l0.9-0.3l0.8-0.4l0.6-0.6l0.6-0.8l0.4-0.9
	l0.3-1l0.1-1.1l-0.1-1.1l-0.3-1l-0.4-0.9l-0.6-0.8l-0.6-0.6l-0.8-0.4l-0.9-0.4L179.4,99.8z"/>
<polygon class="st0" points="127.4,110 125.3,105.3 124.1,107 124.1,110 121.6,110 121.6,97.1 124.1,95.9 124.1,103.8 125,102.6 
	126.9,100 129.8,100 127.2,103.3 130.2,110 "/>
<polygon class="st1" points="129.8,100 126.9,100 125,102.6 124.1,103.8 124.1,95.9 121.6,97.1 121.6,110 124.1,110 124.1,107 
	125.3,105.3 127.4,110 130.2,110 127.2,103.3 "/>
<polygon class="st0" points="142.5,110 142.5,104.4 142.5,103.9 142.4,103.4 142.2,102.9 142.1,102.7 141.8,102.4 141.5,102.2 
	141.2,102 140.7,102 140.3,102 139.9,102.2 139.6,102.4 139.3,102.7 139.1,103 139,103.4 138.9,103.9 138.8,104.4 138.8,110 
	136.3,110 136.3,100 138.8,100 138.8,100.8 139.3,100.4 139.9,100 140.6,99.8 141.4,99.8 142.1,99.8 142.9,100.1 143.6,100.5 
	144.1,100.9 144.4,101.6 144.7,102.4 144.9,103.3 145,104.3 145,110 "/>
<polygon class="st1" points="138.8,104.4 138.8,104.4 138.9,103.9 139,103.4 139.1,103 139.3,102.7 139.6,102.4 139.9,102.2 
	140.3,102 140.7,102 141.2,102 141.5,102.2 141.8,102.4 142.1,102.7 142.2,102.9 142.4,103.4 142.5,103.9 142.5,104.4 142.5,110 
	145,110 145,104.3 144.9,103.3 144.7,102.4 144.4,101.6 144.1,100.9 143.6,100.5 142.9,100.1 142.1,99.8 141.4,99.8 140.6,99.8 
	139.9,100 139.3,100.4 138.8,100.8 138.8,100 136.3,100 136.3,110 138.8,110 "/>
<path class="st0" d="M150.3,102.1l-0.4,0.2l-0.3,0.3l-0.3,0.4l-0.2,0.4l-0.1,0.7l-0.1,0.7l0.1,0.9l0.1,0.7l0.2,0.5l0.3,0.4l0.4,0.3
	l0.3,0.2l0.4,0.1h0.3h0.6l0.4-0.3l0.4-0.4l0.3-0.4V103l-0.3-0.4l-0.4-0.3l-0.5-0.3l-0.6-0.1h-0.3L150.3,102.1z M149.4,112.1
	L149.4,112.1l1.1-0.1l0.8-0.2l0.5-0.4l0.4-0.4l0.2-0.4l0.2-0.4v-0.9v-0.3l-0.4,0.4l-0.6,0.3l-0.5,0.3h-0.6l-0.9-0.1l-0.8-0.3
	l-0.6-0.4l-0.6-0.6l-0.4-0.7l-0.3-1l-0.2-1.1l-0.1-1.1l0.1-1.1l0.2-1l0.4-0.9l0.4-0.7l0.5-0.6l0.7-0.4l0.7-0.3l0.9-0.1l0.6,0.1
	l0.6,0.2l0.5,0.3l0.4,0.4V100h2.5v9l-0.1,1.1l-0.2,1.1l-0.4,0.9l-0.3,0.4l-0.3,0.3l-0.4,0.3l-0.4,0.3l-0.9,0.4l-1,0.3l-1.1,0.1
	L149.4,112.1z"/>
<g>
	<path class="st1" d="M152.7,103v3.9l-0.3,0.4l-0.4,0.4l-0.4,0.3h-0.6h-0.3l-0.4-0.1l-0.3-0.2l-0.4-0.3l-0.3-0.4l-0.2-0.5l-0.1-0.7
		l-0.1-0.9l0.1-0.7l0.1-0.7l0.2-0.4l0.3-0.4l0.3-0.3l0.4-0.2l0.4-0.1h0.3l0.6,0.1l0.5,0.3l0.4,0.3L152.7,103z M152.7,100.7
		L152.7,100.7l-0.4-0.4l-0.5-0.3l-0.6-0.2l-0.6-0.1l-0.9,0.1l-0.7,0.3l-0.7,0.4l-0.5,0.6l-0.4,0.7l-0.4,0.9l-0.2,1l-0.1,1.1l0.1,1.1
		l0.2,1.1l0.3,1l0.4,0.7l0.6,0.6l0.6,0.4l0.8,0.3l0.9,0.1h0.6l0.5-0.3l0.6-0.3l0.4-0.4v0.3v0.9l-0.2,0.4l-0.2,0.4l-0.4,0.4l-0.5,0.4
		l-0.8,0.2l-1.1,0.1h-0.1l0.9,1.9l1.1-0.1l1-0.3l0.9-0.3l0.4-0.3l0.4-0.3l0.3-0.3l0.3-0.4l0.4-0.9l0.2-1.1l0.1-1.1v-9h-2.5V100.7z"
		/>
</g>
<rect x="131.7" y="100" class="st0" width="2.5" height="9.9"/>
<rect x="131.7" y="100" class="st1" width="2.5" height="9.9"/>
<rect x="131.7" y="96.1" class="st0" width="2.5" height="2.5"/>
<rect x="131.7" y="96.1" class="st1" width="2.5" height="2.5"/>
<polygon class="st0" points="193.1,110 193.1,97.1 195.6,95.9 195.6,110 "/>
<polygon class="st1" points="193.1,110 195.6,110 195.6,95.9 193.1,97.1 "/>
<polygon class="st2" points="1.3,42.3 103.5,5 103.5,5 103.5,24.3 1.3,42.3 "/>
<polygon class="st0" points="3.1,106.8 3.1,57.2 31.2,57.2 37.8,68.6 17.9,68.6 17.9,76.8 35.9,76.8 35.9,87.2 17.9,87.2 17.9,95.4 
	42.8,95.4 42.8,106.8 "/>
<polygon class="st3" points="17.9,87.2 35.9,87.2 35.9,76.8 17.9,76.8 17.9,68.6 37.8,68.6 31.2,57.2 3.1,57.2 3.1,106.8 
	42.8,106.8 42.8,95.4 17.9,95.4 "/>
<polygon class="st0" points="53.2,106.8 53.2,87.2 35.9,57.2 52.3,57.2 60.7,73.4 69.1,57.2 85.4,57.2 68,87.2 68,106.8 "/>
<polygon class="st3" points="69.1,57.2 60.7,73.4 52.3,57.2 35.9,57.2 53.2,87.2 53.2,106.8 68,106.8 68,87.2 85.4,57.2 "/>
</svg>
