<?xml version="1.0" encoding="utf-8"?>
<!-- Generator: Adobe Illustrator 15.1.0, SVG Export Plug-In . SVG Version: 6.00 Build 0)  -->
<!DOCTYPE svg PUBLIC "-//W3C//DTD SVG 1.1//EN" "http://www.w3.org/Graphics/SVG/1.1/DTD/svg11.dtd">
<svg version="1.1" id="Capa_1" xmlns="http://www.w3.org/2000/svg" xmlns:xlink="http://www.w3.org/1999/xlink" x="0px" y="0px"
	 width="864px" height="864px" viewBox="399.341 0 864 864" enable-background="new 399.341 0 864 864" xml:space="preserve">
<g>
	<path fill="#343A6E" stroke="#000000" stroke-width="5" stroke-miterlimit="10" d="M1233.037,432
		c0,86.258-27.201,166.188-73.485,231.656c-41.007,57.992-96.981,104.637-162.318,134.299
		c-26.807,12.165-55.188,21.478-84.75,27.544c-26.217,5.378-53.352,8.197-81.143,8.197c-27.807,0-54.943-2.819-81.159-8.197
		c-29.562-6.066-57.943-15.379-84.75-27.562c-65.321-29.66-121.296-76.307-162.301-134.281
		c-15.068-21.331-28.134-44.202-38.875-68.321c-6.854-15.346-12.755-31.2-17.642-47.499c-11.051-36.677-16.97-75.567-16.97-115.836
		c0-221.851,179.846-401.696,401.696-401.696c93.735,0,179.944,32.087,248.281,85.897c13.297,10.46,25.904,21.741,37.759,33.776
		C1188.898,222.495,1233.037,322.099,1233.037,432z"/>
	<circle fill="#484B7F" cx="831.341" cy="375.697" r="345.393"/>
	<g>
		<path fill="#F9DF73" d="M665.432,599.073v198.864c-65.321-29.66-121.296-76.307-162.301-134.281v-64.583H665.432z"/>
		<path fill="#F9DF73" d="M912.483,432v393.497c-26.217,5.38-53.352,8.199-81.143,8.199c-27.807,0-54.943-2.819-81.159-8.197V432
			H912.483z"/>
		<path fill="#F9DF73" d="M1159.552,262.156v401.5c-41.007,57.992-96.981,104.637-162.318,134.299V262.156H1159.552z"/>
	</g>
	<path fill="#EF487D" d="M1201.652,42.266L1086.83,56.8c-8.666,1.097-12.895,11.165-7.611,18.122l13.569,17.868
		c3.93,5.173,2.723,12.582-2.644,16.24l-10.521,7.173L446.615,547.836c4.886,16.297,10.788,32.151,17.642,47.499l653.125-445.358
		l3.503-2.387c4.993-3.403,11.774-2.299,15.431,2.514l12.903,16.99c5.283,6.957,16.116,5.586,19.5-2.468l44.823-106.707
		C1216.923,49.864,1210.319,41.167,1201.652,42.266z"/>
</g>
</svg>
