<?xml version="1.0" encoding="utf-8"?>
<!-- Generator: Adobe Illustrator 15.1.0, SVG Export Plug-In . SVG Version: 6.00 Build 0)  -->
<!DOCTYPE svg PUBLIC "-//W3C//DTD SVG 1.1//EN" "http://www.w3.org/Graphics/SVG/1.1/DTD/svg11.dtd">
<svg version="1.1" id="Capa_1" xmlns="http://www.w3.org/2000/svg" xmlns:xlink="http://www.w3.org/1999/xlink" x="0px" y="0px"
	 width="864px" height="864px" viewBox="396 0 864 864" enable-background="new 396 0 864 864" xml:space="preserve">
<g>
	<path fill="#C8FFFA" stroke="#000000" stroke-width="4" stroke-miterlimit="10" d="M1234,432c0,224.228-181.772,406-406,406
		S422,656.228,422,432c0-224.228,181.772-406,406-406S1234,207.772,1234,432z"/>
	<path fill="#9BF5F0" d="M1230.125,432.39c0,222.088-180.038,402.125-402.125,402.125c-222.087,0-402.125-180.037-402.125-402.125
		c0-67.804,16.806-131.672,46.442-187.71h22.772c8.188,0,15.935,3.57,21.253,9.797l40.94,47.933
		c11.295,13.225,27.749,20.81,45.143,20.81c17.392,0,33.846-7.584,45.141-20.809l154.991-181.454
		c5.317-6.225,13.063-9.795,21.251-9.795h246.102C1167.215,184.555,1230.125,301.121,1230.125,432.39z"/>
	<path fill="#50C8C8" d="M1139.733,692.094C1065.258,781.26,953.263,838,828,838s-237.257-56.74-311.733-145.906H1139.733z"/>
	<path fill="#AF32C3" d="M1234,422.484c0,0.552-0.028,1.096-0.084,1.634c0.049,2.621,0.084,5.248,0.084,7.882
		c0,138.157-69.025,260.175-174.453,333.509V422.484V98.492V73.578c0-8.759,7.1-15.859,15.859-15.859h142.734
		c8.76,0,15.859,7.1,15.859,15.859V422.484z"/>
	<path fill="#782891" d="M1059.547,98.492c25.551,17.774,48.973,38.392,69.781,61.423v544.169
		c-20.809,23.03-44.23,43.648-69.781,61.423V98.492z"/>
	<path fill="#82E1E1" d="M1056.375,113.227c0,8.758-7.102,15.859-15.859,15.859H823.77c-8.268,0-16.089,3.605-21.456,9.89
		L645.83,322.178c-11.406,13.352-28.017,21.009-45.577,21.009c-17.561,0-34.174-7.658-45.577-21.011l-41.336-48.395
		c-5.37-6.287-13.189-9.892-21.457-9.892h-33.54c4.937-10.838,10.346-21.415,16.183-31.719h17.354
		c17.561,0,34.174,7.659,45.577,21.01l41.336,48.395c5.37,6.287,13.19,9.892,21.458,9.892s16.091-3.605,21.459-9.892
		l156.482-183.201c11.405-13.351,28.018-21.009,45.579-21.009h216.746C1049.273,97.367,1056.375,104.469,1056.375,113.227z"/>
	<path fill="#FFEB50" d="M1097.609,327.328v408.196c-48.994,43.552-108.596,75.415-174.453,91.232V327.328
		c0-8.759,7.1-15.859,15.859-15.859h142.734C1090.51,311.469,1097.609,318.569,1097.609,327.328z"/>
	<path fill="#F7D139" d="M939.016,311.469h69.781c-8.76,0-15.859,7.1-15.859,15.859v475.746
		c-22.274,9.915-45.606,17.877-69.781,23.685V327.328c0-2.19,0.444-4.276,1.246-6.174c0.401-0.948,0.894-1.852,1.463-2.695
		c0.285-0.422,0.59-0.83,0.913-1.222c2.585-3.133,6.352-5.255,10.616-5.688C937.928,311.497,938.469,311.469,939.016,311.469z"/>
	<path fill="#50C8C8" d="M564.734,281.333c0,13.138-10.651,23.789-23.789,23.789s-23.789-10.651-23.789-23.789
		c0-13.137,10.651-23.789,23.789-23.789S564.734,268.193,564.734,281.333z M889.852,90.755c-13.139,0-23.789,10.651-23.789,23.789
		s10.65,23.789,23.789,23.789c13.138,0,23.789-10.651,23.789-23.789C913.641,101.405,902.989,90.755,889.852,90.755z
		 M733.637,167.938c-13.138,0-23.789,10.651-23.789,23.789s10.651,23.789,23.789,23.789s23.789-10.651,23.789-23.789
		C757.426,178.588,746.775,167.938,733.637,167.938z"/>
	<g>
		<path fill="#FFFFFF" d="M1097.688,256.579l-77.669,67.859c-1.348,1.176-3.355,1.176-4.703,0l-77.669-67.859
			c-44.013-38.453-44.013-101.375,0-139.826l0,0c44.012-38.453,116.031-38.453,160.044,0l0,0
			C1141.7,155.206,1141.7,218.127,1097.688,256.579z"/>
		<path fill="#FFEB50" d="M1069.375,159.32l-51.756,51.757l-31.976,31.975c-3.879,3.877-10.187,3.877-14.063,0l-5.622-5.623
			c-3.878-3.878-3.878-10.187,0-14.063l31.976-31.975l51.756-51.758c3.879-3.878,10.187-3.878,14.064,0l5.622,5.622
			C1073.254,149.136,1073.254,155.443,1069.375,159.32z M979.397,169.968c9.328,0,16.894-7.563,16.894-16.894
			c0-9.331-7.565-16.894-16.894-16.894c-9.331,0-16.894,7.563-16.894,16.894C962.504,162.406,970.066,169.968,979.397,169.968z
			 M1055.937,212.72c-9.331,0-16.894,7.563-16.894,16.894c0,9.331,7.563,16.894,16.894,16.894c9.329,0,16.894-7.563,16.894-16.894
			C1072.83,220.283,1065.266,212.72,1055.937,212.72z"/>
	</g>
	<path fill="#AF32C3" d="M945.359,438.344V820.75C908.203,831.953,868.81,838,828,838c-19.382,0-38.437-1.39-57.094-4.016V438.344
		c0-8.759,7.1-15.859,15.859-15.859H929.5C938.26,422.484,945.359,429.584,945.359,438.344z"/>
	<path fill="#782891" d="M786.766,422.484h63.438c-8.76,0-15.859,7.1-15.859,15.859v399.575C832.229,837.952,830.12,838,828,838
		c-19.382,0-38.437-1.39-57.094-4.016V438.344C770.906,429.584,778.006,422.484,786.766,422.484z"/>
	<path fill="#FFAF82" d="M871.804,571.987c16.423,0,29.736,13.314,29.736,29.736c0,16.423-13.313,29.736-29.736,29.736
		c16.423,0,29.736,13.314,29.736,29.736c0,16.423-13.313,29.736-29.736,29.736c16.783,0,30.318,13.902,29.718,30.819
		c-0.572,16.115-14.305,28.653-30.43,28.653H663.65c-16.422,0-29.736-13.313-29.736-29.736h-87.619
		c-30.455-30.12-56.179-65.013-75.931-103.479V573.97c0-17.518,14.2-31.719,31.719-31.719h115.17c10.908,0,21.05-5.604,26.855-14.84
		l91.483-145.546c4.369-6.952,13.548-9.045,20.5-4.675l0,0c20.857,13.109,27.137,40.644,14.027,61.5l-46.403,73.826H871.09
		c16.125,0,29.857,12.538,30.431,28.652C902.122,558.084,888.587,571.987,871.804,571.987z"/>
	<path fill="#FF9B69" d="M642.76,542.251h-25.507c10.908,0,21.05-5.604,26.855-14.84l91.483-145.546
		c4.369-6.952,13.548-9.045,20.5-4.675l0,0c1.948,1.224,3.754,2.59,5.444,4.051c-0.146,0.208-0.301,0.408-0.438,0.624
		l-91.483,145.546C663.81,536.646,653.668,542.251,642.76,542.251z M901.463,718.766c-5.412,4.638-12.462,7.451-20.067,7.451
		H685.063c-10.769,0-20.2-5.724-25.418-14.294c-5.801-9.529-16.055-15.442-27.211-15.442h-64.725
		c-30.455-30.12-56.179-65.011-75.932-103.479v-43.22c0-2.046,0.21-4.041,0.579-5.979c-12.754,4.108-21.992,16.047-21.992,30.168
		v43.221c19.752,38.468,45.477,73.358,75.931,103.479h87.619c0,16.423,13.314,29.736,29.736,29.736h207.442
		c16.125,0,29.856-12.538,30.43-28.653C901.556,720.743,901.529,719.749,901.463,718.766z M788.317,691.296h82.774
		c16.125,0,29.856-12.538,30.43-28.651c0.039-1.113,0.011-2.209-0.074-3.291c-5.053,2.935-10.905,4.641-17.099,4.641h-96.031
		c-7.54,0-13.652,6.112-13.652,13.651C774.666,685.186,780.778,691.296,788.317,691.296z M788.317,632.055h82.774
		c16.125,0,29.856-12.538,30.43-28.651c0.039-1.113,0.011-2.209-0.074-3.291c-5.053,2.934-10.905,4.641-17.099,4.641h-96.031
		c-7.54,0-13.652,6.112-13.652,13.651l0,0C774.666,625.942,780.778,632.055,788.317,632.055z M788.317,572.979h82.774
		c16.125,0,29.856-12.538,30.43-28.651c0.039-1.113,0.011-2.209-0.074-3.291c-5.053,2.934-10.905,4.641-17.099,4.641h-96.031
		c-7.54,0-13.652,6.112-13.652,13.651l0,0C774.666,566.866,780.778,572.979,788.317,572.979z"/>
	<path fill="#FFD7AA" d="M744.608,410.546l-5.808,9.461c-2.292,3.733-7.174,4.9-10.906,2.61l-15.644-9.601l19.552-31.108
		c2.252,0.405,4.472,1.194,6.542,2.464l0,0C747.303,389.868,750.106,401.586,744.608,410.546z"/>
	<path fill="#5F82C3" d="M603.237,535.808v191.304c0,8.759-7.1,15.859-15.859,15.859h-17.555
		c-66.896-56.206-115.392-133.585-135.163-221.833c1.857-0.763,3.888-1.189,6.019-1.189h146.699
		C596.137,519.948,603.237,527.048,603.237,535.808z"/>
	<path fill="#506EA0" d="M602.297,661.366v65.745c0,8.759-7.1,15.859-15.859,15.859h-17.554
		c-23.216-19.507-44.212-41.568-62.564-65.745h80.118C595.198,677.226,602.297,670.126,602.297,661.366z"/>
	<path fill="#91B9FF" d="M564.734,573.148c0,13.138-10.651,23.789-23.789,23.789s-23.789-10.651-23.789-23.789
		s10.651-23.789,23.789-23.789S564.734,560.011,564.734,573.148z"/>
	<g>
		<path fill="#FFFFFF" d="M916.168,371.209l-68.686,60.01c-1.191,1.041-2.967,1.041-4.159,0l-68.686-60.01
			c-38.921-34.005-38.921-89.649,0-123.654l0,0c38.921-34.005,102.61-34.005,141.532,0l0,0
			C955.09,281.562,955.09,337.206,916.168,371.209z"/>
		<text transform="matrix(1 0 0 1 808.2021 368.3999)" fill="#782891" font-family="'MyriadPro-Regular'" font-size="151.6594">$</text>
	</g>
</g>
</svg>
