<?xml version="1.0" encoding="utf-8"?>
<!-- Generator: Adobe Illustrator 15.1.0, SVG Export Plug-In . SVG Version: 6.00 Build 0)  -->
<!DOCTYPE svg PUBLIC "-//W3C//DTD SVG 1.1//EN" "http://www.w3.org/Graphics/SVG/1.1/DTD/svg11.dtd">
<svg version="1.1" id="Capa_1" xmlns="http://www.w3.org/2000/svg" xmlns:xlink="http://www.w3.org/1999/xlink" x="0px" y="0px"
	 width="864px" height="864px" viewBox="396 0 864 864" enable-background="new 396 0 864 864" xml:space="preserve">
<g>
	<path fill="#1F6091" stroke="#000000" stroke-width="4" stroke-miterlimit="10" d="M1234.989,432
		c0,70.469-17.907,136.765-49.437,194.574c-32.659,59.901-79.936,110.686-137.047,147.546
		c-17.658,11.412-36.248,21.496-55.649,30.084c-42.36,18.805-88.525,30.583-137.032,33.84c-9.203,0.629-18.472,0.945-27.824,0.945
		c-9.353,0-18.621-0.316-27.825-0.947c-48.505-3.256-94.686-15.033-137.047-33.839c-19.401-8.605-37.991-18.673-55.649-30.084
		c-57.095-36.877-104.372-87.644-137.031-147.545c-19.021-34.885-33.09-72.858-41.248-112.978
		c-4.302-21.114-6.96-42.809-7.841-64.984c-0.232-5.499-0.348-11.048-0.348-16.612c0-224.774,182.215-406.989,406.989-406.989
		c81.264,0,156.965,23.822,220.506,64.869c13.788,8.904,27.01,18.621,39.586,29.087c13.971,11.612,27.145,24.136,39.437,37.493
		c22.492,24.419,42.011,51.597,58.024,80.965C1217.082,295.236,1234.989,361.532,1234.989,432z"/>
	<path fill="#5897D1" d="M1203.036,394.192c0,63.92-16.246,124.062-44.844,176.501c-29.625,54.337-72.511,100.402-124.315,133.838
		c-16.017,10.354-32.881,19.501-50.481,27.29c-38.424,17.057-80.3,27.74-124.3,30.695c-8.348,0.57-16.755,0.855-25.24,0.855
		c-8.482,0-16.889-0.285-25.236-0.855c-44-2.955-85.893-13.639-124.315-30.695c-17.6-7.808-34.463-16.938-50.48-27.29
		c-51.791-33.452-94.673-79.503-124.301-133.838c-28.599-52.439-44.844-112.579-44.844-176.501
		C464.672,190.299,629.961,25.011,833.854,25.011c73.714,0,142.382,21.61,200.019,58.844
		c51.807,33.438,94.692,79.502,124.315,133.838C1186.79,270.132,1203.036,330.272,1203.036,394.192z"/>
	<g>
		<path fill="#FFD629" d="M607.479,463.056v306.354c-57.095-36.878-104.372-87.644-137.031-147.546V463.056H607.479z"/>
		<path fill="#FFD629" d="M1185.553,48.573v573.29c-32.659,59.902-79.936,110.686-137.047,147.546V48.573H1185.553z"/>
		<path fill="#FFD629" d="M800.175,298.614v534.717c-48.505-3.256-94.686-15.033-137.047-33.839V298.614H800.175z"/>
		<path fill="#FFD629" d="M992.856,570.201v229.292c-42.36,18.805-88.525,30.584-137.031,33.84V570.201H992.856z"/>
	</g>
	<path fill="#F77806" d="M1172.504,146.478l-17.693-95.173c-2.155-11.601-16.062-16.515-25.031-8.848l-73.577,62.909
		c-7.209,6.164-5.04,17.817,3.897,20.976l14.34,5.068c4.472,1.581,6.8,6.501,5.187,10.958L922.021,578.184L753.895,334.04
		c-4.021-5.863-10.366-9.718-17.426-10.598c-7.061-0.88-14.154,1.296-19.502,5.981l-204.94,179.323l-89.726-60.134
		c0.881,22.176,3.539,43.872,7.841,64.984l70.206,47.194c9.353,6.213,21.711,5.382,30.167-2.009l198.212-173.427L908.45,646.344
		c4.686,6.811,12.394,10.797,20.515,10.797c1.064,0,2.126-0.066,3.189-0.216c9.253-1.18,17.077-7.459,20.25-16.23l174.253-481.832
		c1.597-4.413,6.454-6.712,10.88-5.147l18.75,6.628C1165.229,163.503,1174.236,155.8,1172.504,146.478z"/>
</g>
</svg>
