<?xml version="1.0" encoding="utf-8"?>
<!-- Generator: Adobe Illustrator 15.1.0, SVG Export Plug-In . SVG Version: 6.00 Build 0)  -->
<!DOCTYPE svg PUBLIC "-//W3C//DTD SVG 1.1//EN" "http://www.w3.org/Graphics/SVG/1.1/DTD/svg11.dtd">
<svg version="1.1" id="Capa_1" xmlns="http://www.w3.org/2000/svg" xmlns:xlink="http://www.w3.org/1999/xlink" x="0px" y="0px"
	 width="864px" height="864px" viewBox="396 0 864 864" enable-background="new 396 0 864 864" xml:space="preserve">
<g>
	<path fill="#E2770C" stroke="#000000" stroke-width="4" stroke-miterlimit="10" d="M1232.636,432
		c0,63.271-14.519,123.142-40.43,176.487c-1.999,4.112-4.063,8.192-6.193,12.239c-8.489,16.104-18.052,31.527-28.556,46.243
		c-10.802,15.129-22.626,29.48-35.377,42.941c-31.825,33.692-69.399,61.917-111.151,83.123
		c-20.133,10.207-41.224,18.796-63.108,25.566c-37.869,11.726-78.102,18.035-119.82,18.035s-81.968-6.31-119.839-18.034
		c-21.884-6.771-42.973-15.36-63.09-25.583c-41.752-21.189-79.324-49.415-111.151-83.106c-12.751-13.477-24.575-27.813-35.377-42.94
		c-10.504-14.7-20.05-30.157-28.54-46.243c-2.146-4.063-4.228-8.159-6.225-12.288c-25.913-53.331-40.414-113.185-40.414-176.44
		c0-63.272,14.518-123.142,40.415-176.487c31.511-64.906,79.87-120.136,139.393-159.988C667.467,52.467,744.794,27.364,828,27.364
		s160.533,25.103,224.829,68.161c59.507,39.852,107.863,95.048,139.377,159.954C1218.102,308.826,1232.636,368.728,1232.636,432z"/>
	<path fill="#F9DF73" d="M1207.005,396.832c0,57.15-13.113,111.228-36.519,159.412c-1.805,3.714-3.67,7.4-5.595,11.056
		c-7.667,14.543-16.305,28.477-25.792,41.769c-9.757,13.664-20.437,26.627-31.954,38.785
		c-28.746,30.433-62.685,55.927-100.396,75.083c-18.186,9.218-37.236,16.977-57.003,23.093
		c-34.205,10.59-70.546,16.289-108.228,16.289c-37.682,0-74.037-5.699-108.244-16.289c-19.767-6.116-38.815-13.875-56.986-23.107
		c-37.712-19.14-71.649-44.634-100.397-75.066c-11.517-12.173-22.198-25.121-31.954-38.785c-9.488-13.278-18.11-27.24-25.778-41.771
		c-1.938-3.668-3.819-7.369-5.623-11.1c-23.406-48.17-36.504-102.232-36.504-159.368c0-57.15,13.114-111.228,36.504-159.412
		c28.463-58.626,72.143-108.513,125.906-144.508c58.074-38.892,127.92-61.566,203.076-61.566
		c75.155,0,145.001,22.674,203.076,61.566c53.75,35.996,97.428,85.852,125.892,144.478
		C1193.877,285.576,1207.005,339.682,1207.005,396.832z"/>
	<g>
		<path fill="#9E0A46" d="M772.54,668.622l-64.378,149.979c-21.884-6.771-42.973-15.36-63.09-25.583l53.396-124.396H772.54z"/>
		<path fill="#9E0A46" d="M1010.929,793.034c-20.133,10.207-41.224,18.796-63.108,25.567l-64.377-149.979h74.073L1010.929,793.034z"
			/>
	</g>
	<path fill="#F0F0F0" d="M1192.206,95.525v512.962c-1.999,4.112-4.063,8.192-6.193,12.239
		c-8.489,16.104-18.052,31.527-28.556,46.243H498.544c-10.505-14.699-20.05-30.157-28.54-46.243
		c-2.146-4.063-4.229-8.159-6.226-12.287V95.525H1192.206z"/>
	<rect x="463.78" y="95.525" fill="#D4D4D4" width="728.427" height="79.275"/>
	<path fill="#9E0A46" d="M1216.202,76.02v45.616c0,12.024-9.744,21.784-21.784,21.784H461.564c-12.023,0-21.784-9.76-21.784-21.784
		V76.02c0-12.024,9.762-21.786,21.784-21.786h732.854C1206.458,54.234,1216.202,63.996,1216.202,76.02z"/>
	<g>
		<path fill="#E24471" d="M1216.202,76.02v20.843c0,12.024-9.744,21.784-21.784,21.784H461.564c-12.023,0-21.784-9.76-21.784-21.784
			V76.02c0-12.024,9.762-21.786,21.784-21.786h732.854C1206.458,54.234,1216.202,63.996,1216.202,76.02z"/>
		<path fill="#E24471" d="M1186.013,620.725c-4.756,9.017-9.845,17.838-15.276,26.425c-14.137,22.511-30.455,43.536-48.656,62.76
			H533.92c-18.201-19.241-34.517-40.249-48.656-62.76c-5.417-8.589-10.504-17.408-15.261-26.425H1186.013z"/>
	</g>
	<g>
		<path fill="#E24471" d="M709.089,572.834c-4.229,0-8.453-1.612-11.678-4.837l-77.076-77.076c-6.449-6.45-6.449-16.908,0-23.357
			c6.45-6.448,16.906-6.448,23.357,0l77.078,77.077c6.449,6.448,6.449,16.908,0,23.356
			C717.542,571.22,713.317,572.834,709.089,572.834z"/>
		<path fill="#E24471" d="M632.013,572.834c-4.229,0-8.454-1.612-11.678-4.837c-6.449-6.448-6.449-16.908,0-23.356l77.076-77.077
			c6.451-6.448,16.907-6.448,23.359,0c6.449,6.449,6.449,16.907,0,23.357l-77.077,77.076
			C640.465,571.22,636.241,572.834,632.013,572.834z"/>
	</g>
	<g>
		<path fill="#9FC5E6" d="M999.763,557.965c-36.426,0-66.063-29.637-66.063-66.063c0-36.428,29.637-66.064,66.063-66.064
			c36.428,0,66.063,29.636,66.063,66.064S1036.191,557.965,999.763,557.965z M999.763,458.87c-18.213,0-33.031,14.818-33.031,33.032
			c0,18.213,14.818,33.031,33.031,33.031c18.214,0,33.032-14.818,33.032-33.031C1032.795,473.688,1017.979,458.87,999.763,458.87z"
			/>
		<path fill="#9FC5E6" d="M700.87,318.969c-36.427,0-66.063-29.637-66.063-66.063c0-36.427,29.636-66.063,66.063-66.063
			s66.063,29.637,66.063,66.063C766.934,289.333,737.297,318.969,700.87,318.969z M700.87,219.875
			c-18.213,0-33.031,14.818-33.031,33.032c0,18.213,14.818,33.031,33.031,33.031c18.213,0,33.031-14.818,33.031-33.031
			C733.901,234.693,719.085,219.875,700.87,219.875z"/>
	</g>
	<path fill="#484B7F" d="M1133.193,273.038l-48.24-48.24c-5.417-5.417-14.68-1.581-14.68,6.081v12.757
		c0,9.955-7.902,18.171-17.854,18.418c-102.472,2.55-178.04,41.163-224.78,74.828c-55.704,40.125-83.295,81.429-84.443,83.167
		c-5.016,7.604-2.922,17.821,4.672,22.852c2.803,1.856,5.967,2.746,9.097,2.746c5.35,0,10.603-2.596,13.787-7.382
		c0.254-0.382,26.095-38.779,77.307-75.38c60.187-43.014,128.452-65.747,203.361-67.795c10.338-0.283,18.853,8.091,18.853,18.433
		v16.604c0,7.66,9.263,11.497,14.68,6.08l48.24-48.24C1137.315,283.842,1137.315,277.16,1133.193,273.038z"/>
</g>
<path fill="#9E0A46" d="M1210.224,633.487c-5.077,9.627-10.51,19.044-16.31,28.212H462.088c-5.783-9.17-11.216-18.585-16.293-28.212
	H1210.224z"/>
</svg>
