<?xml version="1.0" encoding="utf-8"?>
<!-- Generator: Adobe Illustrator 15.1.0, SVG Export Plug-In . SVG Version: 6.00 Build 0)  -->
<!DOCTYPE svg PUBLIC "-//W3C//DTD SVG 1.1//EN" "http://www.w3.org/Graphics/SVG/1.1/DTD/svg11.dtd">
<svg version="1.1" id="Capa_1" xmlns="http://www.w3.org/2000/svg" xmlns:xlink="http://www.w3.org/1999/xlink" x="0px" y="0px"
	 width="883.84px" height="864px" viewBox="376.16 0 883.84 864" enable-background="new 376.16 0 883.84 864" xml:space="preserve"
	>
<g>
	<circle fill="#5897D1" stroke="#000000" stroke-width="5" stroke-miterlimit="10" cx="818.08" cy="432" r="432"/>
	<path fill="#9FC5E6" d="M1175.211,357.131c0,70.289-20.306,135.84-55.391,191.101c-63.322,99.792-174.789,166.028-301.74,166.028
		s-238.418-66.238-301.738-166.03c-35.087-55.26-55.391-120.812-55.391-191.101s20.304-135.839,55.391-191.099
		c34.985-55.158,84.69-100.055,143.581-129.195C707.603,13.25,761.289,0,818.08,0C1015.318,0,1175.211,159.893,1175.211,357.131z"/>
	<path fill="#F0F0F0" stroke="#000000" stroke-width="4" stroke-miterlimit="10" d="M1183.076,234.002v429.162
		C1106.48,783.878,971.643,864,818.08,864s-288.4-80.122-364.996-200.836V76.049c0-17.386,14.089-31.492,31.474-31.492h509.073
		L1183.076,234.002z"/>
	<path fill="#D4D4D4" d="M993.631,202.512V44.559l189.445,189.445h-157.953C1007.736,234.002,993.631,219.896,993.631,202.512z"/>
	<g>
		<path fill="#343A6E" d="M786.936,178.564H564.765c-8.765,0-15.869-7.104-15.869-15.869l0,0c0-8.765,7.104-15.869,15.869-15.869
			h222.171c8.765,0,15.869,7.104,15.869,15.869l0,0C802.805,171.46,795.699,178.564,786.936,178.564z"/>
		<path fill="#343A6E" d="M698.766,245.568H564.763c-8.765,0-15.869-7.104-15.869-15.869l0,0c0-8.765,7.104-15.869,15.869-15.869
			h134.003c8.765,0,15.869,7.104,15.869,15.869l0,0C714.635,238.464,707.53,245.568,698.766,245.568z"/>
		<path fill="#343A6E" d="M1040.256,559.43c0,61.344-24.861,116.887-65.081,157.09v0.017
			c-40.203,40.203-95.745,65.065-157.09,65.065c-122.704,0-222.171-99.467-222.171-222.172s99.467-222.171,222.171-222.171
			c105.849,0,194.417,74.039,216.741,173.152C1038.389,526.174,1040.256,542.59,1040.256,559.43z"/>
	</g>
	<path fill="#F9DF73" d="M1040.256,559.43c0,61.344-24.861,116.887-65.081,157.09l-157.09-157.09l216.741-49.019
		C1038.389,526.174,1040.256,542.59,1040.256,559.43z"/>
	<path fill="#EF487D" d="M1040.256,559.43H818.085V337.259C940.773,337.259,1040.256,436.724,1040.256,559.43z"/>
</g>
</svg>
