<?xml version="1.0" encoding="utf-8"?>
<!-- Generator: Adobe Illustrator 15.1.0, SVG Export Plug-In . SVG Version: 6.00 Build 0)  -->
<!DOCTYPE svg PUBLIC "-//W3C//DTD SVG 1.1//EN" "http://www.w3.org/Graphics/SVG/1.1/DTD/svg11.dtd">
<svg version="1.1" id="Capa_1" xmlns="http://www.w3.org/2000/svg" xmlns:xlink="http://www.w3.org/1999/xlink" x="0px" y="0px"
	 width="864px" height="864px" viewBox="396 0 864 864" enable-background="new 396 0 864 864" xml:space="preserve">
<g>
	<path fill="#343A6E" stroke="#000000" stroke-width="4" stroke-miterlimit="10" d="M1242.389,432
		c0,37.633-5.022,74.1-14.428,108.756c-7.763,28.669-18.537,56.103-31.968,81.947C1126.986,755.595,988.091,846.389,828,846.389
		c-41.777,0-82.099-6.175-120.123-17.675c-31.086-9.405-60.637-22.362-88.154-38.394C496.455,718.521,413.611,584.935,413.611,432
		C413.611,203.14,599.14,17.611,828,17.611S1242.389,203.14,1242.389,432z"/>
	<path fill="#484B7F" d="M1165.658,355.27c0,30.666-4.094,60.379-11.756,88.618c-6.326,23.36-15.106,45.716-26.047,66.775
		C1071.625,618.947,958.446,692.929,828,692.929c-34.042,0-66.898-5.03-97.88-14.401c-25.331-7.663-49.409-18.221-71.831-31.286
		C557.846,588.739,490.342,479.886,490.342,355.27c0-186.484,151.174-337.658,337.658-337.658S1165.658,168.786,1165.658,355.27z"/>
	<g>
		<path fill="#F0F0F0" d="M675.613,814.743L465.622,192.948l694.768-88.522l49.149,480.547l-303.917,31.641L675.613,814.743z
			 M510.896,221.281l180.698,535.052l199.983-172.266l280.876-29.244l-42.187-412.457L510.896,221.281z"/>
		<polygon fill="#F0F0F0" points="1182.481,584.512 738.082,325.693 1137.244,108.537 1153.411,138.252 807.023,326.698 
			1199.504,555.282 		"/>
	</g>
	<circle fill="#EF487D" cx="1135.967" cy="123.391" r="73.571"/>
	<polygon fill="#F0F0F0" points="690.85,788.753 657.639,782.321 743.974,336.481 472.365,222.715 485.435,191.513 782.412,315.908 
			"/>
	<circle fill="#EF487D" cx="478.899" cy="207.114" r="54.716"/>
	
		<rect x="675.317" y="446.371" transform="matrix(-0.4177 -0.9086 0.9086 -0.4177 750.3544 1407.4641)" fill="#F0F0F0" width="301.755" height="33.826"/>
	<g>
		<path fill="#EF487D" d="M1227.961,540.756c-7.763,28.669-18.537,56.103-31.968,81.947c-4.584,1.252-9.387,1.912-14.359,1.912
			c-30.225,0-54.716-24.492-54.716-54.716c0-30.225,24.491-54.716,54.716-54.716C1201.152,515.182,1218.27,525.397,1227.961,540.756
			z"/>
		<circle fill="#EF487D" cx="763.186" cy="326.187" r="80.239"/>
		<path fill="#EF487D" d="M728.97,785.533c0,17.54-8.253,33.152-21.091,43.182c-31.087-9.406-60.638-22.362-88.155-38.394
			c-0.136-1.573-0.202-3.179-0.202-4.787c0-30.207,24.509-54.715,54.715-54.715C704.462,730.816,728.97,755.325,728.97,785.533z"/>
		<circle fill="#EF487D" cx="889.246" cy="600.344" r="38.693"/>
	</g>
</g>
</svg>
