<?xml version="1.0" encoding="utf-8"?>
<!-- Generator: Adobe Illustrator 15.1.0, SVG Export Plug-In . SVG Version: 6.00 Build 0)  -->
<!DOCTYPE svg PUBLIC "-//W3C//DTD SVG 1.1//EN" "http://www.w3.org/Graphics/SVG/1.1/DTD/svg11.dtd">
<svg version="1.1" id="Capa_1" xmlns="http://www.w3.org/2000/svg" xmlns:xlink="http://www.w3.org/1999/xlink" x="0px" y="0px"
	 width="864px" height="864px" viewBox="396 0 864 864" enable-background="new 396 0 864 864" xml:space="preserve">
<g>
	<path fill="#5897D1" stroke="#000000" stroke-width="4" stroke-miterlimit="10" d="M1231.313,432
		c0,63.065-14.471,122.739-40.298,175.91c-1.992,4.1-4.05,8.166-6.173,12.199c-8.462,16.051-17.993,31.425-28.462,46.092
		c-10.767,15.079-22.552,29.384-35.262,42.801c-31.721,33.582-69.173,61.715-110.787,82.852
		c-20.067,10.173-41.09,18.734-62.902,25.482c-37.746,11.688-77.847,17.977-119.429,17.977s-81.699-6.289-119.447-17.976
		c-21.812-6.749-42.832-15.311-62.883-25.498c-41.615-21.121-79.065-49.254-110.788-82.836
		c-12.709-13.433-24.495-27.722-35.262-42.8c-10.47-14.651-19.984-30.059-28.446-46.092c-2.139-4.049-4.214-8.133-6.205-12.248
		C439.141,554.706,424.688,495.05,424.688,432c0-63.065,14.471-122.739,40.282-175.91c31.409-64.694,79.609-119.743,138.937-159.465
		C667.992,53.708,745.066,28.688,828,28.688c82.934,0,160.008,25.021,224.094,67.938c59.313,39.722,107.511,94.737,138.921,159.431
		C1216.826,309.229,1231.313,368.935,1231.313,432z"/>
	<g>
		<path fill="#0E1947" d="M772.721,667.849l-64.168,149.488c-21.812-6.749-42.832-15.311-62.883-25.498l53.222-123.99H772.721z"/>
		<path fill="#0E1947" d="M1010.331,791.854c-20.067,10.173-41.09,18.734-62.902,25.483l-64.167-149.488h73.831L1010.331,791.854z"
			/>
	</g>
	<path fill="#F0F0F0" d="M1191.015,96.625V607.91c-1.992,4.1-4.05,8.166-6.173,12.199c-8.462,16.051-17.993,31.425-28.462,46.092
		H499.622c-10.471-14.65-19.985-30.059-28.446-46.092c-2.14-4.049-4.215-8.133-6.206-12.247V96.625H1191.015z"/>
	<rect x="464.972" y="96.625" fill="#D4D4D4" width="726.044" height="79.017"/>
	<path fill="#182363" d="M1214.933,77.184v45.467c0,11.984-9.712,21.713-21.712,21.713H462.763
		c-11.985,0-21.713-9.729-21.713-21.713V77.184c0-11.984,9.73-21.714,21.713-21.714h730.458
		C1205.221,55.47,1214.933,65.2,1214.933,77.184z"/>
	<g>
		<path fill="#1A2691" d="M1214.933,77.184v20.775c0,11.984-9.712,21.713-21.712,21.713H462.763
			c-11.985,0-21.713-9.729-21.713-21.713V77.184c0-11.984,9.73-21.714,21.713-21.714h730.458
			C1205.221,55.47,1214.933,65.2,1214.933,77.184z"/>
		<path fill="#1A2691" d="M1184.842,620.107c-4.74,8.987-9.813,17.779-15.227,26.338c-14.091,22.438-30.355,43.395-48.497,62.555
			H534.882c-18.142-19.178-34.405-40.117-48.497-62.555c-5.399-8.561-10.47-17.351-15.211-26.338H1184.842z"/>
	</g>
	<path fill="#182363" d="M1184.842,620.107c-4.74,8.987-9.813,17.779-15.227,26.338H486.387
		c-5.399-8.561-10.471-17.351-15.211-26.338H1184.842z"/>
	<path fill="#F9DF73" d="M581.255,518.324l-25.044-21.369L714.235,311.77c2.981-3.492,7.286-5.582,11.874-5.763
		c4.595-0.19,9.042,1.563,12.29,4.808l162.492,162.492l173.656-210.705l25.407,20.939l-185.184,224.69
		c-2.952,3.583-7.276,5.751-11.911,5.972c-4.654,0.225-9.152-1.521-12.433-4.802L727.715,346.691L581.255,518.324z"/>
	<g>
		<circle fill="#EF487D" cx="902.062" cy="497.765" r="43.312"/>
		<circle fill="#EF487D" cx="726.761" cy="322.463" r="43.312"/>
		<circle fill="#EF487D" cx="568.728" cy="507.642" r="43.313"/>
		<circle fill="#EF487D" cx="1087.256" cy="273.079" r="43.312"/>
	</g>
</g>
</svg>
