<?xml version="1.0" encoding="utf-8"?>
<!-- Generator: Adobe Illustrator 15.1.0, SVG Export Plug-In . SVG Version: 6.00 Build 0)  -->
<!DOCTYPE svg PUBLIC "-//W3C//DTD SVG 1.1//EN" "http://www.w3.org/Graphics/SVG/1.1/DTD/svg11.dtd">
<svg version="1.1" id="Capa_1" xmlns="http://www.w3.org/2000/svg" xmlns:xlink="http://www.w3.org/1999/xlink" x="0px" y="0px"
	 width="864px" height="864px" viewBox="396 0 864 864" enable-background="new 396 0 864 864" xml:space="preserve">
<g>
	<path fill="#228C89" stroke="#000000" stroke-width="4" stroke-miterlimit="10" d="M1236.457,431.999
		c0,225.586-182.872,408.458-408.458,408.458c-225.585,0-408.458-182.872-408.458-408.458
		c0-225.585,182.873-408.458,408.458-408.458C1053.585,23.541,1236.457,206.414,1236.457,431.999z"/>
	<path fill="#50C8C8" d="M1188.694,397.231c0,204.052-165.416,369.468-369.468,369.468S449.758,601.283,449.758,397.231
		c0-204.051,165.417-369.468,369.468-369.468S1188.694,193.18,1188.694,397.231z"/>
	<path opacity="0.41" fill="#82E1E1" d="M929.963,76.212c-1.635-3.521-1.097-7.549,1.407-10.515l15.775-22.056
		c10.545,3.248,20.901,6.923,31.06,10.991V156.43c0,6.274-5.105,11.38-11.384,11.38h-9.103c-6.275,0-11.383-5.104-11.383-11.38
		V81.92h-7.428C935.026,81.92,931.599,79.733,929.963,76.212z M921.305,414.891h7.43v74.511c0,6.275,5.104,11.381,11.382,11.381
		h9.103c6.276,0,11.384-5.104,11.384-11.381V370.135c0-6.275-5.106-11.38-11.384-11.38h-0.32c-3.809,0-7.403,1.67-9.858,4.58
		l-25.273,35.334c-2.505,2.966-3.043,6.994-1.409,10.514C913.993,412.704,917.422,414.891,921.305,414.891z M798.003,112.578V81.016
		c0-28.189,21.13-51.429,48.418-54.796c7.181,0.322,14.313,0.825,21.391,1.517c23.449,6.389,40.692,27.814,40.692,53.28v31.562
		c0,30.504-24.737,55.232-55.251,55.232l0,0C822.74,167.81,798.003,143.082,798.003,112.578z M829.574,112.578
		c0,13.073,10.602,23.671,23.68,23.671c13.076,0,23.679-10.598,23.679-23.671V81.016c0-13.072-10.603-23.67-23.679-23.67
		c-13.078,0-23.68,10.598-23.68,23.67V112.578z M651.231,667.267h9.102c6.276,0,11.383-5.104,11.383-11.38V536.618
		c0-6.274-5.105-11.379-11.383-11.379h-0.321c-3.809,0-7.404,1.67-9.858,4.579l-25.273,35.335
		c-2.505,2.967-3.044,6.994-1.408,10.514c1.635,3.521,5.062,5.708,8.945,5.708h7.429v74.512
		C639.849,662.162,644.954,667.267,651.231,667.267z M968.493,667.267L968.493,667.267c-30.515,0-55.251-24.729-55.251-55.232
		v-31.562c0-30.503,24.736-55.231,55.251-55.231l0,0c30.515,0,55.251,24.729,55.251,55.231v31.562
		C1023.744,642.538,999.008,667.267,968.493,667.267z M992.173,580.473c0-13.072-10.603-23.671-23.68-23.671
		c-13.078,0-23.679,10.599-23.679,23.671v31.562c0,13.072,10.601,23.671,23.679,23.671c13.077,0,23.68-10.599,23.68-23.671V580.473z
		 M935.752,248.406h7.429v74.511c0,6.275,5.105,11.38,11.384,11.38h9.102c6.276,0,11.384-5.103,11.384-11.38V203.648
		c0-6.274-5.105-11.379-11.384-11.379h-0.32c-3.81,0-7.403,1.67-9.859,4.58l-25.272,35.334c-2.505,2.966-3.043,6.994-1.408,10.514
		C928.441,246.219,931.869,248.406,935.752,248.406z M619.386,691.727L619.386,691.727c-26.964,0-49.403,19.314-54.262,44.855
		c9.8,8.398,20.003,16.335,30.583,23.778v-13.402c0-13.072,10.602-23.67,23.679-23.67c13.077,0,23.679,10.598,23.679,23.67v31.562
		c0,3.374-0.717,6.575-1.989,9.481c9.307,4.863,18.82,9.386,28.536,13.527c3.217-7.006,5.025-14.793,5.025-23.009v-31.562
		C674.637,716.456,649.9,691.727,619.386,691.727z M510.873,248.406h7.429v74.511c0,6.275,5.104,11.38,11.383,11.38h9.103
		c6.276,0,11.382-5.103,11.382-11.38V203.648c0-6.274-5.104-11.379-11.382-11.379h-0.32c-3.81,0-7.404,1.67-9.858,4.58
		l-25.273,35.334c-2.506,2.966-3.043,6.994-1.408,10.514C503.561,246.219,506.989,248.406,510.873,248.406z M461.676,525.241h-0.321
		c-3.81,0-7.403,1.67-9.858,4.579l-10.891,15.226c8.123,27.322,19.04,53.438,32.452,78.003v-86.43
		C473.058,530.344,467.952,525.241,461.676,525.241z M1039.534,691.727L1039.534,691.727c-30.513,0-55.25,24.728-55.25,55.231
		v31.562c0,7.799,1.626,15.216,4.542,21.942c9.713-4.217,19.223-8.8,28.521-13.739c-0.947-2.561-1.489-5.315-1.489-8.203v-31.562
		c0-13.072,10.602-23.67,23.679-23.67c13.076,0,23.679,10.598,23.679,23.67v11.33c10.425-7.472,20.48-15.425,30.134-23.831
		C1087.678,709.979,1065.745,691.727,1039.534,691.727z M1176.866,525.241c-30.514,0-55.25,24.729-55.25,55.231v31.562
		c0,23.678,14.908,43.868,35.852,51.722c6.474-9.091,12.557-18.478,18.273-28.108c-12.552-0.592-22.554-10.919-22.554-23.613
		v-31.562c0-13.072,10.603-23.671,23.679-23.671c13.077,0,23.679,10.599,23.679,23.671v6.088c6.111-14.491,11.39-29.419,15.8-44.714
		C1206.314,531.605,1192.338,525.241,1176.866,525.241L1176.866,525.241z M1063.21,167.81L1063.21,167.81
		c20.11,0,37.704-10.743,47.37-26.8c-7.884-7.711-16.068-15.112-24.561-22.161c-2.753,10.025-11.91,17.4-22.81,17.4
		c-13.079,0-23.68-10.598-23.68-23.671V85.506c-9.79-6.024-19.854-11.637-30.171-16.827c-0.907,3.97-1.401,8.095-1.401,12.337
		v31.562C1007.958,143.082,1032.693,167.81,1063.21,167.81z M1141.781,248.406h7.429v74.511c0,6.275,5.104,11.38,11.382,11.38h9.104
		c6.276,0,11.383-5.103,11.383-11.38v-89.762c-6.81-12.196-14.227-24.004-22.221-35.38l-24.613,34.41
		c-2.505,2.966-3.042,6.994-1.408,10.514S1137.897,248.406,1141.781,248.406z M452.574,334.295h9.103
		c6.276,0,11.382-5.103,11.382-11.379v-86.429c-13.091,23.975-23.808,49.428-31.867,76.038v10.392
		C441.191,329.192,446.296,334.295,452.574,334.295z M1133.422,414.891v74.511c0,6.275,5.105,11.381,11.384,11.381h9.102
		c6.276,0,11.384-5.104,11.384-11.381V370.135c0-6.275-5.107-11.38-11.384-11.38h-0.319c-3.81,0-7.404,1.67-9.859,4.58
		l-25.273,35.334c-2.504,2.966-3.042,6.994-1.407,10.514c1.636,3.521,5.062,5.708,8.945,5.708H1133.422z M584.894,167.81
		L584.894,167.81c30.514,0,55.25-24.728,55.25-55.232V81.016c0-2.938-0.233-5.819-0.676-8.633
		c-10.584,5.591-20.894,11.628-30.896,18.106v22.088c0,13.073-10.602,23.671-23.679,23.671c-8.997,0-16.82-5.015-20.828-12.402
		c-8.082,6.974-15.877,14.273-23.382,21.859C550.763,159.126,566.814,167.81,584.894,167.81z M553.322,667.267L553.322,667.267
		c-30.514,0-55.25-24.729-55.25-55.232v-31.562c0-30.503,24.736-55.231,55.25-55.231l0,0c30.514,0,55.25,24.729,55.25,55.231v31.562
		C608.572,642.538,583.836,667.267,553.322,667.267z M577,580.473c0-13.072-10.602-23.671-23.679-23.671
		c-13.076,0-23.679,10.599-23.679,23.671v31.562c0,13.072,10.603,23.671,23.679,23.671c13.077,0,23.679-10.599,23.679-23.671
		V580.473z M1068.222,667.267h9.103c6.275,0,11.383-5.104,11.383-11.38V536.618c0-6.274-5.105-11.379-11.383-11.379h-0.32
		c-3.81,0-7.404,1.67-9.858,4.579l-25.273,35.335c-2.505,2.967-3.044,6.994-1.407,10.514c1.635,3.521,5.062,5.708,8.945,5.708h7.429
		v74.512C1056.839,662.162,1061.942,667.267,1068.222,667.267z M877.652,691.727h-0.32c-3.811,0-7.404,1.669-9.858,4.579
		L842.2,731.641c-2.505,2.967-3.044,6.992-1.408,10.515c1.636,3.521,5.062,5.708,8.945,5.708h7.43v74.511
		c0,4.217,2.313,7.897,5.729,9.862c7.934-0.679,15.802-1.582,23.599-2.712c1.585-1.955,2.54-4.442,2.54-7.15V703.105
		C889.035,696.829,883.929,691.727,877.652,691.727z M851.623,581.377v74.512c0,6.273,5.104,11.379,11.383,11.379h9.103
		c6.275,0,11.382-5.104,11.382-11.379V536.62c0-6.274-5.104-11.379-11.382-11.379h-0.321c-3.809,0-7.402,1.67-9.857,4.579
		l-25.272,35.335c-2.507,2.966-3.044,6.994-1.409,10.514c1.635,3.521,5.063,5.708,8.946,5.708H851.623z M842.376,414.891h7.428
		v74.511c0,6.275,5.105,11.381,11.383,11.381h9.103c6.277,0,11.383-5.104,11.383-11.381V370.135c0-6.275-5.104-11.38-11.383-11.38
		h-0.321c-3.808,0-7.402,1.67-9.856,4.58l-25.273,35.334c-2.507,2.966-3.044,6.994-1.408,10.514
		C835.063,412.704,838.492,414.891,842.376,414.891z M949.217,691.727h-0.319c-3.81,0-7.404,1.669-9.859,4.579l-25.273,35.335
		c-2.504,2.967-3.043,6.992-1.408,10.515c1.637,3.521,5.063,5.708,8.946,5.708h7.43v73.234c10.807-2.773,21.429-6,31.866-9.625
		V703.104C960.601,696.829,955.495,691.727,949.217,691.727z M630.916,203.648c0-6.273-5.105-11.379-11.383-11.379h-0.32
		c-3.809,0-7.404,1.67-9.858,4.58l-25.273,35.334c-2.506,2.966-3.043,6.994-1.408,10.514c1.635,3.521,5.063,5.708,8.945,5.708h7.429
		v74.511c0,6.275,5.105,11.38,11.384,11.38h9.102c6.276,0,11.383-5.103,11.383-11.38V203.648z M1099.516,413.987v31.561
		c0,30.504-24.736,55.233-55.249,55.233l0,0c-30.517,0-55.252-24.729-55.252-55.233v-31.561c0-30.504,24.735-55.232,55.252-55.232
		l0,0C1074.779,358.755,1099.516,383.483,1099.516,413.987z M1067.944,413.987c0-13.073-10.603-23.671-23.678-23.671
		c-13.079,0-23.68,10.598-23.68,23.671v31.561c0,13.073,10.601,23.672,23.68,23.672c13.075,0,23.678-10.599,23.678-23.672V413.987z
		 M479.132,500.781L479.132,500.781c-27.333,0-50.018-19.849-54.452-45.912c-0.508-8.303-0.798-16.667-0.798-25.102
		c0-8.433,0.29-16.798,0.798-25.102c4.435-26.063,27.119-45.911,54.452-45.911l0,0c30.514,0,55.25,24.729,55.25,55.232v31.561
		C534.382,476.052,509.646,500.781,479.132,500.781z M502.811,413.987c0-13.073-10.601-23.671-23.679-23.671
		c-13.077,0-23.679,10.598-23.679,23.671v31.561c0,13.073,10.602,23.672,23.679,23.672c13.078,0,23.679-10.599,23.679-23.672
		V413.987z M1115.301,247.501v31.562c0,30.503-24.736,55.231-55.249,55.231l0,0c-30.515,0-55.25-24.729-55.25-55.231v-31.562
		c0-30.503,24.735-55.232,55.25-55.232l0,0C1090.564,192.27,1115.301,216.998,1115.301,247.501z M1083.73,247.501
		c0-13.072-10.603-23.671-23.679-23.671c-13.077,0-23.679,10.599-23.679,23.671v31.562c0,13.072,10.602,23.671,23.679,23.671
		c13.076,0,23.679-10.599,23.679-23.671V247.501z M1226.214,360.719c-1.125,0.704-2.152,1.576-3.029,2.614l-25.272,35.334
		c-2.505,2.966-3.043,6.994-1.407,10.514c1.635,3.521,5.061,5.708,8.944,5.708h7.43v74.51c0,6.275,5.105,11.381,11.384,11.381h1.626
		c4.091-23.057,6.229-46.784,6.229-71.014C1232.116,406.225,1230.079,383.158,1226.214,360.719z M910.086,247.501v31.562
		c0,30.503-24.737,55.231-55.251,55.231l0,0c-30.514,0-55.25-24.729-55.25-55.231v-31.562c0-30.503,24.737-55.232,55.25-55.232l0,0
		C885.349,192.27,910.086,216.998,910.086,247.501z M878.515,247.501c0-13.072-10.603-23.671-23.68-23.671
		s-23.679,10.599-23.679,23.671v31.562c0,13.072,10.602,23.671,23.679,23.671s23.68-10.599,23.68-23.671V247.501z M715.919,192.27
		L715.919,192.27c30.516,0,55.251,24.729,55.251,55.232v31.562c0,30.503-24.735,55.231-55.251,55.231l0,0
		c-30.514,0-55.249-24.729-55.249-55.231v-31.562C660.67,216.998,685.405,192.27,715.919,192.27z M692.241,279.063
		c0,13.072,10.602,23.671,23.678,23.671c13.078,0,23.679-10.599,23.679-23.671v-31.562c0-13.072-10.601-23.671-23.679-23.671
		c-13.076,0-23.678,10.599-23.678,23.671V279.063z M577.04,500.781h9.102c6.277,0,11.384-5.104,11.384-11.381V370.133
		c0-6.274-5.106-11.379-11.384-11.379h-0.32c-3.808,0-7.403,1.669-9.858,4.579l-25.273,35.334
		c-2.506,2.966-3.044,6.994-1.409,10.514c1.637,3.521,5.063,5.708,8.947,5.708h7.429v74.51
		C565.659,495.678,570.764,500.781,577.04,500.781z M700.129,612.034v-31.562c0-30.503,24.737-55.231,55.25-55.231l0,0
		c30.514,0,55.25,24.729,55.25,55.231v31.562c0,30.504-24.737,55.232-55.25,55.232l0,0
		C724.866,667.267,700.129,642.538,700.129,612.034z M731.7,612.034c0,13.072,10.602,23.671,23.679,23.671
		c13.077,0,23.679-10.599,23.679-23.671v-31.562c0-13.072-10.602-23.671-23.679-23.671c-13.078,0-23.679,10.599-23.679,23.671
		V612.034z M684.349,500.781L684.349,500.781c-30.516,0-55.251-24.729-55.251-55.233v-31.561c0-30.504,24.735-55.232,55.251-55.232
		l0,0c30.514,0,55.249,24.729,55.249,55.232v31.561C739.598,476.052,714.862,500.781,684.349,500.781z M708.026,413.987
		c0-13.073-10.601-23.671-23.677-23.671c-13.078,0-23.679,10.598-23.679,23.671v31.561c0,13.073,10.601,23.672,23.679,23.672
		c13.076,0,23.677-10.599,23.677-23.672V413.987z M756.319,409.184c1.635,3.521,5.062,5.708,8.946,5.708h7.429v74.511
		c0,6.275,5.105,11.381,11.383,11.381h9.103c6.277,0,11.383-5.104,11.383-11.381V370.135c0-6.275-5.105-11.38-11.383-11.38h-0.321
		c-3.809,0-7.403,1.67-9.858,4.58l-25.272,35.334C755.221,401.634,754.682,405.663,756.319,409.184z M663.992,81.92h7.429v74.512
		c0,6.274,5.105,11.379,11.384,11.379h9.102c6.277,0,11.383-5.103,11.383-11.379V45.42c-15.399,4.99-30.393,10.876-44.92,17.602
		l-1.915,2.676c-2.506,2.967-3.044,6.994-1.409,10.515C656.68,79.733,660.109,81.92,663.992,81.92z M813.789,746.958v31.562
		c0,24.012-15.332,44.437-36.741,52.046c-18.934-2.381-37.45-6.095-55.471-11c-11.228-10.109-18.289-24.752-18.289-41.046v-31.562
		c0-30.504,24.737-55.231,55.251-55.231l0,0C789.052,691.727,813.789,716.456,813.789,746.958z M782.217,746.958
		c0-13.072-10.602-23.67-23.679-23.67c-13.078,0-23.679,10.598-23.679,23.67v31.562c0,13.072,10.601,23.67,23.679,23.67
		c13.077,0,23.679-10.598,23.679-23.67V746.958z M728.955,81.92h7.428v74.512c0,6.274,5.106,11.379,11.384,11.379h9.103
		c6.276,0,11.382-5.103,11.382-11.379V37.164c0-2.489-0.813-4.786-2.173-6.662c-7.552,1.162-15.028,2.553-22.437,4.125L721.418,65.7
		c-2.505,2.967-3.044,6.994-1.408,10.515C721.644,79.733,725.071,81.92,728.955,81.92z"/>
	<path fill="#254E89" d="M916.234,562.915h-12.891c-2.951,0-5.808,0.403-8.523,1.146c-2.666-19.909-7.856-39.015-15.238-56.992
		c2.714-0.715,5.378-1.79,7.924-3.26l11.164-6.446c15.415-8.897,20.696-28.609,11.796-44.023
		c-8.899-15.415-28.608-20.696-44.023-11.796l-11.164,6.445c-2.562,1.479-4.837,3.262-6.819,5.267
		c-12.081-15.61-26.106-29.635-41.717-41.716c2.005-1.983,3.79-4.257,5.267-6.818l6.446-11.165
		c8.9-15.414,3.619-35.125-11.796-44.023c-15.415-8.898-35.124-3.619-44.024,11.795l-6.446,11.165
		c-1.471,2.545-2.545,5.212-3.259,7.924c-17.979-7.38-37.085-12.572-56.993-15.237c0.743-2.717,1.146-5.572,1.146-8.523v-12.892
		c0-17.798-14.428-32.228-32.228-32.228s-32.228,14.428-32.228,32.228v12.892c0,2.952,0.404,5.808,1.146,8.523
		c-19.909,2.665-39.016,7.856-56.993,15.237c-0.714-2.712-1.79-5.378-3.259-7.924l-6.446-11.165
		c-8.9-15.414-28.61-20.696-44.024-11.795c-15.414,8.899-20.696,28.609-11.796,44.023l6.446,11.165
		c1.479,2.561,3.261,4.836,5.267,6.818c-15.611,12.081-29.636,26.106-41.717,41.716c-1.983-2.005-4.257-3.789-6.82-5.267
		l-11.164-6.445c-14.987-8.653-34.007-3.871-43.231,10.568c0.65,13.394,1.957,26.612,3.866,39.635
		c2.058,2.146,4.433,4.056,7.138,5.616l11.163,6.446c2.546,1.469,5.211,2.547,7.925,3.26c-5.718,13.926-10.103,28.535-13.037,43.664
		c39.466,130.095,142.078,232.709,272.173,272.173c15.129-2.933,29.738-7.318,43.664-13.035c0.714,2.712,1.791,5.379,3.259,7.925
		l6.446,11.164c1.563,2.704,3.472,5.079,5.619,7.137c13.022,1.91,26.242,3.217,39.635,3.866
		c14.439-9.224,19.221-28.243,10.568-43.23l-6.446-11.165c-1.479-2.561-3.261-4.836-5.267-6.817
		c15.611-12.081,29.635-26.106,41.716-41.717c1.983,2.005,4.257,3.789,6.819,5.267l11.164,6.446
		c15.414,8.899,35.124,3.618,44.024-11.796c8.9-15.415,3.618-35.126-11.796-44.024l-11.164-6.446
		c-2.547-1.47-5.211-2.546-7.925-3.259c7.383-17.979,12.573-37.086,15.238-56.993c2.716,0.743,5.573,1.147,8.523,1.147h12.892
		c17.799,0,32.229-14.429,32.229-32.229S934.034,562.915,916.234,562.915z M664.855,706.008
		c-61.229,0-110.865-49.636-110.865-110.864c0-61.229,49.637-110.864,110.865-110.864S775.72,533.914,775.72,595.144
		C775.72,656.372,726.084,706.008,664.855,706.008z M1218.225,259.292l-9.501-2.546c-2.181-0.584-4.37-0.83-6.524-0.817
		c1.908-14.954,1.908-30.102,0-45.055c2.154,0.013,4.342-0.231,6.524-0.815l9.501-2.547c13.119-3.515,20.903-16.999,17.389-30.115
		c-3.516-13.117-16.999-20.903-30.116-17.387l-9.501,2.545c-2.168,0.581-4.176,1.458-6.026,2.537
		c-5.72-13.696-13.234-26.817-22.549-39.008c1.869-1.064,3.638-2.369,5.231-3.961l6.954-6.955c9.604-9.604,9.604-25.171,0-34.775
		s-25.172-9.604-34.774,0l-6.955,6.955c-1.594,1.594-2.897,3.362-3.961,5.23c-12.19-9.313-25.313-16.828-39.009-22.548
		c1.08-1.851,1.956-3.856,2.537-6.027l2.545-9.501c3.515-13.119-4.27-26.601-17.389-30.116c-13.116-3.515-26.601,4.27-30.116,17.389
		l-2.544,9.501c-0.584,2.181-0.829,4.369-0.817,6.523c-14.953-1.907-30.102-1.907-45.055,0c0.013-2.154-0.23-4.342-0.816-6.523
		l-2.547-9.501c-3.515-13.119-16.998-20.903-30.115-17.389c-13.119,3.516-20.904,16.999-17.389,30.116l2.545,9.501
		c0.58,2.168,1.457,4.176,2.537,6.027c-13.696,5.72-26.818,13.235-39.008,22.548c-1.064-1.868-2.368-3.638-3.962-5.23l-6.955-6.955
		c-9.604-9.604-25.173-9.604-34.774,0c-9.603,9.604-9.604,25.173,0,34.775l6.954,6.955c1.595,1.594,3.364,2.897,5.231,3.961
		c-9.314,12.19-16.828,25.312-22.549,39.008c-1.851-1.08-3.856-1.956-6.026-2.537l-9.501-2.545
		c-13.119-3.515-26.601,4.27-30.116,17.387c-3.515,13.118,4.27,26.601,17.389,30.115l9.501,2.547c2.181,0.584,4.37,0.83,6.524,0.815
		c-1.908,14.955-1.908,30.102,0,45.055c-2.154-0.013-4.342,0.233-6.524,0.817l-9.501,2.546
		c-13.119,3.515-20.904,16.999-17.389,30.116c3.515,13.117,16.999,20.903,30.116,17.386l9.501-2.546
		c2.168-0.581,4.176-1.457,6.026-2.537c5.721,13.696,13.234,26.818,22.549,39.007c-1.869,1.065-3.639,2.37-5.231,3.962l-6.954,6.955
		c-9.604,9.604-9.604,25.171,0,34.775c9.604,9.604,25.173,9.604,34.774,0l6.955-6.955c1.594-1.594,2.897-3.362,3.962-5.231
		c12.19,9.314,25.312,16.829,39.008,22.548c-1.08,1.851-1.957,3.857-2.537,6.027l-2.545,9.501
		c-3.516,13.119,4.27,26.601,17.389,30.118c13.118,3.516,26.601-4.27,30.115-17.388l2.547-9.501
		c0.584-2.181,0.829-4.368,0.816-6.522c14.953,1.907,30.102,1.907,45.055,0c-0.012,2.154,0.231,4.342,0.817,6.522l2.544,9.501
		c3.516,13.119,17,20.904,30.116,17.388c13.119-3.515,20.903-16.999,17.389-30.118l-2.545-9.501
		c-0.581-2.168-1.457-4.176-2.537-6.027c13.696-5.719,26.818-13.234,39.009-22.548c1.063,1.869,2.367,3.636,3.961,5.231l6.955,6.955
		c9.604,9.604,25.173,9.604,34.774,0c9.604-9.604,9.604-25.171,0-34.775l-6.954-6.955c-1.594-1.594-3.364-2.897-5.231-3.962
		c9.314-12.189,16.829-25.311,22.549-39.007c1.851,1.08,3.856,1.956,6.026,2.537l9.501,2.546
		c13.119,3.515,26.601-4.27,30.116-17.386C1239.128,276.291,1231.344,262.808,1218.225,259.292z M1086.409,293.216
		c-33.033,33.034-86.593,33.034-119.627,0s-33.034-86.593,0-119.627c33.034-33.034,86.594-33.034,119.627,0
		C1119.443,206.623,1119.443,260.182,1086.409,293.216z"/>
	<path fill="#042C5B" d="M664.855,440.449c-85.437,0-154.695,69.259-154.695,154.695S579.418,749.84,664.855,749.84
		c85.436,0,154.695-69.259,154.695-154.695S750.291,440.449,664.855,440.449z M664.855,706.008
		c-61.229,0-110.865-49.636-110.865-110.864c0-61.229,49.637-110.864,110.865-110.864S775.72,533.914,775.72,595.144
		C775.72,656.372,726.084,706.008,664.855,706.008z M1110.058,149.941c-46.095-46.094-120.827-46.094-166.923,0
		s-46.094,120.827,0,166.922c46.094,46.093,120.827,46.093,166.923,0C1156.15,270.769,1156.15,196.035,1110.058,149.941z
		 M1086.409,293.216c-33.033,33.034-86.593,33.034-119.627,0s-33.034-86.593,0-119.627c33.034-33.034,86.594-33.034,119.627,0
		C1119.443,206.623,1119.443,260.182,1086.409,293.216z"/>
</g>
</svg>
