<?xml version="1.0" encoding="utf-8"?>
<!-- Generator: Adobe Illustrator 15.1.0, SVG Export Plug-In . SVG Version: 6.00 Build 0)  -->
<!DOCTYPE svg PUBLIC "-//W3C//DTD SVG 1.1//EN" "http://www.w3.org/Graphics/SVG/1.1/DTD/svg11.dtd">
<svg version="1.1" id="Capa_1" xmlns="http://www.w3.org/2000/svg" xmlns:xlink="http://www.w3.org/1999/xlink" x="0px" y="0px"
	 width="864px" height="864px" viewBox="396 0 864 864" enable-background="new 396 0 864 864" xml:space="preserve">
<g>
	<path fill="#343A6E" stroke="#000000" stroke-width="4" stroke-miterlimit="10" d="M1241.569,432
		c0,59.723-12.66,116.509-35.449,167.773C1141.772,744.591,996.686,845.569,828,845.569S514.228,744.591,449.88,599.773
		C427.091,548.509,414.431,491.723,414.431,432c0-59.722,12.66-116.509,35.449-167.773c35.38-79.641,95.189-146.016,169.917-189.635
		C680.938,38.89,752.071,18.431,828,18.431s147.063,20.459,208.203,56.161c74.73,43.619,134.536,109.994,169.917,189.635
		C1228.909,315.491,1241.569,372.277,1241.569,432z"/>
	<path fill="#F0F0F0" d="M1206.12,123.852v472.094C1141.772,740.762,996.686,841.74,828,841.74S514.228,740.762,449.88,595.943
		V123.852c0-29.321,23.767-53.089,53.073-53.089h650.081C1182.353,70.763,1206.12,94.53,1206.12,123.852z"/>
	<path fill="#BFBFBF" d="M1206.12,123.852v75.202H449.88v-75.202c0-29.321,23.767-53.088,53.073-53.088h650.081
		C1182.353,70.763,1206.12,94.53,1206.12,123.852z"/>
	<circle fill="#EF487D" cx="527.529" cy="138.738" r="38.263"/>
	<circle fill="#F9DF73" cx="627.123" cy="138.738" r="38.263"/>
	<circle fill="#1979BF" cx="726.718" cy="138.738" r="38.263"/>
	<rect x="618.126" y="399.184" fill="#343A6E" width="436.071" height="16.88"/>
	<rect x="520.22" y="351.346" fill="#EA4287" width="195.813" height="112.541"/>
	<polygon fill="#343A6E" points="1054.197,609.623 843.192,609.623 843.192,407.624 860.072,407.624 860.072,592.743 
		1054.197,592.743 	"/>
	
		<rect x="801.558" y="357.54" transform="matrix(0.7071 0.7071 -0.7071 0.7071 537.6528 -482.8032)" fill="#EAA61F" width="100.15" height="100.151"/>
	<rect x="801.548" y="551.108" fill="#1979BF" width="100.151" height="100.151"/>
	<path fill="#EA4287" d="M1054.197,551.105L1054.197,551.105c-27.658,0-50.08,22.42-50.08,50.078l0,0
		c0,27.657,22.42,50.079,50.08,50.079l0,0c27.656,0,50.078-22.42,50.078-50.079l0,0
		C1104.275,573.526,1081.854,551.105,1054.197,551.105z"/>
	<rect x="1004.112" y="357.541" fill="#1979BF" width="100.152" height="100.152"/>
</g>
</svg>
