<?xml version="1.0" encoding="utf-8"?>
<!-- Generator: Adobe Illustrator 15.1.0, SVG Export Plug-In . SVG Version: 6.00 Build 0)  -->
<!DOCTYPE svg PUBLIC "-//W3C//DTD SVG 1.1//EN" "http://www.w3.org/Graphics/SVG/1.1/DTD/svg11.dtd">
<svg version="1.1" id="Layer_1" xmlns="http://www.w3.org/2000/svg" xmlns:xlink="http://www.w3.org/1999/xlink" x="0px" y="0px"
	 width="108px" height="28.5px" viewBox="-37.674 3.5 108 28.5" enable-background="new -37.674 3.5 108 28.5" xml:space="preserve"
	>
<g>
	<g>
		<path fill="#737373" d="M1.003,20.142l-0.604,1.711h-0.05c-0.101-0.386-0.285-0.973-0.587-1.677l-3.237-8.135h-3.17v12.965h2.097
			v-8.001c0-0.503,0-1.073-0.017-1.778c-0.017-0.352-0.05-0.62-0.067-0.822h0.05c0.101,0.503,0.218,0.873,0.302,1.107l3.891,9.459
			h1.476l3.858-9.543c0.083-0.218,0.167-0.654,0.251-1.023h0.05c-0.05,0.956-0.083,1.812-0.101,2.331v8.219h2.231V12.007H4.323
			L1.003,20.142z M9.49,15.663h2.18v9.292H9.49V15.663z M10.596,11.739c-0.369,0-0.671,0.134-0.922,0.369
			c-0.251,0.235-0.386,0.537-0.386,0.906c0,0.353,0.134,0.654,0.386,0.889s0.554,0.352,0.922,0.352c0.369,0,0.688-0.134,0.923-0.352
			c0.251-0.235,0.386-0.537,0.386-0.889c0-0.352-0.134-0.654-0.386-0.906C11.301,11.873,10.982,11.739,10.596,11.739 M19.402,15.58
			c-0.402-0.084-0.821-0.134-1.225-0.134c-0.989,0-1.895,0.218-2.65,0.654c-0.754,0.436-1.358,1.04-1.744,1.794
			c-0.402,0.772-0.604,1.661-0.604,2.684c0,0.889,0.202,1.677,0.587,2.398c0.386,0.704,0.922,1.274,1.644,1.66
			c0.688,0.386,1.493,0.587,2.398,0.587c1.04,0,1.93-0.218,2.634-0.62l0.017-0.018v-2.013l-0.084,0.067
			c-0.318,0.234-0.688,0.436-1.057,0.554c-0.386,0.134-0.737,0.201-1.04,0.201c-0.872,0-1.56-0.252-2.046-0.806
			c-0.503-0.536-0.754-1.274-0.754-2.197c0-0.956,0.251-1.711,0.771-2.264c0.52-0.554,1.208-0.839,2.046-0.839
			c0.704,0,1.426,0.235,2.079,0.705l0.084,0.067v-2.13l-0.017-0.017C20.157,15.798,19.839,15.663,19.402,15.58 M26.597,15.512
			c-0.536,0-1.039,0.168-1.476,0.52c-0.369,0.302-0.621,0.738-0.839,1.258h-0.017v-1.627h-2.181v9.292h2.181v-4.746
			c0-0.805,0.168-1.476,0.537-1.962c0.368-0.503,0.838-0.755,1.408-0.755c0.201,0,0.402,0.05,0.654,0.084
			c0.235,0.067,0.402,0.134,0.52,0.218l0.084,0.067V15.68l-0.05-0.017C27.268,15.563,26.967,15.512,26.597,15.512 M32.535,15.462
			c-1.526,0-2.75,0.453-3.605,1.341c-0.873,0.889-1.292,2.114-1.292,3.657c0,1.443,0.437,2.617,1.275,3.472
			c0.838,0.838,1.979,1.274,3.404,1.274c1.493,0,2.684-0.453,3.539-1.358c0.872-0.906,1.291-2.113,1.291-3.606
			c0-1.476-0.402-2.65-1.224-3.505C35.135,15.881,33.977,15.462,32.535,15.462 M34.279,22.607c-0.402,0.52-1.039,0.771-1.828,0.771
			c-0.788,0-1.426-0.252-1.878-0.806c-0.453-0.52-0.671-1.274-0.671-2.23c0-0.989,0.234-1.744,0.671-2.281
			c0.452-0.537,1.073-0.805,1.861-0.805c0.771,0,1.375,0.251,1.812,0.771s0.671,1.275,0.671,2.264
			C34.884,21.299,34.699,22.087,34.279,22.607 M42.011,19.521c-0.688-0.285-1.124-0.503-1.325-0.688
			c-0.167-0.167-0.251-0.403-0.251-0.705c0-0.251,0.101-0.503,0.352-0.671c0.252-0.168,0.537-0.251,0.956-0.251
			c0.369,0,0.755,0.067,1.124,0.168c0.369,0.101,0.704,0.251,0.973,0.453l0.084,0.067v-2.046l-0.05-0.017
			c-0.252-0.101-0.588-0.201-0.99-0.285c-0.402-0.067-0.771-0.101-1.073-0.101c-1.04,0-1.896,0.251-2.566,0.805
			c-0.671,0.52-0.989,1.225-0.989,2.046c0,0.436,0.066,0.822,0.218,1.14c0.151,0.319,0.369,0.621,0.671,0.873
			c0.302,0.234,0.738,0.503,1.342,0.755c0.503,0.218,0.889,0.386,1.124,0.52c0.234,0.134,0.386,0.285,0.503,0.402
			c0.084,0.135,0.134,0.303,0.134,0.521c0,0.62-0.469,0.922-1.425,0.922c-0.369,0-0.755-0.066-1.208-0.218s-0.872-0.369-1.225-0.621
			l-0.084-0.066v2.13l0.051,0.017c0.318,0.151,0.704,0.252,1.174,0.369c0.47,0.084,0.89,0.151,1.258,0.151
			c1.124,0,2.047-0.252,2.7-0.806c0.672-0.536,1.023-1.225,1.023-2.113c0-0.62-0.168-1.174-0.536-1.594
			C43.487,20.276,42.884,19.856,42.011,19.521 M50.263,15.462c-1.526,0-2.751,0.453-3.605,1.341
			c-0.855,0.889-1.292,2.114-1.292,3.657c0,1.443,0.437,2.617,1.275,3.472c0.838,0.838,1.979,1.274,3.404,1.274
			c1.492,0,2.684-0.453,3.539-1.358c0.872-0.906,1.291-2.113,1.291-3.606c0-1.476-0.402-2.65-1.224-3.505
			C52.863,15.881,51.706,15.462,50.263,15.462 M51.991,22.607c-0.402,0.52-1.04,0.771-1.828,0.771c-0.805,0-1.426-0.252-1.878-0.806
			c-0.453-0.52-0.672-1.274-0.672-2.23c0-0.989,0.235-1.744,0.672-2.281c0.452-0.537,1.073-0.805,1.861-0.805
			c0.755,0,1.375,0.251,1.812,0.771c0.436,0.52,0.671,1.275,0.671,2.264C52.629,21.299,52.411,22.087,51.991,22.607"/>
		<path fill="#737373" d="M66.533,17.458v-1.795h-2.197v-2.75l-0.067,0.017l-2.079,0.62l-0.051,0.017v2.097h-3.287v-1.174
			c0-0.536,0.134-0.956,0.369-1.224c0.234-0.269,0.587-0.403,1.023-0.403c0.302,0,0.62,0.067,0.972,0.218l0.084,0.05v-1.895
			l-0.05-0.017c-0.302-0.101-0.705-0.167-1.225-0.167c-0.654,0-1.225,0.151-1.744,0.402c-0.52,0.285-0.906,0.671-1.191,1.191
			c-0.285,0.503-0.436,1.073-0.436,1.728v1.292h-1.526v1.778h1.526v7.515h2.197v-7.498h3.287v4.78c0,1.963,0.923,2.952,2.768,2.952
			c0.302,0,0.621-0.05,0.923-0.101c0.318-0.067,0.553-0.15,0.688-0.218l0.017-0.018v-1.794l-0.084,0.066
			c-0.134,0.084-0.251,0.151-0.453,0.201c-0.167,0.051-0.318,0.067-0.436,0.067c-0.437,0-0.738-0.101-0.956-0.352
			c-0.201-0.235-0.302-0.621-0.302-1.191v-4.395H66.533L66.533,17.458z"/>
	</g>
	<path fill="#F25022" d="M-34.756,7.68h10.282v10.282h-10.282V7.68z"/>
	<path fill="#7FBA00" d="M-23.401,7.68h10.282v10.282h-10.282V7.68z"/>
	<path fill="#00A4EF" d="M-34.756,19.035h10.282v10.282h-10.282V19.035z"/>
	<path fill="#FFB900" d="M-23.401,19.035h10.282v10.282h-10.282V19.035z"/>
</g>
</svg>
