<?xml version="1.0" encoding="utf-8"?>
<!-- Generator: Adobe Illustrator 15.1.0, SVG Export Plug-In . SVG Version: 6.00 Build 0)  -->
<!DOCTYPE svg PUBLIC "-//W3C//DTD SVG 1.1//EN" "http://www.w3.org/Graphics/SVG/1.1/DTD/svg11.dtd">
<svg version="1.1" id="Layer_1" xmlns="http://www.w3.org/2000/svg" xmlns:xlink="http://www.w3.org/1999/xlink" x="0px" y="0px"
	 width="150px" height="125px" viewBox="0 0 150 125" enable-background="new 0 0 150 125" xml:space="preserve">
<g id="Layer_3_1_" display="none">
	<rect x="-983.181" y="326.395" display="inline" stroke="#FFFFFF" stroke-miterlimit="10" width="53.181" height="53.105"/>
</g>
<g id="Layer_1_2_">
	<g>
		<g id="Layer_1_1_">
			<g>
				<g>
					<path fill="#FFFFFF" d="M-960.61,334.313c1.689-0.645,3.53,0.149,4.175,1.79c0.644,1.641-0.2,3.479-1.84,4.125
						c-1.689,0.646-3.527-0.148-4.171-1.79C-963.094,336.797-962.3,334.959-960.61,334.313z"/>
				</g>
				<g>
					<g>
						<path fill="#04437C" d="M-957.678,350.368v-2.635l2.694-0.804c0.229-0.803,0.573-1.604,0.974-2.292l-1.2-2.464l1.889-1.891
							l2.463,1.316c0.688-0.4,1.49-0.687,2.292-0.917l0.805-2.635h2.693l0.802,2.635c0.802,0.174,1.604,0.517,2.291,0.917
							l2.465-1.316l1.892,1.891l-1.375,2.406c0.458,0.745,0.745,1.489,0.974,2.291l2.693,0.803v2.693l-2.636,0.802
							c-0.229,0.802-0.573,1.604-0.975,2.292l1.318,2.462l-1.949,1.895l-2.464-1.261c-0.688,0.399-1.489,0.686-2.291,0.918
							l-0.803,2.636h-2.698l-0.858-2.692c-0.802-0.175-1.604-0.52-2.291-0.92l-2.465,1.317l-1.889-1.892l1.315-2.466
							c-0.456-0.745-0.744-1.489-0.974-2.291L-957.678,350.368z"/>
						<ellipse fill="#FFFFFF" cx="-946.506" cy="349.05" rx="4.58" ry="4.526"/>
					</g>
					<g>
						<path fill="#04437C" d="M-968.629,338.96l-0.803-2.005l1.777-1.376c-0.056-0.688-0.056-1.374,0.059-2.005l-1.721-1.432
							l0.859-2.006l2.236,0.229c0.4-0.516,0.859-0.975,1.433-1.374l-0.174-2.235l2.01-0.802l1.374,1.718
							c0.688-0.057,1.374-0.057,2.004,0.059l1.491-1.719l2.005,0.858l-0.286,2.235c0.516,0.399,0.977,0.858,1.377,1.432l2.233-0.172
							l0.803,2.005l-1.78,1.375c0.056,0.688,0.056,1.373-0.058,2.005l1.718,1.432l-0.859,2.007l-2.233-0.229
							c-0.405,0.515-0.861,0.974-1.436,1.374l0.171,2.233l-2.063,0.803l-1.375-1.775c-0.688,0.058-1.374,0.058-2.004-0.058
							l-1.491,1.718l-2.004-0.858l0.284-2.234c-0.514-0.4-0.973-0.859-1.373-1.432L-968.629,338.96z"/>
						<path fill="#FFFFFF" d="M-962.041,331.225c1.948-0.743,4.069,0.174,4.811,2.063c0.743,1.892-0.229,4.012-2.121,4.756
							c-1.948,0.744-4.065-0.172-4.811-2.063C-964.903,334.09-963.989,331.969-962.041,331.225z"/>
					</g>
				</g>
			</g>
			<g>
				<path fill="#04437C" d="M-970.834,375.021l-0.839-2.498l2.299-1.619c-0.038-0.832,0.03-1.702,0.191-2.479l-1.924-1.956
					l1.191-2.394l2.757,0.466c0.523-0.599,1.192-1.124,1.879-1.6l-0.081-2.753l2.554-0.857l1.598,2.242
					c0.818-0.092,1.686-0.022,2.467,0.144l1.914-2.035l2.395,1.189l-0.539,2.719c0.673,0.559,1.184,1.173,1.653,1.861l2.812-0.096
					l0.855,2.554l-2.242,1.599c0.033,0.831-0.034,1.699-0.196,2.479l2.032,1.912l-1.244,2.415l-2.735-0.409
					c-0.523,0.597-1.195,1.123-1.881,1.597l0.081,2.754l-2.553,0.859l-1.675-2.278c-0.815,0.09-1.682,0.02-2.463-0.144l-1.916,2.034
					l-2.394-1.191l0.467-2.754c-0.671-0.562-1.181-1.174-1.652-1.862L-970.834,375.021z"/>
				<path fill="#FFFFFF" d="M-965.009,371.68c-0.796-2.37,0.504-4.944,2.904-5.751c2.4-0.805,4.989,0.462,5.786,2.831
					c0.795,2.37-0.506,4.942-2.906,5.748C-961.624,375.313-964.214,374.046-965.009,371.68z"/>
			</g>
		</g>
	</g>
</g>
<g id="Layer_4">
	<g>
		<path fill="#04437C" d="M77.439,28.761l-1.711,0.001l-1.938,0.148c-0.346-0.496-0.745-0.896-1.192-1.241l0.247-1.938l-1.737-0.745
			l-1.293,1.489c-0.546-0.098-1.142-0.098-1.738-0.049l-1.191-1.491l-1.742,0.696l0.15,1.938c-0.497,0.347-0.896,0.744-1.243,1.19
			l-1.939-0.198l-0.746,1.739l1.492,1.241c-0.1,0.547-0.1,1.143-0.051,1.738l-1.542,1.191l0.697,1.739l1.886-0.198
			c0.346,0.495,0.745,0.896,1.191,1.24l-0.248,1.939l9.473,8.813v0.171l0.271,0.08l1.971,1.834l0.368-0.424
			c0.154,0.402,0.331,0.799,0.57,1.19v0.003l-11.382,9.355l-1.102-1.546l-2.215,0.742l0.069,2.39
			c-0.596,0.412-1.176,0.867-1.63,1.387l-2.39-0.402l-1.033,2.075l1.186,1.204l-0.035,0.028l0.504,0.559
			c-0.126,0.648-0.186,1.363-0.154,2.056l-1.993,1.404l0.727,2.167l2.438-0.087c0.41,0.597,0.852,1.129,1.434,1.613l-0.404,2.389
			l2.075,1.034l1.662-1.763c0.675,0.14,1.429,0.201,2.137,0.122l1.451,1.977l0.379-0.127L98.664,125H150V75.568L77.439,28.761z"/>
		<g id="Layer_1_3_">
			<g>
				<g>
					<path fill="#FFFFFF" d="M67.823,31.093c1.689-0.645,3.53,0.149,4.174,1.79c0.644,1.64-0.2,3.479-1.839,4.125
						c-1.689,0.646-3.527-0.148-4.171-1.79C65.339,33.577,66.134,31.739,67.823,31.093z"/>
				</g>
				<g>
					<g>
						<path fill="#FFFFFF" d="M70.755,47.148v-2.635l2.695-0.803c0.229-0.803,0.573-1.604,0.974-2.292l-1.2-2.464l1.888-1.892
							l2.463,1.317c0.688-0.401,1.489-0.687,2.292-0.917l0.805-2.635h2.693l0.802,2.635c0.802,0.173,1.604,0.516,2.291,0.917
							l2.465-1.317l1.892,1.892l-1.375,2.406c0.459,0.744,0.746,1.488,0.975,2.291l2.693,0.803v2.692l-2.637,0.803
							c-0.229,0.802-0.572,1.604-0.974,2.292l1.317,2.462l-1.948,1.894l-2.464-1.26c-0.688,0.399-1.489,0.685-2.291,0.918
							l-0.803,2.635h-2.699l-0.858-2.691c-0.802-0.176-1.604-0.521-2.291-0.92l-2.464,1.316l-1.889-1.891l1.315-2.466
							c-0.456-0.745-0.744-1.489-0.973-2.291L70.755,47.148z"/>
						<ellipse fill="#04437C" cx="81.928" cy="45.831" rx="4.58" ry="4.526"/>
					</g>
					<g>
						<path fill="#FFFFFF" d="M59.805,35.74l-0.803-2.005l1.777-1.376c-0.055-0.688-0.055-1.374,0.059-2.006l-1.721-1.431
							l0.86-2.006l2.236,0.229c0.4-0.515,0.859-0.974,1.433-1.374l-0.173-2.234l2.009-0.802l1.374,1.718
							c0.688-0.058,1.374-0.058,2.004,0.058l1.492-1.718l2.004,0.858l-0.286,2.234c0.515,0.4,0.977,0.859,1.377,1.433l2.232-0.173
							l0.803,2.006l-1.779,1.375c0.056,0.688,0.056,1.372-0.058,2.005l1.718,1.432l-0.859,2.006l-2.233-0.229
							c-0.405,0.515-0.861,0.974-1.436,1.374l0.171,2.232l-2.063,0.804l-1.375-1.775c-0.688,0.057-1.374,0.057-2.004-0.058
							l-1.492,1.718l-2.004-0.859l0.285-2.234c-0.514-0.399-0.973-0.858-1.373-1.432L59.805,35.74z"/>
						<path fill="#04437C" d="M66.393,28.005c1.948-0.744,4.069,0.173,4.81,2.063c0.744,1.892-0.229,4.012-2.121,4.756
							c-1.948,0.744-4.066-0.172-4.811-2.063C63.53,30.87,64.444,28.749,66.393,28.005z"/>
					</g>
				</g>
			</g>
			<g>
				<path fill="#FFFFFF" d="M57.6,71.802l-0.839-2.498l2.299-1.619c-0.039-0.832,0.03-1.701,0.191-2.479l-1.924-1.956l1.191-2.395
					l2.757,0.467c0.523-0.6,1.193-1.124,1.879-1.601l-0.081-2.753l2.554-0.856l1.598,2.241c0.818-0.092,1.685-0.021,2.467,0.145
					l1.914-2.035l2.395,1.189l-0.539,2.719c0.672,0.558,1.183,1.173,1.653,1.861l2.812-0.097l0.856,2.554l-2.243,1.6
					c0.034,0.831-0.034,1.699-0.196,2.479l2.033,1.912l-1.245,2.415l-2.735-0.409c-0.524,0.598-1.195,1.123-1.881,1.598l0.081,2.754
					l-2.553,0.858l-1.674-2.277c-0.815,0.09-1.682,0.019-2.463-0.145l-1.917,2.035l-2.394-1.192l0.467-2.754
					c-0.671-0.561-1.181-1.174-1.653-1.861L57.6,71.802z"/>
				<path fill="#04437C" d="M63.425,68.46c-0.796-2.37,0.503-4.945,2.904-5.751c2.4-0.805,4.989,0.462,5.786,2.831
					c0.795,2.37-0.506,4.941-2.906,5.748C66.809,72.094,64.22,70.826,63.425,68.46z"/>
			</g>
		</g>
	</g>
</g>
</svg>
