<?xml version="1.0" encoding="utf-8"?>
<!-- Generator: Adobe Illustrator 15.1.0, SVG Export Plug-In . SVG Version: 6.00 Build 0)  -->
<!DOCTYPE svg PUBLIC "-//W3C//DTD SVG 1.1//EN" "http://www.w3.org/Graphics/SVG/1.1/DTD/svg11.dtd">
<svg version="1.1" id="Capa_1" xmlns="http://www.w3.org/2000/svg" xmlns:xlink="http://www.w3.org/1999/xlink" x="0px" y="0px"
	 width="1080px" height="1080px" viewBox="420 0 1080 1080" enable-background="new 420 0 1080 1080" xml:space="preserve">
<g>
	<polygon fill="#686C83" points="1274.587,1044.073 645.412,1044.073 696.792,892.445 1223.206,892.445 	"/>
	<path fill="#FF5D5D" d="M1199.736,892.445H720.264V574.818c0-132.402,107.335-239.737,239.736-239.737l0,0
		c132.4,0,239.736,107.335,239.736,239.737V892.445z"/>
	<g>
		<path fill="#FFFFFF" d="M960,644.516L960,644.516c-22.634,0-40.979-18.348-40.979-40.979v-98.354
			c0-22.634,18.348-40.979,40.979-40.979l0,0c22.634,0,40.979,18.347,40.979,40.979v98.354
			C1000.979,626.166,982.634,644.516,960,644.516z"/>
		<path fill="#FFFFFF" d="M960,808.435L960,808.435c-22.634,0-40.979-18.347-40.979-40.979l0,0
			c0-22.635,18.348-40.979,40.979-40.979l0,0c22.634,0,40.979,18.347,40.979,40.979l0,0
			C1000.979,790.088,982.634,808.435,960,808.435z"/>
	</g>
	<path d="M1242.613,885.87c-2.817-8.319-10.625-13.916-19.407-13.916h-2.981V574.818c0-143.489-116.736-260.228-260.227-260.228
		S699.771,431.327,699.771,574.818v297.136h-2.981c-8.782,0-16.59,5.597-19.407,13.916l-51.379,151.628
		c-2.12,6.256-1.094,13.146,2.754,18.515c3.849,5.367,10.047,8.552,16.654,8.552h629.175c6.606,0,12.805-3.185,16.652-8.552
		c3.849-5.368,4.875-12.259,2.755-18.515L1242.613,885.87z M740.754,574.82c0-120.892,98.354-219.246,219.246-219.246
		s219.246,98.354,219.246,219.246v297.136H740.754V574.82L740.754,574.82z M673.991,1023.584l37.495-110.648h497.031l37.492,110.648
		H673.991z"/>
	<path d="M960,179.36c11.315,0,20.491-9.176,20.491-20.491V35.927c0-11.315-9.176-20.491-20.491-20.491s-20.491,9.176-20.491,20.491
		V158.87C939.509,170.185,948.683,179.36,960,179.36z"/>
	<path d="M960,259.182c5.39,0,10.676-2.174,14.484-5.983c3.813-3.832,6.007-9.098,6.007-14.487c0-5.412-2.192-10.675-6.007-14.507
		c-3.809-3.811-9.095-5.983-14.484-5.983c-5.389,0-10.676,2.172-14.487,5.983c-3.812,3.832-6.004,9.096-6.004,14.507
		c0,5.389,2.19,10.655,6.004,14.487C949.324,257.008,954.611,259.182,960,259.182z"/>
	<path d="M651.622,584.381c0-11.314-9.176-20.491-20.491-20.491h-94.087c-11.316,0-20.491,9.177-20.491,20.491
		c0,11.315,9.175,20.49,20.491,20.49h94.089C642.446,604.871,651.622,595.696,651.622,584.381z"/>
	<path d="M455.941,563.893c-5.389,0-10.675,2.19-14.487,6.003c-3.812,3.813-6.004,9.099-6.004,14.488
		c0,5.388,2.19,10.675,6.004,14.484c3.812,3.811,9.098,6.006,14.487,6.006s10.676-2.193,14.485-6.006
		c3.812-3.81,6.006-9.097,6.006-14.484c0-5.39-2.192-10.677-6.006-14.488C466.617,566.083,461.33,563.893,455.941,563.893z"/>
	<path d="M784.179,213.461c3.27,7.891,10.899,12.655,18.939,12.655c2.613,0,5.269-0.504,7.834-1.565
		c10.456-4.332,15.419-16.319,11.09-26.773l-27.773-67.048c-4.332-10.455-16.317-15.411-26.774-11.09
		c-10.456,4.332-15.419,16.319-11.088,26.773L784.179,213.461z"/>
	<path d="M581.228,447.988c8.041,0,15.669-4.764,18.939-12.655c4.33-10.456-0.635-22.441-11.089-26.773l-67.048-27.771
		c-10.458-4.319-22.442,0.637-26.773,11.09c-4.33,10.457,0.635,22.441,11.089,26.773l67.048,27.772
		C575.96,447.482,578.615,447.988,581.228,447.988z"/>
	<path d="M1391.495,563.893h-94.09c-11.315,0-20.491,9.176-20.491,20.491c0,11.314,9.176,20.49,20.491,20.49h94.09
		c11.314,0,20.491-9.176,20.491-20.49C1411.986,573.068,1402.81,563.893,1391.495,563.893z"/>
	<path d="M1478.544,569.896c-3.81-3.811-9.096-6.003-14.485-6.003c-5.389,0-10.676,2.19-14.486,6.003
		c-3.812,3.813-6.004,9.099-6.004,14.488c0,5.388,2.19,10.675,6.004,14.484c3.811,3.811,9.098,6.006,14.486,6.006
		c5.39,0,10.676-2.193,14.485-6.006c3.812-3.81,6.006-9.097,6.006-14.484C1484.55,578.992,1482.357,573.707,1478.544,569.896z"/>
	<path d="M1249.892,314.978c5.245,0,10.487-2.001,14.488-6.001l100.821-100.823c8.001-8.001,8.001-20.977,0-28.98
		c-8.004-8-20.975-8-28.98,0L1235.4,279.997c-8.001,8.002-8.001,20.977,0,28.98C1239.404,312.979,1244.647,314.978,1249.892,314.978
		z"/>
	<path d="M655.618,308.979c4.001,4,9.245,6.002,14.488,6.002c5.244,0,10.487-2.002,14.489-6.002c8.002-8.001,8.002-20.976,0-28.98
		L583.775,179.18c-8.003-8-20.975-8-28.98,0c-8.002,8.001-8.002,20.976,0,28.979L655.618,308.979z"/>
	<path d="M1109.046,224.551c2.565,1.062,5.222,1.565,7.834,1.565c8.04,0,15.669-4.764,18.939-12.655l27.772-67.048
		c4.33-10.457-0.635-22.441-11.09-26.773c-10.455-4.319-22.44,0.638-26.772,11.09l-27.773,67.048
		C1093.627,208.231,1098.592,220.217,1109.046,224.551z"/>
	<path d="M1397.968,380.789l-67.048,27.773c-10.457,4.332-15.419,16.319-11.09,26.773c3.271,7.892,10.899,12.656,18.94,12.656
		c2.612,0,5.268-0.505,7.834-1.566l67.047-27.772c10.456-4.333,15.42-16.319,11.09-26.773
		C1420.41,381.422,1408.425,376.465,1397.968,380.789z"/>
	<path d="M960,443.709c-33.896,0-61.471,27.577-61.471,61.47v98.354c0,33.896,27.577,61.47,61.471,61.47s61.471-27.577,61.471-61.47
		V505.18C1021.471,471.287,993.896,443.709,960,443.709z M980.491,603.534c0,11.298-9.192,20.49-20.491,20.49
		c-11.298,0-20.491-9.192-20.491-20.49V505.18c0-11.298,9.192-20.491,20.491-20.491c11.299,0,20.491,9.192,20.491,20.491V603.534z"
		/>
	<path d="M960,705.985c-33.896,0-61.471,27.577-61.471,61.471c0,33.896,27.577,61.47,61.471,61.47s61.471-27.576,61.471-61.47
		C1021.471,733.561,993.896,705.985,960,705.985z M960,787.947c-11.298,0-20.491-9.192-20.491-20.491s9.192-20.49,20.491-20.49
		c11.299,0,20.491,9.191,20.491,20.49S971.299,787.947,960,787.947z"/>
</g>
</svg>
