<?xml version="1.0" encoding="utf-8"?>
<!-- Generator: Adobe Illustrator 15.1.0, SVG Export Plug-In . SVG Version: 6.00 Build 0)  -->
<!DOCTYPE svg PUBLIC "-//W3C//DTD SVG 1.1//EN" "http://www.w3.org/Graphics/SVG/1.1/DTD/svg11.dtd">
<svg version="1.1" id="Capa_1" xmlns="http://www.w3.org/2000/svg" xmlns:xlink="http://www.w3.org/1999/xlink" x="0px" y="0px"
	 width="444.82px" height="444.82px" viewBox="0 0 444.82 444.82" enable-background="new 0 0 444.82 444.82" xml:space="preserve">
<g>
	<path d="M10.566,236.111l185.865,185.865c7.041,7.043,15.692,10.564,25.976,10.564c10.467,0,19.036-3.521,25.697-10.564
		L433.97,236.111c7.232-7.231,10.848-15.896,10.848-25.983c0-9.897-3.619-18.459-10.848-25.692l-21.411-21.41
		c-6.854-7.23-15.421-10.854-25.697-10.854c-10.278,0-18.842,3.624-25.696,10.854l-83.939,83.651V45.679
		c0-9.891-3.567-17.938-10.706-24.127c-7.14-6.184-15.752-9.273-25.837-9.273h-36.545c-10.089,0-18.698,3.09-25.837,9.273
		c-7.139,6.188-10.712,14.236-10.712,24.127v200.996l-83.938-83.65c-6.848-7.231-15.412-10.855-25.699-10.855
		c-10.082,0-18.748,3.624-25.975,10.855l-21.41,21.408C3.523,191.859,0,200.421,0,210.126
		C-0.002,220.025,3.523,228.685,10.566,236.111z"/>
</g>
</svg>
