<?xml version="1.0" encoding="utf-8"?>
<!-- Generator: Adobe Illustrator 15.1.0, SVG Export Plug-In . SVG Version: 6.00 Build 0)  -->
<!DOCTYPE svg PUBLIC "-//W3C//DTD SVG 1.1//EN" "http://www.w3.org/Graphics/SVG/1.1/DTD/svg11.dtd">
<svg version="1.1" id="Layer_1" xmlns="http://www.w3.org/2000/svg" xmlns:xlink="http://www.w3.org/1999/xlink" x="0px" y="0px"
	 width="300px" height="158.302px" viewBox="0 0 300 158.302" enable-background="new 0 0 300 158.302" xml:space="preserve">
<g>
	<defs>
		<path id="SVGID_1_" d="M276.103,144.484v0.742h2.148v5.559h0.895v-5.559h2.114v-0.742H276.103z M286.839,144.484l-1.824,5.154
			h-0.046l-1.882-5.154h-1.372v6.301h0.884v-5.161h0.023l1.869,5.161h0.837l1.915-5.161h0.035v5.161h0.898v-6.301H286.839z
			 M90.628,150.785h12.074v-47.864H90.628V150.785z M37.519,126.844c0,15.435,11.912,24.794,25.474,24.794
			c5.4,0,9.512-1.269,11.032-1.704v-12.848c-0.537,0.275-4.479,2.532-10.141,2.532c-8.06,0-13.248-5.662-13.248-12.774
			c0-7.311,5.414-12.772,13.248-12.772c5.763,0,9.643,2.325,10.141,2.572v-12.854c-1.145-0.337-5.344-1.709-11.032-1.709
			C48.307,102.08,37.519,112.546,37.519,126.844 M163.578,126.844c0,15.435,11.914,24.794,25.506,24.794
			c5.36,0,9.485-1.269,11.007-1.704v-12.848c-0.523,0.275-4.484,2.532-10.151,2.532c-8.048,0-13.24-5.662-13.24-12.774
			c0-7.311,5.418-12.772,13.24-12.772c5.763,0,9.662,2.325,10.151,2.572v-12.854c-1.143-0.337-5.337-1.709-11.007-1.709
			C174.367,102.08,163.578,112.546,163.578,126.844 M225.592,126.844c0-6.936,5.33-12.582,12.499-12.582
			c7.165,0,12.499,5.646,12.499,12.582c0,6.979-5.334,12.614-12.499,12.614C230.922,139.458,225.592,133.822,225.592,126.844
			 M212.815,126.844c0,13.696,10.552,24.794,25.276,24.794c14.716,0,25.279-11.098,25.279-24.794
			c0-13.672-10.563-24.764-25.279-24.764C223.367,102.08,212.815,113.172,212.815,126.844 M118.897,117.021
			c0,7.923,5.632,11.883,12.334,13.997c0.754,0.249,1.847,0.597,2.596,0.85c2.979,0.933,5.368,2.332,5.368,4.736
			c0,2.738-2.753,4.489-8.775,4.489c-5.272,0-10.338-1.514-11.401-1.778v11.022c0.608,0.119,6.618,1.3,13.03,1.3
			c9.249,0,19.821-4.032,19.821-16.065c0-5.827-3.571-11.202-11.401-13.688l-3.338-1.063c-1.977-0.623-5.532-1.652-5.532-4.553
			c0-2.304,2.623-3.931,7.47-3.931c4.168,0,9.269,1.406,9.444,1.462v-10.222c-0.366-0.101-5.892-1.524-11.768-1.524
			C125.604,102.055,118.897,108.075,118.897,117.021 M12.708,51.483v12.558c0,3.331,2.705,5.984,6.007,5.984
			c3.305,0,5.991-2.653,5.991-5.984V51.483c0-3.296-2.686-5.982-5.991-5.982C15.413,45.501,12.708,48.188,12.708,51.483
			 M144.468,51.483v12.558c0,3.331,2.695,5.984,6.002,5.984c3.27,0,5.954-2.653,5.954-5.984V51.483c0-3.296-2.685-5.982-5.954-5.982
			C147.164,45.501,144.468,48.188,144.468,51.483 M276.225,51.483v12.558c0,3.331,2.665,5.984,5.98,5.984
			c3.28,0,5.972-2.653,5.972-5.984V51.483c0-3.296-2.691-5.982-5.972-5.982C278.89,45.501,276.225,48.188,276.225,51.483
			 M45.655,34.986v29.055c0,3.331,2.682,5.984,5.997,5.984c3.306,0,6-2.653,6-5.984V34.986c0-3.282-2.694-5.985-6-5.985
			C48.337,29,45.655,31.704,45.655,34.986 M111.542,34.986v29.055c0,3.331,2.692,5.984,5.983,5.984c3.315,0,5.999-2.653,5.999-5.984
			V34.986c0-3.282-2.684-5.985-5.999-5.985C114.233,29,111.542,31.704,111.542,34.986 M177.426,34.986v29.055
			c0,3.331,2.672,5.984,5.979,5.984c3.301,0,5.988-2.653,5.988-5.984V34.986c0-3.282-2.688-5.985-5.988-5.985
			C180.098,29,177.426,31.704,177.426,34.986 M243.26,34.986v29.055c0,3.331,2.673,5.984,5.976,5.984
			c3.368,0,6.049-2.653,6.049-5.984V34.986c0-3.282-2.681-5.985-6.049-5.985C245.933,29,243.26,31.704,243.26,34.986 M78.588,12.426
			v63.562c0,3.311,2.688,6,6.001,6c3.297,0,5.989-2.69,5.989-6V12.426c0-3.302-2.691-5.982-5.989-5.982
			C81.276,6.444,78.588,9.124,78.588,12.426 M210.379,12.426v63.562c0,3.311,2.685,6,5.979,6c3.311,0,5.98-2.69,5.98-6V12.426
			c0-3.302-2.67-5.982-5.98-5.982C213.064,6.444,210.379,9.124,210.379,12.426"/>
	</defs>
	<clipPath id="SVGID_2_">
		<use xlink:href="#SVGID_1_"  overflow="visible"/>
	</clipPath>
	
		<linearGradient id="SVGID_3_" gradientUnits="userSpaceOnUse" x1="-261.6753" y1="395.0527" x2="-260.9895" y2="395.0527" gradientTransform="matrix(0 -207.0655 207.0655 0 -81651.4766 -54036.5898)">
		<stop  offset="0" style="stop-color:#147EBC"/>
		<stop  offset="0.4241" style="stop-color:#1289C6"/>
		<stop  offset="1" style="stop-color:#0B9EDA"/>
	</linearGradient>
	<rect x="12.708" y="6.444" clip-path="url(#SVGID_2_)" fill="url(#SVGID_3_)" width="275.47" height="145.194"/>
</g>
</svg>
