<?xml version="1.0" encoding="utf-8"?>
<!-- Generator: Adobe Illustrator 23.0.3, SVG Export Plug-In . SVG Version: 6.00 Build 0)  -->
<svg version="1.1" id="Layer_1" xmlns="http://www.w3.org/2000/svg" xmlns:xlink="http://www.w3.org/1999/xlink" x="0px" y="0px"
	 viewBox="0 0 512 512" style="enable-background:new 0 0 512 512;" xml:space="preserve">
<style type="text/css">
	.st0{fill-rule:evenodd;clip-rule:evenodd;fill:#28C4F0;}
</style>
<path class="st0" d="M398.3,189.3C398.3,110.1,334.1,46,255,46s-143.3,64.1-143.3,143.3c0,11.3,1.3,22.2,3.8,32.8l0,0l0,0
	c16.9,72.1,121.8,163.6,139.4,244C271.6,385.8,398.3,267.7,398.3,189.3L398.3,189.3z M255,103.9c47.2,0,85.4,38.2,85.4,85.4
	s-38.2,85.4-85.4,85.4s-85.4-38.2-85.4-85.4S207.8,103.9,255,103.9L255,103.9z"/>
</svg>
