<?xml version="1.0" encoding="utf-8"?>
<svg version="1.1" xmlns:xlink="http://www.w3.org/1999/xlink" width="28px" height="33px" xmlns="http://www.w3.org/2000/svg">
  <g transform="matrix(1 0 0 1 -128 0 )">
    <path d="M 2.5375 0  L 25.4625 0  C 25.7979166666667 0  26.11875 0.0654329147389299  26.425 0.19629874421679  C 26.90625 0.38532716457369  27.2890625 0.683410442828815  27.5734375 1.09054857898215  C 27.8578125 1.49768671513549  28 1.94844679444811  28 2.44282881692003  L 28 30.55717118308  C 28 31.0515532055519  27.8578125 31.5023132848645  27.5734375 31.9094514210178  C 27.2890625 32.3165895571712  26.90625 32.6146728354263  26.425 32.8037012557832  C 26.1479166666667 32.9200264375413  25.8270833333333 32.9781890284204  25.4625 32.9781890284204  C 24.7625 32.9781890284204  24.1572916666667 32.7455386649042  23.646875 32.2802379378718  L 14 23.0323859881031  L 4.353125 32.2802379378718  C 3.828125 32.7600793126239  3.22291666666667 33  2.5375 33  C 2.20208333333333 33  1.88125 32.9345670852611  1.575 32.8037012557832  C 1.09375 32.6146728354263  0.7109375 32.3165895571712  0.4265625 31.9094514210178  C 0.1421875 31.5023132848645  0 31.0515532055519  0 30.55717118308  L 0 2.44282881692003  C 0 1.94844679444811  0.1421875 1.49768671513549  0.4265625 1.09054857898215  C 0.7109375 0.683410442828815  1.09375 0.38532716457369  1.575 0.19629874421679  C 1.88125 0.0654329147389299  2.20208333333333 0  2.5375 0  Z " fill-rule="nonzero" fill="#00c387" stroke="none" transform="matrix(1 0 0 1 128 0 )" />
  </g>
</svg>