<?xml version="1.0" encoding="utf-8"?>
<!-- Generator: Adobe Illustrator 15.1.0, SVG Export Plug-In . SVG Version: 6.00 Build 0)  -->
<!DOCTYPE svg PUBLIC "-//W3C//DTD SVG 1.1//EN" "http://www.w3.org/Graphics/SVG/1.1/DTD/svg11.dtd" [
	<!ENTITY ns_extend "http://ns.adobe.com/Extensibility/1.0/">
	<!ENTITY ns_ai "http://ns.adobe.com/AdobeIllustrator/10.0/">
	<!ENTITY ns_graphs "http://ns.adobe.com/Graphs/1.0/">
	<!ENTITY ns_vars "http://ns.adobe.com/Variables/1.0/">
	<!ENTITY ns_imrep "http://ns.adobe.com/ImageReplacement/1.0/">
	<!ENTITY ns_sfw "http://ns.adobe.com/SaveForWeb/1.0/">
	<!ENTITY ns_custom "http://ns.adobe.com/GenericCustomNamespace/1.0/">
	<!ENTITY ns_adobe_xpath "http://ns.adobe.com/XPath/1.0/">
]>
<svg version="1.1" id="Layer_1" xmlns:x="&ns_extend;" xmlns:i="&ns_ai;" xmlns:graph="&ns_graphs;"
	 xmlns="http://www.w3.org/2000/svg" xmlns:xlink="http://www.w3.org/1999/xlink" x="0px" y="0px" width="63.125px" height="25px"
	 viewBox="0 0 63.125 25" enable-background="new 0 0 63.125 25" xml:space="preserve">
<metadata>
	<sfw  xmlns="&ns_sfw;">
		<slices></slices>
		<sliceSourceBounds  height="25" width="63.124" y="-396.5" x="480.438" bottomLeftOrigin="true"></sliceSourceBounds>
	</sfw>
</metadata>
<g>
	<path fill-rule="evenodd" clip-rule="evenodd" fill="#29ABE2" d="M12.781,0h3.27v3.495h-3.215c-1.594,0-2.2,0.221-2.717,0.688
		C9.604,4.652,9.103,5.73,9.904,6.828c0.453,0.62,1.957,1.499,4.033,2.698c1.307,0.757,3.801,2.505,3.831,5.437
		c0.038,3.637-3.966,5.953-3.966,5.953l-0.734-0.778c0.494-0.446,1.2-1.212,1.264-2.499c0.076-1.55-0.837-3.237-2.591-4.333
		c-1.804-1.129-4.49-2.775-4.49-2.775S3.733,8.526,5.208,4.376C6,2.146,7.724,1.049,9.15,0.512c0,0,0.796-0.332,1.826-0.449
		C10.976,0.063,11.282,0,12.781,0L12.781,0z"/>
	<path fill-rule="evenodd" clip-rule="evenodd" fill="#085CA8" d="M0,25v-3.581c0,0,1.521,0,3.126,0c1.808,0,1.698-0.034,2.366-0.06
		c1.984-0.051,2.788-0.734,2.847-2.02c0.042-1.266-1.614-2.153-2.593-2.719c-0.989-0.559-1.665-0.98-1.665-0.98
		c-0.702-0.422-3.844-2.205-3.861-5.306C0.195,6.348,4.284,4.329,4.284,4.329l0.684,0.727C4.124,5.833,3.397,6.863,3.777,8.79
		c0.372,1.926,2.788,3.269,2.788,3.269s0.051,0.102,2.847,1.698c2.788,1.597,3.878,3.362,3.835,5.187
		c-0.051,1.834-1.427,3.523-1.427,3.523c-1.191,1.495-2.991,2.111-4.376,2.364c0,0-0.769,0.169-1.994,0.169C2.771,25,0,25,0,25L0,25
		z"/>
	<path fill-rule="evenodd" clip-rule="evenodd" fill="#085CA8" d="M28.271,20.791h3.118V9.044c0,0,1.008,0,1.562,0
		c0.549,0,0.908,0.274,0.908,0.868s0,10.881,0,10.881h3.098V9.565c0-1.11-0.342-1.62-0.498-1.933
		c-0.154-0.313-1.066-1.359-2.4-1.359c-0.883,0-5.787,0-5.787,0l0.003,7.131v7.387H28.271L28.271,20.791z"/>
	<path fill-rule="evenodd" clip-rule="evenodd" fill="#085CA8" d="M54.437,20.798h3.121V9.044c0,0,1.008,0,1.559,0
		c0.553,0,0.91,0.274,0.91,0.868s0,10.884,0,10.884h3.098V9.565c0-1.11-0.342-1.62-0.498-1.933c-0.154-0.313-1.066-1.359-2.4-1.359
		c-0.881,0-5.789,0-5.789,0l0.004,7.131v7.394H54.437L54.437,20.798z"/>
	<path fill-rule="evenodd" clip-rule="evenodd" fill="#085CA8" d="M40.648,20.811h3.547v-2.728c0,0-1.078,0-1.994,0
		c-0.914,0-0.867-0.743-0.867-0.743c0-1.195,0-8.303,0-8.303h2.861V6.352h-2.861V2.815l-3.115,4.722c0,0,0,10.006,0,10.477
		c0,1.277,0.617,1.914,0.617,1.914S39.562,20.811,40.648,20.811L40.648,20.811z"/>
	<path fill-rule="evenodd" clip-rule="evenodd" fill="#085CA8" d="M52.777,7.218c-0.529-0.717-1.219-0.877-2.033-0.899h-3.33
		c-0.814,0.022-1.508,0.179-2.035,0.899c-0.529,0.722-0.439,1.758-0.439,1.758s0,8.226,0,9.335c0,0-0.057,1.056,0.818,1.842
		c0,0,0.66,0.646,1.656,0.646h5.488v-2.715c0,0-3.115,0-4,0c0,0-0.404,0.06-0.727-0.223c0,0-0.209-0.188-0.209-0.657v-1.175
		c0,0,1.787,0,2.777,0c0,0,1.199,0.001,1.793-0.644c0.594-0.646,0.684-1.461,0.684-1.619s0-3.735,0-4.79h-0.002
		C53.218,8.976,53.3,7.922,52.777,7.218L52.777,7.218z M50.175,12.461c0,0.898-0.939,0.828-0.939,0.828h-1.27V9.868
		c0-0.897,0.936-0.826,0.936-0.826h0.334c0,0,0.939-0.071,0.939,0.826V12.461L50.175,12.461z"/>
	<path fill-rule="evenodd" clip-rule="evenodd" fill="#085CA8" d="M26.3,7.075c-0.354-0.356-0.956-0.767-1.788-0.797l-0.097-0.003
		c-1.327,0-5.398,0-5.398,0l-0.011,2.7c0,0,3.374,0,3.952,0c0.578,0,1.007,0.102,1.007,0.997c0,0.895,0,0.988,0,0.988
		s-1.836,0-2.82,0c0,0-0.865-0.036-1.54,0.445c-0.674,0.481-0.843,1.439-0.843,1.439s-0.096,0.411-0.096,0.977
		c0,1.955,0,2.971,0,4.488c0,1.449,0.802,2.006,0.802,2.006s0.468,0.466,1.672,0.475h3.344c1.23,0,1.706-0.475,1.706-0.475
		s0.802-0.557,0.802-2.006l0.004-0.004c0-1.643,0-8.938,0-9.497s-0.189-0.996-0.339-1.278C26.607,7.435,26.487,7.263,26.3,7.075
		L26.3,7.075z M23.946,17.34c0,0.332-0.143,0.667-0.754,0.667c-0.608,0-0.343,0-0.779,0c-0.432,0-0.717-0.243-0.717-0.665
		c0-0.423,0-2.742,0-2.852c0-0.156,0.128-0.715,0.787-0.715c0.658,0,1.472,0,1.472,0S23.946,17.008,23.946,17.34L23.946,17.34z"/>
</g>
</svg>
